<svg xmlns="http://www.w3.org/2000/svg" width="61" height="61" viewBox="0 0 61 61">
  <g id="Group_195" data-name="Group 195" transform="translate(-1028 -1602)">
    <g id="Group_132" data-name="Group 132" transform="translate(0 383)">
      <circle id="Ellipse_135" data-name="Ellipse 135" cx="30.5" cy="30.5" r="30.5" transform="translate(1028 1219)" fill="#73c6ea"/>
    </g>
    <g id="noun_keys_1852963" transform="translate(1034.811 1612.213)">
      <g id="Group_176" data-name="Group 176" transform="translate(9.448 0.961)">
        <g id="Group_170" data-name="Group 170" transform="translate(13.129 13.362)">
          <path id="Path_279" data-name="Path 279" d="M39.891,43.923l3.2-.181a.461.461,0,0,0,.3-.121L46.41,40.6a.388.388,0,0,0,.06-.543L35.425,23.1l-.6.785-.06-.06a9.706,9.706,0,0,1-2.716,1.811l.06.06-.905.241,4.346,6.7-2.233,1.449a.332.332,0,0,0-.181.3.766.766,0,0,0,.06.362l.785,1.207a.413.413,0,0,0,.6.121l2.233-1.449.362.543-.966.664a.332.332,0,0,0-.181.3l-.422,1.992c-.121.362.362.664.664.483L38.5,37.163l.6.905-1.992,1.267a.468.468,0,0,0-.121.6l1.449,2.233a.332.332,0,0,0,.3.181.765.765,0,0,0,.362-.06l1.931-1.267.483.785L39.59,43.078A.462.462,0,0,0,39.891,43.923Z" transform="translate(-31.2 -23.1)" fill="#fafafc"/>
        </g>
        <g id="Group_171" data-name="Group 171" transform="translate(4.256 1.834)">
          <path id="Path_280" data-name="Path 280" d="M16.5,4.181A1.319,1.319,0,0,1,16.8,4h-.181Z" transform="translate(-16.5 -4)" fill="#fafafc"/>
        </g>
        <g id="Group_172" data-name="Group 172" transform="translate(2.872)">
          <path id="Path_281" data-name="Path 281" d="M17.824,2.252h0a8.561,8.561,0,0,0-1.75,1.509h0a7.856,7.856,0,0,0-.6,9.355,7.764,7.764,0,0,0,12.675.483C33.456,6.718,25.187-2.456,17.824,2.252Zm4.587,4.1a2.38,2.38,0,0,1-2.294,1.871,2.353,2.353,0,0,1-2.294-2.837,2.344,2.344,0,1,1,4.587.966Z" transform="translate(-14.206 -0.961)" fill="#fafafc"/>
        </g>
        <g id="Group_173" data-name="Group 173" transform="translate(4.788 16.803)">
          <path id="Path_282" data-name="Path 282" d="M19.2,49.02a.538.538,0,0,0,.3.483s3.018,1.147,3.078,1.147h.241c.06,0,3.984-1.509,4.1-1.509a.538.538,0,0,0,.3-.483L24.213,28.8a9.038,9.038,0,0,1-4.346.845c-.241,0-.483-.06-.724-.06l1.207,7.907-2.6.423a.47.47,0,0,0-.362.543l.241,1.449a.4.4,0,0,0,.423.362h.06l2.6-.422.121.664c-1.69.241-1.086-.181-2.716,2.052a.367.367,0,0,0,0,.483.508.508,0,0,0,.422.241c.06,0,2.656-.422,2.656-.422l.181,1.086-2.414.241a.441.441,0,0,0-.362.543l.422,2.656a.332.332,0,0,0,.181.3.363.363,0,0,0,.241.06h.06L21.8,47.39l.121.905-2.294.362A.452.452,0,0,0,19.2,49.02Z" transform="translate(-17.381 -28.8)" fill="#fafafc"/>
        </g>
        <g id="Group_174" data-name="Group 174" transform="translate(4.558 1.653)">
          <path id="Path_283" data-name="Path 283" d="M17,3.881c.121-.06.3-.121.422-.181-.121.06-.3.121-.422.181Z" transform="translate(-17 -3.7)" fill="#fafafc"/>
        </g>
        <g id="Group_175" data-name="Group 175" transform="translate(0 1.955)">
          <path id="Path_284" data-name="Path 284" d="M9.54,12.348A7.788,7.788,0,0,0,19.2,18.686,8.7,8.7,0,0,1,13.7,4.2,7.9,7.9,0,0,0,9.54,12.348Z" transform="translate(-9.448 -4.2)" fill="#fafafc"/>
        </g>
      </g>
    </g>
  </g>
</svg>
