<svg xmlns="http://www.w3.org/2000/svg" width="93" height="93" viewBox="0 0 93 93">
  <g id="Group_77" data-name="Group 77" transform="translate(-447 -4202)">
    <circle id="Ellipse_53" data-name="Ellipse 53" cx="46.5" cy="46.5" r="46.5" transform="translate(447 4202)" fill="#e5f1ff"/>
    <g id="noun_analysis_2082857" transform="translate(452.395 4228.594) rotate(-19)">
      <g id="Group_61" data-name="Group 61">
        <path id="Path_86" data-name="Path 86" d="M37,2.035V15H49.965A14.023,14.023,0,0,0,37,2.035Z" fill="#177cfc"/>
        <g id="Group_60" data-name="Group 60">
          <path id="Path_87" data-name="Path 87" d="M16,20A16.007,16.007,0,0,1,31,4.051V2.027A17.975,17.975,0,0,0,20.085,33.456l1.841-1.041A15.973,15.973,0,0,1,16,20Z" fill="#177cfc"/>
          <path id="Path_88" data-name="Path 88" d="M42.307,32.219a15.9,15.9,0,0,1-18.559,1.463L21.776,34.8A17.941,17.941,0,0,0,44.339,33.09Z" fill="#177cfc"/>
          <circle id="Ellipse_63" data-name="Ellipse 63" cx="2" cy="2" r="2" transform="translate(30 25)" fill="#177cfc"/>
          <rect id="Rectangle_60" data-name="Rectangle 60" width="6" height="2" transform="translate(29 44)" fill="#177cfc"/>
          <path id="Path_89" data-name="Path 89" d="M32,34a13.911,13.911,0,0,0,8.206-2.681l-4.885-2.093A3.988,3.988,0,0,1,29.74,30.3l-3.951,2.233A13.9,13.9,0,0,0,32,34Z" fill="#177cfc"/>
          <path id="Path_90" data-name="Path 90" d="M18,54a3.959,3.959,0,0,0-1.969.539L8.407,46.068a3.881,3.881,0,0,0,.175-3.814L19.877,35.87a20.156,20.156,0,0,1-1.622-1.38L7.26,40.705a4.01,4.01,0,1,0-.291,6.756l7.624,8.471A3.955,3.955,0,0,0,14,58a4,4,0,1,0,4-4ZM5,46a2,2,0,1,1,2-2A2,2,0,0,1,5,46ZM18,60a2,2,0,1,1,2-2A2,2,0,0,1,18,60Z" fill="#177cfc"/>
          <path id="Path_91" data-name="Path 91" d="M35,42V39.75a18.125,18.125,0,0,1-6,0V42Z" fill="#177cfc"/>
          <path id="Path_92" data-name="Path 92" d="M59,34a4,4,0,0,0-3.321,1.775L47.7,32.354a19.984,19.984,0,0,1-1.381,1.583l8.717,3.736c-.01.11-.034.215-.034.327a4,4,0,1,0,4-4Zm0,6a2,2,0,1,1,2-2A2,2,0,0,1,59,40Z" fill="#177cfc"/>
          <rect id="Rectangle_61" data-name="Rectangle 61" width="6" height="14" transform="translate(29 48)" fill="#177cfc"/>
          <path id="Path_93" data-name="Path 93" d="M32,21a1,1,0,0,1-.708-.294l-9.86-9.86a13.942,13.942,0,0,0,2.393,20.5l4.593-2.6A3.959,3.959,0,0,1,28,27a4,4,0,0,1,8,0c0,.112-.024.217-.033.327l5.946,2.548A13.947,13.947,0,0,0,45.949,21Z" fill="#177cfc"/>
          <path id="Path_94" data-name="Path 94" d="M22.846,9.432,31,17.586V6.051A13.919,13.919,0,0,0,22.846,9.432Z" fill="#177cfc"/>
          <path id="Path_95" data-name="Path 95" d="M47.949,21a15.908,15.908,0,0,1-4.1,9.707l1.934.829A17.894,17.894,0,0,0,49.973,21Z" fill="#177cfc"/>
        </g>
      </g>
    </g>
  </g>
</svg>
