<svg xmlns="http://www.w3.org/2000/svg" width="93" height="93" viewBox="0 0 93 93">
  <g id="Group_72" data-name="Group 72" transform="translate(-1380 -5720)">
    <circle id="Ellipse_16" data-name="Ellipse 16" cx="46.5" cy="46.5" r="46.5" transform="translate(1380 5720)" fill="#ffefd0"/>
    <g id="noun_donut_small_3644001" data-name="noun_donut small_3644001" transform="translate(1401.613 5741.737)">
      <g id="Layer_2" data-name="Layer 2" transform="translate(0 0)">
        <path id="Path_103" data-name="Path 103" d="M54.563,16.432A13.912,13.912,0,0,1,65.13,27.07a1.659,1.659,0,0,0,1.626,1.349h7.907a1.659,1.659,0,0,0,1.659-1.93A25.009,25.009,0,0,0,55.155,5.251,1.659,1.659,0,0,0,53.22,6.91V14.8a1.692,1.692,0,0,0,1.344,1.631Z" transform="translate(-26.57 -5.226)" fill="#fcd386"/>
        <path id="Path_104" data-name="Path 104" d="M74.624,53.19H66.711a1.659,1.659,0,0,0-1.62,1.327A13.917,13.917,0,0,1,54.547,64.984,1.659,1.659,0,0,0,53.22,66.6v7.912a1.659,1.659,0,0,0,1.935,1.659A25,25,0,0,0,76.272,55.158a1.659,1.659,0,0,0-1.648-1.968Z" transform="translate(-26.57 -26.668)" fill="#ffbf45"/>
        <path id="Path_105" data-name="Path 105" d="M26.464,5.239a25,25,0,0,0,0,49.488,1.659,1.659,0,0,0,1.874-1.659v-7.9A1.659,1.659,0,0,0,27,43.513a13.89,13.89,0,0,1,0-27.094,1.659,1.659,0,0,0,1.338-1.631V6.9a1.659,1.659,0,0,0-1.874-1.659Z" transform="translate(-5.023 -5.225)" fill="#ffbf45"/>
      </g>
    </g>
    <g id="noun_Settings_1413912" transform="translate(1416.805 5756.93)">
      <g id="Group_64" data-name="Group 64" transform="translate(0 0)">
        <path id="Path_106" data-name="Path 106" d="M19.134,19l-.641,1.474-1.281.577-1.41-.513-1.025,1.025.577,1.538-.513,1.281-1.345.577V26.5l1.474.641.577,1.281-.513,1.345,1.025,1.089,1.538-.577,1.281.513.577,1.345h1.538l.641-1.538,1.281-.513,1.345.513,1.089-1.025-.641-1.538.577-1.281,1.345-.641V24.638L25.093,24l-.513-1.281.513-1.41-1.025-1.025-1.538.577-1.281-.513L20.608,19ZM17.34,31.558l-.448.641-.641.128-.641-.32-.577.384.128.769-.32.577-.7.128-.128.7.641.448.128.641-.384.641.384.577.769-.128.577.32.192.7.641.128.448-.641.7-.128.577.384.577-.384-.128-.769.384-.577.7-.128.128-.7-.641-.448-.128-.641.32-.641-.384-.577-.769.128-.513-.384-.192-.641Zm0,2.307a.891.891,0,0,0-1.089.7,1,1,0,0,0,.7,1.089.957.957,0,0,0,1.089-.7A.864.864,0,0,0,17.34,33.864ZM11,26.176l-.7.833-.961.192-.769-.577-.9.513.128,1.089-.577.7-.961.192L6,30.084l.833.7.128.961-.577.769.513.9,1.089-.128.769.577.192.961.961.256.7-.833.9-.128.833.577.9-.513L13.112,33.1l.577-.769.961-.192.256-.961-.9-.7-.128-.9.577-.833-.513-.9-1.089.128-.7-.577-.192-.961Zm-.192,3.2a1.333,1.333,0,0,0-1.6.9,1.3,1.3,0,1,0,2.5.7A1.333,1.333,0,0,0,10.805,29.379Zm9.226-5.766a1.971,1.971,0,0,0-1.922,1.922,1.928,1.928,0,0,0,1.922,1.922,1.888,1.888,0,0,0,1.922-1.922A1.928,1.928,0,0,0,20.031,23.613Z" transform="translate(-6 -19)" fill="#ffbf45" fill-rule="evenodd"/>
      </g>
    </g>
  </g>
</svg>
