<svg xmlns="http://www.w3.org/2000/svg" width="60.034" height="54.031" viewBox="0 0 60.034 54.031">
  <g id="noun_App_Store_32360" data-name="noun_App Store_32360" transform="translate(-5 -9.499)">
    <path id="Path_5" data-name="Path 5" d="M5,42.611V34.465a1.364,1.364,0,0,1,1.364-1.357h14.4L14.492,43.969H6.364A1.363,1.363,0,0,1,5,42.611ZM15.255,59.293l-4.594,3.112c-.618.42-1.055.154-.97-.588l.613-5.326a.833.833,0,0,1,1.337-.674L15.2,57.849A.786.786,0,0,1,15.255,59.293Zm1.1-3L12.8,54.259a1.351,1.351,0,0,1-.5-1.852L28.765,23.869a1.37,1.37,0,0,1,1.865-.5L34.185,25.4a1.362,1.362,0,0,1,.5,1.856L18.223,55.792A1.376,1.376,0,0,1,16.358,56.291Zm12.53-12.322,6.268-10.862h3.609l5.09,10.862ZM49.3,47.211c-1.423-.71-8.512-16.994-10.329-21.242S31.665,10.411,33.44,9.531c1.263-.631,5.8,8.274,9.2,13.62s10.495,19.132,11.368,20.7-.836,2.886-1.785,3.279A2.744,2.744,0,0,1,49.3,47.211Zm4.659,7.484-2.143-3.369a1.331,1.331,0,0,1,.506-1.935l2.041-1.045a1.508,1.508,0,0,1,2,.664l1.69,3.235a1.6,1.6,0,0,1-.57,2.085l-1.46.869A1.537,1.537,0,0,1,53.959,54.695Zm7.882,8.836c-.448-1.427-3.864-1.522-5.394-3.671s-.266-3.245.267-3.755C62.918,52.626,61.842,63.531,61.842,63.531Zm3.192-20.919a1.363,1.363,0,0,1-1.364,1.358H56.464a4.075,4.075,0,0,0-.426-1.231c-.187-.334-.661-1.235-1.322-2.492-.954-1.814-2.323-4.407-3.789-7.139H63.669a1.364,1.364,0,0,1,1.364,1.357v8.147Z" fill="#1f1f39"/>
  </g>
</svg>
