<svg xmlns="http://www.w3.org/2000/svg" width="93" height="93" viewBox="0 0 93 93">
  <g id="Group_78" data-name="Group 78" transform="translate(-914 -4202)">
    <path id="Path_70" data-name="Path 70" d="M46.5,0A46.5,46.5,0,1,1,0,46.5,46.5,46.5,0,0,1,46.5,0Z" transform="translate(914 4202)" fill="#d9f7f5"/>
    <g id="noun_confirm_1569402" transform="translate(1402.234 4722.461)">
      <g id="Layer_3" data-name="Layer 3" transform="translate(-463 -498.214)">
        <path id="Path_14" data-name="Path 14" d="M49.532,31.013V14.573a5.9,5.9,0,0,0-3.548-5.382l-7.052-3.08a25.516,25.516,0,0,0-20.342,0l-7.043,3.08A5.9,5.9,0,0,0,8,14.59V31.03a15.479,15.479,0,0,0,6.237,12.415L24.518,51.1a7.112,7.112,0,0,0,8.488,0l10.279-7.649a15.479,15.479,0,0,0,6.247-12.434ZM25.444,7.651l.147-.069a1.73,1.73,0,1,1,1.376,3.176l-.147.069a1.73,1.73,0,1,1-1.376-3.176ZM14,16.243a1.731,1.731,0,0,1-.692-3.314L20.235,9.9a1.73,1.73,0,1,1,1.376,3.176L14.688,16.1A1.731,1.731,0,0,1,14,16.243Zm25.317,6.308L29.242,32.64a3.565,3.565,0,0,1-5.044,0l-3.461-3.461a1.731,1.731,0,0,1,2.449-2.449l3.461,3.461a.121.121,0,0,0,.147,0l10.08-10.08a1.731,1.731,0,1,1,2.449,2.449Z" transform="translate(-8 -3.996)" fill="#14dbce"/>
      </g>
    </g>
  </g>
</svg>
