<svg xmlns="http://www.w3.org/2000/svg" width="132" height="132" viewBox="0 0 132 132">
  <g id="Group_210" data-name="Group 210" transform="translate(-1369 -5225)">
    <circle id="Ellipse_137" data-name="Ellipse 137" cx="66" cy="66" r="66" transform="translate(1369 5225)" fill="#ccfae5"/>
    <g id="Group_208" data-name="Group 208">
      <g id="noun_dialing_863312" transform="translate(1409.471 5249.671)">
        <g id="Group_136" data-name="Group 136" transform="translate(0 0)">
          <path id="Path_199" data-name="Path 199" d="M32.85,6.263A6.263,6.263,0,1,1,26.587,0,6.263,6.263,0,0,1,32.85,6.263ZM42.229,0a6.263,6.263,0,1,0,6.263,6.263A6.263,6.263,0,0,0,42.229,0ZM57.87,12.526a6.263,6.263,0,1,0-6.262-6.263A6.263,6.263,0,0,0,57.87,12.526ZM26.587,15.2a6.263,6.263,0,1,0,6.263,6.263A6.263,6.263,0,0,0,26.587,15.2Zm15.642,0a6.265,6.265,0,0,0-5.756,8.734,6.177,6.177,0,0,1,11.521-.021A6.264,6.264,0,0,0,42.229,15.2Zm15.641,0a6.263,6.263,0,1,0,6.263,6.263A6.263,6.263,0,0,0,57.87,15.2Zm-31.283,15.2a6.263,6.263,0,1,0,6.263,6.263A6.263,6.263,0,0,0,26.587,30.409Zm31.283,0a6.263,6.263,0,1,0,6.263,6.263A6.262,6.262,0,0,0,57.87,30.409Zm8.057,16.675c-2.067-.222-3.89.947-4.09,2.613,0,0,.189-1.78.189-1.78.18-1.684-1.361-3.23-3.441-3.453s-3.915.962-4.1,2.646l.093-.865c.18-1.684-1.361-3.229-3.442-3.453s-3.914.961-4.094,2.646l-.3,2.819V25.9a4.622,4.622,0,0,0-4.673-4.1A4.37,4.37,0,0,0,37.661,25.9V61.885L35.9,50.565a5.888,5.888,0,0,0-5.1,6.582s.891,8.181,2.111,11.77c2.055,4.81,8.794,5.167,8.976,8.26s.322,5.481.322,5.481H63.3s-.011-4.045-.011-6.791,6.1-6.236,5.617-14.225c-.06-.994.466-11.105.466-11.105C69.548,48.853,68.008,47.307,65.927,47.084Z" transform="translate(-20.324)" fill="#2dd385"/>
        </g>
      </g>
    </g>
  </g>
</svg>
