<svg xmlns="http://www.w3.org/2000/svg" width="61" height="61" viewBox="0 0 61 61">
  <g id="Group_202" data-name="Group 202" transform="translate(-1390 -3221)">
    <g id="Group_166" data-name="Group 166" transform="translate(362 2002)">
      <circle id="Ellipse_135" data-name="Ellipse 135" cx="30.5" cy="30.5" r="30.5" transform="translate(1028 1219)" fill="#feaf9e"/>
    </g>
    <g id="noun_Server_4208338" transform="translate(1399.861 3231.169)">
      <g id="Group_184" data-name="Group 184" transform="translate(1 2)">
        <g id="Group_183" data-name="Group 183">
          <path id="Path_306" data-name="Path 306" d="M264.279,151.274A3.272,3.272,0,0,0,261.006,148H228.273A3.272,3.272,0,0,0,225,151.274v6.547a3.274,3.274,0,0,0,3.273,3.273h32.733a3.274,3.274,0,0,0,3.273-3.273Zm-32.733,1.964a1.309,1.309,0,1,1-1.309,1.309A1.31,1.31,0,0,1,231.547,153.238Zm5.237,0a1.309,1.309,0,1,1-1.309,1.309A1.31,1.31,0,0,1,236.784,153.238Zm5.237,0a1.309,1.309,0,1,1-1.309,1.309A1.31,1.31,0,0,1,242.021,153.238Zm15.712,0H247.258a1.309,1.309,0,0,0,0,2.619h10.474a1.309,1.309,0,0,0,0-2.619Z" transform="translate(-225 -124.432)" fill="#fafafc" fill-rule="evenodd"/>
          <path id="Path_307" data-name="Path 307" d="M234.165,150.95a1.31,1.31,0,0,0,1.309-1.309,9.165,9.165,0,0,1,18.33,0,1.31,1.31,0,0,0,1.309,1.309h7.856a1.31,1.31,0,0,0,1.309-1.309q0-.681-.047-1.362a3.27,3.27,0,0,0-2.335-2.911c-.219-.067-.445-.134-.66-.2a.653.653,0,0,1-.443-.443,0,0,0,0,1,0,0,16.542,16.542,0,0,0-1.249-3.031l-.005-.009a.651.651,0,0,1,0-.622l.321-.6a3.274,3.274,0,0,0-.384-3.7l-.013-.014a20.738,20.738,0,0,0-1.946-1.936l-.007-.005a3.269,3.269,0,0,0-3.694-.386c-.194.1-.4.215-.6.323a.652.652,0,0,1-.626,0s0,0,0,0a16.489,16.489,0,0,0-3.027-1.26l-.01,0a.647.647,0,0,1-.437-.44l-.2-.651a3.275,3.275,0,0,0-2.891-2.346h-.018a20.664,20.664,0,0,0-2.746.008h-.009a3.267,3.267,0,0,0-2.883,2.338c-.067.207-.135.437-.2.653a.655.655,0,0,1-.443.444h0a16.431,16.431,0,0,0-3.031,1.249l-.009.005a.649.649,0,0,1-.621,0l-.6-.321a3.27,3.27,0,0,0-3.7.384l-.014.013a20.722,20.722,0,0,0-1.935,1.946l-.007.007a3.267,3.267,0,0,0-.386,3.692c.1.194.215.4.323.6a.654.654,0,0,1,0,.627l0,0a16.5,16.5,0,0,0-1.26,3.027.024.024,0,0,0,0,.009.648.648,0,0,1-.441.439l-.645.2a3.273,3.273,0,0,0-2.349,2.917s0,.005,0,.009c-.028.45-.043.9-.043,1.353a1.31,1.31,0,0,0,1.309,1.309Z" transform="translate(-225 -130)" fill="#fafafc" fill-rule="evenodd"/>
        </g>
      </g>
    </g>
  </g>
</svg>
