<svg xmlns="http://www.w3.org/2000/svg" contain="paint" buffered-rendering="static"
    aria-labelledby="icon-label-capterra-logo" viewBox="0 0 250 250" role="img"
    style="height: 36px;width: 36px;shape-rendering:geometricPrecision; text-rendering:geometricPrecision; image-rendering:optimizeQuality; fill-rule:evenodd; clip-rule:evenodd"
    xmlns:xlink="http://www.w3.org/1999/xlink">
    <title id="icon-label-capterra-logo">Capterra - Business Software Reviews</title>
    <g>
        <path style="opacity:1" fill="#6bc5ec"
        d="M 234.5,-0.5 C 235.833,-0.5 237.167,-0.5 238.5,-0.5C 237.496,0.682751 236.662,2.01608 236,3.5C 211.188,82.1 186.688,160.767 162.5,239.5C 162.167,239.5 161.833,239.5 161.5,239.5C 161.167,238.833 160.833,238.167 160.5,237.5C 161.499,188.003 161.832,138.336 161.5,88.5C 141.5,88.5 121.5,88.5 101.5,88.5C 101.5,88.1667 101.5,87.8333 101.5,87.5C 121.674,87.8305 141.674,87.4971 161.5,86.5C 161.83,66.9928 161.497,47.6595 160.5,28.5C 185.167,18.8333 209.833,9.16667 234.5,-0.5 Z" />
    </g>
    <g>
        <path style="opacity:1" fill="#ff9d2a"
        d="M 157.5,29.5 C 158.5,29.5 159.5,29.5 160.5,29.5C 160.5,48.5 160.5,67.5 160.5,86.5C 109.762,86.8284 59.0949,86.4951 8.5,85.5C 57.9363,66.4623 107.603,47.7956 157.5,29.5 Z" />
    </g>
    <g>
        <path style="opacity:1" fill="#f2a442"
        d="M 157.5,29.5 C 158.209,28.596 159.209,28.2627 160.5,28.5C 161.497,47.6595 161.83,66.9928 161.5,86.5C 161.167,86.5 160.833,86.5 160.5,86.5C 160.5,67.5 160.5,48.5 160.5,29.5C 159.5,29.5 158.5,29.5 157.5,29.5 Z" />
    </g>
    <g>
        <path style="opacity:1" fill="#ffaa22"
        d="M 8.5,85.5 C 59.0949,86.4951 109.762,86.8284 160.5,86.5C 160.833,86.5 161.167,86.5 161.5,86.5C 141.674,87.4971 121.674,87.8305 101.5,87.5C 68.6624,87.1684 35.9957,87.5017 3.5,88.5C 2.1153,87.6977 2.28197,87.0311 4,86.5C 5.43975,85.8524 6.93975,85.5191 8.5,85.5 Z" />
    </g>
    <g>
        <path style="opacity:1" fill="#e64b48"
        d="M 101.5,87.5 C 101.5,87.8333 101.5,88.1667 101.5,88.5C 106.297,100.885 111.297,113.218 116.5,125.5C 116.376,126.107 116.043,126.44 115.5,126.5C 77.8811,114.405 40.5478,101.739 3.5,88.5C 35.9957,87.5017 68.6624,87.1684 101.5,87.5 Z" />
    </g>
    <g>
        <path style="opacity:1" fill="#0c4d81"
        d="M 101.5,88.5 C 121.5,88.5 141.5,88.5 161.5,88.5C 161.832,138.336 161.499,188.003 160.5,237.5C 145.758,200.357 130.758,163.357 115.5,126.5C 116.043,126.44 116.376,126.107 116.5,125.5C 111.297,113.218 106.297,100.885 101.5,88.5 Z" />
    </g>
</svg>