<svg xmlns="http://www.w3.org/2000/svg" width="172.152" height="330.684" viewBox="0 0 172.152 330.684">
  <g id="Group_54" data-name="Group 54" transform="translate(-1641 -1941)">
    <g id="Group_38" data-name="Group 38" transform="matrix(-0.616, 0.788, -0.788, -0.616, 2714.446, 2632.669)">
      <g id="Group_4" data-name="Group 4" transform="translate(248 950)">
        <g id="Path_46" data-name="Path 46" transform="translate(0 0)" fill="none">
          <path d="M29,0c16.016,0,.025,14.215.025,33.458S45.016,69.684,29,69.684,0,54.084,0,34.842,12.984,0,29,0Z" stroke="none"/>
          <path d="M 28.99999618530273 5 C 22.76515579223633 5 16.84742164611816 7.984455108642578 12.3369026184082 13.40358734130859 C 10.05504989624023 16.14509582519531 8.257850646972656 19.35366821289062 6.995235443115234 22.94015884399414 C 5.671287536621094 26.70086669921875 4.999996185302734 30.70516204833984 4.999996185302734 34.84182739257812 C 4.999996185302734 38.97849273681641 5.671287536621094 42.9827880859375 6.995235443115234 46.74349212646484 C 8.257850646972656 50.32998657226562 10.05504989624023 53.53855895996094 12.3369026184082 56.28006744384766 C 16.84742164611816 61.69919967651367 22.76515579223633 64.68365478515625 28.99999618530273 64.68365478515625 C 30.08354949951172 64.68365478515625 30.74856376647949 64.58277893066406 31.12448501586914 64.49372863769531 C 31.11724090576172 64.08698272705078 31.046142578125 63.36001205444336 30.75931549072266 62.16073608398438 C 30.32479476928711 60.34394836425781 29.55275535583496 58.06910705566406 28.73538208007812 55.66069412231445 C 26.63687515258789 49.47738647460938 24.02520942687988 41.78205490112305 24.02520942687988 33.4577751159668 C 24.02520942687988 29.59138870239258 24.58351516723633 25.61098861694336 25.7320499420166 21.28911972045898 C 26.69138336181641 17.67914581298828 27.89240837097168 14.44924163818359 28.95206260681152 11.59954833984375 C 29.68403625488281 9.631069183349609 30.31619644165039 7.931026458740234 30.72062301635742 6.506694793701172 C 30.88998222351074 5.910221099853516 30.98969078063965 5.4615478515625 31.04780578613281 5.130401611328125 C 30.60709381103516 5.061012268066406 29.9495677947998 5 28.99999618530273 5 M 28.99999618530273 0 C 45.01626205444336 0 29.02520942687988 14.21516036987305 29.02520942687988 33.4577751159668 C 29.02520942687988 52.70038604736328 45.01626205444336 69.68365478515625 28.99999618530273 69.68365478515625 C 12.98374176025391 69.68365478515625 -3.814697265625e-06 54.08444213867188 -3.814697265625e-06 34.84182739257812 C -3.814697265625e-06 15.59921264648438 12.98374176025391 0 28.99999618530273 0 Z" stroke="none" fill="#177cfc"/>
        </g>
      </g>
    </g>
    <circle id="Ellipse_50" data-name="Ellipse 50" cx="12" cy="12" r="12" transform="translate(1641 1941)" fill="#dfddf5"/>
  </g>
</svg>
