<?xml version="1.0" encoding="UTF-8"?>
<!DOCTYPE svg PUBLIC "-//W3C//DTD SVG 1.1//EN" "http://www.w3.org/Graphics/SVG/1.1/DTD/svg11.dtd">
<svg xmlns="http://www.w3.org/2000/svg" version="1.1" width="128px" height="128px" style="shape-rendering:geometricPrecision; text-rendering:geometricPrecision; image-rendering:optimizeQuality; fill-rule:evenodd; clip-rule:evenodd" xmlns:xlink="http://www.w3.org/1999/xlink">
<g><path style="opacity:0.97" fill="#000000" d="M 52.5,-0.5 C 59.8333,-0.5 67.1667,-0.5 74.5,-0.5C 103.167,6.16667 120.833,23.8333 127.5,52.5C 127.5,59.8333 127.5,67.1667 127.5,74.5C 120.833,103.167 103.167,120.833 74.5,127.5C 67.1667,127.5 59.8333,127.5 52.5,127.5C 23.8333,120.833 6.16667,103.167 -0.5,74.5C -0.5,67.1667 -0.5,59.8333 -0.5,52.5C 6.16667,23.8333 23.8333,6.16667 52.5,-0.5 Z M 93.5,34.5 C 98.4943,34.329 100.328,36.6624 99,41.5C 85.4979,57.0332 71.6645,72.1999 57.5,87C 55.7111,87.5205 54.0444,87.1871 52.5,86C 44.3333,79.1667 36.1667,72.3333 28,65.5C 27.1667,61 29,59.1667 33.5,60C 40.1667,65.3333 46.8333,70.6667 53.5,76C 54.5,76.6667 55.5,76.6667 56.5,76C 69.0411,62.2956 81.3744,48.4623 93.5,34.5 Z"/></g>
</svg>
