<svg xmlns="http://www.w3.org/2000/svg" width="93" height="93" viewBox="0 0 93 93">
  <g id="Group_74" data-name="Group 74" transform="translate(-447 -3724)">
    <path id="Path_69" data-name="Path 69" d="M46.5,0A46.5,46.5,0,1,1,0,46.5,46.5,46.5,0,0,1,46.5,0Z" transform="translate(447 3724)" fill="#dbf7d9"/>
    <g id="noun_Cloud_List_209795" data-name="noun_Cloud List_209795" transform="translate(382.281 4246.933)">
      <g id="Group_58" data-name="Group 58" transform="translate(86 -498.5)">
        <g id="Group_57" data-name="Group 57" transform="translate(16.813 29.423)">
          <g id="Group_56" data-name="Group 56">
            <g id="Group_52" data-name="Group 52" transform="translate(0 12.61)">
              <path id="Path_71" data-name="Path 71" d="M21.66,23.6H9.051a1.051,1.051,0,0,1,0-2.1H21.66a1.051,1.051,0,1,1,0,2.1Z" transform="translate(-8 -21.5)" fill="#88d383"/>
            </g>
            <g id="Group_53" data-name="Group 53" transform="translate(0 8.406)">
              <path id="Path_72" data-name="Path 72" d="M21.66,21.6H9.051a1.051,1.051,0,0,1,0-2.1H21.66a1.051,1.051,0,1,1,0,2.1Z" transform="translate(-8 -19.5)" fill="#88d383"/>
            </g>
            <g id="Group_54" data-name="Group 54" transform="translate(0 4.203)">
              <path id="Path_73" data-name="Path 73" d="M21.66,19.6H9.051a1.051,1.051,0,1,1,0-2.1H21.66a1.051,1.051,0,1,1,0,2.1Z" transform="translate(-8 -17.5)" fill="#88d383"/>
            </g>
            <g id="Group_55" data-name="Group 55">
              <path id="Path_74" data-name="Path 74" d="M21.66,17.6H9.051a1.051,1.051,0,0,1,0-2.1H21.66a1.051,1.051,0,1,1,0,2.1Z" transform="translate(-8 -15.5)" fill="#88d383"/>
            </g>
          </g>
        </g>
        <path id="Path_75" data-name="Path 75" d="M39.607,14.158a15.754,15.754,0,0,0-31.2,3.1c0,.355.015.719.046,1.1a9.458,9.458,0,0,0,1,18.862h5.254v-4.2a4.2,4.2,0,0,1,4.2-4.2H29.423a4.2,4.2,0,0,1,4.2,4.2v4.2H38.88a11.546,11.546,0,0,0,.727-23.069Z" transform="translate(0 -1.5)" fill="#88d383"/>
      </g>
    </g>
  </g>
</svg>
