<svg xmlns="http://www.w3.org/2000/svg" width="61" height="61" viewBox="0 0 61 61">
  <g id="Group_199" data-name="Group 199" transform="translate(-1028 -2370)">
    <g id="Group_161" data-name="Group 161" transform="translate(0 1151)">
      <circle id="Ellipse_135" data-name="Ellipse 135" cx="30.5" cy="30.5" r="30.5" transform="translate(1028 1219)" fill="#77e5e5"/>
    </g>
    <g id="noun_code_800007" transform="translate(1035.152 2353.7)">
      <g id="Group_179" data-name="Group 179" transform="translate(1.975 27.583)">
        <path id="Path_293" data-name="Path 293" d="M170.093,27.719a2.136,2.136,0,0,0-2.751,1.254L154.519,63.165a2.136,2.136,0,0,0,1.254,2.751,2.253,2.253,0,0,0,2.751-1.254L171.346,30.47A2.136,2.136,0,0,0,170.093,27.719Z" transform="translate(-141.56 -27.583)" fill="#fdfbf9"/>
        <path id="Path_294" data-name="Path 294" d="M380.515,148.995l-7.942-7.942a.853.853,0,0,0-1.212,0l-1.809,1.809a.853.853,0,0,0,0,1.212l6.436,6.436-6.436,6.436a.853.853,0,0,0,0,1.212l1.809,1.809a.853.853,0,0,0,1.212,0l7.942-7.942A2.148,2.148,0,0,0,380.515,148.995Z" transform="translate(-338.395 -131.275)" fill="#fdfbf9"/>
        <path id="Path_295" data-name="Path 295" d="M13.571,142.961l-1.809-1.809a.853.853,0,0,0-1.212,0L2.6,149.086a2.138,2.138,0,0,0,0,3.02l7.942,7.942a.853.853,0,0,0,1.212,0l1.809-1.809a.853.853,0,0,0,0-1.212l-6.436-6.436,6.436-6.436A.84.84,0,0,0,13.571,142.961Z" transform="translate(-1.975 -131.366)" fill="#fdfbf9"/>
      </g>
    </g>
  </g>
</svg>
