<svg xmlns="http://www.w3.org/2000/svg" width="61" height="61" viewBox="0 0 61 61">
  <g id="Group_201" data-name="Group 201" transform="translate(-1390 -2823)">
    <g id="Group_164" data-name="Group 164" transform="translate(362 1604)">
      <circle id="Ellipse_135" data-name="Ellipse 135" cx="30.5" cy="30.5" r="30.5" transform="translate(1028 1219)" fill="#feaf9e"/>
    </g>
    <g id="noun_distribution_2270503" transform="translate(1400.549 2832.723)">
      <g id="Group_182" data-name="Group 182" transform="translate(0.794 0.613)">
        <path id="Path_298" data-name="Path 298" d="M26.668,314.081l6.653,3.841a2.947,2.947,0,1,0,.737-1.276L27.405,312.8a7.368,7.368,0,0,0,0-6.055l3.069-1.772a2.947,2.947,0,1,0-.737-1.276l-3.069,1.772a7.368,7.368,0,0,0-5.244-3.027v-7.5a2.947,2.947,0,1,0-1.474,0v7.5a7.368,7.368,0,0,0-5.244,3.027l-3.578-2.066a2.947,2.947,0,1,0-.737,1.276l3.578,2.066a7.368,7.368,0,0,0,0,6.055L5.844,317.5a2.947,2.947,0,1,0,.737,1.276l8.126-4.692a7.368,7.368,0,0,0,5.244,3.028v6.566a2.948,2.948,0,1,0,1.474,0v-6.566a7.368,7.368,0,0,0,5.244-3.028Z" transform="translate(-0.794 -289.146)" fill="#fafafc"/>
      </g>
    </g>
  </g>
</svg>
