<svg xmlns="http://www.w3.org/2000/svg" width="61" height="61" viewBox="0 0 61 61">
  <g id="Group_194" data-name="Group 194" transform="translate(-1390 -1599)">
    <g id="Group_133" data-name="Group 133" transform="translate(362 380)">
      <circle id="Ellipse_135" data-name="Ellipse 135" cx="30.5" cy="30.5" r="30.5" transform="translate(1028 1219)" fill="#73c6ea"/>
    </g>
    <g id="noun_Application_Locked_4353784" data-name="noun_Application Locked_4353784" transform="translate(1401.529 1611.176)">
      <g id="Group_177" data-name="Group 177" transform="translate(1.5 2.473)">
        <path id="Path_285" data-name="Path 285" d="M-78.5,373.123v31.7h34.94v-31.7Zm1.664,1.664h31.613v5.4H-76.836Zm15.806,8.248a9.4,9.4,0,0,1,9.3,9.473,9.4,9.4,0,0,1-9.3,9.476,9.4,9.4,0,0,1-9.3-9.476A9.4,9.4,0,0,1-61.03,383.034Zm-.237,4.26A2.772,2.772,0,0,0-64,390.08v1.381h-1.661v6.259H-56.4v-6.259H-58.06V390.08a2.772,2.772,0,0,0-2.733-2.785Zm0,1.664h.474a1.077,1.077,0,0,1,1.069,1.121v1.381h-2.613V390.08A1.077,1.077,0,0,1-61.267,388.959Z" transform="translate(78.5 -373.123)" fill="#fafafc"/>
        <path id="Path_286" data-name="Path 286" d="M-65.76,375.246v1.664h3.38v-1.664Z" transform="translate(86.957 -371.714)" fill="#fafafc"/>
        <path id="Path_287" data-name="Path 287" d="M-76.135,375.246v1.664h13.668v-1.664Z" transform="translate(80.07 -371.714)" fill="#fafafc"/>
        <path id="Path_288" data-name="Path 288" d="M-61.84,375.246v1.664h3.38v-1.664Z" transform="translate(89.56 -371.714)" fill="#fafafc"/>
      </g>
    </g>
  </g>
</svg>
