<svg xmlns="http://www.w3.org/2000/svg" width="61" height="61" viewBox="0 0 61 61">
  <g id="Group_204" data-name="Group 204" transform="translate(-1028 -3663)">
    <g id="Group_167" data-name="Group 167" transform="translate(0 2444)">
      <circle id="Ellipse_135" data-name="Ellipse 135" cx="30.5" cy="30.5" r="30.5" transform="translate(1028 1219)" fill="#feaf9e"/>
    </g>
    <g id="noun_Server_Backup_21014" data-name="noun_Server Backup_21014" transform="translate(1038.136 3671.315)">
      <g id="Group_185" data-name="Group 185" transform="translate(2.27 3.825)">
        <path id="Path_308" data-name="Path 308" d="M59.743,51.261H55.714l2.279-2.279a2.1,2.1,0,0,0-2.971-2.971l-5.865,5.864a2.062,2.062,0,0,0-.261.32,1.649,1.649,0,0,0-.092.162,1.819,1.819,0,0,0-.1.2,1.855,1.855,0,0,0-.064.2,1.431,1.431,0,0,0-.054.2,1.993,1.993,0,0,0-.033.289l-.008.118a1.034,1.034,0,0,0,.008.126,1.95,1.95,0,0,0,.032.278,1.547,1.547,0,0,0,.055.2l.011.034a1.279,1.279,0,0,0,.054.161,1.96,1.96,0,0,0,.116.227,1.382,1.382,0,0,0,.08.14,2.089,2.089,0,0,0,.262.319l5.864,5.864a2.087,2.087,0,0,0,1.485.615,2.057,2.057,0,0,0,.365-.036c.041-.007.08-.017.121-.027a2.055,2.055,0,0,0,.229-.069c.045-.016.089-.031.132-.05a2.116,2.116,0,0,0,.29-.155h0a2.135,2.135,0,0,0,.349-.279,2.08,2.08,0,0,0,.472-.734h0a2.126,2.126,0,0,0,.089-.3c.012-.056.018-.111.025-.168s.016-.126.018-.19,0-.109,0-.163a2.082,2.082,0,0,0-.023-.238c-.006-.037-.007-.075-.014-.111a2.1,2.1,0,0,0-.1-.331c-.014-.037-.031-.072-.047-.107a1.986,1.986,0,0,0-.124-.235c-.02-.033-.039-.065-.061-.1a2.049,2.049,0,0,0-.24-.295l-2.279-2.279h4.029a4.394,4.394,0,0,1,4.389,4.389,2.1,2.1,0,1,0,4.2,0A8.6,8.6,0,0,0,59.743,51.261Z" transform="translate(-30.144 -28.867)" fill="#fafafc"/>
        <path id="Path_309" data-name="Path 309" d="M18.832,69.251q-.961.061-1.958.062c-6.657,0-12.273-2.081-14.032-4.927-.373-.6-.572-.28-.572.019v4.177c0,4.044,6.538,8.239,14.6,8.239a21.831,21.831,0,0,0,8.1-1.516,6.134,6.134,0,0,1-.638-.547Z" transform="translate(-2.27 -40.102)" fill="#fafafc"/>
        <path id="Path_310" data-name="Path 310" d="M16.874,17.77c8.066,0,14.6-2.608,14.6-5.825V9.317c0-3.033-6.537-5.492-14.6-5.492S2.27,6.284,2.27,9.317v2.628C2.27,15.162,8.808,17.77,16.874,17.77Z" transform="translate(-2.27 -3.825)" fill="#fafafc"/>
        <path id="Path_311" data-name="Path 311" d="M16.744,49.186c-.008-.079-.025-.153-.031-.234-.014-.152-.021-.3-.021-.453v-.13l.008-.13.006-.09a5.86,5.86,0,0,1,.1-.81,5.341,5.341,0,0,1,.155-.607c.041-.142.1-.316.176-.513l.014-.036.015-.036a5.668,5.668,0,0,1,.269-.549,5.318,5.318,0,0,1,.272-.46,5.955,5.955,0,0,1,.765-.936l2.46-2.46a34.577,34.577,0,0,1-4.058.235c-6.686,0-12.325-1.844-14.057-4.36-.357-.518-.548-.237-.548,0V42.53C2.27,46.188,8.738,49.154,16.744,49.186Z" transform="translate(-2.27 -24.005)" fill="#fafafc"/>
      </g>
    </g>
  </g>
</svg>
