<svg xmlns="http://www.w3.org/2000/svg" width="132" height="132" viewBox="0 0 132 132">
  <g id="Group_211" data-name="Group 211" transform="translate(-1364 -5500)">
    <circle id="Ellipse_148" data-name="Ellipse 148" cx="66" cy="66" r="66" transform="translate(1364 5500)" fill="#d2f6fd"/>
    <g id="noun_upload_document_3109644" data-name="noun_upload document_3109644" transform="translate(1396 5529)">
      <g id="Layer_32" data-name="Layer 32" transform="translate(5 2)">
        <path id="Path_225" data-name="Path 225" d="M15.054,69.718h39.8v2.6a2.6,2.6,0,0,1-2.6,2.6H7.6a2.6,2.6,0,0,1-2.6-2.6v-59.9a2.6,2.6,0,0,1,2.6-2.6h2.24v54.7A5.209,5.209,0,0,0,15.054,69.718ZM49.9,15.023H60.893L50.475,2.912a2.6,2.6,0,0,0-.6-.469Zm12.4,5.209V64.509a2.6,2.6,0,0,1-2.6,2.6H15.054a2.6,2.6,0,0,1-2.6-2.6V4.6a2.6,2.6,0,0,1,2.6-2.6h29.64V17.627a2.6,2.6,0,0,0,2.6,2.6ZM48.522,34.01,40.708,26.2a2.6,2.6,0,0,0-3.7,0L29.2,34.01a2.615,2.615,0,0,0,3.7,3.7l3.36-3.386V48.882a2.6,2.6,0,1,0,5.209,0V34.322l3.36,3.386a2.615,2.615,0,1,0,3.7-3.7Z" transform="translate(-5 -2)" fill="#2ecbe6"/>
      </g>
    </g>
  </g>
</svg>
