<svg xmlns="http://www.w3.org/2000/svg" width="93" height="93" viewBox="0 0 93 93">
  <g id="Group_222" data-name="Group 222" transform="translate(-396 -5630)">
    <circle id="Ellipse_135" data-name="Ellipse 135" cx="46.5" cy="46.5" r="46.5" transform="translate(396 5630)" fill="#eb5eb0"/>
    <g id="noun_easy_3428320" transform="translate(137.459 5781.313)">
      <g id="Group_140" data-name="Group 140" transform="translate(286.232 -134.007)">
        <g id="Group_139" data-name="Group 139" transform="translate(0 0)">
          <path id="Path_204" data-name="Path 204" d="M141.815,103.6a3.71,3.71,0,0,1-.114,5.255l-12.8,12.21a3.769,3.769,0,0,1,5.283.191,3.353,3.353,0,0,1-.231,4.751l-1.741,1.644a3.758,3.758,0,0,1,5.87,1.025,3.974,3.974,0,0,1-.9,4.727l-1.9,1.794a3.771,3.771,0,0,1,5.117.024l0,0a3.583,3.583,0,0,1,.023,5.272l-7.147,6.749a13.556,13.556,0,0,1-18.4-.073l-5.8-5.476a11.822,11.822,0,0,1-2.487-14.212,15.019,15.019,0,0,0,1.666-10.428,3.531,3.531,0,0,1,1.063-3.263,4.025,4.025,0,0,1,6.6,1.83l1.123,6.48,1.306-1.233,18.229-17.387a3.71,3.71,0,0,1,5.234.114Z" transform="translate(-105.232 -92.424)" fill="#fff"/>
          <g id="Group_138" data-name="Group 138" transform="translate(1.94 0)">
            <rect id="Rectangle_102" data-name="Rectangle 102" width="10.035" height="3.617" transform="matrix(0.007, -1, 1, 0.007, 10.926, 10.035)" fill="#fff"/>
            <rect id="Rectangle_103" data-name="Rectangle 103" width="9.149" height="3.617" transform="translate(16.463 10.644) rotate(-44.968)" fill="#fff"/>
            <rect id="Rectangle_104" data-name="Rectangle 104" width="3.617" height="9.009" transform="matrix(0.705, -0.709, 0.709, 0.705, 0, 7.008)" fill="#fff"/>
          </g>
        </g>
      </g>
    </g>
  </g>
</svg>
