<svg xmlns="http://www.w3.org/2000/svg" width="93" height="93" viewBox="0 0 93 93">
  <g id="Group_82" data-name="Group 82" transform="translate(-1380 -6079)">
    <circle id="Ellipse_17" data-name="Ellipse 17" cx="46.5" cy="46.5" r="46.5" transform="translate(1380 6079)" fill="#ffe9e5"/>
    <g id="noun_performance_3700148" transform="translate(1138.646 6319)">
      <path id="Path_109" data-name="Path 109" d="M26.323,1A25.323,25.323,0,1,0,51.646,26.323,25.326,25.326,0,0,0,26.323,1Zm10.1,41.372A3.5,3.5,0,0,1,33.944,43.4H18.7a3.5,3.5,0,0,1-2.477-5.983A3.474,3.474,0,0,1,18.7,36.381H33.944a3.509,3.509,0,0,1,2.477,5.991ZM19.731,23.823a3.988,3.988,0,0,1,1.385-1.709,26.318,26.318,0,0,0,6.837-6.726l1.654-2.414a1.9,1.9,0,0,1,3.142,2.152L31.1,17.531a29.057,29.057,0,0,0-3.83,8.926,4.3,4.3,0,0,1-.554,1.195,4,4,0,0,1-6.98-3.83Zm17.433,1.8a13.826,13.826,0,0,0-3.886-9.647l.23-.332a2.84,2.84,0,0,0-.736-3.933,2.833,2.833,0,0,0-2.121-.443,2.762,2.762,0,0,0-1.8,1.179l-.229.332A13.925,13.925,0,0,0,9.325,25.627H6.634a19.689,19.689,0,0,1,39.378,0Zm-12.377.958a1.813,1.813,0,1,0-2.516.475A1.808,1.808,0,0,0,24.788,26.584Z" transform="translate(261.354 -220)" fill="#ff5730"/>
    </g>
  </g>
</svg>
