<svg xmlns="http://www.w3.org/2000/svg" width="93" height="93" viewBox="0 0 93 93">
  <g id="Group_75" data-name="Group 75" transform="translate(-914 -3724)">
    <circle id="Ellipse_51" data-name="Ellipse 51" cx="46.5" cy="46.5" r="46.5" transform="translate(914 3724)" fill="#fff4de"/>
    <g id="noun_schedule_4211065" transform="translate(933 3740.81)">
      <path id="Path_76" data-name="Path 76" d="M24.375,38.269H21.592a.7.7,0,0,0-.7.7v2.772a.7.7,0,0,0,.7.706h2.783a.705.705,0,0,0,.7-.706V38.973a.7.7,0,0,0-.7-.7Z" transform="translate(-7.804 -14.284)" fill="#ffbf45"/>
      <path id="Path_77" data-name="Path 77" d="M45.5,60.643H42.7a.693.693,0,0,0-.7.682v2.8a.7.7,0,0,0,.7.7H45.5a.7.7,0,0,0,.695-.7v-2.8A.691.691,0,0,0,45.5,60.643Z" transform="translate(-18.175 -25.275)" fill="#ffbf45"/>
      <path id="Path_78" data-name="Path 78" d="M24.375,60.643H21.592a.692.692,0,0,0-.7.682v2.8a.7.7,0,0,0,.7.7h2.783a.705.705,0,0,0,.7-.7v-2.8A.7.7,0,0,0,24.375,60.643ZM22.98,63.419a.7.7,0,1,1,.5-.2A.694.694,0,0,1,22.98,63.419Z" transform="translate(-7.805 -25.275)" fill="#ffbf45"/>
      <path id="Path_79" data-name="Path 79" d="M45.5,38.269H42.7a.7.7,0,0,0-.7.7v2.772a.7.7,0,0,0,.7.706H45.5a.7.7,0,0,0,.695-.706V38.973a.7.7,0,0,0-.695-.7Zm-1.4,2.793a.7.7,0,1,1,.7-.7A.7.7,0,0,1,44.1,41.062Z" transform="translate(-18.175 -14.284)" fill="#ffbf45"/>
      <path id="Path_80" data-name="Path 80" d="M63.822,42.451h2.8a.7.7,0,0,0,.69-.706V38.973a.7.7,0,0,0-.693-.7h-2.8a.7.7,0,0,0-.693.7v2.772a.7.7,0,0,0,.7.706Z" transform="translate(-28.553 -14.284)" fill="#ffbf45"/>
      <path id="Path_81" data-name="Path 81" d="M66.132,52.064A9.843,9.843,0,1,0,73.1,54.947,9.849,9.849,0,0,0,66.132,52.064ZM71.2,62.711H66.132a.79.79,0,0,1-.784-.8V55.793a.791.791,0,0,1,1.582,0v5.323H71.2a.8.8,0,1,1,0,1.595Z" transform="translate(-25.192 -21.061)" fill="#ffbf45"/>
      <path id="Path_82" data-name="Path 82" d="M40.94,30.277a10.524,10.524,0,0,1,5.9,1.8V13.843a2.8,2.8,0,0,0-2.793-2.8h-3.48V9.907a.7.7,0,1,0-1.4,0v1.138H33.593V9.907a.7.7,0,1,0-1.4,0v1.138H26.618V9.907a.7.7,0,0,0-.693-.7.706.706,0,0,0-.7.7v1.138H19.643V9.907a.7.7,0,0,0-.693-.7.706.706,0,0,0-.7.7v1.138H12.678V9.907a.7.7,0,0,0-.7-.7.7.7,0,0,0-.693.7v1.138H7.8a2.8,2.8,0,0,0-2.8,2.8V43.937A2.79,2.79,0,0,0,7.8,46.73H32.169A10.569,10.569,0,0,1,40.94,30.277ZM38.334,16.658h2.255a.7.7,0,1,1,0,1.407H38.334a.7.7,0,1,1,0-1.407Zm-.269,5.918a2.108,2.108,0,0,1,2.092,2.112V27.46a2.11,2.11,0,0,1-2.09,2.113h-2.8A2.1,2.1,0,0,1,33.18,27.46V24.688a2.1,2.1,0,0,1,2.09-2.112Zm-6.5-5.918h2.257a.7.7,0,1,1,0,1.407H31.565a.7.7,0,0,1,0-1.407ZM7.154,45.212a2.79,2.79,0,0,1-.967-2.457V15.419a2.824,2.824,0,0,1,.967-2.457ZM24.8,16.658h2.255a.7.7,0,0,1,0,1.407H24.8a.7.7,0,0,1,0-1.407Zm-14.241.7a.719.719,0,0,1,.7-.7h2.257a.7.7,0,0,1,0,1.407H11.261A.719.719,0,0,1,10.557,17.361ZM18.67,38.846a2.094,2.094,0,0,1-2.1,2.09H13.787a2.094,2.094,0,0,1-2.1-2.09v-2.8a2.092,2.092,0,0,1,2.1-2.09H16.57a2.092,2.092,0,0,1,2.1,2.09Zm0-11.385a2.112,2.112,0,0,1-2.1,2.113H13.787a2.112,2.112,0,0,1-2.1-2.113V24.688a2.11,2.11,0,0,1,2.1-2.112H16.57a2.11,2.11,0,0,1,2.1,2.111Zm1.615-9.4H18.03a.7.7,0,1,1,0-1.407h2.255a.7.7,0,0,1,0,1.407Zm9.128,20.781a2.093,2.093,0,0,1-2.092,2.09H24.528a2.086,2.086,0,0,1-2.09-2.09v-2.8a2.083,2.083,0,0,1,2.09-2.09h2.793a2.092,2.092,0,0,1,2.092,2.09Zm0-11.385a2.112,2.112,0,0,1-2.092,2.113H24.528a2.1,2.1,0,0,1-2.09-2.113V24.688a2.1,2.1,0,0,1,2.09-2.112h2.793a2.11,2.11,0,0,1,2.092,2.111Z" transform="translate(0 0)" fill="#ffbf45"/>
    </g>
  </g>
</svg>
