<svg xmlns="http://www.w3.org/2000/svg" width="93" height="93" viewBox="0 0 93 93">
  <g id="Group_224" data-name="Group 224" transform="translate(-1137 -6104)">
    <path id="Path_221" data-name="Path 221" d="M46.5,0A46.5,46.5,0,1,1,0,46.5,46.5,46.5,0,0,1,46.5,0Z" transform="translate(1137 6104)" fill="#1ed6b2"/>
    <g id="noun_Data_protected_1674897" data-name="noun_Data protected_1674897" transform="translate(1146.409 6118.007)">
      <g id="Group_146" data-name="Group 146" transform="translate(16.192 5.859)">
        <path id="Path_216" data-name="Path 216" d="M30.666,25.438V21.9a8.9,8.9,0,0,1,8.9-8.92,8.856,8.856,0,0,1,8.92,8.92v3.537h7.35V21.9a15.466,15.466,0,0,0-4.687-11.355A15.464,15.464,0,0,0,39.791,5.859a15.34,15.34,0,0,0-11.332,4.687A15.468,15.468,0,0,0,23.772,21.9v3.537Z" transform="translate(-19.198 -5.859)" fill="#fff"/>
        <g id="Group_145" data-name="Group 145" transform="translate(0 21.572)">
          <path id="Path_217" data-name="Path 217" d="M49.167,55.6a1.717,1.717,0,1,0,1.717,1.717A1.718,1.718,0,0,0,49.167,55.6Z" transform="translate(-28.589 -47.16)" fill="#fff"/>
          <path id="Path_218" data-name="Path 218" d="M55.808,42.906a4,4,0,0,0-2.954-1.3H20.328a4.1,4.1,0,0,0-2.884,1.183,4.042,4.042,0,0,0-1.251,2.957V69.143a4.117,4.117,0,0,0,4.163,4.165H52.827a3.886,3.886,0,0,0,2.845-1.183,3.926,3.926,0,0,0,1.319-2.981V45.75A3.873,3.873,0,0,0,55.808,42.906ZM47.446,66.719a4.581,4.581,0,0,1-4.577-4.577,4.524,4.524,0,0,1,.8-2.572l-4.488-4.489a4.153,4.153,0,0,1-4.69.089l-4.636,4.636a4.6,4.6,0,1,1-1.71-1.658l4.834-4.834a4.035,4.035,0,0,1-.307-1.545,4.1,4.1,0,1,1,7.954,1.391l4.851,4.852a4.576,4.576,0,1,1,1.969,8.706Z" transform="translate(-16.192 -41.61)" fill="#fff" stroke="#73ead3" stroke-width="1"/>
          <path id="Path_219" data-name="Path 219" d="M66.547,72A2.194,2.194,0,1,0,68.74,74.2,2.2,2.2,0,0,0,66.547,72Z" transform="translate(-35.292 -53.664)" fill="#fff"/>
          <path id="Path_220" data-name="Path 220" d="M30.874,72A2.194,2.194,0,1,0,33.067,74.2,2.2,2.2,0,0,0,30.874,72Z" transform="translate(-21.144 -53.664)" fill="#fff"/>
        </g>
      </g>
    </g>
  </g>
</svg>
