<svg xmlns="http://www.w3.org/2000/svg" width="93" height="93" viewBox="0 0 93 93">
  <g id="Group_221" data-name="Group 221" transform="translate(-890 -5632)">
    <g id="Group_134" data-name="Group 134" transform="translate(-138 4413)">
      <circle id="Ellipse_135" data-name="Ellipse 135" cx="46.5" cy="46.5" r="46.5" transform="translate(1028 1219)" fill="#2ecbe6"/>
    </g>
    <g id="Group_147" data-name="Group 147">
      <g id="noun_low_price_658723" data-name="noun_low price_658723" transform="translate(1207.203 5867.133) rotate(180)">
        <g id="Group_142" data-name="Group 142" transform="translate(235.963 159)">
          <g id="Group_141" data-name="Group 141" transform="translate(11.443 2.9)">
            <path id="Path_205" data-name="Path 205" d="M53.6,23.829H44.545V5.083A2.16,2.16,0,0,0,42.362,2.9H23.829a2.16,2.16,0,0,0-2.183,2.183V23.829H13.71A2.264,2.264,0,0,0,11.9,27.451L31.285,52.215a2.244,2.244,0,0,0,3.621,0L55.409,27.4A2.255,2.255,0,0,0,53.6,23.829Z" transform="translate(-11.443 -2.9)" fill="#fff"/>
          </g>
        </g>
      </g>
      <g id="noun_percentage_782897" transform="translate(928.903 5673.838)">
        <path id="Path_222" data-name="Path 222" d="M4.937,17.209a.89.89,0,0,0,1.242-.162l12.1-13.677a.89.89,0,0,0,.009-1.253L16.1.185a.89.89,0,0,0-1.242.162L2.761,14.024a.89.89,0,0,0-.009,1.253Z" transform="translate(-1.82 0)" fill="#73d8ea"/>
        <circle id="Ellipse_139" data-name="Ellipse 139" cx="3.035" cy="3.035" r="3.035" transform="translate(0 -0.001)" fill="#73d8ea"/>
        <circle id="Ellipse_140" data-name="Ellipse 140" cx="3.035" cy="3.035" r="3.035" transform="translate(11.325 11.325)" fill="#73d8ea"/>
      </g>
    </g>
  </g>
</svg>
