<svg xmlns="http://www.w3.org/2000/svg" width="53.613" height="70" viewBox="0 0 53.613 70">
  <g id="noun_Data_protected_1674897" data-name="noun_Data protected_1674897" transform="translate(-16.192 -5.859)">
    <g id="Group_146" data-name="Group 146" transform="translate(16.192 5.859)">
      <path id="Path_216" data-name="Path 216" d="M32.832,31.587V26.939A11.689,11.689,0,0,1,44.523,15.218,11.637,11.637,0,0,1,56.245,26.939v4.648H65.9V26.939a20.323,20.323,0,0,0-6.159-14.921A20.321,20.321,0,0,0,44.823,5.859a20.158,20.158,0,0,0-14.892,6.159,20.326,20.326,0,0,0-6.159,14.921v4.648Z" transform="translate(-17.762 -5.859)" fill="#1ed6b2"/>
      <g id="Group_145" data-name="Group 145" transform="translate(0 28.347)">
        <path id="Path_217" data-name="Path 217" d="M49.706,55.6a2.256,2.256,0,1,0,2.257,2.256A2.258,2.258,0,0,0,49.706,55.6Z" transform="translate(-22.665 -44.508)" fill="#1ed6b2"/>
        <path id="Path_218" data-name="Path 218" d="M68.251,43.313a5.254,5.254,0,0,0-3.881-1.7H21.627a5.392,5.392,0,0,0-3.79,1.555,5.312,5.312,0,0,0-1.644,3.886V77.79a5.41,5.41,0,0,0,5.471,5.473h42.67a5.107,5.107,0,0,0,3.739-1.555A5.159,5.159,0,0,0,69.8,77.79V47.051A5.089,5.089,0,0,0,68.251,43.313ZM57.263,74.605a6.02,6.02,0,0,1-6.014-6.014A5.946,5.946,0,0,1,52.3,65.212l-5.9-5.9a5.458,5.458,0,0,1-6.162.117l-6.092,6.093A6.051,6.051,0,1,1,31.9,63.343l6.353-6.352a5.3,5.3,0,0,1-.4-2.03A5.385,5.385,0,1,1,48.3,56.789l6.375,6.376a6.013,6.013,0,1,1,2.588,11.44Z" transform="translate(-16.192 -41.61)" fill="#1ed6b2"/>
        <path id="Path_219" data-name="Path 219" d="M67.236,72a2.883,2.883,0,1,0,2.882,2.882A2.888,2.888,0,0,0,67.236,72Z" transform="translate(-26.166 -47.904)" fill="#1ed6b2"/>
        <path id="Path_220" data-name="Path 220" d="M31.563,72a2.883,2.883,0,1,0,2.883,2.882A2.887,2.887,0,0,0,31.563,72Z" transform="translate(-18.778 -47.904)" fill="#1ed6b2"/>
      </g>
    </g>
  </g>
</svg>
