<svg xmlns="http://www.w3.org/2000/svg" width="61.858" height="70" viewBox="0 0 61.858 70">
  <g id="Group_147" data-name="Group 147" transform="translate(-915.406 -5655)">
    <g id="noun_low_price_658723" data-name="noun_low price_658723" transform="translate(977.264 5725) rotate(180)">
      <g id="Group_142" data-name="Group 142" transform="translate(0 0)">
        <g id="Group_141" data-name="Group 141" transform="translate(0 0)">
          <path id="Path_205" data-name="Path 205" d="M58.743,29.165H46.127V3.043A3.009,3.009,0,0,0,43.085,0H17.259a3.009,3.009,0,0,0-3.043,3.043V29.165H3.159A3.155,3.155,0,0,0,.636,34.211L27.649,68.72a3.127,3.127,0,0,0,5.046,0L61.267,34.137A3.142,3.142,0,0,0,58.743,29.165Z" fill="#2ecbe6"/>
        </g>
      </g>
    </g>
    <g id="noun_percentage_782897" transform="translate(934.214 5681.25)">
      <path id="Path_222" data-name="Path 222" d="M5.9,23.981a1.24,1.24,0,0,0,1.731-.226L24.482,4.7a1.24,1.24,0,0,0,.012-1.746L21.45.258a1.241,1.241,0,0,0-1.731.226L2.864,19.543a1.24,1.24,0,0,0-.012,1.746Z" transform="translate(-1.552 0.001)" fill="#faf4ee"/>
      <circle id="Ellipse_139" data-name="Ellipse 139" cx="4.23" cy="4.23" r="4.23" transform="translate(0 0)" fill="#faf4ee"/>
      <circle id="Ellipse_140" data-name="Ellipse 140" cx="4.23" cy="4.23" r="4.23" transform="translate(15.782 15.782)" fill="#faf4ee"/>
    </g>
  </g>
</svg>
