<svg xmlns="http://www.w3.org/2000/svg" width="93" height="93" viewBox="0 0 93 93">
  <g id="Group_81" data-name="Group 81" transform="translate(-461 -6079)">
    <path id="Path_50" data-name="Path 50" d="M46.5,0A46.5,46.5,0,1,1,0,46.5,46.5,46.5,0,0,1,46.5,0Z" transform="translate(461 6079)" fill="#e5f1ff"/>
    <g id="Group_66" data-name="Group 66" transform="translate(-3.18 -3)">
      <g id="noun_Folder_104051" transform="translate(483.18 6110)">
        <g id="Group_65" data-name="Group 65" transform="translate(0 0)">
          <path id="Path_107" data-name="Path 107" d="M57.935,31.938H16.544A3.508,3.508,0,0,0,13.451,34.6L6.377,56.862l-.523,1.719a1.989,1.989,0,0,0,1.924,2.587H49.17a3.394,3.394,0,0,0,2.858-1.922,3.1,3.1,0,0,0,.235-.648l4.913-15.421L59.86,34.6A2.052,2.052,0,0,0,57.935,31.938Z" transform="translate(-5.309 -24.631)" fill="#177cfc"/>
          <path id="Path_108" data-name="Path 108" d="M14.981,25.987H55.542V22.333H28.405L27.431,19.9H9.991l-.974,2.436H5V50.949l6.981-22.322A3.383,3.383,0,0,1,14.981,25.987Z" transform="translate(-5 -19.897)" fill="#177cfc"/>
        </g>
      </g>
      <circle id="Ellipse_64" data-name="Ellipse 64" cx="7.892" cy="7.892" r="7.892" transform="translate(514.583 6126.713)" fill="#e5f1ff"/>
      <text id="i" transform="translate(522.154 6138.642)" fill="#177cfc" font-size="15" font-family="Times-BoldItalic, Times" font-weight="700" font-style="italic"><tspan x="-2.084" y="0">i</tspan></text>
    </g>
  </g>
</svg>
