<svg xmlns="http://www.w3.org/2000/svg" width="511.998" height="511.998" viewBox="0 0 511.998 511.998">
  <g id="instagram-icon" transform="translate(0 -0.162)">
    <path id="Path_557" data-name="Path 557" d="M256,.162c-69.526,0-78.244.295-105.549,1.541C123.2,2.946,104.593,7.273,88.309,13.6A125.484,125.484,0,0,0,42.967,43.129,125.484,125.484,0,0,0,13.439,88.472C7.11,104.755,2.783,123.364,1.54,150.613.294,177.918,0,186.635,0,256.161S.294,334.4,1.54,361.709c1.244,27.248,5.571,45.858,11.9,62.141a125.5,125.5,0,0,0,29.527,45.343,125.485,125.485,0,0,0,45.342,29.527c16.284,6.328,34.894,10.656,62.142,11.9,27.305,1.246,36.023,1.541,105.549,1.541s78.243-.295,105.548-1.541c27.248-1.243,45.858-5.571,62.141-11.9a130.9,130.9,0,0,0,74.871-74.871c6.328-16.283,10.656-34.893,11.9-62.141C511.7,334.4,512,325.686,512,256.161s-.295-78.244-1.541-105.549c-1.243-27.248-5.571-45.858-11.9-62.141a125.484,125.484,0,0,0-29.527-45.342A125.5,125.5,0,0,0,423.688,13.6C407.4,7.273,388.8,2.946,361.547,1.7,334.242.456,325.524.162,256,.162Zm0,46.127c68.354,0,76.451.26,103.445,1.492,24.96,1.139,38.515,5.31,47.535,8.814a79.318,79.318,0,0,1,29.435,19.15,79.314,79.314,0,0,1,19.15,29.435c3.506,9.021,7.676,22.576,8.814,47.535,1.232,26.994,1.493,35.091,1.493,103.446s-.261,76.451-1.493,103.445c-1.138,24.96-5.309,38.515-8.814,47.535a84.781,84.781,0,0,1-48.585,48.585c-9.021,3.506-22.576,7.676-47.535,8.814-26.99,1.232-35.086,1.493-103.445,1.493s-76.455-.261-103.446-1.493c-24.96-1.138-38.515-5.309-47.535-8.814a79.317,79.317,0,0,1-29.436-19.15,79.3,79.3,0,0,1-19.149-29.435c-3.506-9.021-7.676-22.576-8.815-47.535-1.232-26.994-1.492-35.091-1.492-103.445s.26-76.452,1.492-103.446c1.139-24.96,5.31-38.515,8.815-47.535A79.311,79.311,0,0,1,75.582,75.745a79.33,79.33,0,0,1,29.436-19.15c9.021-3.5,22.576-7.675,47.535-8.814C179.548,46.549,187.645,46.288,256,46.288Z" fill="#cdcddb"/>
    <path id="Path_558" data-name="Path 558" d="M256,341.494a85.333,85.333,0,1,1,85.333-85.333A85.333,85.333,0,0,1,256,341.494ZM256,124.7A131.459,131.459,0,1,0,387.458,256.161,131.459,131.459,0,0,0,256,124.7Z" fill="#cdcddb"/>
    <path id="Path_559" data-name="Path 559" d="M423.372,119.508a30.72,30.72,0,1,1-30.72-30.719A30.72,30.72,0,0,1,423.372,119.508Z" fill="#cdcddb"/>
  </g>
</svg>
