<svg xmlns="http://www.w3.org/2000/svg" width="61" height="61" viewBox="0 0 61 61">
  <g id="Group_297" data-name="Group 297" transform="translate(-1028 -3224)">
    <g id="Group_203" data-name="Group 203">
      <g id="Group_165" data-name="Group 165" transform="translate(0 2005)">
        <circle id="Ellipse_135" data-name="Ellipse 135" cx="30.5" cy="30.5" r="30.5" transform="translate(1028 1219)" fill="#feaf9e"/>
      </g>
    </g>
    <g id="noun_buffering_639428" transform="translate(1032.764 3228.915)">
      <path id="Path_299" data-name="Path 299" d="M45.576,11.51V15.4a1.975,1.975,0,0,0,1.991,2.082A1.95,1.95,0,0,0,49.558,15.4V7.482A1.975,1.975,0,0,0,47.567,5.4a1.913,1.913,0,0,0-1.991,2.037C45.53,8.839,45.576,10.2,45.576,11.51Z" transform="translate(-21.875)" fill="#fafafc"/>
      <path id="Path_300" data-name="Path 300" d="M11.572,49.528h3.892a2.017,2.017,0,1,0,.091-4.028H7.725A1.927,1.927,0,0,0,5.6,47.537a2.016,2.016,0,0,0,2.218,1.991C9.037,49.573,10.3,49.528,11.572,49.528Z" transform="translate(0 -21.952)" fill="#fafafc"/>
      <path id="Path_301" data-name="Path 301" d="M73.917,45.576H70.025A1.949,1.949,0,0,0,67.9,47.612a1.979,1.979,0,0,0,2.127,1.946h7.829a1.949,1.949,0,0,0,2.127-2.037,1.979,1.979,0,0,0-2.127-1.946C76.5,45.53,75.184,45.576,73.917,45.576Z" transform="translate(-34.105 -21.983)" fill="#fafafc"/>
      <path id="Path_302" data-name="Path 302" d="M23.51,67.6l2.761-2.761a2,2,0,1,0-2.806-2.851c-1.856,1.81-3.711,3.666-5.521,5.521a1.993,1.993,0,1,0,2.851,2.761C21.7,69.406,22.6,68.5,23.51,67.6Z" transform="translate(-6.372 -30.607)" fill="#fafafc"/>
      <path id="Path_303" data-name="Path 303" d="M67.3,64.733l-2.761-2.761a2,2,0,1,0-2.806,2.851c1.81,1.856,3.666,3.711,5.521,5.521a1.965,1.965,0,0,0,2.942.045,1.99,1.99,0,0,0-.136-2.9C69.158,66.543,68.253,65.638,67.3,64.733Z" transform="translate(-30.342 -30.595)" fill="#fafafc"/>
      <path id="Path_304" data-name="Path 304" d="M23.4,20.633l-2.761-2.761a2,2,0,1,0-2.806,2.851c1.81,1.856,3.666,3.711,5.521,5.521a2,2,0,1,0,2.806-2.851Z" transform="translate(-6.309 -6.453)" fill="#fafafc"/>
      <path id="Path_305" data-name="Path 305" d="M49.583,73.917V70.025A1.949,1.949,0,0,0,47.546,67.9,1.979,1.979,0,0,0,45.6,70.025v7.829a2.017,2.017,0,1,0,4.028,0C49.628,76.5,49.583,75.184,49.583,73.917Z" transform="translate(-21.9 -34.213)" fill="#fafafc"/>
    </g>
  </g>
</svg>
