<svg xmlns="http://www.w3.org/2000/svg" width="61" height="61" viewBox="0 0 61 61">
  <g id="Group_130" data-name="Group 130" transform="translate(-227 -656)">
    <circle id="Ellipse_135" data-name="Ellipse 135" cx="30.5" cy="30.5" r="30.5" transform="translate(227 656)" fill="#73c6ea"/>
    <g id="noun_Address_2340040" transform="translate(227.8 664.5)">
      <g id="Group_126" data-name="Group 126" transform="translate(15.2 2.5)">
        <path id="Path_196" data-name="Path 196" d="M36.606,67.6c-.484.847-1.008,1.653-1.532,2.419,3.386.766,5.4,2.1,5.4,3.1,0,1.492-4.475,3.749-11.247,3.749s-11.247-2.258-11.247-3.749c0-1.008,2.016-2.3,5.4-3.1-.524-.766-1.048-1.572-1.532-2.419-3.87,1.008-6.652,2.822-6.652,5.523,0,4.273,7.055,6.531,14.029,6.531S43.258,77.4,43.258,73.123C43.258,70.422,40.476,68.608,36.606,67.6Z" transform="translate(-15.2 -41.356)" fill="#fdfbf9"/>
        <path id="Path_197" data-name="Path 197" d="M34.955,33.138C37.817,28.9,44.671,18.3,44.671,13.505a10.985,10.985,0,1,0-21.971,0c0,4.8,6.894,15.4,9.756,19.632A1.547,1.547,0,0,0,34.955,33.138ZM28.586,13.505a5.12,5.12,0,1,1,5.12,5.079A5.127,5.127,0,0,1,28.586,13.505Z" transform="translate(-19.677 -2.5)" fill="#fdfbf9"/>
      </g>
    </g>
  </g>
</svg>
