<svg xmlns="http://www.w3.org/2000/svg" width="61.858" height="70" viewBox="0 0 61.858 70">
  <g id="noun_low_price_658723" data-name="noun_low price_658723" transform="translate(-247.406 -161.9)">
    <g id="Group_142" data-name="Group 142" transform="translate(247.406 161.9)">
      <g id="Group_141" data-name="Group 141" transform="translate(0 0)">
        <path id="Path_205" data-name="Path 205" d="M70.187,32.065H57.571V5.943A3.009,3.009,0,0,0,54.528,2.9H28.7A3.009,3.009,0,0,0,25.66,5.943V32.065H14.6a3.155,3.155,0,0,0-2.523,5.046L39.092,71.62a3.127,3.127,0,0,0,5.046,0L72.71,37.037A3.142,3.142,0,0,0,70.187,32.065Zm-20.7,17.959A9.075,9.075,0,0,1,45.1,52.993V56.11c0,.3-.148.371-.445.371H39.983c-.3,0-.371-.148-.371-.371V53.067a8.8,8.8,0,0,1-2.523-1.187,11.472,11.472,0,0,1-2-1.781,8.658,8.658,0,0,1-1.262-2.3,8.4,8.4,0,0,1-.445-2.672c0-.3.148-.371.445-.371h5.714c.148,0,.223,0,.3.074a.386.386,0,0,1,.148.3,1.458,1.458,0,0,0,.742,1.262,2.739,2.739,0,0,0,1.707.519,2.659,2.659,0,0,0,1.781-.668,2.052,2.052,0,0,0,.742-1.336v-.519a.641.641,0,0,0-.223-.445,7.562,7.562,0,0,0-2.968-1.262A19.572,19.572,0,0,1,38.8,41.638a15.861,15.861,0,0,1-2.226-1.262A7.021,7.021,0,0,1,33.6,34.44a6.225,6.225,0,0,1,.816-3.043,7,7,0,0,1,2.226-2.449,9.674,9.674,0,0,1,3.191-1.484V24.421c0-.148,0-.223.074-.3a.386.386,0,0,1,.3-.148H44.88a.386.386,0,0,1,.3.148.563.563,0,0,1,.148.3v3.043a9.618,9.618,0,0,1,3.711,2.078,7.638,7.638,0,0,1,2.152,3.414c.074.3,0,.445-.223.519l-5.417,1.707H45.4c-.223,0-.3-.074-.371-.3a1.659,1.659,0,0,0-.965-1.039,3.65,3.65,0,0,0-1.484-.371,3.426,3.426,0,0,0-1.707.371,2.709,2.709,0,0,0-.742.519.561.561,0,0,0,.074.3,1.26,1.26,0,0,0,.445.445,9.711,9.711,0,0,0,.965.519,12.375,12.375,0,0,0,1.781.594,18.8,18.8,0,0,1,2.672.891,11.225,11.225,0,0,1,2.6,1.484,6.749,6.749,0,0,1,2.152,2.672,7.745,7.745,0,0,1,.742,3.488A9.144,9.144,0,0,1,49.482,50.024Z" transform="translate(-11.443 -2.9)" fill="#fa795b"/>
      </g>
    </g>
  </g>
</svg>
