<svg xmlns="http://www.w3.org/2000/svg" width="93" height="93" viewBox="0 0 93 93">
  <g id="Group_220" data-name="Group 220" transform="translate(-1374 -5632)">
    <g id="Group_143" data-name="Group 143" transform="translate(346 4413)">
      <circle id="Ellipse_135" data-name="Ellipse 135" cx="46.5" cy="46.5" r="46.5" transform="translate(1028 1219)" fill="#fa795b"/>
    </g>
    <g id="noun_low_price_658723" data-name="noun_low price_658723" transform="translate(1152 5493.1)">
      <g id="Group_142" data-name="Group 142" transform="translate(235.963 159)">
        <g id="Group_141" data-name="Group 141" transform="translate(11.443 2.9)">
          <path id="Path_205" data-name="Path 205" d="M53.6,23.829H44.545V5.083A2.16,2.16,0,0,0,42.362,2.9H23.829a2.16,2.16,0,0,0-2.183,2.183V23.829H13.71A2.264,2.264,0,0,0,11.9,27.451L31.285,52.215a2.244,2.244,0,0,0,3.621,0L55.409,27.4A2.255,2.255,0,0,0,53.6,23.829ZM38.74,36.717a6.512,6.512,0,0,1-3.142,2.13v2.237c0,.213-.107.266-.32.266H31.924c-.213,0-.266-.107-.266-.266V38.9a6.314,6.314,0,0,1-1.811-.852,8.233,8.233,0,0,1-1.438-1.278A6.213,6.213,0,0,1,27.5,35.12a6.031,6.031,0,0,1-.32-1.917c0-.213.107-.266.32-.266h4.1c.107,0,.16,0,.213.053a.277.277,0,0,1,.107.213,1.046,1.046,0,0,0,.533.905,1.965,1.965,0,0,0,1.225.373A1.908,1.908,0,0,0,34.959,34a1.472,1.472,0,0,0,.533-.959V32.67a.46.46,0,0,0-.16-.32,5.426,5.426,0,0,0-2.13-.905,14.045,14.045,0,0,1-2.13-.746,11.382,11.382,0,0,1-1.6-.905,5.039,5.039,0,0,1-2.13-4.26,4.467,4.467,0,0,1,.586-2.183,5.022,5.022,0,0,1,1.6-1.757,6.942,6.942,0,0,1,2.29-1.065V18.344c0-.107,0-.16.053-.213a.277.277,0,0,1,.213-.107h3.355a.277.277,0,0,1,.213.107.4.4,0,0,1,.107.213v2.183a6.9,6.9,0,0,1,2.663,1.491,5.481,5.481,0,0,1,1.544,2.45c.053.213,0,.32-.16.373l-3.888,1.225h-.107c-.16,0-.213-.053-.266-.213a1.19,1.19,0,0,0-.692-.746,2.62,2.62,0,0,0-1.065-.266,2.459,2.459,0,0,0-1.225.266,1.944,1.944,0,0,0-.533.373.4.4,0,0,0,.053.213.9.9,0,0,0,.32.32,6.969,6.969,0,0,0,.692.373,8.881,8.881,0,0,0,1.278.426,13.489,13.489,0,0,1,1.917.639,8.055,8.055,0,0,1,1.864,1.065A4.843,4.843,0,0,1,39.7,30.433a5.558,5.558,0,0,1,.533,2.5A6.562,6.562,0,0,1,38.74,36.717Z" transform="translate(-11.443 -2.9)" fill="#fff"/>
        </g>
      </g>
    </g>
  </g>
</svg>
