<svg xmlns="http://www.w3.org/2000/svg" width="61" height="61" viewBox="0 0 61 61">
  <g id="Group_131" data-name="Group 131" transform="translate(-227 -954)">
    <circle id="Ellipse_136" data-name="Ellipse 136" cx="30.5" cy="30.5" r="30.5" transform="translate(227 954)" fill="#73eab8"/>
    <g id="noun_call_582859" transform="translate(521.402 917.281)">
      <g id="Group_128" data-name="Group 128" transform="translate(-281.029 50.031)">
        <g id="Group_127" data-name="Group 127" transform="translate(0)">
          <path id="Path_198" data-name="Path 198" d="M26.74,29.235a2.384,2.384,0,0,1-1.3-.421,26.808,26.808,0,0,1-9.445-9.292,3.069,3.069,0,0,1-.65-2.18c.268-1.453,2.1-2.027,2.638-3.4.5-1.185-.153-2.524-.918-3.556a16.372,16.372,0,0,0-4.7-4.321A6.553,6.553,0,0,0,9.494,4.992C4.867,4.762,4.6,12.487,5.212,15.507a24.058,24.058,0,0,0,4.053,8.68C13.586,30.459,19.513,35.774,26.7,38.3a14.157,14.157,0,0,0,7.839.8,6.648,6.648,0,0,0,3.441-1.874,4.289,4.289,0,0,0,1.185-3.633A6.752,6.752,0,0,0,37.1,30.229a27.271,27.271,0,0,0-4.436-3.671,2.368,2.368,0,0,0-.956-.421,1.874,1.874,0,0,0-1.071.344,13.039,13.039,0,0,0-2.6,1.912,2.363,2.363,0,0,1-1.185.765C26.816,29.2,26.778,29.235,26.74,29.235Z" transform="translate(-4.971 -4.987)" fill="#fdfbf9"/>
        </g>
      </g>
    </g>
  </g>
</svg>
