<svg xmlns="http://www.w3.org/2000/svg" width="49.658" height="59.589" viewBox="0 0 49.658 59.589">
  <g id="noun_Play_Store_1014779" data-name="noun_Play Store_1014779" transform="translate(-97 1143.076)">
    <g id="Group_8" data-name="Group 8" transform="translate(91 -2167.438)">
      <path id="Path_6" data-name="Path 6" d="M7.3,4A1.287,1.287,0,0,0,6,5.241v57.1a1.241,1.241,0,0,0,1.886,1.067L12.7,60.494a1.242,1.242,0,0,0,.272-.165L55.056,34.858a1.241,1.241,0,0,0,0-2.129L12.992,7.273l-.024-.015a1.241,1.241,0,0,0-.291-.179l-4.791-2.9A1.241,1.241,0,0,0,7.3,4ZM8.483,7.443h-.6V60.494l.6-.354ZM17.8,13.082,38.41,25.558l-5.174,6.289Zm22.76,13.776,11.448,6.934L40.548,40.73l-5.7-6.929Zm-7.322,8.9L38.4,42.03,17.826,54.486Z" transform="translate(0 1020.362)" fill="#1f1f39"/>
    </g>
  </g>
</svg>
