<svg xmlns="http://www.w3.org/2000/svg" width="93" height="93" viewBox="0 0 93 93">
  <g id="Group_79" data-name="Group 79" transform="translate(-461 -5720)">
    <circle id="Ellipse_13" data-name="Ellipse 13" cx="46.5" cy="46.5" r="46.5" transform="translate(461 5720)" fill="#dbf7d9"/>
    <g id="Group_63" data-name="Group 63" transform="translate(477.207 5736.085)">
      <path id="Path_100" data-name="Path 100" d="M38.257,2.5A25.951,25.951,0,0,0,16.6,14.238h.117a7.418,7.418,0,0,1,5.224,2.172A20.2,20.2,0,1,1,50.172,44.641a6.926,6.926,0,0,1,1.937,3.287,8.178,8.178,0,0,1,.235,2.054A25.833,25.833,0,0,0,38.257,2.5Z" transform="translate(-5.875)" fill="#88d383"/>
      <path id="Path_101" data-name="Path 101" d="M60.691,33.728H54.234v-8.51a2.817,2.817,0,0,0-5.634,0V36.6a2.818,2.818,0,0,0,2.817,2.817h9.215A2.818,2.818,0,0,0,63.449,36.6,2.783,2.783,0,0,0,60.691,33.728Z" transform="translate(-19.093 -8.22)" fill="#88d383"/>
      <path id="Path_102" data-name="Path 102" d="M40.13,59.224l-7.982-4.108a2.625,2.625,0,0,0-3.287.7l-2.935,3.756a29.03,29.03,0,0,1-7.571-5.517A28.32,28.32,0,0,1,12.78,46.37l3.7-2.876a2.625,2.625,0,0,0,.7-3.287l-4.108-7.923a2.637,2.637,0,0,0-3.815-1l-5.106,3.4a3.946,3.946,0,0,0-1.761,3.58,36.053,36.053,0,0,0,.587,4.578C4.445,48.542,8.026,54.411,13.014,59.4s10.858,8.569,16.551,10.036a22.7,22.7,0,0,0,4.578.587,3.874,3.874,0,0,0,3.58-1.819l3.287-5.165A2.519,2.519,0,0,0,40.13,59.224Z" transform="translate(0 -11.707)" fill="#88d383"/>
    </g>
  </g>
</svg>
