<svg xmlns="http://www.w3.org/2000/svg" width="30.992" height="31" viewBox="0 0 30.992 31">
  <g id="noun_Present_4164256" transform="translate(0 0.014)">
    <g id="Icon_Gift" data-name="Icon Gift" transform="translate(0 -0.014)">
      <path id="Path_45" data-name="Path 45" d="M6.88,6.734C8.662,7.86,15.5,7.741,15.5,7.741s6.829.119,8.611-1.007a3.559,3.559,0,0,0,1.085-5.1A4.008,4.008,0,0,0,19.815.6C18.017,1.734,15.5,7.741,15.5,7.741S12.96,1.734,11.173.608A4.008,4.008,0,0,0,5.8,1.641,3.559,3.559,0,0,0,6.88,6.734ZM19.236,3.691A3.027,3.027,0,0,1,22.1,3.5c.718.434.6,1.229-.258,1.772a22.791,22.791,0,0,1-4.427,1.188S18.373,4.239,19.236,3.691Zm-10.4-.2a3.1,3.1,0,0,1,2.887.2c.868.517,1.834,2.727,1.834,2.727A23.29,23.29,0,0,1,9.1,5.241C8.223,4.7,8.11,3.919,8.838,3.49ZM29.959,7.741H1.033A1.033,1.033,0,0,0,0,8.774v8.265a1.033,1.033,0,0,0,1.033,1.033H1.55a1.033,1.033,0,0,1,1.033,1.033V29.952a1.033,1.033,0,0,0,1.033,1.033H27.377a1.033,1.033,0,0,0,1.033-1.033V19.105a1.033,1.033,0,0,1,1.033-1.033h.517a1.033,1.033,0,0,0,1.033-1.033V8.774A1.033,1.033,0,0,0,29.959,7.741ZM12.914,27.37A1.033,1.033,0,0,1,11.88,28.4H6.2A1.033,1.033,0,0,1,5.165,27.37V19.105A1.033,1.033,0,0,1,6.2,18.072H11.88a1.033,1.033,0,0,1,1.033,1.033Zm0-12.914a1.033,1.033,0,0,1-1.033,1.033H3.616a1.033,1.033,0,0,1-1.033-1.033V10.324h9.3a1.033,1.033,0,0,1,1.033,1.033ZM25.827,27.37A1.033,1.033,0,0,1,24.794,28.4H19.112a1.033,1.033,0,0,1-1.033-1.033V19.105a1.033,1.033,0,0,1,1.033-1.033h5.682a1.033,1.033,0,0,1,1.033,1.033ZM28.41,14.456a1.033,1.033,0,0,1-1.033,1.033H19.112a1.033,1.033,0,0,1-1.033-1.033v-3.1a1.033,1.033,0,0,1,1.033-1.033h8.265a1.033,1.033,0,0,1,1.033,1.033Z" transform="translate(0 0.014)" fill="#eeeff3" fill-rule="evenodd"/>
    </g>
  </g>
</svg>
