<svg xmlns="http://www.w3.org/2000/svg" width="61" height="61" viewBox="0 0 61 61">
  <g id="Group_196" data-name="Group 196" transform="translate(-1028 -1987)">
    <g id="Group_159" data-name="Group 159" transform="translate(0 768)">
      <circle id="Ellipse_135" data-name="Ellipse 135" cx="30.5" cy="30.5" r="30.5" transform="translate(1028 1219)" fill="#77e5e5"/>
    </g>
    <g id="noun_flowchart_2886401" transform="translate(1034.654 1993.654)">
      <g id="Group_178" data-name="Group 178" transform="translate(6 6)">
        <path id="Path_289" data-name="Path 289" d="M32.412,17.421h8.566a.716.716,0,0,0,.714-.714V8.141a.716.716,0,0,0-.714-.714H32.412a.716.716,0,0,0-.714.714v3.569H27.343A3.576,3.576,0,0,0,24.56,8.927V6.714a.714.714,0,0,0-1.428,0V8.927a3.57,3.57,0,0,0,0,7v4.426a3.576,3.576,0,0,0-2.784,2.784H15.994V19.563a.716.716,0,0,0-.714-.714H6.714A.716.716,0,0,0,6,19.563v8.566a.716.716,0,0,0,.714.714H15.28a.716.716,0,0,0,.714-.714V24.56h4.354a3.576,3.576,0,0,0,2.784,2.784v4.426a3.57,3.57,0,0,0,0,7v2.213a.714.714,0,0,0,1.428,0V38.765a3.576,3.576,0,0,0,2.784-2.784H31.7V39.55a.716.716,0,0,0,.714.714h8.566a.716.716,0,0,0,.714-.714V30.984a.716.716,0,0,0-.714-.714H32.412a.716.716,0,0,0-.714.714v3.569H27.343a3.576,3.576,0,0,0-2.784-2.784V27.343a3.57,3.57,0,0,0,0-7V15.922a3.576,3.576,0,0,0,2.784-2.784H31.7v3.569A.716.716,0,0,0,32.412,17.421Z" transform="translate(-6 -6)" fill="#fdfbf9"/>
      </g>
    </g>
  </g>
</svg>
