<svg xmlns="http://www.w3.org/2000/svg" width="61" height="61" viewBox="0 0 61 61">
  <g id="Group_198" data-name="Group 198" transform="translate(-1390 -2367)">
    <g id="Group_162" data-name="Group 162" transform="translate(362 1148)">
      <circle id="Ellipse_135" data-name="Ellipse 135" cx="30.5" cy="30.5" r="30.5" transform="translate(1028 1219)" fill="#77e5e5"/>
    </g>
    <g id="noun_certified_3324969" transform="translate(1398.536 2375.537)">
      <g id="Group_180" data-name="Group 180" transform="translate(2.274 2.274)">
        <path id="Path_296" data-name="Path 296" d="M39,21.964l2.53-4.524a.987.987,0,0,0-.358-1.325l-4.458-2.65-.066-5.186a.994.994,0,0,0-.98-.98l-5.186-.066L27.826,2.755A.987.987,0,0,0,26.5,2.4l-4.537,2.53L17.44,2.4a.987.987,0,0,0-1.325.358l-2.65,4.458-5.186.066a.994.994,0,0,0-.98.98l-.066,5.186L2.755,16.1A.987.987,0,0,0,2.4,17.427l2.53,4.537L2.4,26.488a.987.987,0,0,0,.358,1.325l4.458,2.65.066,5.186a.994.994,0,0,0,.98.98l5.186.066,2.65,4.458a.987.987,0,0,0,1.325.358L21.964,39l4.524,2.53a.994.994,0,0,0,1.325-.358l2.65-4.458,5.186-.066a.994.994,0,0,0,.98-.98l.066-5.186,4.458-2.65a.987.987,0,0,0,.358-1.325Zm-9.518-4.637a67.563,67.563,0,0,0-8.551,10.492,1,1,0,0,1-.748.477h-.1a.98.98,0,0,1-.729-.318l-4.928-5.352A.994.994,0,0,1,15.89,21.3l4.087,4.392a75.008,75.008,0,0,1,8.081-9.764,1,1,0,0,1,1.4,0,.987.987,0,0,1,.02,1.4Z" transform="translate(-2.274 -2.274)" fill="#fdfbf9"/>
      </g>
    </g>
  </g>
</svg>
