<svg xmlns="http://www.w3.org/2000/svg" width="132" height="132" viewBox="0 0 132 132">
  <g id="Group_212" data-name="Group 212" transform="translate(-1004 -5501)">
    <circle id="Ellipse_149" data-name="Ellipse 149" cx="66" cy="66" r="66" transform="translate(1004 5501)" fill="#d3fdf4"/>
    <g id="noun_report_3889575" transform="translate(1037 5534)">
      <path id="Path_224" data-name="Path 224" d="M6.164,65.754A6.164,6.164,0,0,1,0,59.59V6.164A6.164,6.164,0,0,1,6.164,0H59.59a6.164,6.164,0,0,1,6.164,6.164V59.59a6.164,6.164,0,0,1-6.164,6.164ZM26.111,17.04a2.055,2.055,0,0,1,0,2.906l-7.706,7.706a2.055,2.055,0,0,1-2.906,0l-4.623-4.623a2.055,2.055,0,0,1,2.906-2.906l3.17,3.17L23.2,17.04A2.055,2.055,0,0,1,26.111,17.04Zm6.766,3.508a2.055,2.055,0,0,0,0,4.11H53.425a2.055,2.055,0,1,0,0-4.11Zm-2.055,22.6A2.055,2.055,0,0,1,32.877,41.1H53.425a2.055,2.055,0,1,1,0,4.11H32.877A2.055,2.055,0,0,1,30.822,43.151Zm-4.712-2.657A2.055,2.055,0,0,0,23.2,37.589l-6.253,6.253-3.17-3.17a2.055,2.055,0,1,0-2.906,2.906L15.5,48.2a2.055,2.055,0,0,0,2.906,0Z" fill="#27eac4" fill-rule="evenodd"/>
    </g>
  </g>
</svg>
