<svg xmlns="http://www.w3.org/2000/svg" width="93" height="93" viewBox="0 0 93 93">
  <g id="Group_76" data-name="Group 76" transform="translate(-1381 -3724)">
    <circle id="Ellipse_52" data-name="Ellipse 52" cx="46.5" cy="46.5" r="46.5" transform="translate(1381 3724)" fill="#ffe9e5"/>
    <g id="noun_User_1801178" transform="translate(1088.711 3664.378)">
      <g id="Group_59" data-name="Group 59" transform="translate(310 89.528)">
        <path id="Path_83" data-name="Path 83" d="M77.654,40.2H50.171a.863.863,0,0,0-.9.827v17.9a.893.893,0,0,0,.9.864H60.993a3.4,3.4,0,0,1-.664,1.99c-.444.441-1.063.857-.821,1.07.059.13.335.206.969.206h7.118c.72,0,.97-.115.972-.287h-.024v-.058h-.026c-.031-.229-.511-.573-.873-.932a3.377,3.377,0,0,1-.663-1.99H77.656a.872.872,0,0,0,.873-.864v-17.9A.846.846,0,0,0,77.654,40.2ZM63.9,59.4a.98.98,0,1,1,1-.979A.993.993,0,0,1,63.9,59.4Zm13.392-3.325H50.508V41.348H77.293Z" transform="translate(-20.951 -29.876)" fill="#ff5730"/>
        <rect id="Rectangle_57" data-name="Rectangle 57" width="3.227" height="5.162" transform="translate(36.82 18.833)" fill="#ff5730"/>
        <rect id="Rectangle_58" data-name="Rectangle 58" width="3.226" height="7.743" transform="translate(41.337 16.252)" fill="#ff5730"/>
        <rect id="Rectangle_59" data-name="Rectangle 59" width="3.226" height="10.325" transform="translate(45.854 13.671)" fill="#ff5730"/>
        <path id="Path_84" data-name="Path 84" d="M31.112,63.4V54.713a9.8,9.8,0,0,0-5.243-2.119c-.04,1.794-5.969,6.221-5.969,6.221s-5.93-4.427-5.971-6.221A9.837,9.837,0,0,0,5,62.389c0,4.9,3.579,5.138,8.265,5.138.511,0,1.035,0,1.57,0H24.963c.534,0,1.058,0,1.569,0,2.811,0,5.223-.088,6.7-1.214A3.084,3.084,0,0,1,31.112,63.4Z" transform="translate(-5 -34.341)" fill="#ff5730"/>
        <path id="Path_85" data-name="Path 85" d="M15.471,32.262c0,4.529,3.671,11.34,8.2,11.34s8.2-6.811,8.2-11.34a8.2,8.2,0,0,0-16.4,0Z" transform="translate(-8.772 -24.062)" fill="#ff5730"/>
      </g>
    </g>
  </g>
</svg>
