<svg xmlns="http://www.w3.org/2000/svg" width="61" height="61" viewBox="0 0 61 61">
  <g id="Group_200" data-name="Group 200" transform="translate(-1028 -2823)">
    <g id="Group_163" data-name="Group 163" transform="translate(0 1604)">
      <circle id="Ellipse_135" data-name="Ellipse 135" cx="30.5" cy="30.5" r="30.5" transform="translate(1028 1219)" fill="#feaf9e"/>
    </g>
    <g id="noun_Secure_Folder_4192958" data-name="noun_Secure Folder_4192958" transform="translate(1039.094 2834.707)">
      <path id="Path_312" data-name="Path 312" d="M17.855,14.08,15.193,17.17a1.271,1.271,0,0,0,.137,1.717,1.185,1.185,0,0,0,.841.309,1.253,1.253,0,0,0,.979-.446l2.661-3.074a1.3,1.3,0,0,0-.137-1.82,1.288,1.288,0,0,0-1.82.223Z" transform="translate(9.503 7.908)" fill="#fafafc"/>
      <path id="Path_313" data-name="Path 313" d="M31.066,9.418H22.841a3.434,3.434,0,0,1-3.434-3.434A3.434,3.434,0,0,0,15.973,2.55H7.748A6.1,6.1,0,0,0,1.67,8.611V28.958a6.061,6.061,0,0,0,6.078,6.078H31.066a6.078,6.078,0,0,0,6.078-6.078V15.514a6.1,6.1,0,0,0-6.078-6.1Zm2.078,18.029-5.323,3.881a1.477,1.477,0,0,1-1.717,0l-5.323-3.881a1.46,1.46,0,0,1-.549-1.631l1.15-5.495A2.215,2.215,0,0,1,23.563,18.6h6.868a2.249,2.249,0,0,1,2.2,1.717l1.133,5.495a1.425,1.425,0,0,1-.618,1.631Z" transform="translate(0 0)" fill="#fafafc"/>
    </g>
  </g>
</svg>
