<svg xmlns="http://www.w3.org/2000/svg" width="135" height="135" viewBox="0 0 135 135">
  <g id="Group_213" data-name="Group 213" transform="translate(-1004 -5791)">
    <circle id="Ellipse_120" data-name="Ellipse 120" cx="67.5" cy="67.5" r="67.5" transform="translate(1004 5791)" fill="#fad8ec"/>
    <g id="noun_chip_3060983" transform="translate(1021.825 5734)">
      <g id="Group_148" data-name="Group 148" transform="translate(22.175 85)">
        <path id="Path_223" data-name="Path 223" d="M187.2,85h30.466L236.3,105.975v49.683a8.487,8.487,0,0,1-8.2,8.671H187.2a8.411,8.411,0,0,1-8.2-8.671v-62.1A8.381,8.381,0,0,1,187.2,85Z" transform="translate(-179 -85)" fill="#eb5eb0" fill-rule="evenodd"/>
      </g>
    </g>
    <path id="Path_226" data-name="Path 226" d="M797.81,100a10.195,10.195,0,0,1,10.169,10.169v3.045a.66.66,0,0,1-.83.637q-1.071-.284-2.11-.506a.655.655,0,0,1-.522-.645v-2.53a6.707,6.707,0,0,0-13.414,0v2.53a.655.655,0,0,1-.522.645q-1.04.222-2.11.506a.659.659,0,0,1-.829-.637v-3.045A10.2,10.2,0,0,1,797.81,100Zm0,22.779a2.621,2.621,0,0,1,2.522,2.523,2.367,2.367,0,0,1-1.44,2.282v2.056a.432.432,0,0,1-.43.431h-1.3a.432.432,0,0,1-.43-.431v-2.056a2.367,2.367,0,0,1-1.44-2.282A2.621,2.621,0,0,1,797.81,122.779ZM785.5,116.257h0c8.9-2.919,15.732-2.919,24.629,0a1.43,1.43,0,0,1,.9,1.319V132.99A2.017,2.017,0,0,1,809.008,135h-22.4a2.017,2.017,0,0,1-2.011-2.011V117.576A1.43,1.43,0,0,1,785.5,116.257Z" transform="translate(275.399 5741)" fill="#fdeaf5" stroke="#f2a1d0" stroke-width="1" fill-rule="evenodd"/>
  </g>
</svg>
