<svg xmlns="http://www.w3.org/2000/svg" width="93" height="93" viewBox="0 0 93 93">
  <g id="Group_215" data-name="Group 215" transform="translate(-447 -3724)">
    <circle id="Ellipse_137" data-name="Ellipse 137" cx="46.5" cy="46.5" r="46.5" transform="translate(447 3724)" fill="#d7f8d5"/>
    <g id="noun_dialing_863312" transform="translate(181.576 3516.302)">
      <g id="Group_136" data-name="Group 136" transform="translate(293.048 222.396)">
        <path id="Path_199" data-name="Path 199" d="M29.963,4.819A4.819,4.819,0,1,1,25.143,0,4.819,4.819,0,0,1,29.963,4.819ZM37.18,0A4.819,4.819,0,1,0,42,4.819,4.819,4.819,0,0,0,37.18,0ZM49.215,9.639A4.819,4.819,0,1,0,44.4,4.819,4.819,4.819,0,0,0,49.215,9.639ZM25.143,11.7a4.819,4.819,0,1,0,4.819,4.819A4.819,4.819,0,0,0,25.143,11.7Zm12.036,0a4.821,4.821,0,0,0-4.429,6.72,4.753,4.753,0,0,1,8.865-.016,4.82,4.82,0,0,0-4.436-6.7Zm12.036,0a4.819,4.819,0,1,0,4.819,4.819A4.819,4.819,0,0,0,49.215,11.7ZM25.143,23.4a4.819,4.819,0,1,0,4.819,4.819A4.819,4.819,0,0,0,25.143,23.4Zm24.072,0a4.819,4.819,0,1,0,4.819,4.819A4.819,4.819,0,0,0,49.215,23.4Zm6.2,12.831a2.69,2.69,0,0,0-3.147,2.011s.146-1.369.146-1.369a2.683,2.683,0,0,0-2.648-2.657,2.683,2.683,0,0,0-3.152,2.036l.072-.666a2.683,2.683,0,0,0-2.648-2.657,2.681,2.681,0,0,0-3.15,2.036l-.233,2.169V19.93a3.557,3.557,0,0,0-3.6-3.158,3.363,3.363,0,0,0-3.395,3.16V47.62l-1.355-8.711a4.531,4.531,0,0,0-3.926,5.065,61.172,61.172,0,0,0,1.624,9.057c1.581,3.7,6.767,3.976,6.907,6.356s.248,4.218.248,4.218H53.39s-.008-3.113-.008-5.226,4.7-4.8,4.323-10.946c-.046-.765.359-8.545.359-8.545A2.683,2.683,0,0,0,55.415,36.231Z" transform="translate(-20.324)" fill="#4db581"/>
      </g>
    </g>
  </g>
</svg>
