<svg xmlns="http://www.w3.org/2000/svg" width="93" height="93" viewBox="0 0 93 93">
  <g id="Group_218" data-name="Group 218" transform="translate(-914 -4202)">
    <path id="Path_70" data-name="Path 70" d="M46.5,0A46.5,46.5,0,1,1,0,46.5,46.5,46.5,0,0,1,46.5,0Z" transform="translate(914 4202)" fill="#c8faf7"/>
    <g id="noun_History_3846716" transform="translate(1260.398 4371.005)">
      <g id="Layer_62" data-name="Layer 62" transform="translate(-328.38 -148.35)">
        <path id="Path_202" data-name="Path 202" d="M42.458,2.65h-23.3a9.268,9.268,0,0,0-9.351,9.184V34.425a10.345,10.345,0,0,0-6.14,11.644A10.533,10.533,0,0,0,14.032,54.34a10.42,10.42,0,0,0,8.282-3.988H42.458a9.268,9.268,0,0,0,9.351-9.184V11.834A9.268,9.268,0,0,0,42.458,2.65ZM14.032,51.716a7.856,7.856,0,0,1-7.814-6.548A7.748,7.748,0,0,1,11.6,36.577a7.373,7.373,0,0,1,2.431-.394A7.854,7.854,0,0,1,21.94,43.95a7.773,7.773,0,0,1-1.363,4.356,7.97,7.97,0,0,1-6.545,3.411ZM40.348,37.757H27.631a1.312,1.312,0,1,1,0-2.624H40.348a1.324,1.324,0,0,1,1.336,1.312A1.345,1.345,0,0,1,40.348,37.757Zm0-9.944H21.272a1.312,1.312,0,1,1,0-2.624H40.348A1.345,1.345,0,0,1,41.683,26.5,1.324,1.324,0,0,1,40.348,27.813Zm0-9.918H21.272a1.312,1.312,0,1,1,0-2.624H40.348a1.324,1.324,0,0,1,1.336,1.312,1.345,1.345,0,0,1-1.336,1.312Zm-24.98,22.2v3.86a1.324,1.324,0,0,1-1.336,1.312H11.142a1.312,1.312,0,1,1,0-2.624H12.7V40.09a1.336,1.336,0,0,1,2.672,0Z" transform="translate(-3.448 -2.65)" fill="#14dbce"/>
      </g>
    </g>
  </g>
</svg>
