<svg xmlns="http://www.w3.org/2000/svg" xmlns:xlink="http://www.w3.org/1999/xlink" width="764.854" height="887.854" viewBox="0 0 764.854 887.854">
  <defs>
    <linearGradient id="linear-gradient" x1="0.339" y1="0.078" x2="0" y2="0.763" gradientUnits="objectBoundingBox">
      <stop offset="0" stop-color="#ffd3d3"/>
      <stop offset="1" stop-color="#fff" stop-opacity="0"/>
    </linearGradient>
  </defs>
  <g id="Group_76" data-name="Group 76" transform="translate(-1647.146 -8957)">
    <g id="Group_35" data-name="Group 35" transform="translate(1417.146 9189)">
      <g id="Path_49" data-name="Path 49" transform="translate(230 564)" fill="none">
        <path d="M45.927,0A45.927,45.927,0,1,1,0,45.927,45.927,45.927,0,0,1,45.927,0Z" stroke="none"/>
        <path d="M 45.92724609375 10.00000762939453 C 26.11689758300781 10.00000762939453 10.00000762939453 26.11689758300781 10.00000762939453 45.92724609375 C 10.00000762939453 65.73759460449219 26.11689758300781 81.85448455810547 45.92724609375 81.85448455810547 C 65.73759460449219 81.85448455810547 81.85448455810547 65.73759460449219 81.85448455810547 45.92724609375 C 81.85448455810547 26.11689758300781 65.73759460449219 10.00000762939453 45.92724609375 10.00000762939453 M 45.92724609375 7.62939453125e-06 C 71.29216003417969 7.62939453125e-06 91.85448455810547 20.56233215332031 91.85448455810547 45.92724609375 C 91.85448455810547 71.29216003417969 71.29216003417969 91.85448455810547 45.92724609375 91.85448455810547 C 20.56233215332031 91.85448455810547 7.62939453125e-06 71.29216003417969 7.62939453125e-06 45.92724609375 C 7.62939453125e-06 20.56233215332031 20.56233215332031 7.62939453125e-06 45.92724609375 7.62939453125e-06 Z" stroke="none" fill="#2680eb"/>
      </g>
      <path id="Path_7" data-name="Path 7" d="M32.188,0A32.188,32.188,0,1,1,0,32.188,32.188,32.188,0,0,1,32.188,0Z" transform="translate(243.346 577.346)" fill="none"/>
    </g>
    <circle id="Ellipse_45" data-name="Ellipse 45" cx="357.5" cy="357.5" r="357.5" transform="translate(1697 9096)" fill="url(#linear-gradient)"/>
    <circle id="Ellipse_55" data-name="Ellipse 55" cx="22.5" cy="22.5" r="22.5" transform="translate(1660 8957)" fill="#dbffe7"/>
  </g>
</svg>
