<svg xmlns="http://www.w3.org/2000/svg" width="190.86" height="491.23" viewBox="0 0 190.86 491.23">
  <g id="Group_77" data-name="Group 77" transform="translate(-53.14 -9117)">
    <circle id="Ellipse_49" data-name="Ellipse 49" cx="25.5" cy="25.5" r="25.5" transform="translate(193 9117)" fill="#dbedff"/>
    <g id="Group_37" data-name="Group 37" transform="matrix(0.819, -0.574, 0.574, 0.819, -694.907, 8924.772)">
      <g id="Group_4" data-name="Group 4" transform="translate(18 386)">
        <g id="Path_46" data-name="Path 46" transform="translate(230 564)" fill="none">
          <path d="M29,0c16.016,0,.025,11.832.025,27.848S45.016,58,29,58A29,29,0,0,1,29,0Z" stroke="none"/>
          <path d="M 29.00000381469727 5 C 25.75781631469727 5 22.61526679992676 5.633861541748047 19.65965461730957 6.883987426757812 C 16.80234146118164 8.092525482177734 14.23516654968262 9.823699951171875 12.02944183349609 12.02943801879883 C 9.823703765869141 14.23516082763672 8.092529296875 16.80233764648438 6.883991241455078 19.65964889526367 C 5.633865356445312 22.61526107788086 5.000003814697266 25.7578125 5.000003814697266 29 C 5.000003814697266 32.2421875 5.633865356445312 35.38473510742188 6.883991241455078 38.34034729003906 C 8.092529296875 41.19766235351562 9.823703765869141 43.76483917236328 12.02944183349609 45.97056198120117 C 14.23516654968262 48.17630004882812 16.80234146118164 49.90747451782227 19.65965461730957 51.11601257324219 C 22.61526679992676 52.36613845825195 25.75781631469727 53 29.00000381469727 53 C 29.91153717041016 53 30.55788421630859 52.94427490234375 31.00357055664062 52.87835693359375 C 30.9358024597168 52.57233428955078 30.83110427856445 52.17508316040039 30.6699161529541 51.66709899902344 C 30.23901748657227 50.30911254882812 29.55956649780273 48.64277648925781 28.84022903442383 46.87858581542969 C 26.69501686096191 41.61746215820312 24.02521705627441 35.06982421875 24.02521705627441 27.84801292419434 C 24.02521705627441 20.36545181274414 26.94296646118164 13.83442687988281 29.07341766357422 9.065662384033203 C 29.69079208374023 7.683723449707031 30.27394104003906 6.378437042236328 30.66407775878906 5.316287994384766 C 30.69563293457031 5.230381011962891 30.72501373291016 5.148525238037109 30.75239562988281 5.070484161376953 C 30.30501937866211 5.029300689697266 29.7301139831543 5 29.00000381469727 5 M 29.00000381469727 0 C 45.01625442504883 0 29.02521705627441 11.83174896240234 29.02521705627441 27.84801292419434 C 29.02521705627441 43.86426162719727 45.01625442504883 58 29.00000381469727 58 C 12.98374176025391 58 3.814697265625e-06 45.01626205444336 3.814697265625e-06 29 C 3.814697265625e-06 12.98373794555664 12.98374176025391 0 29.00000381469727 0 Z" stroke="none" fill="#ffbf45"/>
        </g>
      </g>
    </g>
  </g>
</svg>
