<svg xmlns="http://www.w3.org/2000/svg" width="18.627" height="34" viewBox="0 0 18.627 34">
  <g id="noun_touch_4137494" transform="translate(-8.33 -2)">
    <g id="Group_18" data-name="Group 18" transform="translate(8.33 2)">
      <path id="Path_9" data-name="Path 9" d="M26.957,16.741v8.075a2.5,2.5,0,0,1-.741,1.773l-1.882,1.882a2.5,2.5,0,0,1-1.773.741H13.3a2.489,2.489,0,0,1-1.651-.619L9.386,26.614a2.5,2.5,0,0,1-.85-1.894V20.591A2.254,2.254,0,0,1,10.8,18.332h.51a.583.583,0,0,1,.583.583v1.518a1.679,1.679,0,0,0,1.676,1.676V8.691A1.683,1.683,0,0,1,15.786,7.1a1.718,1.718,0,0,1,1.129,1.664v5.294a2.337,2.337,0,0,1,1.955-.729,2.137,2.137,0,0,1,1.615,1.336,2.346,2.346,0,0,1,1.736-.5,1.957,1.957,0,0,1,1.53,1.4,2.382,2.382,0,0,1,1.809-.559A1.72,1.72,0,0,1,26.957,16.741ZM18.105,6.456a1.041,1.041,0,0,1,0-1.481l.886-.886A1.048,1.048,0,0,1,20.473,5.57l-.886.886a1.038,1.038,0,0,1-.741.3A1.091,1.091,0,0,1,18.105,6.456Zm2.149,1.615h1.251a1.044,1.044,0,1,1,0,2.089H20.254a1.044,1.044,0,0,1,0-2.089ZM14.4,4.307V3.044a1.044,1.044,0,0,1,2.089,0V4.307a1.044,1.044,0,1,1-2.089,0Zm10.042,27.37v3.91a.409.409,0,0,1-.413.413H12.179a.409.409,0,0,1-.413-.413v-3.91a.409.409,0,0,1,.413-.413H24.031A.409.409,0,0,1,24.444,31.677Zm-1.651,1.955a.886.886,0,1,0-.886.886A.891.891,0,0,0,22.792,33.632ZM10.419,5.558A1.048,1.048,0,1,1,11.9,4.076l.886.9a1.048,1.048,0,0,1-1.481,1.481Zm1.263,3.558a1.044,1.044,0,0,1-1.044,1.044H9.374a1.044,1.044,0,0,1,0-2.089h1.251A1.047,1.047,0,0,1,11.681,9.116Z" transform="translate(-8.33 -2)" fill="#fcad17"/>
    </g>
  </g>
</svg>
