<svg xmlns="http://www.w3.org/2000/svg" width="61" height="61" viewBox="0 0 61 61">
  <g id="Group_192" data-name="Group 192" transform="translate(-1028 -1219)">
    <g id="Group_130" data-name="Group 130">
      <circle id="Ellipse_135" data-name="Ellipse 135" cx="30.5" cy="30.5" r="30.5" transform="translate(1028 1219)" fill="#73c6ea"/>
    </g>
    <g id="noun_Cloud_Security_4367938" data-name="noun_Cloud Security_4367938" transform="translate(1037.959 1229.361)">
      <g id="Group_168" data-name="Group 168" transform="translate(1 3.23)">
        <path id="Path_276" data-name="Path 276" d="M8.725,31.174a.986.986,0,0,0,.2.013h1.12V25.155a3.25,3.25,0,0,1,3.035-3.244,7.492,7.492,0,0,1,14.929,0,3.25,3.25,0,0,1,3.035,3.244v6.032h1.12a.985.985,0,0,0,.2-.013A9.111,9.111,0,0,0,31.6,13.079,11.136,11.136,0,0,0,20.541,3.23a11.148,11.148,0,0,0-11.06,9.849,9.111,9.111,0,0,0-.756,18.095Z" transform="translate(-1 -3.23)" fill="#fafafc"/>
        <path id="Path_277" data-name="Path 277" d="M17.986,13.81a5.549,5.549,0,0,0-5.537,5.537v1.3H10.743a1.307,1.307,0,0,0-1.3,1.3V32a1.3,1.3,0,0,0,1.3,1.3H25.229a1.3,1.3,0,0,0,1.3-1.3V21.952a1.307,1.307,0,0,0-1.3-1.3H23.523v-1.3A5.549,5.549,0,0,0,17.986,13.81Zm2.931,6.839H15.055v-1.3a2.931,2.931,0,0,1,5.862,0Z" transform="translate(1.555 -0.027)" fill="#fafafc"/>
      </g>
    </g>
  </g>
</svg>
