<svg xmlns="http://www.w3.org/2000/svg" width="93" height="93" viewBox="0 0 93 93">
  <g id="Group_55" data-name="Group 55" transform="translate(-461 -5720)">
    <circle id="Ellipse_13" data-name="Ellipse 13" cx="46.5" cy="46.5" r="46.5" transform="translate(461 5720)" fill="#e5f1ff"/>
    <g id="noun_touch_4137494" transform="translate(485.395 5739.355)">
      <g id="Group_18" data-name="Group 18" transform="translate(8.33 2)">
        <path id="Path_9" data-name="Path 9" d="M35.881,23.8V35.747a3.7,3.7,0,0,1-1.1,2.622L32,41.153a3.7,3.7,0,0,1-2.622,1.1h-13.7a3.681,3.681,0,0,1-2.443-.916L9.893,38.405a3.692,3.692,0,0,1-1.257-2.8V29.5a3.334,3.334,0,0,1,3.341-3.341h.754a.862.862,0,0,1,.862.862v2.245a2.483,2.483,0,0,0,2.479,2.478V11.9a2.49,2.49,0,0,1,3.287-2.353A2.541,2.541,0,0,1,21.028,12v7.831a3.457,3.457,0,0,1,2.892-1.078,3.16,3.16,0,0,1,2.389,1.976A3.471,3.471,0,0,1,28.876,20a2.9,2.9,0,0,1,2.263,2.065,3.524,3.524,0,0,1,2.676-.826A2.543,2.543,0,0,1,35.881,23.8ZM22.788,8.591a1.539,1.539,0,0,1,0-2.191L24.1,5.089A1.549,1.549,0,0,1,26.29,7.28L24.979,8.591a1.535,1.535,0,0,1-1.1.449A1.614,1.614,0,0,1,22.788,8.591Zm3.179,2.389h1.85a1.545,1.545,0,0,1,0,3.089h-1.85a1.545,1.545,0,0,1,0-3.089ZM17.31,5.412V3.545a1.545,1.545,0,1,1,3.089,0V5.412a1.545,1.545,0,1,1-3.089,0ZM32.163,45.895v5.783a.606.606,0,0,1-.611.611H14.023a.606.606,0,0,1-.611-.611V45.895a.606.606,0,0,1,.611-.611H31.552A.606.606,0,0,1,32.163,45.895Zm-2.443,2.892A1.311,1.311,0,1,0,28.409,50.1,1.318,1.318,0,0,0,29.721,48.786ZM11.419,7.262A1.549,1.549,0,0,1,13.61,5.071L14.921,6.4A1.549,1.549,0,0,1,12.73,8.591Zm1.868,5.262a1.544,1.544,0,0,1-1.545,1.545H9.875a1.545,1.545,0,1,1,0-3.089h1.85A1.548,1.548,0,0,1,13.287,12.525Z" transform="translate(-8.33 -2)" fill="#177cfc"/>
      </g>
    </g>
  </g>
</svg>
