<svg xmlns="http://www.w3.org/2000/svg" width="43.102" height="32" viewBox="0 0 43.102 32">
  <path id="youtube-icon" d="M44.9,14.5a5.681,5.681,0,0,0-4.5-4.3A88.975,88.975,0,0,0,24.4,9,90.286,90.286,0,0,0,8.3,10.2a5.55,5.55,0,0,0-4.5,4.3A65.611,65.611,0,0,0,3,25a54.425,54.425,0,0,0,.9,10.5,5.691,5.691,0,0,0,4.5,4.3A91.989,91.989,0,0,0,24.5,41a91.989,91.989,0,0,0,16.1-1.2,5.555,5.555,0,0,0,4.5-4.3,76.709,76.709,0,0,0,1-10.5A69.975,69.975,0,0,0,44.9,14.5ZM19,32V18l12.2,7Z" transform="translate(-3 -9)" fill="#cdcddb"/>
</svg>
