<svg xmlns="http://www.w3.org/2000/svg" width="93" height="93" viewBox="0 0 93 93">
  <g id="Group_223" data-name="Group 223" transform="translate(-642 -6107)">
    <circle id="Ellipse_138" data-name="Ellipse 138" cx="46.5" cy="46.5" r="46.5" transform="translate(642 6107)" fill="#e3bd3a"/>
    <g id="noun_No_Sugar_3918285" data-name="noun_No Sugar_3918285" transform="translate(613.412 6074.713)">
      <g id="Group_144" data-name="Group 144" transform="translate(42.277 45)">
        <path id="Path_206" data-name="Path 206" d="M80.269,10.949,67.685,5.2,55.1,10.949,67.685,16.7Z" transform="translate(-18.999)" fill="#fff"/>
        <path id="Path_207" data-name="Path 207" d="M76.9,23.6V30.7l7.155,3.258a1.355,1.355,0,0,1,.767,1.214V35.3L90,32.931V17.6Z" transform="translate(-26.872 -4.479)" fill="#fff"/>
        <path id="Path_208" data-name="Path 208" d="M59.255,26.671l6,2.747V23.6l-13.16-6V29.482l6-2.747A1.446,1.446,0,0,1,59.255,26.671Z" transform="translate(-17.915 -4.479)" fill="#fff"/>
        <path id="Path_209" data-name="Path 209" d="M30.669,20.249,18.085,14.5,5.5,20.249,18.085,26Z" transform="translate(-1.084 -3.359)" fill="#fff"/>
        <path id="Path_210" data-name="Path 210" d="M27.264,43.828a13.8,13.8,0,0,1,5.174.958v-6.26a1.355,1.355,0,0,1,.767-1.214l7.155-3.258V26.9l-13.16,6V43.828Z" transform="translate(-8.921 -7.838)" fill="#fff"/>
        <path id="Path_211" data-name="Path 211" d="M15.66,44.048V32.8L2.5,26.8V42.131L10.741,45.9A17.434,17.434,0,0,1,15.66,44.048Z" transform="translate(0 -7.802)" fill="#fff"/>
        <path id="Path_212" data-name="Path 212" d="M55.285,36.1,42.7,41.849,55.285,47.6l12.585-5.749Z" transform="translate(-14.52 -11.161)" fill="#fff"/>
        <path id="Path_213" data-name="Path 213" d="M39.7,53.958a14.65,14.65,0,0,1,6.644,12.2v.575l6.516,3V54.4l-13.16-6v5.558Z" transform="translate(-13.436 -15.603)" fill="#fff"/>
        <path id="Path_214" data-name="Path 214" d="M64.5,69.8l13.16-6.069V48.4l-13.16,6Z" transform="translate(-22.394 -15.603)" fill="#fff"/>
        <path id="Path_215" data-name="Path 215" d="M20.618,57.7A11.818,11.818,0,1,0,32.436,69.518,11.832,11.832,0,0,0,20.618,57.7Zm4.6,14.565a1.389,1.389,0,0,1,0,1.916,1.389,1.389,0,0,1-1.916,0L20.618,71.5l-2.683,2.683a1.389,1.389,0,0,1-1.916,0,1.389,1.389,0,0,1,0-1.916L18.7,69.582l-2.683-2.747a1.355,1.355,0,0,1,1.916-1.916L20.618,67.6,23.3,64.919a1.355,1.355,0,1,1,1.916,1.916l-2.683,2.683Z" transform="translate(-2.275 -18.962)" fill="#fff"/>
      </g>
    </g>
  </g>
</svg>
