<svg xmlns="http://www.w3.org/2000/svg" width="74.224" height="70" viewBox="0 0 74.224 70">
  <g id="noun_No_Sugar_3918285" data-name="noun_No Sugar_3918285" transform="translate(-44.777 -50.2)">
    <g id="Group_144" data-name="Group 144" transform="translate(44.777 50.2)">
      <path id="Path_206" data-name="Path 206" d="M85.916,12.239,70.508,5.2,55.1,12.239l15.408,7.039Z" transform="translate(-13.96 -5.2)" fill="#e3bd3a"/>
      <path id="Path_207" data-name="Path 207" d="M76.9,24.952v8.682l8.76,3.989a1.659,1.659,0,0,1,.939,1.486v.156l6.335-2.894V17.6Z" transform="translate(-18.71 -7.902)" fill="#e3bd3a"/>
      <path id="Path_208" data-name="Path 208" d="M60.86,28.706l7.352,3.363V24.952L52.1,17.6V32.148l7.352-3.363A1.77,1.77,0,0,1,60.86,28.706Z" transform="translate(-13.307 -7.902)" fill="#e3bd3a"/>
      <path id="Path_209" data-name="Path 209" d="M36.316,21.539,20.908,14.5,5.5,21.539l15.408,7.039Z" transform="translate(-3.154 -7.226)" fill="#e3bd3a"/>
      <path id="Path_210" data-name="Path 210" d="M27.278,47.626A16.9,16.9,0,0,1,33.613,48.8V41.135a1.659,1.659,0,0,1,.939-1.486l8.76-3.989V26.9L27.2,34.252V47.626Z" transform="translate(-7.882 -9.928)" fill="#e3bd3a"/>
      <path id="Path_211" data-name="Path 211" d="M18.612,47.917V34.152L2.5,26.8V45.571l10.089,4.615A21.345,21.345,0,0,1,18.612,47.917Z" transform="translate(-2.5 -9.906)" fill="#e3bd3a"/>
      <path id="Path_212" data-name="Path 212" d="M58.108,36.1,42.7,43.139l15.408,7.039,15.408-7.039Z" transform="translate(-11.259 -11.932)" fill="#e3bd3a"/>
      <path id="Path_213" data-name="Path 213" d="M39.7,55.2a17.936,17.936,0,0,1,8.134,14.939v.7l7.978,3.676V55.752L39.7,48.4v6.8Z" transform="translate(-10.605 -14.612)" fill="#e3bd3a"/>
      <path id="Path_214" data-name="Path 214" d="M64.5,74.6l16.112-7.43V48.4L64.5,55.752Z" transform="translate(-16.008 -14.612)" fill="#e3bd3a"/>
      <path id="Path_215" data-name="Path 215" d="M23.269,57.7A14.469,14.469,0,1,0,37.739,72.169,14.487,14.487,0,0,0,23.269,57.7ZM28.9,75.532a1.7,1.7,0,0,1,0,2.346,1.7,1.7,0,0,1-2.346,0l-3.285-3.285-3.285,3.285a1.7,1.7,0,0,1-2.346,0,1.7,1.7,0,0,1,0-2.346l3.285-3.285-3.285-3.363a1.659,1.659,0,0,1,2.346-2.346l3.285,3.285,3.285-3.285A1.659,1.659,0,1,1,28.9,68.884l-3.285,3.285Z" transform="translate(-3.873 -16.638)" fill="#e3bd3a"/>
    </g>
  </g>
</svg>
