<svg xmlns="http://www.w3.org/2000/svg" width="750.5" height="574.544" viewBox="0 0 750.5 574.544">
  <g id="_09" data-name="09" transform="translate(-155.482 -68.16)">
    <path id="Path_314" data-name="Path 314" d="M1835.838,828.16a126.914,126.914,0,0,1-1.243,14.88c-.209,1.485-.46,2.96-.724,4.435q-.786,4.3-1.905,8.54a127.041,127.041,0,0,1-11.192,27.86c-9.882,18.307-23.951,35.035-39.847,50.06-18.682,17.68-39.88,33.013-59.752,45.82q-3.344,2.156-6.727,4.24a440.4,440.4,0,0,1-95.258,43.931q-2.208.721-4.435,1.418-7.4,2.33-14.878,4.405-11.031,3.068-22.216,5.587c-7.7,1.737-15.584,3.378-23.6,4.86-9.494,1.76-19.162,3.3-28.92,4.5l-1.515.184q-8.021.958-16.087,1.609-3.592.283-7.191.494-9.629.563-19.242.561-3.217,0-6.435-.08-9.691-.23-19.254-1.167a205.6,205.6,0,0,1-33.44-6.019,176.568,176.568,0,0,1-32.633-12.752l-.8-.4a309.024,309.024,0,0,1-36.851-22.322,285.962,285.962,0,0,1-36.722-30.4l-.216-.211c-.126-.124-.253-.246-.377-.372q-1.751-1.721-3.47-3.477-5.033-5.13-9.788-10.5a275.935,275.935,0,0,1-19.787-25.128c-9.774-14.019-16.583-28.973-24.735-43.791-9.275-16.855-20.35-32.964-29.126-50.283-19.854-39.163-33.732-82.857-27.876-126.1,2.87-21.173,10.321-41.026,21.1-59.308q1.767-3.006,3.663-5.954,1.124-1.754,2.3-3.489,2.013-3.01,4.153-5.952a221.612,221.612,0,0,1,17.071-20.683q2.606-2.8,5.311-5.532a283.157,283.157,0,0,1,44.152-36.06q4.6-3.061,9.285-5.952,2.882-1.779,5.794-3.491,3.321-1.956,6.665-3.819,1.324-.742,2.652-1.466c.409-.23.816-.446,1.227-.667q8.963-4.849,18.213-9.229a329.283,329.283,0,0,1,66.674-23.441c25.955-5.989,50.492-7.549,76.629-6.219q2.7.138,5.414.317,1.579.1,3.169.218,2.009.145,4.031.313c1.082.09,2.169.184,3.252.283q4.074.365,8.138.8,8.344.9,16.659,2.11c52.6,7.63,103.876,24.473,149.457,51.127,72.079,42.143,129.22,109.433,152.5,187.719C1832.706,788.963,1836.346,808.683,1835.838,828.16Z" transform="translate(-929.904 -408.844)" fill="#fff0e1"/>
    <g id="Group_225" data-name="Group 225" transform="translate(276.728 85.589)" opacity="0.38">
      <path id="Path_315" data-name="Path 315" d="M1234.73,385.84v9.443H1267.9l8.138,41.854h4.419l6.047-41.854H1513.4l8.14,41.854h4.417L1532,395.283h64.056V385.84Z" transform="translate(-1234.73 -385.84)" fill="#1a4ea2"/>
      <path id="Path_316" data-name="Path 316" d="M1234.73,733.265H1267.9l8.138,41.854h4.419l6.047-41.854h309.552V723.82H1234.73Z" transform="translate(-1234.73 -646.148)" fill="#1a4ea2"/>
      <path id="Path_317" data-name="Path 317" d="M1234.73,1071.245H1267.9l8.138,41.854h4.419l6.047-41.854h309.552V1061.8H1234.73Z" transform="translate(-1234.73 -906.455)" fill="#1a4ea2"/>
      <path id="Path_318" data-name="Path 318" d="M1234.73,1409.233H1267.9l8.138,41.856h4.419l6.047-41.856h309.552v-9.443H1234.73Z" transform="translate(-1234.73 -1166.77)" fill="#1a4ea2"/>
    </g>
    <path id="Path_319" data-name="Path 319" d="M2418.98,401.03l8.14,41.854h4.419l6.047-41.854Z" transform="translate(-1870.095 -311.95)" fill="#a30010"/>
    <path id="Path_320" data-name="Path 320" d="M1350.74,1414.98l8.14,41.856h4.417l6.046-41.856Z" transform="translate(-1047.352 -1092.88)" fill="#a30010"/>
    <rect id="Rectangle_121" data-name="Rectangle 121" width="361.325" height="9.445" transform="translate(270.219 79.635)" fill="#d03e48"/>
    <rect id="Rectangle_122" data-name="Rectangle 122" width="361.325" height="9.445" transform="translate(270.219 157.31)" fill="#d03e48"/>
    <rect id="Rectangle_123" data-name="Rectangle 123" width="361.325" height="9.445" transform="translate(270.219 234.982)" fill="#d03e48"/>
    <rect id="Rectangle_124" data-name="Rectangle 124" width="361.325" height="9.445" transform="translate(270.219 312.657)" fill="#d03e48"/>
    <path id="Path_321" data-name="Path 321" d="M1350.74,401.03l8.14,41.854h4.417l6.046-41.854Z" transform="translate(-1047.352 -311.95)" fill="#a30010"/>
    <path id="Path_322" data-name="Path 322" d="M1350.74,739.01l8.14,41.856h4.417l6.046-41.856Z" transform="translate(-1047.352 -572.257)" fill="#a30010"/>
    <path id="Path_323" data-name="Path 323" d="M1350.74,1077l8.14,41.854h4.417l6.046-41.854Z" transform="translate(-1047.352 -832.572)" fill="#a30010"/>
    <path id="Path_324" data-name="Path 324" d="M728.717,1977.014a53.524,53.524,0,0,0-15.133,18.946c-10.323,21.035-7.6,46.995,3.7,67.524,18.052,32.8,63.943,66.391,102.587,49.346,33.043-14.575,41.424-56.932,30.409-88.349a88.931,88.931,0,0,0-49.936-52.138C776.447,1962.733,748.152,1961.867,728.717,1977.014Z" transform="translate(-551.667 -1516.759)" fill="#fff0e1"/>
    <path id="Path_325" data-name="Path 325" d="M3180,1837.06a126.888,126.888,0,0,1-1.246,14.88c-.209,1.484-.459,2.96-.721,4.435q-.788,4.3-1.905,8.54a127.048,127.048,0,0,1-11.192,27.86c-9.882,18.307-23.954,35.033-39.847,50.06-18.679,17.68-39.88,33.015-59.752,45.823q-3.344,2.151-6.727,4.24a440.505,440.505,0,0,1-95.258,43.929q-2.213.724-4.436,1.418-7.4,2.331-14.881,4.406V1837.06Z" transform="translate(-2274.489 -1417.96)" fill="#ccd5ff"/>
    <path id="Path_326" data-name="Path 326" d="M3008.78,1901.81h219.84c-.209,1.485-.46,2.96-.722,4.435q-.788,4.3-1.905,8.54a127.058,127.058,0,0,1-11.192,27.86c-9.882,18.307-23.954,35.033-39.847,50.06-18.679,17.68-39.879,33.015-59.752,45.823q-3.344,2.151-6.727,4.24a440.507,440.507,0,0,1-95.258,43.929q-2.213.723-4.435,1.418Z" transform="translate(-2324.351 -1467.83)" fill="#abbbf4"/>
    <path id="Path_327" data-name="Path 327" d="M3242.771,1921.11q-.788,4.3-1.905,8.54a127.034,127.034,0,0,1-11.192,27.86c-9.882,18.307-23.954,35.033-39.847,50.06-18.68,17.68-39.879,33.015-59.752,45.823q-3.344,2.151-6.727,4.24a440.5,440.5,0,0,1-95.258,43.929V1921.11Z" transform="translate(-2339.224 -1482.694)" fill="#ecefff"/>
    <path id="Path_328" data-name="Path 328" d="M3214.8,2079.5H3008.78" transform="translate(-2324.351 -1604.684)" fill="none" stroke="#ccd5ff" stroke-miterlimit="10" stroke-width="9"/>
    <path id="Path_329" data-name="Path 329" d="M3174.954,2297.34H3008.78" transform="translate(-2324.351 -1772.462)" fill="none" stroke="#ccd5ff" stroke-miterlimit="10" stroke-width="9"/>
    <path id="Path_330" data-name="Path 330" d="M3108.473,2515.17H3008.78" transform="translate(-2324.351 -1940.231)" fill="none" stroke="#ccd5ff" stroke-miterlimit="10" stroke-width="9"/>
    <circle id="Ellipse_151" data-name="Ellipse 151" cx="7.701" cy="7.701" r="7.701" transform="translate(769.101 448.008)" fill="#abbbf4"/>
    <circle id="Ellipse_152" data-name="Ellipse 152" cx="7.701" cy="7.701" r="7.701" transform="translate(766.966 447.038)" fill="#ccd5ff"/>
    <circle id="Ellipse_153" data-name="Ellipse 153" cx="7.701" cy="7.701" r="7.701" transform="translate(769.101 491.381)" fill="#abbbf4"/>
    <circle id="Ellipse_154" data-name="Ellipse 154" cx="7.701" cy="7.701" r="7.701" transform="translate(766.966 490.409)" fill="#ccd5ff"/>
    <circle id="Ellipse_155" data-name="Ellipse 155" cx="7.701" cy="7.701" r="7.701" transform="translate(769.101 542.317)" fill="#abbbf4"/>
    <circle id="Ellipse_156" data-name="Ellipse 156" cx="7.701" cy="7.701" r="7.701" transform="translate(766.966 541.345)" fill="#ccd5ff"/>
    <path id="Path_331" data-name="Path 331" d="M3220.627,1631.839h-59.2l16.446-61.239h59.2Z" transform="translate(-2441.92 -1212.736)" fill="#8ba5ef"/>
    <path id="Path_332" data-name="Path 332" d="M3208.427,1631.839h-59.2l16.443-61.239h59.2Z" transform="translate(-2432.524 -1212.736)" fill="#abbbf4"/>
    <path id="Path_333" data-name="Path 333" d="M3229.55,1646.28h-47.33l13.148-48.96H3242.7Z" transform="translate(-2457.932 -1233.316)" fill="#fff"/>
    <path id="Path_334" data-name="Path 334" d="M3426.923,1709.01l16.322,29.43H3419.02Z" transform="translate(-2640.313 -1319.338)" fill="#1a4ea2"/>
    <path id="Path_335" data-name="Path 335" d="M1844.819,2490.81V2562.7a205.356,205.356,0,0,1-33.44-6.019c-24.958-6.759-49.4-20.941-70.275-35.474a285.825,285.825,0,0,1-36.724-30.4Z" transform="translate(-1319.72 -1921.469)" fill="#f8cab9"/>
    <path id="Path_336" data-name="Path 336" d="M3058.385,1348.662s4.155-59.315-5.516-98.052" transform="translate(-2358.309 -966.285)" fill="none" stroke="#454b6b" stroke-miterlimit="10" stroke-width="5"/>
    <path id="Path_337" data-name="Path 337" d="M3050.446,1637.754H3027.97l6.267-59.474h11.927Z" transform="translate(-2339.131 -1218.651)" fill="#1a4ea2"/>
    <circle id="Ellipse_157" data-name="Ellipse 157" cx="6.855" cy="6.855" r="6.855" transform="translate(678.226 288.163)" fill="#8ba5ef"/>
    <circle id="Ellipse_158" data-name="Ellipse 158" cx="6.855" cy="6.855" r="6.855" transform="translate(687.694 304.705)" fill="#abbbf4"/>
    <circle id="Ellipse_159" data-name="Ellipse 159" cx="5.853" cy="5.853" r="5.853" transform="translate(695.11 286.334)" fill="#abbbf4"/>
    <circle id="Ellipse_160" data-name="Ellipse 160" cx="4.562" cy="4.562" r="4.562" transform="translate(702.993 302.437)" fill="#8ba5ef"/>
    <circle id="Ellipse_161" data-name="Ellipse 161" cx="4.079" cy="4.079" r="4.079" transform="translate(686.389 274.391)" fill="#8ba5ef"/>
    <circle id="Ellipse_162" data-name="Ellipse 162" cx="4.079" cy="4.079" r="4.079" transform="translate(696.885 276.167)" fill="#abbbf4"/>
    <path id="Path_338" data-name="Path 338" d="M2005.741,1420.525s-5-.529-4.472,3.245.26,9.213,4.472,6.8,6.78-3.624,4.21-6.039S2005.741,1420.525,2005.741,1420.525Z" transform="translate(-1548.35 -1097.131)" fill="#000d3a"/>
    <path id="Path_339" data-name="Path 339" d="M1781.422,2304.886s.386,13.132-3.217,16.717,9.967,11.362,14.708,9.261,6.476-9.384,6.476-9.384-2.016-6.5,0-16.595S1781.422,2304.886,1781.422,2304.886Z" transform="translate(-1376.116 -1774.818)" fill="#ffc890"/>
    <path id="Path_340" data-name="Path 340" d="M1653.062,2407.161a9.159,9.159,0,0,1-.577,3.121l-71.736,1.018s-1.82-.581-2.528-3.7a12.366,12.366,0,0,1-.271-2.6c-.032-5.426,26.888-10.392,35.789-14.267,11.491-5.008,10.691-1.981,10.691-1.981a36.041,36.041,0,0,0,21.184-.122s3.946-6.354,6.814,12.261A28.078,28.078,0,0,1,1653.062,2407.161Z" transform="translate(-1222.346 -1841.962)" fill="#454b6b"/>
    <path id="Path_341" data-name="Path 341" d="M1653.971,2472.79a9.158,9.158,0,0,1-.577,3.121l-71.736,1.018s-1.82-.582-2.528-3.7Z" transform="translate(-1223.255 -1907.591)" fill="#20307b"/>
    <path id="Path_342" data-name="Path 342" d="M1726.158,2408.309a.473.473,0,0,1-.5-.409,9.474,9.474,0,0,0-1.815-4.893.4.4,0,0,1,.117-.607.554.554,0,0,1,.689.1,10.151,10.151,0,0,1,2,5.345.46.46,0,0,1-.471.46Z" transform="translate(-1334.638 -1853.318)" fill="#fff"/>
    <path id="Path_343" data-name="Path 343" d="M1697.631,2415.712a.478.478,0,0,1-.5-.411,6.183,6.183,0,0,0-1.457-4.008.4.4,0,0,1,.018-.613.558.558,0,0,1,.706,0,6.788,6.788,0,0,1,1.735,4.562.46.46,0,0,1-.46.459Z" transform="translate(-1312.907 -1859.657)" fill="#fff"/>
    <path id="Path_344" data-name="Path 344" d="M1749.495,2399.638a.478.478,0,0,1-.5-.414c-.28-4.748-3.369-4.9-3.4-4.9a.46.46,0,0,1-.483-.46.485.485,0,0,1,.519-.42c.165,0,4.038.191,4.366,5.725a.459.459,0,0,1-.476.459Z" transform="translate(-1351.09 -1846.479)" fill="#fff"/>
    <path id="Path_345" data-name="Path 345" d="M2188.645,810.782c-1.907,23.409-43.8,16.087-57.757,6.37-5.624-3.907-8.094-10.829-9-17.845a71.055,71.055,0,0,1,1.149-22.45c.634-2.388-3.666-5.573-4.3-10.342s5.892-2.068,10.511-3.344,6.205-4.778,10.987-10.192a23.27,23.27,0,0,1,4.268-3.813,16.152,16.152,0,0,1,5.454-2.567S2190.56,787.369,2188.645,810.782Z" transform="translate(-1638.819 -578.103)" fill="#ffc890"/>
    <path id="Path_346" data-name="Path 346" d="M2199.349,810.782c-1.907,23.409-43.8,16.087-57.757,6.37-5.623-3.907-8.094-10.829-9-17.845,15.138,17.353,36.612-.425,37.625-5.86,1.124-6.023-3.116-6.952-9.31-5.869s-12.214.441-9.5-4.989,8.565-15.248,6.685-22.453c-1.126-4.316-2.206-8.4-2.889-10.969a16.151,16.151,0,0,1,5.454-2.567S2201.263,787.369,2199.349,810.782Z" transform="translate(-1649.522 -578.103)" fill="#ff8c5a"/>
    <path id="Path_347" data-name="Path 347" d="M2134.19,986.17s7.29,6.75,15.2,9.1,15.561-1.887,15.561-1.887,7.382,3.011,6.5,8.317-11.633,8.912-24.224,1.852-12.017-13.187-12.017-13.187Z" transform="translate(-1650.754 -762.616)" fill="#d64613"/>
    <path id="Path_348" data-name="Path 348" d="M2266.059,976.67s-6.467,3.185-7.375,5.256,1,15.768,14.223,15.607,16.4-6.37,16.087-8.441S2266.059,976.67,2266.059,976.67Z" transform="translate(-1746.49 -755.3)" fill="#361029"/>
    <path id="Path_349" data-name="Path 349" d="M2313.438,1095.522c-3.381,5.368-66.876,9.344-72.5,1.193s-18.594-79.139-18.594-79.139a66.382,66.382,0,0,0,10.923,2.206c11.291,1.427,29.71,1.434,47.415-8.772q.9-.517,1.809-1.08a14.041,14.041,0,0,1,6.577,2.691,26.5,26.5,0,0,1,6.481,6.559c1.643,2.312,3.861,8.184,6.189,15.7C2308.4,1056.43,2315.943,1091.541,2313.438,1095.522Z" transform="translate(-1718.646 -780.916)" fill="#febd57"/>
    <path id="Path_350" data-name="Path 350" d="M1632.224,537.075c.319,16.165-23.549,9.351-23.549,9.351s-16.7-11.537-23.471-19.918c-5.851-7.244-13.559-17.045-15.443-23.765-4.422-15.678-12.205-56.215-18.585-69.914s-29.784-19.111-30.418-25.8c0,0-7.963-.637-6.69-4.939,0,0,17.516-.478,25.323,1.593s20.7,8.122,21.338,7.168,6.69-11.624,17.362-9.553-9.08,2.7-8.921,13.536-.533,11.783,4.107,21.412c5.851,12.143,22.062,49.472,30.515,60.3,4.1,5.265,11.523,14.63,13.559,14.63,2.634,0,5.619,12.389,5.619,12.389S1631.9,520.917,1632.224,537.075Z" transform="translate(-1173.038 -311.952)" fill="#ffc890"/>
    <path id="Path_351" data-name="Path 351" d="M2463.943,433.837c-6.846-3.732-8.933-8.1-8.933-8.1s.229-1.229.593-2.988c.646-3.217,3.783.113,4.506-2.392l-.073-6.727c4.4-15.26,9.684-57.173,2.953-64.922a40.987,40.987,0,0,0-16.882-12.1c-5.256-2.073-4.46-5.571-4.46-5.571s15.131-.478,17.741-1.751,5.516-3.5,5.516-7.17-3.5-.317-3.5-.317l-5.251-.317S2464.582,310,2468.583,310s2.528,1.914,5.547,5.1,13.38,4.619,13.854,8.6-4.458,22.455-5.732,31.055c-1.149,7.694,6.1,39.068,9.581,58.651.409,2.3-4.879,11.2-4.677,13.2C2489.071,445.558,2470.792,437.567,2463.943,433.837Z" transform="translate(-1887.52 -241.84)" fill="#ffc890"/>
    <path id="Path_352" data-name="Path 352" d="M1863.4,891.661c3.482,15.788-31.572,12.286-31.572,12.286s-6.322-6.734-13.1-15.115c1.379,1.694,8.793-1.126,10.342-1.636a53.262,53.262,0,0,0,12.2-5.892c3.273-2.119,6.846-4.573,8.3-8.363-.37.961,6.708,4.079,7.561,4.332C1857.129,877.272,1862.716,888.565,1863.4,891.661Z" transform="translate(-1407.791 -675.408)" fill="#ff8c5a"/>
    <path id="Path_353" data-name="Path 353" d="M2510.86,780.383c-3.709-2.022-6.533-6.982-8.34-11.1.646-3.217,2.211-.492,2.935-3l1.5-6.12c1.379,1.379,3.523,2.912,11.167,3.245,10.939.478,18.486-.981,20.637-3.463.409,2.3,1.036,11.2,1.239,13.2C2541.9,792.1,2517.708,784.113,2510.86,780.383Z" transform="translate(-1934.437 -588.385)" fill="#ff8c5a"/>
    <path id="Path_354" data-name="Path 354" d="M2513.726,948.5c-2.553,8.273-2.027-27.872-2.988-35.835s-8.438-39.971-11.626-46.822c-.735-1.577-2.5-4.847-4.8-8.963-3.58-6.419-8.443-14.9-12.67-22.262-4.851-8.448-8.859-15.411-9.124-16.069a5.32,5.32,0,0,1-.126-1.436c-.057-5.026,1.4-20.7,1.4-20.7s3.6-18.53,5.515-17.574c0,0,2.868,2.721,18.018,3.774,6.874.476,20.2-2.176,22.239-2.317a27,27,0,0,1,1.471,8.611c.048,7.007,1.149,41.753,1.048,56.24-.073,11.031-1.963,47.222-4.826,72.414C2516.385,925.117,2514.351,946.45,2513.726,948.5Z" transform="translate(-1911.226 -602.906)" fill="#febd57"/>
    <path id="Path_355" data-name="Path 355" d="M1922.729,992.835c-1.112,15.765-46.193,27.552-46.193,27.552s-.549-7.156-3.757-24.314q-.974-5.21-2.3-11.679c-1.733-8.443-4.277-31-8.347-38.131-6.492-11.383-34.573-40.8-30.887-46.018,3.927-5.562,24.36-18.578,28.554-21.278,3.875-2.5.972-5.187.972-5.187.818-2.367,2.441-3.277,11.5,5.139,7.237,6.717,27.483,19.548,33.059,24.25,1.779,1.5,2.886,2.39,2.886,2.39s15.29,23.253,18.475,38.7S1923.844,977.065,1922.729,992.835Z" transform="translate(-1417.176 -674.794)" fill="#febd57"/>
    <path id="Path_356" data-name="Path 356" d="M2239.042,659.345s-21.819-47.459-4.778-53.829,28.189,30.418,28.189,30.418Z" transform="translate(-1722.818 -468.871)" fill="#4d87db"/>
    <path id="Path_357" data-name="Path 357" d="M2231.376,805.5s.636,14.749-4.3,19.075-6.531,5.768-2.229,7.28,9.395-1.673,9.395-1.673,4.778-8.6,5.1-12.263S2231.376,805.5,2231.376,805.5Z" transform="translate(-1718.655 -623.467)" fill="#361029"/>
    <path id="Path_358" data-name="Path 358" d="M2067.012,1048.283c3.183,15.446-2.868,32.8-3.983,48.573s-46.193,27.552-46.193,27.552-.549-7.156-3.757-24.314c20.224,7.17,40.95-8.393,43.095-21.393,2.123-12.87-8.2-60.933-10.53-71.511,1.779,1.5,2.886,2.39,2.886,2.39S2063.827,1032.823,2067.012,1048.283Z" transform="translate(-1557.477 -778.806)" fill="#ff8c3e"/>
    <path id="Path_359" data-name="Path 359" d="M2317.606,1093.279c-2.551,8.273,1.512-44.292.556-52.255s-8.439-39.971-11.626-46.822c-.735-1.577-2.505-4.847-4.8-8.963,6.665,21.547,14.209,56.658,11.7,60.639-3.381,5.368-66.876,9.344-72.5,1.193s-18.594-79.139-18.594-79.139a66.378,66.378,0,0,0,10.923,2.206c10.854,17.105,14.081,59.133,19.923,66.115,6.527,7.814,48.1,3.185,50.483-2.709s-14.968-57.01-19.268-66.09a50.749,50.749,0,0,0-3.723-6.088c-5.118-7.556-11.44-16.209-.864-15.894a45.284,45.284,0,0,1,8.886,1.436c27.481,6.678,33.408,80.665,35.4,95.924,1.737,13.311.368,47.741,3.231,38.294C2328.074,1088.694,2318.239,1091.231,2317.606,1093.279Z" transform="translate(-1718.646 -731.265)" fill="#ff8c3e"/>
    <path id="Path_360" data-name="Path 360" d="M1899.577,1317.139c-.106,6.076-1.241,42.244-3.314,70.511l-1.515.184q-8.022.958-16.087,1.609-3.592.283-7.191.494-9.629.563-19.242.561c-.437-28.343-.335-62.739-1.71-70.578-2.707-15.448-.46-91.948-.46-91.948s-7.52-.147-18.941-.742c-24.5-1.28-66.926-4.64-91.581-13.113v1.834c0,.379,0,.749-.016,1.193v.06c-.131,10.958-.8,47.882-3.854,58.143a11.668,11.668,0,0,1-.414,1.195,94.46,94.46,0,0,1-11.118,2.319c-2.045.306-4.265.57-6.568.735a58.734,58.734,0,0,1-11.2-.165c-4.881-.6-9.455-2.02-12.835-4.8,0,0-11.194-43.341-12.945-75.8s1.31-33,9.422-41.688c7.5-8.043,64.284-23.671,65.4-25.592.352-.607-.483-10.512-1.344-22.264-.816-11.13-1.657-23.924-1.537-32.047q0-.717.034-1.379t.055-1.326a6.988,6.988,0,0,1,2.192-4.626,5.2,5.2,0,0,1,1.823-.991l.126-.044.039.262.117.772.2,1.3.308,2.022s-3.218.892-3.3,2.551v.078a1.3,1.3,0,0,0,.046.32,3.82,3.82,0,0,0,1.885,2.009h0c.12.076.248.154.384.23a6.628,6.628,0,0,0,1.99.669,20.864,20.864,0,0,0,3.089.34,63.321,63.321,0,0,0,21.887-3.581,41.035,41.035,0,0,0,11.491-5.952,22.807,22.807,0,0,0,3.656-3.493q.377-.46.717-.919c.133-.182.26-.365.384-.547l.117-.175c.028-.048.058-.092.085-.136.06-.092.117-.186.175-.28a15.45,15.45,0,0,0,.788-1.448c.09-.191.179-.381.26-.577.046-.11.094-.23.136-.326.08-.2.156-.4.23-.609.106-.306.2-.616.29-.933.03-.117.062-.23.092-.349,2.089-8.437,2.56-23.276,1.177-38.565-.06-.689-.129-1.379-.2-2.068-.177-1.721-.375-3.447-.593-5.166-.085-.639-.17-1.278-.26-1.917q-.23-1.682-.5-3.353c-.1-.632-.207-1.262-.313-1.887q-.542-3.148-1.2-6.189-.186-.869-.384-1.728c-.083-.352-.163-.7-.248-1.055-.163-.689-.331-1.379-.506-2.041-.117-.46-.23-.919-.361-1.379q-.349-1.291-.722-2.546c-.152-.51-.308-1.018-.46-1.517-.138-.441-.278-.875-.425-1.31-.046-.143-.094-.287-.142-.427-.028-.078-.053-.156-.083-.23-.044-.138-.09-.269-.138-.4-.028-.087-.06-.172-.087-.26h0c-.657-1.864-1.358-3.633-2.107-5.286h0a.26.26,0,0,0,0-.028,46.841,46.841,0,0,0-2.133-4.176.065.065,0,0,1,0-.014h0c.218.108,5.056,2.5,8.733,4.215,1.749.813,3.245,1.478,3.884,1.675h0a33.24,33.24,0,0,1,4.059,4.272,41.255,41.255,0,0,1,2.551,3.489c.094.142.186.285.278.43q.558.873,1.1,1.839a39.327,39.327,0,0,1,1.862,3.7,37.869,37.869,0,0,1,2.512,7.938c2.71,13.7,3.5,41.727,12.263,48.893a10.449,10.449,0,0,0,2.505,1.436h0c5.228,2.239,15.129,3.447,25.259,3.638,15.421.269,31.385-1.871,32.275-6.506,1.149-5.975-3.181-33.433-12.162-55.4-.834-2.038-1.708-4.031-2.622-5.954q-.848-1.786-1.744-3.489c-1.1-2.105-2.259-4.1-3.47-5.952a50.35,50.35,0,0,0-3.622-4.925c-.3-.356-.6-.706-.905-1.043,0,0,.021-.49.1-1.269a29.463,29.463,0,0,1,1.043-5.516,11.622,11.622,0,0,1,1.4-3.093s1.149.733,2.988,2.151a76.681,76.681,0,0,1,13.665,13.69,65.389,65.389,0,0,1,4.079,5.952c.69,1.121,1.34,2.3,1.963,3.489a54.894,54.894,0,0,1,2.654,5.954,50.529,50.529,0,0,1,1.894,6.184c2.8,11.84,7.471,31.452,11.835,55.029.067.352.131.708.2,1.062q.184.988.363,1.988h0q.359,1.963.708,3.96c.207,1.149.407,2.321.609,3.493q.5,2.946,1,5.952c2.946,18.027,5.484,37.646,6.809,57.454q.069.988.131,1.974a11.342,11.342,0,0,0,.131,2.188C1926.114,1174.238,1899.736,1308.061,1899.577,1317.139Z" transform="translate(-1301.026 -747.798)" fill="#1a4ea2"/>
    <path id="Path_361" data-name="Path 361" d="M2381.323,2062.317c-15.441,31.484-5.745,73.354-2.2,106.863.188,1.763-.857,29.232-1.623,50.207q-9.629.563-19.242.561-3.218,0-6.435-.08c-3.279-27.808-8.2-68.351-9.785-77.415-2.707-15.448-4.9-85.773-4.9-85.773s31.919.377,41.137-10.31c2.594-3.006,6.09-3.8,7.5.506C2387.437,2051.906,2383.426,2058.031,2381.323,2062.317Z" transform="translate(-1807.063 -1577.249)" fill="#20307b"/>
    <path id="Path_362" data-name="Path 362" d="M1856.286,1991.273c-.067,7.331-.643,53.652-4.3,62.427a96.514,96.514,0,0,1-17.7,3.054c4.884-16.432,13.233-40.33,7.338-57.021-4.714-13.35-13.814-28.554-8.105-22.292s20.777,12.654,20.777,12.654A14.237,14.237,0,0,1,1856.286,1991.273Z" transform="translate(-1417.779 -1524.961)" fill="#20307b"/>
    <path id="Path_363" data-name="Path 363" d="M2248.624,937.609a1.868,1.868,0,0,0,.333,1.149,2.272,2.272,0,0,0,.712.581,4.3,4.3,0,0,0,3.787.163c1.629-.731,3.858-3.976,1.337-5C2252.65,933.614,2248.667,934.952,2248.624,937.609Z" transform="translate(-1738.888 -722.611)" fill="#ff8c5a"/>
    <path id="Path_364" data-name="Path 364" d="M2483.893,1088.334c-2.811,3.342-18.907,2.346-33.553.646,15.421.269,31.386-1.873,32.275-6.506,1.593-8.273-7.32-57.683-24.528-76.758,0,0,.023-.487.1-1.266,4.553,3.36,13.653,11.987,19.01,30.016C2484.562,1059.219,2489.248,1081.975,2483.893,1088.334Z" transform="translate(-1894.248 -776.695)" fill="#20307b"/>
    <path id="Path_365" data-name="Path 365" d="M2037.747,1115.861c-9.344,7.669-45.067,12.612-43.678-2.388.77-2.725.476-4.426,4.44-5.582l.664,4.367s-3.826,3.785-.979,5.2c5.938,2.958,41.089-.958,45.386-18.316s1.751-61.792-9.714-81.543c.244.177,8.067,5.975,12.626,31.344C2051.134,1074.7,2050.8,1105.154,2037.747,1115.861Z" transform="translate(-1542.804 -786.824)" fill="#20307b"/>
    <path id="Path_366" data-name="Path 366" d="M2025.755,1747.36s-10.849,26.73,22.428,41.185c0,0-30.758,16.636-40.746,5.453S2025.755,1747.36,2025.755,1747.36Z" transform="translate(-1551.487 -1348.875)" fill="#20307b"/>
    <path id="Path_367" data-name="Path 367" d="M2037.315,1825.987a4.7,4.7,0,0,1,2.342-2.758l29.363-14.607a2.7,2.7,0,0,0,1.5-2.3,7.94,7.94,0,0,1,.23-1.859,9.071,9.071,0,0,1,4.707-5.394,8.962,8.962,0,0,1,7.161-.271.918.918,0,0,1,.563.673.975.975,0,0,1-.285.89l-4.33,3.8a4.9,4.9,0,0,0,2.9,3.707l4.826-4.242a.9.9,0,0,1,1.436.352,8.943,8.943,0,0,1,.269,5.812,8.506,8.506,0,0,1-4.348,5.056,9.349,9.349,0,0,1-8.8-.1,2.726,2.726,0,0,0-2.51.014l-29.078,15.483a4.772,4.772,0,0,1-3.622.3A3.615,3.615,0,0,1,2037.315,1825.987Z" transform="translate(-1576.005 -1388.017)" fill="#5d81e8"/>
    <path id="Path_368" data-name="Path 368" d="M2037.4,1823.043a4.689,4.689,0,0,1,2.34-2.758l29.363-14.607a2.708,2.708,0,0,0,1.5-2.3,7.742,7.742,0,0,1,.23-1.862,9.066,9.066,0,0,1,4.7-5.394,8.963,8.963,0,0,1,7.161-.269.9.9,0,0,1,.563.673.972.972,0,0,1-.285.887l-4.33,3.8a4.906,4.906,0,0,0,2.9,3.707l4.826-4.245a.9.9,0,0,1,1.436.352,8.964,8.964,0,0,1,.267,5.814,8.511,8.511,0,0,1-4.346,5.056,9.348,9.348,0,0,1-8.8-.1,2.719,2.719,0,0,0-2.51.014l-29.081,15.48a4.781,4.781,0,0,1-3.62.3A3.613,3.613,0,0,1,2037.4,1823.043Z" transform="translate(-1576.07 -1385.749)" fill="#b6c7ff"/>
    <path id="Path_369" data-name="Path 369" d="M2101.943,1856.089l-19.125,10.417a1.413,1.413,0,0,1-1.944-.618l-.2-.409a1.416,1.416,0,0,1,.618-1.882l19.325-10.008a1.413,1.413,0,0,1,1.914.623h0a1.415,1.415,0,0,1-.586,1.878Z" transform="translate(-1609.422 -1430.569)" fill="#fff"/>
    <path id="Path_370" data-name="Path 370" d="M2144.323,1726.11c-1.791-1.873-2.939-2.388-4.438-.958l-10.741,10.256c-.492.46.092,1.558-.356,1.986l-.414.393a1.146,1.146,0,0,1-.944.172l.046.046,4.19,4.387a.4.4,0,0,1,.041.048,1.176,1.176,0,0,1,.216-.935c.129-.126.087-.083.414-.4.446-.425,1.508.207,2-.262.621-.593,9.241-8.825,10.744-10.254S2146.116,1727.985,2144.323,1726.11Zm-12.773,9.963a.655.655,0,0,1-.919-.023l-.037-.037a.651.651,0,0,1,.023-.919l10.163-9.707a.657.657,0,0,1,.919.025l.037.034a.655.655,0,0,1-.023.919Zm.713,1.694-.037-.037a.657.657,0,0,1,.023-.919l10.165-9.7a.65.65,0,0,1,.919.021l.037.039a.655.655,0,0,1-.021.919l-10.167,9.7A.65.65,0,0,1,2132.263,1737.766Zm12.626-8.073-10.167,9.7a.651.651,0,0,1-.919-.021l-.037-.039a.655.655,0,0,1,.021-.919l10.167-9.7a.65.65,0,0,1,.919.021l.037.035A.662.662,0,0,1,2144.889,1729.693Z" transform="translate(-1645.547 -1331.138)" fill="#ff8c3e"/>
    <rect id="Rectangle_125" data-name="Rectangle 125" width="15.361" height="1.36" rx="0.68" transform="translate(487.771 407.762) rotate(-43.69)" fill="#d1dbff"/>
    <rect id="Rectangle_126" data-name="Rectangle 126" width="15.361" height="1.36" rx="0.68" transform="matrix(0.723, -0.691, 0.691, 0.723, 486.231, 406.163)" fill="#d1dbff"/>
    <rect id="Rectangle_127" data-name="Rectangle 127" width="15.361" height="1.36" rx="0.68" transform="matrix(0.723, -0.691, 0.691, 0.723, 484.589, 404.379)" fill="#d1dbff"/>
    <path id="Path_371" data-name="Path 371" d="M2023.791,1817.638l-1.689.106-2.592,3.778.572.6.57.6,3.9-2.413.184-1.685L2045.288,1799l-.94-.986Z" transform="translate(-1562.429 -1387.884)" fill="#061859"/>
    <path id="Path_372" data-name="Path 372" d="M2121.261,1782.787l-.046-.044a.984.984,0,0,0-1.342,0l-.213.2a.983.983,0,0,0-.032,1.379l1.625,1.7.94.986,1.627,1.7a.981.981,0,0,0,1.379.032l.211-.2a.979.979,0,0,0,.074-1.34c-.014-.016-.026-.032-.042-.048Z" transform="translate(-1639.333 -1375.923)" fill="#ff8c3e"/>
    <path id="Path_373" data-name="Path 373" d="M1974.86,1741.31s-14.993,26.73,18.284,41.185c0,0-30.549,16.45-40.744,5.456C1928.686,1762.382,1974.86,1741.31,1974.86,1741.31Z" transform="translate(-1505.526 -1344.215)" fill="#1a4ea2"/>
    <path id="Path_374" data-name="Path 374" d="M1543.671,427a16.907,16.907,0,0,1,3.587.421c.3.055.588.129.88.2s.582.154.871.23c.577.168,1.149.372,1.714.57s1.119.46,1.666.71c.271.131.542.264.809.409s.533.285.793.441a13.334,13.334,0,0,1,2.861,2.232l-.042.055a24.916,24.916,0,0,0-3.061-1.8c-1.069-.517-2.158-.988-3.27-1.4s-2.234-.8-3.374-1.135-2.3-.634-3.447-.876Z" transform="translate(-1195.936 -331.952)" fill="#ff8c5a"/>
    <path id="Path_375" data-name="Path 375" d="M2194.03,807.58a3.562,3.562,0,0,0-3.1,3.907,3.072,3.072,0,0,0,4.136-3.838Z" transform="translate(-1694.432 -625.069)" fill="#361029"/>
    <path id="Path_376" data-name="Path 376" d="M2220.087,783.521a9.362,9.362,0,0,1,.427.945,5.239,5.239,0,0,1-.069,4.118c-.719,1.455-.809-.855-.775-1.266a8.8,8.8,0,0,0-.021-2.482,5.412,5.412,0,0,0-2.611-3.144c-.435-.253-1.508-.418-.586-.919C2217.874,780.007,2219.326,782.045,2220.087,783.521Z" transform="translate(-1713.833 -604.294)" fill="#361029"/>
    <path id="Path_377" data-name="Path 377" d="M2143.119,907.2a3.158,3.158,0,0,0,.46,2.647,1.046,1.046,0,0,0,.623.4,1.811,1.811,0,0,0,1.133-.145,1.446,1.446,0,0,0,.567-.545,8.392,8.392,0,0,0,1.326-3.762,14.613,14.613,0,0,0,.076-1.928c0-.386.3-1.42-.2-1.733-1.57-.984-2.555.827-2.758,1.243A14.207,14.207,0,0,0,2143.119,907.2Z" transform="translate(-1657.56 -697.669)" fill="#ff8c5a"/>
    <g id="Group_226" data-name="Group 226" transform="translate(491.818 190.799)" opacity="0.5">
      <path id="Path_378" data-name="Path 378" d="M2173.553,843.727a3.6,3.6,0,0,0-2.744,2.128,2.069,2.069,0,0,0-.138.951,2.3,2.3,0,0,0,.954,1.471,8.934,8.934,0,0,0,6.265,1,3.038,3.038,0,0,0,1.857-1.379,1.688,1.688,0,0,0,.23-.864c-.034-1.078-1.308-1.859-2.135-2.367A6.236,6.236,0,0,0,2173.553,843.727Z" transform="translate(-2170.663 -843.646)" fill="#ff8c5a"/>
    </g>
    <path id="Path_379" data-name="Path 379" d="M2002.682,1606.057s15.469-2.592,23.62-3.622-23.9-8.126-25.1-19.406A155.492,155.492,0,0,0,2002.682,1606.057Z" transform="translate(-1548.325 -1222.31)" fill="#20307b"/>
    <path id="Path_380" data-name="Path 380" d="M2270.729,743.824s4.056-31.742,30.175-24.2,29.3,36.046,25.482,53.891-17.68,24.36-30.9,22.933-20.065-18.633-20.065-18.633,5.286-3.822,2.719-9.236-6.7-5.414-6.7-5.414A154,154,0,0,1,2270.729,743.824Z" transform="translate(-1755.852 -556.432)" fill="#6192de"/>
    <path id="Path_381" data-name="Path 381" d="M2186.393,1606.518c-14.821,6.12-44.458,14.5-78.936,3.344,0,0-34.8-7.177-29.4-10.284a2.7,2.7,0,0,1,2.3-.161c5.948,2.215,40.3,14.324,75.379,12.13,15.319-.958,24.744-3.748,30.544-6.766Q2186.338,1605.649,2186.393,1606.518Z" transform="translate(-1607.084 -1234.79)" fill="#20307b"/>
  </g>
</svg>
