<svg xmlns="http://www.w3.org/2000/svg" xmlns:xlink="http://www.w3.org/1999/xlink" width="528.038" height="421.53" viewBox="0 0 528.038 421.53">
  <defs>
    <clipPath id="clip-path">
      <path id="Path_728" data-name="Path 728" d="M907.6,578.309c11.1-20.353,30.5-35.13,42.031-55.243,17.454-30.44,16.239-69.961,47.345-91.625,28.394-19.775,70.2-26.395,103.87-29.536a364.058,364.058,0,0,1,129.78,11.856c39.13,10.755,83.592,27.834,113.422,56.249,50.637,48.234,62.258,124.117,33.747,187.307a105.893,105.893,0,0,1-14.28,23.893c-16.572,20.157-42.276,30.414-67.584,36.783-89.8,22.6-190.254,10.49-280.68-2.98C997.7,712.4,980.08,709.3,963.473,703.025,915.272,684.83,880.6,627.833,907.6,578.309Z" transform="translate(-898.152 -400.421)" fill="none"/>
    </clipPath>
  </defs>
  <g id="_04" data-name="04" transform="translate(-144.1 -62.221)">
    <path id="Path_727" data-name="Path 727" d="M907.6,578.309c11.1-20.353,30.5-35.13,42.031-55.243,17.454-30.44,16.239-69.961,47.345-91.625,28.394-19.775,70.2-26.395,103.87-29.536a364.058,364.058,0,0,1,129.78,11.856c39.13,10.755,83.592,27.834,113.422,56.249,50.637,48.234,62.258,124.117,33.747,187.307a105.893,105.893,0,0,1-14.28,23.893c-16.572,20.157-42.276,30.414-67.584,36.783-89.8,22.6-190.254,10.49-280.68-2.98C997.7,712.4,980.08,709.3,963.473,703.025,915.272,684.83,880.6,627.833,907.6,578.309Z" transform="translate(-740.66 -330.237)" fill="#ffe8d4"/>
    <g id="Group_297" data-name="Group 297" transform="translate(157.492 70.184)" clip-path="url(#clip-path)">
      <rect id="Rectangle_246" data-name="Rectangle 246" width="89.425" height="23.96" rx="11.98" transform="translate(-23.574 177.158) rotate(4.04)" fill="#fccfac"/>
      <rect id="Rectangle_247" data-name="Rectangle 247" width="89.425" height="23.96" rx="11.98" transform="translate(68.597 183.669) rotate(4.04)" fill="#fccfac" opacity="0.48"/>
      <rect id="Rectangle_248" data-name="Rectangle 248" width="89.425" height="23.96" rx="11.98" transform="translate(160.769 190.176) rotate(4.04)" fill="#fccfac"/>
      <rect id="Rectangle_249" data-name="Rectangle 249" width="89.425" height="23.96" rx="11.98" transform="translate(252.943 196.687) rotate(4.04)" fill="#fccfac"/>
      <rect id="Rectangle_250" data-name="Rectangle 250" width="89.425" height="23.96" rx="11.98" transform="translate(345.113 203.197) rotate(4.04)" fill="#fccfac" opacity="0.71"/>
      <rect id="Rectangle_251" data-name="Rectangle 251" width="89.425" height="23.96" rx="11.98" transform="translate(437.285 209.706) rotate(4.04)" fill="#fccfac"/>
      <rect id="Rectangle_252" data-name="Rectangle 252" width="89.425" height="23.96" rx="11.98" transform="translate(-31.41 288.13) rotate(4.04)" fill="#fccfac"/>
      <rect id="Rectangle_253" data-name="Rectangle 253" width="89.425" height="23.96" rx="11.98" transform="translate(60.762 294.639) rotate(4.04)" fill="#fccfac"/>
      <rect id="Rectangle_254" data-name="Rectangle 254" width="89.425" height="23.96" rx="11.98" transform="translate(152.932 301.15) rotate(4.04)" fill="#fccfac"/>
      <rect id="Rectangle_255" data-name="Rectangle 255" width="89.425" height="23.96" rx="11.98" transform="translate(245.104 307.658) rotate(4.04)" fill="#fccfac"/>
      <rect id="Rectangle_256" data-name="Rectangle 256" width="89.425" height="23.96" rx="11.98" transform="translate(337.276 314.169) rotate(4.04)" fill="#fccfac"/>
      <rect id="Rectangle_257" data-name="Rectangle 257" width="89.425" height="23.96" rx="11.98" transform="translate(429.448 320.678) rotate(4.04)" fill="#fccfac"/>
      <rect id="Rectangle_258" data-name="Rectangle 258" width="89.425" height="23.96" rx="11.98" transform="translate(-27.443 231.94) rotate(4.04)" fill="#fccfac"/>
      <rect id="Rectangle_259" data-name="Rectangle 259" width="89.425" height="23.96" rx="11.98" transform="translate(64.728 238.447) rotate(4.04)" fill="#fccfac"/>
      <rect id="Rectangle_260" data-name="Rectangle 260" width="89.425" height="23.96" rx="11.98" transform="translate(156.9 244.958) rotate(4.04)" fill="#fccfac" opacity="0.59"/>
      <rect id="Rectangle_261" data-name="Rectangle 261" width="89.425" height="23.96" rx="11.98" transform="translate(249.074 251.469) rotate(4.04)" fill="#fccfac"/>
      <rect id="Rectangle_262" data-name="Rectangle 262" width="89.425" height="23.96" rx="11.98" transform="translate(341.244 257.978) rotate(4.04)" fill="#fccfac"/>
      <rect id="Rectangle_263" data-name="Rectangle 263" width="89.425" height="23.96" rx="11.98" transform="translate(433.416 264.488) rotate(4.04)" fill="#fccfac"/>
      <rect id="Rectangle_264" data-name="Rectangle 264" width="89.425" height="23.96" rx="11.98" transform="translate(8.722 206.518) rotate(4.04)" fill="#fccfac" opacity="0.55"/>
      <rect id="Rectangle_265" data-name="Rectangle 265" width="89.425" height="23.96" rx="11.98" transform="translate(-83.949 199.974) rotate(4.04)" fill="#fccfac"/>
      <rect id="Rectangle_266" data-name="Rectangle 266" width="89.425" height="23.96" rx="11.98" transform="translate(100.894 213.028) rotate(4.04)" fill="#fccfac"/>
      <rect id="Rectangle_267" data-name="Rectangle 267" width="89.425" height="23.96" rx="11.98" transform="translate(193.066 219.539) rotate(4.04)" fill="#fccfac" opacity="0.73"/>
      <rect id="Rectangle_268" data-name="Rectangle 268" width="89.425" height="23.96" rx="11.98" transform="translate(285.238 226.046) rotate(4.04)" fill="#fccfac"/>
      <rect id="Rectangle_269" data-name="Rectangle 269" width="89.425" height="23.96" rx="11.98" transform="translate(377.408 232.557) rotate(4.04)" fill="#fccfac"/>
      <rect id="Rectangle_270" data-name="Rectangle 270" width="89.425" height="23.96" rx="11.98" transform="translate(469.579 239.067) rotate(4.04)" fill="#fccfac"/>
      <rect id="Rectangle_271" data-name="Rectangle 271" width="89.425" height="23.96" rx="11.98" transform="translate(4.77 262.488) rotate(4.04)" fill="#fccfac"/>
      <rect id="Rectangle_272" data-name="Rectangle 272" width="89.425" height="23.96" rx="11.98" transform="translate(-87.9 255.942) rotate(4.04)" fill="#fccfac"/>
      <rect id="Rectangle_273" data-name="Rectangle 273" width="89.425" height="23.96" rx="11.98" transform="translate(96.941 268.997) rotate(4.04)" fill="#fccfac"/>
      <rect id="Rectangle_274" data-name="Rectangle 274" width="89.425" height="23.96" rx="11.98" transform="translate(189.112 275.508) rotate(4.04)" fill="#fccfac"/>
      <rect id="Rectangle_275" data-name="Rectangle 275" width="89.425" height="23.96" rx="11.98" transform="translate(281.283 282.017) rotate(4.04)" fill="#fccfac"/>
      <rect id="Rectangle_276" data-name="Rectangle 276" width="89.425" height="23.96" rx="11.98" transform="translate(373.455 288.525) rotate(4.04)" fill="#fccfac"/>
      <rect id="Rectangle_277" data-name="Rectangle 277" width="89.425" height="23.96" rx="11.98" transform="translate(465.627 295.036) rotate(4.04)" fill="#fccfac"/>
    </g>
    <path id="Path_729" data-name="Path 729" d="M873.783,714.92c-5.306,3.076-9,8.268-12.3,13.438-9.712,15.226-11.743,33.115-1.439,48.726,2.592,3.93,6.045,7.567,10.534,8.988,18.979,6.015,40.963-22.667,43.971-38.473a30.074,30.074,0,0,0-7.935-26.221C898.891,713.509,883.887,709.06,873.783,714.92Z" transform="translate(-703.587 -587.399)" fill="#ffe8d4"/>
    <path id="Path_730" data-name="Path 730" d="M2561.778,369.917V482.808a9.916,9.916,0,0,1-9.915,9.915h-167.1a9.917,9.917,0,0,1-9.917-9.915V369.917a9.917,9.917,0,0,1,9.917-9.917h167.094A9.917,9.917,0,0,1,2561.778,369.917Z" transform="translate(-1958.53 -296.901)" fill="#fff"/>
    <path id="Path_731" data-name="Path 731" d="M2557.869,365.892q-.011,19.445.128,38.892l.312,38.892.128,19.445.049,9.724.014,4.86v1.225l-.032.65a1.873,1.873,0,0,1-.019.326l-.049.323-.1.643c-.044.214-.1.422-.154.634a10.036,10.036,0,0,1-.4,1.239,5.831,5.831,0,0,1-.265.6c-.1.195-.175.394-.291.584l-.336.557c-.058.093-.11.188-.175.277l-.195.263-.391.526-.437.484-.219.242c-.073.081-.159.149-.238.223l-.482.44a10.809,10.809,0,0,1-4.645,2.27c-.214.044-.429.07-.645.105l-.322.047c-.054,0-.107.018-.161.023l-.163.009c-.427.019-.885.054-1.276.046h-7.293c-6.485,0-12.97-.03-19.445-.047-25.928-.1-51.855-.37-77.783-.417q-19.445-.035-38.892.014l-19.445.068-2.431.011H2381c-.2,0-.412,0-.622-.016l-.629-.03a10.332,10.332,0,0,1-9.34-10.234l-.209-38.892L2370.082,401l-.045-19.445-.017-9.724-.009-4.86v-1.227l.033-.659a1.87,1.87,0,0,1,.019-.328l.049-.328.1-.652c.044-.216.1-.428.156-.641a9.9,9.9,0,0,1,.41-1.253,5.827,5.827,0,0,1,.266-.6c.1-.2.186-.4.294-.592l.351-.564c.058-.095.11-.191.175-.28l.2-.265.4-.526.442-.491.221-.245c.075-.081.161-.151.24-.226l.489-.443a10.94,10.94,0,0,1,4.7-2.3c.214-.046.435-.072.652-.107l.326-.049.163-.025h.165l.661-.033c.107,0,.224-.014.324-.012h27.041l19.456.033,19.445.051,9.722.039,9.724.06,19.445.152,38.892.315c6.485.051,12.97.068,19.445.1l2.431.009h1.217c.2,0,.407.011.61.021l.614.033a10.021,10.021,0,0,1,9,9.971Zm-.163,0a9.815,9.815,0,0,0-8.858-9.763l-.6-.028c-.2-.01-.4-.023-.6-.018h-1.216l-2.431.009c-6.485.033-12.97.051-19.445.1l-38.892.315-19.445.152-9.724.06-9.722.039-19.445.051-19.456.033h-27.033a2.1,2.1,0,0,0-.282.012l-.554.028h-.138a.909.909,0,0,0-.138.021l-.274.042c-.175.03-.366.049-.547.088a9.29,9.29,0,0,0-3.947,1.928l-.412.372c-.067.065-.14.121-.2.189l-.186.205-.375.41-.333.445-.167.221c-.052.077-.1.158-.146.237l-.291.473c-.093.159-.163.331-.247.5a4.687,4.687,0,0,0-.228.507,8.212,8.212,0,0,0-.35,1.052c-.046.175-.1.351-.137.538l-.084.55-.042.273c-.012.091-.012.186-.018.277l-.03.556v6.065l-.019,9.724L2371.644,401l-.115,38.892-.21,38.892a9.51,9.51,0,0,0,8.519,9.5l.583.032c.195.011.387.026.594.023h1.215l2.431.011,19.445.068q19.455.053,38.892.012c25.928-.046,51.855-.312,77.783-.415,6.485-.018,12.97-.051,19.445-.047h7.6a2.162,2.162,0,0,0,.286-.012l.563-.028h.14a.978.978,0,0,0,.14-.021l.277-.042c.186-.032.372-.053.556-.089a9.465,9.465,0,0,0,4.005-1.953l.417-.379c.068-.065.142-.123.205-.191l.189-.209.38-.417.336-.45.176-.224c.052-.077.1-.159.147-.24l.294-.48c.093-.163.175-.337.25-.5a4.341,4.341,0,0,0,.23-.514,8.276,8.276,0,0,0,.35-1.067c.044-.175.1-.363.139-.547l.086-.556.044-.279c.012-.093.01-.188.018-.282l.03-.563c.009-.091.009-.191.009-.294v-.911l.016-4.86.049-9.724.128-19.445.312-38.892Q2557.7,385.338,2557.706,365.892Z" transform="translate(-1954.539 -292.876)" fill="#315ec5"/>
    <path id="Path_732" data-name="Path 732" d="M2561.779,369.917v12.62H2374.85v-12.62a9.917,9.917,0,0,1,9.917-9.917h167.095A9.917,9.917,0,0,1,2561.779,369.917Z" transform="translate(-1958.531 -296.901)" fill="#315ec5"/>
    <rect id="Rectangle_278" data-name="Rectangle 278" width="17.242" height="13.121" transform="translate(432.08 107)" fill="#ffc280" opacity="0.44"/>
    <rect id="Rectangle_279" data-name="Rectangle 279" width="17.242" height="13.121" transform="translate(452.013 107)" fill="#ffc280" opacity="0.44"/>
    <rect id="Rectangle_280" data-name="Rectangle 280" width="17.242" height="13.121" transform="translate(471.945 107)" fill="#ffc280" opacity="0.44"/>
    <rect id="Rectangle_281" data-name="Rectangle 281" width="17.242" height="13.121" transform="translate(491.877 107)" fill="#ffc280"/>
    <rect id="Rectangle_282" data-name="Rectangle 282" width="17.242" height="13.121" transform="translate(511.807 107)" fill="#ffc280"/>
    <rect id="Rectangle_283" data-name="Rectangle 283" width="17.242" height="13.121" transform="translate(531.74 107)" fill="#ffc280"/>
    <rect id="Rectangle_284" data-name="Rectangle 284" width="17.242" height="13.121" transform="translate(551.672 107)" fill="#ffc280"/>
    <rect id="Rectangle_285" data-name="Rectangle 285" width="17.242" height="13.121" transform="translate(571.602 107)" fill="#ffc280"/>
    <rect id="Rectangle_286" data-name="Rectangle 286" width="17.242" height="13.121" transform="translate(432.08 122.484)" fill="#dd8f79"/>
    <rect id="Rectangle_287" data-name="Rectangle 287" width="17.242" height="13.121" transform="translate(452.013 122.484)" fill="#ffc280"/>
    <rect id="Rectangle_288" data-name="Rectangle 288" width="17.242" height="13.121" transform="translate(471.945 122.484)" fill="#ffc280"/>
    <rect id="Rectangle_289" data-name="Rectangle 289" width="17.242" height="13.121" transform="translate(491.877 122.484)" fill="#ffc280"/>
    <rect id="Rectangle_290" data-name="Rectangle 290" width="17.242" height="13.121" transform="translate(511.807 122.484)" fill="#ffc280"/>
    <rect id="Rectangle_291" data-name="Rectangle 291" width="17.242" height="13.121" transform="translate(531.74 122.484)" fill="#ffc280"/>
    <rect id="Rectangle_292" data-name="Rectangle 292" width="17.242" height="13.121" transform="translate(551.672 122.484)" fill="#ffc280"/>
    <rect id="Rectangle_293" data-name="Rectangle 293" width="17.242" height="13.121" transform="translate(571.602 122.484)" fill="#ffc280"/>
    <rect id="Rectangle_294" data-name="Rectangle 294" width="17.242" height="13.121" transform="translate(432.08 137.967)" fill="#dd8f79"/>
    <rect id="Rectangle_295" data-name="Rectangle 295" width="17.242" height="13.121" transform="translate(452.013 137.967)" fill="#ffc280"/>
    <rect id="Rectangle_296" data-name="Rectangle 296" width="17.242" height="13.121" transform="translate(471.945 137.967)" fill="#fe677a"/>
    <rect id="Rectangle_297" data-name="Rectangle 297" width="17.242" height="13.121" transform="translate(491.877 137.967)" fill="#ffc280"/>
    <rect id="Rectangle_298" data-name="Rectangle 298" width="17.242" height="13.121" transform="translate(511.807 137.967)" fill="#ffc280"/>
    <rect id="Rectangle_299" data-name="Rectangle 299" width="17.242" height="13.121" transform="translate(531.74 137.967)" fill="#ffc280"/>
    <rect id="Rectangle_300" data-name="Rectangle 300" width="17.242" height="13.121" transform="translate(551.672 137.967)" fill="#ffc280"/>
    <rect id="Rectangle_301" data-name="Rectangle 301" width="17.242" height="13.121" transform="translate(571.602 137.967)" fill="#ffc280"/>
    <rect id="Rectangle_302" data-name="Rectangle 302" width="17.242" height="13.121" transform="translate(432.08 153.453)" fill="#dd8f79"/>
    <rect id="Rectangle_303" data-name="Rectangle 303" width="17.242" height="13.121" transform="translate(452.013 153.453)" fill="#ffc280"/>
    <rect id="Rectangle_304" data-name="Rectangle 304" width="17.242" height="13.121" transform="translate(471.945 153.453)" fill="#ffc280"/>
    <rect id="Rectangle_305" data-name="Rectangle 305" width="17.242" height="13.121" transform="translate(491.877 153.453)" fill="#ffc280"/>
    <rect id="Rectangle_306" data-name="Rectangle 306" width="17.242" height="13.121" transform="translate(511.807 153.453)" fill="#ffc280"/>
    <rect id="Rectangle_307" data-name="Rectangle 307" width="17.242" height="13.121" transform="translate(531.74 153.453)" fill="#ffc280"/>
    <rect id="Rectangle_308" data-name="Rectangle 308" width="17.242" height="13.121" transform="translate(551.672 153.453)" fill="#ffc280"/>
    <rect id="Rectangle_309" data-name="Rectangle 309" width="17.242" height="13.121" transform="translate(571.602 153.453)" fill="#ffc280"/>
    <rect id="Rectangle_310" data-name="Rectangle 310" width="17.242" height="13.121" transform="translate(432.08 168.937)" fill="#dd8f79"/>
    <rect id="Rectangle_311" data-name="Rectangle 311" width="17.242" height="13.121" transform="translate(452.013 168.937)" fill="#ffc280"/>
    <rect id="Rectangle_312" data-name="Rectangle 312" width="17.242" height="13.121" transform="translate(471.945 168.937)" fill="#ffc280"/>
    <rect id="Rectangle_313" data-name="Rectangle 313" width="17.242" height="13.121" transform="translate(491.877 168.937)" fill="#ffc280"/>
    <rect id="Rectangle_314" data-name="Rectangle 314" width="17.242" height="13.121" transform="translate(511.807 168.937)" fill="#ffc280"/>
    <rect id="Rectangle_315" data-name="Rectangle 315" width="17.242" height="13.121" transform="translate(531.74 168.937)" fill="#ffc280"/>
    <rect id="Rectangle_316" data-name="Rectangle 316" width="17.242" height="13.121" transform="translate(551.672 168.937)" fill="#ffc280" opacity="0.44"/>
    <rect id="Rectangle_317" data-name="Rectangle 317" width="17.242" height="13.121" transform="translate(571.602 168.937)" fill="#ffc280" opacity="0.44"/>
    <rect id="Rectangle_318" data-name="Rectangle 318" width="14.422" height="5.258" rx="2.629" transform="translate(433.491 93.116)" fill="#452964"/>
    <rect id="Rectangle_319" data-name="Rectangle 319" width="14.422" height="5.258" rx="2.629" transform="translate(453.422 93.116)" fill="#452964"/>
    <rect id="Rectangle_320" data-name="Rectangle 320" width="14.422" height="5.258" rx="2.629" transform="translate(473.354 93.116)" fill="#452964"/>
    <rect id="Rectangle_321" data-name="Rectangle 321" width="14.422" height="5.258" rx="2.629" transform="translate(493.286 93.116)" fill="#452964"/>
    <rect id="Rectangle_322" data-name="Rectangle 322" width="14.422" height="5.258" rx="2.629" transform="translate(513.218 93.116)" fill="#452964"/>
    <rect id="Rectangle_323" data-name="Rectangle 323" width="14.422" height="5.258" rx="2.629" transform="translate(533.149 93.116)" fill="#452964"/>
    <rect id="Rectangle_324" data-name="Rectangle 324" width="14.422" height="5.258" rx="2.629" transform="translate(553.081 93.116)" fill="#452964"/>
    <rect id="Rectangle_325" data-name="Rectangle 325" width="14.422" height="5.258" rx="2.629" transform="translate(573.013 93.116)" fill="#452964"/>
    <path id="Path_733" data-name="Path 733" d="M2649.247,420.3c1.525.133,3.016.28,4.548.293l4.382.037c3.032.025,6.064.074,9.1.068l17.845-.035c11.959-.023,23.909-.023,35.865.175,3.383.056,6.766.138,10.146.159l4.9.028a18.21,18.21,0,0,0,5.242-.28,1.306,1.306,0,0,0,0-2.5,15.579,15.579,0,0,0-4.543-.286l-4.382.026c-3.032.018-6.065.077-9.1.128-5.949.1-11.9.245-17.845.24q-17.934-.016-35.865-.049c-6.747-.014-13.577-.191-20.3.393a.8.8,0,1,0,0,1.591Z" transform="translate(-2184.175 -344.684)" fill="#fff"/>
    <path id="Path_734" data-name="Path 734" d="M2867.34,531.88v92.682a9.917,9.917,0,0,1-9.915,9.915H2745.35Z" transform="translate(-2264.092 -438.655)" fill="#fff" opacity="0.37"/>
    <g id="Group_298" data-name="Group 298" transform="translate(473.703 109.867)" opacity="0.37">
      <path id="Path_735" data-name="Path 735" d="M2705.133,689.447c4.435-3.825,8.958-7.537,13.335-11.423l12.846-11.416q12.835-11.41,25.513-23.008c2.414-2.208,4.843-4.4,7.186-6.676,1.171-1.141,2.35-2.27,3.527-3.406a15.307,15.307,0,0,0,2.878-4.151c.58-1.136-.419-3.02-1.865-2.428a16.062,16.062,0,0,0-4.031,2.084c-1.176.961-2.3,2-3.441,3-2.2,1.928-4.369,3.875-6.52,5.858q-6.31,5.819-12.563,11.7-12.665,11.843-25.24,23.776c-4.745,4.5-9.325,9.156-14,13.728-1.56,1.525.753,3.761,2.368,2.368Z" transform="translate(-2702.239 -626.828)" fill="#fff"/>
    </g>
    <g id="Group_299" data-name="Group 299" transform="translate(467.074 87.642)" opacity="0.37">
      <path id="Path_736" data-name="Path 736" d="M2667.013,540.1c5.744-4.722,11.543-9.358,17.208-14.18s11.24-9.7,16.73-14.7a44.628,44.628,0,0,0,4.459-4.184c1.337-1.616,3.362-3.12,4.052-5.144a1.486,1.486,0,0,0-1.816-1.816c-1.819.5-3.13,2.147-4.629,3.213a44.155,44.155,0,0,0-4.308,3.77c-2.694,2.506-5.433,4.973-8.115,7.484q-8.124,7.589-16.392,15.023c-3.108,2.8-6.172,5.64-9.34,8.385a1.536,1.536,0,0,0,0,2.151,1.553,1.553,0,0,0,2.151,0Z" transform="translate(-2664.423 -500.029)" fill="#fff"/>
    </g>
    <g id="Group_300" data-name="Group 300" transform="translate(422.714 65.271)" opacity="0.37">
      <path id="Path_737" data-name="Path 737" d="M2413.311,419.869q18.118-18.215,37.379-35.255,2.7-2.385,5.416-4.741a69.893,69.893,0,0,0,5.434-4.953c1.083-1.155-.34-3.246-1.763-2.279a99.488,99.488,0,0,0-10.026,8.441q-4.746,4.229-9.414,8.55c-6.31,5.835-12.445,11.856-18.472,17.967q-5.178,5.239-10.207,10.622c-1.025,1.1.587,2.722,1.653,1.653Z" transform="translate(-2411.33 -372.392)" fill="#fff"/>
    </g>
    <path id="Path_738" data-name="Path 738" d="M1147.711,2285.422s-35.358,3.758-35.8,17.238,36.282,28.2,75.38,26.466,52.13-2.829,67.819,11.535,34.7,31.6,83.092,19.005,54.635-18.12,88.53-16.353,75.885-4.418,73.675-23.645-103.423-24.75-148.724-26.077-168.393-13.7-169.056-13.7S1147.711,2285.422,1147.711,2285.422Z" transform="translate(-916.95 -1880.283)" fill="#ffe8d4"/>
    <path id="Path_739" data-name="Path 739" d="M919.878,2006.674s-15.088-51.5-57.245-54.065c-24.654-1.5-22.745,26.78,7.256,27.814s42.255,22.819,46.651,38.778C918.6,2026.7,919.878,2006.674,919.878,2006.674Z" transform="translate(-697.336 -1610.319)" fill="#fff" stroke="#315ec5" stroke-miterlimit="10" stroke-width="8.31"/>
    <path id="Path_740" data-name="Path 740" d="M1148,1778.178a254.891,254.891,0,0,0-10.965-57.725c-9.724-31.034-22.553-57.106-1.655-61.658s23.38,31.69,24.828,48.122-2.279,71.261-2.279,71.261Z" transform="translate(-927.029 -1367.727)" fill="#1c35ab"/>
    <path id="Path_741" data-name="Path 741" d="M2101.771,2544.536c-7.609-.757-11.607-3.362-12.464-8.655h0c-.012-.074-.024-.149-.035-.226a14.926,14.926,0,0,1-.142-2.056c0-2.673,2.9-5.2,6.9-7.607h0q.619-.37,1.265-.736c6.135-3.472,14.183-6.683,18.462-9.691,7.516-5.285,10.49-9.595,10.49-9.595,8.389,7.306,14.4,7.293,14.4,7.293-1.024.757-2.279,4.422-3.1,8.029-.287,1.255-.526,2.5-.685,3.618a9.461,9.461,0,0,0-.06,3.837c.8,1.84-22.085,14.32-32.54,15.706A11.028,11.028,0,0,1,2101.771,2544.536Z" transform="translate(-1722.89 -2066.737)"/>
    <path id="Path_742" data-name="Path 742" d="M2101.771,2638.744c-7.609-.757-11.607-3.362-12.464-8.655h0c-.012-.073-.024-.149-.035-.226a14.932,14.932,0,0,1-.142-2.056c0-2.673,2.9-5.2,6.9-7.607h0s9.782,3.036,9.679,12.146a16.729,16.729,0,0,1-1.446,6.31A11.043,11.043,0,0,1,2101.771,2638.744Z" transform="translate(-1722.89 -2160.946)" fill="#fff" stroke="#000" stroke-miterlimit="10" stroke-width="3.11"/>
    <path id="Path_743" data-name="Path 743" d="M2102.6,2633.631c-7.609-.757-11.607-3.362-12.464-8.655.229,1.108,1.9,5.768,13.614,2.994.9-.212,1.83-.459,2.792-.741,11.5-3.353,27.154-11.186,31.153-13.228a9.457,9.457,0,0,0-.06,3.837c.8,1.84-22.085,14.32-32.54,15.706A11.045,11.045,0,0,1,2102.6,2633.631Z" transform="translate(-1723.723 -2155.833)" fill="#fff" stroke="#000" stroke-miterlimit="10" stroke-width="3.11"/>
    <path id="Path_744" data-name="Path 744" d="M2174.953,2590.012a8.017,8.017,0,0,1,3.115,2.585,3.129,3.129,0,0,1,.484,1.7,1.126,1.126,0,0,0,2.21.3,4.282,4.282,0,0,0-1.72-4.089c-1.157-.994-2.343-1.809-3.947-1.567a.593.593,0,0,0-.142,1.074Z" transform="translate(-1793.438 -2135.127)" fill="#fcf4e7"/>
    <path id="Path_745" data-name="Path 745" d="M2207.255,2573.248a5.839,5.839,0,0,1,2.89,2.212,3.668,3.668,0,0,1,.841,1.577,15.278,15.278,0,0,0,.175,1.805.785.785,0,0,0,1.139.463c1.9-1.127.543-4.031-.55-5.246-1.01-1.115-3.263-2.994-4.7-1.6a.482.482,0,0,0,.21.8Z" transform="translate(-1820.025 -2121.164)" fill="#fcf4e7"/>
    <path id="Path_746" data-name="Path 746" d="M2238.827,2555.438a3.7,3.7,0,0,1,3.176,2.389,5.059,5.059,0,0,1,.466,2.044c0,.7-.218,1.39.158,2.021a.877.877,0,0,0,1.18.309c.955-.526.967-1.907.866-2.866a6.834,6.834,0,0,0-1.085-3.059c-1.1-1.656-3.1-2.869-5.071-1.982C2237.946,2554.551,2238.252,2555.447,2238.827,2555.438Z" transform="translate(-1845.842 -2106.344)" fill="#fcf4e7"/>
    <path id="Path_747" data-name="Path 747" d="M2267.816,2534.823c1.826-.187,3.034,1.346,4.119,2.584a2.793,2.793,0,0,1,.908,1.98c-.03.671-.3,1.264-.366,1.928a.661.661,0,0,0,.831.635,2.58,2.58,0,0,0,1.586-2.436,4.383,4.383,0,0,0-1.166-3.036c-1.463-1.742-3.656-3.421-6.051-2.675-.525.167-.471,1.085.139,1.022Z" transform="translate(-1869.846 -2089.541)" fill="#fcf4e7"/>
    <path id="Path_748" data-name="Path 748" d="M1435.782,1735.8v97.766l-57.332,20.391V1748.632Z" transform="translate(-1136.774 -1431.558)" fill="#1c35ab"/>
    <path id="Path_749" data-name="Path 749" d="M1301.53,1902.5V1800.07l12.755,2.182v103.755Z" transform="translate(-1073.336 -1484.563)" fill="#fff"/>
    <path id="Path_750" data-name="Path 750" d="M1298.835,1796.86l11.3,1.928v102.185l-11.3-3.111v-101m-1.455-1.727v103.845l14.211,3.912V1797.561l-14.211-2.431Z" transform="translate(-1069.913 -1480.489)" fill="#315ec5"/>
    <path id="Path_751" data-name="Path 751" d="M1318.84,1740.828l51.119-11.428,12.25,1.364-52.938,11.849Z" transform="translate(-1087.612 -1426.28)" fill="#fff"/>
    <path id="Path_752" data-name="Path 752" d="M1352.276,1726.724l7.8.876-48.551,10.867-6.65-1.138,47.4-10.6m-.081-1.474-54.84,12.259,14.211,2.431,57.331-12.832Z" transform="translate(-1069.889 -1422.866)" fill="#315ec5"/>
    <path id="Path_753" data-name="Path 753" d="M1646.567,1954.235l-8.794,26.332-107.258-9.319-147.823-12.841-4.233-11.466,57.331-11.75,98.459,8.9Z" transform="translate(-1136.782 -1596)" fill="#fff" stroke="#315ec5" stroke-miterlimit="10" stroke-width="8.31"/>
    <path id="Path_754" data-name="Path 754" d="M1637.774,2025.727v19.007l-100.1-9.868-159.209-15.694V2002.23l144.594,13.1Z" transform="translate(-1136.782 -1651.29)" fill="#315ec5"/>
    <path id="Path_755" data-name="Path 755" d="M2297.649,1996.095l-8.793,26.332v8.878l-96.354-9.5c-.731-.072-1.909-1.651-2.524-2.126-6.748-5.211-13.889-10.225-20.088-16.092-.4-.379-1.888-1.423-1.972-1.954-.131-.831,2.468-2.406,3.1-2.934q3.4-2.836,6.715-5.766,1.937-1.711,3.844-3.458c.556-.51,3.12-3.584,3.754-3.528Z" transform="translate(-1787.864 -1637.86)" fill="#011b7a" opacity="0.43"/>
    <path id="Path_756" data-name="Path 756" d="M2252.282,1837.147c-3.236,5.022-10.983,7.311-19.226,9.542-11.838,3.2-24.695,6.282-26.675,17.165h0q-.116.615-.175,1.267c-.447,4.517-2.477,10.2-5.348,16.288-9.8,20.765-29.376,46.248-29.376,46.248-12.013-2.468-26.659-13-26.659-13,2.217-9.242,15.6-39.889,22.183-54.7,2.177-4.9,3.609-8.063,3.653-8.161h0s-37.029-23.532-45.922-36.038-8.394-20.079,3.619-25.345c9.9-4.342,43.189,3.286,54.57,6.1h0c2.424.6,3.856.978,3.856.978s32.089,2.14,38.015,5.1S2260.346,1824.638,2252.282,1837.147Z" transform="translate(-1747.219 -1475.517)" fill="#452964"/>
    <path id="Path_757" data-name="Path 757" d="M2554.841,1871.991c-3.236,5.022-10.983,7.311-19.226,9.542-.058-12.129-12.479-35.339-23.447-39.309-11.284-4.084-9.4-.526-15.045,2.717-4.173,2.4-9.265-8.008-11.633-13.591,2.424.6,3.856.978,3.856.978s32.089,2.14,38.015,5.1S2562.905,1859.482,2554.841,1871.991Z" transform="translate(-2049.778 -1510.361)" fill="#180530"/>
    <path id="Path_758" data-name="Path 758" d="M2968.942,1770.32v113.347l-44.784,26.011s-7.248-67.64-7.248-88.266,2.2-36.569,6.105-38.985S2968.942,1770.32,2968.942,1770.32Z" transform="translate(-2405.581 -1460.028)" fill="#1c35ab"/>
    <path id="Path_759" data-name="Path 759" d="M2862.082,1778.206l0-2.249,39.843-11.577,18.365,1.493-41.426,14.77Z" transform="translate(-2360.361 -1455.129)" fill="#fff"/>
    <path id="Path_760" data-name="Path 760" d="M2898.577,1761.627l14.856,1.208-38.066,13.573-15.98-2.321v-1.073l39.19-11.393m-.149-1.472-40.5,11.766v3.427l17.585,2.554,44.784-15.969-21.869-1.772Z" transform="translate(-2356.939 -1451.64)" fill="#315ec5"/>
    <path id="Path_761" data-name="Path 761" d="M2862.09,1973.04V1851.66l16.127,2.342v121.891Z" transform="translate(-2360.37 -1527.111)" fill="#fff"/>
    <path id="Path_762" data-name="Path 762" d="M2859.386,1848.518l14.672,2.13v120.394l-14.672-2.6V1848.518m-1.456-1.683v122.831l17.585,3.111V1849.384l-17.585-2.554Z" transform="translate(-2356.939 -1523.128)" fill="#315ec5"/>
    <path id="Path_763" data-name="Path 763" d="M2674.286,1234.155c-6.031,5.914-13.8,0-13.8,0a26.465,26.465,0,0,0,0-9.393,20.986,20.986,0,0,0-1.7-5.2,24.148,24.148,0,0,0-2.475-4.191l11.133-17.859a36.83,36.83,0,0,0,1.793,10.944q.242.82.526,1.695c2.55,7.77,9.971,13.8,9.971,13.8S2680.316,1228.241,2674.286,1234.155Z" transform="translate(-2190.658 -987.617)" fill="#fdbfa6"/>
    <path id="Path_764" data-name="Path 764" d="M2669.236,1208.5a18.955,18.955,0,0,1-3.3,6.45c-2.647,3.209-5.213,4.342-7.151,4.655a24.15,24.15,0,0,0-2.475-4.191l11.134-17.859A36.86,36.86,0,0,0,2669.236,1208.5Z" transform="translate(-2190.657 -987.658)" fill="#b8697c"/>
    <path id="Path_765" data-name="Path 765" d="M2536.791,1101.075c-5.1,8-12.407,12.988-22.5,9.973s-13.45-16-14.372-22.73a26.43,26.43,0,0,1,.175-7.63,29.994,29.994,0,0,1,1.441-5.591c2.894-5.458,10.825-7.186,18.882-6.66,9.056.592,18.269,4.049,20.663,8.282C2545.6,1084.722,2541.893,1093.074,2536.791,1101.075Z" transform="translate(-2061.513 -881.094)" fill="#fdbfa6"/>
    <path id="Path_766" data-name="Path 766" d="M2536.436,1086.892c-1.283-2.08-5.269-2.454-8.107-5.015s-8.848-1.62-16.413-.27c-5.483.98-8.7-.2-10.047-.918a30,30,0,0,1,1.441-5.591c2.894-5.458,10.825-7.186,18.882-6.66a35.927,35.927,0,0,1,3.84,1.821c7.7,4.254,12.362,14.723,12.532,16.632S2537.721,1088.969,2536.436,1086.892Z" transform="translate(-2063.287 -881.094)" fill="#b8697c" opacity="0.41"/>
    <path id="Path_767" data-name="Path 767" d="M2594.036,1394.7c-3.33,19.28-6.625,35.814-7.661,36.9-2.552,2.668-27.6-10.089-39.894-11.945,0,0,9.046-30.147,8.468-42.094-.24-4.936.727-11.612,2.061-18,1.893-9.077,4.524-17.577,5.476-19.687,1.623-3.595,7.588-6.513,7.758-5.535a7.708,7.708,0,0,1,.086,1.076,3.072,3.072,0,0,0,2.242,2.855,9.469,9.469,0,0,0,7.309-1.069c5.682-3.125,6.135-7.737,6.135-9.374s1.753-.13,3.835.915a52.838,52.838,0,0,0,12.059,3.595C2603.841,1332.539,2598.9,1366.544,2594.036,1394.7Z" transform="translate(-2100.078 -1094.494)" fill="#fcf4e7"/>
    <path id="Path_768" data-name="Path 768" d="M2594.036,1472.614c-3.33,19.28-6.625,35.814-7.661,36.9-2.552,2.668-27.6-10.089-39.894-11.945,0,0,9.046-30.147,8.468-42.094-.24-4.936.727-11.612,2.061-18l5.041-15.9s2.656,45.114,26.182,49.385A30.625,30.625,0,0,1,2594.036,1472.614Z" transform="translate(-2100.078 -1172.405)" fill="#e5ddec"/>
    <path id="Path_769" data-name="Path 769" d="M2476.558,1002.995a11,11,0,0,1-8-2.2c-3.479-2.9-9.742-1.972-7.654,3.944s4.319,6.145,4.319,6.145-5.826-3.532-7.1.438,3.015,10.692,12.988,7.912c0,0-2.9,4.291,6.263,3.364a76.3,76.3,0,0,0,13.917-2.436s1.043,5.1,5.449,6.263,4.522,5.334,5.451,3.711-1.276-6.494,3.131-6.61,1.956,10.928,1.956,10.928l-2.8,5.986,1.653,6.163s1.276,1.74,3.479-.927c0,0-3.579-2.2-.978-8.238s5.385-17.045-2.732-27.367S2487.343,999.284,2476.558,1002.995Z" transform="translate(-2027.024 -824.066)" fill="#541d10"/>
    <path id="Path_770" data-name="Path 770" d="M2484.017,1368.49s-2.6,22.412-3.528,31.641-3.76,48.514-15.722,60.245c0,0-8.534-6.855-9.193-11.072,0,0,4.087-1.052,6.461-6.855,0,0-13.051,0-14.634-10.152,0,0,12.127-7.25,12.26-12.657.053-2.182,1.825-8.545,4.181-15.719,3.478-10.6,8.226-22.961,10.584-26.244C2478.38,1372.181,2484.138,1367.468,2484.017,1368.49Z" transform="translate(-2018.365 -1128.513)" fill="#f4b16e"/>
    <path id="Path_771" data-name="Path 771" d="M2465.089,1584.112a68.118,68.118,0,0,1-3.055,12.725s-13.051,0-14.634-10.152c0,0,12.127-7.249,12.26-12.657.053-2.182,1.825-8.545,4.181-15.719a9.5,9.5,0,0,1,2.592-2.736C2468.4,1554.722,2466.312,1576.16,2465.089,1584.112Z" transform="translate(-2018.364 -1282.901)" fill="#dd8f79" opacity="0.49"/>
    <path id="Path_772" data-name="Path 772" d="M2407.19,1638.816l3.234-2.641,6.96-1.854,16.862,14.919.785,3.926Z" transform="translate(-1985.202 -1347.865)" fill="#db3a55"/>
    <path id="Path_773" data-name="Path 773" d="M2407.19,1649.859l19.131,17.347,8.709-3-18.5-16.5Z" transform="translate(-1985.202 -1358.908)" fill="#fe677a"/>
    <path id="Path_774" data-name="Path 774" d="M2439.26,1698.759a1.277,1.277,0,0,0-.864-1.038,1.547,1.547,0,0,0-1.1.161,2.359,2.359,0,0,0-.063-.85,1.737,1.737,0,0,0-1.262-1.353,2.5,2.5,0,0,0-1.443.137,1.5,1.5,0,0,0,.237-.526,1.8,1.8,0,0,0-.074-.918,2.026,2.026,0,0,0-1.634-1.353,4.112,4.112,0,0,0-2.469.38,2.754,2.754,0,0,0,1.124-1.4,1.815,1.815,0,0,0-.072-.918,2.028,2.028,0,0,0-1.635-1.353,4.194,4.194,0,0,0-3.549,1.122c-2.214,2.007.622,3.667,1.9,3.528a4.317,4.317,0,0,0,1.474-.5c-.107.082-.216.175-.323.268-2.214,2.005.622,3.665,1.9,3.526a4.442,4.442,0,0,0,1.578-.552,2.065,2.065,0,0,0,1.71,3.206,3.14,3.14,0,0,0,1.39-.682,1.571,1.571,0,0,0,1.436,1.635,2.641,2.641,0,0,0,1.774-1.821A1.949,1.949,0,0,0,2439.26,1698.759Z" transform="translate(-2000.416 -1393.518)" fill="#fdbfa6" stroke="#b8697c" stroke-miterlimit="10" stroke-width="1.04"/>
    <path id="Path_775" data-name="Path 775" d="M2446.993,1710.139l.743-.45c.112-.067.227-.132.333-.205s.254-.175.273-.3a.131.131,0,0,0-.047-.136.132.132,0,0,0-.144-.011.67.67,0,0,0-.137.118c-.04.033-.081.065-.123.094-.107.077-.219.149-.328.223l-.692.465C2446.746,1710.018,2446.86,1710.219,2446.993,1710.139Z" transform="translate(-2017.884 -1409.469)" fill="#b8697c"/>
    <path id="Path_776" data-name="Path 776" d="M2466.577,1724.994a12.077,12.077,0,0,0,1-.743,5.371,5.371,0,0,0,.419-.351,1.191,1.191,0,0,0,.334-.452.151.151,0,0,0-.249-.146c-.058.06-.1.13-.155.193a2.4,2.4,0,0,1-.175.195c-.13.123-.265.238-.4.35-.3.258-.614.5-.892.785a.105.105,0,0,0,.126.165Z" transform="translate(-2034.057 -1421.219)" fill="#b8697c"/>
    <path id="Path_777" data-name="Path 777" d="M2485.33,1736.942a5.854,5.854,0,0,0,.764-.876,3.913,3.913,0,0,0,.247-.461c.04-.082.079-.167.123-.247s.1-.158.137-.24a.175.175,0,0,0-.042-.212.163.163,0,0,0-.215.012,2.077,2.077,0,0,0-.265.477,5.21,5.21,0,0,1-.242.48,3.943,3.943,0,0,1-.31.438c-.126.161-.235.338-.351.508-.063.093.077.2.154.117Z" transform="translate(-2049.505 -1430.792)" fill="#b8697c"/>
    <path id="Path_778" data-name="Path 778" d="M2512.9,1675.528c-.077.235-9.609-3.281-11.64-3.358-1.807-.068-7.262.109-10.974-1.227a9.642,9.642,0,0,1-1.288-.57c-3.595-1.953-3.127-3.828-4.845-5.39s-5-3.905-3.593-4.219a47.664,47.664,0,0,1,6.106-.018c2.433.065,4.908.128,6.108.018,2.529-.235,2.484-1.516,2.484-1.516-1.484-3.593.053-5.681,1.3-6.7s.715,1.884,2.594,5.244a56.034,56.034,0,0,1,2.887,6.17c.783,1.639,9.53,1.953,9.53,1.953C2512.2,1669.514,2512.983,1675.294,2512.9,1675.528Z" transform="translate(-2045.434 -1362.732)" fill="#fdbfa6"/>
    <path id="Path_779" data-name="Path 779" d="M2701.9,1425.066c-4.133,6.427-15.151,5.509-15.151,5.509v28.92s-20.313-6.427-21.806-9.067,2.641-23.3,2.641-23.3-4.247-.917-8.721-1.378-4.019-4.361-4.019-4.361a23.658,23.658,0,0,1-4.475-.575c.689-1.376,1.041-11.589,1.041-11.589s4.009,1.49,5.731-.461,12.97.461,12.97.461,5.166-30.873,6.542-40.513,5.625-26.168,5.625-26.168c-1-1.379,7.756,2.536,15.775,7.728,8.636,5.591,13.032,12.243,13.261,29S2706.032,1418.64,2701.9,1425.066Z" transform="translate(-2185.759 -1107.002)" fill="#ffc280"/>
    <path id="Path_780" data-name="Path 780" d="M2282.019,1842.156a.8.8,0,0,0-.051,1.6c4.878.612,12.373,2.121,18.7,5.838,10.367,6.089,23.862,17.608,23.862,17.608s6.418-5.759,4.938-8.227C2328.149,1856.767,2298.261,1841.067,2282.019,1842.156Z" transform="translate(-1881.347 -1519.228)" fill="#180530"/>
    <path id="Path_781" data-name="Path 781" d="M2434.005,2128.495h0c-.077.41-.135.832-.175,1.267-.447,4.517-2.477,10.2-5.348,16.288a54,54,0,0,0-7.233-14.087c-6.519-9.29-19.377-8.637-26.619-7.362,2.177-4.9,3.609-8.063,3.653-8.161h0s2.938,2.023,4.438,2.98c0,0,7.837-3.97,12.459-8.808C2419.594,2105.979,2434.005,2128.495,2434.005,2128.495Z" transform="translate(-1974.843 -1740.158)" fill="#180530" opacity="0.35"/>
    <path id="Path_782" data-name="Path 782" d="M2763,1580.512s12.917,1.432,15.992,1.939,5.48-10.148,6.953-19.126.175-15.263-.852-12.856-2.187,26.735-6.636,29.026-15.1-1.127-15.1-1.127Z" transform="translate(-2278.647 -1278.284)" fill="#dd8f79"/>
    <path id="Path_783" data-name="Path 783" d="M2820.259,1373.4l-1.478,6.049-.7,2.857a12.67,12.67,0,0,0-.631,2.99.421.421,0,0,0,.778.21,11.884,11.884,0,0,0,.778-2.766l.735-3.027,1.469-6.051c.151-.619-.8-.876-.953-.263Z" transform="translate(-2323.553 -1132.389)" fill="#dd8f79"/>
    <path id="Path_784" data-name="Path 784" d="M2895.356,1446.369a18.182,18.182,0,0,1,2.279-7.482,33.229,33.229,0,0,1,2.019-3.09,14.145,14.145,0,0,0,2.044-3.008.46.46,0,0,0-.664-.512,10.581,10.581,0,0,0-2.6,2.98,25.2,25.2,0,0,0-2.039,3.433,15.03,15.03,0,0,0-1.77,7.674.368.368,0,0,0,.734,0Z" transform="translate(-2387.177 -1181.189)" fill="#dd8f79"/>
    <path id="Path_785" data-name="Path 785" d="M2490.29,1710.077a9.642,9.642,0,0,1-1.288-.57c-3.595-1.953-3.127-3.828-4.845-5.39s-5-3.905-3.593-4.219a47.664,47.664,0,0,1,6.106-.018A68.915,68.915,0,0,0,2490.29,1710.077Z" transform="translate(-2045.434 -1401.868)" fill="#b8697c" opacity="0.34"/>
    <path id="Path_786" data-name="Path 786" d="M2719.808,1155.589a4.8,4.8,0,0,0-.312,3.057,1.469,1.469,0,0,0,1.8,1.024,1.5,1.5,0,0,0,1.022-1.8,7.154,7.154,0,0,0-.757-2.278,1.025,1.025,0,0,0-1.753,0Z" transform="translate(-2242.684 -952.637)" fill="#b8697c"/>
    <path id="Path_787" data-name="Path 787" d="M2687,1006.271c1.707.123,3.358-1.257,4.313-2.533,1.029-1.372,2.177-4.089.482-5.353a1.052,1.052,0,0,0-1.1,0c-1.162.817-1.031,2.629-1.735,3.8-.661,1.1-1.725,1.646-2.608,2.513a.936.936,0,0,0,.65,1.578Z" transform="translate(-2215.205 -823.265)" fill="#541d10"/>
    <path id="Path_788" data-name="Path 788" d="M2705.589,1039.235a3.924,3.924,0,0,0,2.789.394,1.789,1.789,0,0,0,1.457-1.832.7.7,0,0,0-.876-.664,4.862,4.862,0,0,1-2.65.386c-.981-.223-1.739,1.257-.724,1.716Z" transform="translate(-2230.898 -855.328)" fill="#541d10"/>
    <path id="Path_789" data-name="Path 789" d="M2672.65,1756.987a18.848,18.848,0,0,0,.661-3.709c.123-1.071.319-2.51-.351-3.443a.391.391,0,0,0-.7.093,17.451,17.451,0,0,0-.195,3.35,22.989,22.989,0,0,0-.175,3.607.386.386,0,0,0,.755.1Z" transform="translate(-2203.484 -1442.986)" fill="#dd8f79"/>
    <path id="Path_790" data-name="Path 790" d="M2753.8,1829.884v28.92s-20.312-6.427-21.806-9.067,2.641-23.3,2.641-23.3Z" transform="translate(-2252.804 -1506.311)" fill="#dd8f79" opacity="0.49"/>
    <path id="Path_791" data-name="Path 791" d="M2850.778,1730.309a30.261,30.261,0,0,1,2.906.894c.717.326,1.469,1.227,2.279,1.134a.755.755,0,0,0,.726-.726c.125-1.083-1.325-1.753-2.159-2.067a7.44,7.44,0,0,0-3.588-.459.628.628,0,0,0-.165,1.227Z" transform="translate(-2350.67 -1425.978)" fill="#dd8f79"/>
    <path id="Path_792" data-name="Path 792" d="M2725.873,1352.735a13.845,13.845,0,0,0,7.09-3.772,12.308,12.308,0,0,0,2.279-3.034c.437-.834,1.4-2.556.741-3.437a.6.6,0,0,0-.817-.214c-.8.575-.762,1.9-1.148,2.776a10.518,10.518,0,0,1-2.005,2.955,15.4,15.4,0,0,1-6.367,3.886.436.436,0,0,0,.231.84Z" transform="translate(-2247.599 -1106.937)" fill="#e5ddec"/>
    <path id="Path_793" data-name="Path 793" d="M2548.158,2076.8c-1.418,7.512-4.363,11.267-9.712,11.657h0c-.073,0-.151.012-.226.016a15.192,15.192,0,0,1-2.063-.039c-2.662-.226-4.929-3.346-6.974-7.537h0c-.21-.431-.419-.876-.624-1.325-2.922-6.414-5.418-14.713-8.04-19.238-4.608-7.949-8.639-11.289-8.639-11.289,8.01-7.712,8.524-13.707,8.524-13.707.664,1.087,4.207,2.648,7.728,3.79,1.227.4,2.454.741,3.542,1a9.47,9.47,0,0,0,3.817.394c1.9-.635,12.334,23.254,12.795,33.788A11.062,11.062,0,0,1,2548.158,2076.8Z" transform="translate(-2071.542 -1678.597)"/>
    <path id="Path_794" data-name="Path 794" d="M2629.575,2250.483c-1.418,7.512-4.363,11.267-9.712,11.657h0c-.074,0-.151.012-.226.016a15.274,15.274,0,0,1-2.063-.038c-2.662-.226-4.929-3.346-6.974-7.537h0s3.877-9.479,12.946-8.588a16.694,16.694,0,0,1,6.165,1.993A11.086,11.086,0,0,1,2629.575,2250.483Z" transform="translate(-2152.959 -1852.278)" fill="#fff" stroke="#000" stroke-miterlimit="10" stroke-width="3.11"/>
    <path id="Path_795" data-name="Path 795" d="M2641.278,2099.308c-1.418,7.512-4.363,11.267-9.712,11.657,1.124-.13,5.914-1.385,4.173-13.3-.133-.909-.3-1.861-.494-2.846-2.335-11.743-8.764-28.026-10.455-32.189a9.472,9.472,0,0,0,3.817.395c1.9-.635,12.334,23.254,12.8,33.788A11.052,11.052,0,0,1,2641.278,2099.308Z" transform="translate(-2164.662 -1701.104)" fill="#fff" stroke="#000" stroke-miterlimit="10" stroke-width="3.11"/>
    <path id="Path_796" data-name="Path 796" d="M2584.918,2219.259a7.939,7.939,0,0,1,2.9-2.878,3.549,3.549,0,0,1,1.753-.284,1.125,1.125,0,0,0,.3-2.21c-1.467-.5-3.063.35-4.1,1.353-1.074,1.038-2.043,2.156-1.945,3.723a.594.594,0,0,0,1.1.3Z" transform="translate(-2130.874 -1825.727)" fill="#fcf4e7"/>
    <path id="Path_797" data-name="Path 797" d="M2571.226,2185.115a5.883,5.883,0,0,1,2.524-2.7,3.587,3.587,0,0,1,1.635-.661,13.136,13.136,0,0,0,1.8-.02.782.782,0,0,0,.464-1.141c-.96-1.982-4.075-.771-5.314.214-1.206.959-3.179,2.936-1.909,4.515A.482.482,0,0,0,2571.226,2185.115Z" transform="translate(-2119.489 -1797.517)" fill="#fcf4e7"/>
    <path id="Path_798" data-name="Path 798" d="M2556.236,2151.489a3.668,3.668,0,0,1,2.533-2.857,5.192,5.192,0,0,1,1.928-.35c.7.012,1.481.366,2.156.084a.885.885,0,0,0,.515-1.265c-.473-.955-1.86-1.074-2.813-1.052a6.952,6.952,0,0,0-3.131.846c-1.649.89-3.076,2.8-2.4,4.748a.619.619,0,0,0,1.208-.163Z" transform="translate(-2106.984 -1769.899)" fill="#fcf4e7"/>
    <path id="Path_799" data-name="Path 799" d="M2538.29,2115.756c-.026-1.784,1.614-2.9,2.918-3.828a2.908,2.908,0,0,1,2.031-.746c.643.066,1.178.41,1.8.526a.666.666,0,0,0,.808-.808,2.6,2.6,0,0,0-2.365-1.742,4.4,4.4,0,0,0-3.146.985c-1.835,1.371-3.613,3.285-3.073,5.752A.522.522,0,0,0,2538.29,2115.756Z" transform="translate(-2092.399 -1739.457)" fill="#fcf4e7"/>
    <path id="Path_800" data-name="Path 800" d="M2523.056,1976.618c1.094,1.276,2.292,2.454,3.4,3.721.57.652,1.117,1.325,1.632,2.021a11.493,11.493,0,0,0,1.453,1.944.507.507,0,0,0,.841-.489,7.8,7.8,0,0,0-1.362-2.175c-.517-.7-1.052-1.372-1.62-2.028a17.64,17.64,0,0,0-3.93-3.53C2523.119,1975.866,2522.815,1976.336,2523.056,1976.618Z" transform="translate(-2080.688 -1629.679)" fill="#180530"/>
    <path id="Path_801" data-name="Path 801" d="M2559.135,2021.806a2.739,2.739,0,0,0-.395,1.539c-.058.556-.224,1.1.151,1.562a.469.469,0,0,0,.65,0c.405-.324.351-.987.384-1.465a2.707,2.707,0,0,0-.121-1.549.431.431,0,0,0-.67-.086Z" transform="translate(-2110.118 -1667.334)" fill="#180530"/>
    <path id="Path_802" data-name="Path 802" d="M2517.643,1200.173a4.23,4.23,0,0,0,.105,2.694,1.039,1.039,0,1,0,2-.554c-.288-.7-.372-1.45-.661-2.14A.76.76,0,0,0,2517.643,1200.173Z" transform="translate(-2076.145 -989.378)"/>
    <path id="Path_803" data-name="Path 803" d="M2606.146,1187.96a5.578,5.578,0,0,0,.165,1.45,4.672,4.672,0,0,0,.5,1.469,1.013,1.013,0,0,0,1.127.459,1,1,0,0,0,.733-.962,9.453,9.453,0,0,0-1.211-2.773c-.289-.67-1.323-.3-1.318.351Z" transform="translate(-2149.285 -979.154)"/>
    <path id="Path_804" data-name="Path 804" d="M2504.937,1177.308a5.718,5.718,0,0,1,1.353-.482,5.661,5.661,0,0,0,1.211-.27c.261-.119.163-.5-.075-.577a3.919,3.919,0,0,0-2.8.8.307.307,0,0,0,.308.526Z" transform="translate(-2065.454 -969.804)"/>
    <path id="Path_805" data-name="Path 805" d="M2599.015,1166.061a4.859,4.859,0,0,1,2.292.093c.361.086.621-.443.263-.624a3.374,3.374,0,0,0-2.728-.095.325.325,0,0,0,.175.626Z" transform="translate(-2143.068 -960.965)"/>
    <path id="Path_806" data-name="Path 806" d="M2559.5,1222.208a2.918,2.918,0,0,0,.421,2.421c.392.512,1.346,1.292,2.005.822a.351.351,0,0,0,.07-.526c-.35-.4-.946-.394-1.313-.82a2.6,2.6,0,0,1-.563-1.8.317.317,0,0,0-.62-.084Z" transform="translate(-2110.741 -1007.808)"/>
    <path id="Path_807" data-name="Path 807" d="M2571.407,1246.109a10.485,10.485,0,0,0,7.1-1.094,10.618,10.618,0,0,0,2.629-2.084c.619-.677,1.527-1.6,1.5-2.57a.319.319,0,0,0-.475-.273c-.757.477-1.148,1.465-1.753,2.126a10.493,10.493,0,0,1-2.291,1.9,10.854,10.854,0,0,1-6.661,1.476c-.294-.028-.363.466-.07.526Z" transform="translate(-2120.47 -1022.699)"/>
    <path id="Path_808" data-name="Path 808" d="M2617.242,1202.111a2.835,2.835,0,0,0-.759,2.948,2.629,2.629,0,0,0,1.115,1.39,3.445,3.445,0,0,0,1.856.433,3.681,3.681,0,0,0,2.039-.631,3.282,3.282,0,0,0,1.274-2.329C2623.074,1201.243,2619.046,1200.391,2617.242,1202.111Z" transform="translate(-2157.696 -990.675)" fill="#b8697c" opacity="0.18"/>
    <path id="Path_809" data-name="Path 809" d="M1029.472,2174.5c1.28,1.486-9.943-32.21-31.609-34.279s-12.147,13.778,1.509,18.166,24.621,13.9,25.864,17.836S1029.472,2174.5,1029.472,2174.5Z" transform="translate(-812.336 -1764.94)" fill="#fff" stroke="#315ec5" stroke-miterlimit="10" stroke-width="8.31"/>
    <path id="Path_810" data-name="Path 810" d="M1125.182,2301.436a25.53,25.53,0,0,1-7.514-3.1c-1.006-.624-6.857-4.522-5.094-5.959,1.038-.845,3.051.131,3.973.7a25.193,25.193,0,0,1,3.4,2.74q1.663,1.5,3.232,3.1c.947.966,1.9,2.279,3.22,2.736a.432.432,0,0,0,.526-.536c-.293-1.323-1.528-2.354-2.454-3.272q-1.535-1.52-3.165-2.939c-1.912-1.67-4.086-3.761-6.687-4.207a3.731,3.731,0,0,0-3.155.612,2.637,2.637,0,0,0-.435,3,8.825,8.825,0,0,0,2.478,2.8,25.072,25.072,0,0,0,3.167,2.324,23.151,23.151,0,0,0,8.187,3.125c.733.13,1.052-.955.312-1.136Z" transform="translate(-916 -1889.118)" fill="#1c35ab"/>
    <path id="Path_811" data-name="Path 811" d="M1084.727,1870.4c-5.3-5.034-10.562-11.07-11.78-18.532-.245-1.5-.547-3.542.165-4.964.934-1.865,3.009.028,3.886.98,2.187,2.378,3.011,5.693,3.754,8.748,1.078,4.424,1.846,9.044,3.632,13.249.3.7,1.518.35,1.448-.393a45.7,45.7,0,0,0-1.451-7.079q-.847-3.292-1.767-6.568c-.969-3.423-2.279-7.055-4.932-9.558-1.208-1.139-3.015-2.371-4.7-1.46-1.4.755-1.767,2.487-1.8,3.945a21.953,21.953,0,0,0,3.365,11.568c2.494,4.147,5.959,7.505,9.5,10.751C1084.5,1871.505,1085.183,1870.829,1084.727,1870.4Z" transform="translate(-883.356 -1521.208)" fill="#1c35ab"/>
    <path id="Path_812" data-name="Path 812" d="M942.558,2053.564a90.887,90.887,0,0,0-6.457-12.155,102.319,102.319,0,0,0-20.258-23.806,55.032,55.032,0,0,0-27.38-12.071,54.043,54.043,0,0,0-13.591-.44l-.072-.542a54.717,54.717,0,0,1,13.743.442,55.693,55.693,0,0,1,27.651,12.194,102.581,102.581,0,0,1,20.376,23.946,89.734,89.734,0,0,1,6.485,12.227Z" transform="translate(-721.401 -1653.011)" fill="#315ec5"/>
    <path id="Path_813" data-name="Path 813" d="M3174.495,2420.946s-1.511,8.8,6.8,22.065,24.377,13.776,29.337,7.116-2.736-23.6-12.655-27.693A98.975,98.975,0,0,0,3181.29,2417Z" transform="translate(-2617.929 -1993.361)" fill="#fff" stroke="#315ec5" stroke-miterlimit="10" stroke-width="8.31"/>
    <path id="Path_814" data-name="Path 814" d="M3169.965,2108.241s-6.264-31.525,11.519-51.706,39.672-23.6,43.6-12.312-43.468,23.6-48.323,44.63c0,0-1.972,5.93-1.79,16.476Z" transform="translate(-2613.399 -1680.657)" fill="#fff" stroke="#315ec5" stroke-miterlimit="10" stroke-width="8.31"/>
    <path id="Path_815" data-name="Path 815" d="M3193.1,2332.354s3.553-22.155,28.861-20.446,16.651,16.341,8.106,20.446S3204.765,2325.535,3193.1,2332.354Z" transform="translate(-2633.362 -1906.611)" fill="#fff"/>
    <path id="Path_816" data-name="Path 816" d="M3193.1,2332.354s3.553-22.155,28.861-20.446,16.651,16.341,8.106,20.446S3204.765,2325.535,3193.1,2332.354Z" transform="translate(-2633.362 -1906.611)" fill="none" stroke="#315ec5" stroke-miterlimit="10" stroke-width="8.31"/>
    <path id="Path_817" data-name="Path 817" d="M3187.294,2431.631a31.038,31.038,0,0,0,3.281,2.748c1.082.9,2.1,1.783,3.125,2.706q3.181,2.881,6.163,5.972c3.91,4.056,7.637,8.336,11.123,12.762,2.007,2.545,3.95,5.137,5.937,7.7.554.715,1.565-.291,1-1-3.544-4.456-7.144-8.886-10.838-13.219a131.092,131.092,0,0,0-11.861-12.444q-1.767-1.588-3.609-3.09a20.225,20.225,0,0,0-3.826-2.781.412.412,0,0,0-.5.643Z" transform="translate(-2628.483 -2004.853)" fill="#315ec5"/>
    <path id="Path_818" data-name="Path 818" d="M3196.391,2362.592a21.588,21.588,0,0,0,2.892-2.908,23.864,23.864,0,0,1,3.256-2.955c2.561-1.854,5.732-2.617,8.746-3.411,6.189-1.628,12.693-2.542,19.073-1.614a47.108,47.108,0,0,1,4.922.876,22.963,22.963,0,0,1,5.107,2.016c.4.212.752-.4.35-.6-1.4-.733-2.852-1.3-4.3-1.907a22.686,22.686,0,0,0-4.5-1.434,38.745,38.745,0,0,0-9.779-.526,58.163,58.163,0,0,0-9.944,1.59c-3.1.755-6.473,1.5-9.218,3.193a20.334,20.334,0,0,0-3.839,3.185,19.266,19.266,0,0,0-3.305,3.959c-.176.321.2.778.538.538Z" transform="translate(-2635.593 -1938.122)" fill="#315ec5"/>
    <path id="Path_819" data-name="Path 819" d="M3181.928,2140.2a25.346,25.346,0,0,1-.8-4.907,40.127,40.127,0,0,1-.047-5,49.444,49.444,0,0,1,.525-4.976c.262-1.649.626-3.281,1.042-4.908.109-.4.208-.81.326-1.209l.351-1.2c.117-.4.259-.794.387-1.192s.263-.792.41-1.183l.429-1.178.461-1.166.231-.582.247-.575.5-1.151c.691-1.52,1.429-3.02,2.228-4.487l.6-1.1c.207-.363.424-.722.635-1.083s.417-.727.648-1.078l.68-1.052a54.417,54.417,0,0,1,6.3-7.812c.572-.612,1.187-1.18,1.785-1.765.3-.287.615-.564.924-.846s.615-.566.936-.834c1.251-1.106,2.573-2.131,3.912-3.125s2.731-1.928,4.147-2.8,2.871-1.691,4.348-2.454,2.98-1.467,4.522-2.1a43.465,43.465,0,0,1,4.687-1.672c-.778.286-1.539.61-2.294.947s-1.505.684-2.247,1.052c-1.483.729-2.943,1.5-4.368,2.331a72.263,72.263,0,0,0-8.2,5.5,64.162,64.162,0,0,0-7.284,6.611l-.84.9-.812.922-.407.459c-.133.156-.259.317-.391.475l-.778.948c-.259.317-.5.65-.75.973s-.5.647-.736.983l-.7,1-.351.5-.333.515a67.514,67.514,0,0,0-4.758,8.6,65.564,65.564,0,0,0-3.481,9.2,53.031,53.031,0,0,0-1.907,9.659,42.877,42.877,0,0,0-.223,4.932c.012.824.049,1.649.119,2.471A20.715,20.715,0,0,0,3181.928,2140.2Z" transform="translate(-2623.401 -1714.406)" fill="#315ec5"/>
    <path id="Path_820" data-name="Path 820" d="M3298,2223.868a2.533,2.533,0,0,0-2.279-.689,20.986,20.986,0,0,0-17.787,12.784l1.411-.456a110.991,110.991,0,0,1,11.975-4.948c2.7-.936,5.784-2.085,6.769-4.772A2.106,2.106,0,0,0,3298,2223.868Z" transform="translate(-2703.323 -1833.502)" fill="#315ec5"/>
    <path id="Path_821" data-name="Path 821" d="M3247.147,2006.094a2.1,2.1,0,0,0-1.125-1.556,2.5,2.5,0,0,0-2.279.678,20.987,20.987,0,0,0-7.836,20.455l.927-1.159a111.485,111.485,0,0,1,7.288-10.711C3245.857,2011.533,3247.8,2008.879,3247.147,2006.094Z" transform="translate(-2668.359 -1653.117)" fill="#315ec5"/>
    <rect id="Rectangle_326" data-name="Rectangle 326" width="167.198" height="58.235" rx="29.117" transform="translate(234.572 63.099)" fill="#fff"/>
    <path id="Path_822" data-name="Path 822" d="M1493.726,414.185q-13.561-.011-27.122.128l-13.563.149-13.561.163c-4.52.046-9.041.1-13.563.128l-6.78.049-6.781.028c-4.52.014-9.041,0-13.561,0s-9.041-.03-13.563-.047q-13.561-.079-27.122-.23l-6.781-.061-3.39-.026-1.695-.014c-.289-.012-.584-.032-.876-.049l-.219-.012-.216-.035-.433-.068a10.352,10.352,0,0,1-3.279-1.176,9.872,9.872,0,0,1-2.682-2.215,10.12,10.12,0,0,1-2.435-6.385c-.019-4.531.017-9.044,0-13.566l-.028-13.563-.028-6.78-.019-3.392v-1.7c.014-.293.023-.584.04-.876l.128-.868a10.176,10.176,0,0,1,6.527-7.712,10.6,10.6,0,0,1,3.463-.64l27.124-.209,27.122-.116,27.124-.082,13.561-.018h13.566l13.561.033q6.78.016,13.561.051l6.781.039,3.39.03,1.7.016c.294.01.6.033.9.049l.226.014.224.037.449.072a10.353,10.353,0,0,1,6.147,3.527,10.59,10.59,0,0,1,1.809,3.087,9.929,9.929,0,0,1,.654,3.505l-.3,27.136-.058,6.781-.021,3.39c0,.566,0,1.129-.021,1.7-.018.286-.03.571-.051.857l-.135.847a10.2,10.2,0,0,1-1.227,3.181,9.815,9.815,0,0,1-5.185,4.256A10.192,10.192,0,0,1,1493.726,414.185Zm0-.163a10.019,10.019,0,0,0,3.292-.589,9.628,9.628,0,0,0,6.24-7.318l.121-.827c.016-.279.025-.557.039-.836.014-.559,0-1.129,0-1.693l-.023-3.39-.058-6.781-.151-13.561-.082-6.781-.042-3.39-.021-1.695-.01-.848c0-.279,0-.575-.021-.834a8.881,8.881,0,0,0-.659-3.111,9.361,9.361,0,0,0-1.667-2.69,9.151,9.151,0,0,0-5.433-2.98l-.391-.056-.195-.028h-.2l-.79-.032-1.7.016-3.39.03-6.781.039c-4.52.032-9.041.04-13.561.051l-13.563.028h-13.563l-13.561-.018-27.124-.081-27.122-.117-27.125-.212a9.675,9.675,0,0,0-3.18.536,9.29,9.29,0,0,0-4.948,4.019,9.587,9.587,0,0,0-1.181,3.027l-.128.808-.049.817c-.011.135-.012.275-.012.417v1.271l-.021,3.392-.028,6.78c-.03,9.039-.047,18.09,0,27.117.017.275.021.55.051.824l.126.815c.058.268.137.526.2.8.019.067.033.133.054.2l.072.193.144.386a9.641,9.641,0,0,0,1.7,2.8,9.414,9.414,0,0,0,5.618,3.109l.4.058.2.03.2.009c.273,0,.543.025.82.032l1.695-.014,3.39-.026,6.781-.061q13.561-.131,27.122-.23c4.522-.019,9.042-.053,13.563-.049s9.041-.01,13.561,0l6.781.028,6.78.049c4.522.025,9.042.082,13.563.128l13.561.163,13.563.149Q1480.165,414.019,1493.726,414.022Z" transform="translate(-1101.789 -292.769)" fill="#fe677a"/>
    <circle id="Ellipse_187" data-name="Ellipse 187" cx="16.954" cy="16.954" r="16.954" transform="translate(248.619 77.47)" fill="#ffc280"/>
    <circle id="Ellipse_188" data-name="Ellipse 188" cx="13.189" cy="13.189" r="13.189" transform="translate(252.384 81.235)" fill="#fff"/>
    <path id="Path_823" data-name="Path 823" d="M1506.079,481.544a7.776,7.776,0,0,0-.275,2.713l-.072,2.776c-.044,1.684-.515,3.814.738,5.153a.918.918,0,0,0,1.286,0c1.253-1.339.782-3.469.738-5.153l-.072-2.776a7.769,7.769,0,0,0-.275-2.713A1.084,1.084,0,0,0,1506.079,481.544Z" transform="translate(-1241.645 -396.517)" fill="#ffc280"/>
    <path id="Path_824" data-name="Path 824" d="M1513.583,538.764a17.677,17.677,0,0,0-2.731-1.912c-.458-.27-.922-.526-1.364-.829a2.772,2.772,0,0,0-1.753-.773,1.245,1.245,0,0,0-1.066,1.858c.6.994,2.114,1.322,3.155,1.753a11.168,11.168,0,0,0,3.351.862.567.567,0,0,0,.4-.961Z" transform="translate(-1242.38 -441.434)" fill="#ffc280"/>
    <path id="Path_825" data-name="Path 825" d="M1663.071,467.528a9.953,9.953,0,0,0,1.578.876c.189.089,1.446.743.817.4.263.145.515.315.782.456,1.593.841,3.681.776,5.455.852,2.794.119,5.586.242,8.382.324q8.383.249,16.761.245h33.174c3.143,0,6.285.01,9.428-.04.761-.012,1.511-.074,2.27-.14a18.159,18.159,0,0,0,3.1-.328,6.646,6.646,0,0,0,1.577-.748l.526-.3c-.351.2-.328.24.086.123a4.482,4.482,0,0,0,2.792-1.378,2.792,2.792,0,0,0,0-3.935,5.535,5.535,0,0,0-2.454-1.323c-.077-.016-1.2-.175-.421.068a5.154,5.154,0,0,1-.783-.452c-1.656-.9-3.768-.9-5.64-1.034-2.773-.2-5.6-.072-8.38-.072h-16.761c-11.056,0-22.121-.145-33.174.175q-4.716.142-9.428.351a33.475,33.475,0,0,0-5.239.456,5.409,5.409,0,0,0-1.523.6c-.175.109-.351.207-.526.3q.645-.238-.556.245a11.844,11.844,0,0,0-1.844,1.025,1.922,1.922,0,0,0,0,3.265Z" transform="translate(-1370.755 -380.261)" fill="#1c35ab"/>
    <path id="Path_826" data-name="Path 826" d="M1684.647,570.46c.741.252,1.465.577,2.212.8a14.691,14.691,0,0,0,2.934.4c1.621.153,3.243.175,4.869.231s3.241.105,4.869.035a9.388,9.388,0,0,0,1.683-.163c.624-.137,1.155-.487,1.753-.664-.526.152.391-.037.473-.065a5.371,5.371,0,0,0,1.688-1.071,2.518,2.518,0,0,0,0-3.553,5.234,5.234,0,0,0-1.688-1.073c-.052-.018-1-.175-.473-.065-.608-.133-1.129-.552-1.753-.664a12.57,12.57,0,0,0-1.683-.163c-1.628-.07-3.241-.016-4.869.035s-3.248.081-4.869.231a15.124,15.124,0,0,0-2.934.4c-.748.224-1.471.552-2.212.8a2.373,2.373,0,0,0,0,4.533Z" transform="translate(-1387.926 -465.491)" fill="#1c35ab"/>
    <rect id="Rectangle_327" data-name="Rectangle 327" width="167.198" height="58.235" rx="29.117" transform="translate(234.572 137.587)" fill="#fff"/>
    <path id="Path_827" data-name="Path 827" d="M1493.726,839.116q-13.561-.011-27.122.128l-13.563.149-13.561.163c-4.52.046-9.041.1-13.563.128l-6.78.049-6.781.026q-6.781.024-13.561,0t-13.563-.047q-13.561-.081-27.122-.23l-6.781-.061-3.39-.028-1.695-.012c-.289-.012-.584-.033-.876-.049l-.219-.012-.216-.035-.433-.07a10.344,10.344,0,0,1-3.279-1.174,9.873,9.873,0,0,1-2.682-2.216,10.12,10.12,0,0,1-2.435-6.385c-.019-4.533.017-9.044,0-13.566l-.028-13.563-.028-6.78-.019-3.392v-1.7c.014-.293.023-.585.04-.876l.128-.876a10.176,10.176,0,0,1,6.527-7.712,10.553,10.553,0,0,1,3.463-.64l27.124-.209,27.122-.117,27.124-.081,13.561-.018h13.566l13.561.033q6.78.016,13.561.051l6.781.039,3.39.03,1.7.016c.294.011.6.032.9.049l.226.014.224.037.449.072a10.354,10.354,0,0,1,6.147,3.526,10.589,10.589,0,0,1,1.809,3.087,9.929,9.929,0,0,1,.654,3.506l-.3,27.136-.058,6.781-.021,3.39c0,.566,0,1.129-.021,1.7-.018.286-.03.571-.051.855l-.135.848a10.194,10.194,0,0,1-1.227,3.18,9.815,9.815,0,0,1-5.185,4.257,10.235,10.235,0,0,1-3.358.6Zm0-.163a10.064,10.064,0,0,0,3.292-.589,9.628,9.628,0,0,0,6.24-7.318l.121-.829c.016-.277.025-.556.039-.834.014-.561,0-1.129,0-1.693l-.023-3.39-.058-6.781-.151-13.561-.082-6.781-.04-3.39-.021-1.695-.01-.848c0-.279,0-.575-.021-.834a8.872,8.872,0,0,0-.659-3.111,9.391,9.391,0,0,0-1.667-2.692,9.158,9.158,0,0,0-5.433-2.98l-.391-.056-.195-.028h-.2l-.79-.032-1.7.016-3.39.03-6.781.039c-4.52.031-9.041.04-13.561.051l-13.564.033h-13.563l-13.561-.018-27.124-.081-27.122-.117-27.125-.216a9.672,9.672,0,0,0-3.18.536,9.368,9.368,0,0,0-6.129,7.046l-.128.808-.049.817c-.011.133-.012.275-.012.417v1.271l-.021,3.392-.028,6.78c-.03,9.039-.047,18.088,0,27.117.017.275.021.55.051.824l.126.813c.058.268.137.526.2.8.019.067.033.133.054.2l.072.193.144.386a9.664,9.664,0,0,0,1.7,2.8,9.414,9.414,0,0,0,5.623,3.118l.4.058.2.03h.2c.273.011.543.026.82.033l1.695-.014,3.39-.028,6.781-.061q13.561-.13,27.122-.23c4.522-.018,9.042-.051,13.563-.047s9.041-.01,13.561,0l6.781.026,6.779.049c4.522.026,9.042.084,13.563.13l13.561.163,13.563.147q13.556.128,27.117.132Z" transform="translate(-1101.789 -643.212)" fill="#ffc280"/>
    <path id="Path_828" data-name="Path 828" d="M1454.058,883.772c-.047-.065-.082-.11-.114-.158q-5.567-8.489-11.126-16.982a9.111,9.111,0,0,1-.908-1.963,12.876,12.876,0,0,1,11.486-17.208,12.514,12.514,0,0,1,7.447,1.912,12.718,12.718,0,0,1,5.858,8.424,12.1,12.1,0,0,1,.245,3.027,12.72,12.72,0,0,1-1.514,5.593c-.091.167-.2.324-.3.482q-5.468,8.345-10.939,16.688Zm0-31.518a8.063,8.063,0,1,0,8.063,8.033,8.062,8.062,0,0,0-8.063-8.033Z" transform="translate(-1188.487 -698.903)" fill="#ffc280"/>
    <path id="Path_829" data-name="Path 829" d="M1666.533,930.18c1.167,1.593,2.759,1.928,4.585,2.326a31.8,31.8,0,0,0,5.232.757c2.855.133,5.7.2,8.557.216l17.287.095q17.112.091,34.224.116c3.139,0,6.294.1,9.43-.06a24.49,24.49,0,0,0,5.665-.817c1.578-.477,3.416-.791,4.764-1.776a2.723,2.723,0,0,0,0-4.619,13.4,13.4,0,0,0-4.119-1.577,24.362,24.362,0,0,0-5.258-.962c-2.845-.21-5.709-.119-8.557-.116l-17.287.019c-11.409.012-22.817.121-34.224.175-3.155.018-6.285.03-9.43.175a38.807,38.807,0,0,0-5.619.668c-.768.149-1.549.305-2.307.507a4.843,4.843,0,0,0-2.939,1.96,2.781,2.781,0,0,0,0,2.9Z" transform="translate(-1374.029 -761.833)" fill="#1c35ab"/>
    <path id="Path_830" data-name="Path 830" d="M3557.834,808.911c-.03-2.024-.913-4.065-1.556-5.959-.479-1.4-1.052-2.8-1.464-4.221a47.954,47.954,0,0,0-2.31-5.984c-2.454-5.561-5.125-11.042-8.115-16.33a182.455,182.455,0,0,0-21.7-31.024q-1.682-1.9-3.409-3.768c-1.157-1.25-2.384-2.4-3.579-3.614a79.591,79.591,0,0,0-7.887-6.753,5.44,5.44,0,0,0-3.607-1.5,5.276,5.276,0,0,0-3.09,1.1c-1.854,1.434-2.8,4.5-1.314,6.58q1.4,1.97,2.771,3.97c1.164,1.709,2.391,3.348,3.655,4.983l-.987-1.278c1.094,1.42,2.082,2.908,3.183,4.317q-.526-.669-1.038-1.343,3.7,4.908,7.113,10.026c2.224,3.339,4.5,6.643,6.661,10.026a238.071,238.071,0,0,1,11.964,21.3q2.8,5.577,5.258,11.31a24.605,24.605,0,0,0,1.486,3.285,24.454,24.454,0,0,1,1.113,2.187q.824,1.835,1.611,3.681l.3.722a9.091,9.091,0,0,0,2.07,3.611c.175.21.375.417.563.626.745.831,1.472,1.676,2.214,2.51a5.76,5.76,0,0,0,5.625,1.488,8.644,8.644,0,0,0,1.381-.584c1.893-.887,2.722-3.067,2.864-4.992C3557.715,811.847,3557.853,810.36,3557.834,808.911Z" transform="translate(-2885.698 -601.85)" fill="#ffe8d4"/>
    <path id="Path_831" data-name="Path 831" d="M3776.085,1316.958a84.808,84.808,0,0,0-1.628-8.939,4.716,4.716,0,0,0-9.249,1.251,75.012,75.012,0,0,0-.037,8.038,39.632,39.632,0,0,0,.635,5,13.627,13.627,0,0,0,.621,1.844,8.005,8.005,0,0,0,1.753,3.236,4.46,4.46,0,0,0,6.9-.891,6.236,6.236,0,0,0,.855-2.678,24.105,24.105,0,0,0,.405-2.755A28.053,28.053,0,0,0,3776.085,1316.958Z" transform="translate(-3105.081 -1075.941)" fill="#ffe8d4"/>
    <path id="Path_832" data-name="Path 832" d="M1322.868,1168.786l.647-.969a4.316,4.316,0,0,0,.426-2.175l-.21-1.09a4.311,4.311,0,0,0-1.255-1.893,4.462,4.462,0,0,0-6.135.392l-.645.968a4.347,4.347,0,0,0-.428,2.177c.07.363.142.727.212,1.09a4.325,4.325,0,0,0,1.253,1.893A4.459,4.459,0,0,0,1322.868,1168.786Z" transform="translate(-1084.659 -958.018)" fill="#fff"/>
    <path id="Path_833" data-name="Path 833" d="M2298.542,721.288l.645-.969a4.326,4.326,0,0,0,.428-2.177l-.21-1.09a4.317,4.317,0,0,0-1.255-1.891,4.466,4.466,0,0,0-6.135.391l-.645.969a4.347,4.347,0,0,0-.417,2.173q.105.543.212,1.09a4.315,4.315,0,0,0,1.253,1.891,4.466,4.466,0,0,0,6.135-.391Z" transform="translate(-1889.33 -588.956)" fill="#fff"/>
    <path id="Path_834" data-name="Path 834" d="M2264.083,1280.25l.646-.969a4.326,4.326,0,0,0,.429-2.186l-.21-1.09a4.329,4.329,0,0,0-1.253-1.891,4.468,4.468,0,0,0-6.135.391q-.321.485-.645.969a4.343,4.343,0,0,0-.428,2.177c.07.363.142.726.212,1.09a4.317,4.317,0,0,0,1.253,1.891,3.288,3.288,0,0,0,1.5.826,4.466,4.466,0,0,0,4.624-1.216Z" transform="translate(-1860.907 -1049.939)" fill="#fff"/>
    <path id="Path_835" data-name="Path 835" d="M3506.688,1404.055l.645-.969a4.341,4.341,0,0,0,.428-2.175c-.07-.365-.142-.727-.212-1.09a4.307,4.307,0,0,0-1.253-1.893,4.837,4.837,0,0,0-3.146-1.073,3.232,3.232,0,0,0-1.6.456,3.267,3.267,0,0,0-1.385,1.008l-.647.969a4.328,4.328,0,0,0-.426,2.177l.21,1.09a4.341,4.341,0,0,0,1.253,1.893,4.464,4.464,0,0,0,6.135-.393Z" transform="translate(-2885.717 -1152.02)" fill="#fff"/>
    <path id="Path_836" data-name="Path 836" d="M1211.922,1294.532l1-1.505a6.743,6.743,0,0,0,.668-3.388c-.109-.565-.219-1.129-.328-1.693a6.71,6.71,0,0,0-1.947-2.939,6.932,6.932,0,0,0-9.519.608l-1,1.506a6.741,6.741,0,0,0-.663,3.381l.328,1.693a6.714,6.714,0,0,0,1.948,2.939,6.742,6.742,0,0,0,9.519-.612Z" transform="translate(-989.7 -1058.451)" fill="none" stroke="#fff" stroke-miterlimit="10" stroke-width="7.64"/>
    <path id="Path_837" data-name="Path 837" d="M3208.81,1300.165l1-1.505a6.739,6.739,0,0,0,.664-3.379c-.111-.564-.219-1.13-.33-1.695a6.705,6.705,0,0,0-1.947-2.939,6.932,6.932,0,0,0-9.519.608l-1,1.505a6.729,6.729,0,0,0-.664,3.381l.328,1.693a6.7,6.7,0,0,0,1.949,2.939A6.936,6.936,0,0,0,3208.81,1300.165Z" transform="translate(-2636.578 -1063.102)" fill="none" stroke="#fff" stroke-miterlimit="10" stroke-width="7.64"/>
    <path id="Path_838" data-name="Path 838" d="M3487.09,1159.211l1-1.506a6.726,6.726,0,0,0,.664-3.381c-.109-.564-.219-1.129-.328-1.693a6.7,6.7,0,0,0-1.949-2.939,6.936,6.936,0,0,0-9.519.608l-1,1.505a6.744,6.744,0,0,0-.664,3.379l.33,1.695a6.7,6.7,0,0,0,1.947,2.939,6.932,6.932,0,0,0,9.519-.608Z" transform="translate(-2866.083 -946.855)" fill="none" stroke="#fff" stroke-miterlimit="10" stroke-width="7.64"/>
    <path id="Path_839" data-name="Path 839" d="M2901.01,1214.908l1-1.5a6.734,6.734,0,0,0,.664-3.381q-.166-.846-.328-1.693a6.713,6.713,0,0,0-1.949-2.941,6.937,6.937,0,0,0-9.519.61l-1,1.506a6.738,6.738,0,0,0-.664,3.379l.329,1.695a6.717,6.717,0,0,0,1.947,2.939,6.929,6.929,0,0,0,9.519-.61Z" transform="translate(-2382.729 -992.791)" fill="#fff"/>
    <path id="Path_840" data-name="Path 840" d="M1534.082,1261.645l1-1.506a6.741,6.741,0,0,0,.663-3.381q-.163-.846-.328-1.693a6.713,6.713,0,0,0-1.947-2.939,6.932,6.932,0,0,0-9.519.608l-1,1.506a6.76,6.76,0,0,0-.664,3.381l.329,1.693a6.7,6.7,0,0,0,1.947,2.939,6.932,6.932,0,0,0,9.519-.608Z" transform="translate(-1255.388 -1031.334)" fill="#fff"/>
  </g>
</svg>
