<svg xmlns="http://www.w3.org/2000/svg" width="1538.02" height="1187.686" viewBox="0 0 1538.02 1187.686">
  <g id="_06" data-name="06" transform="translate(-387.303 -178.16)">
    <path id="Path_727" data-name="Path 727" d="M806.811,1113.105a242.3,242.3,0,0,0-10.2,30.1c-2.677,10.6-5.067,21.225-6.879,32a500.742,500.742,0,0,0-6.79,67.4,509.387,509.387,0,0,0,1.346,59.84c1.485,16.994,3.573,34.077,7.463,50.7,1.648,7.042,3.39,14.153,7.369,20.29a67.532,67.532,0,0,0,5.76,7.69c3.029,3.464,6.547,4.588,10.887,5.1,4.87.584,9.462-4.721,9.289-9.284a20.909,20.909,0,0,0-.366-5.092c-.277-1.029-.718-2.019-.99-3.048-.361-1.282-.653-2.578-.906-3.885-.129-.658-.242-1.321-.351-1.979-.059-.376-.114-.747-.173-1.123-.371-2.356.312,2.271.247,1.915a69.829,69.829,0,0,0-1.678-8.131q-.772-2.672-1.44-5.384c-1.029-4.172-1.905-8.383-2.687-12.609q-1.485-8.225-2.6-16.519l.495,3.7a569.669,569.669,0,0,1-4.691-76.057c0-14.292.549-28.6,1.425-42.866q.668-10.947,1.806-21.868.564-5.345,1.247-10.679c.064-.495.134-.99.193-1.485,0-.109-.376,2.722-.183,1.361.119-.861.233-1.717.356-2.578.391-2.756.826-5.508,1.183-8.274.124-.99.238-1.935.356-2.9l.134-1.089c.173-1.485-.445,2.628-.049.495.356-1.925.668-3.86,1.024-5.785.727-3.959,1.574-7.854,2.222-11.808,1.272-7.824,3.093-15.583,5.112-23.259,1.232-4.691-1.559-10.3-6.488-11.422-5.359-1.222-9.492,1.643-11.427,6.488Z" transform="translate(-395.33 -558.824)" fill="#ffe3c2"/>
    <path id="Path_728" data-name="Path 728" d="M2318.479,1019.43c-.3,71.42-16.7,140.88-57.969,201.645a318.8,318.8,0,0,1-61.9,67.446c-105.437,86.246-238.637,133.328-375.326,149.545a967.767,967.767,0,0,1-172.636,4.746c-83.678-5.092-167.2-21.25-248.668-39.2-28.48-6.275-55.876-19.345-84.376-24.551-22.507-4.112-41.619-6.339-63.477-15.128-47.508-19.107-91.056-46.073-131.6-76.171-19.161-14.228-38.278-28.089-56.8-42.411-31.855-24.635-61.953-50.645-87.454-82.327-11.456-14.223-20.364-31.885-27.456-50.808-11.461-30.588-18.162-64.487-23.12-92.541C911.524,928.2,921.615,830.632,967.5,748.315c27.332-49.022,66.476-91.4,109.961-128.33,142.677-121.135,356.911-196.9,547.873-172.74,66.971,8.5,136.99,16.885,197.063,48.092,58.024,30.158,82.025,90.626,134.848,125.7,56.861,37.724,128.217,42.891,189.259,71.89,92.729,44.044,138.435,139.168,160.615,231.654A400.139,400.139,0,0,1,2318.479,1019.43Z" transform="translate(-464.962 -223.652)" fill="#ffe3c2"/>
    <path id="Path_729" data-name="Path 729" d="M2914.827,1873.6l-197.107-52.664V1725.61l197.107,52.664Z" transform="translate(-1372.797 -871.654)" fill="#ffcc8f" opacity="0.58"/>
    <path id="Path_730" data-name="Path 730" d="M1916.742,675,1773.16,631.914V567.2l143.582,38.362Z" transform="translate(-895.673 -286.509)" fill="#ffcc8f" opacity="0.58"/>
    <path id="Path_731" data-name="Path 731" d="M1854.239,1845.048a967.767,967.767,0,0,1-172.636,4.746c-83.678-5.092-167.2-21.25-248.668-39.2-28.48-6.275-55.876-19.345-84.376-24.551-22.507-4.112-41.619-6.339-63.477-15.128-47.508-19.107-91.056-46.073-131.6-76.171-19.161-14.228-38.278-28.089-56.8-42.411-31.855-24.635-61.953-50.645-87.454-82.327-11.456-14.223-20.364-31.885-27.456-50.808l307.855-260.689,91.932-10.046Z" transform="translate(-495.92 -630.632)" fill="#fff" opacity="0.34"/>
    <path id="Path_732" data-name="Path 732" d="M2601.549,1084.589v135.041a46.814,46.814,0,0,1-20.651,38.951c-46.622,31.177-81.233,17.815-81.233,17.815-38.555-13.965-54.367-45.409-60.686-65.4a96,96,0,0,1-4.018-17.815V1056.347c39.768,4.167,76.705-36.037,76.705-36.037,16.717,31.236,42.994,47.661,62.849,56.054C2589.989,1082.926,2601.549,1084.589,2601.549,1084.589Z" transform="translate(-1229.967 -515.387)" fill="#ffcc8f" opacity="0.58"/>
    <path id="Path_733" data-name="Path 733" d="M2454.082,1088.389v135.036a46.82,46.82,0,0,1-20.656,38.956c-46.617,31.177-79.536,26.758-79.536,26.758-58.791-21.28-66.4-92.15-66.4-92.15l-15.123-130.76c26.98,2.831,59.622-17.568,77.824-30.979,8.413-6.206,13.757-10.917,14-11.14h0C2393.98,1079.748,2454.082,1088.389,2454.082,1088.389Z" transform="translate(-1147.838 -517.307)" fill="#ffb957"/>
    <path id="Path_734" data-name="Path 734" d="M2532.382,1088.389l-15.123,6.087s-51.363,21.74-64.125,9.739c-10.541-9.9-21.235-53.941-24.64-68.965-.718-3.172-1.114-5.057-1.114-5.057l15.113-6.082h0C2472.28,1079.749,2532.382,1088.389,2532.382,1088.389Z" transform="translate(-1226.138 -517.307)" fill="#ffcc8f"/>
    <path id="Path_735" data-name="Path 735" d="M1139.169,2195.288c4.588-.238,8.616-2.42,10.758-7.918,11.09-28.371-46.444-21.9-31.815-1.381,2.816,3.959,7.423,6.156,12.025,7.76A24.063,24.063,0,0,0,1139.169,2195.288Z" transform="translate(-563.579 -1095.267)" fill="#d4713a"/>
    <path id="Path_736" data-name="Path 736" d="M953.482,2130.859c12.867-.3,24.15-3,30.148-9.794,31.068-35.18-130.151-27.163-89.136-1.717,7.888,4.894,20.874,7.636,33.7,9.62a146.525,146.525,0,0,0,25.293,1.891Z" transform="translate(-448.436 -1059.461)" fill="#d4713a"/>
    <path id="Path_737" data-name="Path 737" d="M3001.152,375.887c-41.074,20.611-47.142,82.876-29.583,120.991,13.95,30.291,40.728,53.372,70.712,67.971,33.81,16.459,73.573,22.937,109.53,11.922,38.437-11.773,73.241-47.013,73.493-88.988.337-54.763-48.052-88.156-90.364-112.8-35.012-20.394-82.292-17.815-119.542-4.988a116.561,116.561,0,0,0-14.247,5.894Z" transform="translate(-1496.341 -181.853)" fill="#ffe3c2"/>
    <path id="Path_738" data-name="Path 738" d="M3469.223,1645.2l-372.252-85.677V1404.43l372.252,85.682Z" transform="translate(-1564.367 -709.417)" fill="#ffefde"/>
    <path id="Path_739" data-name="Path 739" d="M3207.908,1550.559l-36.388-8.893V1509.46l36.388,8.893Z" transform="translate(-1602.024 -762.471)" fill="#78c1d0"/>
    <path id="Path_740" data-name="Path 740" d="M3521.478,1630.412l-253.958-62.166V1536.04l253.958,62.171Z" transform="translate(-1650.516 -775.897)" fill="#fff" stroke="#000" stroke-miterlimit="10" stroke-width="1.02"/>
    <path id="Path_741" data-name="Path 741" d="M3521.478,1725.762,3267.52,1663.6V1631.39l253.958,62.171Z" transform="translate(-1650.516 -824.061)" fill="#fff" stroke="#000" stroke-miterlimit="10" stroke-width="1.02"/>
    <path id="Path_742" data-name="Path 742" d="M3207.908,1645.729l-36.388-8.9v-32.2l36.388,8.9Z" transform="translate(-1602.024 -810.544)" fill="#246166"/>
    <path id="Path_743" data-name="Path 743" d="M2875.66,1412.67,3337.7,1519.018V1674.1l-372.252-85.682v-80.753" transform="translate(-1452.577 -713.579)" fill="none" stroke="#fff" stroke-linecap="round" stroke-miterlimit="10" stroke-width="7.14"/>
    <path id="Path_744" data-name="Path 744" d="M3849.19,1565.534l20.468-11.234v147.793l-20.468,18.523Z" transform="translate(-1944.334 -785.121)" fill="#ffb957"/>
    <path id="Path_745" data-name="Path 745" d="M3489.69,1469.675,3125.95,1386.21l-28.979,9.017,372.252,85.682Z" transform="translate(-1564.367 -700.214)" fill="#ffd097"/>
    <path id="Path_746" data-name="Path 746" d="M2664.171,835.587l-192.931-44.4V710.8l192.931,44.41Z" transform="translate(-1248.293 -359.045)" fill="#fff"/>
    <path id="Path_747" data-name="Path 747" d="M2732.671,783.362l-192.931-44.4V658.58l192.931,44.4Z" transform="translate(-1282.894 -332.667)" fill="none" stroke="#fff" stroke-linecap="round" stroke-miterlimit="10" stroke-width="7.14"/>
    <path id="Path_748" data-name="Path 748" d="M2861.1,794.595l10.61-5.825v76.6l-10.61,9.6Z" transform="translate(-1445.222 -398.43)" fill="#ffb957"/>
    <path id="Path_749" data-name="Path 749" d="M2674.781,744.617,2486.259,701.36l-15.019,4.672,192.931,44.41Z" transform="translate(-1248.293 -354.277)" fill="#ffb957" opacity="0.53"/>
    <path id="Path_750" data-name="Path 750" d="M2486.167,838.3,2352.72,807.584V751.99L2486.167,782.7Z" transform="translate(-1188.425 -379.851)" fill="#78c1d0"/>
    <path id="Path_751" data-name="Path 751" d="M2622.38,809.943l7.339-4.023V858.9l-7.339,6.641Z" transform="translate(-1324.638 -407.093)" fill="#001c2d"/>
    <path id="Path_752" data-name="Path 752" d="M2493.506,775.38l-130.394-29.92-10.392,3.232L2486.167,779.4Z" transform="translate(-1188.425 -376.553)" fill="#133852"/>
    <path id="Path_753" data-name="Path 753" d="M1818.122,726.848,1674.54,683.759V619.05l143.582,38.362Z" transform="translate(-845.857 -312.7)" fill="#fff"/>
    <path id="Path_754" data-name="Path 754" d="M1964.68,691.433l7.893-5.033v66.174l-7.893,8.294Z" transform="translate(-992.415 -346.72)" fill="#ffb957"/>
    <path id="Path_755" data-name="Path 755" d="M1826.015,648.258l-140.3-37.368-11.179,4.038,143.582,38.362Z" transform="translate(-845.857 -308.578)" fill="#ffb957" opacity="0.53"/>
    <path id="Path_756" data-name="Path 756" d="M1550.11,849.307l6.463-4.117v54.164l-6.463,6.79Z" transform="translate(-783.004 -426.929)" fill="#001c2d"/>
    <path id="Path_757" data-name="Path 757" d="M1430.147,878.291l-117.527-31.4V790.05l117.527,31.4Z" transform="translate(-663.041 -399.077)" fill="#78c1d0"/>
    <path id="Path_758" data-name="Path 758" d="M1410.577,897.486V840.65l-117.527-31.4v56.836l101.389,27.272" transform="translate(-653.156 -408.775)" fill="none" stroke="#fff" stroke-linecap="round" stroke-miterlimit="10" stroke-width="8.16"/>
    <path id="Path_759" data-name="Path 759" d="M1436.61,813.963,1321.77,783.37l-9.15,3.306,117.527,31.4Z" transform="translate(-663.041 -395.702)" fill="#133852"/>
    <path id="Path_760" data-name="Path 760" d="M1457.632,1603.269l-160.462-42.876V1413.04l160.462,42.871Z" transform="translate(-655.237 -713.766)" fill="#fff"/>
    <path id="Path_761" data-name="Path 761" d="M1500.867,1555.634l-160.457-42.871V1365.41l160.457,42.871Z" transform="translate(-677.079 -689.707)" fill="none" stroke="#fff" stroke-miterlimit="10" stroke-width="5.1"/>
    <path id="Path_762" data-name="Path 762" d="M2800.387,1942.846l-197.107-52.664V1794.86l197.107,52.664Z" transform="translate(-1314.99 -906.634)" fill="#fff"/>
    <path id="Path_763" data-name="Path 763" d="M3001.58,1894.228l10.838-6.908v90.849l-10.838,11.382Z" transform="translate(-1516.183 -953.339)" fill="#ffb957"/>
    <path id="Path_764" data-name="Path 764" d="M2811.225,1834.953l-192.6-51.3-15.341,5.547,197.107,52.664Z" transform="translate(-1314.99 -900.972)" fill="#ffd097"/>
    <path id="Path_765" data-name="Path 765" d="M2438.959,1100.684v135.041a46.825,46.825,0,0,1-20.651,38.951c-46.622,31.177-81.233,17.815-81.233,17.815-38.556-13.965-54.367-45.4-60.686-65.392a96.059,96.059,0,0,1-4.019-17.815V1072.437c39.768,4.172,76.705-36.036,76.705-36.036,16.717,31.241,42.995,47.661,62.824,56.059C2427.4,1099.021,2438.959,1100.684,2438.959,1100.684Z" transform="translate(-1147.838 -523.515)" fill="#fff"/>
    <path id="Path_766" data-name="Path 766" d="M1472.244,1608.572a19.322,19.322,0,0,0,.614-5.795,62.068,62.068,0,0,0-1.1-12.03q-.658-3.608-1.7-7.25-.92-3.246-2.108-6.433a84.939,84.939,0,0,0-5.409-11.733c-.332-.594-.713-.841-1.084-.718s-.45.584-.312,1.163a2.564,2.564,0,0,0,.233.584c1.143,2.078,2.212,4.206,3.187,6.4a80.542,80.542,0,0,1,3.43,9.13,72.525,72.525,0,0,1,2.7,12.372,51.967,51.967,0,0,1,.421,9.046c-.074,1.484-.208,2.939-.391,4.35a25.876,25.876,0,0,1-.638,3.261c-.336,1.262-.99,2.083-2.034,2.182-.935.089-1.979-.732-2.638-2.3a8.149,8.149,0,0,1-.653-3.682,8.387,8.387,0,0,1,.173-1.361,34.634,34.634,0,0,0,.648-4.355,40.783,40.783,0,0,0,.094-5.414,52.249,52.249,0,0,0-.6-5.81,64.149,64.149,0,0,0-2.712-10.714,77.463,77.463,0,0,0-5.785-12.817,73.913,73.913,0,0,0-6.384-9.536c-.9-1.143-1.831-2.247-2.781-3.291s-1.979-2.1-3.009-3.083-1.945-1.8-2.925-2.662c-.282-.247-.579-.554-.881-.539s-.554.356-.525.871a1.979,1.979,0,0,0,.638,1.361c.708.624,1.425,1.212,2.123,1.866.826.762,1.648,1.534,2.474,2.365s1.633,1.777,2.44,2.7a60,60,0,0,1,4.454,5.76q1.861,2.717,3.509,5.686a74.042,74.042,0,0,1,4.033,8.457,58.342,58.342,0,0,1,2.148,6.255c.421,1.519.8,3.053,1.113,4.568.3,1.4.53,2.8.708,4.177a38,38,0,0,1,.3,7.388c-.074,1.148-.178,2.286-.317,3.395-.094.757-.272,1.445-.411,2.167a11.723,11.723,0,0,0,.3,5.394,10.1,10.1,0,0,0,2.024,3.959,4.085,4.085,0,0,0,2.935,1.663,5.373,5.373,0,0,0,1.123-.218c.495-.1.688-.584.881-1.123.242-.688.495-1.356.752-2.049.163-.47.327-.945.46-1.445C1471.908,1610.007,1472.071,1609.285,1472.244,1608.572Z" transform="translate(-727.423 -781.706)" fill="#78c1d0"/>
    <path id="Path_767" data-name="Path 767" d="M1432.845,1651.279c-.218-.742-.435-1.455-.648-2.168-.688-2.3-1.252-4.607-1.717-6.9a81.908,81.908,0,0,1-1.613-13.7c-.069-2.187-.074-4.335.059-6.433.089-1.41.173-2.836.317-4.206.139-1.287.322-2.534.539-3.751.248-1.386.579-2.7.822-4.083a6.829,6.829,0,0,0-.178-2.677,11.039,11.039,0,0,0-2.474-4.815c-1.717-1.979-3.806-2.761-5.122-1.6a2.558,2.558,0,0,0-.841,1.485c-.262,1.306-.584,2.563-.831,3.89s-.436,2.643-.619,3.994c-.168,1.237-.337,2.474-.436,3.761q-.227,2.969-.346,6a96.858,96.858,0,0,0,.327,11.778c.282,3.3.713,6.651,1.336,10.051a.989.989,0,0,0,.218.431c.569.584,1.143,1.148,1.767,1.767-.064-.356-.114-.653-.173-.95-.614-3.177-1.044-6.31-1.346-9.4a90.968,90.968,0,0,1-.495-9.729c0-2.286.094-4.553.223-6.775.094-1.7.3-3.335.495-4.978.084-.782.208-1.544.341-2.286.3-1.638.614-3.266.935-4.885a6.8,6.8,0,0,1,.4-1.485c.381-.792,1.069-.9,1.875-.549a5.867,5.867,0,0,1,2.969,3.514,4.108,4.108,0,0,1,.252,2.267c-.208.96-.426,1.91-.6,2.895-.193,1.084-.366,2.177-.495,3.306-.208,1.786-.426,3.568-.529,5.444-.1,1.979-.119,4.033-.1,6.087a77.467,77.467,0,0,0,.782,10.076,86.4,86.4,0,0,0,2.375,11.412c.168.619.356,1.237.549,1.851a.764.764,0,0,0,.2.337c.53.337,1.064.648,1.6.99A.309.309,0,0,1,1432.845,1651.279Z" transform="translate(-717.132 -808.408)" fill="#78c1d0"/>
    <path id="Path_768" data-name="Path 768" d="M1400.84,1524.75c.574,0,1.118-.035,1.668-.04a20.632,20.632,0,0,1,5.849.92,29.2,29.2,0,0,1,6.572,2.831c1.292.752,2.583,1.594,3.87,2.474.812.554,1.623,1.193,2.43,1.846.935.762,1.876,1.539,2.8,2.39s1.816,1.747,2.707,2.682,1.772,1.92,2.638,2.925c.728.841,1.445,1.712,2.133,2.628,1.084,1.485,2.172,2.935,3.2,4.454a84.552,84.552,0,0,1,4.8,8.155c1.049,2.014,2.024,4.078,2.9,6.191a64.776,64.776,0,0,1,2.5,6.889c.4,1.376.767,2.751,1.143,4.127.188.688.624,1.222,1.054,1.257s.718-.426.544-1.138c-.292-1.193-.6-2.39-.945-3.583-.554-1.915-1.208-3.81-1.93-5.7a87.048,87.048,0,0,0-3.548-8.007,89.526,89.526,0,0,0-5.443-9.368c-.866-1.307-1.762-2.6-2.687-3.82-.99-1.336-2.044-2.618-3.093-3.87-.891-1.054-1.806-2.049-2.722-3.043-.465-.495-.95-.95-1.425-1.415s-1.049-1.049-1.583-1.519q-1.406-1.242-2.816-2.405a43.9,43.9,0,0,0-7.665-5.068,29.008,29.008,0,0,0-9.22-3.108c-.628-.089-1.252-.129-1.88-.193a.4.4,0,0,0-.411.223c-.44.7-.9,1.381-1.356,2.073A1.156,1.156,0,0,0,1400.84,1524.75Z" transform="translate(-707.604 -768.928)" fill="#78c1d0"/>
    <path id="Path_769" data-name="Path 769" d="M1407.193,1624.037c-.054-.495-.109-.95-.149-1.405a117.941,117.941,0,0,1-.495-14.708c.069-2.133.2-4.231.351-6.319.094-1.252.257-2.45.411-3.657s.312-2.321.495-3.464c.1-.643.223-1.267.351-1.89.173-.841.356-1.682.554-2.509.218-.925.416-1.876.688-2.747a5.152,5.152,0,0,1,2.618-3.326,6.007,6.007,0,0,1,5.161.178c.495.218,1.02.525,1.534.812.668.381,1.1-.242.812-1.207a1.9,1.9,0,0,0-.93-1.158,11.562,11.562,0,0,0-3.578-1.45,5.7,5.7,0,0,0-6.433,2.737,8.821,8.821,0,0,0-.99,2.445c-.267,1.059-.539,2.113-.767,3.212-.272,1.306-.495,2.647-.737,3.994-.168.955-.336,1.915-.44,2.925-.233,2.237-.455,4.484-.619,6.77a107.928,107.928,0,0,0,0,13.921c.069,1.247.178,2.514.277,3.771a.95.95,0,0,0,.119.386c.559.871,1.128,1.732,1.7,2.6C1407.1,1623.978,1407.139,1623.993,1407.193,1624.037Z" transform="translate(-709.607 -798.631)" fill="#78c1d0"/>
    <path id="Path_770" data-name="Path 770" d="M1424.334,1595.6a15.472,15.472,0,0,1,3.281,4.652,1.42,1.42,0,0,0,.846.856c.619.154.876-.673.495-1.554a19.038,19.038,0,0,0-2.034-3.464,16.158,16.158,0,0,0-2.212-2.5c-2.118-1.885-4.187-2.86-6.171-2.648a3.845,3.845,0,0,0-3.009,2.167,10.45,10.45,0,0,0-.777,2.806c-.094.455-.178.92-.257,1.391-.188,1.1-.381,2.187-.554,3.3-.158,1.024-.317,2.049-.431,3.108-.183,1.7-.341,3.42-.495,5.147-.2,2.385-.322,4.825-.317,7.339s.059,4.949.1,7.463c0,.911.633,1.732,1.237,1.693.307,0,.495-.346.46-.886-.04-1.885-.1-3.781-.109-5.646,0-2.969.084-5.894.317-8.725.119-1.445.228-2.9.386-4.315.148-1.336.341-2.643.539-3.959.183-1.207.4-2.4.609-3.578.139-.782.292-1.554.465-2.311a3.008,3.008,0,0,1,1.8-2.341c1.4-.564,2.969-.119,4.667,1.069C1423.557,1594.954,1423.943,1595.291,1424.334,1595.6Z" transform="translate(-713.595 -803.614)" fill="#78c1d0"/>
    <path id="Path_771" data-name="Path 771" d="M1429,1499.494c.53.332,1.054.633,1.574.99,1.168.772,2.331,1.544,3.494,2.355q1.257.876,2.5,1.851c.792.624,1.584,1.287,2.371,1.979,1.158.99,2.311,1.979,3.464,3.073s2.138,2.078,3.2,3.152c.762.777,1.519,1.579,2.252,2.425,1.321,1.524,2.638,3.068,3.929,4.652a103.179,103.179,0,0,1,6.928,9.645c1.455,2.276,2.85,4.617,4.167,7.037a2.015,2.015,0,0,0,.782.94.495.495,0,0,0,.742-.282,1.485,1.485,0,0,0-.119-1.227q-.723-1.351-1.485-2.672-2.88-5.018-6.122-9.605c-1.485-2.069-2.969-4.088-4.538-5.978-.96-1.153-1.92-2.316-2.9-3.439-.683-.787-1.381-1.534-2.083-2.266-.99-.99-1.95-2.024-2.939-2.969s-1.979-1.935-3.009-2.855c-.822-.757-1.653-1.485-2.474-2.167-1.267-1.024-2.544-2.019-3.82-2.969-1.178-.866-2.37-1.648-3.553-2.474a.249.249,0,0,0-.183-.05l-2.118.827S1429,1499.464,1429,1499.494Z" transform="translate(-721.828 -757.003)" fill="#78c1d0"/>
    <path id="Path_772" data-name="Path 772" d="M1399.286,1612.334c0-.495-.059-.955-.079-1.406-.144-3.311-.213-6.587-.084-9.754.094-2.257.233-4.488.391-6.705.094-1.242.252-2.44.406-3.637.178-1.371.366-2.737.589-4.073.193-1.168.431-2.311.678-3.439.267-1.242.544-2.474.851-3.682a7.637,7.637,0,0,1,3.682-5.2,6.364,6.364,0,0,1,3.43-.713c.327,0,.554-.173.589-.624a1.98,1.98,0,0,0-.376-1.306,1.083,1.083,0,0,0-.906-.564,17.778,17.778,0,0,0-2.261.248,6.893,6.893,0,0,0-3.9,2.578,9.468,9.468,0,0,0-1.341,2.36,15.633,15.633,0,0,0-.579,1.856c-.312,1.212-.619,2.435-.886,3.687-.233,1.069-.411,2.182-.609,3.281-.129.718-.252,1.44-.366,2.173s-.2,1.346-.282,2.029-.173,1.485-.247,2.262c-.114,1.158-.243,2.306-.317,3.489-.109,1.663-.188,3.34-.247,5.033-.1,2.687-.069,5.443,0,8.24a1.187,1.187,0,0,0,.1.426c.544,1.1,1.1,2.192,1.648,3.286A1.7,1.7,0,0,0,1399.286,1612.334Z" transform="translate(-705.842 -793.673)" fill="#78c1d0"/>
    <path id="Path_773" data-name="Path 773" d="M1442.87,1516.608c.539.436,1.153.916,1.762,1.42.495.421,1.024.846,1.529,1.3.772.683,1.544,1.371,2.306,2.1.841.8,1.683,1.6,2.474,2.474,1.282,1.361,2.563,2.737,3.81,4.187a103.863,103.863,0,0,1,11.224,16.009,112.153,112.153,0,0,1,5.3,10.506c.178.4.341.807.495,1.212.312.718.816,1.089,1.222.9s.421-.866.124-1.564a100.129,100.129,0,0,0-4.419-9.239,106.9,106.9,0,0,0-8.25-13.154c-1.3-1.767-2.638-3.464-3.959-5.147-.757-.95-1.549-1.841-2.341-2.7-1.287-1.391-2.578-2.766-3.885-4.088-1.019-1.029-2.054-1.979-3.1-2.935-.955-.861-1.92-1.653-2.885-2.474-.416-.351-.841-.673-1.262-.99s-.856-.163-.95.431A1.979,1.979,0,0,0,1442.87,1516.608Z" transform="translate(-728.424 -764.897)" fill="#78c1d0"/>
    <path id="Path_774" data-name="Path 774" d="M1394.759,1570.21c-.213.881-.445,1.747-.638,2.643-.223.99-.421,2.014-.609,3.039s-.361,2.163-.535,3.251a2.109,2.109,0,0,0,.45,1.544c.411.455.846.589,1.054.233a3.037,3.037,0,0,0,.247-.891c.1-.495.158-1.059.247-1.579.2-1.108.406-2.207.619-3.306.144-.737.292-1.485.465-2.187.237-.99.465-1.979.767-2.87a9.834,9.834,0,0,1,1.846-3.281,7.823,7.823,0,0,1,2.524-1.979,8.227,8.227,0,0,1,3.464-.822,13.589,13.589,0,0,1,7.091,2.044,34.79,34.79,0,0,1,2.925,1.94c.6.431,1.193.99,1.786,1.485.495.406.881.391,1.059-.119a1.885,1.885,0,0,0-.376-1.584.921.921,0,0,0-.158-.178c-.564-.495-1.123-1.02-1.7-1.485-.723-.554-1.45-1.059-2.177-1.554a19.094,19.094,0,0,0-4.781-2.37,11.833,11.833,0,0,0-5.31-.619,8.749,8.749,0,0,0-5.2,2.519,10.7,10.7,0,0,0-2.143,3.147c-.257.564-.455,1.2-.673,1.816-.119.346-.223.713-.332,1.069Z" transform="translate(-703.626 -788.753)" fill="#78c1d0"/>
    <path id="Path_775" data-name="Path 775" d="M1423.514,1552.9c1.024,1.049,1.979,1.945,2.855,2.935a54.555,54.555,0,0,1,6.824,9.264c.391.678.93.93,1.257.6s.257-1.059-.144-1.742a54.158,54.158,0,0,0-4.34-6.374c-.822-1.034-1.653-2.054-2.509-3.014s-1.678-1.762-2.524-2.628a11.951,11.951,0,0,0-.99-.95c-.9-.782-1.8-1.559-2.712-2.306a33.851,33.851,0,0,0-6.369-4.162,23.256,23.256,0,0,0-6.463-2.247,14.509,14.509,0,0,0-4.993-.069c-.213.035-.426.084-.633.138-.391.1-.495.732-.272,1.406s.737,1.118,1.148,1.029a14.667,14.667,0,0,1,7.651.559,27.66,27.66,0,0,1,6.795,3.34c.822.539,1.643,1.148,2.474,1.786C1421.6,1551.269,1422.609,1552.14,1423.514,1552.9Z" transform="translate(-708.385 -778.923)" fill="#78c1d0"/>
    <path id="Path_776" data-name="Path 776" d="M1463.648,1544.472a1.871,1.871,0,0,0,.455,1.6,98.13,98.13,0,0,1,7.121,9.7,107.406,107.406,0,0,1,7.289,13.193q1.92,4.142,3.464,8.413a83.372,83.372,0,0,1,2.756,9.4,1.98,1.98,0,0,0,.718,1.237c.391.277.7.213.886-.168a1.44,1.44,0,0,0,0-.94q-.866-3.746-2.083-7.483a102.556,102.556,0,0,0-4.751-11.877q-2.123-4.494-4.6-8.7a99.227,99.227,0,0,0-5.444-8.448c-1.287-1.762-2.618-3.464-3.959-5.167-.243-.317-.495-.619-.752-.9C1464.262,1543.774,1463.807,1543.844,1463.648,1544.472Z" transform="translate(-739.314 -779.895)" fill="#78c1d0"/>
    <path id="Path_777" data-name="Path 777" d="M1446.764,1611.812a18.2,18.2,0,0,0-.411-8.774,29.412,29.412,0,0,0-5.1-10.392c-.539-.708-1.113-1.356-1.682-2.009-.386-.445-.8-.53-1.044-.267a1.287,1.287,0,0,0-.059,1.312,3.117,3.117,0,0,0,.54.822,22.487,22.487,0,0,1,2.9,3.86,23.711,23.711,0,0,1,3.425,9.635,11.942,11.942,0,0,1-.119,3.766c-.193.871-.391,1.737-.535,2.647-.213,1.346-.391,2.722-.554,4.108a48.862,48.862,0,0,0-.292,5.938,63.17,63.17,0,0,0,.628,8.6,1.792,1.792,0,0,0,.99,1.43c.495.139.762-.312.673-1.034-.1-.841-.218-1.687-.3-2.519a53.385,53.385,0,0,1-.272-6.285c0-1.084.045-2.168.114-3.217s.178-2.172.322-3.217c.208-1.485.465-2.969.7-4.454Z" transform="translate(-726.533 -803.265)" fill="#78c1d0"/>
    <path id="Path_778" data-name="Path 778" d="M1438.88,1496.957c1.2.911,2.38,1.782,3.553,2.712.891.7,1.772,1.455,2.653,2.222,1.049.92,2.1,1.846,3.142,2.826s2.138,2.073,3.187,3.177c1.188,1.247,2.37,2.529,3.533,3.86a112.879,112.879,0,0,1,9.487,12.481c1.2,1.831,2.346,3.726,3.5,5.607.495.787,1.074.99,1.381.436a1.767,1.767,0,0,0-.238-1.514c-1.015-1.653-2.024-3.311-3.058-4.949-1.485-2.336-3.068-4.563-4.691-6.7-1.212-1.589-2.474-3.137-3.692-4.662-.95-1.163-1.915-2.281-2.89-3.38-.767-.866-1.559-1.673-2.336-2.514-1.979-2.1-3.959-4-5.993-5.83-1.039-.935-2.1-1.786-3.147-2.667-.495-.421-.99-.812-1.514-1.227a.673.673,0,0,0-.569-.168c-.757.069-1.485.154-2.266.238C1438.91,1496.922,1438.895,1496.942,1438.88,1496.957Z" transform="translate(-726.819 -756.005)" fill="#78c1d0"/>
    <path id="Path_779" data-name="Path 779" d="M1436.878,1528.879c-.535-.495-1.079-1.029-1.638-1.524-.96-.861-1.925-1.732-2.9-2.529a46.868,46.868,0,0,0-8.908-5.879c-.624-.307-1.252-.569-1.875-.836-.53-.223-.856.119-.807.817a1.979,1.979,0,0,0,.99,1.554c1.321.643,2.643,1.237,3.959,1.979,1.212.688,2.42,1.524,3.627,2.346a38.175,38.175,0,0,1,3.959,3.162c1.094.99,2.182,1.979,3.261,3.014.836.817,1.653,1.727,2.474,2.608a75.543,75.543,0,0,1,4.949,5.938c1.673,2.217,3.276,4.543,4.79,6.988.371.6.822.876,1.138.7s.411-.713.223-1.3a2.414,2.414,0,0,0-.233-.495c-1.411-2.286-2.89-4.454-4.454-6.542-1.044-1.381-2.1-2.752-3.172-4.068-.822-.99-1.678-1.95-2.534-2.885C1438.783,1530.889,1437.838,1529.9,1436.878,1528.879Z" transform="translate(-717.661 -766.807)" fill="#78c1d0"/>
    <path id="Path_780" data-name="Path 780" d="M1385.849,1582.61c.045-.6.084-1.217.139-1.816q.144-1.529.3-3.053c.074-.757.154-1.514.248-2.262s.188-1.371.287-2.054.228-1.45.346-2.167c.064-.421.144-.832.223-1.237.213-1.094.416-2.2.653-3.276.218-.99.495-1.945.7-2.93a13.145,13.145,0,0,1,3.865-7.136,9.15,9.15,0,0,1,3.7-1.98,10.387,10.387,0,0,1,2.875-.361c.322,0,.539-.173.584-.634a1.929,1.929,0,0,0-.381-1.321,1.043,1.043,0,0,0-.782-.525,11.484,11.484,0,0,0-3.776.574,9.9,9.9,0,0,0-3.464,2.029,12.469,12.469,0,0,0-3.014,4.192,16.714,16.714,0,0,0-1.049,2.969c-.366,1.485-.737,2.939-1.059,4.454-.277,1.287-.495,2.623-.727,3.959q-.237,1.366-.445,2.751a17.236,17.236,0,0,0-.262,2.2,14.157,14.157,0,0,0,.183,2.138c.247,1.777.525,3.558.787,5.335a1.209,1.209,0,0,0,.04.183Z" transform="translate(-699.507 -783.887)" fill="#78c1d0"/>
    <path id="Path_781" data-name="Path 781" d="M1478.483,1659.61c.495.44.906.4,1.079-.109a1.816,1.816,0,0,0-.376-1.583c-.495-.629-.99-1.218-1.485-1.871a20.2,20.2,0,0,1-2.2-4.147,29.774,29.774,0,0,1-2.163-11.382,20.442,20.442,0,0,1,.287-3.558c.124-.688.262-1.361.391-2.039a29.761,29.761,0,0,0,.495-7,40.537,40.537,0,0,0-1.039-7.5c-.069-.3-.134-.6-.208-.9-.163-.693-.653-1.242-1.123-1.277s-.629.534-.495,1.183a38,38,0,0,1,1.163,8.833,22.758,22.758,0,0,1-.322,4.236c-.178.99-.4,1.95-.559,2.969a28.38,28.38,0,0,0-.317,4.983,34.055,34.055,0,0,0,.861,6.894,30.6,30.6,0,0,0,3.622,9.145,19.018,19.018,0,0,0,2.128,2.9A.786.786,0,0,1,1478.483,1659.61Z" transform="translate(-743.346 -817.422)" fill="#78c1d0"/>
    <path id="Path_782" data-name="Path 782" d="M1431.2,1559.813a30.842,30.842,0,0,0-9.348-6.171c-.742-.292-1.485-.495-2.217-.747-.495-.163-.8.272-.7.99a1.811,1.811,0,0,0,1.029,1.43c.663.208,1.326.4,1.979.658a24.248,24.248,0,0,1,5.013,2.737,36.459,36.459,0,0,1,4.157,3.464,44.969,44.969,0,0,1,4.414,4.919,53.659,53.659,0,0,1,4.949,7.6,52.861,52.861,0,0,1,3,6.592c.277.747.762,1.188,1.178,1.079s.549-.737.277-1.484a53.071,53.071,0,0,0-2.712-6.136,56.344,56.344,0,0,0-6.171-9.581c-.99-1.232-2.024-2.361-3.049-3.5C1432.416,1561.016,1431.823,1560.432,1431.2,1559.813Z" transform="translate(-716.733 -784.394)" fill="#78c1d0"/>
    <path id="Path_783" data-name="Path 783" d="M1449.08,1497a120.933,120.933,0,0,1,24.6,28.391c-.163-.47-.312-.945-.495-1.41-.564-1.485-1.153-2.969-1.717-4.454a5.321,5.321,0,0,0-.737-1.222q-2.573-3.7-5.33-7.077c-1.029-1.267-2.078-2.474-3.137-3.7s-2.064-2.321-3.123-3.415c-1.391-1.44-2.8-2.826-4.206-4.211-.688-.673-1.386-1.3-2.088-1.925a1.125,1.125,0,0,0-.495-.247c-.99-.247-1.979-.495-3-.7A1.611,1.611,0,0,0,1449.08,1497Z" transform="translate(-731.971 -756.177)" fill="#78c1d0"/>
    <path id="Path_784" data-name="Path 784" d="M1413.88,1509.247l.99.346a41.119,41.119,0,0,1,8.616,4.211c1.207.772,2.42,1.608,3.622,2.474.777.559,1.549,1.208,2.316,1.846.658.544,1.312,1.118,1.979,1.707.777.7,1.549,1.415,2.311,2.167.638.638,1.267,1.331,1.9,2.009.341.371.866.421,1.039.074a1.727,1.727,0,0,0-.287-1.707,14.726,14.726,0,0,0-1.138-1.257c-1.049-1.044-2.1-2.1-3.162-3.078-.96-.881-1.93-1.712-2.91-2.474-1.237-.99-2.474-1.94-3.736-2.806a47.086,47.086,0,0,0-8.269-4.587c-.445-.188-.886-.361-1.331-.53a.218.218,0,0,0-.208,0q-.886.757-1.757,1.529Z" transform="translate(-714.175 -761.54)" fill="#78c1d0"/>
    <path id="Path_785" data-name="Path 785" d="M1394.07,1536.362a17.85,17.85,0,0,1,1.692-.688,27.13,27.13,0,0,1,2.9-.7,14.322,14.322,0,0,1,4.117-.03,24.005,24.005,0,0,1,10.2,3.89c.307.193.609.4.916.614.495.332.9.143.99-.435a1.885,1.885,0,0,0-.683-1.643c-.718-.495-1.44-.99-2.163-1.42a25.846,25.846,0,0,0-7.423-3.108,18.765,18.765,0,0,0-5.117-.495,14.663,14.663,0,0,0-3.632.579c-.173.049-.3.267-.391.465-.45.93-.886,1.881-1.321,2.826a1.42,1.42,0,0,0-.079.149Z" transform="translate(-704.184 -774.022)" fill="#78c1d0"/>
    <path id="Path_786" data-name="Path 786" d="M1429.114,1610.677c-.208,1.044-.45,2.069-.629,3.142-.223,1.326-.4,2.687-.584,4.043a75.389,75.389,0,0,0-.614,8.492q-.089,3.924.183,8.037c.069.99.772,1.846,1.356,1.638.292-.1.376-.45.351-.916-.064-1.346-.168-2.717-.173-4.033q0-3.029.074-6c.049-1.405.163-2.776.292-4.127.124-1.267.3-2.474.495-3.721a61.206,61.206,0,0,1,1.188-6.161,1.91,1.91,0,0,0-.589-1.682c-.495-.495-.955-.262-1.034.168s-.183.757-.272,1.138Z" transform="translate(-720.952 -812.805)" fill="#78c1d0"/>
    <path id="Path_787" data-name="Path 787" d="M1447.914,1677.434a1.952,1.952,0,0,0-.139-1.148c-.426-1.386-.881-2.766-1.267-4.152a76.812,76.812,0,0,1-1.767-8.1,75.025,75.025,0,0,1-.921-8.779c-.03-.653-.04-1.3-.054-1.94a1.98,1.98,0,0,0-.876-1.673c-.495-.257-.836.035-.832.737a65.94,65.94,0,0,0,.4,6.676,82.561,82.561,0,0,0,1.717,10.15c.559,2.415,1.262,4.825,2.049,7.225a2.607,2.607,0,0,0,.663,1.237C1447.34,1678.067,1447.776,1678,1447.914,1677.434Z" transform="translate(-728.425 -834.246)" fill="#78c1d0"/>
    <path id="Path_788" data-name="Path 788" d="M1465.644,1630.9v1.326a19.714,19.714,0,0,1-.332,3.8c-.163.782-.346,1.549-.47,2.365-.158,1.059-.282,2.153-.391,3.251a37.312,37.312,0,0,0-.035,5.938,44.045,44.045,0,0,0,.643,5.132,1.708,1.708,0,0,0,1.069,1.43c.475.084.713-.411.579-1.138a39.676,39.676,0,0,1-.579-4.454,37.887,37.887,0,0,1,0-5.612,39.632,39.632,0,0,1,.822-5.295,22.807,22.807,0,0,0,.371-5.587,1.98,1.98,0,0,0-.817-1.485.544.544,0,0,0-.861.332Z" transform="translate(-739.667 -823.591)" fill="#78c1d0"/>
    <path id="Path_789" data-name="Path 789" d="M1433.375,1577.414a22.975,22.975,0,0,0-5.32-3.82c-.327-.158-.653-.322-.99-.465-.435-.2-.752.03-.816.579a2.142,2.142,0,0,0,.559,1.519.871.871,0,0,0,.3.208,16.058,16.058,0,0,1,3.429,1.979,24.79,24.79,0,0,1,3.039,2.657,32.842,32.842,0,0,1,3.84,4.785,33.492,33.492,0,0,1,2.435,4.335,2.009,2.009,0,0,0,.787.99.46.46,0,0,0,.728-.242,1.559,1.559,0,0,0-.109-1.306,39.231,39.231,0,0,0-4.87-7.918,37.053,37.053,0,0,0-3.014-3.3Z" transform="translate(-720.438 -794.596)" fill="#78c1d0"/>
    <path id="Path_790" data-name="Path 790" d="M1457.566,1602.417a2.306,2.306,0,0,0-.119-1.222c-.322-1.292-.633-2.583-1.024-3.87a46.909,46.909,0,0,0-4.207-9.615,44.207,44.207,0,0,0-4.152-6.122c-.262-.322-.53-.624-.8-.93-.381-.44-.881-.376-1.039.094a1.979,1.979,0,0,0,.455,1.712,44.665,44.665,0,0,1,8.724,16.766c.2.742.346,1.485.495,2.232a2.062,2.062,0,0,0,.668,1.217c.381.3.688.287.9-.049a.413.413,0,0,0,.044-.079A.45.45,0,0,0,1457.566,1602.417Z" transform="translate(-730.51 -798.284)" fill="#78c1d0"/>
    <path id="Path_791" data-name="Path 791" d="M1458.643,1634.23c0-.337.025-.767.059-1.178.079-.99.163-1.979.267-2.925.163-1.514.495-2.9.772-4.315a24.019,24.019,0,0,0-.495-10.283c-.139-.554-.3-1.109-.455-1.663-.2-.7-.723-1.247-1.163-1.217s-.584.668-.386,1.336a24.437,24.437,0,0,1,1.128,8.314,18.317,18.317,0,0,1-.4,2.657c-.223,1.128-.416,2.291-.6,3.464a36.011,36.011,0,0,0-.4,4.617,2.124,2.124,0,0,0,.648,1.514C1458.069,1634.9,1458.5,1634.8,1458.643,1634.23Z" transform="translate(-735.957 -814.594)" fill="#78c1d0"/>
    <path id="Path_792" data-name="Path 792" d="M1463.907,1687.227l1.643-.2c-.322-.564-.619-1.079-.911-1.6a41.4,41.4,0,0,1-2.578-5.632,51.57,51.57,0,0,1-3.034-13.144,2.305,2.305,0,0,0-.406-1.163c-.3-.426-.619-.579-.91-.495s-.45.435-.386.96c.188,1.43.351,2.86.589,4.305a52.7,52.7,0,0,0,1.831,7.463,49.1,49.1,0,0,0,4.048,9.323A2.091,2.091,0,0,0,1463.907,1687.227Z" transform="translate(-736.129 -841.026)" fill="#78c1d0"/>
    <path id="Path_793" data-name="Path 793" d="M1495.5,1651.851c.158-.99.356-2.138.495-3.3a43.025,43.025,0,0,0,.272-7.74,56.355,56.355,0,0,0-.723-6.651,1.727,1.727,0,0,0-1.024-1.484c-.46-.119-.727.292-.638,1.029.148,1.173.346,2.36.465,3.524a42.163,42.163,0,0,1,.139,8.254c-.114,1.2-.277,2.361-.445,3.519-.1.678-.238,1.316-.376,1.979a1.945,1.945,0,0,0,.421,1.524c.411.495.876.589,1.089.218A5.991,5.991,0,0,0,1495.5,1651.851Z" transform="translate(-754.483 -824.702)" fill="#78c1d0"/>
    <path id="Path_794" data-name="Path 794" d="M1476.037,1617.466c.648.614,1.237.272,1.148-.589a50.808,50.808,0,0,0-1.173-6.78,64.575,64.575,0,0,0-1.94-6.547c-.732-2.073-1.569-4.1-2.474-6.1-.322-.7-.856-1.089-1.217-.891s-.45.861-.1,1.618q1.158,2.546,2.128,5.162c.673,1.846,1.262,3.711,1.747,5.582a48.485,48.485,0,0,1,1.237,6.349c.045.371.084.747.139,1.123A2.088,2.088,0,0,0,1476.037,1617.466Z" transform="translate(-742.568 -806.44)" fill="#78c1d0"/>
    <path id="Path_795" data-name="Path 795" d="M1443.9,1616.525v.614a8.6,8.6,0,0,1-.149,3.063c-.272,1.178-.549,2.351-.752,3.588s-.351,2.6-.495,3.929a1.91,1.91,0,0,0,.807,1.772c.44.272.8,0,.881-.619.149-1.207.272-2.43.495-3.588.248-1.42.579-2.766.851-4.167a10.661,10.661,0,0,0,0-3.687,1.915,1.915,0,0,0-.817-1.287C1444.374,1615.946,1444.048,1616.1,1443.9,1616.525Z" transform="translate(-728.646 -816.317)" fill="#78c1d0"/>
    <path id="Path_796" data-name="Path 796" d="M1481.224,1651.387a27.117,27.117,0,0,0,.708-5.488,2.029,2.029,0,0,0-.821-1.648c-.45-.277-.851,0-.871.643a27.213,27.213,0,0,1-.762,5.354,16.768,16.768,0,0,0-.366,4.8,1.841,1.841,0,0,0,.876,1.519c.436.228.792-.054.812-.663,0-.713,0-1.455.054-2.143.074-.826.208-1.613.312-2.42Z" transform="translate(-747.121 -830.503)" fill="#78c1d0"/>
    <path id="Path_797" data-name="Path 797" d="M1392,1622.79c0-1.089,0-2.133.045-3.142q.129-3.281.3-6.527c.059-1.094.173-2.153.262-3.222a2.093,2.093,0,0,0-.658-1.593c-.45-.366-.891-.3-.99.223a16.07,16.07,0,0,0-.188,1.668c-.1,1.43-.2,2.865-.287,4.31-.059,1.1-.1,2.227-.134,3.355a2.353,2.353,0,0,0,.158.718c.465,1.356.945,2.712,1.42,4.068a1.411,1.411,0,0,0,.074.144Z" transform="translate(-702.305 -812.284)" fill="#78c1d0"/>
    <path id="Path_798" data-name="Path 798" d="M1459.129,1696.848c-.584-1.321-1.153-2.559-1.678-3.82a51.383,51.383,0,0,1-1.979-5.681c-.178-.614-.341-1.232-.495-1.851a1.91,1.91,0,0,0-.787-1.208.495.495,0,0,0-.787.2,1.382,1.382,0,0,0,0,.955,59.953,59.953,0,0,0,1.8,5.909q.906,2.5,2.034,4.919c.089.2.168.3.312.317C1458.07,1696.669,1458.6,1696.763,1459.129,1696.848Z" transform="translate(-734.112 -850.721)" fill="#78c1d0"/>
    <path id="Path_799" data-name="Path 799" d="M1385.965,1556.375c.188-.6.356-1.227.564-1.806a16.861,16.861,0,0,1,1.544-3.251,11.517,11.517,0,0,1,4.6-4.325c.495-.248.495-1.331-.188-2.118-.287-.322-.584-.411-.832-.282a11.64,11.64,0,0,0-3.464,2.643,1.16,1.16,0,0,0-.2.445c-.4,1.44-.8,2.87-1.163,4.345-.287,1.158-.525,2.37-.772,3.563-.054.247-.079.495-.119.777Z" transform="translate(-700.072 -780.189)" fill="#78c1d0"/>
    <path id="Path_800" data-name="Path 800" d="M1432.844,1684.042c-.168-.708-.322-1.331-.495-1.979a86.973,86.973,0,0,1-1.707-9.185,2.018,2.018,0,0,0-.569-1.208c-.337-.337-.638-.416-.886-.213a.935.935,0,0,0-.218.916c.233,1.524.431,3.039.718,4.568.322,1.712.713,3.434,1.084,5.156a1.021,1.021,0,0,0,.213.441C1431.6,1683.077,1432.2,1683.547,1432.844,1684.042Z" transform="translate(-721.792 -844.244)" fill="#78c1d0"/>
    <path id="Path_801" data-name="Path 801" d="M1488.918,1684.173c-.2-.05-.406-.079-.614-.148-2.054-.658-3.8-2.608-5.008-5.592-.119-.287-.218-.589-.327-.881-.247-.688-.777-1.178-1.168-1.084s-.554.718-.322,1.4a17.629,17.629,0,0,0,2.855,5.444,9.9,9.9,0,0,0,3.232,2.732.249.249,0,0,0,.223,0c.4-.574.782-1.158,1.168-1.742Z" transform="translate(-748.284 -846.826)" fill="#78c1d0"/>
    <path id="Path_802" data-name="Path 802" d="M1475.528,1695.987c-.609-.876-1.207-1.693-1.767-2.568a29.208,29.208,0,0,1-2.593-5.206c-.213-.544-.411-1.089-.609-1.638-.262-.732-.772-1.173-1.222-1.054s-.495.752-.238,1.455a38.825,38.825,0,0,0,2.4,5.548,32.029,32.029,0,0,0,2.474,3.959c.054.079.168.153.218.134C1474.632,1696.4,1475.083,1696.19,1475.528,1695.987Z" transform="translate(-742.004 -851.394)" fill="#78c1d0"/>
    <path id="Path_803" data-name="Path 803" d="M1421.029,1503.625l1.217.594a55.248,55.248,0,0,1,5.78,3.326c.168.109.336.233.495.341.495.312.886.074.921-.544a2.064,2.064,0,0,0-.817-1.678,57.013,57.013,0,0,0-5.443-3.256c-.084-.045-.188-.094-.243-.059-.658.386-1.306.792-1.979,1.193A.545.545,0,0,1,1421.029,1503.625Z" transform="translate(-717.767 -758.872)" fill="#78c1d0"/>
    <path id="Path_804" data-name="Path 804" d="M1407.138,1516.269c.416.074.817.119,1.227.218.955.223,1.915.495,2.875.708.4.1.673-.223.663-.772a1.935,1.935,0,0,0-.668-1.455,3.6,3.6,0,0,0-.935-.376c-.465-.139-.92-.233-1.381-.341a.168.168,0,0,0-.163.03c-.539.629-1.079,1.267-1.618,1.905a.439.439,0,0,0,0,.084Z" transform="translate(-710.784 -764.886)" fill="#78c1d0"/>
    <path id="Path_805" data-name="Path 805" d="M1505.441,1590.369c-.079-.6-.144-1.178-.228-1.757q-.247-1.663-.495-3.33a2.019,2.019,0,0,0-.148-.495c-.193-.416-.381-.841-.6-1.232-.465-.807-1.222-.891-1.371-.168a1.842,1.842,0,0,0,.173,1.123q1.306,2.89,2.618,5.775A.65.65,0,0,1,1505.441,1590.369Z" transform="translate(-758.992 -799.564)" fill="#78c1d0"/>
    <path id="Path_806" data-name="Path 806" d="M1416.363,1674.138c-.074-.495-.153-.99-.218-1.485-.109-.772-.208-1.544-.312-2.316a2.044,2.044,0,0,0-.648-1.3c-.337-.307-.718-.317-.891,0a1.262,1.262,0,0,0-.138.678c.049.643.153,1.306.242,1.979a.524.524,0,0,0,.074.2c.584.722,1.173,1.435,1.762,2.148A.613.613,0,0,0,1416.363,1674.138Z" transform="translate(-714.328 -842.962)" fill="#78c1d0"/>
    <path id="Path_807" data-name="Path 807" d="M1508.076,1612.765c0-.6-.04-1.193-.079-1.8q-.1-1.722-.218-3.464a1.851,1.851,0,0,0-.6-1.247c-.4-.307-.787-.272-.94.089a1.483,1.483,0,0,0,0,1.084q.856,2.558,1.717,5.117a.649.649,0,0,0,.064.188Z" transform="translate(-760.79 -811.261)" fill="#78c1d0"/>
    <path id="Path_808" data-name="Path 808" d="M1476.263,1514.821a34.131,34.131,0,0,0-9.323-10.561A133.418,133.418,0,0,1,1476.263,1514.821Z" transform="translate(-740.993 -759.844)" fill="#78c1d0"/>
    <path id="Path_809" data-name="Path 809" d="M1509.073,1638.658c-.539-.247-.9.094-.831.792.119,1.222.272,2.474.411,3.692a.683.683,0,0,0,.069.153C1508.84,1641.726,1508.954,1640.207,1509.073,1638.658Z" transform="translate(-761.851 -827.692)" fill="#78c1d0"/>
    <path id="Path_810" data-name="Path 810" d="M1502.446,1568.57c-.6.079-.718.921-.277,1.752l1.114,2.083.069.04C1503.025,1571.143,1502.724,1569.866,1502.446,1568.57Z" transform="translate(-758.654 -792.329)" fill="#78c1d0"/>
    <path id="Path_811" data-name="Path 811" d="M3013.207,1135.278l-11.917-2.163v-79.6l11.917,2.158Z" transform="translate(-1516.036 -532.158)" fill="#ffcc8f"/>
    <path id="Path_812" data-name="Path 812" d="M3013.207,1038.9l45.107-16.806-11.511-1.782-45.513,16.43Z" transform="translate(-1516.036 -515.387)" fill="#ffb957"/>
    <path id="Path_813" data-name="Path 813" d="M3070.478,1023.91v72.781l-45.107,23.635v-79.61Z" transform="translate(-1528.2 -517.206)" fill="#fff"/>
    <path id="Path_814" data-name="Path 814" d="M3096.508,1057.87v72.781l-45.108,23.63v-79.605Z" transform="translate(-1541.348 -534.36)" fill="none" stroke="#fff" stroke-linecap="round" stroke-miterlimit="10" stroke-width="7.14"/>
    <path id="Path_815" data-name="Path 815" d="M1141.292,1308.8v44.538a229.867,229.867,0,0,0-23.912,12.2V1308.8a11.956,11.956,0,1,1,23.912,0Z" transform="translate(-564.42 -655.07)" fill="none" stroke="#000" stroke-miterlimit="10" stroke-width="0.92"/>
    <ellipse id="Ellipse_187" data-name="Ellipse 187" cx="59.964" cy="72.865" rx="59.964" ry="72.865" transform="translate(1001.274 362.231)" fill="#ffb957"/>
    <ellipse id="Ellipse_188" data-name="Ellipse 188" cx="53.377" cy="72.865" rx="53.377" ry="72.865" transform="translate(1001.264 362.231)" fill="#fff"/>
    <path id="Path_816" data-name="Path 816" d="M2423.773,1259.855l-33.587-8.25a4.167,4.167,0,0,0-5.167,4.053v31.375a4.171,4.171,0,0,0,3.177,4.048l33.587,8.255a4.171,4.171,0,0,0,5.166-4.048v-31.38A4.177,4.177,0,0,0,2423.773,1259.855Zm-2.445,30.113a3.058,3.058,0,0,1-3.781,2.969l-24.585-6.062a3.054,3.054,0,0,1-2.326-2.969v-22.962a3.053,3.053,0,0,1,3.786-2.969l24.585,6.037a3.053,3.053,0,0,1,2.321,2.969Z" transform="translate(-1204.741 -632.16)" fill="#00576b"/>
    <path id="Path_817" data-name="Path 817" d="M2418.753,1373.745,2367,1361.007a6.433,6.433,0,0,1-4.894-6.24v-48.324a6.434,6.434,0,0,1,7.963-6.24l51.749,12.674a6.433,6.433,0,0,1,4.9,6.245v48.344a6.433,6.433,0,0,1-7.967,6.28Z" transform="translate(-1193.168 -656.675)" fill="#2d9d9f"/>
    <path id="Path_818" data-name="Path 818" d="M2423.476,1355.249c0-3.766-2.242-6.819-5.008-6.819s-5.008,3.053-5.008,6.819a7.694,7.694,0,0,0,2.232,5.676v10.269a2.331,2.331,0,1,0,4.657,0v-9.615C2422.185,1360.554,2423.476,1358.115,2423.476,1355.249Z" transform="translate(-1219.107 -681.13)"/>
    <ellipse id="Ellipse_189" data-name="Ellipse 189" cx="6.295" cy="10.397" rx="6.295" ry="10.397" transform="translate(1228.445 893.768)" fill="#fff"/>
    <path id="Path_819" data-name="Path 819" d="M2413.45,1578.01v106.333l34.1,14.46" transform="translate(-1219.102 -797.097)" fill="none" stroke="#fff" stroke-linecap="round" stroke-miterlimit="10" stroke-width="4.08"/>
    <line id="Line_9" data-name="Line 9" x2="156.622" y2="36.046" transform="translate(1319.412 748.984)" fill="none" stroke="#fff" stroke-linecap="round" stroke-miterlimit="10" stroke-width="4.08"/>
    <line id="Line_10" data-name="Line 10" x2="399.678" y2="107.684" transform="translate(1362.674 1034.139)" fill="none" stroke="#fff" stroke-linecap="round" stroke-miterlimit="10" stroke-width="8.16"/>
    <line id="Line_11" data-name="Line 11" x2="74.513" y2="17.152" transform="translate(953.039 581.944)" fill="none" stroke="#fff" stroke-linecap="round" stroke-miterlimit="10" stroke-width="19.39"/>
    <path id="Path_820" data-name="Path 820" d="M2305.05,932.746l65.491,13.99V904.87" transform="translate(-1164.346 -457.075)" fill="none" stroke="#fff" stroke-linecap="round" stroke-miterlimit="10" stroke-width="4.08"/>
    <line id="Line_12" data-name="Line 12" x1="74.513" y1="17.152" transform="translate(612.32 479.214)" fill="none" stroke="#fff" stroke-linecap="round" stroke-miterlimit="10" stroke-width="4.08"/>
    <line id="Line_13" data-name="Line 13" x2="205.773" y2="47.364" transform="translate(733.836 531.027)" fill="none" stroke="#fff" stroke-linecap="round" stroke-miterlimit="10" stroke-width="4.08"/>
    <path id="Path_821" data-name="Path 821" d="M1908.364,943.558,1783.29,916V818.44" transform="translate(-900.79 -413.417)" fill="none" stroke="#fff" stroke-linecap="round" stroke-miterlimit="10" stroke-width="4.08"/>
    <path id="Path_822" data-name="Path 822" d="M2182.8,1238.049,2108.29,1220.9V1108.69" transform="translate(-1064.957 -560.031)" fill="none" stroke="#fff" stroke-linecap="round" stroke-miterlimit="10" stroke-width="4.08"/>
    <path id="Path_823" data-name="Path 823" d="M2698.79,1343.476c1.529,0,125.2-74.676,125.2-74.676" transform="translate(-1363.235 -640.907)" fill="none" stroke="#fff" stroke-linecap="round" stroke-miterlimit="10" stroke-width="4.08"/>
    <ellipse id="Ellipse_190" data-name="Ellipse 190" cx="5.815" cy="9.051" rx="5.815" ry="9.051" transform="translate(1460.777 617.852)" fill="#fff"/>
    <ellipse id="Ellipse_191" data-name="Ellipse 191" cx="5.815" cy="9.051" rx="5.815" ry="9.051" transform="translate(1476.034 775.979)" fill="#fff"/>
    <ellipse id="Ellipse_192" data-name="Ellipse 192" cx="5.815" cy="9.051" rx="5.815" ry="9.051" transform="translate(1037.519 530.557)" fill="#fff"/>
    <ellipse id="Ellipse_193" data-name="Ellipse 193" cx="5.815" cy="9.051" rx="5.815" ry="9.051" transform="translate(1129.327 463.987)" fill="#fff"/>
    <ellipse id="Ellipse_194" data-name="Ellipse 194" cx="5.815" cy="9.051" rx="5.815" ry="9.051" transform="translate(1007.569 521.57)" fill="#fff"/>
    <ellipse id="Ellipse_195" data-name="Ellipse 195" cx="5.815" cy="9.051" rx="5.815" ry="9.051" transform="translate(722.211 521.09)" fill="#fff"/>
    <ellipse id="Ellipse_196" data-name="Ellipse 196" cx="5.815" cy="9.051" rx="5.815" ry="9.051" transform="translate(600.69 468.292)" fill="none" stroke="#fff" stroke-linecap="round" stroke-miterlimit="10" stroke-width="4.08"/>
    <ellipse id="Ellipse_197" data-name="Ellipse 197" cx="5.399" cy="7.779" rx="5.399" ry="7.779" transform="translate(1627.653 819.626)"/>
    <ellipse id="Ellipse_198" data-name="Ellipse 198" cx="5.399" cy="7.779" rx="5.399" ry="7.779" transform="translate(1651.155 825.342)"/>
    <ellipse id="Ellipse_199" data-name="Ellipse 199" cx="5.399" cy="7.779" rx="5.399" ry="7.779" transform="translate(1674.656 831.058)"/>
    <ellipse id="Ellipse_200" data-name="Ellipse 200" cx="5.399" cy="7.779" rx="5.399" ry="7.779" transform="translate(1698.157 836.774)"/>
    <ellipse id="Ellipse_201" data-name="Ellipse 201" cx="5.399" cy="7.779" rx="5.399" ry="7.779" transform="translate(1721.659 842.494)"/>
    <ellipse id="Ellipse_202" data-name="Ellipse 202" cx="5.399" cy="7.779" rx="5.399" ry="7.779" transform="translate(1745.16 848.21)"/>
    <ellipse id="Ellipse_203" data-name="Ellipse 203" cx="5.399" cy="7.779" rx="5.399" ry="7.779" transform="translate(1768.662 853.926)"/>
    <ellipse id="Ellipse_204" data-name="Ellipse 204" cx="5.399" cy="7.779" rx="5.399" ry="7.779" transform="translate(1792.163 859.642)"/>
    <ellipse id="Ellipse_205" data-name="Ellipse 205" cx="5.399" cy="7.779" rx="5.399" ry="7.779" transform="translate(1815.67 865.358)"/>
    <ellipse id="Ellipse_206" data-name="Ellipse 206" cx="5.399" cy="7.779" rx="5.399" ry="7.779" transform="translate(1839.171 871.078)"/>
    <path id="Path_824" data-name="Path 824" d="M2120.41,846.581a9.087,9.087,0,0,1-.252-2.519c.332-4.028,1.618-6.082,4.053-6.235a7.037,7.037,0,0,0,3.118-1.247,3.11,3.11,0,0,0,.935-2.029c0-3.6-.158-7.2-.282-10.8a3.383,3.383,0,0,0-.411-1.643,1.436,1.436,0,0,0-.846-.648c-1.683-.495-3.36-1.109-5.062-1.524a1.862,1.862,0,0,1-1.247-.816,3.493,3.493,0,0,1-.43-1.43,3.061,3.061,0,0,0-.277-1.1c-1.292-2.786-.712-5.1.327-7.463.639-1.44,1.079-3.137,1.658-4.677a4.524,4.524,0,0,0,.064-3.321l-5.062-8.1a8.3,8.3,0,0,0-2.247,1.356,49.112,49.112,0,0,0-3.306,4.127,1.446,1.446,0,0,1-1.916.495,4.2,4.2,0,0,1-2.281-1.826,10.8,10.8,0,0,1-1.252-5.107c-.094-1.767-.535-3.5-.782-5.265a3.753,3.753,0,0,0-.455-1.485,1.207,1.207,0,0,0-1.138-.619c-1.93.089-3.855.163-5.795.2-.99,0-1.425.831-1.529,2.5-.168,2.85-.455,5.632-.643,8.482a3.519,3.519,0,0,1-1.044,2.41c-2.014,2.39-3.727,1.4-5.488-1.114a10.811,10.811,0,0,0-2.2-2.366,5.6,5.6,0,0,0-1.979-.554l-4.483,8.378a20.879,20.879,0,0,0,.54,3.464c.886,2.385,1.94,4.6,2.929,6.928.094.213.228.391.312.619.386,1.213-1.029,7.057-1.792,7.359-1.608.574-3.227,1.168-4.845,1.663-1.119.361-1.658,1.3-1.539,3.4.173,2.969.247,6.008.332,9.012a5.207,5.207,0,0,0,.549,2.509,1.757,1.757,0,0,0,1.178.812,36.686,36.686,0,0,1,4.949,1.485,1.95,1.95,0,0,1,.728.757,4.257,4.257,0,0,1,.356.7,10.826,10.826,0,0,1-.228,9.605,39.638,39.638,0,0,0-1.43,4.008,4.554,4.554,0,0,0-.1,3.306l4.889,7.824c.712.673,1.306.411,1.91-.371,1.2-1.569,2.474-2.994,3.672-4.6.693-.945,1.292-.861,2.192-.495a4.385,4.385,0,0,1,2.167,1.831,11.46,11.46,0,0,1,1.326,5.255c.114,1.653.495,3.256.7,4.889a4.372,4.372,0,0,0,.495,1.762,1.263,1.263,0,0,0,1.208.648q2.89-.1,5.795-.168c.866-.025,1.326-.718,1.43-2.207.218-3.014.421-6.057.737-9.041a3.983,3.983,0,0,1,.861-1.925c2.024-2.588,3.959-1.92,5.834.99a9.253,9.253,0,0,0,2.207,2.346,4.514,4.514,0,0,0,1.836.445c1.485-2.791,2.994-5.592,4.484-8.378a18.382,18.382,0,0,0-.539-3.464C2122.434,851.163,2121.35,848.951,2120.41,846.581Zm-10.279-3.464c-4.058,7.23-10.956,7.344-15.341.322l-.148-.233c-4.454-7.423-4.751-19.33-.7-26.683,3.87-7.022,10.655-7.829,15.465-.124,4.489,7.24,4.736,19.577.722,26.723" transform="translate(-1048.518 -396.376)" fill="#78c1d0"/>
    <path id="Path_825" data-name="Path 825" d="M3045.012,1105.451a5.444,5.444,0,0,0,.144-1.485c-.193-2.365-.95-3.568-2.38-3.662a4.123,4.123,0,0,1-1.831-.732,1.821,1.821,0,0,1-.544-1.188c0-2.118.089-4.231.163-6.344a1.979,1.979,0,0,1,.238-.99.866.866,0,0,1,.495-.381c.99-.282,1.979-.653,2.969-.9a1.073,1.073,0,0,0,.732-.495,2.031,2.031,0,0,0,.252-.836,1.96,1.96,0,0,1,.164-.648,4.928,4.928,0,0,0-.193-4.385c-.376-.846-.634-1.841-.99-2.742a2.638,2.638,0,0,1-.04-1.98q1.485-2.375,2.969-4.756a4.779,4.779,0,0,1,1.321.8,27.58,27.58,0,0,1,1.94,2.425.846.846,0,0,0,1.128.282,2.475,2.475,0,0,0,1.341-1.074,6.364,6.364,0,0,0,.737-3c.049-1.034.312-2.059.455-3.093a2.264,2.264,0,0,1,.267-.881.712.712,0,0,1,.668-.361c1.134.049,2.262.094,3.4.119.579,0,.836.495.9,1.485.1,1.673.267,3.311.376,4.983a2.073,2.073,0,0,0,.614,1.415c1.183,1.4,2.188.822,3.222-.653a6.394,6.394,0,0,1,1.292-1.391,3.273,3.273,0,0,1,1.153-.327l2.633,4.949a11.4,11.4,0,0,1-.317,2.029c-.495,1.4-1.138,2.7-1.722,4.053-.054.124-.128.228-.178.366-.228.708.6,4.142,1.049,4.32.945.336,1.9.683,2.846.99.658.213.99.767.906,1.979-.1,1.757-.149,3.528-.2,5.3a3.048,3.048,0,0,1-.322,1.484,1.034,1.034,0,0,1-.693.495,21.86,21.86,0,0,0-2.9.876,1.2,1.2,0,0,0-.43.445,2.674,2.674,0,0,0-.208.411,6.369,6.369,0,0,0,.134,5.642,22.614,22.614,0,0,1,.841,2.355,2.658,2.658,0,0,1,.054,1.945c-.955,1.534-1.91,3.058-2.87,4.592-.416.4-.767.238-1.124-.218-.7-.92-1.45-1.762-2.153-2.7-.411-.554-.757-.495-1.287-.3a2.608,2.608,0,0,0-1.277,1.074,6.7,6.7,0,0,0-.777,3.088c-.069.99-.292,1.915-.411,2.87a2.66,2.66,0,0,1-.3,1.039.752.752,0,0,1-.712.381q-1.693-.064-3.4-.1c-.495,0-.777-.421-.836-1.3-.129-1.772-.248-3.563-.436-5.315a2.323,2.323,0,0,0-.495-1.128c-1.188-1.519-2.316-1.128-3.429.579a5.272,5.272,0,0,1-1.3,1.376,2.563,2.563,0,0,1-1.074.262l-2.638-4.919a11.014,11.014,0,0,1,.322-2.049C3043.824,1108.138,3044.463,1106.842,3045.012,1105.451Zm6.032-2.024c2.385,4.246,6.434,4.315,9.012.188l.089-.139c2.613-4.35,2.791-11.352.411-15.673-2.277-4.122-6.26-4.6-9.086-.069-2.633,4.251-2.781,11.5-.426,15.692" transform="translate(-1535.792 -539.996)" fill="#78c1d0"/>
    <path id="Path_826" data-name="Path 826" d="M1369.132,1166.081l-7.28-19.3a1.98,1.98,0,0,0-.792-.99c-.307-.178-.619-.178-.787.079l-7.344,10.887c-.337.495.094,1.6.787,1.979l2.737,1.579c-3.865,10.105-14.143,13.015-26.164,6.077-9.215-5.32-17.815-15.529-22.937-27.307a6.316,6.316,0,0,0-2.44-2.9,2.475,2.475,0,0,0-1.658-.376c-1.351.277-1.717,2.177-.807,4.256,6.235,14.277,16.638,26.669,27.822,33.127,15.311,8.838,28.3,4.488,32.384-9.294l5.661,3.266C1369.029,1167.565,1369.464,1166.952,1369.132,1166.081Z" transform="translate(-657.65 -573.719)" fill="#ffb957"/>
    <path id="Path_827" data-name="Path 827" d="M1350.651,1091.494c-5.32-17.162-17.385-33.245-30.751-40.965-16.623-9.6-30.5-3.652-33.236,13.025l-4.825-2.786c-.683-.391-1.123.208-.787,1.1l7.26,19.3a1.94,1.94,0,0,0,.782.99c.312.178.619.178.792-.079l7.349-10.887c.337-.495-.094-1.608-.787-1.979l-3.776-2.182c2.652-12.956,13.856-17.41,27.218-9.7,11.021,6.364,20.968,19.617,25.352,33.765a6.5,6.5,0,0,0,2.7,3.6,2.841,2.841,0,0,0,1.178.4C1350.611,1095.19,1351.3,1093.582,1350.651,1091.494Z" transform="translate(-647.037 -528.329)" fill="#ffb957"/>
    <path id="Path_828" data-name="Path 828" d="M1767.349,676.12v2.717l2.286,1.321-.035,12.4a7.364,7.364,0,0,0,.223,1.559,6.661,6.661,0,0,0,.876,2.039,1.589,1.589,0,0,0-.886,1.039,4.625,4.625,0,0,0-.228,1.262l-.04,12.936-2.286-1.321v2.717l3.895,2.247a.7.7,0,0,0,.643.059c.208-.084.317-.4.317-.935l.04-13.362a2.37,2.37,0,0,1,.421-1.485.906.906,0,0,1,1.2-.183v-2.474a2.176,2.176,0,0,1-.732-.7,5.782,5.782,0,0,1-.495-.965,5.166,5.166,0,0,1-.3-.99,6.613,6.613,0,0,1-.074-.787l.034-12.867a2.177,2.177,0,0,0-.371-1.386,2.5,2.5,0,0,0-.579-.594Z" transform="translate(-892.693 -341.527)" fill="#e6560f"/>
    <path id="Path_829" data-name="Path 829" d="M1718.58,660.23l17.84,41.342,2.93,1.688L1721.5,661.922Z" transform="translate(-868.103 -333.501)" fill="#e6560f"/>
    <path id="Path_830" data-name="Path 830" d="M1702.923,653.718a.915.915,0,0,0-.569-.074c-.257.045-.376.351-.376.955l-.04,12.867a3.316,3.316,0,0,1-.089.688,1.574,1.574,0,0,1-.272.668,1.1,1.1,0,0,1-.465.406.915.915,0,0,1-.752-.158v2.474a3.356,3.356,0,0,1,1.178,1.559,5.538,5.538,0,0,1,.386,1.979l-.04,13.362a2.4,2.4,0,0,0,.312,1.3,1.894,1.894,0,0,0,.628.673l3.89,2.247v-2.717l-2.276-1.311.04-12.936a7.4,7.4,0,0,0-.208-1.514,6.044,6.044,0,0,0-.866-2.049,1.45,1.45,0,0,0,.876-1.029,4.4,4.4,0,0,0,.213-1.307l.035-12.4,2.276,1.316v-2.717Z" transform="translate(-858.9 -330.165)" fill="#e6560f"/>
    <rect id="Rectangle_246" data-name="Rectangle 246" width="61.255" height="4.741" rx="2.37" transform="translate(902.791 339.311) rotate(13.65)" fill="#ffe3c2"/>
    <rect id="Rectangle_247" data-name="Rectangle 247" width="61.255" height="4.741" rx="2.37" transform="translate(901.254 379.54) rotate(13.65)" fill="#ffe3c2"/>
    <rect id="Rectangle_248" data-name="Rectangle 248" width="39.243" height="4.741" rx="2.37" transform="translate(924.182 354.836) rotate(13.65)" fill="#ffb957"/>
    <rect id="Rectangle_249" data-name="Rectangle 249" width="39.243" height="4.741" rx="2.37" transform="translate(1172.007 382.562) rotate(13.65)" fill="#133852"/>
    <rect id="Rectangle_250" data-name="Rectangle 250" width="39.243" height="4.741" rx="2.37" transform="translate(1172.006 393.025) rotate(13.65)" fill="#133852"/>
    <rect id="Rectangle_251" data-name="Rectangle 251" width="15.099" height="4.741" rx="1.69" transform="translate(1216.203 393.29) rotate(13.65)" fill="#133852"/>
    <rect id="Rectangle_252" data-name="Rectangle 252" width="15.099" height="4.741" rx="1.69" transform="translate(1172.276 413.933) rotate(13.65)" fill="#133852"/>
    <rect id="Rectangle_253" data-name="Rectangle 253" width="36.68" height="4.741" rx="2.37" transform="translate(1235.639 398.742) rotate(13.65)" fill="#fff"/>
    <rect id="Rectangle_254" data-name="Rectangle 254" width="36.68" height="4.741" rx="2.37" transform="translate(1247.849 421.979) rotate(13.65)" fill="#fff"/>
    <rect id="Rectangle_255" data-name="Rectangle 255" width="72.454" height="4.741" rx="2.37" transform="translate(1171.701 403.664) rotate(13.65)" fill="#fff"/>
    <path id="Path_831" data-name="Path 831" d="M868.784,953.442a276.311,276.311,0,0,1,17.9-33.33q4.909-8,10.481-15.569c.866-1.173,1.737-2.341,2.628-3.494-.653.836.752-.955.876-1.113.782-.99,1.668-1.979,2.365-3.014,2.207-3.276,4.385-7.106,3.217-11.15-.8-2.776-3.133-4.2-5.859-4.454-4.033-.381-7.621,2.92-10.165,5.736a89.16,89.16,0,0,0-6.433,8.675q-5.646,8.022-10.575,16.524a195.124,195.124,0,0,0-15.836,36.383A6.2,6.2,0,0,0,861,956.01c2.608,1.049,6.537.332,7.8-2.559Z" transform="translate(-432.955 -445.164)" fill="#ffe3c2"/>
    <path id="Path_832" data-name="Path 832" d="M3556.792,935.386a28.264,28.264,0,0,1,10.323,1.44c1.792.648,3.657,1.084,5.444,1.742a18.684,18.684,0,0,1,4.395,2.153c3.276,2.029,6.542,4.2,9.655,6.468l.99.747c-1.484-1.1-.327-.257-.03,0,.634.529,1.277,1.049,1.9,1.589a42.767,42.767,0,0,1,4.5,4.33c2.737,3.187,5.656,6.2,8.3,9.482,1.376,1.707-.95-1.316.337.435l1.792,2.44c1.282,1.747,2.568,3.5,3.805,5.28,4.632,6.681,8.844,13.648,13.025,20.621,8.492,14.143,16.727,28.48,24.11,43.237,3.717,7.423,7.324,14.925,10.61,22.551l.495,1.2c.722,1.673-1.059-2.568-.376-.881.326.807.663,1.608.99,2.41q1.218,3.014,2.37,6.052,2.138,5.661,4,11.417a208.6,208.6,0,0,1,6.775,26.654c.8,4.365,1.668,8.675,2.583,13.015,1.1,5.2,1.93,10.536,5.063,14.975,2.128,3.024,4.993,5.072,8.843,5.072a10.393,10.393,0,0,0,8.844-5.072c2.969-4.909,3.627-10.734,3.608-16.4a90.506,90.506,0,0,0-1.2-15.247,199.356,199.356,0,0,0-5.939-24.63,283.116,283.116,0,0,0-20.671-49.73c-8.1-15.227-17.207-29.885-26.748-44.247-9.9-14.915-19.869-30.251-33.547-42.015-7.562-6.508-17.043-12.535-26.777-14.98-4.682-1.178-9.581-2.588-14.426-2.811a74.726,74.726,0,0,0-14.634.925c-2.9.445-4.686,3.929-4.285,6.572a5.973,5.973,0,0,0,5.879,5.191Z" transform="translate(-1793.638 -466.055)" fill="#ffe3c2"/>
    <path id="Path_833" data-name="Path 833" d="M2443.2,1173.877v124.094a43.019,43.019,0,0,1-18.973,35.789c-42.846,28.648-74.647,16.39-74.647,16.39-35.433-12.837-49.982-41.728-55.767-60.092,29.054-28.45,85.514-84.757,124.525-123.718A112.14,112.14,0,0,0,2443.2,1173.877Z" transform="translate(-1158.668 -589.151)" fill="#ffcc8f" opacity="0.21"/>
    <line id="Line_14" data-name="Line 14" x2="153.722" y2="43.227" transform="translate(1362.674 1054.676)" fill="none" stroke="#fff" stroke-linecap="round" stroke-miterlimit="10" stroke-width="8.16"/>
    <line id="Line_15" data-name="Line 15" x2="68.579" y2="19.285" transform="translate(1362.674 1078.336)" fill="none" stroke="#fff" stroke-linecap="round" stroke-miterlimit="10" stroke-width="20.41"/>
    <path id="Path_834" data-name="Path 834" d="M2189.578,1787.47s126.643,33.523,135.595,61.087c0,0-17.875-17.132-32.033,0s-22.348,292.776-22.348,292.776-114.018-29.866-119.378-64.714S2189.578,1787.47,2189.578,1787.47Z" transform="translate(-1086.509 -902.901)" fill="#ffa131"/>
    <path id="Path_835" data-name="Path 835" d="M2439.478,2049.685c-8.037,67.654-22.269,144.592-22.269,144.592s-39.892-20.334-56.079-29.534c-6.433-3.657-8.076-43.712-7.007-91.66,1.613-72.563,9.427-163.2,16.153-173.067,11.174-16.39,32.78-32.028,57.361-4.454,0,0,15.648,16.39,17.137,78.972C2445.228,1993.309,2442.922,2020.641,2439.478,2049.685Z" transform="translate(-1188.981 -949.892)" fill="#d04719"/>
    <path id="Path_836" data-name="Path 836" d="M2394.318,2222.38c-8.037,67.654-22.269,144.592-22.269,144.592s-82.243-18.311-98.43-27.51c-6.433-3.657-10.085-46.582-9.016-94.521C2320.453,2264.563,2367.055,2236.89,2394.318,2222.38Z" transform="translate(-1143.821 -1122.587)" fill="#9b2100" opacity="0.37"/>
    <path id="Path_837" data-name="Path 837" d="M1627.96,1998.981l-33.75,57.405,56.841,24.125,28.826-52.748S1636.358,1990.429,1627.96,1998.981Z" transform="translate(-805.28 -1009.099)" fill="#ff9f85"/>
    <path id="Path_838" data-name="Path 838" d="M2065.018,1578s-17.538,84.326-13.777,87.152,47.8,5.2,49.685-7.68,6.26-47.948-2.509-60.473S2065.018,1578,2065.018,1578Z" transform="translate(-1035.872 -797.092)" fill="#300"/>
    <path id="Path_839" data-name="Path 839" d="M1998.723,1705.691s.213,7.72-19.824,27.134-67.436,13.782-68.06,13.57c-.272-.089.886-9.121,2.286-19.3.8-5.825,1.677-12.03,2.415-17.177.188-1.3.361-2.524.525-3.657.673-4.7,1.133-7.854,1.133-7.854s47.958-29.128,68.268-36.314c5.127-1.821,8.492-2.237,8.878-.43h0c.356,1.688.728,4.286,1.1,7.423h0C1997.071,1682.546,1998.723,1705.691,1998.723,1705.691Z" transform="translate(-965.199 -838.765)" fill="#ff9f85"/>
    <path id="Path_840" data-name="Path 840" d="M1998.723,1705.666s.213,7.72-19.824,27.134-67.436,13.782-68.06,13.569c-.272-.089.886-9.12,2.286-19.3a36.867,36.867,0,0,1,4.073,2.771c29.539,22.848,73.241-22.146,73.142-30.682-.05-3.83-1.218-14.173-2.905-25.239-.6-3.959-1.267-8-1.979-11.877,5.127-1.821,8.492-2.237,8.878-.43h0c.356,1.688.728,4.286,1.1,7.423h0C1997.071,1682.521,1998.723,1705.666,1998.723,1705.666Z" transform="translate(-965.199 -838.74)" fill="#d04719" opacity="0.45"/>
    <path id="Path_841" data-name="Path 841" d="M1838.176,1556.919s-4.726,79.536-4.241,87.261,42.237-2.712,43.7-15.029,1.485-62.849-7.3-67.639S1838.176,1556.919,1838.176,1556.919Z" transform="translate(-926.354 -786.443)" fill="#300"/>
    <path id="Path_842" data-name="Path 842" d="M2000.287,1669.01h0c-8.908,12.194-34.606,44.147-60.785,45.83-9.937.638-15.836-1.554-19.122-4.983.95-6.641,1.658-11.511,1.658-11.511s75.27-45.721,77.146-36.739C1999.54,1663.3,1999.911,1665.9,2000.287,1669.01Z" transform="translate(-970.038 -838.734)" fill="#d04719"/>
    <path id="Path_843" data-name="Path 843" d="M1979.179,1931.952s-33.4,4.8-40.5,14.4-20.458,77.868-93.313,62.418-130.062-55.732-130.062-55.732l-3.34-66.615s-3.543,3.959-8.769.213l-46.76-37.16a10.231,10.231,0,0,1-4.488-2.969,6.2,6.2,0,0,1-.94-6.23c2.3-6.894,36.329-63.675,46.142-83.51s18.805-29.772,20.666-36.8,33.4-21.413,41.569-20.171,18.578,10.269,17.949,20.171c-.435,6.928,1.124,25.521,6.81,37.388,2.474,5.142,5.686,9.016,9.868,10.135l.6.154a56.3,56.3,0,0,0,16.266,1.42h0c10.541-.539,21.482-3.7,28.871-9.769,2.083-1.712,4.751-3.672,7.769-5.75,13.767-9.487,34.819-21.354,40.738-22.22a20.226,20.226,0,0,1,3.36-.208,27.826,27.826,0,0,1,14.51,4.573s1.386.99,3.608,2.613c4.949,3.613,13.995,10.432,20.992,16.766,1.866,1.688,3.583,3.34,5.043,4.889,9.4,9.972,19,24.372,28.806,48.992S1994.624,1936.337,1979.179,1931.952Z" transform="translate(-833.754 -858.575)" fill="#2d9d9f"/>
    <path id="Path_844" data-name="Path 844" d="M1997.017,1768.326a128.317,128.317,0,0,0-14.99,3.464c-6.928,2.064-14.292,5.028-19.646,9.18-13.436,10.442-47.463,21.715-47.463,26.723s5.216,34.864-6.681,48.22-12.4,27.975-15.494,26.931-8.309-14.614-7.052-26.51,17.118-46.271,13.362-47.389-23.19-6.478-26-2.717-17,44.88-48.527,39.456c0,0-3.514-1.2,1.9-3.316s24.026-14.43,27.04-22.363,13.441-22.126,11.56-23.591-12.867-14.134-11.56-28.806,15.341,15.935,17.934,19.765v.025c1.816,2.672,4.949,7.3,10.467,10.283a23.361,23.361,0,0,0,8.635,2.667c1.688.193,4.335-.287,7.631-1.247h0c9.4-2.737,24.021-9.368,36.62-15.519,12.52-6.107,23.046-11.748,24.432-12.629a148.454,148.454,0,0,1,16.237-8.413c1.193-.525,2.351-.99,3.429-1.391a27.827,27.827,0,0,1,14.51,4.573C1993.41,1765.713,1994.8,1766.693,1997.017,1768.326Z" transform="translate(-921.052 -889.607)" fill="#246166"/>
    <path id="Path_845" data-name="Path 845" d="M1908.929,1777.576c-2.143,1.866-14.445-3.192-20.745-14.495-5.444-9.774-4.489-21.487-2.405-28.96,1.034-3.707,2.351-6.369,3.3-7.24,2.865-2.628,15.836,13.332,15.836,13.332s-3.761,26.228,2.92,33.928C1909.305,1775.889,1909.558,1777.032,1908.929,1777.576Z" transform="translate(-951.728 -872.149)" fill="#ffe3c2"/>
    <path id="Path_846" data-name="Path 846" d="M2060.123,1733.733c-2.92-2.3-16.281,1.049-23.585,5.636s-40.505,24.635-54.075,28.6c-12.985,3.8-33.038.139-25.238-1.574.356-.079.762-.158,1.232-.223,10.853-1.593,53.021-36.408,58.033-43.425s3.019-20.151,3.019-20.151l-.44-4.761a23.055,23.055,0,0,1,4.414,1.148C2042.194,1705.763,2062.83,1735.861,2060.123,1733.733Z" transform="translate(-987.766 -857.627)" fill="#ffe3c2"/>
    <path id="Path_847" data-name="Path 847" d="M2026.639,1718.011c-3.335,10.838-43.989,47.136-67.619,48.389.356-.079.762-.158,1.232-.223,10.853-1.593,53.021-36.408,58.033-43.425s3.019-20.151,3.019-20.151l-.44-4.761a23.06,23.06,0,0,1,4.414,1.148A27.863,27.863,0,0,1,2026.639,1718.011Z" transform="translate(-989.556 -857.627)" fill="#ffc68d" opacity="0.5"/>
    <path id="Path_848" data-name="Path 848" d="M1910.61,1777.576c-10.808-3.657-7.8-30.321-14.272-35.136a52.229,52.229,0,0,1-8.878-8.319c1.034-3.707,2.351-6.369,3.3-7.24,2.865-2.628,15.836,13.332,15.836,13.332s-3.761,26.228,2.92,33.928C1910.986,1775.889,1911.239,1777.032,1910.61,1777.576Z" transform="translate(-953.409 -872.149)" fill="#ffc68d" opacity="0.5"/>
    <path id="Path_849" data-name="Path 849" d="M1947.309,1889.548c-8.626,7.517-11.338,24.843-11.338,24.843s-5.993-2.925-8.22-21.5-3.058-23.8,5.3-34.235c7.423-9.289,11.526-11.778,14.124-19.082.327-.906.624-1.88.906-2.969,0,0,1.044-8.863-.624-12.2-1.193-2.375,5.444.96,10.437,7.423a25.563,25.563,0,0,1,4.677,9.259C1965.609,1853.224,1955.935,1882.036,1947.309,1889.548Z" transform="translate(-973.001 -921.168)" fill="#ffe3c2"/>
    <path id="Path_850" data-name="Path 850" d="M1870.57,1826.763a6.086,6.086,0,0,0-4.1.4c-5.4,2.39-11.174,11.956-17.4,27.218-7.829,19.206-50.2,16.489-33.919,12.733s26.51-31.731,39.248-44.41c5.107-5.077,9.4-6.963,12.718-7.393a9.81,9.81,0,0,1,7.735,1.979S1877.152,1828.51,1870.57,1826.763Z" transform="translate(-915.017 -916.911)" fill="#ffe3c2"/>
    <path id="Path_851" data-name="Path 851" d="M1713.358,2010.072s-3.543,3.959-8.769.208l-46.76-37.16a10.23,10.23,0,0,1-4.488-2.969c15.905-4.2,40.391,31.177,47.409,26.431,7.225-4.894.822-51.318,4.909-50.1S1713.358,2010.072,1713.358,2010.072Z" transform="translate(-835.149 -983.213)" fill="#246166"/>
    <path id="Path_852" data-name="Path 852" d="M1956.944,2010.594s1.608,16.45,3.217,32.874.965,49.586,5.795,51.838,7.087,0,7.087,0,12.555-4.756,13.856.99,4.187,47.29-3.543,53.406-35.413,28.332-76.621,20.928-126.623-62.408-126.623-62.408l-1.262-25.179c23.259,10.12,46.741,19.706,70.559,28.411,29.6,10.818,85.38,36.413,99.964-8.591,7.458-22.982,1.024-49.4,1.257-73.053.05-5.444-.282-11.877,1.485-17.127C1952.466,2011.693,1956.583,2006.428,1956.944,2010.594Z" transform="translate(-898.547 -1014.808)" fill="#246166"/>
    <path id="Path_853" data-name="Path 853" d="M1650.58,2597.768l470.143-87.528v21.913L1650.58,2633.839Z" transform="translate(-833.755 -1267.993)" fill="#d04719"/>
    <path id="Path_854" data-name="Path 854" d="M789.45,2049.1l275.065-42.069,621.227,249.024L1215.6,2343.583Z" transform="translate(-398.773 -1013.807)" fill="#ffb957"/>
    <path id="Path_855" data-name="Path 855" d="M1336.11,2255.268c3.029,5.563,8.551,9.244,13.856,12.7l107.387,69.94c25.511,16.608,52.664,33.77,83.074,35.027,16.405.673,32.592-3.385,48.5-7.423l31.177-7.893c18.35-4.647,38.694-10.769,47.854-27.332,2.3-4.157,3.712-9.293,1.762-13.629-1.287-2.865-3.84-4.949-6.364-6.795-22.621-16.692-49.755-25.877-76.408-34.814-16.826-5.646-33.7-11.3-50.784-16.157a575.5,575.5,0,0,0-162.951-21.9C1362.234,2237.111,1324.169,2233.37,1336.11,2255.268Z" transform="translate(-673.749 -1129.88)" fill="#d4713a"/>
    <path id="Path_856" data-name="Path 856" d="M1502.373,2222.94,1296.09,2106.749l-3.692-13.465-36.8-134.274,196.152,90.566,15.366,7.1Z" transform="translate(-634.239 -989.551)" fill="#fff"/>
    <path id="Path_857" data-name="Path 857" d="M1838.984,2295.707,1683,2217.19s7.146,95.189,17.152,107.338,46.686,12.327,46.686,12.327Z" transform="translate(-850.131 -1119.965)" fill="#fff"/>
    <path id="Path_858" data-name="Path 858" d="M1749.214,2433.493l120.719-39.065V2375.85l-125.663,34.339Z" transform="translate(-881.08 -1200.109)" fill="#00576b"/>
    <path id="Path_859" data-name="Path 859" d="M1255.59,1956.575l14.292-2.385L1482.36,2049l-15.247,5.241Z" transform="translate(-634.234 -987.116)" fill="#ace3ea"/>
    <path id="Path_860" data-name="Path 860" d="M1698.267,2145.77l34.537,166.886-14.529,4.617-35.255-166.262Z" transform="translate(-850.141 -1083.889)" fill="#78c1d0"/>
    <ellipse id="Ellipse_207" data-name="Ellipse 207" cx="11.481" cy="22.601" rx="11.481" ry="22.601" transform="translate(716.549 1098.674) rotate(-73.98)" fill="#ffe3c2"/>
    <path id="Path_861" data-name="Path 861" d="M1545.44,2319.93l-200.982-113.207-3.6-13.119c29.5-7.918,105.947-28.965,155.261-42.584l14.97,6.928Z" transform="translate(-677.306 -1086.541)" fill="#ace3ea" opacity="0.18"/>
    <path id="Path_862" data-name="Path 862" d="M2031.526,2153.28s-.079,2.009-.218,5.443c-.7,17.088-2.969,69.6-5.567,89.325a48.235,48.235,0,0,1-1.079,6.1c-3.543,12.555-47.324,13.856-78.878,10.625s-86.271-14.455-90.789-13.193-42.5,18.677-54.09,20.29-36.62,13.856-36.62,13.856l-1.579-4.073-8.5-42.816s14.475-10.1,21.878-13.644,56.989.648,64.719-.96c1.648-.346,6.042-1.148,12.1-2.227,22.22-3.959,66.911-11.6,81.58-13.856,18.677-2.9,27.089-1.292,27.554-3.865s-1.485-42.821-1.485-42.821,0-11.59,22.858-18.35S2029.7,2140.621,2031.526,2153.28Z" transform="translate(-886.101 -1080.937)" fill="#ff9f85"/>
    <path id="Path_863" data-name="Path 863" d="M1767.957,2402.3l7.062-4.187c2.177-1.292,4.855-2.415,6.6-4.266a1.311,1.311,0,0,0-1.267-2.172c-2.445.683-4.686,2.524-6.839,3.855l-6.988,4.315a1.432,1.432,0,0,0,1.435,2.474Z" transform="translate(-891.98 -1208.081)" fill="#d04719"/>
    <path id="Path_864" data-name="Path 864" d="M1763.792,2373.565a71.419,71.419,0,0,0,8.324-4.983c2.291-1.633,5.785-3.519,6.993-6.112a1.178,1.178,0,0,0-1.307-1.7c-2.846.45-5.285,3.286-7.492,5.018a69.119,69.119,0,0,1-7.972,5.285,1.436,1.436,0,0,0,1.455,2.474Z" transform="translate(-889.848 -1192.475)" fill="#d04719"/>
    <path id="Path_865" data-name="Path 865" d="M1759.707,2351.013a72.914,72.914,0,0,1,7.423-5c2.474-1.445,5.483-2.578,7.2-4.924.708-.99-.46-1.955-1.391-1.806-2.747.435-5.528,2.677-7.779,4.291a63.951,63.951,0,0,0-6.631,5.914C1757.762,2350.231,1758.811,2351.691,1759.707,2351.013Z" transform="translate(-888.148 -1181.631)" fill="#d04719"/>
    <path id="Path_866" data-name="Path 866" d="M2242.165,2153.241s-.079,2.009-.218,5.443c-15.965-15.024-55.139-9.15-61.7-4.379-7.082,5.151-3.86,38.313-1.93,43.781s15.455,8.052,20.606,16.425,2.9,26.075,0,12.867-26.228-23.18-26.228-23.18c.46-2.578-1.485-42.821-1.485-42.821s0-11.59,22.858-18.35S2240.334,2140.583,2242.165,2153.241Z" transform="translate(-1096.74 -1080.899)" fill="#d04719"/>
    <path id="Path_867" data-name="Path 867" d="M2034.414,2357.938a48.249,48.249,0,0,1-1.079,6.1c-3.543,12.555-47.324,13.856-78.878,10.625s-86.271-14.465-90.789-13.2-42.5,18.677-54.09,20.29-36.62,13.856-36.62,13.856l-1.579-4.073c12.6-2.3,60.453-22.933,71.014-27.159a129.875,129.875,0,0,1,21.25-6.433c15.777-3.217,47.508,10.481,101.093,12.535S2034.414,2357.938,2034.414,2357.938Z" transform="translate(-894.774 -1190.818)" fill="#d04719"/>
    <path id="Path_868" data-name="Path 868" d="M789.45,2092.04V2121.7L1215.6,2422.595v-36.071Z" transform="translate(-398.773 -1056.748)" fill="#d4713a"/>
    <path id="Path_869" data-name="Path 869" d="M1023.768,1921.531q-2.608,13.089-4.488,26.3c-.589,4.117-1.118,8.24-1.613,12.372-.53,4.4-1.415,9.086-1.208,13.52a1.038,1.038,0,0,0,2.029.277c.99-4.132,1.1-8.611,1.579-12.832s.99-8.353,1.564-12.525c1.193-8.878,2.593-17.731,4.112-26.565.218-1.277-1.712-1.846-1.979-.544Z" transform="translate(-513.426 -970.249)" fill="#035958"/>
    <path id="Path_870" data-name="Path 870" d="M996.9,1912.354c-1.366,8.314-1.925,16.826-2.751,25.189-.421,4.251-.812,8.5-1.212,12.758-.416,4.38-1.109,8.848-.915,13.248a.761.761,0,0,0,1.485.2,88.2,88.2,0,0,0,1.435-11.976c.4-4.414.817-8.828,1.2-13.248.747-8.63,1.8-17.321,1.979-26.005,0-.668-1.089-.856-1.2-.163Z" transform="translate(-501.079 -965.763)" fill="#035958"/>
    <path id="Path_871" data-name="Path 871" d="M985.263,1692.66s-25.842-35.7-29.316-64.333,29.316-88.637,29.316-88.637,32.216,48.408,33.651,73.845S985.263,1692.66,985.263,1692.66Z" transform="translate(-482.746 -777.741)" fill="#035958"/>
    <path id="Path_872" data-name="Path 872" d="M973.088,1551.452c-.242.96,19.889-28.7,35.4-38.338s26.589-22.635,24.744-32.088-14.237-14.554-24.744-3.523S981.53,1517.791,973.088,1551.452Z" transform="translate(-491.533 -743.173)" fill="#13a497"/>
    <path id="Path_873" data-name="Path 873" d="M977.355,2063.653a136.805,136.805,0,0,1-73.8-2.118,10.912,10.912,0,0,1-7.7-10.417V1989.17h0a162.7,162.7,0,0,0,92.046,1.079l3.815-1.079v56.044a19.033,19.033,0,0,1-14.366,18.439Z" transform="translate(-452.524 -1004.786)" fill="#78c1d0"/>
    <path id="Path_874" data-name="Path 874" d="M909.21,2012.444s12.109,7.423,43.707,10.185,45.528-5.092,45.528-5.092V1999.32Z" transform="translate(-459.268 -1009.913)" fill="#133852"/>
    <path id="Path_875" data-name="Path 875" d="M991.67,2003.117h0c-35.745,7.839-64.62,7.839-100.83,0h0V1984.47h0c37.774,10.392,67.8,7.423,100.83,0Z" transform="translate(-449.988 -1002.412)" fill="#91d8e2"/>
    <path id="Path_876" data-name="Path 876" d="M902.692,1994.165a252.778,252.778,0,0,0,26.174,4.894c4.454.559,8.908,1.015,13.411,1.336,4.3.307,8.848.836,13.134.252.594-.079.574-1.074,0-1.178-4.132-.732-8.467-.559-12.654-.826-4.32-.272-8.635-.628-12.936-1.1-9.012-.99-18.033-2.306-26.906-4.182C902.39,1993.245,902.163,1994.042,902.692,1994.165Z" transform="translate(-455.823 -1006.896)" fill="#fff"/>
    <path id="Path_877" data-name="Path 877" d="M1023.582,2000.094a102.835,102.835,0,0,0,12.941-2.073c4.157-.945,8.73-1.915,12.55-3.84.584-.3.163-1.158-.431-1.024-4.191.99-8.245,2.653-12.441,3.687a127.687,127.687,0,0,1-12.728,2.425c-.465.069-.361.871.109.827Z" transform="translate(-516.833 -1006.792)" fill="#fff"/>
    <path id="Path_878" data-name="Path 878" d="M995.082,1786.506c-2.821-10.749-1.366-22.141.881-33.023a235.742,235.742,0,0,1,11.788-39.4c3.919-9.868,8.576-19.577,15.341-27.782s15.762-14.846,26.114-17.221c7.146-1.633,15.6-.747,20.324,4.86,2.969,3.519,3.959,8.368,3.687,12.966s-1.712,9.031-3.133,13.411l-8.586,26.431c-4.637,14.272-9.244,28.559-14.074,42.767-4.305,12.659-7.646,27.178-18.419,36.086C1014.273,1817.767,998.818,1800.724,995.082,1786.506Z" transform="translate(-501.858 -842.731)" fill="#13a497"/>
    <path id="Path_879" data-name="Path 879" d="M1041.43,1682.918s10.313-12.515,22.24-13.931,31.706,5.369,42.445,33.067,34.478,4.518,30.242-13.564-29.108-53.7-60.2-40.134S1041.43,1682.918,1041.43,1682.918Z" transform="translate(-526.056 -831.11)" fill="#56cbb8"/>
    <g id="Group_297" data-name="Group 297" transform="translate(508.355 840.561)" opacity="0.39">
      <path id="Path_880" data-name="Path 880" d="M1028.49,1823.2c6.092-32.563,16.291-64.516,27.357-95.693,1.559-4.385,3.128-8.769,4.855-13.094,2.044-5.117,4.518-10,6.79-15a.572.572,0,1,0-.99-.574c-4.979,7.27-7.918,16.123-10.862,24.353q-4.073,11.328-7.829,22.764c-5.444,16.445-10.392,33.042-14.614,49.829-2.261,8.967-4.305,17.989-5.938,27.084-.143.817,1.094,1.163,1.247.346Z" transform="translate(-1027.247 -1698.544)" fill="#035958"/>
    </g>
    <path id="Path_881" data-name="Path 881" d="M1032.62,1917.184a59.878,59.878,0,0,1,29.811-17.454" transform="translate(-521.605 -959.607)" fill="none" stroke="#035958" stroke-miterlimit="10" stroke-width="0.38"/>
    <path id="Path_882" data-name="Path 882" d="M1042.59,1873.011a96.583,96.583,0,0,1,32.31-16.271" transform="translate(-526.642 -937.892)" fill="none" stroke="#035958" stroke-miterlimit="10" stroke-width="0.38"/>
    <path id="Path_883" data-name="Path 883" d="M1053.56,1833.226a82.289,82.289,0,0,1,33.765-18.686" transform="translate(-532.183 -916.575)" fill="none" stroke="#035958" stroke-miterlimit="10" stroke-width="0.38"/>
    <path id="Path_884" data-name="Path 884" d="M1069.57,1787.928a62.731,62.731,0,0,1,32.167-13.188" transform="translate(-540.27 -896.471)" fill="none" stroke="#035958" stroke-miterlimit="10" stroke-width="0.38"/>
    <path id="Path_885" data-name="Path 885" d="M1085.81,1750.369a43.256,43.256,0,0,1,28.7-6.211" transform="translate(-548.473 -880.83)" fill="none" stroke="#035958" stroke-miterlimit="10" stroke-width="0.38"/>
    <path id="Path_886" data-name="Path 886" d="M1052.72,1712.82a67.868,67.868,0,0,1,13.856,23.165" transform="translate(-531.759 -865.194)" fill="none" stroke="#035958" stroke-miterlimit="10" stroke-width="0.38"/>
    <path id="Path_887" data-name="Path 887" d="M1032.67,1743.61a95.611,95.611,0,0,1,15.836,31.316" transform="translate(-521.631 -880.747)" fill="none" stroke="#035958" stroke-miterlimit="10" stroke-width="0.38"/>
    <path id="Path_888" data-name="Path 888" d="M1014.18,1783.53a104.694,104.694,0,0,1,18.137,33.75" transform="translate(-512.291 -900.911)" fill="none" stroke="#035958" stroke-miterlimit="10" stroke-width="0.38"/>
    <path id="Path_889" data-name="Path 889" d="M1003.73,1828.13a151.7,151.7,0,0,1,19.493,30.38" transform="translate(-507.012 -923.44)" fill="none" stroke="#035958" stroke-miterlimit="10" stroke-width="0.38"/>
    <path id="Path_890" data-name="Path 890" d="M994.9,1868.5a187.7,187.7,0,0,1,19.765,28.277" transform="translate(-502.552 -943.832)" fill="none" stroke="#035958" stroke-miterlimit="10" stroke-width="0.38"/>
    <path id="Path_891" data-name="Path 891" d="M1104.73,1656.67c14.638.564,28.307,8.819,37.561,20.171s14.475,25.545,17.286,39.921" transform="translate(-558.03 -836.831)" fill="none" stroke="#035958" stroke-miterlimit="10" stroke-width="0.38"/>
    <path id="Path_892" data-name="Path 892" d="M1182,1750.706c4.375-6.077,7.369-14.351,9.021-21.636a47.192,47.192,0,0,0,15.623,9.437" transform="translate(-597.062 -873.402)" fill="none" stroke="#035958" stroke-miterlimit="10" stroke-width="0.38"/>
    <path id="Path_893" data-name="Path 893" d="M1164,1717.953a33.564,33.564,0,0,0,7.745-20.493,90.638,90.638,0,0,0,21.893,10.051" transform="translate(-587.969 -857.435)" fill="none" stroke="#035958" stroke-miterlimit="10" stroke-width="0.38"/>
    <path id="Path_894" data-name="Path 894" d="M1136.225,1683.141c1.014-7.987-.678-17.553-5.275-24.17a69.925,69.925,0,0,0,21.121-2.732" transform="translate(-571.275 -836.614)" fill="none" stroke="#035958" stroke-miterlimit="10" stroke-width="0.38"/>
    <path id="Path_895" data-name="Path 895" d="M922.22,1868.573c-2.336-6.6-6.765-12.619-10.947-18.182-4.32-5.745-9-11.209-13.678-16.667-9.427-10.986-18.662-22.269-25.308-35.225a81.376,81.376,0,0,1-7.354-20.2c-1.455-6.869-2.326-15.341,3.048-20.824,4.914-5,12.585-5.75,18.934-3.4,6.968,2.573,12.213,8.24,16.073,14.4,9.051,14.435,13.965,31.459,16.989,48.092.257,1.435,2.751,1.123,2.573-.346a127.532,127.532,0,0,0-15.039-46.023c-6.587-11.832-19.3-24.318-34.146-19.364a17.614,17.614,0,0,0-12.075,13.629c-1.326,7.215.495,14.98,2.712,21.844,4.7,14.614,13.465,27.49,23.051,39.323,5.691,7.017,11.753,13.723,17.563,20.641,3.073,3.667,6.077,7.423,8.873,11.288,2.687,3.736,4.949,7.75,7.611,11.506.366.495,1.346.228,1.1-.465Z" transform="translate(-434.836 -883.832)" fill="#13a497"/>
    <path id="Path_896" data-name="Path 896" d="M891.79,1936.687c-6.621-5.369-14.153-9.724-21.468-14.069-7.052-4.182-14.411-8.744-18.375-16.207a18.412,18.412,0,0,1-2.177-11.966c.569-2.969,3.078-2.153,5.3-1.6a30.969,30.969,0,0,1,5.938,2.153c7.423,3.578,13.485,9.546,18.805,15.722,3.246,3.756,6.245,7.7,9.254,11.644,3.182,4.172,6.156,8.769,9.828,12.525a1.467,1.467,0,0,0,2.3-1.767c-2.732-4.662-6.5-8.878-9.789-13.159-3.009-3.914-6.052-7.814-9.308-11.521-5.988-6.814-12.9-13.362-21.388-16.86-2.88-1.193-8.185-3.4-11.313-1.979-3.271,1.485-2.969,7.265-2.578,10.17,1.2,8.848,7.6,15.583,14.663,20.448,4.484,3.093,9.3,5.666,13.965,8.462,5.122,3.068,10.036,6.483,15.188,9.482.9.525,1.979-.787,1.143-1.485Z" transform="translate(-427.63 -954.257)" fill="#13a497"/>
    <path id="Path_897" data-name="Path 897" d="M859.872,1865.046a35.7,35.7,0,0,0-10.392-11.333c-2.534-1.762-9.259-6.681-12.144-3.2-3.222,3.895,2.7,7.23,5.389,8.655,5.765,3.053,11.941,6.636,18.246,8.413a.817.817,0,0,0,.624-1.485c-3.825-2.123-8.1-3.593-12.055-5.493q-2.969-1.43-5.938-2.969a28.18,28.18,0,0,1-3.009-1.623,5.891,5.891,0,0,1-1.905-1.707q-1.336-1.811.911-2.331.906-1.336,2.1-.668c.658.247,1.3.525,1.935.831.821.386,1.623.812,2.41,1.262a38.425,38.425,0,0,1,4.949,3.39,41.354,41.354,0,0,1,8.1,8.69.455.455,0,0,0,.787-.455Z" transform="translate(-422.489 -934.133)" fill="#035958"/>
    <path id="Path_898" data-name="Path 898" d="M1057.992,1951.418a61.806,61.806,0,0,1,10.783-17.964,40.95,40.95,0,0,1,7.364-6.631c2.554-1.752,7.082-4.949,10.338-4.206,5.157,1.153.035,8.2-1.9,10.155a43.017,43.017,0,0,1-8.646,6.295c-6.3,3.781-13.564,6.973-18.627,12.441-.628.678.208,1.93,1.039,1.346,6.191-4.38,12.614-8.136,19.1-12.055,5.162-3.113,10.729-6.819,12.867-12.738.851-2.341,1.024-5.053-1.168-6.681-2.331-1.732-5.3-.99-7.75,0a38.935,38.935,0,0,0-14.688,11.041,57.531,57.531,0,0,0-10.1,18.6c-.3.881,1.034,1.2,1.366.376Z" transform="translate(-533.7 -970.018)" fill="#035958"/>
    <path id="Path_899" data-name="Path 899" d="M1141.292,1308.8v423.645a11.956,11.956,0,0,1-23.912,0V1308.8a11.956,11.956,0,1,1,23.912,0Z" transform="translate(-564.42 -655.07)" fill="#003347"/>
    <path id="Path_900" data-name="Path 900" d="M1671.82,1067.775v51.358s24.744,12.164,36.319-1.381V1067.77Z" transform="translate(-844.483 -539.361)" fill="#004651"/>
    <path id="Path_901" data-name="Path 901" d="M1705.15,1243.48c-13.1,6.186-34.527,12.733-67.55,13.856-41.728,1.415-63.24-11.966-73.31-21.774a11.976,11.976,0,0,1,.2-17.286l17.568-16.524,33.651-31.622,36.319-1.381,5.666,5.043,50.972,45.419a14.7,14.7,0,0,1-3.519,24.269Z" transform="translate(-788.356 -590.369)" fill="#00576b"/>
    <path id="Path_902" data-name="Path 902" d="M1679.477,1173.853c-5.246,8.289-14.228,18.726-27.5,22.111-14.351,3.657-34.745,5.206-48.116,5.849l33.651-31.622,36.319-1.381Z" transform="translate(-810.155 -590.399)" fill="#003347"/>
    <rect id="Rectangle_256" data-name="Rectangle 256" width="23.912" height="367.635" rx="11.956" transform="translate(832.872 561.248) rotate(68.6)" fill="#00576b"/>
    <ellipse id="Ellipse_208" data-name="Ellipse 208" cx="18.162" cy="8.546" rx="18.162" ry="8.546" transform="translate(827.332 519.868)" fill="#00859b"/>
    <path id="Path_903" data-name="Path 903" d="M1930.329,1817.3s2.3,11.229-4.281,9.482a6.087,6.087,0,0,0-4.1.4c-1.232-3.806-.6-8.052.643-11.832A9.784,9.784,0,0,1,1930.329,1817.3Z" transform="translate(-970.495 -916.931)" fill="#ffc68d" opacity="0.5"/>
    <path id="Path_904" data-name="Path 904" d="M1979.249,1831.869c-2.2,3.523-6.2,6.235-10.719,7.71.327-.906.624-1.88.906-2.969,0,0,1.044-8.863-.624-12.2C1967.619,1822.046,1974.246,1825.381,1979.249,1831.869Z" transform="translate(-994.36 -921.176)" fill="#ffc68d" opacity="0.5"/>
    <path id="Path_905" data-name="Path 905" d="M1934.379,1819.394s-6.483,2.722-4.81,8.017,3.558,4.875,7.522,5.3,13.154,3.756,15.45,0a7.24,7.24,0,0,0-3.548-10.442A38.749,38.749,0,0,0,1934.379,1819.394Z" transform="translate(-974.54 -919.019)" fill="#ffe3c2"/>
    <path id="Path_906" data-name="Path 906" d="M2133.491,1923.008a70.32,70.32,0,0,1,10.476-29.692,72.179,72.179,0,0,1,9.556-12.05c3.707-3.791,8.21-6.611,11.981-10.269.99-.94,0-2.9-1.381-2.375-4.949,1.875-9.323,6.028-12.976,9.734a69.751,69.751,0,0,0-19.74,44.672c-.084,1.356,1.94,1.306,2.083,0Z" transform="translate(-1076.633 -943.85)" fill="#246166"/>
    <path id="Path_907" data-name="Path 907" d="M2215.153,1862.1a31.156,31.156,0,0,1,6.28-2.573c1.806-.525,3.959-.525,5.563-1.485a1.092,1.092,0,0,0-.257-1.979c-2.1-.436-4.355.609-6.285,1.4a34.5,34.5,0,0,0-6.087,3.306.782.782,0,0,0,.787,1.346Z" transform="translate(-1118.368 -937.499)" fill="#246166"/>
    <path id="Path_908" data-name="Path 908" d="M1977.585,1585.347c-4.385,10.234-12.941,8.977-12.941,8.977h0c-.213,3.657-2.85,7.918-6.928,12.288-11.911,12.867-36.051,26.768-46.953,29.88-8.447,2.415-16.613,3.919-24.417,2.425a31.923,31.923,0,0,1-16.5-8.908c-12.525-12.11-16.91-29.435-16.642-35.908s-.495-13.985-1.1-29.019c-.1-2.37-.114-4.6-.084-6.681a88.775,88.775,0,0,1,2.172-18.805c4.385-25.471,107.719-4.38,115.444,0S1981.969,1575.123,1977.585,1585.347Z" transform="translate(-935.499 -771.451)" fill="#ff9f85"/>
    <path id="Path_909" data-name="Path 909" d="M1977.573,1585.357c-4.385,10.234-12.941,8.977-12.941,8.977h0c-.213,3.657-2.851,7.918-6.928,12.288-.6-3.959-1.267-8-1.979-11.877-1.722-9.4-3.667-17.815-5.444-21.28-4.523-8.957-20.641-5.508-47.948-6.958-19.983-1.059-40.693-5.686-50.353-8.086a88.751,88.751,0,0,1,2.172-18.805c4.385-25.471,107.719-4.38,115.444,0S1981.958,1575.133,1977.573,1585.357Z" transform="translate(-935.487 -771.461)" fill="#d04719" opacity="0.45"/>
    <g id="Group_298" data-name="Group 298" transform="translate(1069.714 1045.906)" opacity="0.34">
      <path id="Path_910" data-name="Path 910" d="M2162.905,2137.773c1.326-3.989,5.938-6.988,9.155-9.373a61.475,61.475,0,0,1,10.734-6.315,63.722,63.722,0,0,1,11.8-4.058c3.959-.955,8.349-.866,12.2-2.163a1.037,1.037,0,0,0,0-1.979c-4.191-1.069-9.308.252-13.406,1.282a61.687,61.687,0,0,0-13.129,4.949,63.033,63.033,0,0,0-11.347,7.472c-3.152,2.593-6.785,5.711-7.314,9.977-.1.772,1.079.846,1.3.178Z" transform="translate(-2161.598 -2113.49)" fill="#fff"/>
    </g>
    <g id="Group_299" data-name="Group 299" transform="translate(1124.545 1048.468)" opacity="0.34">
      <path id="Path_911" data-name="Path 911" d="M2273.274,2120.569a31.707,31.707,0,0,1,9.066,1.183c2.5.718,4.815,2.172,7.423,2.474.54.069.673-.638.4-.99-1.787-2.167-5.043-2.994-7.67-3.637a33.716,33.716,0,0,0-9.2-.906.923.923,0,0,0,0,1.846Z" transform="translate(-2272.396 -2118.667)" fill="#fff"/>
    </g>
    <g id="Group_300" data-name="Group 300" transform="translate(821.667 977.171)" opacity="0.34">
      <path id="Path_912" data-name="Path 912" d="M1661.327,1977.3a82.242,82.242,0,0,1,10.887,4.271c2.831,1.361,5.938,3.87,9.051,4.256a1.152,1.152,0,0,0,.99-1.747c-1.9-2.751-6.339-4.251-9.313-5.543a87.271,87.271,0,0,0-10.887-3.885,1.374,1.374,0,0,0-.732,2.648Z" transform="translate(-1660.363 -1974.595)" fill="#fff"/>
    </g>
    <g id="Group_301" data-name="Group 301" transform="translate(870.976 869.585)" opacity="0.34">
      <path id="Path_913" data-name="Path 913" d="M1761.59,1807.8a81.042,81.042,0,0,1,7.68-27.134,88.768,88.768,0,0,1,6.76-11.555c2.583-3.761,6.042-6.978,8.413-10.852a.737.737,0,0,0-.99-.99c-3.657,2.385-6.433,6.5-8.908,10.026a78.06,78.06,0,0,0-7.423,13.055,84.579,84.579,0,0,0-7.116,27.465c-.089,1.039,1.485,1.02,1.608,0Z" transform="translate(-1760.003 -1757.192)" fill="#fff"/>
    </g>
    <path id="Path_914" data-name="Path 914" d="M2041.23,1587.29s12.317,22.269,10.857,29.925,4.593-.282,3.959-9.467,5.444-15.866,9.185-16.489S2041.23,1587.29,2041.23,1587.29Z" transform="translate(-1031.083 -801.785)" fill="#300"/>
    <g id="Group_302" data-name="Group 302" transform="translate(1071.331 911.83)" opacity="0.34">
      <path id="Path_915" data-name="Path 915" d="M2165.922,1858.3a73.692,73.692,0,0,1,9.521-8.339c3.246-2.361,6.9-4.043,10.16-6.329.495-.346.213-1.267-.436-1.039-3.835,1.336-7.5,4.083-10.724,6.5a75.564,75.564,0,0,0-9.4,8.339c-.549.574.317,1.44.871.871Z" transform="translate(-2164.865 -1842.558)" fill="#fff"/>
    </g>
    <path id="Path_916" data-name="Path 916" d="M2023.348,1617.551c-.772-14.708-9.868-58.84-14.579-77-5.636-21.715-14.965-59.5-38.6-83.925s-53.317-27.356-60.988-27.134c0,0-27.139-1.485-48,15.024s-30.682,42.8-26.1,54.278,69.935,16.707,105.215,14.618,36.952,11.06,39.664,39.036a268.263,268.263,0,0,1,.921,41.352c0,.416-.05.807-.069,1.183-.223,3.271-.43,5.063-.43,5.063s2.811,1.707,6.988,4.177c11.347,6.715,32.8,19.077,35.388,18.162C2023.334,1622.183,2023.522,1620.431,2023.348,1617.551Z" transform="translate(-926.391 -722.061)" fill="#5e1212"/>
    <path id="Path_917" data-name="Path 917" d="M1868.278,1637.41c-.252,2.5-.495,5.646.569,7.967s4.34,1.366,5.043-.658c.529-1.524.054-3.281-.366-4.79a9.8,9.8,0,0,0-2.172-3.791c-1.109-1.321-2.935-.114-3.073,1.272Z" transform="translate(-943.61 -826.172)" fill="#5e1212"/>
    <path id="Path_918" data-name="Path 918" d="M1950.88,1642.9c-1.529,1.049-1.742,2.608-1.712,4.345a9.423,9.423,0,0,0,.886,4.617,2.893,2.893,0,0,0,5.389-1.46,14.643,14.643,0,0,0-.406-3.385c-.143-1.331-.1-2.836-1.257-3.741a2.47,2.47,0,0,0-2.9-.376Z" transform="translate(-984.578 -829.71)" fill="#5e1212"/>
    <path id="Path_919" data-name="Path 919" d="M1897.877,1659.327c-.663,2.534-1.722,5.894-.327,8.373,1.089,1.93,3.642,3.528,5.864,3.162.668-.109.737-.99.366-1.4-1.292-1.485-3.464-1.485-4.271-3.513-.767-1.92-.247-4.4-.272-6.433a.7.7,0,0,0-1.361-.183Z" transform="translate(-958.16 -837.934)" fill="#d04719"/>
    <path id="Path_920" data-name="Path 920" d="M1899.847,1713.736c2.341-.144,4.687-.282,7.027-.282,2.069,0,4.32.495,6.315-.079a.738.738,0,0,0,.173-1.331c-1.915-1.029-4.365-.836-6.488-.737a30.024,30.024,0,0,0-7.19,1.208C1899.036,1712.707,1899.125,1713.781,1899.847,1713.736Z" transform="translate(-959.363 -864.388)" fill="#d04719"/>
    <path id="Path_921" data-name="Path 921" d="M1857.429,1608.367c1.366.445,2.786-.762,4.083-1.153a20.787,20.787,0,0,1,4.375-.757c2.722-.208,5.488.2,8.185-.183,1.044-.144.723-1.485,0-1.811-3.37-1.42-7.888-.812-11.382.03-2.2.535-5.765,1.757-6.5,4.182a.831.831,0,0,0,.569.99l.139.04a.708.708,0,0,0,.7-.183l.094-.1a.648.648,0,0,0-.282-1.069Z" transform="translate(-937.601 -810.03)" fill="#d04719"/>
    <path id="Path_922" data-name="Path 922" d="M1934.462,1608.4c3.231-.045,6.29-.173,9.437.821,2.969.925,5.167,3,7.958,4.132.817.337,1.4-.728,1.059-1.381-1.549-2.969-5.642-4.533-8.725-5.251a15.836,15.836,0,0,0-10.036.549c-.559.257-.262,1.133.307,1.128Z" transform="translate(-976.845 -811.32)" fill="#d04719"/>
    <g id="Group_303" data-name="Group 303" transform="translate(919.468 824.428)" opacity="0.42">
      <path id="Path_923" data-name="Path 923" d="M1862.248,1674.444a4.37,4.37,0,0,0,4.246-4.246l-.153-1.133a4.221,4.221,0,0,0-1.094-1.871l-.856-.668a4.3,4.3,0,0,0-2.143-.579,3.2,3.2,0,0,0-1.638.366,3.851,3.851,0,0,0-2.247,2.247,3.2,3.2,0,0,0-.366,1.638l.153,1.128a4.264,4.264,0,0,0,1.094,1.875l.856.663A4.251,4.251,0,0,0,1862.248,1674.444Z" transform="translate(-1857.993 -1665.943)" fill="#ce1b1b"/>
    </g>
    <g id="Group_304" data-name="Group 304" transform="translate(972.596 820.417)" opacity="0.42">
      <path id="Path_924" data-name="Path 924" d="M1968.176,1662.867c-.807,1.875-1.217,3.781-.233,5.7a5.275,5.275,0,0,0,4.454,2.969c3.553.119,5.9-3.41,6.433-6.557.7-4.038-2.553-7.977-6.829-6.988-3.088.713-5.161,3.677-5.889,6.626-1.044,4.241,2.776,7.25,6.755,6.928,3.395-.262,5.859-3.746,5.854-7.027,0-3.959-4.1-6.171-7.646-5.285a7.386,7.386,0,0,0,1.118,14.564c4.187.312,7.859-3.256,6.8-7.492a3.642,3.642,0,0,0-3.464-2.633,3.752,3.752,0,0,0-3.464,2.633c0-.267-.059-.183-.208.257a1.024,1.024,0,0,1,.6-.495,1.87,1.87,0,0,1,.495,0c.248,0,.144.317.257.386-.643-.4.287-.446-.064.1-.084.129-.376.282-.411.341.257-.44.876.495-.693-.257-3.083-1.514-.539-3.024-1.351-2.019.233-.287,1.485-1.336,2.024-.7l.99,1.732q-.148,1.485.158.312a1.109,1.109,0,0,0,.312-.495c-.228.213-.178.153.153-.183q-1.663,1.247-3.192-1.183c.069-.846,0-.9-.158-.153a1.483,1.483,0,0,0-.243.421q1.7-1.549,4.211,1.341a6.722,6.722,0,0,1,.1-.99c.445-3.583-5.5-5.186-6.928-1.876Z" transform="translate(-1965.35 -1657.838)" fill="#ce1b1b"/>
    </g>
    <line id="Line_16" data-name="Line 16" x2="160.23" y2="36.239" transform="translate(957.617 663.841)" fill="none" stroke="#fff" stroke-linecap="round" stroke-miterlimit="10" stroke-width="19.39"/>
    <line id="Line_17" data-name="Line 17" y1="43.034" x2="71.039" transform="translate(1335.555 635.955)" fill="none" stroke="#fff" stroke-linecap="round" stroke-miterlimit="10" stroke-width="4.08"/>
    <line id="Line_18" data-name="Line 18" y1="20.611" x2="35.517" transform="translate(1335.555 637.85)" fill="none" stroke="#fff" stroke-linecap="round" stroke-miterlimit="10" stroke-width="13.27"/>
    <path id="Path_925" data-name="Path 925" d="M3374.984,1180.984a19.409,19.409,0,0,0,18.875-18.874l-.673-5.018a18.844,18.844,0,0,0-4.855-8.329l-3.82-2.969a18.806,18.806,0,0,0-9.526-2.573,19.389,19.389,0,0,0-18.874,18.875l.673,5.018a18.84,18.84,0,0,0,4.854,8.329l3.82,2.969a18.776,18.776,0,0,0,9.526,2.578Z" transform="translate(-1695.266 -577.473)" fill="#fff"/>
    <path id="Path_926" data-name="Path 926" d="M3564.118,1351.258l.589-.6a6.7,6.7,0,0,0,1.771-4.276l-.218-1.6a6.042,6.042,0,0,0-1.554-2.667l-.589-.6-1.4-1.079-1.638-.683a5.206,5.206,0,0,0-2.751-.124,3.406,3.406,0,0,0-1.737.495,6.8,6.8,0,0,0-3.647,3.647,5.209,5.209,0,0,0-.594,2.652l.248,1.836.693,1.648,1.079,1.4,1.4,1.079,1.648.693a5.209,5.209,0,0,0,2.751.124,3.422,3.422,0,0,0,1.742-.47,5.162,5.162,0,0,0,2.217-1.425Z" transform="translate(-1794.392 -676.614)" fill="#fff"/>
    <path id="Path_927" data-name="Path 927" d="M3552.783,2056.711A23.032,23.032,0,0,0,3575.2,2034.3l-.8-5.938a22.4,22.4,0,0,0-5.76-9.9l-4.538-3.5a22.269,22.269,0,0,0-11.313-3.058,23.032,23.032,0,0,0-22.413,22.413l.8,5.938a22.483,22.483,0,0,0,5.765,9.9l4.538,3.5a22.273,22.273,0,0,0,11.313,3.058Z" transform="translate(-1783.29 -1016.267)" fill="#fff"/>
    <path id="Path_928" data-name="Path 928" d="M3288.687,2056.8c9.21,0,18.033-8.1,17.608-17.6s-7.735-17.6-17.608-17.6c-9.21,0-18.028,8.1-17.6,17.6S3278.819,2056.8,3288.687,2056.8Z" transform="translate(-1652.309 -1021.162)" fill="#fff"/>
    <path id="Path_929" data-name="Path 929" d="M1048.461,1125.862a33.175,33.175,0,0,0,5.666.727h.134l5.2-.7a3.9,3.9,0,0,0,.416-.089,19.764,19.764,0,1,0-24.308-24.3,1.689,1.689,0,0,1-.094.247l1.979-4.686a3.032,3.032,0,0,1-.282.495l3.019-3.91a1.855,1.855,0,0,1-.188.213,19.176,19.176,0,0,0,8.462,32.043Z" transform="translate(-522.497 -549.064)" fill="#fff"/>
    <path id="Path_930" data-name="Path 930" d="M2127.2,571.142c8.16,0,15.984-7.176,15.608-15.6s-6.859-15.608-15.608-15.608c-8.166,0-15.99,7.176-15.608,15.608S2118.45,571.142,2127.2,571.142Z" transform="translate(-1066.62 -272.734)" fill="#fff"/>
    <path id="Path_931" data-name="Path 931" d="M2681.257,1847.1c12.372,7.136,22.354,24.447,22.309,38.645s-21.383,29.994-22.507,30.821c-1.118-2.118-22.319-42.455-22.269-56.678S2668.88,1839.951,2681.257,1847.1Zm.648,37.828c6.794,3.919,12.327.767,12.372-7.042s-5.478-17.321-12.273-21.28-12.342-.792-12.372,7.032S2675.1,1880.99,2681.905,1884.925Z" transform="translate(-1343.03 -931.465)" fill="#ffe3c2"/>
    <line id="Line_19" data-name="Line 19" x2="88.354" y2="23.239" transform="translate(1375.387 935.778)" fill="none" stroke="#246166" stroke-linecap="round" stroke-miterlimit="10" stroke-width="8.16"/>
    <line id="Line_20" data-name="Line 20" x2="38.976" y2="10.254" transform="translate(1375.387 947.397)" fill="none" stroke="#246166" stroke-linecap="round" stroke-miterlimit="10" stroke-width="8.16"/>
    <line id="Line_21" data-name="Line 21" x2="34.23" y2="9.002" transform="translate(1425.933 960.269)" fill="none" stroke="#246166" stroke-linecap="round" stroke-miterlimit="10" stroke-width="8.16"/>
    <path id="Path_932" data-name="Path 932" d="M3114.4,2227.011c26.545-5.706,52.872-12.55,78.5-21.586a534.3,534.3,0,0,0,76.087-33.715,545.018,545.018,0,0,0,68.129-42.99c20.973-15.722,41.322-32.562,58.35-52.6,9.457-11.13,18.127-23.071,24.867-36.056a131.548,131.548,0,0,0,8.517-20.928,53.682,53.682,0,0,0,2.741-12.228c.262-3.543.5-7.1.554-10.65a10.385,10.385,0,0,0-9.031-10.229c-5.285-.713-9.734,2.474-11.427,7.458-.495,1.485-1.024,2.969-1.584,4.419a8.015,8.015,0,0,1-.856,2.182l.569-1.366c-.213.455-.431.906-.648,1.351a116.366,116.366,0,0,0-4.177,10.887q-.668,1.811-1.386,3.608c-.356.881-1.648,2.935.1-.2-.366.653-.619,1.42-.926,2.108-1.262,2.806-2.667,5.543-4.023,8.3a161.652,161.652,0,0,1-8.739,15.509q-2.306,3.613-4.786,7.116-1.356,1.915-2.761,3.8c-.386.525-.782,1.044-1.178,1.569-1.95,2.563,1.484-1.826-.139.173-15.495,19.325-33.76,35.987-53.229,51.234l-2.029,1.584c-2.365,1.846,2.227-1.7-.158.124-1.143.866-2.276,1.737-3.419,2.6q-4.113,3.108-8.24,6.2-7.918,5.938-16.024,11.58-16.544,11.55-33.864,21.948a703.529,703.529,0,0,1-70.633,36.8q-5.063,2.3-10.16,4.494l-1.569.673-1.569.668q1.262-.53-.218.094l-5.572,2.306q-10.353,4.285-20.849,8.18c-14,5.167-28.089,9.8-42.5,13.7a6.166,6.166,0,0,0,3.281,11.887Z" transform="translate(-1569.237 -1003.149)" fill="#ffe3c2"/>
  </g>
</svg>
