<svg xmlns="http://www.w3.org/2000/svg" xmlns:xlink="http://www.w3.org/1999/xlink" width="429.159" height="409.745" viewBox="0 0 429.159 409.745">
  <defs>
    <clipPath id="clip-path">
      <path id="Path_739" data-name="Path 739" d="M1701.754,2197.34s7.821,2.768,17.785,16.731,6.218,16.178,6.218,16.178-42.461,19.28-41.548,24.94-1.484,12.938-2.049,13.477-24.3-39.477-22-46.458C1668.708,2217.428,1701.754,2197.34,1701.754,2197.34Z" transform="translate(-1660.001 -2197.34)" fill="none"/>
    </clipPath>
    <clipPath id="clip-path-2">
      <path id="Path_745" data-name="Path 745" d="M1813.148,1578.55s-5.648,22.654,2.819,42.852,15.343,40.828,15.343,40.828-8.043,47.875-5.707,52.544,2.078,7.526,2.078,7.526h40.737s1.1-12.584,2.494-19.591,4.121-54.88,2.177-59.162-25.542-62.916-25.542-62.916Z" transform="translate(-1811.303 -1578.55)" fill="none"/>
    </clipPath>
    <clipPath id="clip-path-3">
      <path id="Path_751" data-name="Path 751" d="M1885.768,2398.624s6.844-4.69,24-4.509,16.731,4.509,16.731,4.509-9.443,45.667-4.333,48.262,9.579,8.823,9.68,9.6-46.216-3.633-50.5-9.6C1882.523,2437.154,1885.768,2398.624,1885.768,2398.624Z" transform="translate(-1881.35 -2394.11)" fill="none"/>
    </clipPath>
    <clipPath id="clip-path-4">
      <path id="Path_754" data-name="Path 754" d="M2106.54,1347.325s15.271,13.889,22.8,14.927,24.914-18.321,24.914-18.321l-4.318-13.749-19.536,7.157-8.584-8.04Z" transform="translate(-2106.54 -1329.3)" fill="none"/>
    </clipPath>
    <clipPath id="clip-path-5">
      <path id="Path_757" data-name="Path 757" d="M1727.362,1223.24l-8.722,8.6,6.488,27.245-41,4.224-19.463,2v-26.727l-3.964,3.374-22.5-21.271s13.754-17.645,19.721-22.474,8.564-5.55,12.962-6.329,12.326-3.227,12.326-3.227c35.665-6.858,54.12,24.766,54.12,24.766Z" transform="translate(-1638.2 -1187.688)" fill="none"/>
    </clipPath>
    <clipPath id="clip-path-7">
      <path id="Path_766" data-name="Path 766" d="M1798.458,923.467c-.231-.594-4.41-7.853,5.482-12.048s15.562-2.428,14.281-.244,4.671-1.21,9.561,1.752.809,5.187.809,5.187,5.859.818,5.881,4.7-4.683,6.035-4.683,6.035l-26.732,17.525s-9.117-4.451-9.759-13.238S1798.458,923.467,1798.458,923.467Z" transform="translate(-1793.249 -908.872)" fill="none"/>
    </clipPath>
    <clipPath id="clip-path-8">
      <path id="Path_769" data-name="Path 769" d="M1853.571,1037.275c-.5.034-.965.222-1.444.292l1.537,4.514.225.669s-2.544,4.932-5.024,5.711-10.1-3.375-10.1-3.375v-9.294a6.66,6.66,0,0,1-3.869.468,5.958,5.958,0,0,1-5.149-6.648,5.861,5.861,0,0,1,6.332-4.574s1.774,1.238,2.3.977,1.828-12.975,1.828-12.975,6.162,2.066,7.876,1.163,0-2.592,0-2.592,6.114.323,10.131.082a17.018,17.018,0,0,1,3.908,7.314C1864.225,1027.085,1861.254,1036.784,1853.571,1037.275Z" transform="translate(-1829.663 -1011.61)" fill="none"/>
    </clipPath>
    <clipPath id="clip-path-9">
      <path id="Path_802" data-name="Path 802" d="M1595.246,1387.81a31.952,31.952,0,0,0-10.317,21.146c-.779,13.233,25.95,36.846,25.95,36.846s2.452,9.342,5.634,10.9,7.826-1.817,10.177-2.6,6.868-2.854,5.907-4.931-2.066-4.671-1.644-5.45.357-3.114,0-5.188-7.1-5.709-7.1-5.709l-15.024-22.316,4.656-5.463Z" transform="translate(-1584.912 -1387.81)" fill="none"/>
    </clipPath>
  </defs>
  <g id="_08" data-name="08" transform="translate(-184.919 -61.585)">
    <path id="Path_727" data-name="Path 727" d="M1431.6,492.553a108.959,108.959,0,0,0-148.341-22.435l-71.183,49.661a108.987,108.987,0,0,1-29.225,14.443l-23.837,7.606a108.969,108.969,0,0,0-69.04,141.725h0a108.973,108.973,0,0,0,119.077,69.738l49.623-7.8a108.949,108.949,0,0,1,43.148,1.878l53.968,13.387a108.962,108.962,0,0,0,103.4-28.81l21.3-21.363a108.976,108.976,0,0,0,8.833-143.854C1470.843,542.977,1450.374,516.678,1431.6,492.553Z" transform="translate(-898.21 -373.47)" fill="#fff3dd"/>
    <ellipse id="Ellipse_187" data-name="Ellipse 187" cx="93.051" cy="13.923" rx="93.051" ry="13.923" transform="translate(192.463 433.794)" fill="#fff3dd"/>
    <path id="Path_728" data-name="Path 728" d="M1615.9,685.958l-12.282-5.081a62.805,62.805,0,0,0-.2-18.561l12.224-5.069a7.452,7.452,0,0,0,4.029-9.731l-5.991-14.445a7.449,7.449,0,0,0-9.731-4.029l-12.475,5.173a62.885,62.885,0,0,0-12.967-12.822l5.3-12.818a7.452,7.452,0,0,0-4.036-9.731l-14.45-5.975a7.452,7.452,0,0,0-9.731,4.038l-5.311,12.839a62.866,62.866,0,0,0-18.9.039l-5.228-12.606a7.449,7.449,0,0,0-9.731-4.029l-14.445,5.991a7.449,7.449,0,0,0-4.029,9.731l5.262,12.692a62.881,62.881,0,0,0-12.634,12.543l-12.359-5.122a7.451,7.451,0,0,0-9.731,4.036l-5.975,14.45a7.452,7.452,0,0,0,4.036,9.731l12.021,4.973a62.856,62.856,0,0,0-.2,18.942l-12.052,5a7.452,7.452,0,0,0-4.029,9.731l5.991,14.445a7.451,7.451,0,0,0,9.731,4.029l11.8-4.893a62.831,62.831,0,0,0,13.571,13.687l-4.746,11.471a7.45,7.45,0,0,0,4.038,9.731l14.45,5.975a7.452,7.452,0,0,0,9.731-4.036l4.736-11.449a62.88,62.88,0,0,0,18.609.031l4.839,11.667a7.454,7.454,0,0,0,9.731,4.029l14.445-5.991a7.452,7.452,0,0,0,4.029-9.731l-4.8-11.584a62.848,62.848,0,0,0,13.856-14l11.941,4.941a7.452,7.452,0,0,0,9.731-4.038l5.976-14.45A7.451,7.451,0,0,0,1615.9,685.958Zm-60.051,20.371a37.161,37.161,0,1,1,19.705-47.633A37.163,37.163,0,0,1,1555.845,706.329Z" transform="translate(-1212.161 -491.055)" fill="#ffbd66"/>
    <path id="Path_729" data-name="Path 729" d="M1645.128,673.8l-12.275-5.081a62.789,62.789,0,0,0-.2-18.56l12.224-5.071a7.45,7.45,0,0,0,4.029-9.731l-5.991-14.445a7.449,7.449,0,0,0-9.731-4.029l-12.472,5.166a62.887,62.887,0,0,0-12.967-12.822l5.3-12.818a7.452,7.452,0,0,0-4.036-9.731l-14.45-5.975a7.452,7.452,0,0,0-9.731,4.038l-5.311,12.839a62.866,62.866,0,0,0-18.9.039l-5.228-12.606a7.449,7.449,0,0,0-9.731-4.029l-14.447,5.989a7.452,7.452,0,0,0-4.027,9.731l5.262,12.692a62.877,62.877,0,0,0-12.634,12.543l-12.361-5.122a7.45,7.45,0,0,0-9.731,4.036l-5.976,14.45a7.452,7.452,0,0,0,4.036,9.731l12.021,4.973a62.857,62.857,0,0,0-.2,18.951l-12.05,5a7.452,7.452,0,0,0-4.029,9.732l5.991,14.445a7.45,7.45,0,0,0,9.731,4.029l11.8-4.893a62.829,62.829,0,0,0,13.571,13.687l-4.746,11.471a7.451,7.451,0,0,0,4.038,9.731l14.45,5.975a7.451,7.451,0,0,0,9.731-4.036l4.738-11.451a62.828,62.828,0,0,0,18.609.032l4.838,11.667a7.454,7.454,0,0,0,9.731,4.029l14.445-5.991a7.452,7.452,0,0,0,4.029-9.732l-4.8-11.584a62.853,62.853,0,0,0,13.856-14l11.941,4.941a7.452,7.452,0,0,0,9.731-4.038l5.975-14.45A7.45,7.45,0,0,0,1645.128,673.8Zm-60.044,20.371a37.161,37.161,0,1,1,19.705-47.633A37.163,37.163,0,0,1,1585.083,694.176Z" transform="translate(-1236.409 -480.971)" fill="#fad6a2"/>
    <path id="Path_730" data-name="Path 730" d="M2616.128,1311.278l-10.119-4.2a52.805,52.805,0,0,0-.171-15.907l10.094-4.176a6.257,6.257,0,0,0,3.389-8.174l-5.019-12.134a6.257,6.257,0,0,0-8.175-3.389l-10.378,4.294a52.789,52.789,0,0,0-10.616-10.534l4.42-10.657a6.257,6.257,0,0,0-3.384-8.176l-12.122-5.031a6.257,6.257,0,0,0-8.176,3.384l-4.389,10.585a52.794,52.794,0,0,0-15.878-.034l-4.461-10.781a6.257,6.257,0,0,0-8.174-3.389l-12.125,5.021a6.256,6.256,0,0,0-3.389,8.173l4.453,10.756a52.8,52.8,0,0,0-10.887,10.766l-10.476-4.343a6.255,6.255,0,0,0-8.176,3.382l-5.031,12.122a6.258,6.258,0,0,0,3.384,8.178l10.266,4.256a52.686,52.686,0,0,0-.17,15.585l-10.312,4.268a6.257,6.257,0,0,0-3.391,8.174l5.021,12.134a6.259,6.259,0,0,0,8.174,3.391l10.027-4.149a52.812,52.812,0,0,0,11.633,11.755l-4.033,9.731a6.255,6.255,0,0,0,3.382,8.176l12.13,5.031a6.259,6.259,0,0,0,8.178-3.384l4.062-9.8a52.787,52.787,0,0,0,15.627-.027l3.978,9.615a6.257,6.257,0,0,0,8.175,3.389l12.134-5.021a6.256,6.256,0,0,0,3.391-8.173l-3.99-9.622a52.777,52.777,0,0,0,11.394-11.493l9.9,4.109a6.257,6.257,0,0,0,8.176-3.384l5.031-12.122A6.257,6.257,0,0,0,2616.128,1311.278Zm-33.664-.215a31.2,31.2,0,1,1-16.548-39.994,31.2,31.2,0,0,1,16.548,39.994Z" transform="translate(-2062.102 -1021.943)" fill="#ffbd66"/>
    <path id="Path_731" data-name="Path 731" d="M2591.545,1301.13l-10.119-4.2a52.813,52.813,0,0,0-.171-15.907l10.093-4.176a6.257,6.257,0,0,0,3.391-8.174l-5.021-12.134a6.257,6.257,0,0,0-8.173-3.389l-10.38,4.3a52.787,52.787,0,0,0-10.614-10.534l4.418-10.657a6.254,6.254,0,0,0-3.382-8.176l-12.122-5.03a6.254,6.254,0,0,0-8.176,3.382l-4.391,10.585a52.777,52.777,0,0,0-15.877-.034l-4.461-10.78a6.257,6.257,0,0,0-8.175-3.391l-12.133,5.021a6.257,6.257,0,0,0-3.391,8.174l4.454,10.756a52.805,52.805,0,0,0-10.889,10.766l-10.474-4.343a6.259,6.259,0,0,0-8.178,3.384l-5.03,12.122a6.259,6.259,0,0,0,3.384,8.178l10.264,4.256a52.8,52.8,0,0,0-.171,15.586l-10.312,4.268a6.257,6.257,0,0,0-3.389,8.174l5.019,12.134a6.257,6.257,0,0,0,8.174,3.391l10.027-4.149a52.867,52.867,0,0,0,11.635,11.754l-4.034,9.731a6.259,6.259,0,0,0,3.384,8.178l12.13,5.03a6.257,6.257,0,0,0,8.176-3.384l4.063-9.8a52.792,52.792,0,0,0,15.627-.027l3.978,9.615a6.257,6.257,0,0,0,8.174,3.389l12.134-5.019a6.257,6.257,0,0,0,3.389-8.174l-3.985-9.632a52.74,52.74,0,0,0,11.4-11.493l9.9,4.109a6.257,6.257,0,0,0,8.176-3.384l5.03-12.121a6.257,6.257,0,0,0-3.377-8.185Zm-33.666-.215a31.2,31.2,0,1,1-16.547-39.993A31.2,31.2,0,0,1,2557.88,1300.915Z" transform="translate(-2041.709 -1013.535)" fill="#fad6a2"/>
    <rect id="Rectangle_246" data-name="Rectangle 246" width="97.343" height="5.45" rx="2.725" transform="translate(457.048 117.581)" fill="#fad6a2"/>
    <circle id="Ellipse_188" data-name="Ellipse 188" cx="9.468" cy="9.468" r="9.468" transform="translate(519.254 111.988) rotate(-5.65)" fill="#fff"/>
    <rect id="Rectangle_247" data-name="Rectangle 247" width="97.343" height="5.45" rx="2.725" transform="translate(457.048 136.518)" fill="#ffbd66"/>
    <circle id="Ellipse_189" data-name="Ellipse 189" cx="9.468" cy="9.468" r="9.468" transform="translate(470.535 144.494) rotate(-67.5)" fill="#fff"/>
    <rect id="Rectangle_248" data-name="Rectangle 248" width="97.343" height="5.45" rx="2.725" transform="translate(457.048 155.455)" fill="#fad6a2"/>
    <circle id="Ellipse_190" data-name="Ellipse 190" cx="9.468" cy="9.468" r="9.468" transform="translate(512.244 149.864) rotate(-5.65)" fill="#fff"/>
    <path id="Path_732" data-name="Path 732" d="M2508.2,1486a94.3,94.3,0,0,1-177.528,54.878l6.959-1.25a34.255,34.255,0,0,1-13.849-16.583c-.342-1.245-.663-2.5-.954-3.768a22.987,22.987,0,0,1-1.048-5.183l-.237,28.416,5.76-1.035c15.942,41.305,60.5,66.669,105.7,58.559a94.288,94.288,0,0,0,76.144-109.459Q2508.723,1488.259,2508.2,1486Z" transform="translate(-1925.192 -1232.176)" fill="#ffbd66"/>
    <path id="Path_733" data-name="Path 733" d="M1495.837,426.27l-6.214-27.735-5.376,2.312c-24.892-36.614-74.036-51.218-116.22-33.061a94.286,94.286,0,0,0-49.34,123.872q.927,2.16,1.951,4.246A94.3,94.3,0,0,1,1481.1,402.2L1474.614,405a34.227,34.227,0,0,1,17.243,13.011c.615,1.135,1.212,2.283,1.784,3.452A22.682,22.682,0,0,1,1495.837,426.27Z" transform="translate(-1087.166 -298.408)" fill="#ffbd66"/>
    <path id="Path_734" data-name="Path 734" d="M1701.754,2197.34s-33.046,20.088-41.6,24.868c-2.3,6.974,21.428,47,22,46.457s2.967-7.82,2.049-13.479,41.548-24.938,41.548-24.938,3.744-2.211-6.218-16.178S1701.754,2197.34,1701.754,2197.34Z" transform="translate(-1376.595 -1822.071)" fill="#f61d6b"/>
    <g id="Group_297" data-name="Group 297" transform="translate(283.406 375.269)" clip-path="url(#clip-path)">
      <path id="Path_735" data-name="Path 735" d="M1912.881,2118.807c-6.107-8.217-15.8-14.065-26.031-14.157l1.31,16.943a58.606,58.606,0,0,1,20.011,43.728c5.463-2.26,11.439-5.18,13.385-10.756a18.629,18.629,0,0,0,.683-6.979C1921.781,2137.354,1918.988,2127.022,1912.881,2118.807Z" transform="translate(-1848.121 -2120.475)" fill="#bf1d5f"/>
      <path id="Path_736" data-name="Path 736" d="M1691.15,2252.6l1.251,4.386,41.512-19.594-2.846-3.459Z" transform="translate(-1685.832 -2227.683)" fill="#ff71ab"/>
      <path id="Path_737" data-name="Path 737" d="M1705.85,2294.58l38.026-14.1-3.186-3.336Z" transform="translate(-1698.022 -2263.516)" fill="#bf1d5f"/>
      <path id="Path_738" data-name="Path 738" d="M1623.98,2305.36l-9.2,9.077,23.313,52.869a28.012,28.012,0,0,0,6.94-10.174c2.884-6.839-7.034-16.946-13.172-26.278S1623.98,2305.36,1623.98,2305.36Z" transform="translate(-1622.5 -2286.918)" fill="#bf1d5f"/>
    </g>
    <path id="Path_740" data-name="Path 740" d="M1887.672,1561.837l.589,2.008,12.673,43.414s-4.885,24.516-20.605,36.174-8.046,24.361-8.046,24.361,7.555,8.3,15.273,16.612c7.256,7.821,14.659,15.651,16.082,16.656,2.943,2.071,39.7-41.845,42.036-69.434s-34.953-75.746-34.953-75.746Z" transform="translate(-1551.082 -1290.126)" fill="#0f4396"/>
    <g id="Group_298" data-name="Group 298" transform="translate(319.334 273.719)" opacity="0.5">
      <path id="Path_741" data-name="Path 741" d="M1888.291,1602.53l12.673,43.414s-4.885,24.516-20.6,36.174-8.046,24.361-8.046,24.361,7.555,8.3,15.273,16.612c11.548-17.062,36.942-55.966,34.458-64.716C1919.673,1650.026,1898.931,1618.426,1888.291,1602.53Z" transform="translate(-1870.44 -1602.53)"/>
    </g>
    <path id="Path_742" data-name="Path 742" d="M1847.546,1580.633l-34.4-2.083s-5.648,22.654,2.819,42.852,15.343,40.828,15.343,40.828-8.043,47.875-5.707,52.544,2.078,7.526,2.078,7.526h40.737s1.1-12.584,2.494-19.591,4.121-54.88,2.177-59.162S1847.546,1580.633,1847.546,1580.633Z" transform="translate(-1502.065 -1308.925)" fill="#1545bc"/>
    <g id="Group_299" data-name="Group 299" transform="translate(309.237 269.625)" clip-path="url(#clip-path-2)">
      <path id="Path_743" data-name="Path 743" d="M2077.63,1711.584c1.009,6.363-6.829,81.988-6.829,81.988h13.649v-99.757l-23.871-37.754S2076.623,1705.219,2077.63,1711.584Z" transform="translate(-2018.022 -1642.827)" fill="#4c7bd8"/>
      <path id="Path_744" data-name="Path 744" d="M1760.65,1683.261c-4.936-4.417-5.218-11.913-5.137-18.536.106-8.75.266-17.755,3.712-25.807a4.857,4.857,0,0,1,1.812-2.455c1.166-.664,2.614-.341,3.954-.369a7.257,7.257,0,0,0,6.293-4.152l-6.417-1.619a13.846,13.846,0,0,0,7.331-11.922l-11.476,3.135a4.934,4.934,0,0,1-2.788.2c-1.5-.483-2.146-2.2-2.6-3.7q-5.88-19.4-11.761-38.808a92.3,92.3,0,0,1-3.84-16.069,43.065,43.065,0,0,1,1.258-16.6L1717.21,1571.5c1.173,8.536,8.091,15.222,10.333,23.54,1.18,4.372,1.005,8.979.823,13.5q-1.3,32.467-2.61,64.936c-.28,6.954-.365,14.553,3.9,20.048,4.485,5.776,12.4,7.444,19.671,8.239a168.3,168.3,0,0,0,32.257.422c3.718-.309,7.5-.761,10.892-2.32s6.378-4.406,7.225-8.041l-26.577-4.087C1768.694,1687.058,1763.992,1686.254,1760.65,1683.261Z" transform="translate(-1733.274 -1552.022)" fill="#113e99"/>
    </g>
    <path id="Path_746" data-name="Path 746" d="M1922.222,2446.887c-5.11-2.595,4.333-48.263,4.333-48.263s.418-4.328-16.731-4.509-24,4.509-24,4.509-3.244,38.53-4.413,48.263c4.282,5.975,50.6,10.38,50.5,9.6S1927.334,2449.482,1922.222,2446.887Z" transform="translate(-1560.203 -1985.247)" fill="#f61d6b"/>
    <g id="Group_300" data-name="Group 300" transform="translate(321.196 408.863)" clip-path="url(#clip-path-3)">
      <path id="Path_747" data-name="Path 747" d="M1856.788,2313.207c-9.03-4.823-19.342-7.683-29.524-6.628s-20.154,6.411-25.454,15.167l15.241,7.512a58.618,58.618,0,0,1,47.819,5.094c.84-5.847,1.383-12.485-2.428-17A18.832,18.832,0,0,0,1856.788,2313.207Z" transform="translate(-1815.39 -2321.342)" fill="#bf1d5f"/>
      <path id="Path_748" data-name="Path 748" d="M1907.22,2470.187l4.412,1.161,4.321-45.7-4.427.681Z" transform="translate(-1902.803 -2420.265)" fill="#ff71ab"/>
      <path id="Path_749" data-name="Path 749" d="M1945.7,2498.45l7.268-39.9-4.5,1.038Z" transform="translate(-1934.714 -2447.548)" fill="#bf1d5f"/>
      <path id="Path_750" data-name="Path 750" d="M1889.08,2692.748c-11.157.512-25.95-6.228-25.95-6.228l3.114,12.545,57.364,6.916a28.009,28.009,0,0,0-5.21-11.157C1913.986,2688.855,1900.237,2692.236,1889.08,2692.748Z" transform="translate(-1866.241 -2636.598)" fill="#bf1d5f"/>
      <rect id="Rectangle_249" data-name="Rectangle 249" width="8.695" height="6.834" transform="translate(13.771 51.109) rotate(-80.44)" fill="#ff71ab"/>
    </g>
    <path id="Path_752" data-name="Path 752" d="M2130.4,1337.341l-8.581-8.041-15.271,18.025s15.271,13.889,22.8,14.927,24.912-18.321,24.912-18.321l-4.318-13.749Z" transform="translate(-1746.906 -1102.229)" fill="#feb8c0"/>
    <g id="Group_301" data-name="Group 301" transform="translate(359.642 227.071)" clip-path="url(#clip-path-4)">
      <path id="Path_753" data-name="Path 753" d="M2152.61,1288.28a31.444,31.444,0,0,0-10.175-2.39,176.018,176.018,0,0,0-18.427-.579l-15.123.051-5.265,28.588c5.463-2.112,11.038-4.181,16.875-4.666,2.732-.225,5.463-.1,8.2-.246a42.247,42.247,0,0,0,20.962-6.9c2.641-1.746,5.163-3.893,6.474-6.774a5.416,5.416,0,0,0,.568-2.423C2156.595,1290.762,2154.583,1289.191,2152.61,1288.28Z" transform="translate(-2104.118 -1292.814)" fill="#f98c8f"/>
    </g>
    <path id="Path_755" data-name="Path 755" d="M1683.208,1188.621s-7.932,2.448-12.326,3.227-7,1.5-12.962,6.329-19.721,22.481-19.721,22.481l22.5,21.271,3.968-3.374v26.727l19.463-2,41-4.224-6.488-27.245,8.722-8.6,9.96-9.819S1718.873,1181.763,1683.208,1188.621Z" transform="translate(-1358.516 -984.76)" fill="#cc424f"/>
    <g id="Group_302" data-name="Group 302" transform="translate(279.684 202.894)" clip-path="url(#clip-path-5)">
      <path id="Path_756" data-name="Path 756" d="M1856.24,1132.126a30.05,30.05,0,0,0-11.792-.393L1829.8,1138.7a193.287,193.287,0,0,0,17.122,13.006,3.652,3.652,0,0,0,1.9.8,3.51,3.51,0,0,0,2.47-1.5,30.086,30.086,0,0,0,7.171-15.587,2.425,2.425,0,0,0-2.226-3.3Z" transform="translate(-1797.089 -1140.951)" fill="#fff"/>
    </g>
    <g id="Group_303" data-name="Group 303" transform="translate(279.684 202.894)" clip-path="url(#clip-path-5)">
      <path id="Path_758" data-name="Path 758" d="M1643.14,1346.353l24.182,24.127,1.445-1.229-23.875-24Z" transform="translate(-1642.297 -1318.35)" fill="#fff"/>
      <path id="Path_759" data-name="Path 759" d="M1661.2,1330.4l24.18,24.127,1.446-1.229-23.874-24Z" transform="translate(-1657.273 -1305.123)" fill="#fff"/>
      <path id="Path_760" data-name="Path 760" d="M2098.08,1306.673l1.263,1.417,23.43-24.434-1.144-1.726Z" transform="translate(-2019.566 -1265.84)" fill="#fff"/>
      <path id="Path_761" data-name="Path 761" d="M2084.71,1286.533l1.263,1.417,23.431-24.436-1.144-1.724Z" transform="translate(-2008.479 -1249.139)" fill="#fff"/>
    </g>
    <path id="Path_763" data-name="Path 763" d="M1828.559,918.1s4.075-2.219-.809-5.187-10.836.432-9.561-1.752-4.388-3.957-14.281.244-5.713,11.454-5.482,12.048c0,0-5.8.886-5.159,9.672s9.759,13.238,9.759,13.238l26.727-17.525s4.707-2.148,4.683-6.035S1828.559,918.1,1828.559,918.1Z" transform="translate(-1487.067 -753.565)" fill="#1545bc"/>
    <g id="Group_304" data-name="Group 304" transform="translate(306.155 155.293)" clip-path="url(#clip-path-7)">
      <path id="Path_764" data-name="Path 764" d="M1854.113,987.26a11.106,11.106,0,0,0-1.943.56.139.139,0,0,0,.019.048Z" transform="translate(-1842.111 -973.877)" fill="#0d3b84"/>
      <path id="Path_765" data-name="Path 765" d="M1854.781,954.129a8.025,8.025,0,0,0-3.667-1.024,2.174,2.174,0,0,1-1.117-.266c-.854-.6-.328-1.9-.28-2.942.075-1.69-1.465-3.107-3.119-3.5a11.218,11.218,0,0,0-5.043.359,6.221,6.221,0,0,0,2.284-2.561,1.491,1.491,0,0,0,.14-1.281c-.285-.575-1.07-.64-1.707-.623a27.425,27.425,0,0,0-7.319.906,9.989,9.989,0,0,0-5.822,4.258q.014-2.837.027-5.673a15.111,15.111,0,0,0-3.894,3.455,5.078,5.078,0,0,0-.758,4.879,11.108,11.108,0,0,1,1.943-.56l-1.924.608a.137.137,0,0,0-.019-.048,11.348,11.348,0,0,0-4.78,3.505,3.228,3.228,0,0,0-.89,2.5c.239,1.222,1.583,1.866,2.793,2.192a17.486,17.486,0,0,0,4.142.592,13.029,13.029,0,0,0-5.417,6.25,9.476,9.476,0,0,0,.512,8.1,15.589,15.589,0,0,0,5.378,4.832.891.891,0,0,0,1.205.027l25.129-15.377a13.386,13.386,0,0,0,2.954-2.206,4.482,4.482,0,0,0,1.313-3.331A4.163,4.163,0,0,0,1854.781,954.129Z" transform="translate(-1814.438 -936.162)" fill="#0d3b84"/>
    </g>
    <path id="Path_767" data-name="Path 767" d="M1858.167,1011.712c-4.017.241-10.131-.082-10.131-.082s1.707,1.688,0,2.592-7.876-1.163-7.876-1.163-1.311,12.716-1.828,12.975-2.3-.977-2.3-.977a5.864,5.864,0,0,0-6.332,4.574,5.959,5.959,0,0,0,5.149,6.648,6.656,6.656,0,0,0,3.869-.468v9.294s7.621,4.154,10.1,3.375,5.025-5.711,5.025-5.711l-.225-.669-1.536-4.514c.48-.07.946-.258,1.444-.292,7.683-.492,10.653-10.191,8.536-18.268A16.935,16.935,0,0,0,1858.167,1011.712Z" transform="translate(-1517.259 -838.793)" fill="#feb8c0"/>
    <g id="Group_305" data-name="Group 305" transform="translate(312.372 172.833)" clip-path="url(#clip-path-8)">
      <path id="Path_768" data-name="Path 768" d="M1866.318,968.761a31.868,31.868,0,0,0-24.888,3.845l6.7,17.129a23.1,23.1,0,0,0,4.084-10.15,9.53,9.53,0,0,0,9.62-1,1.837,1.837,0,0,1,2.269-.311,9.579,9.579,0,0,0,6.747-.469c1.392-.645,2.732-1.878,2.68-3.4a3.7,3.7,0,0,0-.854-2.049C1871.153,970.4,1868.715,969.395,1866.318,968.761Z" transform="translate(-1839.421 -975.232)" fill="#f98c8f"/>
    </g>
    <path id="Path_770" data-name="Path 770" d="M2456.033,2401.58a45.413,45.413,0,0,0-45.413,45.413h90.826A45.417,45.417,0,0,0,2456.033,2401.58Z" transform="translate(-1999.063 -1991.442)" fill="#d3961c"/>
    <path id="Path_771" data-name="Path 771" d="M2302.134,1137.741a3.211,3.211,0,0,0-3.927-2.289,2.722,2.722,0,0,0-.355.116,3.221,3.221,0,0,0-1.934,3.8l60.536,230.617a3.23,3.23,0,0,0,3.554,2.366,2.847,2.847,0,0,0,.369-.075,3.222,3.222,0,0,0,2.29-3.927Z" transform="translate(-1903.858 -941.387)" fill="#fec337"/>
    <path id="Path_772" data-name="Path 772" d="M2295.942,1140.454l60.533,230.617a3.23,3.23,0,0,0,3.554,2.366l-62.144-236.787A3.222,3.222,0,0,0,2295.942,1140.454Z" transform="translate(-1903.879 -942.469)" fill="#d3961c"/>
    <path id="Path_773" data-name="Path 773" d="M2452.643,2420.55a45.414,45.414,0,0,0-45.413,45.413h90.826A45.416,45.416,0,0,0,2452.643,2420.55Z" transform="translate(-1996.252 -2007.173)" fill="#eaa721"/>
    <path id="Path_774" data-name="Path 774" d="M2452.643,2437.27a45.414,45.414,0,0,0-45.413,45.413h90.826A45.416,45.416,0,0,0,2452.643,2437.27Z" transform="translate(-1996.252 -2021.039)" fill="#fec337"/>
    <path id="Path_775" data-name="Path 775" d="M2539.276,2536.85A28.281,28.281,0,0,0,2511,2565.125l56.567.007A28.283,28.283,0,0,0,2539.276,2536.85Z" transform="translate(-2082.306 -2103.618)" fill="#fff"/>
    <path id="Path_776" data-name="Path 776" d="M2578.693,2589.22a19.463,19.463,0,0,0-19.463,19.463h38.926A19.463,19.463,0,0,0,2578.693,2589.22Z" transform="translate(-2122.302 -2147.047)" fill="#fec337"/>
    <path id="Path_777" data-name="Path 777" d="M1982.783,1024.76a3.834,3.834,0,0,0-.545-.162,4.455,4.455,0,0,0-.548-.092,3.858,3.858,0,0,0-1.135.048,3.03,3.03,0,0,0-1.1.44,3.393,3.393,0,0,0-.867.821.3.3,0,0,0-.022.029.52.52,0,0,0,.854.592l.027-.039a2.423,2.423,0,0,1,.551-.625,2.1,2.1,0,0,1,.753-.382,3.031,3.031,0,0,1,.886-.113,3.246,3.246,0,0,1,.463.036,3.152,3.152,0,0,1,.442.089h.026a.341.341,0,0,0,.212-.649Z" transform="translate(-1640.698 -849.453)" fill="#6b2e00"/>
    <path id="Path_778" data-name="Path 778" d="M1910.282,1038.137a2.248,2.248,0,0,0-.248-.126c-.078-.036-.159-.065-.239-.1a3.8,3.8,0,0,0-.49-.135,4.1,4.1,0,0,0-1.012-.08,4.518,4.518,0,0,0-1,.171,4.958,4.958,0,0,0-.481.159,4.8,4.8,0,0,0-.461.2l-.041.02a.522.522,0,1,0,.512.91l.043-.024c.119-.065.235-.138.357-.2a3.057,3.057,0,0,1,.374-.171,3.684,3.684,0,0,1,.785-.21,3.308,3.308,0,0,1,.811-.015,3.118,3.118,0,0,1,.4.068c.065.019.131.034.193.056l.171.063.043.017a.341.341,0,0,0,.3-.609Z" transform="translate(-1580.63 -860.409)" fill="#6b2e00"/>
    <path id="Path_779" data-name="Path 779" d="M1971.573,1078.582c.183.913.415,2,2.329,1.478,2.6-.717-.784-5.8-.784-5.8C1971.837,1073.3,1971.392,1077.667,1971.573,1078.582Z" transform="translate(-1634.941 -890.615)" fill="#f98c8f"/>
    <path id="Path_780" data-name="Path 780" d="M1928.007,1067.5a1.525,1.525,0,1,0,2,.807A1.525,1.525,0,0,0,1928.007,1067.5Z" transform="translate(-1598.074 -885.023)" fill="#6b2e00"/>
    <path id="Path_781" data-name="Path 781" d="M1995.016,1058.568a1.521,1.521,0,1,0,1.166-.011A1.523,1.523,0,0,0,1995.016,1058.568Z" transform="translate(-1653.645 -877.616)" fill="#6b2e00"/>
    <path id="Path_782" data-name="Path 782" d="M1894.446,1092.614a3.073,3.073,0,1,0,2.984,3.15A3.073,3.073,0,0,0,1894.446,1092.614Z" transform="translate(-1568.393 -905.95)" fill="#f7727c"/>
    <path id="Path_783" data-name="Path 783" d="M1945.445,1123.611c2.732,0,4.381-3.211,4.381-3.211s-4.965-.389-6.909-.779S1942.722,1123.611,1945.445,1123.611Z" transform="translate(-1610.524 -928.327)" fill="#fff"/>
    <path id="Path_784" data-name="Path 784" d="M1858.382,1116.385a4.131,4.131,0,0,0-.179-.446,3.831,3.831,0,0,0-.246-.42,2.939,2.939,0,0,0-1.537-1.173,2.849,2.849,0,0,0-1.851.015,4.6,4.6,0,0,1,1.644.478,3.17,3.17,0,0,1,1.175,1.062,4,4,0,0,1,.386.715,6.95,6.95,0,0,1,.283.792c.16.548.27,1.125.4,1.721a5.12,5.12,0,0,0,.123-1.827A4.462,4.462,0,0,0,1858.382,1116.385Z" transform="translate(-1537.946 -923.852)" fill="#f98c8f"/>
    <path id="Path_785" data-name="Path 785" d="M1855.947,1121.742a1.841,1.841,0,0,0-.621.282,2.172,2.172,0,0,0-.768,1.038,2.391,2.391,0,0,0-.118,1.214c.2-.354.389-.683.6-.971a2.837,2.837,0,0,1,.683-.722,1.9,1.9,0,0,1,.884-.341,6.723,6.723,0,0,1,1.122-.015,2.064,2.064,0,0,0-1.113-.522A1.829,1.829,0,0,0,1855.947,1121.742Z" transform="translate(-1537.812 -930.062)" fill="#f98c8f"/>
    <path id="Path_786" data-name="Path 786" d="M1903.1,1155.348c-3.729-2.074,1.2,7.524,8.337,6.1q1.149-.229,2.059-.413l-1.537-4.514S1906.831,1157.424,1903.1,1155.348Z" transform="translate(-1577.129 -957.73)" fill="#f98c8f"/>
    <g id="Group_306" data-name="Group 306" transform="translate(302.188 243.936)" opacity="0.5">
      <path id="Path_787" data-name="Path 787" d="M1770.01,1441.313l3.966-3.374v26.727l19.461-2-11.159-34.582Z" transform="translate(-1770.01 -1428.08)"/>
    </g>
    <g id="Group_307" data-name="Group 307" transform="translate(355.193 227.071)" opacity="0.5">
      <path id="Path_788" data-name="Path 788" d="M2085.411,1349.278l8.722-8.6L2080.48,1329.3Z" transform="translate(-2080.48 -1329.3)"/>
    </g>
    <path id="Path_789" data-name="Path 789" d="M2327.709,1311.81c-1.4,0-2.53,1.888-2.53,4.215a6.332,6.332,0,0,0,.413,2.3c.447,1.151,1.229,1.914,2.117,1.914,1.4,0,2.53-1.878,2.53-4.219a5.443,5.443,0,0,0-1.067-3.44A1.937,1.937,0,0,0,2327.709,1311.81Z" transform="translate(-1928.209 -1087.725)" fill="#f98c8f"/>
    <path id="Path_790" data-name="Path 790" d="M2327.709,1311.81c-1.4,0-2.53,1.888-2.53,4.215a6.332,6.332,0,0,0,.413,2.3,1.937,1.937,0,0,0,1.463.778c1.4,0,2.53-1.888,2.53-4.215a6.333,6.333,0,0,0-.413-2.308A1.937,1.937,0,0,0,2327.709,1311.81Z" transform="translate(-1928.209 -1087.725)" fill="#feb8c0"/>
    <ellipse id="Ellipse_191" data-name="Ellipse 191" cx="3.783" cy="2.271" rx="3.783" ry="2.271" transform="translate(404.864 225.253)" fill="#f98c8f"/>
    <ellipse id="Ellipse_192" data-name="Ellipse 192" cx="3.783" cy="2.271" rx="3.783" ry="2.271" transform="translate(405.762 225.253)" fill="#feb8c0"/>
    <ellipse id="Ellipse_193" data-name="Ellipse 193" cx="4.541" cy="2.725" rx="4.541" ry="2.725" transform="translate(404.106 229.794)" fill="#feb8c0"/>
    <path id="Path_791" data-name="Path 791" d="M2374.673,1374.12c-2.151,0-3.893,1.047-3.893,2.336s1.741,2.335,3.893,2.335,3.891-1.045,3.891-2.335S2376.822,1374.12,2374.673,1374.12Z" transform="translate(-1966.025 -1139.397)" fill="#feb8c0"/>
    <ellipse id="Ellipse_194" data-name="Ellipse 194" cx="3.623" cy="2.173" rx="3.623" ry="2.173" transform="translate(406.71 239.2)" fill="#feb8c0"/>
    <path id="Path_792" data-name="Path 792" d="M2275.821,1097.113l-4.683,4.343-92.638,44.138,2.982,6.262.427.9,2.18,4.57,92.453-44.054,6.615-.755,23.347-11.126,1.878-5.656,1.716-5.161.193-.584-11.125-4Z" transform="translate(-1806.572 -900.458)" fill="#d8d8d8"/>
    <path id="Path_793" data-name="Path 793" d="M2295.2,1140.713l-4.683,4.343-92.047,43.856,2.18,4.57,92.453-44.054,6.616-.755,23.347-11.126,1.878-5.656-6.4-2.3Z" transform="translate(-1823.133 -936.614)" fill="#fff"/>
    <path id="Path_794" data-name="Path 794" d="M1566.812,1367.043l-2.981-6.259-7.3-15.3-20.325,9.684,2.561,5.364-58.348,27.8-17.284,8.236-17.438,8.306c-7.749,3.695-10.687,13.728-6.546,22.42l.268.451c4.268,8.354,13.658,12.207,21.264,8.582l17.436-8.306,17.286-8.239,58.339-27.794,2.627,5.514,20.325-9.683-7.287-15.3ZM1454.7,1408.861l86.387-41.164,2.609,5.463-86.388,41.164Zm8.519,17.885-2.6-5.463L1547,1380.119l2.609,5.463Z" transform="translate(-1191.896 -1115.646)" fill="#fec337"/>
    <rect id="Rectangle_250" data-name="Rectangle 250" width="95.699" height="6.057" transform="translate(262.811 293.195) rotate(-25.48)" fill="#ffdb92"/>
    <rect id="Rectangle_251" data-name="Rectangle 251" width="95.699" height="6.057" transform="translate(268.726 305.61) rotate(-25.48)" fill="#ffdb92"/>
    <g id="Group_308" data-name="Group 308" transform="translate(245.381 244.876)" opacity="0.4">
      <path id="Path_795" data-name="Path 795" d="M1491.692,1456.025l-11.268,5.363-5.366,2.561-11.918,5.678-17.438,8.306c-7.749,3.695-10.687,13.728-6.546,22.42l.268.451c4.268,8.354,13.658,12.207,21.264,8.583l17.436-8.306,13.6-6.488,3.683-1.755,18.852-8.984,39.486-18.811-14.985-31.453Z" transform="translate(-1437.278 -1433.59)" fill="#eaa51b"/>
    </g>
    <g id="Group_309" data-name="Group 309" transform="translate(283.164 266.171)" opacity="0.3">
      <path id="Path_796" data-name="Path 796" d="M1688.488,1572.036c-3.85-3.164-7.053-8.507-10.884-13.716l-13.658,6.508-5.366,2.561,16.67,30.647,3.682-1.755,18.85-8.992C1696.357,1583.671,1692.254,1575.135,1688.488,1572.036Z" transform="translate(-1658.58 -1558.32)"/>
    </g>
    <path id="Path_797" data-name="Path 797" d="M1630.986,1443.71c.422-.779.357-3.114,0-5.188s-7.1-5.709-7.1-5.709L1608.86,1410.5l4.656-5.463-18.23-17.243a31.951,31.951,0,0,0-10.317,21.146c-.778,13.233,25.95,36.846,25.95,36.846s2.452,9.342,5.634,10.9,7.826-1.817,10.177-2.6,6.868-2.854,5.907-4.93S1630.565,1444.488,1630.986,1443.71Z" transform="translate(-1314.359 -1150.733)" fill="#feb8c0"/>
    <g id="Group_310" data-name="Group 310" transform="translate(270.587 237.061)" clip-path="url(#clip-path-9)">
      <path id="Path_798" data-name="Path 798" d="M1652.024,1313.033a32.99,32.99,0,0,0-6.844-6.228c-2.491-1.837-5-3.573-7.568-5.252-1.024-.671-2.424-1.323-3.391-.565l-1.84,10.484q7.7,12.42,16.373,24.2a10.282,10.282,0,0,0,3.225,3.211,3.547,3.547,0,0,0,4.23-.471,4.606,4.606,0,0,0,.878-2.038,28.877,28.877,0,0,0-.734-13.936A26.794,26.794,0,0,0,1652.024,1313.033Z" transform="translate(-1624.276 -1315.529)" fill="#f98c8f"/>
      <path id="Path_799" data-name="Path 799" d="M1846.311,1669.961a6.362,6.362,0,0,0-1.122-2.841l-.627.06a6.2,6.2,0,0,1,.1,4.581,13.368,13.368,0,0,0-.864,4.593c.171,2.035,1.521,3.756,2.812,5.335a1.573,1.573,0,0,0,1.024.708,1.04,1.04,0,0,0,.959-.843,3.114,3.114,0,0,0-.082-1.366Z" transform="translate(-1799.582 -1619.434)" fill="#f98c8f"/>
      <path id="Path_800" data-name="Path 800" d="M1770.456,1756.556a7.608,7.608,0,0,0-2.6.261c-1.366.546-2.146,2.137-3.556,2.569-1.024.316-2.175-.07-3.213.222-1.412.4-2.2,1.89-3.44,2.675a3.927,3.927,0,0,1-4.535-.326l1.96,3.206c.406.633,1.335.584,2.078.451,5.59-1,11.3-2.639,15.552-6.409,1.091-.968,2.143-2.3,1.868-3.735A9.45,9.45,0,0,1,1770.456,1756.556Z" transform="translate(-1724.394 -1692.701)" fill="#f98c8f"/>
      <path id="Path_801" data-name="Path 801" d="M1546.054,1457.46l-5.762,4.118a17.059,17.059,0,0,0,3.129,16.816,5.006,5.006,0,0,0,2.5,1.75,3.744,3.744,0,0,0,3.233-.987,7.732,7.732,0,0,0,1.878-2.931,17.34,17.34,0,0,0-.512-13.982A9.925,9.925,0,0,0,1546.054,1457.46Z" transform="translate(-1547.089 -1445.569)" fill="#f98c8f"/>
    </g>
  </g>
</svg>
