<svg xmlns="http://www.w3.org/2000/svg" xmlns:xlink="http://www.w3.org/1999/xlink" width="610.356" height="489.234" viewBox="0 0 610.356 489.234">
  <defs>
    <clipPath id="clip-path">
      <path id="Path_740" data-name="Path 740" d="M1682.16,1013.48s10.948-67.355-10.037-93.08-52.005-52.185-57.485-80.466-7.3-35.583-7.3-35.583,61.221,27.856,101.279,20.073,146.894-15.511,156.018-11.862-11.236,38.233-.145,72.492,32.991,60.718,37.553,92.65,15.509,115.263,15.509,115.263l-171.528,9.744-69.34-38.527Z" transform="translate(-1607.34 -804.35)" fill="none"/>
    </clipPath>
    <clipPath id="clip-path-2">
      <path id="Path_749" data-name="Path 749" d="M2530.249,2426.038c1.745-3.529,22.865-18.077,22.865-18.077l.345-2.566,4.114-30.909,34.927-5.665s-7.542,26.045-11.5,40.182c-1.152,4.13-2,7.247-2.242,8.4C2576.6,2427.016,2528.5,2429.564,2530.249,2426.038Z" transform="translate(-2530.203 -2368.82)" fill="none"/>
    </clipPath>
    <clipPath id="clip-path-3">
      <path id="Path_758" data-name="Path 758" d="M2876.195,1758.63s-67.677,12.459-76.014,34.982,7.968,124.1,7.968,124.1l53.734-6.213-10.6-95.359s64.691-9.106,67.567-26.836,0-36.1,0-36.1Z" transform="translate(-2797.807 -1753.2)" fill="none"/>
    </clipPath>
    <clipPath id="clip-path-4">
      <path id="Path_765" data-name="Path 765" d="M3053.995,1100.553s-24.492-20.882-38.678,5.708a10.038,10.038,0,0,1-3.942,3.934c-7,4-12.983,17.042-7.165,26.178a12.91,12.91,0,0,1,1.113,11.723c-2.882,7.135-1.166,14.813,4.4,17.955a9.514,9.514,0,0,1,4.215,11.1c-2.721,8.969-1.4,16.932,11.515,14.129,2.34-12.459,3.7-25.558,14.041-32.426,6.823,2.715,10.5,2.556,10.5,2.556s11.98,4.631,10.384,11.66-5.433,27.154,12.777,22.682c-3.515-2.876-1.917-5.75-1.917-5.75s.32,4.792,8.625,5.113,9.581-5.433,9.581-9.265c6.348-3.174,10.349-16.511-2.823-23.772a9.556,9.556,0,0,1-4.87-7.624,27.076,27.076,0,0,0-4.226-13.064,8.86,8.86,0,0,1-1.352-6.4C3077.808,1125.279,3079.5,1100.382,3053.995,1100.553Z" transform="translate(-3001.861 -1092.757)" fill="none"/>
    </clipPath>
    <clipPath id="clip-path-5">
      <path id="Path_769" data-name="Path 769" d="M3117.068,1201.029a6.907,6.907,0,0,0-7.135-3.779,22.587,22.587,0,0,0-.989-3.922,7.383,7.383,0,0,1-3.2,1.515c-7.769,1.757-18.715-5.147-21.334-12a13.06,13.06,0,0,1-10.735,6.1,22.408,22.408,0,0,0-3.388,11.929c0,11.823,8.941,21.4,19.967,21.4a18.778,18.778,0,0,0,3.524-.344c.612,2.679,1.209,6.578.2,8.651-1.643,3.353-3.1,10.382-3.1,10.382l8.062,1.757,5.532-9.581s-4.631-8.627-.32-14.065c3.017-3.8,4.089-5.991,4.281-8.119a7.77,7.77,0,0,0,4.792-.587A7.156,7.156,0,0,0,3117.068,1201.029Z" transform="translate(-3070.289 -1182.84)" fill="none"/>
    </clipPath>
    <clipPath id="clip-path-6">
      <path id="Path_783" data-name="Path 783" d="M2929.556,1668.025l29.061,3.8s-5,27.236-14.269,29.15-59.213-8.39-59.213-8.39-13.737,1.6-15.335-1.594-3.832-4.262-5.43-5.8-2.556-6.656-3.514-7.934,12.779-6.068,14.377-7.667a8.027,8.027,0,0,0,1.916-4.152s7.338,4.792,8.307,7.667,43.342,5.112,43.342,5.112Z" transform="translate(-2860.806 -1665.43)" fill="none"/>
    </clipPath>
  </defs>
  <g id="_07" data-name="07" transform="translate(-171.588 -73.384)">
    <path id="Path_727" data-name="Path 727" d="M972.038,489.512c29.219-28.235,61.584-59.507,91.272-88.19a147.144,147.144,0,0,1,202.586-1.8l85.729,79.932a147.121,147.121,0,0,0,36.328,24.869l30.432,14.687a147.152,147.152,0,0,1,65.363,202.6h0a147.165,147.165,0,0,1-172.454,70.6l-64.86-19.857a147.178,147.178,0,0,0-58.053-5.685l-74.7,7.64a147.134,147.134,0,0,1-132.751-58.194L956.515,683.5A147.116,147.116,0,0,1,972.038,489.512Z" transform="translate(-738.022 -286.613)" fill="#f4e1b5"/>
    <g id="Group_297" data-name="Group 297" transform="translate(261.079 134.596)" opacity="0.68">
      <circle id="Ellipse_187" data-name="Ellipse 187" cx="7.294" cy="7.294" r="7.294" transform="translate(107.482)" fill="#fff"/>
      <circle id="Ellipse_188" data-name="Ellipse 188" cx="7.294" cy="7.294" r="7.294" transform="translate(107.482 23.355)" fill="#fff"/>
      <circle id="Ellipse_189" data-name="Ellipse 189" cx="7.294" cy="7.294" r="7.294" transform="translate(107.482 46.709)" fill="#fff"/>
      <circle id="Ellipse_190" data-name="Ellipse 190" cx="7.294" cy="7.294" r="7.294" transform="translate(107.482 70.064)" fill="#fff"/>
      <circle id="Ellipse_191" data-name="Ellipse 191" cx="7.294" cy="7.294" r="7.294" transform="translate(107.482 93.419)" fill="#fff"/>
      <circle id="Ellipse_192" data-name="Ellipse 192" cx="7.294" cy="7.294" r="7.294" transform="translate(85.986)" fill="#fff"/>
      <circle id="Ellipse_193" data-name="Ellipse 193" cx="7.294" cy="7.294" r="7.294" transform="translate(85.986 23.355)" fill="#fff"/>
      <circle id="Ellipse_194" data-name="Ellipse 194" cx="7.294" cy="7.294" r="7.294" transform="translate(85.986 46.709)" fill="#fff"/>
      <circle id="Ellipse_195" data-name="Ellipse 195" cx="7.294" cy="7.294" r="7.294" transform="translate(85.986 70.064)" fill="#fff"/>
      <circle id="Ellipse_196" data-name="Ellipse 196" cx="7.294" cy="7.294" r="7.294" transform="translate(85.986 93.419)" fill="#fff"/>
      <circle id="Ellipse_197" data-name="Ellipse 197" cx="7.294" cy="7.294" r="7.294" transform="translate(64.489)" fill="#fff"/>
      <circle id="Ellipse_198" data-name="Ellipse 198" cx="7.294" cy="7.294" r="7.294" transform="translate(64.489 23.355)" fill="#fff"/>
      <circle id="Ellipse_199" data-name="Ellipse 199" cx="7.294" cy="7.294" r="7.294" transform="translate(64.489 46.709)" fill="#fff"/>
      <circle id="Ellipse_200" data-name="Ellipse 200" cx="7.294" cy="7.294" r="7.294" transform="translate(64.489 70.064)" fill="#fff"/>
      <circle id="Ellipse_201" data-name="Ellipse 201" cx="7.294" cy="7.294" r="7.294" transform="translate(64.489 93.419)" fill="#fff"/>
      <circle id="Ellipse_202" data-name="Ellipse 202" cx="7.294" cy="7.294" r="7.294" transform="translate(42.993)" fill="#fff"/>
      <circle id="Ellipse_203" data-name="Ellipse 203" cx="7.294" cy="7.294" r="7.294" transform="translate(42.993 23.355)" fill="#fff"/>
      <circle id="Ellipse_204" data-name="Ellipse 204" cx="7.294" cy="7.294" r="7.294" transform="translate(42.993 46.709)" fill="#fff"/>
      <circle id="Ellipse_205" data-name="Ellipse 205" cx="7.294" cy="7.294" r="7.294" transform="translate(42.993 70.064)" fill="#fff"/>
      <circle id="Ellipse_206" data-name="Ellipse 206" cx="7.294" cy="7.294" r="7.294" transform="translate(42.993 93.419)" fill="#fff"/>
      <circle id="Ellipse_207" data-name="Ellipse 207" cx="7.294" cy="7.294" r="7.294" transform="translate(21.496)" fill="#fff"/>
      <circle id="Ellipse_208" data-name="Ellipse 208" cx="7.294" cy="7.294" r="7.294" transform="translate(21.496 23.355)" fill="#fff"/>
      <circle id="Ellipse_209" data-name="Ellipse 209" cx="7.294" cy="7.294" r="7.294" transform="translate(21.496 46.709)" fill="#fff"/>
      <circle id="Ellipse_210" data-name="Ellipse 210" cx="7.294" cy="7.294" r="7.294" transform="translate(21.496 70.064)" fill="#fff"/>
      <circle id="Ellipse_211" data-name="Ellipse 211" cx="7.294" cy="7.294" r="7.294" transform="translate(21.496 93.419)" fill="#fff"/>
      <circle id="Ellipse_212" data-name="Ellipse 212" cx="7.294" cy="7.294" r="7.294" fill="#fff"/>
      <circle id="Ellipse_213" data-name="Ellipse 213" cx="7.294" cy="7.294" r="7.294" transform="translate(0 23.355)" fill="#fff"/>
      <circle id="Ellipse_214" data-name="Ellipse 214" cx="7.294" cy="7.294" r="7.294" transform="translate(0 46.709)" fill="#fff"/>
      <circle id="Ellipse_215" data-name="Ellipse 215" cx="7.294" cy="7.294" r="7.294" transform="translate(0 70.064)" fill="#fff"/>
      <circle id="Ellipse_216" data-name="Ellipse 216" cx="7.294" cy="7.294" r="7.294" transform="translate(0 93.419)" fill="#fff"/>
    </g>
    <path id="Path_728" data-name="Path 728" d="M1128.42,1238.94l46.035,185.651,265.795-10.382-50.874-175.269Z" transform="translate(-898.267 -986.387)" fill="#f2eeff"/>
    <path id="Path_729" data-name="Path 729" d="M1128.42,1238.94l170.45,97.106,90.506-97.106Z" transform="translate(-898.267 -986.387)" fill="#c6beea"/>
    <path id="Path_730" data-name="Path 730" d="M1354.25,1715.784l120.332-111.094L1620.045,1705.4Z" transform="translate(-1078.062 -1277.58)" fill="#c6beea"/>
    <path id="Path_731" data-name="Path 731" d="M1807.269,1987.849l-265.795,10.384L1495.44,1812.58H1756.4l46.879,161.505Z" transform="translate(-1190.471 -1443.093)" fill="#e0d9ff"/>
    <path id="Path_732" data-name="Path 732" d="M1495.44,1812.59l170.45,97.1,90.506-97.1Z" transform="translate(-1190.471 -1443.1)" fill="#b1abdd"/>
    <path id="Path_733" data-name="Path 733" d="M1721.27,2289.424,1841.6,2178.33l145.463,100.712Z" transform="translate(-1370.266 -1734.286)" fill="#b1abdd"/>
    <g id="Group_298" data-name="Group 298" transform="translate(325.92 369.487)" opacity="0.36">
      <path id="Path_734" data-name="Path 734" d="M1885.1,1974.085l-244.464,9.548L1598.22,1812.58h240Z" transform="translate(-1598.22 -1812.58)"/>
    </g>
    <path id="Path_735" data-name="Path 735" d="M1558.12,817.059l57.691,246.242,333.095-13.772-63.757-232.47L1643.884,674.55Z" transform="translate(-1240.374 -537.046)" fill="#9e8add"/>
    <path id="Path_736" data-name="Path 736" d="M1682.16,1013.48s10.948-67.355-10.037-93.08-52.005-52.185-57.485-80.466-7.3-35.583-7.3-35.583,61.221,27.856,101.279,20.073,146.894-15.511,156.018-11.862-11.236,38.233-.145,72.492,32.991,60.718,37.553,92.65,15.509,115.263,15.509,115.263l-171.528,9.744-69.34-38.527Z" transform="translate(-1279.561 -640.386)" fill="#ffd188"/>
    <g id="Group_299" data-name="Group 299" transform="translate(327.779 163.964)" clip-path="url(#clip-path)">
      <path id="Path_737" data-name="Path 737" d="M1512.547,522.37l16.424,57.485s9.122,42.883,29.195,62.954,61.129,60.218,57.485,78.466-19.161,131.383-19.161,131.383L1520.76,670.181,1508.9,565.257Z" transform="translate(-1528.967 -579.851)" fill="#ffecd2"/>
      <path id="Path_738" data-name="Path 738" d="M1835.62,784.043c3.651,0,40.146,23.724,85.764,18.248s154.193-19.162,154.193-19.162l-178.826-14.6Z" transform="translate(-1789.086 -775.832)" fill="#ffecd2"/>
      <path id="Path_739" data-name="Path 739" d="M2515.121,1095.28s-99.448,41.057-93.973,48.356,137.77,44.708,137.77,44.708l-42.881-89.415Z" transform="translate(-2255.083 -1035.975)" fill="#ffc878"/>
    </g>
    <rect id="Rectangle_246" data-name="Rectangle 246" width="175.719" height="4.556" rx="2.278" transform="translate(380.702 223.269)" fill="#ffdea9"/>
    <rect id="Rectangle_247" data-name="Rectangle 247" width="152.823" height="4.556" rx="2.278" transform="translate(408.072 251.642)" fill="#ffbd66"/>
    <rect id="Rectangle_248" data-name="Rectangle 248" width="152.823" height="4.556" rx="2.278" transform="translate(426.777 277.736)" fill="#ffdea9"/>
    <rect id="Rectangle_249" data-name="Rectangle 249" width="152.823" height="4.556" rx="2.278" transform="translate(436.727 329.601)" fill="#ffdea9"/>
    <rect id="Rectangle_250" data-name="Rectangle 250" width="76.412" height="4.556" rx="2.278" transform="translate(432.25 301.085)" fill="#ffbd66"/>
    <rect id="Rectangle_251" data-name="Rectangle 251" width="76.412" height="4.556" rx="2.278" transform="translate(513.139 301.085)" fill="#ffbd66"/>
    <path id="Path_741" data-name="Path 741" d="M1558.12,1373.65l216.236,129.381,110.792-129.381,63.757,232.47-333.095,13.772Z" transform="translate(-1240.374 -1093.637)" fill="#f2eeff"/>
    <path id="Path_742" data-name="Path 742" d="M1841.13,2006.122l150.8-147.352,182.293,133.58Z" transform="translate(-1465.694 -1479.867)" fill="#d6d3f2"/>
    <path id="Path_743" data-name="Path 743" d="M2877.662,2455.459c.353-3.92,14.787-25.118,14.787-25.118l-.612-2.52-7.338-30.306,30.534-17.906s2.371,27.016,3.8,41.621c.418,4.269.758,7.479.938,8.643C2921.236,2439.62,2877.309,2459.379,2877.662,2455.459Z" transform="translate(-2290.931 -1894.536)" fill="#fdae98"/>
    <path id="Path_744" data-name="Path 744" d="M2809.454,2618.91c.353-3.92,28.691-25.99,28.691-25.99l-.611-2.52c5.948,1.47,15.493,1.677,26.983-6.591.417,4.269,2.242,17.223,2.411,18.387C2868.406,2611.937,2809.1,2622.826,2809.454,2618.91Z" transform="translate(-2236.627 -2057.11)" fill="#f96464"/>
    <path id="Path_745" data-name="Path 745" d="M2892.593,2666.5a.409.409,0,0,1-.277-.108c-4.409-4.1-8.812-2.446-9-2.375a.408.408,0,0,1-.293-.76c.2-.081,5.051-1.924,9.85,2.536a.41.41,0,0,1-.281.708Z" transform="translate(-2295.003 -2120.01)" fill="#fff"/>
    <path id="Path_746" data-name="Path 746" d="M2923.125,2641a.408.408,0,0,1-.277-.108c-4.409-4.1-8.812-2.446-9-2.375a.408.408,0,1,1-.3-.758c.2-.081,5.051-1.924,9.85,2.536a.408.408,0,0,1-.277.705Z" transform="translate(-2319.301 -2099.708)" fill="#fff"/>
    <path id="Path_747" data-name="Path 747" d="M2530.249,2426.038c1.745-3.529,22.865-18.077,22.865-18.077l.345-2.566,4.114-30.909,34.927-5.665s-7.542,26.045-11.5,40.182c-1.152,4.13-2,7.247-2.242,8.4C2576.6,2427.016,2528.5,2429.564,2530.249,2426.038Z" transform="translate(-2014.301 -1885.945)" fill="#fdae98"/>
    <g id="Group_300" data-name="Group 300" transform="translate(515.901 482.875)" clip-path="url(#clip-path-2)">
      <path id="Path_748" data-name="Path 748" d="M2625.91,2348.734l39.775,6.229,10.062-43.127-41.211-2.876Z" transform="translate(-2606.4 -2321.162)" fill="#ee757b"/>
    </g>
    <path id="Path_750" data-name="Path 750" d="M2465.142,2564.678c1.745-3.526,36.144-13.861,36.144-13.861l.345-2.566c5.017,3.521,13.843,7.163,27.542,3.608-1.151,4.13-4.144,16.864-4.4,18.014C2522.627,2579.487,2463.4,2568.207,2465.142,2564.678Z" transform="translate(-1962.473 -2028.799)" fill="#f96464"/>
    <path id="Path_751" data-name="Path 751" d="M2573.975,2577.469a.408.408,0,0,1-.367-.229c-2.65-5.437-7.483-5.473-7.53-5.465h0a.408.408,0,0,1,0-.816c.222,0,5.4.032,8.268,5.924a.408.408,0,0,1-.19.544A.4.4,0,0,1,2573.975,2577.469Z" transform="translate(-2042.539 -2046.88)" fill="#fff"/>
    <path id="Path_752" data-name="Path 752" d="M2611.707,2564.731a.407.407,0,0,1-.367-.23,9.6,9.6,0,0,0-4.754-4.784,7.693,7.693,0,0,0-2.779-.681h0a.408.408,0,0,1,0-.815c.224,0,5.406.035,8.268,5.926a.408.408,0,0,1-.187.544A.424.424,0,0,1,2611.707,2564.731Z" transform="translate(-2072.578 -2036.737)" fill="#fff"/>
    <path id="Path_753" data-name="Path 753" d="M2650.789,1841s-36.2,5.115-54.89,30.192c-8.137,10.922-41.209,89.132-41.209,89.132l55.1,20.595Z" transform="translate(-2033.797 -1465.719)"/>
    <path id="Path_754" data-name="Path 754" d="M2876.195,1758.63s-67.677,12.459-76.014,34.982,7.968,124.1,7.968,124.1l53.734-6.213-10.6-95.359s64.691-9.106,67.567-26.836,0-36.1,0-36.1Z" transform="translate(-2227.355 -1395.817)" fill="#3a2f2e"/>
    <g id="Group_301" data-name="Group 301" transform="translate(570.451 357.383)" clip-path="url(#clip-path-3)">
      <path id="Path_755" data-name="Path 755" d="M3331.39,1692.581a.611.611,0,0,1-.6-.489c-.153-.75-.253-1.172-.253-1.176a.612.612,0,0,1,1.188-.283c0,.018.106.444.263,1.223a.612.612,0,0,1-.477.722A.64.64,0,0,1,3331.39,1692.581Z" transform="translate(-3221.934 -1703.034)" fill="#fff"/>
      <path id="Path_756" data-name="Path 756" d="M3003.748,1887.557a.612.612,0,0,1-.612-.546c-.077-.709-.165-1.517-.263-2.416a.615.615,0,0,1,1.223-.132c.1.9.185,1.706.263,2.416a.612.612,0,0,1-.542.675Zm-.524-4.831a.612.612,0,0,1-.612-.544l-.259-2.414a.615.615,0,1,1,1.223-.13l.259,2.412a.612.612,0,0,1-.544.675Zm-.516-4.823a.611.611,0,0,1-.611-.548l-.255-2.411a.615.615,0,1,1,1.223-.128l.255,2.411a.611.611,0,0,1-.544.673Zm-.508-4.825a.612.612,0,0,1-.612-.548l-.25-2.411a.615.615,0,1,1,1.223-.126l.251,2.411a.611.611,0,0,1-.544.673Zm-.5-4.821a.611.611,0,0,1-.612-.55l-.249-2.411a.615.615,0,0,1,1.223-.124l.249,2.411a.612.612,0,0,1-.546.671Zm-.493-4.823a.611.611,0,0,1-.611-.55l-.245-2.411a.615.615,0,0,1,1.223-.122l.244,2.409a.611.611,0,0,1-.546.671Zm-.485-4.823a.612.612,0,0,1-.612-.55q-.12-1.194-.24-2.411a.615.615,0,0,1,1.223-.122q.122,1.223.24,2.411a.612.612,0,0,1-.548.669Zm-.477-4.823a.612.612,0,0,1-.612-.552q-.118-1.195-.236-2.411a.614.614,0,0,1,1.223-.118q.12,1.223.236,2.409a.611.611,0,0,1-.548.669Zm-.469-4.823a.611.611,0,0,1-.611-.554q-.116-1.2-.232-2.411a.614.614,0,0,1,1.223-.116q.116,1.211.232,2.411a.612.612,0,0,1-.551.667Zm-.46-4.825a.611.611,0,0,1-.612-.554q-.112-1.2-.226-2.413a.614.614,0,0,1,1.223-.112q.114,1.209.226,2.412a.612.612,0,0,1-.55.667Zm-.45-4.825a.612.612,0,0,1-.612-.554q-.112-1.2-.222-2.414a.614.614,0,0,1,1.223-.112l.22,2.414a.612.612,0,0,1-.553.665Zm-.44-4.825a.611.611,0,0,1-.612-.559q-.11-1.209-.216-2.42a.614.614,0,1,1,1.223-.11q.106,1.211.216,2.422a.611.611,0,0,1-.554.663Zm-.428-4.839a.612.612,0,0,1-.612-.557q-.108-1.211-.2-2.414a.614.614,0,1,1,1.223-.106q.1,1.2.2,2.411a.611.611,0,0,1-.556.663Zm-.408-4.821a.611.611,0,0,1-.611-.561q-.1-1.211-.2-2.416a.614.614,0,0,1,1.223-.1q.1,1.2.2,2.414a.612.612,0,0,1-.557.66Zm-.408-4.829a.611.611,0,0,1-.612-.563c-.065-.815-.13-1.615-.194-2.416a.614.614,0,0,1,1.223-.1q.1,1.2.194,2.416a.612.612,0,0,1-.559.658Zm-.383-4.831a.611.611,0,0,1-.611-.565q-.1-1.223-.186-2.418a.613.613,0,1,1,1.223-.092q.092,1.2.186,2.416a.611.611,0,0,1-.563.656Zm-.367-4.833a.612.612,0,0,1-.612-.567q-.092-1.223-.175-2.418a.613.613,0,0,1,1.223-.086q.083,1.195.173,2.414a.612.612,0,0,1-.565.656Zm-.34-4.833a.612.612,0,0,1-.612-.571q-.081-1.223-.161-2.42a.613.613,0,0,1,1.223-.079q.079,1.194.161,2.417a.612.612,0,0,1-.569.65Zm-.314-4.837a.611.611,0,0,1-.611-.575q-.075-1.223-.145-2.422a.612.612,0,1,1,1.223-.069q.067,1.19.145,2.418a.611.611,0,0,1-.575.646Zm-.279-4.839a.612.612,0,0,1-.612-.579q-.065-1.235-.122-2.424a.612.612,0,0,1,1.223-.059q.059,1.187.122,2.418a.611.611,0,0,1-.577.642Zm-.23-4.843a.612.612,0,0,1-.612-.585q-.053-1.247-.092-2.428a.612.612,0,0,1,1.223-.043c.026.785.059,1.592.092,2.42a.612.612,0,0,1-.585.636Zm-.161-4.847a.611.611,0,0,1-.611-.6c-.021-.846-.037-1.663-.045-2.434a.611.611,0,0,1,.611-.612h0a.611.611,0,0,1,.612.612c0,.764.025,1.578.045,2.418a.612.612,0,0,1-.6.626Zm-.055-4.848h0a.611.611,0,0,1-.612-.611c0-.873.018-1.692.041-2.446a.612.612,0,1,1,1.223.039c-.022.732-.037,1.541-.041,2.4a.611.611,0,0,1-.614.618Zm.167-4.837h-.053a.611.611,0,0,1-.561-.658,21.316,21.316,0,0,1,.3-2.393l.018-.083a.612.612,0,0,1,1.2.251l-.014.069a20.013,20.013,0,0,0-.283,2.242.612.612,0,0,1-.607.583Zm1.052-4.688a.612.612,0,0,1-.554-.87,11.526,11.526,0,0,1,1.3-2.175.612.612,0,1,1,.974.738,10.4,10.4,0,0,0-1.168,1.945.611.611,0,0,1-.559.373Zm2.875-3.828a.611.611,0,0,1-.408-1.066,17.682,17.682,0,0,1,1.977-1.531.613.613,0,0,1,.681,1.019,16.033,16.033,0,0,0-1.835,1.427.612.612,0,0,1-.418.157Zm3.987-2.707a.612.612,0,0,1-.285-1.154c.691-.361,1.441-.718,2.23-1.054a.612.612,0,0,1,.483,1.123c-.76.326-1.482.667-2.145,1.019a.609.609,0,0,1-.285.071Zm4.44-1.918a.611.611,0,0,1-.2-1.188c.728-.261,1.508-.524,2.322-.777a.612.612,0,1,1,.363,1.168c-.795.249-1.559.5-2.269.76a.609.609,0,0,1-.214.043Zm4.619-1.447a.612.612,0,0,1-.161-1.2c.742-.2,1.535-.408,2.358-.612a.612.612,0,0,1,.3,1.187c-.815.2-1.6.407-2.33.611a.63.63,0,0,1-.165.022Zm4.7-1.174a.612.612,0,0,1-.136-1.207c.746-.171,1.523-.343,2.375-.526a.612.612,0,1,1,.255,1.2c-.844.181-1.616.353-2.356.522a.617.617,0,0,1-.139.02Zm4.735-1.019a.612.612,0,0,1-.122-1.211q1.178-.24,2.379-.479a.612.612,0,1,1,.238,1.2l-2.371.477a.523.523,0,0,1-.126.022Zm4.752-.948a.612.612,0,0,1-.118-1.211l2.377-.467a.612.612,0,1,1,.237,1.2l-2.377.467a.582.582,0,0,1-.12.018Zm4.754-.938a.612.612,0,0,1-.12-1.211c.787-.159,1.578-.318,2.371-.483a.612.612,0,0,1,.247,1.2c-.8.165-1.588.324-2.377.483a.609.609,0,0,1-.122.02Zm4.743-.983a.612.612,0,0,1-.128-1.209q1.18-.255,2.363-.522a.62.62,0,1,1,.271,1.211q-1.19.269-2.377.524a.55.55,0,0,1-.131,0Zm4.729-1.074a.611.611,0,0,1-.143-1.2c.8-.2,1.59-.391,2.338-.585a.612.612,0,0,1,.308,1.184c-.756.2-1.551.393-2.361.589a.57.57,0,0,1-.145.024Zm4.688-1.211a.612.612,0,0,1-.165-1.2c.783-.218,1.56-.444,2.31-.671a.612.612,0,1,1,.353,1.17c-.756.23-1.543.459-2.334.679a.649.649,0,0,1-.167.03Zm4.629-1.4a.612.612,0,0,1-.194-1.193l.218-.071a19.751,19.751,0,0,0,1.975-.777.612.612,0,0,1,.51,1.113,20.761,20.761,0,0,1-2.1.815l-.218.073a.649.649,0,0,1-.2.047Zm4.385-2.01a.611.611,0,0,1-.322-1.133,17.627,17.627,0,0,0,1.9-1.356.611.611,0,1,1,.773.948,19.542,19.542,0,0,1-2.039,1.449.612.612,0,0,1-.32.1Zm3.741-3.058a.612.612,0,0,1-.444-1.031,20.152,20.152,0,0,0,1.51-1.794.612.612,0,1,1,.98.732,21.371,21.371,0,0,1-1.6,1.9.612.612,0,0,1-.447.208Zm2.893-3.873a.6.6,0,0,1-.31-.086.612.612,0,0,1-.216-.836c.391-.663.76-1.366,1.1-2.092a.611.611,0,1,1,1.107.52c-.355.76-.744,1.5-1.154,2.191a.612.612,0,0,1-.532.33ZM3063,1739.8a.611.611,0,0,1-.573-.815c.267-.724.516-1.482.742-2.259a.611.611,0,0,1,1.174.34c-.232.8-.491,1.592-.769,2.342a.611.611,0,0,1-.579.42Zm1.354-4.646a.61.61,0,0,1-.6-.744c.169-.756.32-1.545.453-2.344a.612.612,0,1,1,1.207.2c-.135.815-.292,1.631-.465,2.409a.612.612,0,0,1-.6.5Zm.795-4.776a.434.434,0,0,1-.071,0,.612.612,0,0,1-.536-.677c.09-.775.165-1.578.222-2.385a.613.613,0,0,1,1.223.088c-.061.815-.136,1.645-.228,2.446a.611.611,0,0,1-.614.556Zm.353-4.827h-.021a.612.612,0,0,1-.591-.63c.027-.756.039-1.537.039-2.318v-.084a.611.611,0,1,1,1.223,0v.084c0,.795-.014,1.588-.039,2.359a.612.612,0,0,1-.62.617Zm0-4.841a.612.612,0,0,1-.612-.593c-.027-.785-.065-1.592-.116-2.4a.613.613,0,1,1,1.223-.075q.076,1.223.116,2.446a.612.612,0,0,1-.591.63Zm-.3-4.833a.611.611,0,0,1-.612-.557c-.072-.789-.155-1.594-.247-2.391a.616.616,0,1,1,1.223-.143c.1.815.179,1.631.253,2.424a.612.612,0,0,1-.554.665Zm-.563-4.809a.612.612,0,0,1-.612-.524c-.114-.8-.239-1.6-.373-2.377a.612.612,0,1,1,1.207-.2c.135.787.261,1.6.377,2.407a.612.612,0,0,1-.518.691Z" transform="translate(-2954.357 -1716.775)" fill="#fff"/>
      <path id="Path_757" data-name="Path 757" d="M3039.064,2598.6a.612.612,0,0,1-.612-.542l-.136-1.223a.615.615,0,0,1,1.223-.135l.135,1.223a.612.612,0,0,1-.54.675Z" transform="translate(-2989.286 -2424.319)" fill="#fff"/>
    </g>
    <path id="Path_759" data-name="Path 759" d="M2902.3,1538.505l-10.449,39.942-22.195,10.215s-10.645-.375-15.454,1.278-5.63,15.015-5.63,15.015l57.189-13.741S2918.016,1532.755,2902.3,1538.505Z" transform="translate(-2267.771 -1224.57)" fill="#ee757b"/>
    <path id="Path_760" data-name="Path 760" d="M2658.936,1690.51l37.377,35.781,52.786-12.683,2.065,2.54-57.725,19.088-36.1-42.367Z" transform="translate(-2115.522 -1345.906)" fill="#7f6dcc"/>
    <path id="Path_761" data-name="Path 761" d="M3131,1400.311s-8.649.96-13.07,8.386-7.571,44.567-4.678,69.006c19,6.229,63.512-1.678,63.512-1.678s-5.271-35.94-7.428-51.993S3135.794,1393.364,3131,1400.311Z" transform="translate(-2477.611 -1113.451)" fill="#ff9136"/>
    <ellipse id="Ellipse_217" data-name="Ellipse 217" cx="2.674" cy="16.412" rx="2.674" ry="16.412" transform="matrix(0.106, -0.994, 0.994, 0.106, 650.142, 344.808)"/>
    <path id="Path_762" data-name="Path 762" d="M3191.646,1585.99l2.933-22.627a.1.1,0,0,1,.038-.068.1.1,0,0,1,.076-.02.1.1,0,0,1,.088.11l-2.324,22.7a.41.41,0,0,1-.815-.084Z" transform="translate(-2540.907 -1244.607)"/>
    <path id="Path_763" data-name="Path 763" d="M3053.995,1100.553s-24.492-20.882-38.678,5.708a10.038,10.038,0,0,1-3.942,3.934c-7,4-12.983,17.042-7.165,26.178a12.91,12.91,0,0,1,1.113,11.723c-2.882,7.135-1.166,14.813,4.4,17.955a9.514,9.514,0,0,1,4.215,11.1c-2.721,8.969-1.4,16.932,11.515,14.129,2.34-12.459,3.7-25.558,14.041-32.426,6.823,2.715,10.5,2.556,10.5,2.556s11.98,4.631,10.384,11.66-5.433,27.154,12.777,22.682c-3.515-2.876-1.917-5.75-1.917-5.75s.32,4.792,8.625,5.113,9.581-5.433,9.581-9.265c6.348-3.174,10.349-16.511-2.823-23.772a9.556,9.556,0,0,1-4.87-7.624,27.076,27.076,0,0,0-4.226-13.064,8.86,8.86,0,0,1-1.352-6.4C3077.808,1125.279,3079.5,1100.382,3053.995,1100.553Z" transform="translate(-2389.814 -870.003)" fill="#931c1c"/>
    <g id="Group_302" data-name="Group 302" transform="translate(612.047 222.754)" clip-path="url(#clip-path-4)">
      <path id="Path_764" data-name="Path 764" d="M3095.657,1161.047a26.954,26.954,0,0,1-4.348-3.317c-3.3-3.512-3.386-8.949-2.505-13.684s2.534-9.452,2.02-14.241c-.815-7.526-6.982-13.623-13.988-16.483-4.22-1.724-9.026-2.487-13.34-1.019-4.1,1.4-7.53,5.174-7.746,9.452-2.617-4.328-7.638-6.9-12.639-8.042a23.924,23.924,0,0,0-11.79,0,14.826,14.826,0,0,0-9.173,7.078c-1.71,3.274-1.928,7.269-4.138,10.229-1.545,2.069-3.885,3.38-5.693,5.223a13.592,13.592,0,0,0-2.911,14.065c1.63,4.2,5.359,7.565,5.968,12.027,1.02,7.518-7.206,13.751-6.816,21.33.2,4.1,2.909,7.577,4.581,11.326a23.916,23.916,0,0,1-.9,20.984,86.212,86.212,0,0,0,12.528,1.415,3.371,3.371,0,0,0,1.786-.261c1-.554,1.183-1.888,1.26-3.029.381-5.614,7.076-6.252,7.86-11.823.9-6.376.239-16.055,4.952-20.446,3.571-3.327,4.64-6.972,7.616-10.843,3.669-4.766,2.931-11.688.394-17.141s-6.6-10.048-9.51-15.309c-1.553-2.8-2.8-5.911-2.672-9.114a11.241,11.241,0,0,1,18.97-7.707l.332.424v.3l.163-.1.145.183c-3.651,1.922-4.589,7-3.531,11.034,1.08,4.132,3.645,7.718,5.11,11.731,2.811,7.7,1.315,16.473-2.446,23.756s-9.564,13.287-15.629,18.795l12.822,5.163c2.167.872,4.664,2.159,4.919,4.485a59.883,59.883,0,0,0,5.21-57.937c-2.175-4.758-5.045-9.479-5.3-14.656,5.137,12.789,15.6,23.349,18.835,36.788,2.373,9.848.593,20.152.42,30.281-.126,7.487,1.287,16.1,7.671,20.016,4.187,2.566,9.493,2.389,14.316,1.459,1.427-5.738,5.323-10.514,7.626-15.957C3111.375,1184.9,3106.815,1168.9,3095.657,1161.047Zm-39.524-38.584c-.037-.069-.071-.143-.11-.2l.161-.1c.026.079.057.159.083.241A1.362,1.362,0,0,0,3056.133,1122.463Z" transform="translate(-3007.182 -1107.7)" fill="#771313"/>
    </g>
    <path id="Path_766" data-name="Path 766" d="M3117.068,1201.029a6.907,6.907,0,0,0-7.135-3.779,22.587,22.587,0,0,0-.989-3.922,7.383,7.383,0,0,1-3.2,1.515c-7.769,1.757-18.715-5.147-21.334-12a13.06,13.06,0,0,1-10.735,6.1,22.408,22.408,0,0,0-3.388,11.929c0,11.823,8.941,21.4,19.967,21.4a18.778,18.778,0,0,0,3.524-.344c.612,2.679,1.209,6.578.2,8.651-1.643,3.353-3.1,10.382-3.1,10.382l8.062,1.757,5.532-9.581s-4.631-8.627-.32-14.065c3.017-3.8,4.089-5.991,4.281-8.119a7.77,7.77,0,0,0,4.792-.587A7.156,7.156,0,0,0,3117.068,1201.029Z" transform="translate(-2444.293 -941.723)" fill="#fdae98"/>
    <g id="Group_303" data-name="Group 303" transform="translate(625.996 241.117)" clip-path="url(#clip-path-5)">
      <path id="Path_767" data-name="Path 767" d="M3100.758,1154.119c-1.985-2.189-4.75-3.486-7.453-4.688a77.7,77.7,0,0,0-13.821-4.968,90.338,90.338,0,0,0-15.464-1.747,6.365,6.365,0,0,0-3.437.453,2.2,2.2,0,0,0-1.009,2.95l2.6,11.913a15.315,15.315,0,0,0,8.119-1.347c1.019-.483,2.126-1.1,3.229-.832a4.655,4.655,0,0,1,1.99,1.36,33.714,33.714,0,0,0,15.358,8.372,14.951,14.951,0,0,0,6.482.373,7.26,7.26,0,0,0,5.139-3.669C3103.779,1159.629,3102.746,1156.309,3100.758,1154.119Z" transform="translate(-3061.544 -1150.866)" fill="#ee757b"/>
      <path id="Path_768" data-name="Path 768" d="M3158.975,1358.974l-3.435,5.5a2.426,2.426,0,0,0,1.59,2.713,5.063,5.063,0,0,0,3.38-.13,11.981,11.981,0,0,0,7.838-12.751A14.047,14.047,0,0,1,3158.975,1358.974Z" transform="translate(-3138.11 -1319.356)" fill="#ee757b"/>
    </g>
    <g id="Group_304" data-name="Group 304" transform="translate(649.94 258.868)" opacity="0.3">
      <circle id="Ellipse_218" data-name="Ellipse 218" cx="4.631" cy="4.631" r="4.631" fill="#e84646"/>
    </g>
    <path id="Path_770" data-name="Path 770" d="M3247.535,1277.8a1.749,1.749,0,0,1-.069.984,2.608,2.608,0,0,1-.53.854,4.125,4.125,0,0,1-1.729,1.093,3.886,3.886,0,0,1-2.126.1,2.592,2.592,0,0,1-1.02-.514,1.886,1.886,0,0,1-.548-2.242,2.623,2.623,0,0,1,.675-.927,3.846,3.846,0,0,1,1.937-.883,4.078,4.078,0,0,1,2.039.179,2.611,2.611,0,0,1,.862.516A1.732,1.732,0,0,1,3247.535,1277.8Zm0,0a1.591,1.591,0,0,0-.532-.815,2.2,2.2,0,0,0-.878-.432,3.506,3.506,0,0,0-1.908.112,3.7,3.7,0,0,0-1.537.987,1.651,1.651,0,0,0-.489,1.453,1.693,1.693,0,0,0,1.1,1.068,3.671,3.671,0,0,0,1.82.169,3.466,3.466,0,0,0,1.747-.777,2.2,2.2,0,0,0,.581-.787A1.588,1.588,0,0,0,3247.535,1277.8Z" transform="translate(-2580.484 -1016.064)" fill="#d85b5b"/>
    <path id="Path_771" data-name="Path 771" d="M3169.513,1223.461a5.6,5.6,0,0,1,.693-.408,6.007,6.007,0,0,1,.724-.314,5.49,5.49,0,0,1,1.576-.326,4.28,4.28,0,0,1,1.649.23,4.812,4.812,0,0,1,1.459.815.62.62,0,0,1-.746.991l-.026-.022-.049-.039a3.586,3.586,0,0,0-1.04-.691,3.16,3.16,0,0,0-1.223-.263,4.536,4.536,0,0,0-1.309.175,5.227,5.227,0,0,0-.642.224,4.648,4.648,0,0,0-.6.3l-.022.012a.408.408,0,0,1-.44-.685Z" transform="translate(-2523.161 -973.223)" fill="#600f0f"/>
    <path id="Path_772" data-name="Path 772" d="M3092.4,1226.7a5.358,5.358,0,0,1,.691-.408,6.155,6.155,0,0,1,.726-.314,5.42,5.42,0,0,1,1.576-.326,4.226,4.226,0,0,1,1.647.228,4.785,4.785,0,0,1,1.461.815.62.62,0,1,1-.748.989l-.026-.021-.047-.041a3.582,3.582,0,0,0-1.04-.689,3.126,3.126,0,0,0-1.223-.263,4.468,4.468,0,0,0-1.309.175,5.315,5.315,0,0,0-.642.224,4.9,4.9,0,0,0-.6.294l-.024.014a.408.408,0,0,1-.438-.685Z" transform="translate(-2461.77 -975.8)" fill="#600f0f"/>
    <path id="Path_773" data-name="Path 773" d="M3120.194,1266.558s-4.854,6.964-1.26,8.036c2.65.789,3-.721,3.28-1.985S3122,1265.264,3120.194,1266.558Z" transform="translate(-2481.967 -1008.232)" fill="#ee757b"/>
    <circle id="Ellipse_219" data-name="Ellipse 219" cx="1.969" cy="1.969" r="1.969" transform="translate(630.163 255.864)" fill="#600f0f"/>
    <circle id="Ellipse_220" data-name="Ellipse 220" cx="1.969" cy="1.969" r="1.969" transform="translate(647.351 255.313)" fill="#600f0f"/>
    <path id="Path_774" data-name="Path 774" d="M3137.991,1319.585a5.9,5.9,0,0,1-1.835-.285.619.619,0,0,1,.392-1.174h0c.147.047,3.618,1.148,5.06-2.142a.619.619,0,1,1,1.133.5A4.944,4.944,0,0,1,3137.991,1319.585Z" transform="translate(-2496.397 -1047.431)" fill="#600f0f"/>
    <path id="Path_775" data-name="Path 775" d="M3059.972,1255.577a8.974,8.974,0,0,0,.408,2.526,6.55,6.55,0,0,0,1.164,2.242,5.065,5.065,0,0,0,.9.862,5.383,5.383,0,0,0,1.084.612,6.782,6.782,0,0,0,2.479.44,7.239,7.239,0,0,0,2.493-.408,4.379,4.379,0,0,0,1.963-1.427,5.389,5.389,0,0,0,.972-2.269,8.184,8.184,0,0,0,.082-2.52v-.018a.411.411,0,0,1,.815-.11h0a8.87,8.87,0,0,1-.108,2.8,6.187,6.187,0,0,1-1.137,2.589,5.155,5.155,0,0,1-1.044,1,5.294,5.294,0,0,1-1.27.66,7.982,7.982,0,0,1-2.758.434,7.49,7.49,0,0,1-2.748-.514,6.175,6.175,0,0,1-1.235-.7,5.838,5.838,0,0,1-1.019-.991,7.166,7.166,0,0,1-1.27-2.481,9.6,9.6,0,0,1-.3-1.347,9.2,9.2,0,0,1-.108-1.39.326.326,0,0,1,.652,0Z" transform="translate(-2435.568 -999.294)" fill="#fff"/>
    <path id="Path_776" data-name="Path 776" d="M3151.914,1255.6a8.852,8.852,0,0,0,.2,2.522,5.991,5.991,0,0,0,1.019,2.267,4.4,4.4,0,0,0,1.935,1.459,6.459,6.459,0,0,0,2.456.408,6.964,6.964,0,0,0,2.46-.43,4.32,4.32,0,0,0,1.922-1.439,5.453,5.453,0,0,0,.946-2.256,8.012,8.012,0,0,0,.133-1.25,7.811,7.811,0,0,0-.057-1.243v-.018a.411.411,0,0,1,.815-.11h0a8.289,8.289,0,0,1,.057,1.4,8.714,8.714,0,0,1-.157,1.376,6.221,6.221,0,0,1-1.109,2.57,5.108,5.108,0,0,1-2.267,1.678,7.745,7.745,0,0,1-2.727.461,7.133,7.133,0,0,1-2.728-.473,5.124,5.124,0,0,1-2.22-1.71,6.7,6.7,0,0,1-1.117-2.532,9.549,9.549,0,0,1-.2-1.355,8.889,8.889,0,0,1,0-1.38.326.326,0,0,1,.65.047Z" transform="translate(-2508.75 -999.294)" fill="#fff"/>
    <path id="Path_777" data-name="Path 777" d="M3125.9,1259.643a.406.406,0,0,1-.232-.071c-3.311-2.289-5.453-.145-5.543-.053a.408.408,0,0,1-.587-.565c.026-.029,2.7-2.748,6.594-.053a.408.408,0,0,1-.232.742Z" transform="translate(-2483.42 -1001.331)" fill="#fff"/>
    <path id="Path_778" data-name="Path 778" d="M2824.056,1605.7l-14.606,8.166v3.624l15.2,29,19.239-8.458,1.207-3.221-14.677-27.256a4.65,4.65,0,0,0-6.36-1.859Z" transform="translate(-2236.625 -1277.916)" fill="#7f6dcc"/>
    <path id="Path_779" data-name="Path 779" d="M2809.45,1617.911l15.368-8.333a2.809,2.809,0,0,1,3.8,1.115l15.268,27.758,1.207-3.221-14.534-27.01a4.927,4.927,0,0,0-6.739-1.963l-14.361,8.03Z" transform="translate(-2236.625 -1278.33)" fill="#5c4ead"/>
    <path id="Path_780" data-name="Path 780" d="M2929.556,1668.025l29.061,3.8s-5,27.236-14.269,29.15-59.213-8.39-59.213-8.39-13.737,1.6-15.335-1.594-3.832-4.262-5.43-5.8-2.556-6.656-3.514-7.934,12.779-6.068,14.377-7.667a8.027,8.027,0,0,0,1.916-4.152s7.338,4.792,8.307,7.667,43.342,5.112,43.342,5.112Z" transform="translate(-2277.512 -1325.939)" fill="#fdae98"/>
    <g id="Group_305" data-name="Group 305" transform="translate(583.293 339.491)" clip-path="url(#clip-path-6)">
      <path id="Path_781" data-name="Path 781" d="M3138.856,1691.4a7.236,7.236,0,0,0-3.108-.634,3.378,3.378,0,0,0-2.7,1.472l-6.586,5.227,7.85,1.476a32.307,32.307,0,0,1,7.793,2.167c1.608.762,3.088,1.792,4.623,2.695a1.558,1.558,0,0,0,2.242-1.873A18.062,18.062,0,0,0,3138.856,1691.4Z" transform="translate(-3072.307 -1685.592)" fill="#ee757b"/>
      <path id="Path_782" data-name="Path 782" d="M2890.473,1653.9c-2.083,1.631-4.776,2.2-7.176,3.31a17.217,17.217,0,0,0-6.523,5.276.9.9,0,0,0-.251.8c.1.273.487.387.816.424a20.573,20.573,0,0,0,10.167-1.415,6.46,6.46,0,0,0,2.605-1.714c1.284-1.574,1.1-3.843.852-5.857Z" transform="translate(-2873.295 -1656.25)" fill="#ee757b"/>
    </g>
    <path id="Path_784" data-name="Path 784" d="M3475.04,648.4l2.889,21.736,70.553-35.871Z" transform="translate(-2766.537 -504.977)" fill="#3a2f2e"/>
    <path id="Path_785" data-name="Path 785" d="M3507.929,718.9l-10.459,17.449L3521.5,724.7Z" transform="translate(-2784.395 -572.355)" fill="#db3e3e"/>
    <path id="Path_786" data-name="Path 786" d="M3580.894,665.675l-32.114-14.153,58.41-17.251Z" transform="translate(-2825.246 -504.977)" fill="#f96464"/>
    <path id="Path_787" data-name="Path 787" d="M3397.84,638.29l15.737,10.115,73.441-14.135Z" transform="translate(-2705.074 -504.977)" fill="#f96464"/>
    <path id="Path_788" data-name="Path 788" d="M992.671,1679.664,964.4,1666.277l-9.128,19.278a73.1,73.1,0,0,0-28-1.019l-7.93-20.466-29.17,11.312,7.928,20.458a73.131,73.131,0,0,0-17.735,16.512l-19.822-9.377-13.383,28.251,19.84,9.4A73.116,73.116,0,0,0,865.5,1764.7l-20.849,6.833,9.738,29.721,20.858-6.833a73.182,73.182,0,0,0,18.521,21.016l-9.65,20.385,28.282,13.385,9.652-20.385a73.136,73.136,0,0,0,27.994,1.019l7.932,20.464,29.162-11.3-7.928-20.458a73.034,73.034,0,0,0,17.675-16.428l19.84,9.4,13.385-28.269-19.822-9.377a73.084,73.084,0,0,0,1.529-24.176l20.849-6.849-9.74-29.721-20.855,6.835a73.1,73.1,0,0,0-18.523-21.016Zm-14.575,96.2a43.636,43.636,0,1,1-20.764-58.112A43.634,43.634,0,0,1,978.1,1775.865Z" transform="translate(-672.342 -1324.856)" fill="#fff"/>
    <path id="Path_789" data-name="Path 789" d="M989.86,1678.215l-28.314-13.289.145-.051-9.075,19.3-.057.122-.133-.031a73.03,73.03,0,0,0-27.927-.934l-.2.031-.071-.181-7.985-20.444.389.171-29.15,11.36.2-.471,7.966,20.442.12.306-.275.182a72.841,72.841,0,0,0-17.6,16.434l-.218.283-.324-.153-19.8-9.346.632-.226L844.83,1730l-.247-.689,19.848,9.377.391.186-.1.42a72.637,72.637,0,0,0-1.476,23.905l.047.447-.428.141-20.843,6.849.367-.726,9.754,29.717-.746-.377,20.855-6.841.457-.149.245.408a72.585,72.585,0,0,0,18.375,20.837l.387.3-.2.442-9.646,20.385-.292-.815,28.263,13.393-.8.287,9.658-20.385.2-.436.469.11a72.626,72.626,0,0,0,27.768,1.019l.471-.073.171.442,7.919,20.47-.748-.33,29.174-11.277-.314.714-7.911-20.466-.155-.408.359-.234a72.769,72.769,0,0,0,17.565-16.293l.251-.324.367.175,19.828,9.422-.634.228L1026.9,1781.6l.2.575-19.806-9.42-.287-.137.073-.31a72.792,72.792,0,0,0,1.568-24.054l-.029-.279.265-.088,20.864-6.79-.2.383-9.648-29.743.277.141-20.876,6.79-.122.039-.065-.11a73.166,73.166,0,0,0-18.432-21.035l-.051-.039.029-.057Zm0,0-9.057,19.31-.025-.1a73.216,73.216,0,0,1,18.613,21l-.187-.069,20.839-6.892.2-.067.069.2,9.819,29.694.1.287-.29.1-20.837,6.874.239-.367a73.54,73.54,0,0,1-1.49,24.3l-.216-.446,19.838,9.353.389.183-.183.391-13.346,28.288-.2.43-.43-.2-19.855-9.367.612-.149a73.524,73.524,0,0,1-17.784,16.56l.2-.634,7.95,20.452.2.512-.514.2-29.15,11.326-.538.2-.2-.538-7.95-20.46.64.369a73.848,73.848,0,0,1-28.222-1.019l.675-.326L910.124,1848l-.257.544-.546-.257-28.271-13.362-.552-.261.263-.552,9.656-20.385.179.738a73.812,73.812,0,0,1-18.67-21.2l.7.265-20.857,6.829-.563.184-.183-.563-9.723-29.715-.179-.548.546-.177,20.856-6.815-.379.585a73.68,73.68,0,0,1,1.539-24.258l.292.612-19.832-9.412-.467-.222.22-.467,13.425-28.251.2-.428.428.2,19.808,9.414-.542.13a73.454,73.454,0,0,1,17.863-16.573l-.155.487-7.889-20.474-.13-.34.338-.13,29.185-11.244.283-.108.108.281,7.875,20.487-.263-.153a73.386,73.386,0,0,1,28.069,1.089l-.187.09,9.173-19.253.047-.1.1.047Z" transform="translate(-669.532 -1323.406)" fill="#ffbb43"/>
    <path id="Path_790" data-name="Path 790" d="M1172.542,1967.863a43.838,43.838,0,1,1,4.173-16.513A43.945,43.945,0,0,1,1172.542,1967.863Zm0,0a43.421,43.421,0,1,0-10.16,13.656A43.336,43.336,0,0,0,1172.542,1967.863Z" transform="translate(-866.788 -1516.853)" fill="#ffbb43"/>
    <path id="Path_791" data-name="Path 791" d="M2293.75,933.776a3.343,3.343,0,0,0,.8-.133c.265-.065.526-.139.787-.2.524-.149,1.042-.312,1.559-.477,1.036-.33,2.063-.683,3.088-1.042,2.053-.722,4.089-1.48,6.115-2.261q6.085-2.342,12.07-4.935,11.978-5.155,23.567-11.142c7.716-4,15.288-8.28,22.617-12.928a207.169,207.169,0,0,0,21.112-15.188c3.337-2.764,6.566-5.659,9.628-8.714a102.183,102.183,0,0,0,8.6-9.685,71.474,71.474,0,0,0,7.01-10.834,55.977,55.977,0,0,0,2.65-5.867,48.459,48.459,0,0,0,1.871-6.138,41.259,41.259,0,0,0,.97-6.319,39.811,39.811,0,0,0-.018-6.389c-.094-1.062-.218-2.118-.392-3.174s-.375-2.1-.611-3.139a31.77,31.77,0,0,0-.869-3.058,28.527,28.527,0,0,0-1.156-2.948,21.6,21.6,0,0,0-3.366-5.284,16.9,16.9,0,0,0-2.242-2.126,16.079,16.079,0,0,0-2.6-1.653,17,17,0,0,0-5.911-1.716,22.53,22.53,0,0,0-6.234.243,29.947,29.947,0,0,0-6.06,1.741,35.692,35.692,0,0,0-5.646,2.872,34.928,34.928,0,0,0-5.047,3.818,27.4,27.4,0,0,0-4.144,4.7,15.933,15.933,0,0,0-2.511,5.53,9.424,9.424,0,0,0-.2,1.462,8.006,8.006,0,0,0,.024,1.451,7.7,7.7,0,0,0,.8,2.732,10.618,10.618,0,0,0,4.132,4.126,23.322,23.322,0,0,0,5.746,2.348q1.523.418,3.088.718c1.052.184,2.106.385,3.166.524s2.124.273,3.188.4c1.066.092,2.132.2,3.2.245a79.457,79.457,0,0,0,12.842-.33,103.541,103.541,0,0,0,24.992-6.081,168.647,168.647,0,0,0,23.418-10.987c3.775-2.108,7.5-4.322,11.181-6.6s7.338-4.627,10.987-6.984,7.292-4.731,11.089-6.953c.95-.554,1.912-1.1,2.895-1.618l1.476-.764,1.5-.724a63.824,63.824,0,0,1,6.17-2.515,53.561,53.561,0,0,1,13.022-2.811,44.261,44.261,0,0,1,6.678-.082q1.67.1,3.327.367c.552.088,1.1.185,1.653.308.273.061.548.124.815.2s.536.143.844.243a.815.815,0,0,1-.422,1.572h-.039c-.216-.047-.489-.1-.742-.139s-.516-.082-.777-.116c-.52-.069-1.046-.124-1.572-.171-1.054-.092-2.114-.13-3.174-.139a48.279,48.279,0,0,0-6.348.4,57.182,57.182,0,0,0-12.345,3.019q-3,1.088-5.885,2.446l-1.439.7-1.427.736c-.944.491-1.875,1.019-2.8,1.549-3.718,2.155-7.369,4.507-11.036,6.837s-7.338,4.688-11.067,6.953-7.491,4.485-11.32,6.6a170.9,170.9,0,0,1-23.834,11.028,105.864,105.864,0,0,1-25.609,6.085,81.492,81.492,0,0,1-13.215.271c-1.1-.057-2.2-.169-3.3-.269-1.1-.133-2.193-.251-3.284-.426s-2.175-.363-3.261-.558-2.181-.473-3.261-.777a25.34,25.34,0,0,1-6.274-2.613,15.139,15.139,0,0,1-2.782-2.132,12.063,12.063,0,0,1-1.184-1.347,11.051,11.051,0,0,1-.956-1.543,9.851,9.851,0,0,1-1.007-3.5,10.475,10.475,0,0,1-.02-1.806,12.066,12.066,0,0,1,.257-1.763,18.036,18.036,0,0,1,2.864-6.264,29.369,29.369,0,0,1,4.485-5.041,37.649,37.649,0,0,1,11.344-7.012,31.8,31.8,0,0,1,6.47-1.8,24.358,24.358,0,0,1,6.76-.2,18.847,18.847,0,0,1,6.533,1.955,17.931,17.931,0,0,1,2.88,1.865,18.709,18.709,0,0,1,2.467,2.371,23.23,23.23,0,0,1,3.594,5.708,30.355,30.355,0,0,1,1.2,3.129q.518,1.59.883,3.217t.611,3.262c.171,1.091.292,2.2.381,3.3a41.513,41.513,0,0,1-.032,6.641,42.753,42.753,0,0,1-1.058,6.548,49.61,49.61,0,0,1-1.979,6.319,57.383,57.383,0,0,1-2.756,6,72.843,72.843,0,0,1-7.229,10.985,103.666,103.666,0,0,1-8.788,9.738c-3.117,3.058-6.395,5.954-9.785,8.71a203.509,203.509,0,0,1-21.361,15.06c-7.4,4.593-15.036,8.8-22.8,12.726s-15.684,7.555-23.709,10.912q-6.023,2.513-12.139,4.79c-2.039.754-4.087,1.488-6.148,2.183-1.019.346-2.063.687-3.1,1-.52.159-1.042.314-1.565.459-.263.069-.526.141-.791.2A3.45,3.45,0,0,1,2293.75,933.776Z" transform="translate(-1826.049 -632.779)" fill="#fff"/>
    <path id="Path_792" data-name="Path 792" d="M1816.366,1114.09l-11.76-46.324a9.422,9.422,0,0,0-9.132-7.106h-73.466a9.422,9.422,0,0,0-9.028,12.11l13.794,46.326a9.422,9.422,0,0,0,9.031,6.727h26.579l13.115,14.616,4.756-14.616h26.979a9.422,9.422,0,0,0,9.132-11.733Z" transform="translate(-1363.354 -844.449)" fill="#3a2f2e"/>
    <path id="Path_793" data-name="Path 793" d="M1844.566,1100.13l-11.75-46.326a9.422,9.422,0,0,0-9.132-7.1h-73.476a9.422,9.422,0,0,0-9.028,12.11l13.794,46.324a9.422,9.422,0,0,0,9.031,6.727h26.578l13.117,14.616,4.754-14.616h26.983a9.42,9.42,0,0,0,9.13-11.731Z" transform="translate(-1385.806 -833.334)" fill="#f96464"/>
    <ellipse id="Ellipse_221" data-name="Ellipse 221" cx="5.271" cy="6.58" rx="5.271" ry="6.58" transform="translate(378.173 243.584) rotate(-21.84)" fill="#fff"/>
    <ellipse id="Ellipse_222" data-name="Ellipse 222" cx="5.271" cy="6.58" rx="5.271" ry="6.58" transform="translate(402.663 243.586) rotate(-21.84)" fill="#fff"/>
    <ellipse id="Ellipse_223" data-name="Ellipse 223" cx="5.271" cy="6.58" rx="5.271" ry="6.58" transform="translate(427.152 243.587) rotate(-21.84)" fill="#fff"/>
    <path id="Path_794" data-name="Path 794" d="M3315.542,2159.87l11.75-46.324a9.426,9.426,0,0,1,9.132-7.106H3409.9a9.422,9.422,0,0,1,9.028,12.11l-13.794,46.326a9.421,9.421,0,0,1-9.03,6.727h-26.578l-13.117,14.616-4.754-14.616h-26.981a9.42,9.42,0,0,1-9.13-11.733Z" transform="translate(-2639.323 -1677.05)" fill="#3a2f2e"/>
    <path id="Path_795" data-name="Path 795" d="M3287.333,2145.91l11.751-46.324a9.422,9.422,0,0,1,9.132-7.106h73.472a9.424,9.424,0,0,1,9.03,12.11l-13.788,46.326a9.421,9.421,0,0,1-9.028,6.727h-26.588l-13.115,14.615-4.756-14.615h-26.979a9.42,9.42,0,0,1-9.132-11.734Z" transform="translate(-2616.864 -1665.936)" fill="#f96464"/>
    <ellipse id="Ellipse_224" data-name="Ellipse 224" cx="6.58" cy="5.271" rx="6.58" ry="5.271" transform="translate(735.652 462.741) rotate(-68.305)" fill="#fff"/>
    <ellipse id="Ellipse_225" data-name="Ellipse 225" cx="6.58" cy="5.271" rx="6.58" ry="5.271" transform="translate(711.848 464.967) rotate(-68.16)" fill="#fff"/>
    <ellipse id="Ellipse_226" data-name="Ellipse 226" cx="6.58" cy="5.271" rx="6.58" ry="5.271" transform="translate(687.362 464.967) rotate(-68.16)" fill="#fff"/>
  </g>
</svg>
