<svg xmlns="http://www.w3.org/2000/svg" xmlns:xlink="http://www.w3.org/1999/xlink" width="402.304" height="259.373" viewBox="0 0 402.304 259.373">
  <defs>
    <clipPath id="clip-path">
      <path id="Path_560" data-name="Path 560" d="M552.008,624.782s-49.946-39.463-35.23-138.013S621.016,368.7,646.293,368.7s88.952,4.8,120.628,46.395,53.755,30.717,88.952,42.556,57.915,51.2,57.277,88.312-25.917,75.832-38.4,78.072C857.153,624.035,552.008,624.782,552.008,624.782Z" transform="translate(-514.066 -368.7)" fill="#f0f5ff"/>
    </clipPath>
    <clipPath id="clip-path-2">
      <path id="Path_591" data-name="Path 591" d="M991.495,967.631H929.108c-4.9,0-8.718-4.512-8.174-9.668l14.5-137.465a9.128,9.128,0,0,1,.236-1.311,8.317,8.317,0,0,1,7.94-6.427h62.381c4.9,0,8.719,4.511,8.176,9.668L999.669,959.893A8.408,8.408,0,0,1,991.495,967.631Z" transform="translate(-920.882 -812.76)" fill="#f0f5ff"/>
    </clipPath>
    <clipPath id="clip-path-3">
      <path id="Path_595" data-name="Path 595" d="M484.563,1069.734s.72-13.838,15.119-29.037,20.641-25.758,28-43.675,18.719-7.68,16.8,5.6-6.239,22.4-6.239,31.037,3.733,38.45-9.92,57.648-37.8,20.928-39.822,10.051S483.683,1076.32,484.563,1069.734Z" transform="translate(-484.396 -987.413)" fill="#ffcd92"/>
    </clipPath>
    <clipPath id="clip-path-4">
      <path id="Path_599" data-name="Path 599" d="M2622.04,506.168c-29.8-2.338-50.555-22.4-43.2-49.28s31.037-26.237,27.517-45.115-6.079-25.438,8.479-39.677,36.636-20.157,40.635,6.08-5.92,52.954-5.119,67.194,13.759,27.517,8,44.155S2630.2,506.807,2622.04,506.168Z" transform="translate(-2577.354 -359.957)" fill="#bbd7ff"/>
    </clipPath>
    <clipPath id="clip-path-5">
      <path id="Path_602" data-name="Path 602" d="M3328.755,701.776c8.958.13,20.317,31.518,23.038,52.954s-5.439,49.914-28.639,49.914-26.878-27.357-24.64-46.875S3317.716,701.616,3328.755,701.776Z" transform="translate(-3297.949 -701.775)" fill="#9ab6e2"/>
    </clipPath>
    <clipPath id="clip-path-6">
      <path id="Path_605" data-name="Path 605" d="M3445.6,888.31s-3.674,32.477-3.359,43.675c-3.734-5.119-10.24-24.958-10.24-24.958s.534,18.132,9.279,28.478c-.959,16.751-1.6,153.905-1.6,153.905l12.159-2.239s-4.64-98.55-4.16-122.227c.324-13.758.324-16.159.324-16.159a23.727,23.727,0,0,0,16.958-10.079,42.126,42.126,0,0,1-18.4,5.6C3446.239,931.985,3444.959,910.708,3445.6,888.31Z" transform="translate(-3432 -888.31)" fill="#4e4e6b"/>
    </clipPath>
    <clipPath id="clip-path-7">
      <path id="Path_608" data-name="Path 608" d="M2758.218,725.017s-3.626-57.7-3.6-114.23c0,0-15.172-8.105-21.358-22.61a48.442,48.442,0,0,0,21.865,17.491c-.853-21.651.534-36.9,2.56-55.888s3.093-25.6,3.093-25.6-6.825-6.506-7.146-19.837c3.306,6.826,6.719,10.665,10.026,12.692,2.666-16.958,11.945-35.836,11.945-35.836s-7.359,31.464-10.133,62.393c0,0,13.012-5.972,18.132-25.81-1.494,15.145-10.026,26.45-17.705,31.571-1.067,18.771-1.494,35.2-1.494,35.2s11.732,1.919,18.772-11.092c-3.84,10.665-10.453,15.572-18.772,15.572.427,16.643,2.987,114.122,7.889,136.947C2763.978,725.764,2758.218,725.017,2758.218,725.017Z" transform="translate(-2733.26 -481.2)" fill="#668bbf"/>
    </clipPath>
    <clipPath id="clip-path-8">
      <path id="Path_612" data-name="Path 612" d="M738.595,1495.813l.054-5.733h-25.2c-10.719,0-17.118,6.96-15.519,16.319s9.759,11.279,8.4,18.879-8.8,8.959-29.437,16.318-43.036,19.6-50.72,34.8,1.439,36.312,26.557,42.236c17.118,4.323,56.635,3.674,79.353-2.88s45.329-23.411,100.151-29.17,99.834-2.987,95.779,8.538-68.047,2.773-85.966,17.705c26.664.427,48.422-.854,56.737,3.84,26.237-2.987,40.959-3.84,53.328-5.333s29.224-8.745,20.051-31.571-43.935-33.068-68.035-37.761-67.194-1.281-124.362,14.505-74.446,24.532-86.818,23.25-15.465-8.745-7.413-16.319,30.584-13.97,35.143-26.451-8.746-23.357-11.092-28.264-2.239-10.88,4.8-12.373S738.595,1495.813,738.595,1495.813Z" transform="translate(-623.531 -1490.08)" fill="#b3bfd5"/>
    </clipPath>
    <clipPath id="clip-path-9">
      <rect id="Rectangle_245" data-name="Rectangle 245" width="339.168" height="4.692" rx="2.346" fill="#677b99"/>
    </clipPath>
    <clipPath id="clip-path-10">
      <path id="Path_629" data-name="Path 629" d="M1655.718,1153.916l-44.525,2.673a5.929,5.929,0,0,0-5.569,6.172l1.837,43.012a5.93,5.93,0,0,0,6.237,5.668l41.175-2.172a5.93,5.93,0,0,0,5.613-5.716l1.507-43.517a5.93,5.93,0,0,0-6.275-6.121Z" transform="translate(-1605.619 -1153.905)" fill="#ff9c97"/>
    </clipPath>
    <clipPath id="clip-path-11">
      <path id="Path_628" data-name="Path 628" d="M1565.05,1131.027l39.053-2.3a4.242,4.242,0,0,1,4.489,4.107l1.467,48.113s29.864-1.28,29.437-3.519-10.772-61.755-10.772-61.755l-62.714,4.906Z" transform="translate(-1565.05 -1115.67)" fill="#f86748"/>
    </clipPath>
    <clipPath id="clip-path-12">
      <path id="Path_632" data-name="Path 632" d="M1803.8,2049c-9.644,0-17.462,7.362-17.462,16.444a16.242,16.242,0,0,0,8.225,13.955l1.25,2.143s4.04,1.361,10.4.188c8.5-1.107,15.049-7.976,15.049-16.286C1821.263,2056.364,1813.445,2049,1803.8,2049Z" transform="translate(-1786.34 -2049)" fill="#5b2840"/>
    </clipPath>
    <clipPath id="clip-path-13">
      <ellipse id="Ellipse_174" data-name="Ellipse 174" cx="17.461" cy="16.444" rx="17.461" ry="16.444" fill="#7f606e"/>
    </clipPath>
    <clipPath id="clip-path-14">
      <path id="Path_637" data-name="Path 637" d="M1716.73,2066.87s1.714,3.948,2.533,4.431a7.444,7.444,0,0,0,2.587.568,3.94,3.94,0,0,0,1.081,2.517c.994.812,5.648,1.746,16.427-1.664s12.849-5.477,12.849-5.477l-4.182-5.765-18.711.972Z" transform="translate(-1716.73 -2061.48)" fill="#994900"/>
    </clipPath>
    <clipPath id="clip-path-15">
      <path id="Path_644" data-name="Path 644" d="M2302.244,1188.869a5.579,5.579,0,0,1,5.92-.64c3.12,1.681,2.88,8.959,2.639,13.2s-.72,6.8.481,6.88,16.549-5.493,17.99-6.133,5.359,6.484,2.239,7.76-16.55,9.412-23.349,8.052-6.56-5.2-6.72-12.559S2300.565,1190.548,2302.244,1188.869Z" transform="translate(-2301.154 -1187.618)" fill="#ffd56c"/>
    </clipPath>
    <clipPath id="clip-path-16">
      <path id="Path_647" data-name="Path 647" d="M1773.128,1612.021c-1.364-4.334,1.3-7.47,5.863-7.673s10.326.142,19.639-1.015,17.655-3.168,19.208.669.388,6.091-2.846,6.7-34.535,8.646-34.858,8.646A10.631,10.631,0,0,1,1773.128,1612.021Z" transform="translate(-1772.77 -1601.764)" fill="#bc4517"/>
    </clipPath>
    <clipPath id="clip-path-17">
      <path id="Path_661" data-name="Path 661" d="M1740.741,1387.608s-8.246,4.568-9.119,12.968,5.728,18.178,7.373,28.593.873,28.2-14.519,26.98c-10.864-.973-10.735-10.6-9.186-18.515s4.915-19-.906-20.219-12.934,5.481-27.55,6.577-20.306,8.892-24.7,20.22-3.071,20.493-.549,21.681,8.634,1.189,15.909-1.553,13.775-4.66,17.461-2.65,3.686,4.385,5.918,4.755,25.288-2.01,34.6-3.35,23.54-7.064,30.524-14.129,5.3-25.092,2.587-36.175-8.862-24.3-16.815-26.432C1742.13,1386.725,1740.741,1387.608,1740.741,1387.608Z" transform="translate(-1659.25 -1386.36)" fill="#f9d05d"/>
    </clipPath>
    <clipPath id="clip-path-18">
      <path id="Path_653" data-name="Path 653" d="M1823.55,1805.74l1.638-1.695s17.085-4.06,21.547,10.556c2.425,10.14-3.3,17.173-9.51,19.275C1829.468,1830.857,1823.55,1805.74,1823.55,1805.74Z" transform="translate(-1823.55 -1803.528)" fill="#ce6700"/>
    </clipPath>
    <clipPath id="clip-path-19">
      <path id="Path_658" data-name="Path 658" d="M1613.3,1818.729s3.4-6.944,15.909-10.232,21.148,4.933,21.245,12.333-1.357,12.969-8.246,18.088c-15.424,7.126-24.446,7.126-24.931,7.309s-9.8,1.553-9.312-.64S1613.3,1818.729,1613.3,1818.729Z" transform="translate(-1607.95 -1807.752)" fill="#ef7d0a"/>
    </clipPath>
    <clipPath id="clip-path-20">
      <path id="Path_665" data-name="Path 665" d="M1971.635,1552.948s-.041.089-.108.24a8.406,8.406,0,0,0-.757,2.942,21.367,21.367,0,0,0,3.151,9.24c2.57,4.254,32.072,6.546,32.072,6.546l-3.07,27.576s1.877,3.906,11.146.051c0,0,5.049-28.545,5.6-33.5s-25.241-13.4-25.241-13.4Z" transform="translate(-1970.768 -1552.64)" fill="#205299"/>
    </clipPath>
    <clipPath id="clip-path-21">
      <path id="Path_669" data-name="Path 669" d="M1993.079,1139.212l-.724.082a63.9,63.9,0,0,0-9.726-.469c-3.73.276-7.22,8.781-10.34,17.5s-9.088,28.086-8.261,29.921,7.282,2.856,15.073,2.367,15.67-5.119,19.531-6.955a81.53,81.53,0,0,1,5.048-17.347c2.2-4.956,5.037-14.288,4.222-18.7-.694-3.3-9.587-4.813-9.587-4.813Z" transform="translate(-1963.95 -1138.764)" fill="#e54a4a"/>
    </clipPath>
    <clipPath id="clip-path-22">
      <path id="Path_673" data-name="Path 673" d="M2007.084,1144.936c1.3,3.609,1.9,5.935.735,8.754s-5.569,12.851-5.569,12.851,12.789.734,15.481.979a2.579,2.579,0,0,1,2.509,2.753l.244,5.691s-.184,2.02-3.611,1.775-22.154-.673-25.332-2.269-2.509-4.467-1.224-9.117a184.224,184.224,0,0,1,7.16-18.846c2.142-4.834,5.874-6.649,7-6.242S2006.7,1143.854,2007.084,1144.936Z" transform="translate(-1989.25 -1141.208)" fill="#ffd56c"/>
    </clipPath>
    <clipPath id="clip-path-23">
      <path id="Path_676" data-name="Path 676" d="M2223.21,1095.73l-.571,5.1a3.524,3.524,0,0,0,3.264,2.733,3.692,3.692,0,0,0,3.14-1.141l.775-5.63Z" transform="translate(-2222.64 -1095.73)" fill="#344058"/>
    </clipPath>
    <clipPath id="clip-path-24">
      <path id="Path_686" data-name="Path 686" d="M2269.236,999.028s-.356,6.727-.624,8.732-1.96,3.208-4.455,2.45-5.124-1.826-5.657-4.323a54.36,54.36,0,0,1,1.292-11.717l9.534,2.762Z" transform="translate(-2258.5 -994.17)" fill="#fcb8a5"/>
    </clipPath>
    <clipPath id="clip-path-25">
      <path id="Path_691" data-name="Path 691" d="M2189.7,930.241c2.824.231,3.59.407,4.119.244s1.729-2.04.979-5.4c-1.081-4.854-6.648-8.343-14.318-5.813s-7.261,11.788-5.183,16.074,3.3,4.477,4.926,4.691,3.947.458,4.376-.216-.276-2.754.061-5.721,1.041-4.039,1.9-4.162A17.118,17.118,0,0,1,2189.7,930.241Z" transform="translate(-2174.002 -918.421)" fill="#ffa96e"/>
    </clipPath>
    <clipPath id="clip-path-26">
      <ellipse id="Ellipse_179" data-name="Ellipse 179" cx="4.983" cy="5.241" rx="4.983" ry="5.241" transform="matrix(0.694, -0.72, 0.72, 0.694, 0, 7.18)" fill="#f9cd80"/>
    </clipPath>
    <clipPath id="clip-path-27">
      <path id="Path_697" data-name="Path 697" d="M2222.013,1325.672c-.776-2.283,9.41-5.572,12.385-7.034a19.724,19.724,0,0,0,3.427-1.888s2.2-5.785,8.181-6.79,9.734,3.9,9.734,3.9,5.561.216,9.6,0,5.788-.792,6.144.756-3.233,1.279-6.37,2.1-8.6,1.918-8.6,1.918-1.035,2.8-7.565,3.838-9.572-1.645-9.572-1.645-6.144,2.223-10.159,3.928S2222.515,1327.161,2222.013,1325.672Z" transform="translate(-2221.971 -1309.823)" fill="#e07b09"/>
    </clipPath>
    <clipPath id="clip-path-28">
      <path id="Path_702" data-name="Path 702" d="M2671.927,1855.248c-1.033-9.638-9.347-16.74-18.568-15.863a16.254,16.254,0,0,0-1.994.317c-.2.043-.658.064-.756.09a40.663,40.663,0,0,0-6.909,1.8s-1.207,1.238-1.531,1.238l.5,2.1a17.656,17.656,0,0,0-4.138,13.5,17.9,17.9,0,0,0,10.924,14.742l.686,2.854s5.992-.648,8.97-1.99a.145.145,0,0,0,.017-.067C2667.274,1872.131,2672.884,1864.163,2671.927,1855.248Z" transform="translate(-2638.429 -1839.312)" fill="#5b2840"/>
    </clipPath>
    <clipPath id="clip-path-29">
      <ellipse id="Ellipse_182" data-name="Ellipse 182" cx="16.76" cy="17.565" rx="16.76" ry="17.565" transform="translate(0 7.654) rotate(-13.2)" fill="#7f606e"/>
    </clipPath>
    <clipPath id="clip-path-30">
      <path id="Path_707" data-name="Path 707" d="M2501.036,1771.3s-3.491-13.246,6.791-20.919,24.155-2.741,28.035,6.212c-4.17,1.826-13.257,1.857-17.105,5.45S2512.419,1773.68,2501.036,1771.3Z" transform="translate(-2500.465 -1746.592)" fill="#ef7d0a"/>
    </clipPath>
  </defs>
  <g id="_06" data-name="06" transform="translate(-52.214 -39.13)">
    <path id="Path_557" data-name="Path 557" d="M3086.781,601.661c-20.958-6.239-28.957-20.317-40.8-29.277s-28.8-6.4-30.4,4.16,12.159,28.478,24.958,35.837c12.939,7.44,37.437,15.038,51.515,12.8S3107.739,607.9,3086.781,601.661Z" transform="translate(-2689.713 -505.432)" fill="#f0f5ff"/>
    <path id="Path_558" data-name="Path 558" d="M552.008,624.782s-49.946-39.463-35.23-138.013S621.016,368.7,646.293,368.7s88.952,4.8,120.628,46.395,53.755,30.717,88.952,42.556,57.915,51.2,57.277,88.312-25.917,75.832-38.4,78.072C857.153,624.035,552.008,624.782,552.008,624.782Z" transform="translate(-458.645 -328.626)" fill="#f0f5ff"/>
    <g id="Group_248" data-name="Group 248" transform="translate(55.421 40.074)" clip-path="url(#clip-path)">
      <path id="Path_559" data-name="Path 559" d="M557.115,1110.935c2.792-3.6,7.58-9.014,5.451-15.292a10.416,10.416,0,0,0-7.629-7.145,45.965,45.965,0,0,0,3.458-4.5c2.519-3.557,4.863-9.144,4.142-14.557-.471-3.559-3.121-7.557-12.148-10.772,8.646-4.455,12.69-10.142,9.775-16.154s-11.227-5.788-21.83-1.377a423.032,423.032,0,0,0-48.124,23.64c-18.523,10.78-53.292,25.528-65.025,38.8s-11.131,16.077-21.862,45.731c-2.226,6.16-6.63,18.826-11.906,30.269-2.383,5.17-4.385,9.47-4.336,12.212.108,5.98,5.714,5.925,8.328.978,2.834-5.364,4.912-10.116,7.111-12.181,2.81-2.638,7.113-1,5.265,4.633-2.864,8.727-8.429,15.9-1.222,18.459,6.658,2.362,9.281-15.429,16.588-11.147s-2.634,11.364-.073,20.514,15.477,11.467,20.425,1.157a53.053,53.053,0,0,1,21.841-23.883c10.306-6.179,37.67-26.747,47.119-35.942s26.161-17.742,26.161-17.742,1.4,3.3,10.988.121,10.067-6.963,10.591-8.122-.451-8.222-3.26-9.969a9.169,9.169,0,0,0-5.682-1.316A58.765,58.765,0,0,0,557.115,1110.935Z" transform="translate(-400.805 -965.588)" fill="#e09b55"/>
    </g>
    <path id="Path_561" data-name="Path 561" d="M1016.159,788.327l.009-.013-.063-.032a9.151,9.151,0,0,0-3.378-1.776l-4.406-2.316-4.586.854-.638,1.12H940.219a9.243,9.243,0,0,0-9.175,8.233L914.776,940.66c-.024.216-.039.427-.049.639l-2.728,4.8,7.157,3.52v-.01a9.157,9.157,0,0,0,4.791,1.343H993.96a9.242,9.242,0,0,0,9.174-8.234L1019.4,796.449A9.254,9.254,0,0,0,1016.159,788.327Z" transform="translate(-813.574 -699.213)" fill="#1d64cc"/>
    <path id="Path_562" data-name="Path 562" d="M964.653,769.47H894.644a9.241,9.241,0,0,0-9.174,8.234L869.2,923.968a9.251,9.251,0,0,0,9.174,10.286h70.01a9.241,9.241,0,0,0,9.174-8.233l16.269-146.264A9.251,9.251,0,0,0,964.653,769.47Z" transform="translate(-775.349 -686.084)" fill="#5b9fdd"/>
    <path id="Path_563" data-name="Path 563" d="M991.495,967.631H929.108c-4.9,0-8.718-4.512-8.174-9.668l14.5-137.465a9.128,9.128,0,0,1,.236-1.311,8.317,8.317,0,0,1,7.94-6.427h62.381c4.9,0,8.719,4.511,8.176,9.668L999.669,959.893A8.408,8.408,0,0,1,991.495,967.631Z" transform="translate(-821.496 -724.696)" fill="#f0f5ff"/>
    <g id="Group_249" data-name="Group 249" transform="translate(99.386 88.064)" clip-path="url(#clip-path-2)">
      <path id="Path_564" data-name="Path 564" d="M1435.13,1208.3h4.2l2.863-37.113-3.782-.586Z" transform="translate(-1379.555 -1131.928)" fill="#bfd2ef"/>
      <path id="Path_565" data-name="Path 565" d="M1430.76,1204.62h5.079l2.925-37.912-4.636-.718Zm7.079-37.176-2.8,36.312H1431.7l3.2-36.769Z" transform="translate(-1375.657 -1127.816)" fill="#6884af"/>
      <path id="Path_566" data-name="Path 566" d="M974.76,1657.835h.149l.016-.055Z" transform="translate(-968.937 -1566.458)" fill="#bfd2ef"/>
      <path id="Path_567" data-name="Path 567" d="M953.242,1652.684H950.11l3.492-1.164Z" transform="translate(-946.951 -1560.875)" fill="#6884af"/>
      <path id="Path_568" data-name="Path 568" d="M1015.47,1658.29h-48.3l-1.087,3.532h45.748l14.182,18.928h20.639v-4.635h-17.714Z" transform="translate(-961.195 -1566.913)" fill="#bfd2ef"/>
      <path id="Path_569" data-name="Path 569" d="M1042.257,1677.641h-21.29l-14.18-18.925H960.67l1.352-4.4h48.838l13.466,17.825h17.931Zm-20.858-.865h19.993v-3.771h-17.5l-13.466-17.825H962.663l-.822,2.67h45.379Z" transform="translate(-956.37 -1563.372)" fill="#6884af"/>
      <path id="Path_570" data-name="Path 570" d="M1114.069,917.921l-24.208.077a1.532,1.532,0,0,1-1.306-.723l-3.512-5.6a1.532,1.532,0,0,1-.232-.914l1.233-19.723a.679.679,0,0,0-.637-.718l-1.662-.1h-.044a.679.679,0,0,0-.674.627l-1.432,19.328a1.536,1.536,0,0,1-.5,1.031l-8.4,7.583a1.536,1.536,0,0,1-1.032.4h-37.838a.677.677,0,0,0-.009,1.353l80.3.561a.678.678,0,0,0,.677-.691l-.037-1.826A.681.681,0,0,0,1114.069,917.921Z" transform="translate(-1021.007 -881.849)" fill="#bfd2ef"/>
      <path id="Path_571" data-name="Path 571" d="M1110.479,913.938h0l-24.208.077h0a1.109,1.109,0,0,1-.939-.52l-3.512-5.6a1.114,1.114,0,0,1-.167-.658l1.229-19.722a1.108,1.108,0,0,0-1.044-1.176l-1.661-.1h-.064v.865h.015l1.661.094a.242.242,0,0,1,.169.082.247.247,0,0,1,.062.177l-1.233,19.722a1.959,1.959,0,0,0,.3,1.17l3.512,5.606a1.962,1.962,0,0,0,1.672.925h.006l24.208-.077a.245.245,0,0,1,.244.239l.037,1.826a.239.239,0,0,1-.069.176.244.244,0,0,1-.177.073l-80.288-.561a.243.243,0,0,1-.2-.1.239.239,0,0,1-.034-.216.244.244,0,0,1,.232-.169h37.839a1.971,1.971,0,0,0,1.323-.509l8.4-7.583a1.967,1.967,0,0,0,.648-1.32l1.432-19.328a.245.245,0,0,1,.243-.227v-.865h0a1.11,1.11,0,0,0-1.106,1.028l-1.432,19.328a1.106,1.106,0,0,1-.362.741l-8.4,7.583a1.108,1.108,0,0,1-.744.286h-37.845a1.109,1.109,0,0,0-.008,2.218l80.288.561h.008a1.109,1.109,0,0,0,1.109-1.131l-.037-1.826A1.109,1.109,0,0,0,1110.479,913.938Z" transform="translate(-1017.418 -878.299)" fill="#6884af"/>
      <path id="Path_572" data-name="Path 572" d="M1041.263,787.15l-4.373,3.627.533,6.826,83.619-.32-4.267-7.786Z" transform="translate(-1024.353 -789.918)" fill="#fff"/>
      <path id="Path_573" data-name="Path 573" d="M952.555,1976.39H926.923a1.538,1.538,0,0,0-1.522,1.31l-2.659,17.723a1.539,1.539,0,0,0,1.526,1.765h26.723a1.539,1.539,0,0,0,1.532-1.4l1.568-17.723a1.539,1.539,0,0,0-1.537-1.67Z" transform="translate(-922.526 -1850.636)" fill="#bfd2ef"/>
      <path id="Path_574" data-name="Path 574" d="M979.42,1710.89H951.584a1.539,1.539,0,0,0-1.53,1.387l-1.966,19.885a1.538,1.538,0,0,0,1.53,1.689h27.836a1.539,1.539,0,0,0,1.531-1.387l1.966-19.885a1.539,1.539,0,0,0-1.531-1.689Z" transform="translate(-945.142 -1613.829)" fill="#bfd2ef"/>
      <path id="Path_575" data-name="Path 575" d="M909.96,799.909l-16.18,141s.907,9.066,1.26,10.505,8.166,3.573,10.535,2.026c-3.428-.853-5.9-2.826-6.2-7.466s12.77-127.152,13.811-137.392,8.569-9.954,8.569-9.954l.9-1.276C916.916,795.537,909.96,799.909,909.96,799.909Z" transform="translate(-896.709 -798.624)" fill="#1d64cc"/>
      <path id="Path_576" data-name="Path 576" d="M1575.988,932.36h-25.011a1.54,1.54,0,0,0-1.536,1.446l-.735,12.269a1.539,1.539,0,0,0,.264.958l3.06,4.494a1.538,1.538,0,0,0,1.271.672h22.686a1.539,1.539,0,0,0,1.538-1.539V933.9A1.538,1.538,0,0,0,1575.988,932.36Z" transform="translate(-1480.855 -919.435)" fill="#bfd2ef"/>
      <path id="Path_577" data-name="Path 577" d="M1276.505,1193.35h-15.551a1.539,1.539,0,0,0-1.532,1.4l-1.686,19.885a1.539,1.539,0,0,0,1.534,1.667h15.55a1.537,1.537,0,0,0,1.532-1.4l1.686-19.885a1.538,1.538,0,0,0-1.532-1.668Z" transform="translate(-1221.327 -1152.22)" fill="#bfd2ef"/>
      <path id="Path_578" data-name="Path 578" d="M1524.916,1193.35h-25.123a1.537,1.537,0,0,0-1.532,1.4l-1.686,19.885a1.538,1.538,0,0,0,1.532,1.667h25.123a1.537,1.537,0,0,0,1.532-1.4l1.686-19.885a1.538,1.538,0,0,0-1.532-1.668Z" transform="translate(-1434.354 -1152.22)" fill="#bfd2ef"/>
      <path id="Path_579" data-name="Path 579" d="M1473.988,1585.14l-26.592.143a1.539,1.539,0,0,0-1.523,1.389l-.6,6.146a1.542,1.542,0,0,0,.34,1.124l12.1,14.783a1.539,1.539,0,0,0,1.189.564h12.169a1.538,1.538,0,0,0,1.524-1.326l2.931-21.074a1.539,1.539,0,0,0-1.53-1.748Z" transform="translate(-1388.594 -1501.669)" fill="#a0c0ef"/>
      <path id="Path_580" data-name="Path 580" d="M1499.313,1876.71H1487.5a1.539,1.539,0,0,0-1.3.718l-9.153,14.522a1.539,1.539,0,0,0,1.3,2.358h19.206a1.537,1.537,0,0,0,1.527-1.353l1.76-14.522a1.538,1.538,0,0,0-1.528-1.723Z" transform="translate(-1416.735 -1761.729)" fill="#bfd2ef"/>
      <path id="Path_581" data-name="Path 581" d="M1284.166,1729.983l-10.821-7.315a1.539,1.539,0,0,0-2.393,1.13l-1.678,17.866a1.538,1.538,0,0,0,1.531,1.683h12.5a1.54,1.54,0,0,0,1.535-1.533v-10.55A1.539,1.539,0,0,0,1284.166,1729.983Z" transform="translate(-1231.617 -1624.099)" fill="#bfd2ef"/>
      <path id="Path_582" data-name="Path 582" d="M1304.214,2159h-38.555a1.538,1.538,0,0,0-1.531,1.389l-.767,7.91a1.538,1.538,0,0,0,1.531,1.687h39.322a1.538,1.538,0,0,0,1.538-1.538v-7.913A1.538,1.538,0,0,0,1304.214,2159Z" transform="translate(-1226.342 -2013.512)" fill="#bfd2ef"/>
      <path id="Path_583" data-name="Path 583" d="M1345.49,1219.3l7.541.147,1.141-10.043-7.607,1.544Z" transform="translate(-1299.602 -1166.535)" fill="#a0c0ef"/>
      <path id="Path_584" data-name="Path 584" d="M1158.3,1457.387l-6.743.159a1.334,1.334,0,0,0-1.284,1.106l-2.634,15.144a1.335,1.335,0,0,0,1.3,1.563l7.5.081a1.336,1.336,0,0,0,1.339-1.174l1.881-15.383a1.335,1.335,0,0,0-1.357-1.5Z" transform="translate(-1123.115 -1387.722)" fill="#a0c0ef"/>
      <path id="Path_585" data-name="Path 585" d="M1017.977,1459.859l-10.522.174a1.333,1.333,0,0,0-1.305,1.2l-1.5,14.678a1.335,1.335,0,0,0,1.328,1.471h9.122a1.334,1.334,0,0,0,1.31-1.081l2.9-14.853a1.336,1.336,0,0,0-1.333-1.589Z" transform="translate(-995.593 -1389.926)" fill="#a0c0ef"/>
      <path id="Path_586" data-name="Path 586" d="M1271.19,979.655l10.512-.5,7.864-6.7s.331-10.267.414-10.513l-14.9-.165Z" transform="translate(-1233.332 -945.675)" fill="#a0c0ef"/>
      <path id="Path_587" data-name="Path 587" d="M1062.08,979.636h15.231L1083.1,962.5h-19.286Z" transform="translate(-1046.821 -946.318)" fill="#a0c0ef"/>
      <path id="Path_588" data-name="Path 588" d="M1056.489,1184.846c-8.057-.332-9.161,14.9-7.505,20.087s6.623,5.079,9.051,1.1,8.609-2.869,9.712-7.394S1068.962,1185.358,1056.489,1184.846Z" transform="translate(-1034.552 -1144.63)" fill="#ffcd92"/>
      <path id="Path_589" data-name="Path 589" d="M1461.876,1111.69a2.355,2.355,0,1,0,2.354,2.354,2.355,2.355,0,0,0-2.354-2.354Z" transform="translate(-1401.309 -1079.385)" fill="#f0f5ff"/>
      <rect id="Rectangle_241" data-name="Rectangle 241" width="48.177" height="9.271" transform="translate(33.14 134.305)" fill="#bfd2ef"/>
      <path id="Path_590" data-name="Path 590" d="M1272.571,2061.656H1223.53V2051.52h49.041Zm-48.177-.865h47.312v-8.407h-47.312Z" transform="translate(-1190.823 -1917.647)" fill="#6884af"/>
      <rect id="Rectangle_242" data-name="Rectangle 242" width="43.54" height="2.814" transform="translate(37.279 137.121)" fill="#fff"/>
    </g>
    <path id="Path_592" data-name="Path 592" d="M484.563,1069.734s.72-13.838,15.119-29.037,20.641-25.758,28-43.675,18.719-7.68,16.8,5.6-6.239,22.4-6.239,31.037,3.733,38.45-9.92,57.648-37.8,20.928-39.822,10.051S483.683,1076.32,484.563,1069.734Z" transform="translate(-432.181 -880.474)" fill="#ffcd92"/>
    <g id="Group_251" data-name="Group 251" transform="translate(52.214 106.939)" clip-path="url(#clip-path-3)">
      <path id="Path_593" data-name="Path 593" d="M487.7,977.57s.216,2.428-3.973,18.762-11.7,28.255-10.591,47.018-8.172,28.475-23.4,40.175-31.565-5.079-31.565-5.079c1.324,29.58,10.153,22.516,14.127,27.593s12.361.442,21.853-1.766,24.944-23.839,33.553-34.876,4.857-58.717,4.635-66.443S487.7,977.57,487.7,977.57Z" transform="translate(-425.327 -978.634)" fill="#efb473"/>
      <g id="Group_250" data-name="Group 250" transform="translate(36.762 -1.402)" opacity="0.56">
        <path id="Path_594" data-name="Path 594" d="M824.683,987.469c-1.1,2.208,5.749,6.352,11.147,5.4,2.034-.357,6.08-17.6,6.953-18.432l-10.044,1.215S825.787,985.263,824.683,987.469Z" transform="translate(-824.565 -974.44)" fill="#fff"/>
      </g>
    </g>
    <path id="Path_596" data-name="Path 596" d="M2622.04,506.168c-29.8-2.338-50.555-22.4-43.2-49.28s31.037-26.237,27.517-45.115-6.079-25.438,8.479-39.677,36.636-20.157,40.635,6.08-5.92,52.954-5.119,67.194,13.759,27.517,8,44.155S2630.2,506.807,2622.04,506.168Z" transform="translate(-2298.953 -320.827)" fill="#bbd7ff"/>
    <g id="Group_252" data-name="Group 252" transform="translate(278.401 39.13)" clip-path="url(#clip-path-4)">
      <path id="Path_597" data-name="Path 597" d="M2631.209,285.8s4.609,45.065-12.278,74.538,8.609,43.044-4.971,57.613c-12.843,13.783-48.508,16.3-59.331-8.42,14.512,35.291,64.626,39.878,64.626,39.878l36.1-19.865s4.972-28.145,1.656-53.309S2631.209,285.8,2631.209,285.8Z" transform="translate(-2557.086 -293.814)" fill="#93b8e5"/>
      <path id="Path_598" data-name="Path 598" d="M2541.528,1393.634q-.891-2.169-1.6-4.494A34.511,34.511,0,0,0,2541.528,1393.634Z" transform="translate(-2543.974 -1277.916)" fill="#93b8e5"/>
    </g>
    <path id="Path_600" data-name="Path 600" d="M3328.755,701.776c8.958.13,20.317,31.518,23.038,52.954s-5.439,49.914-28.639,49.914-26.878-27.357-24.64-46.875S3317.716,701.616,3328.755,701.776Z" transform="translate(-2941.674 -625.705)" fill="#9ab6e2"/>
    <g id="Group_254" data-name="Group 254" transform="translate(356.276 76.07)" clip-path="url(#clip-path-5)">
      <g id="Group_253" data-name="Group 253" transform="translate(-3.854 -5.845)" opacity="0.43">
        <path id="Path_601" data-name="Path 601" d="M3298.877,647.69c5.3,10.927,9.271,60.1-5.132,83.275s-31.455-9.767-31.455-9.767,3.477,18.048,4.8,23.674,6.788,10.76,15.23,15.893,27.317-2.152,32.284-4.8,11.754-37.912,12.086-51.488S3314.109,655.968,3298.877,647.69Z" transform="translate(-3262.29 -647.69)" fill="#668bbf"/>
      </g>
    </g>
    <path id="Path_603" data-name="Path 603" d="M3445.6,888.31s-3.674,32.477-3.359,43.675c-3.734-5.119-10.24-24.958-10.24-24.958s.534,18.132,9.279,28.478c-.959,16.751-1.6,153.905-1.6,153.905l12.159-2.239s-4.64-98.55-4.16-122.227c.324-13.758.324-16.159.324-16.159a23.727,23.727,0,0,0,16.958-10.079,42.126,42.126,0,0,1-18.4,5.6C3446.239,931.985,3444.959,910.708,3445.6,888.31Z" transform="translate(-3061.238 -792.081)" fill="#4e4e6b"/>
    <g id="Group_256" data-name="Group 256" transform="translate(370.763 96.229)" clip-path="url(#clip-path-6)">
      <g id="Group_255" data-name="Group 255" transform="translate(-15.692)" opacity="0.43">
        <path id="Path_604" data-name="Path 604" d="M3316.091,888.31l-16.487.927-12.8,76.045,19.536,134.43c.663-.993,11.588-9.6,11.588-9.6s-3.2-110.811-3.422-143.475S3316.091,888.31,3316.091,888.31Z" transform="translate(-3286.8 -888.31)" fill="#668bbf"/>
      </g>
    </g>
    <path id="Path_606" data-name="Path 606" d="M2758.218,725.017s-3.626-57.7-3.6-114.23c0,0-15.172-8.105-21.358-22.61a48.442,48.442,0,0,0,21.865,17.491c-.853-21.651.534-36.9,2.56-55.888s3.093-25.6,3.093-25.6-6.825-6.506-7.146-19.837c3.306,6.826,6.719,10.665,10.026,12.692,2.666-16.958,11.945-35.836,11.945-35.836s-7.359,31.464-10.133,62.393c0,0,13.012-5.972,18.132-25.81-1.494,15.145-10.026,26.45-17.705,31.571-1.067,18.771-1.494,35.2-1.494,35.2s11.732,1.919,18.772-11.092c-3.84,10.665-10.453,15.572-18.772,15.572.427,16.643,2.987,114.122,7.889,136.947C2763.978,725.764,2758.218,725.017,2758.218,725.017Z" transform="translate(-2438.01 -428.968)" fill="#668bbf"/>
    <g id="Group_257" data-name="Group 257" transform="translate(295.25 52.232)" clip-path="url(#clip-path-7)">
      <path id="Path_607" data-name="Path 607" d="M2639.814,411.78c-1.545,0-49.225,17.659-49.225,17.659l-5.409,99.223,29.248,133.658h18.984s-12.141-78.363-7.284-144.143,17-98.229,17-98.229S2641.357,411.78,2639.814,411.78Z" transform="translate(-2601.183 -419.282)" fill="#8ab2e2"/>
    </g>
    <path id="Path_609" data-name="Path 609" d="M738.595,1495.813l.054-5.733h-25.2c-10.719,0-17.118,6.96-15.519,16.319s9.759,11.279,8.4,18.879-8.8,8.959-29.437,16.318-43.036,19.6-50.72,34.8,1.439,36.312,26.557,42.236c17.118,4.323,56.635,3.674,79.353-2.88s45.329-23.411,100.151-29.17,99.834-2.987,95.779,8.538-68.047,2.773-85.966,17.705c26.664.427,48.422-.854,56.737,3.84,26.237-2.987,40.959-3.84,53.328-5.333s29.224-8.745,20.051-31.571-43.935-33.068-68.035-37.761-67.194-1.281-124.362,14.505-74.446,24.532-86.818,23.25-15.465-8.745-7.413-16.319,30.584-13.97,35.143-26.451-8.746-23.357-11.092-28.264-2.239-10.88,4.8-12.373S738.595,1495.813,738.595,1495.813Z" transform="translate(-556.28 -1328.818)" fill="#b3bfd5"/>
    <g id="Group_260" data-name="Group 260" transform="translate(67.251 161.262)" clip-path="url(#clip-path-8)">
      <g id="Group_258" data-name="Group 258" transform="translate(-17.065 9.396)" opacity="0.43">
        <path id="Path_610" data-name="Path 610" d="M799.108,1680.882c-15.01-4.857.662-12.141-20.966-21.192s-60.7-9.933-108.6-.883-73.506,26.269-106.837,32.89-62.032,2.428-72.839-20.307,32-42.607,41.931-47.794,29.689-10.044,34.1-16.556.108-10.591-5.519-17.218-5.3-12.8-5.3-12.8l-67,39.848s-19.867,30.241-22.295,37.529,22.073,46.135,22.073,46.135l80.349,4.415s114.562-9.051,115.227-9.051,137.078-.216,147.9-3.752,8.387-18.1,3.532-28.035C834.648,1678.674,814.119,1685.737,799.108,1680.882Z" transform="translate(-465.624 -1577.02)" fill="#29486d"/>
      </g>
      <g id="Group_259" data-name="Group 259" transform="translate(114.131 54.943)" opacity="0.43">
        <path id="Path_611" data-name="Path 611" d="M1745.483,2017.062c-28.917,1.324-55.847,10.375-64.236,20.307s17.66,9.272,28.255,5.74,48.342-13.906,87.413-19.2,28.475-17.88,23.178-24.281S1774.633,2015.726,1745.483,2017.062Z" transform="translate(-1679.61 -1998.48)" fill="#7186a8"/>
      </g>
    </g>
    <path id="Path_613" data-name="Path 613" d="M1372.784,1514.937a15.39,15.39,0,0,0-4.008.781l-.243.086c-.081.029-.16.064-.24.1l-.239.1a2.214,2.214,0,0,0-.237.108l-.467.226-.453.257a8.513,8.513,0,0,0-1.647,1.29,7.6,7.6,0,0,0-1.241,1.709l-.234.477c-.07.162-.128.324-.192.494l-.094.248-.073.255-.141.51v.017a.393.393,0,1,0,.766.177l.007-.032.108-.471.055-.236.076-.229c.052-.151.1-.307.155-.457l.193-.442a6.986,6.986,0,0,1,1.056-1.612,8.012,8.012,0,0,1,1.477-1.273l.416-.265.432-.237a2.361,2.361,0,0,1,.216-.108l.225-.108c.075-.034.149-.072.225-.108l.231-.093a14.993,14.993,0,0,1,3.891-.951q1-.119,2.013-.141a18.536,18.536,0,0,1,2.022.056,18.8,18.8,0,0,0-2.022-.162C1374.14,1514.88,1373.462,1514.89,1372.784,1514.937Z" transform="translate(-1216.069 -1350.946)" fill="#fff"/>
    <path id="Path_614" data-name="Path 614" d="M1297.76,1771.4c-.029-.193-.054-.388-.088-.58a10.085,10.085,0,0,0-.3-1.117l-.091-.272-.046-.136-.048-.124-.2-.5q-.2-.5-.414-.982-.432-.973-.912-1.922a.886.886,0,0,0-1.594.774h0q.423.921.794,1.86c.123.312.241.628.354.943l.167.475.04.119.032.108.065.216a8.2,8.2,0,0,1,.206.892c.02.149.031.3.05.448a3.448,3.448,0,0,1,.021.446,6.309,6.309,0,0,1-.045.885l-.077.432a1.535,1.535,0,0,1-.051.216l-.058.216a7.027,7.027,0,0,1-.712,1.66c-.039.067-.072.135-.115.2l-.129.2c-.087.129-.163.263-.259.388l-.283.378-.07.1-.077.091-.155.183a16.285,16.285,0,0,1-1.335,1.405c-.482.442-.98.873-1.5,1.285-1.042.825-2.137,1.607-3.258,2.364s-2.27,1.485-3.448,2.187c-2.349,1.4-4.771,2.713-7.2,4.026h0a1.189,1.189,0,0,0,1.128,2.093c2.439-1.316,4.877-2.648,7.286-4.068a49.305,49.305,0,0,0,7.011-4.755,21.153,21.153,0,0,0,3.062-3.126l.171-.216.086-.108.08-.117.324-.465c.108-.155.2-.324.3-.484l.147-.245c.049-.082.089-.17.134-.255a9.106,9.106,0,0,0,.834-2.176l.067-.288a2.356,2.356,0,0,0,.055-.291l.08-.588a8.188,8.188,0,0,0,.017-1.189A4.653,4.653,0,0,0,1297.76,1771.4Z" transform="translate(-1138.599 -1574.287)" fill="#fff"/>
    <path id="Path_615" data-name="Path 615" d="M916.425,2083.541c-2.357,1.484-4.688,3.026-6.95,4.682a58.912,58.912,0,0,0-6.493,5.424,36.293,36.293,0,0,0-2.888,3.17,26.191,26.191,0,0,0-2.436,3.592,20.743,20.743,0,0,0-1.745,4.024,20.235,20.235,0,0,0-.836,4.323,1.189,1.189,0,1,0,2.37.194v-.006a17.783,17.783,0,0,1,.735-3.8,18.332,18.332,0,0,1,1.551-3.566,23.784,23.784,0,0,1,2.216-3.266,33.627,33.627,0,0,1,2.7-2.959,56.789,56.789,0,0,1,6.232-5.2c2.2-1.61,4.487-3.122,6.808-4.585h0a1.189,1.189,0,1,0-1.268-2.011Z" transform="translate(-798.476 -1857.985)" fill="#fff"/>
    <path id="Path_616" data-name="Path 616" d="M1041.388,2470.009h0c-2.722.335-5.452.6-8.185.768s-5.469.252-8.2.216a77.272,77.272,0,0,1-8.151-.52,48.747,48.747,0,0,1-7.926-1.577h-.013a1.189,1.189,0,1,0-.672,2.28,51.5,51.5,0,0,0,8.321,1.661,79.6,79.6,0,0,0,8.4.54c2.8.038,5.595-.045,8.382-.216s5.565-.44,8.332-.781a1.189,1.189,0,0,0-.291-2.36Z" transform="translate(-898.653 -2201.81)" fill="#fff"/>
    <path id="Path_617" data-name="Path 617" d="M1556.637,2329.464l-7.638,3.277-1.9.818c-.629.274-1.263.535-1.9.8q-1.9.785-3.825,1.525c-1.283.49-2.569.972-3.864,1.426-.648.233-1.3.453-1.945.679s-1.3.441-1.953.648q-3.913,1.286-7.889,2.377h0a1.189,1.189,0,1,0,.633,2.292q4.027-1.112,8-2.409c.662-.216,1.321-.441,1.981-.661s1.317-.452,1.972-.688c1.313-.464,2.617-.951,3.919-1.447s2.594-1.017,3.882-1.547c.642-.27,1.287-.535,1.926-.814l1.911-.822,7.609-3.265.017-.008a1.189,1.189,0,1,0-.938-2.185Z" transform="translate(-1360.198 -2077.401)" fill="#fff"/>
    <path id="Path_618" data-name="Path 618" d="M2046.928,2161.562a311.473,311.473,0,0,0-31.87,9.642h0a1.189,1.189,0,0,0,.8,2.238,308.666,308.666,0,0,1,31.627-9.57,1.189,1.189,0,1,0-.56-2.311Z" transform="translate(-1796.722 -1927.702)" fill="#fff"/>
    <path id="Path_619" data-name="Path 619" d="M2555.3,2099.889a214.971,214.971,0,0,0-33.262,2.213,1.189,1.189,0,0,0,.337,2.354,212.5,212.5,0,0,1,32.9-2.19,1.189,1.189,0,1,0,.03-2.377Z" transform="translate(-2248.705 -1872.713)" fill="#fff"/>
    <path id="Path_620" data-name="Path 620" d="M3077.45,2121.581q-4.023-1.1-8.093-2.015t-8.158-1.7c-.682-.129-1.365-.255-2.053-.374s-1.369-.228-2.053-.337c-1.372-.21-2.745-.406-4.119-.6q-4.117-.6-8.244-1.122a1.189,1.189,0,0,0-.3,2.359h0c2.737.348,5.47.715,8.2,1.119,1.364.2,2.723.433,4.083.648s2.72.433,4.082.642c5.446.834,10.865,1.826,16.225,3.067h0a.869.869,0,0,0,.425-1.686Z" transform="translate(-2714.626 -1886.579)" fill="#fff"/>
    <path id="Path_621" data-name="Path 621" d="M3560.811,2260.922a19.912,19.912,0,0,0-2.732-3.051,30.174,30.174,0,0,0-3.215-2.54l-.013-.009a.383.383,0,0,0-.408.648h0a30.992,30.992,0,0,1,3.249,2.337,19.423,19.423,0,0,1,2.812,2.849,15.625,15.625,0,0,1,2.086,3.42,17.835,17.835,0,0,1,1.2,3.851,17.791,17.791,0,0,0-1.013-3.928A15.919,15.919,0,0,0,3560.811,2260.922Z" transform="translate(-3170.288 -2011.308)" fill="#fff"/>
    <path id="Path_622" data-name="Path 622" d="M3154.61,2426.869a2.525,2.525,0,0,0,.167-2.918c-.472-.72-1.223-1.336-3.364-.807a6.255,6.255,0,0,0-2.363-6.506,7.193,7.193,0,0,0-9.714,1.807c.927-2.781-1.484-4.523-3.522-2.965,1.89-3.891-.26-6.785-2.521-8.23s-7.823-2.892-10.2,2.113c.259-3.633-4.412-5.561-7.6-3.226.557-2.447-1.594-5.449-4.152-6.562s-6.452.186-8.305,3.633c-2.817-1.335-6.858,1.632-7.711,4a9.543,9.543,0,0,0,1.742,9.64c-2.633-1.334-4.227.593-4.152,3.04-.89-1.557-3.674-2.521-6.3-.741s-2.669,4.671-1.817,7.86a3.468,3.468,0,0,0-4.3,3.374,2.885,2.885,0,0,0,3.3,3.3l76.958.028C3163.147,2429.649,3157.81,2426.368,3154.61,2426.869Z" transform="translate(-2747.71 -2139.676)" fill="#ffd56c"/>
    <rect id="Rectangle_243" data-name="Rectangle 243" width="339.168" height="4.692" rx="2.346" transform="translate(85.258 293.81)" fill="#677b99"/>
    <g id="Group_261" data-name="Group 261" transform="translate(85.258 293.81)" clip-path="url(#clip-path-9)">
      <rect id="Rectangle_244" data-name="Rectangle 244" width="346.671" height="3.642" transform="translate(-2.234 2.893)" fill="#2f415b"/>
    </g>
    <path id="Path_623" data-name="Path 623" d="M2137.323,1671.008c-.649-12.428-4.4-15.778-4.4-15.778l-9.442-.67.648,8.16-3.751,20.828s4.915,11.937,5.949,13.886,16.686.73,16.686.73,7.113-3.9,10.606-8.282C2137.064,1693.786,2137.969,1683.433,2137.323,1671.008Z" transform="translate(-1891.364 -1475.522)" fill="#d67000"/>
    <path id="Path_624" data-name="Path 624" d="M2131.259,1598.648c-3.039-2.223-8.471-.883-8.471-.883l-3.008,1.248,3.848,8.105s7.049-.757,8.5-1.583S2134.3,1600.871,2131.259,1598.648Z" transform="translate(-1890.829 -1424.508)" fill="#8e2d0e"/>
    <path id="Path_625" data-name="Path 625" d="M1655.718,1153.916l-44.525,2.673a5.929,5.929,0,0,0-5.569,6.172l1.837,43.012a5.93,5.93,0,0,0,6.237,5.668l41.175-2.172a5.93,5.93,0,0,0,5.613-5.716l1.507-43.517a5.93,5.93,0,0,0-6.275-6.121Z" transform="translate(-1432.234 -1028.974)" fill="#ff9c97"/>
    <g id="Group_263" data-name="Group 263" transform="translate(173.385 124.932)" clip-path="url(#clip-path-10)">
      <path id="Path_626" data-name="Path 626" d="M1565.05,1131.027l39.053-2.3a4.242,4.242,0,0,1,4.489,4.107l1.467,48.113s29.864-1.28,29.437-3.519-10.772-61.755-10.772-61.755l-62.714,4.906Z" transform="translate(-1569.434 -1119.802)" fill="#f86748"/>
      <g id="Group_262" data-name="Group 262" transform="translate(-4.384 -4.132)" clip-path="url(#clip-path-11)">
        <path id="Path_627" data-name="Path 627" d="M1974.805,1115.552c-.661-.662-16.555-2.152-16.555-2.152l1.049,17.4,2.1,53.95s21.614-11.546,22.018-14.9,2.649-20.858-1.489-33.276S1975.468,1116.214,1974.805,1115.552Z" transform="translate(-1915.757 -1113.645)" fill="#c45b4d"/>
      </g>
    </g>
    <path id="Path_630" data-name="Path 630" d="M1803.8,2049c-9.644,0-17.462,7.362-17.462,16.444a16.242,16.242,0,0,0,8.225,13.955l1.25,2.143s4.04,1.361,10.4.188c8.5-1.107,15.049-7.976,15.049-16.286C1821.263,2056.364,1813.445,2049,1803.8,2049Z" transform="translate(-1593.424 -1827.335)" fill="#5b2840"/>
    <g id="Group_264" data-name="Group 264" transform="translate(192.916 221.665)" clip-path="url(#clip-path-12)">
      <path id="Path_631" data-name="Path 631" d="M1999.01,2084.06l3.634,8.733v-.118l1.536.914,10.214-.295-4.919-7.583Z" transform="translate(-1976.027 -2080.271)" fill="#3f172b"/>
    </g>
    <ellipse id="Ellipse_173" data-name="Ellipse 173" cx="17.461" cy="16.444" rx="17.461" ry="16.444" transform="translate(186.353 221.21)" fill="#7f606e"/>
    <g id="Group_265" data-name="Group 265" transform="translate(186.353 221.21)" clip-path="url(#clip-path-13)">
      <path id="Path_633" data-name="Path 633" d="M1735.723,2022.9s-28.136,9.265-27.572,9.383.125,5.9.125,5.9a19.132,19.132,0,0,0,12.658,6.315c7.708.53,26-6.2,26-6.2s1.066-7.082.689-8.025S1735.723,2022.9,1735.723,2022.9Z" transform="translate(-1710.03 -2025.266)" fill="#603b4c"/>
    </g>
    <ellipse id="Ellipse_175" data-name="Ellipse 175" cx="8.246" cy="7.765" rx="8.246" ry="7.765" transform="translate(195.568 229.889)" fill="#aa96a0"/>
    <path id="Path_634" data-name="Path 634" d="M1858.353,2166.52a3.294,3.294,0,1,0,3.492,3.289A3.4,3.4,0,0,0,1858.353,2166.52Z" transform="translate(-1654.539 -1932.155)" fill="#5b2840"/>
    <path id="Path_635" data-name="Path 635" d="M1716.73,2066.87s1.714,3.948,2.533,4.431a7.444,7.444,0,0,0,2.587.568,3.94,3.94,0,0,0,1.081,2.517c.994.812,5.648,1.746,16.427-1.664s12.849-5.477,12.849-5.477l-4.182-5.765-18.711.972Z" transform="translate(-1531.337 -1838.466)" fill="#994900"/>
    <g id="Group_266" data-name="Group 266" transform="translate(185.393 223.014)" clip-path="url(#clip-path-14)">
      <path id="Path_636" data-name="Path 636" d="M1729.462,2028.61l-19.927,7.2-2.255,2.872.553,1.9s1.243,1.837,9.1-.443,13.953-6.255,18.3-5a13.258,13.258,0,0,1,6.683,4.642l4.3-.59-2.506-5.979Z" transform="translate(-1708.301 -2032.162)" fill="#4f2401"/>
    </g>
    <path id="Path_638" data-name="Path 638" d="M2179.361,1602.357c-2.876-2.234-8.016-.887-8.016-.887l-2.845,1.254,3.641,8.139s6.67-.765,8.047-1.591S2182.234,1604.585,2179.361,1602.357Z" transform="translate(-1934.284 -1427.81)" fill="#fff"/>
    <path id="Path_639" data-name="Path 639" d="M2169.614,1609.267l-3.794-8.481,3.077-1.353a15.028,15.028,0,0,1,2.977-.4,8.026,8.026,0,0,1,5.226,1.327,5.287,5.287,0,0,1,2.083,4.545,3.435,3.435,0,0,1-1.278,2.724c-1.405.841-7.858,1.589-8.132,1.621Zm-3.222-8.261,3.487,7.8c1.012-.122,6.593-.819,7.8-1.543a3.048,3.048,0,0,0,1.068-2.378,4.872,4.872,0,0,0-1.915-4.178h0c-2.68-2.082-7.5-.932-7.813-.854Z" transform="translate(-1931.894 -1425.988)"/>
    <path id="Path_640" data-name="Path 640" d="M2203.416,1541.338c-4.681-4.222-26.617-6.884-26.617-6.884s-9.414-.432-11.131.184-1.958,3.386-1.958,3.386l22.172,11.942s-2.387,17.531-1.377,32.583c5.965,4.774,12.3.184,12.3.184S2208.1,1545.56,2203.416,1541.338Z" transform="translate(-1930.012 -1368.264)" fill="#133787"/>
    <path id="Path_641" data-name="Path 641" d="M2271.482,1958.62l-9.015,2.427-1.346,4.773a12.472,12.472,0,0,0,6.67,1.448c4.386-.065,7.913-3.674,7.913-3.674l-2.773-1.794Z" transform="translate(-2016.895 -1746.723)" fill="#1d64cc"/>
    <path id="Path_642" data-name="Path 642" d="M2302.244,1188.869a5.579,5.579,0,0,1,5.92-.64c3.12,1.681,2.88,8.959,2.639,13.2s-.72,6.8.481,6.88,16.549-5.493,17.99-6.133,5.359,6.484,2.239,7.76-16.55,9.412-23.349,8.052-6.56-5.2-6.72-12.559S2300.565,1190.548,2302.244,1188.869Z" transform="translate(-2052.602 -1059.043)" fill="#ffd56c"/>
    <g id="Group_267" data-name="Group 267" transform="translate(248.552 128.575)" clip-path="url(#clip-path-15)">
      <path id="Path_643" data-name="Path 643" d="M2293.9,1194.749a90.234,90.234,0,0,0-2.207,12.361c-.055,1.878,2.428,3.807,2.428,3.807s3.7-10.981,5.518-19.149.442-11.478.442-11.478S2295.059,1189.892,2293.9,1194.749Z" transform="translate(-2292.714 -1181.082)" fill="#344058"/>
    </g>
    <path id="Path_645" data-name="Path 645" d="M1773.128,1612.021c-1.364-4.334,1.3-7.47,5.863-7.673s10.326.142,19.639-1.015,17.655-3.168,19.208.669.388,6.091-2.846,6.7-34.535,8.646-34.858,8.646A10.631,10.631,0,0,1,1773.128,1612.021Z" transform="translate(-1581.321 -1428.432)" fill="#bc4517"/>
    <g id="Group_268" data-name="Group 268" transform="translate(191.449 173.332)" clip-path="url(#clip-path-16)">
      <path id="Path_646" data-name="Path 646" d="M1790.191,1589s-8.522.827-9.024.827,3.509,8.97,6.516,10.976-4.761,1.77-18.673,1.652l2.758,6.137s16.417,0,23.559-.354,12.784-4.721,14.157-6.845,2.633-7.2,2.256-8.025S1790.191,1589,1790.191,1589Z" transform="translate(-1769.416 -1590.379)" fill="#8e2d0e"/>
    </g>
    <path id="Path_648" data-name="Path 648" d="M1740.741,1387.608s-8.246,4.568-9.119,12.968,5.728,18.178,7.373,28.593.873,28.2-14.519,26.98c-10.864-.973-10.735-10.6-9.186-18.515s4.915-19-.906-20.219-12.934,5.481-27.55,6.577-20.306,8.892-24.7,20.22-3.071,20.493-.549,21.681,8.634,1.189,15.909-1.553,13.775-4.66,17.461-2.65,3.686,4.385,5.918,4.755,25.288-2.01,34.6-3.35,23.54-7.064,30.524-14.129,5.3-25.092,2.587-36.175-8.862-24.3-16.815-26.432C1742.13,1386.725,1740.741,1387.608,1740.741,1387.608Z" transform="translate(-1480.069 -1236.307)" fill="#f9d05d"/>
    <g id="Group_272" data-name="Group 272" transform="translate(179.181 150.053)" clip-path="url(#clip-path-17)">
      <path id="Path_649" data-name="Path 649" d="M1978.424,1445.861c-4.793,7.17-26.318,13.9-34.5-3.1s-4.793-24.874-4.793-24.874l-6.673,1.682,2.82,34.433s5.169,10.356-2.351,30.183c-6.579,1.683-11.937,1.328-22.465-1.945s-15.6-20.094-15.6-20.094l-5.734,24.785s6.484,10.887,7.144,11.683,25.754,1.5,77.64-9.825S1986.7,1461,1978.424,1445.861Z" transform="translate(-1864.287 -1414.482)" fill="#f2bc44"/>
      <path id="Path_650" data-name="Path 650" d="M1823.55,1805.74l1.638-1.695s17.085-4.06,21.547,10.556c2.425,10.14-3.3,17.173-9.51,19.275C1829.468,1830.857,1823.55,1805.74,1823.55,1805.74Z" transform="translate(-1805.794 -1758.444)" fill="#ce6700"/>
      <g id="Group_269" data-name="Group 269" transform="translate(17.756 45.083)" clip-path="url(#clip-path-18)">
        <path id="Path_651" data-name="Path 651" d="M1851.327,1766.652c-4.139-1.766-21.247-10.153-21.247,0,0,.166,15.617-4.138,22.295,12.141.8,2.071,2.985,3.533,3.91,5.09C1862.67,1768.482,1855.113,1768.267,1851.327,1766.652Z" transform="translate(-1829.374 -1766.239)" fill="#344058"/>
        <path id="Path_652" data-name="Path 652" d="M2054.722,1966.79c-.6,1.435-1.311,3-2.162,4.715C2055.376,1969.559,2055.525,1968.139,2054.722,1966.79Z" transform="translate(-2027.811 -1949.146)" fill="#344058"/>
      </g>
      <path id="Path_654" data-name="Path 654" d="M1613.3,1818.729s3.4-6.944,15.909-10.232,21.148,4.933,21.245,12.333-1.357,12.969-8.246,18.088c-15.424,7.126-24.446,7.126-24.931,7.309s-9.8,1.553-9.312-.64S1613.3,1818.729,1613.3,1818.729Z" transform="translate(-1613.494 -1762.212)" fill="#ef7d0a"/>
      <g id="Group_271" data-name="Group 271" transform="translate(-5.544 45.54)" clip-path="url(#clip-path-19)">
        <path id="Path_655" data-name="Path 655" d="M1612.283,1971.067c-9.4-2.168-10.43-8.964-10.4-12.037-.31,4-1.108,14.5-1.007,15.931.125,1.771,6.016,6.137,6.392,6.255s32.459-6.136,32.459-6.136a12.847,12.847,0,0,0,5.013-11.8C1632.21,1971.067,1624.565,1973.9,1612.283,1971.067Z" transform="translate(-1601.635 -1942.681)" fill="#db6b07"/>
        <path id="Path_656" data-name="Path 656" d="M1610.27,1946.326c.075-.952.121-1.536.121-1.536A9.878,9.878,0,0,0,1610.27,1946.326Z" transform="translate(-1610.019 -1929.98)" fill="#db6b07"/>
        <g id="Group_270" data-name="Group 270" transform="translate(17.149 2.77)" opacity="0.3">
          <path id="Path_657" data-name="Path 657" d="M1772.856,1833.622c-5.512.827-8.4,4.308-4.261,5.665s10.026-.177,13.472,3.6,8.961,4.838,6.957-1.888S1779.012,1832.7,1772.856,1833.622Z" transform="translate(-1766.636 -1833.382)" fill="#ffa95c"/>
        </g>
      </g>
      <path id="Path_659" data-name="Path 659" d="M2410.548,1346.63l-2.748,2.71s9.6,7.034,12.805,23.294c.679,3.655,2.425,2.467,2.91,1.645s-1.405-9.388-6.306-18.453C2412.78,1347.635,2410.548,1346.63,2410.548,1346.63Z" transform="translate(-2326.904 -1350.924)" fill="#ffebc2"/>
      <path id="Path_660" data-name="Path 660" d="M1990.47,1797.533c-8.021,5.783-5.512,10.386-14.788,13.573s-48.5,6.136-48.5,6.136l-1.081,5.326,17.374-.368,77.577-13.69s-2.507-18.057-6.268-27.5C2012.151,1792.573,1998.5,1791.75,1990.47,1797.533Z" transform="translate(-1897.261 -1738.36)" fill="#e28920"/>
    </g>
    <path id="Path_662" data-name="Path 662" d="M1971.635,1552.948s-.041.089-.108.24a8.406,8.406,0,0,0-.757,2.942,21.367,21.367,0,0,0,3.151,9.24c2.57,4.254,32.072,6.546,32.072,6.546l-3.07,27.576s1.877,3.906,11.146.051c0,0,5.049-28.545,5.6-33.5s-25.241-13.4-25.241-13.4Z" transform="translate(-1757.921 -1384.617)" fill="#205299"/>
    <g id="Group_273" data-name="Group 273" transform="translate(212.847 168.023)" clip-path="url(#clip-path-20)">
      <path id="Path_663" data-name="Path 663" d="M1944.516,1579.878a40.218,40.218,0,0,0,14.789-1.582l.257-2.133s-21.1-.634-21.429.193,2.731,13.906,2.731,13.906l32.863,7.2.331,20.2,4.636-26.12s-9.713-1.582-21.265-2.355S1945.473,1585.434,1944.516,1579.878Z" transform="translate(-1941.638 -1573.413)" fill="#10305e"/>
      <path id="Path_664" data-name="Path 664" d="M2038.739,1589.578l-.432-.056,4.286-32.833c-2.9-.446-30.107-4.711-33.14-7.832l-.154-.159.162-.151c4.877-4.509,1.729-10.969,1.7-11.034l.387-.193c.032.067,3.242,6.667-1.621,11.384,3.8,3.118,32.646,7.546,32.942,7.591l.209.031-.027.21Z" transform="translate(-2005.136 -1538.976)" fill="#fff"/>
    </g>
    <path id="Path_666" data-name="Path 666" d="M1993.079,1139.212l-.724.082a63.9,63.9,0,0,0-9.726-.469c-3.73.276-7.22,8.781-10.34,17.5s-9.088,28.086-8.261,29.921,7.282,2.856,15.073,2.367,15.67-5.119,19.531-6.955a81.53,81.53,0,0,1,5.048-17.347c2.2-4.956,5.037-14.288,4.222-18.7-.694-3.3-9.587-4.813-9.587-4.813Z" transform="translate(-1751.84 -1015.469)" fill="#e54a4a"/>
    <g id="Group_274" data-name="Group 274" transform="translate(212.11 123.295)" clip-path="url(#clip-path-21)">
      <path id="Path_667" data-name="Path 667" d="M1951.753,1306.868c-3.062-1.242-13.575,2.486-24.748,1.242s-6.622-15.48-6.622-15.48-11.424,24.088-13.741,27.731,5.96,5.3,5.96,5.3l4.386,4.056,31.7-6.125S1954.815,1308.11,1951.753,1306.868Z" transform="translate(-1912.47 -1276.002)" fill="#cc2e2e"/>
      <path id="Path_668" data-name="Path 668" d="M2203.446,1187.515l-.946-.227c.077-.317,7.609-31.717,7.435-38.3-.172-6.51-2.27-9.9-2.29-9.943l.823-.519c.092.146,2.261,3.656,2.44,10.431.075,2.826-1.159,10.176-3.674,21.846C2205.376,1179.483,2203.465,1187.436,2203.446,1187.515Z" transform="translate(-2176.72 -1138.555)" fill="#fff"/>
    </g>
    <path id="Path_670" data-name="Path 670" d="M2007.084,1144.936c1.3,3.609,1.9,5.935.735,8.754s-5.569,12.851-5.569,12.851,12.789.734,15.481.979a2.579,2.579,0,0,1,2.509,2.753l.244,5.691s-.184,2.02-3.611,1.775-22.154-.673-25.332-2.269-2.509-4.467-1.224-9.117a184.224,184.224,0,0,1,7.16-18.846c2.142-4.834,5.874-6.649,7-6.242S2006.7,1143.854,2007.084,1144.936Z" transform="translate(-1774.406 -1017.648)" fill="#ffd56c"/>
    <g id="Group_275" data-name="Group 275" transform="translate(214.844 123.559)" clip-path="url(#clip-path-22)">
      <path id="Path_671" data-name="Path 671" d="M2110.7,1158.328l-4.038-8.168s1.5,5.079,1.278,8.5-6.033,16.7-6.033,16.7l14.348-.441-12.729-.92Z" transform="translate(-2089.735 -1149.193)" fill="#344058"/>
      <path id="Path_672" data-name="Path 672" d="M1967.9,1355.749c-11.093-1.159-6.209-11.749-6.209-11.749-4.553,2.485-3.062,7.781-3.062,8.112s5.3,5.3,5.3,5.3l30.793,2.649s2.152-3.229,0-8.941C1989.418,1354.838,1978.99,1356.908,1967.9,1355.749Z" transform="translate(-1961.726 -1322.084)" fill="#f9c34b"/>
    </g>
    <path id="Path_674" data-name="Path 674" d="M2223.21,1095.73l-.571,5.1a3.524,3.524,0,0,0,3.264,2.733,3.692,3.692,0,0,0,3.14-1.141l.775-5.63Z" transform="translate(-1982.573 -977.085)" fill="#344058"/>
    <g id="Group_276" data-name="Group 276" transform="translate(240.067 118.645)" clip-path="url(#clip-path-23)">
      <path id="Path_675" data-name="Path 675" d="M2210.484,1105l-.324,3.3,3.059,4.283,5.018-1.345s0-1.632.122-3.631A6.65,6.65,0,0,1,2210.484,1105Z" transform="translate(-2211.509 -1103.998)" fill="#ffd56c"/>
    </g>
    <path id="Path_677" data-name="Path 677" d="M2269.236,999.028s-.356,6.727-.624,8.732-1.96,3.208-4.455,2.45-5.124-1.826-5.657-4.323a54.36,54.36,0,0,1,1.292-11.717l9.534,2.762Z" transform="translate(-2014.558 -886.501)" fill="#fcb8a5"/>
    <g id="Group_279" data-name="Group 279" transform="translate(243.942 107.669)" clip-path="url(#clip-path-24)">
      <g id="Group_277" data-name="Group 277" transform="translate(0.492 8.409)" opacity="0.57">
        <path id="Path_678" data-name="Path 678" d="M2264.777,1071.994a1.536,1.536,0,1,0,1.337,1.711A1.535,1.535,0,0,0,2264.777,1071.994Z" transform="translate(-2263.054 -1071.982)" fill="#ea937f"/>
      </g>
      <g id="Group_278" data-name="Group 278" transform="translate(9.125 8.772)" opacity="0.57">
        <path id="Path_679" data-name="Path 679" d="M2344.657,1075.354a1.536,1.536,0,1,0,1.337,1.711A1.536,1.536,0,0,0,2344.657,1075.354Z" transform="translate(-2342.934 -1075.342)" fill="#ea937f"/>
      </g>
      <path id="Path_680" data-name="Path 680" d="M2286.536,1039.361a1.911,1.911,0,0,0-.407-.148,2.17,2.17,0,0,0-.433-.043,2.069,2.069,0,0,0-.835.177,1.767,1.767,0,0,0-.671.5c.271-.07.523-.131.772-.176a4.3,4.3,0,0,1,.736-.069c.122-.005.241.012.362.016.119.023.243.029.362.064.059.015.124.021.183.042s.122.038.185.055a1.514,1.514,0,0,1,.188.064c.063.023.128.045.2.064A1.623,1.623,0,0,0,2286.536,1039.361Z" transform="translate(-2281.414 -1034.307)" fill="#344058"/>
      <path id="Path_681" data-name="Path 681" d="M2334.124,1045.234a.785.785,0,0,0-.509-.168.95.95,0,0,0-.491.15.819.819,0,0,0-.324.374c.17-.017.312-.04.448-.058a3.241,3.241,0,0,1,.372-.035,1.288,1.288,0,0,1,.343.037,3.422,3.422,0,0,1,.414.136A.671.671,0,0,0,2334.124,1045.234Z" transform="translate(-2324.771 -1039.566)" fill="#344058"/>
      <path id="Path_682" data-name="Path 682" d="M2294.226,1052.455a.794.794,0,1,0,.535.839A.712.712,0,0,0,2294.226,1052.455Z" transform="translate(-2289.732 -1046.153)" fill="#344058"/>
      <path id="Path_683" data-name="Path 683" d="M2334.446,1056.836a.794.794,0,1,0,.539.839A.713.713,0,0,0,2334.446,1056.836Z" transform="translate(-2325.606 -1050.061)" fill="#344058"/>
      <path id="Path_684" data-name="Path 684" d="M2324.525,1067l.432,2.069c.2.565.068.9-.447,1.394.581-.02,1.217-.757.925-1.33S2324.525,1067,2324.525,1067Z" transform="translate(-2317.376 -1059.129)" fill="#344058"/>
      <path id="Path_685" data-name="Path 685" d="M2299.666,1107.965a3.406,3.406,0,0,1-.478-.048,4.041,4.041,0,0,1-.931-.29,7.389,7.389,0,0,1-.908-.487,2.4,2.4,0,0,0,.742.782,2.622,2.622,0,0,0,1.023.42,2.245,2.245,0,0,0,1.111-.077,2.237,2.237,0,0,0,.922-.567,6.149,6.149,0,0,1-1,.237A4.058,4.058,0,0,1,2299.666,1107.965Z" transform="translate(-2293.152 -1094.931)" fill="#344058"/>
    </g>
    <path id="Path_687" data-name="Path 687" d="M2189.7,930.241c2.824.231,3.59.407,4.119.244s1.729-2.04.979-5.4c-1.081-4.854-6.648-8.343-14.318-5.813s-7.261,11.788-5.183,16.074,3.3,4.477,4.926,4.691,3.947.458,4.376-.216-.276-2.754.061-5.721,1.041-4.039,1.9-4.162A17.118,17.118,0,0,1,2189.7,930.241Z" transform="translate(-1939.191 -818.938)" fill="#ffa96e"/>
    <g id="Group_281" data-name="Group 281" transform="translate(234.81 99.483)" clip-path="url(#clip-path-25)">
      <path id="Path_688" data-name="Path 688" d="M2167.1,974.835c-2.377-.216-3.366.773-4.139,3.918s-3.642,6.126-7.284,1.987-1.932-10.32-1.932-10.32c-4.084,3.366-3.421,9.933-.828,14.459s4.8,1.214,7.229,2.042,3.036.216,7.4-.331.662-2.263.828-5.244,4.193-2.486,6.07-3.035,2.486-3.036,1.434-6.236C2175.592,974.559,2169.471,975.055,2167.1,974.835Z" transform="translate(-2153.33 -964.801)" fill="#f28d55"/>
      <g id="Group_280" data-name="Group 280" transform="translate(2.155 8.209)" opacity="0.53">
        <path id="Path_689" data-name="Path 689" d="M2197.063,994.38a3.121,3.121,0,1,0,3.12,3.121,3.121,3.121,0,0,0-3.12-3.121Z" transform="translate(-2193.94 -994.38)" fill="#fff"/>
      </g>
      <path id="Path_690" data-name="Path 690" d="M2200.607,911.15c-4.926.826-6.087,3.3-6.087,3.3s6.791-2.81,11.809.49,3.121,9.178,3.121,9.178l2.08.368a9.365,9.365,0,0,0,.432-6.363C2210.99,914.394,2206.085,911.334,2200.607,911.15Z" transform="translate(-2192.302 -911.936)" fill="#e86328"/>
    </g>
    <path id="Path_692" data-name="Path 692" d="M1674.613,1300.084a2.436,2.436,0,0,0-2.579-2.35l-22.945,1.363a2.435,2.435,0,0,0-2.289,2.538l.108,2.538a2.435,2.435,0,0,0,2.531,2.328l22.941-.925a2.434,2.434,0,0,0,2.335-2.515Z" transform="translate(-1468.962 -1157.255)" fill="#ffd7e2"/>
    <path id="Path_693" data-name="Path 693" d="M1686.4,1425.914a2.435,2.435,0,0,0-2.579-2.349l-22.95,1.363a2.436,2.436,0,0,0-2.289,2.538l.108,2.539a2.436,2.436,0,0,0,2.532,2.328l22.94-.924a2.435,2.435,0,0,0,2.335-2.516Z" transform="translate(-1479.47 -1269.486)" fill="#ffd7e2"/>
    <path id="Path_694" data-name="Path 694" d="M1694.808,1544.344a2.435,2.435,0,0,0-2.579-2.349l-22.95,1.364a2.435,2.435,0,0,0-2.289,2.536l.108,2.539a2.436,2.436,0,0,0,2.531,2.328l22.941-.924a2.435,2.435,0,0,0,2.335-2.516Z" transform="translate(-1486.971 -1375.118)" fill="#ffd7e2"/>
    <ellipse id="Ellipse_176" data-name="Ellipse 176" cx="5.673" cy="6.598" rx="5.673" ry="6.598" transform="matrix(0.882, -0.471, 0.471, 0.882, 268.309, 174.529)" fill="#ffebc2"/>
    <ellipse id="Ellipse_177" data-name="Ellipse 177" cx="4.983" cy="5.241" rx="4.983" ry="5.241" transform="matrix(0.694, -0.72, 0.72, 0.694, 269.698, 177.408)" fill="#f9cd80"/>
    <g id="Group_282" data-name="Group 282" transform="translate(269.698 170.228)" clip-path="url(#clip-path-26)">
      <ellipse id="Ellipse_178" data-name="Ellipse 178" cx="4.983" cy="5.241" rx="4.983" ry="5.241" transform="matrix(0.694, -0.72, 0.72, 0.694, 0.566, 5.495)" fill="#fff"/>
    </g>
    <path id="Path_695" data-name="Path 695" d="M2222.013,1325.672c-.776-2.283,9.41-5.572,12.385-7.034a19.724,19.724,0,0,0,3.427-1.888s2.2-5.785,8.181-6.79,9.734,3.9,9.734,3.9,5.561.216,9.6,0,5.788-.792,6.144.756-3.233,1.279-6.37,2.1-8.6,1.918-8.6,1.918-1.035,2.8-7.565,3.838-9.572-1.645-9.572-1.645-6.144,2.223-10.159,3.928S2222.515,1327.161,2222.013,1325.672Z" transform="translate(-1981.977 -1168.042)" fill="#e07b09"/>
    <g id="Group_283" data-name="Group 283" transform="translate(239.995 141.782)" clip-path="url(#clip-path-27)">
      <path id="Path_696" data-name="Path 696" d="M2240.016,1358.959a14.818,14.818,0,0,1-10.529-1.593s-2.663,1.24-6.172,2.626l-12.125,4.789s2.288.7,2.445.374,14.13-3.1,14.13-3.1,10.433,1.5,10.684,1.5,24.876-9.088,24.876-9.088l.063-1.593-16.824,3.1S2245.655,1357.513,2240.016,1358.959Z" transform="translate(-2212.355 -1348.227)" fill="#994900"/>
    </g>
    <path id="Path_698" data-name="Path 698" d="M2571.228,1294.7c-1.1-.337-6.67,3.3-6.67,3.3s-.718,1.985,1.087,2.5a18.985,18.985,0,0,1,3.606,0s.63,1.106-.043,1.621c-.122.735.367.887,1.346.673s3.855-.122,4.4-1.009a8.954,8.954,0,0,0,.307-4.62C2574.992,1296.468,2572.329,1295.035,2571.228,1294.7Z" transform="translate(-2287.415 -1154.531)" fill="#fcb8a5"/>
    <ellipse id="Ellipse_180" data-name="Ellipse 180" cx="6.694" cy="6.304" rx="6.694" ry="6.304" transform="translate(261.313 141.826)" fill="#ffebc2"/>
    <path id="Path_699" data-name="Path 699" d="M2619.121,1730.552c-9.727-3.692-20.452,2.486-20.452,2.486l-.108,1.416s21.4,5.905,24.8,6.788a9.82,9.82,0,0,0,5.53-2.467S2627.138,1733.6,2619.121,1730.552Z" transform="translate(-2317.867 -1542.253)" fill="#ce6700"/>
    <path id="Path_700" data-name="Path 700" d="M2671.927,1855.248c-1.033-9.638-9.347-16.74-18.568-15.863a16.254,16.254,0,0,0-1.994.317c-.2.043-.658.064-.756.09a40.663,40.663,0,0,0-6.909,1.8s-1.207,1.238-1.531,1.238l.5,2.1a17.656,17.656,0,0,0-4.138,13.5,17.9,17.9,0,0,0,10.924,14.742l.686,2.854s5.992-.648,8.97-1.99a.145.145,0,0,0,.017-.067C2667.274,1872.131,2672.884,1864.163,2671.927,1855.248Z" transform="translate(-2353.428 -1640.308)" fill="#5b2840"/>
    <g id="Group_284" data-name="Group 284" transform="translate(285.001 199.004)" clip-path="url(#clip-path-28)">
      <path id="Path_701" data-name="Path 701" d="M2710.18,1813.5l.406,2.6,6.487,5.724,4.824-.237,9.619-2.715-8.992-5.163Z" transform="translate(-2702.426 -1816.289)" fill="#3f172b"/>
    </g>
    <ellipse id="Ellipse_181" data-name="Ellipse 181" cx="16.76" cy="17.565" rx="16.76" ry="17.565" transform="translate(274.269 204.979) rotate(-13.2)" fill="#7f606e"/>
    <g id="Group_285" data-name="Group 285" transform="translate(274.269 197.325)" clip-path="url(#clip-path-29)">
      <path id="Path_703" data-name="Path 703" d="M2565.179,1808.58,2550.14,1819.2l1.034,12.923a19.671,19.671,0,0,0,13.629-4.431c6.673-5.316,11.655-12.752,20.3-10.445C2583.6,1809.023,2565.179,1808.58,2565.179,1808.58Z" transform="translate(-2548.95 -1810.222)" fill="#603b4c"/>
    </g>
    <ellipse id="Ellipse_183" data-name="Ellipse 183" cx="7.468" cy="7.826" rx="7.468" ry="7.826" transform="translate(285.539 212.336) rotate(-13.2)" fill="#aa96a0"/>
    <path id="Path_704" data-name="Path 704" d="M2695.929,1981.5a3.758,3.758,0,0,0-3.295,4.231,3.874,3.874,0,0,0,4.127,3.526,3.762,3.762,0,0,0,3.295-4.232A3.872,3.872,0,0,0,2695.929,1981.5Z" transform="translate(-2401.754 -1767.12)" fill="#5b2840"/>
    <path id="Path_705" data-name="Path 705" d="M2501.036,1771.3s-3.491-13.246,6.791-20.919,24.155-2.741,28.035,6.212c-4.17,1.826-13.257,1.857-17.105,5.45S2512.419,1773.68,2501.036,1771.3Z" transform="translate(-2230.373 -1557.609)" fill="#ef7d0a"/>
    <g id="Group_286" data-name="Group 286" transform="translate(270.091 188.984)" clip-path="url(#clip-path-30)">
      <path id="Path_706" data-name="Path 706" d="M2457.821,1798.723c-3.509-3.423-.083-12.983-.083-12.983s-6.643,12.825-9.568,16.877,1.837,6.215,1.837,6.215l5.849.984s12.031-4.485,12.282-4.563,9.65-6.531,20.469-13.337c-4.888,1.338-12.157.158-17.507,1.691S2461.33,1802.145,2457.821,1798.723Z" transform="translate(-2452.975 -1781.509)" fill="#d36400"/>
    </g>
    <path id="Path_708" data-name="Path 708" d="M2269.59,1364.17c-1.165-.335-7.049,3.288-7.049,3.288s-1.714,2.284.193,2.8a27.187,27.187,0,0,1,4.462-1.431s.972,2.223.26,2.741c-.13.731.388.883,1.422.67s4.074-.122,4.657-1.005.614-3.9.324-4.6S2270.754,1364.5,2269.59,1364.17Z" transform="translate(-2017.531 -1216.495)" fill="#fcb8a5"/>
    <ellipse id="Ellipse_184" data-name="Ellipse 184" cx="4.983" cy="5.241" rx="4.983" ry="5.241" transform="matrix(0.694, -0.72, 0.72, 0.694, 261.735, 147.402)" fill="#f9cd80"/>
    <g id="Group_287" data-name="Group 287" transform="translate(261.735 140.222)" clip-path="url(#clip-path-26)">
      <ellipse id="Ellipse_185" data-name="Ellipse 185" cx="4.983" cy="5.241" rx="4.983" ry="5.241" transform="translate(0.575 5.525) rotate(-46.08)" fill="#fff"/>
    </g>
    <path id="Path_709" data-name="Path 709" d="M1449.66,1219.282h1.876l2.594-31.842h-1.987Z" transform="translate(-1293.129 -1058.884)" fill="#fff"/>
    <path id="Path_710" data-name="Path 710" d="M2590.805,1353.725c-1.759-.108-4.635,2.668-4.635,2.668.883.666,2.23,1.621,3.217.477S2592.566,1353.828,2590.805,1353.725Z" transform="translate(-2306.817 -1207.196)" fill="#fcb8a5"/>
    <g id="Group_288" data-name="Group 288" transform="translate(215.561 148.947)" opacity="0.28">
      <path id="Path_711" data-name="Path 711" d="M1997.555,1382.983c-.48-.068-.788-.736-.894-1.13-.149-.554-.339-1.1-.448-1.668a5.717,5.717,0,0,1,.121-2.044c.108-.631.209-1.262.3-1.9.016-.119-.163-.172-.183-.051-.245,1.542-.776,3.093-.472,4.654a5.213,5.213,0,0,0,.557,1.945,1.1,1.1,0,0,0,1.022.5C1997.7,1383.257,1997.715,1383.005,1997.555,1382.983Z" transform="translate(-1995.885 -1376.125)" fill="#344058"/>
    </g>
    <g id="Group_289" data-name="Group 289" transform="translate(253.952 139.718)" opacity="0.28">
      <path id="Path_712" data-name="Path 712" d="M2352.176,1290.826c-.095.346-.247.671-.342,1.016a8.284,8.284,0,0,0-.139,1.01c-.115.739-.17,1.494-.294,2.228a18.767,18.767,0,0,0-.134,1.955c-.05.838-.161,1.628-.136,2.474a.1.1,0,0,0,.189,0c.024-.84.176-1.621.277-2.452.085-.7.134-1.4.237-2.1s.208-1.438.315-2.161c.051-.342.045-.686.118-1.025a4.24,4.24,0,0,0,.177-.913.136.136,0,0,0-.267-.031Z" transform="translate(-2351.127 -1290.727)" fill="#344058"/>
    </g>
    <g id="Group_290" data-name="Group 290" transform="translate(209.772 153.942)" opacity="0.28">
      <path id="Path_713" data-name="Path 713" d="M1966.741,1429.2a2.028,2.028,0,0,0-.909.087,8.892,8.892,0,0,1-1.275.227c-.509.071-.994.293-1.5.339-.446.041-.9.054-1.35.084a19.771,19.771,0,0,1-5.245.008,32.1,32.1,0,0,1-5.357-1.368c-.806-.309-1.662-.518-2.449-.876a5.313,5.313,0,0,1-.985-.7,7.079,7.079,0,0,0-1.1-.692c-.417-.216-.79-.492-1.189-.734a11.87,11.87,0,0,1-1.067-.844,7.113,7.113,0,0,1-1.867-2.354c-.046-.081-.159-.01-.123.072a7.33,7.33,0,0,0,1.222,2.153,10.2,10.2,0,0,0,1.815,1.558,23.781,23.781,0,0,1,2.262,1.513,6.141,6.141,0,0,0,2.084,1.046,44.116,44.116,0,0,0,5.444,1.519,18.371,18.371,0,0,0,2.846.42c.42.016.852.03,1.272.01s.813-.133,1.234-.12a13.1,13.1,0,0,0,1.586-.157,9.8,9.8,0,0,0,1.417-.152,16.832,16.832,0,0,1,1.682-.358c.526-.075,1-.362,1.521-.42C1966.843,1429.451,1966.908,1429.22,1966.741,1429.2Z" transform="translate(-1942.317 -1422.34)" fill="#fff"/>
    </g>
    <g id="Group_291" data-name="Group 291" transform="translate(208.792 160)" opacity="0.28">
      <path id="Path_714" data-name="Path 714" d="M1964.17,1479.538c-.747.44-1.463.923-2.236,1.321-.381.2-.717.455-1.108.642-.535.256-1.1.412-1.644.635-.232.1-.458.216-.7.3a4.3,4.3,0,0,1-.676.118c-.482.1-.928.3-1.416.383a22.571,22.571,0,0,1-3.35.293c-1.154.029-2.313.091-3.467.147a24.306,24.306,0,0,1-3.355.067,16.883,16.883,0,0,1-3.108-.648,28.474,28.474,0,0,1-3.2-1.114c-1.149-.493-2.322-.934-3.448-1.478-.527-.254-1.046-.493-1.593-.7a5.454,5.454,0,0,1-1.5-1.081.07.07,0,0,0-.1.1c.324.344.666.694,1.006,1.023a7.03,7.03,0,0,0,1.444.785c1.009.576,2.077,1.043,3.134,1.521q.809.363,1.621.721c.525.229,1.081.324,1.621.521a24.4,24.4,0,0,0,3.186.83,13.622,13.622,0,0,0,3.458.174q1.783-.075,3.566-.178a29.514,29.514,0,0,0,3.468-.248,9.808,9.808,0,0,0,1.556-.342c.45-.159.936-.184,1.373-.362a18.42,18.42,0,0,0,3.31-1.562c.776-.517,1.818-.865,2.338-1.674a.136.136,0,0,0-.181-.189Z" transform="translate(-1933.249 -1478.399)" fill="#fff"/>
    </g>
    <g id="Group_292" data-name="Group 292" transform="translate(155.756 243.127)" opacity="0.28">
      <path id="Path_715" data-name="Path 715" d="M1669.154,2406.25a1.645,1.645,0,0,1-.334.175,1,1,0,0,1,.216.284Z" transform="translate(-1644.36 -2389.104)" fill="#fff"/>
      <path id="Path_716" data-name="Path 716" d="M1674.247,2324.956c-.3-.253-.324-.723-.455-1.074a7.184,7.184,0,0,0-.878-1.567c-.362-.53-.731-1.052-1.134-1.544.51,1.568,1.189,3.088,1.61,4.684Z" transform="translate(-1647 -2312.862)" fill="#fff"/>
      <path id="Path_717" data-name="Path 717" d="M1736.582,2337.88h-.895a3.52,3.52,0,0,0-.1-.57c-.024-.1-.05-.2-.077-.3a1.594,1.594,0,0,0,.174,1.393.526.526,0,0,0,.895,0,1.787,1.787,0,0,0,.019-1.355A1.062,1.062,0,0,0,1736.582,2337.88Z" transform="translate(-1703.775 -2327.347)" fill="#fff"/>
      <path id="Path_718" data-name="Path 718" d="M1474.8,2254.879a9.578,9.578,0,0,0-.586-3.1,15.489,15.489,0,0,0-1.606-2.629c-.865-1.227-2.721-2.181-4.065-1.06a4.531,4.531,0,0,0-1.264,2.25c-.145.487-.307.953-.492,1.425a2.523,2.523,0,0,0-.1,1.374,14.162,14.162,0,0,0,.579,2.362c.4.493.772,1.015,1.134,1.544a7.279,7.279,0,0,1,.878,1.567c.129.351.155.821.455,1.074l-.857.5c-.419-1.6-1.1-3.116-1.61-4.684a10.252,10.252,0,0,0-1.081-1.15,20.7,20.7,0,0,0-2.666-1.8,3.824,3.824,0,0,0-2.734-.827,4.119,4.119,0,0,0-2.289,1.513,4.887,4.887,0,0,0-.957,2.7c-.231,2.364,1.87,3.773,3.476,5.1a27.855,27.855,0,0,0,3.134,2.085c.6.374,1.2.732,1.8,1.111a6.167,6.167,0,0,1,1.006.683,1.649,1.649,0,0,0,.334-.175l-.121.459a1.006,1.006,0,0,0-.216-.284,3.5,3.5,0,0,1-1.177.159,12.453,12.453,0,0,0-1.513.175c-1.023.164-2.053.228-3.086.368-1.081.147-2.161.324-3.25.466-1.059.139-2.126.174-3.184.3a50,50,0,0,0-5.881,1.372c-2.106.522-4.233.95-6.316,1.563a.077.077,0,0,0,.041.148c2.1-.549,4.247-.9,6.361-1.4a39.939,39.939,0,0,1,6.392-1.344c2.153-.143,4.274-.48,6.42-.685,1.064-.1,2.127-.2,3.191-.309a5.984,5.984,0,0,0,2.673-.416.339.339,0,0,0,.155-.379,3.974,3.974,0,0,0-1.612-1.471c-.9-.58-1.8-1.154-2.717-1.713a21.474,21.474,0,0,1-2.5-1.881,9.5,9.5,0,0,1-2.075-2.132c-1.05-1.667-.043-4.063,1.642-4.88a2.432,2.432,0,0,1,2.421.514,20.069,20.069,0,0,1,2.455,1.631,13.571,13.571,0,0,1,2.29,2.8,5.462,5.462,0,0,1,.729,1.463,2.225,2.225,0,0,0,.6,1.141.517.517,0,0,0,.857-.5c-.457-1.752-1.219-3.4-1.729-5.134a4.894,4.894,0,0,1-.375-2.605c.131-.372.3-.722.417-1.1a8.258,8.258,0,0,1,.46-1.325c.309-.62.731-1.17,1.49-1.052a2.3,2.3,0,0,1,1.563.991,20.281,20.281,0,0,1,1.371,2.132,6.647,6.647,0,0,1,.661,2.682,10.508,10.508,0,0,0,.31,2.078c.066.226.133.45.194.677a4.547,4.547,0,0,1,.712-1.441A7.882,7.882,0,0,1,1474.8,2254.879Z" transform="translate(-1442.489 -2247.594)" fill="#fff"/>
      <path id="Path_719" data-name="Path 719" d="M1753.365,2316.265c-.706.324-1.471.48-2.2.757s-1.466.611-2.2.9a21.26,21.26,0,0,1-2.336.735,9.382,9.382,0,0,0-1.071.332c-.353.14-.347.145-.236-.191a4.834,4.834,0,0,0,.448-1.817,3.677,3.677,0,0,0-.517-1.687c-.658-.992-1.763-.519-2.366.238-.041.052-.084.108-.126.167.076.367.172.73.277,1.114.03.108.065.236.1.364.228-.743.819-1.621,1.2-1.394.2.123.262.571.324.786a2.017,2.017,0,0,1-.076,1.283c-.185.54-.55,1.173-.242,1.736.363.666,1.1.534,1.674.317.9-.34,1.871-.49,2.778-.821s1.76-.734,2.653-1.072a20.1,20.1,0,0,0,2.413-.911C1754.414,2316.806,1753.923,2316.01,1753.365,2316.265Z" transform="translate(-1710.309 -2307.476)" fill="#fff"/>
      <path id="Path_720" data-name="Path 720" d="M1736.882,2323.68a4.55,4.55,0,0,0-.712,1.44c.027.1.053.2.077.3a3.519,3.519,0,0,1,.1.57h.895a1.054,1.054,0,0,1,.02-.832c-.035-.129-.069-.252-.1-.365C1737.054,2324.409,1736.958,2324.047,1736.882,2323.68Z" transform="translate(-1704.432 -2315.458)" fill="#fff"/>
    </g>
    <g id="Group_293" data-name="Group 293" transform="translate(248.83 224.254)" opacity="0.28">
      <path id="Path_721" data-name="Path 721" d="M2334.671,2076.686a10.869,10.869,0,0,0-2.168-2.269,4.092,4.092,0,0,1-.987-.865,1.161,1.161,0,0,0-.828-.58c-1.259-.136-1.713,1.223-1.824,2.215a11.18,11.18,0,0,0,.157,3.134,7.093,7.093,0,0,0,1.215,2.959,6.193,6.193,0,0,0,.6.684c.094.1.313.261.48.418a3.66,3.66,0,0,0,.481-.049l-.264.346c0-.074-.1-.184-.216-.3a11.659,11.659,0,0,0-2.554.031.341.341,0,0,0-.244.244,1.371,1.371,0,0,1-.206.727c-.163.165-.462.147-.672.151a19.292,19.292,0,0,1-2.634-.28c-1.742-.216-3.5-.465-5.243-.606a24.121,24.121,0,0,0-5.326.233,37.852,37.852,0,0,0-5.179,1.042,23.153,23.153,0,0,0-5.38,2.233.333.333,0,0,0,.255.605c1.729-.5,3.37-1.3,5.093-1.844a36.211,36.211,0,0,1,5.547-1.188,41.33,41.33,0,0,1,11.2.377,5.565,5.565,0,0,0,2.433.017,1.262,1.262,0,0,0,.75-1.081c-.07.012-.141.026-.216.044q.121-.123.244-.244c-.01.067-.02.134-.033.2.929-.157,1.889.143,2.828-.017a.361.361,0,0,0,.264-.347,2.7,2.7,0,0,0-.624-1.247,7.653,7.653,0,0,1-1.007-1.662,9.784,9.784,0,0,1-.633-3.288,6.658,6.658,0,0,1,.073-1.495c.044-.233.141-.813.417-.9.174-.052.173.108.3.264a4.3,4.3,0,0,0,.914.743,10.271,10.271,0,0,1,2.1,1.908c1.446,1.678,3.08,3.2,4.431,4.958.153.2.492.02.347-.2C2337.405,2079.968,2335.984,2078.37,2334.671,2076.686Z" transform="translate(-2303.728 -2072.962)" fill="#fff"/>
      <path id="Path_722" data-name="Path 722" d="M2559.267,2160.006l.264-.346a3.615,3.615,0,0,1-.481.048C2559.171,2159.822,2559.266,2159.931,2559.267,2160.006Z" transform="translate(-2531.457 -2150.291)" fill="#fff"/>
      <path id="Path_723" data-name="Path 723" d="M2537.14,2164.624c.07-.018.14-.032.216-.044.013-.066.024-.133.033-.2C2537.3,2164.461,2537.221,2164.542,2537.14,2164.624Z" transform="translate(-2511.915 -2154.5)" fill="#fff"/>
    </g>
    <g id="Group_294" data-name="Group 294" transform="translate(242.306 226.477)" opacity="0.28">
      <path id="Path_724" data-name="Path 724" d="M2261.093,2094.149a31.031,31.031,0,0,0-6.021-.6,27.4,27.4,0,0,0-5.4.884,30.353,30.353,0,0,0-6.18,2.106.267.267,0,0,0,.205.485,48.578,48.578,0,0,1,10.547-2.622,15.376,15.376,0,0,1,2.669-.066c.958.077,1.9.266,2.855.389a20.576,20.576,0,0,1,5.476,1.232,16.943,16.943,0,0,1,4.933,3.172.1.1,0,0,0,.143-.143A15.008,15.008,0,0,0,2261.093,2094.149Z" transform="translate(-2243.36 -2093.53)" fill="#fff"/>
    </g>
    <g id="Group_295" data-name="Group 295" transform="translate(250.519 239.375)" opacity="0.28">
      <path id="Path_725" data-name="Path 725" d="M2328.583,2212.877c-3.073.273-6.137.632-9.178,1.159-.082.014-.046.139.035.125,3.026-.518,6.082-.865,9.144-1.132C2328.681,2213.022,2328.682,2212.868,2328.583,2212.877Z" transform="translate(-2319.358 -2212.877)" fill="#fff"/>
    </g>
    <g id="Group_296" data-name="Group 296" transform="translate(156.44 256.867)" opacity="0.28">
      <path id="Path_726" data-name="Path 726" d="M1463.094,2374.734c-2.46-.014-4.924.011-7.375.232a28.161,28.161,0,0,0-3.446.458,20.7,20.7,0,0,1-3.205.817.255.255,0,0,0-.068.5c.989.271,2.009-.27,2.934-.559a17.885,17.885,0,0,1,3.682-.559c2.486-.226,4.984-.246,7.478-.228A.331.331,0,0,0,1463.094,2374.734Z" transform="translate(-1448.818 -2374.731)" fill="#fff"/>
    </g>
  </g>
</svg>
