<svg xmlns="http://www.w3.org/2000/svg" width="628.821" height="561.545" viewBox="0 0 628.821 561.545">
  <g id="_05" data-name="05" transform="translate(-233.082 -84.224)">
    <path id="Path_727" data-name="Path 727" d="M1006.221,670.695c-17.761-52.817-13.1-112.514,23.334-157.762,48.842-60.67,132.38-70.812,199.278-101.545,15.087-6.93,29.656-14.993,45-21.339a417.548,417.548,0,0,1,121.9-29.432c79.706-6.467,152.083,35.971,191.592,104.652,34.174,59.4,44.661,136.707,33.259,203.96-4.062,23.95-13.372,47.639-30.311,65.045-16.158,16.612-38.04,26.395-60.033,33.692-53.524,17.782-111.239,25.382-167.362,28.7-42.209,2.494-84.526,2.239-126.772.987-47.6-1.4-96.142,4.9-139.917-18.039-23.954-12.548-44.343-31.329-60.581-52.953a199.388,199.388,0,0,1-29.389-55.967Z" transform="translate(-763.105 -275.746)" fill="#ffe8d4"/>
    <path id="Path_728" data-name="Path 728" d="M1246.534,2376.207c-14.649-1.2-29.949-2.574-43.559,2.986s-24.567,20.66-20.166,34.682c2.885,9.169,11.266,15.377,19.434,20.449a250.309,250.309,0,0,0,33.781,17.576c11.072,4.729,22.63,8.688,34.628,9.726,19.532,1.692,38.765-4.4,57.906-8.634,116.255-25.69,235.5,15.409,351.83-11.746q6.853-1.6,13.655-3.439c7.854-2.122,16.168-4.827,21.154-11.254,6.809-8.779,4.862-22.122-1.979-30.885s-17.45-13.695-28.039-17.052c-36.832-11.677-75.962-7.51-113.763-4.408-54.984,4.516-110.186,5.211-165.324,5.428C1352.859,2379.857,1299.618,2380.554,1246.534,2376.207Z" transform="translate(-905.305 -1816.147)" fill="#ffe8d4"/>
    <path id="Path_729" data-name="Path 729" d="M1756.259,549.77V815.5a14.668,14.668,0,0,1-14.668,14.668H1269.368A14.668,14.668,0,0,1,1254.7,815.5V549.77a24.13,24.13,0,0,1,24.132-24.13h453.295a24.13,24.13,0,0,1,24.132,24.132Z" transform="translate(-961.132 -402.654)" fill="#fff" stroke="#fe677a" stroke-miterlimit="10" stroke-width="9.19"/>
    <path id="Path_730" data-name="Path 730" d="M1756.259,549.77v13.8H1254.7v-13.8a24.13,24.13,0,0,1,24.132-24.13h453.295a24.13,24.13,0,0,1,24.132,24.132Z" transform="translate(-961.132 -402.654)" fill="#fe677a"/>
    <rect id="Rectangle_246" data-name="Rectangle 246" width="127.383" height="50.552" rx="25.276" transform="translate(312.901 179.479)" fill="#ffc280"/>
    <rect id="Rectangle_247" data-name="Rectangle 247" width="40.721" height="14.588" rx="7.294" transform="translate(317.101 251.504)" fill="#fe677a"/>
    <rect id="Rectangle_248" data-name="Rectangle 248" width="40.721" height="14.588" rx="7.294" transform="translate(380.3 251.504)" fill="#fe677a"/>
    <rect id="Rectangle_249" data-name="Rectangle 249" width="40.721" height="14.588" rx="7.294" transform="translate(457.825 251.504)" fill="#fe677a"/>
    <rect id="Rectangle_250" data-name="Rectangle 250" width="40.721" height="14.588" rx="7.294" transform="translate(528.185 251.504)" fill="#fe677a"/>
    <rect id="Rectangle_251" data-name="Rectangle 251" width="40.721" height="14.588" rx="7.294" transform="translate(598.549 251.504)" fill="#fe677a"/>
    <rect id="Rectangle_252" data-name="Rectangle 252" width="40.721" height="14.588" rx="7.294" transform="translate(668.909 251.504)" fill="#fe677a"/>
    <rect id="Rectangle_253" data-name="Rectangle 253" width="40.721" height="14.588" rx="7.294" transform="translate(739.27 251.504)" fill="#fe677a"/>
    <circle id="Ellipse_187" data-name="Ellipse 187" cx="6.605" cy="6.605" r="6.605" transform="translate(470.806 179.479)" fill="none" stroke="#ffc280" stroke-miterlimit="10" stroke-width="11.27"/>
    <circle id="Ellipse_188" data-name="Ellipse 188" cx="6.605" cy="6.605" r="6.605" transform="translate(470.806 197.552)" fill="none" stroke="#ffc280" stroke-miterlimit="10" stroke-width="11.27"/>
    <circle id="Ellipse_189" data-name="Ellipse 189" cx="6.605" cy="6.605" r="6.605" transform="translate(470.806 215.626)" fill="none" stroke="#ffc280" stroke-miterlimit="10" stroke-width="11.27"/>
    <path id="Path_731" data-name="Path 731" d="M2097.111,788.751c2.216,1.823,5.033,1.811,7.794,1.937,2.642.122,5.3.234,7.955.234,5.3,0,10.6.068,15.9.019,10.529-.1,21.037-.606,31.556-.66l8.891-.044c1.481,0,2.959,0,4.445-.026a8.045,8.045,0,0,0,2.546-.271,14.758,14.758,0,0,0,2.073-.936,1.751,1.751,0,0,0,0-3,8.932,8.932,0,0,0-3.683-1.2c-1.376-.061-2.808-.026-4.212-.033l-7.955-.04c-5.309-.028-10.592-.18-15.9-.349-10.529-.328-21.046-.328-31.565-.3-2.964,0-5.922.1-8.891.208-3.07.108-6.481-.061-8.961,1.977a1.767,1.767,0,0,0,0,2.494Z" transform="translate(-1606.041 -600.612)" fill="#315ec5"/>
    <path id="Path_732" data-name="Path 732" d="M2099.228,867.262c1.755,1.3,4.371,1.17,6.5,1.266,2.008.089,4.031.033,6.041.04l12.546.042q6.275.021,12.548-.033c2.012-.012,4.031.028,6.041-.07a24.522,24.522,0,0,0,6.469-1.277,1.638,1.638,0,0,0,0-3.112,24.507,24.507,0,0,0-6.469-1.278c-2.01-.1-4.029-.058-6.041-.07-4.183-.021-8.365-.047-12.548-.033l-12.546.044c-2.01,0-4.034-.054-6.041.037-2.134.1-4.75-.028-6.5,1.266A1.877,1.877,0,0,0,2099.228,867.262Z" transform="translate(-1607.39 -660.875)" fill="#315ec5"/>
    <path id="Path_733" data-name="Path 733" d="M2098.956,945.466c3.652.936,7.684.508,11.427.5s7.473-.03,11.212-.126c3.589-.091,7.157-.449,10.744-.531l11.212-.25c14.778-.33,29.6-.016,44.378.3,4.05.087,8.1.182,12.146.182h6.083a16.89,16.89,0,0,0,3.458-.171c1.013-.211,2.024-.615,3.016-.917a1.525,1.525,0,0,0,0-2.918,19.013,19.013,0,0,0-5.541-1.088h-5.615c-3.744,0-7.473.054-11.21.133-7.321.154-14.635.32-21.956.346s-14.644.19-21.956.063c-3.744-.066-7.476-.168-11.212-.25-1.708-.04-3.433,0-5.147-.115-2.029-.124-4.041-.367-6.083-.419q-6.083-.159-12.146-.182l-6.083-.021a27.119,27.119,0,0,0-6.755.512,2.591,2.591,0,0,0,0,4.958Z" transform="translate(-1606.426 -720.06)" fill="#315ec5"/>
    <path id="Path_734" data-name="Path 734" d="M2096.472,989.156a79.073,79.073,0,0,0,11.039,1.191c1.832.091,3.662.117,5.494.147a10.154,10.154,0,0,0,2.866-.257,7.935,7.935,0,0,0,2.539-1.638,1.836,1.836,0,0,0,0-2.574,7.939,7.939,0,0,0-2.34-1.572,9.2,9.2,0,0,0-3.077-.328c-1.832.028-3.662.054-5.494.145a80.486,80.486,0,0,0-11.039,1.191c-1.827.349-1.83,3.346,0,3.694Z" transform="translate(-1604.892 -753.862)" fill="#315ec5"/>
    <g id="Group_297" data-name="Group 297" transform="translate(310.807 277.681)" opacity="0.44">
      <rect id="Rectangle_254" data-name="Rectangle 254" width="59.933" height="23.936" fill="#ffc280"/>
    </g>
    <g id="Group_298" data-name="Group 298" transform="translate(380.091 277.681)" opacity="0.44">
      <rect id="Rectangle_255" data-name="Rectangle 255" width="59.933" height="23.936" fill="#ffc280"/>
    </g>
    <g id="Group_299" data-name="Group 299" transform="translate(449.376 277.681)" opacity="0.44">
      <rect id="Rectangle_256" data-name="Rectangle 256" width="59.933" height="23.936" fill="#ffc280"/>
    </g>
    <rect id="Rectangle_257" data-name="Rectangle 257" width="59.933" height="23.936" transform="translate(518.66 277.681)" fill="#ffc280"/>
    <rect id="Rectangle_258" data-name="Rectangle 258" width="59.933" height="23.936" transform="translate(587.945 277.681)" fill="#ffc280"/>
    <rect id="Rectangle_259" data-name="Rectangle 259" width="59.933" height="23.936" transform="translate(657.229 277.681)" fill="#ffc280"/>
    <rect id="Rectangle_260" data-name="Rectangle 260" width="59.933" height="23.936" transform="translate(726.514 277.681)" fill="#ffc280"/>
    <rect id="Rectangle_261" data-name="Rectangle 261" width="59.933" height="23.936" transform="translate(310.807 311.902)" fill="#ffc280"/>
    <rect id="Rectangle_262" data-name="Rectangle 262" width="59.933" height="23.936" transform="translate(380.091 311.902)" fill="#315ec5"/>
    <rect id="Rectangle_263" data-name="Rectangle 263" width="59.933" height="23.936" transform="translate(449.376 311.902)" fill="#ffc280"/>
    <rect id="Rectangle_264" data-name="Rectangle 264" width="56.587" height="20.59" transform="translate(520.333 313.575)" fill="#ffc280"/>
    <path id="Path_735" data-name="Path 735" d="M2273.327,1336.406v17.244h-53.25v-17.244h53.241m3.346-3.346H2216.74V1357h59.933V1333.06Z" transform="translate(-1698.08 -1021.158)" fill="#fe677a"/>
    <rect id="Rectangle_265" data-name="Rectangle 265" width="59.933" height="23.936" transform="translate(587.945 311.902)" fill="#ffc280"/>
    <rect id="Rectangle_266" data-name="Rectangle 266" width="59.933" height="23.936" transform="translate(657.229 311.902)" fill="#ffc280"/>
    <rect id="Rectangle_267" data-name="Rectangle 267" width="59.933" height="23.936" transform="translate(726.514 311.902)" fill="#ffc280"/>
    <rect id="Rectangle_268" data-name="Rectangle 268" width="59.933" height="23.936" transform="translate(310.807 346.125)" fill="#ffc280"/>
    <rect id="Rectangle_269" data-name="Rectangle 269" width="59.933" height="23.936" transform="translate(380.091 346.125)" fill="#ffc280"/>
    <rect id="Rectangle_270" data-name="Rectangle 270" width="59.933" height="23.936" transform="translate(449.376 346.125)" fill="#ffc280"/>
    <rect id="Rectangle_271" data-name="Rectangle 271" width="59.933" height="23.936" transform="translate(518.66 346.125)" fill="#fe677a"/>
    <rect id="Rectangle_272" data-name="Rectangle 272" width="59.933" height="23.936" transform="translate(587.945 346.125)" fill="#ffc280"/>
    <rect id="Rectangle_273" data-name="Rectangle 273" width="59.933" height="23.936" transform="translate(657.229 346.125)" fill="#ffc280"/>
    <rect id="Rectangle_274" data-name="Rectangle 274" width="59.933" height="23.936" transform="translate(726.514 346.125)" fill="#ffc280"/>
    <rect id="Rectangle_275" data-name="Rectangle 275" width="59.933" height="23.936" transform="translate(310.807 380.346)" fill="#ffc280"/>
    <rect id="Rectangle_276" data-name="Rectangle 276" width="59.933" height="23.936" transform="translate(380.091 380.346)" fill="#ffc280"/>
    <rect id="Rectangle_277" data-name="Rectangle 277" width="59.933" height="23.936" transform="translate(449.376 380.346)" fill="#ffc280"/>
    <rect id="Rectangle_278" data-name="Rectangle 278" width="59.933" height="23.936" transform="translate(518.66 380.346)" fill="#ffc280"/>
    <rect id="Rectangle_279" data-name="Rectangle 279" width="59.933" height="23.936" transform="translate(587.945 380.346)" fill="#ffc280"/>
    <g id="Group_300" data-name="Group 300" transform="translate(657.229 380.346)" opacity="0.44">
      <rect id="Rectangle_280" data-name="Rectangle 280" width="59.933" height="23.936" fill="#ffc280"/>
    </g>
    <g id="Group_301" data-name="Group 301" transform="translate(726.514 380.346)" opacity="0.44">
      <rect id="Rectangle_281" data-name="Rectangle 281" width="59.933" height="23.936" fill="#ffc280"/>
    </g>
    <path id="Path_736" data-name="Path 736" d="M1947.517,1356.509c6.717.112,13.435.15,20.155.171,6.685.021,13.519.435,20.155-.4a.468.468,0,0,0,0-.917c-6.636-.831-13.47-.417-20.155-.4-6.72.021-13.437.058-20.155.171a.684.684,0,0,0,0,1.366Z" transform="translate(-1491.342 -1037.849)" fill="#452964"/>
    <path id="Path_737" data-name="Path 737" d="M1949.591,1373.448c2.015.094,4.022.145,6.039.166a28.269,28.269,0,0,0,5.73-.264.587.587,0,0,0,0-1.123,27.929,27.929,0,0,0-5.73-.264c-2.017.019-4.024.07-6.039.164a.662.662,0,0,0,0,1.322Z" transform="translate(-1492.96 -1050.94)" fill="#452964"/>
    <path id="Path_738" data-name="Path 738" d="M1948.584,1393.407c3.489.5,7.115.2,10.632.351,3.645.159,7.288.185,10.938.208,3.566.026,7.134.03,10.7.044l5.585.023c1.7,0,3.744.264,5.353-.356a.894.894,0,0,0,0-1.708c-1.615-.622-3.652-.363-5.353-.356l-5.351.021c-3.645.016-7.291.023-10.936.047-3.57.021-7.139.042-10.7.2s-7.3-.152-10.866.363a.612.612,0,0,0,0,1.17Z" transform="translate(-1492.334 -1065.967)" fill="#452964"/>
    <path id="Path_739" data-name="Path 739" d="M1643.818,1508.48c1.839,1.57,4.212,1.6,6.535,1.49,2.01-.1,4.022-.267,6.037-.3,4.179-.07,8.355-.091,12.536-.234s8.355-.234,12.536-.309c2.012-.037,4.024-.056,6.036-.112a20.664,20.664,0,0,0,3.248-.281,10.53,10.53,0,0,0,2.9-.688,1.151,1.151,0,0,0,0-1.975,10.371,10.371,0,0,0-2.9-.688,21.538,21.538,0,0,0-3.248-.281c-2.012-.059-4.027-.075-6.036-.112-4.181-.077-8.358-.161-12.536-.309s-8.358-.161-12.536-.234c-2.015-.035-4.027-.2-6.037-.3-2.312-.115-4.693-.082-6.535,1.49a2.023,2.023,0,0,0,0,2.85Z" transform="translate(-1258.757 -1152.187)" fill="#452964"/>
    <path id="Path_740" data-name="Path 740" d="M1646.107,1541.537a12.725,12.725,0,0,0,4.041.583,6.632,6.632,0,0,0,3.87-.678,1.118,1.118,0,0,0,0-1.914,6.647,6.647,0,0,0-3.87-.679,12.791,12.791,0,0,0-4.041.583,1.1,1.1,0,0,0,0,2.106Z" transform="translate(-1260.365 -1178.783)" fill="#452964"/>
    <path id="Path_741" data-name="Path 741" d="M1982.595,592.7c1.336.332,2.527.95,3.851,1.287a34.829,34.829,0,0,0,5.131.676c2.808.288,5.58.431,8.407.487,5.76.108,11.523.054,17.284.058l34.567.023q34.565.023,69.135.021h19.151c1.638,0,3.276,0,4.914-.042,1.872-.047,3.683-.349,5.543-.566.035,0,.758-.049.295-.023.468-.026.936-.052,1.4-.1a18.3,18.3,0,0,0,2.766-.636c1.6-.4,3.227-.728,4.839-1.093a2.258,2.258,0,0,0,0-4.321c-2.962-.669-5.976-1.652-9.006-1.825.147,0,.676.108-.295-.023-.3-.04-.6-.087-.9-.131-.922-.136-1.848-.314-2.777-.377-1.469-.1-2.962-.1-4.446-.1L2125.169,586H2090.6l-69.135.049c-6.383,0-12.77-.063-19.153.019-3.276.042-6.551.1-9.808.433-1.713.175-3.51.22-5.194.547-1.638.316-3.1,1.109-4.722,1.511a2.168,2.168,0,0,0,0,4.148Z" transform="translate(-1517.538 -448.891)" fill="#fff"/>
    <path id="Path_742" data-name="Path 742" d="M2857.889,2344.146s2.852,12.92,2.026,15.676-9.045,5.4-9.045,5.4l3.51,14.211s26.1-2.192,27.761-6.048-2.12-14.883-2.953-22.848-1.6-12.4-1.6-12.4Z" transform="translate(-2183.84 -1791.075)" fill="#452964"/>
    <path id="Path_743" data-name="Path 743" d="M2750.57,2431.475s1.668,16.509,3.379,17.534,25.625-3.538,26.783-2.2a5.341,5.341,0,0,1,.948,3.533l-61.376,7.932s-5.147.468-6.058-4.237,3.376-8.891,16.2-16.266S2750.488,2430.706,2750.57,2431.475Z" transform="translate(-2079.092 -1862.281)" fill="#f2b375"/>
    <path id="Path_744" data-name="Path 744" d="M2594.936,2366.361s1.209,13.615,0,16.339-9.986,4.338-9.986,4.338l1.715,15.028s27.031,1.21,29.247-2.522-.2-15.534,0-23.8,0-12.911,0-12.911Z" transform="translate(-1980.138 -1809.988)" fill="#452964"/>
    <path id="Path_745" data-name="Path 745" d="M2475.541,2444.784s-.468,17.139,1.139,18.414,26.727-.234,27.735,1.3a5.525,5.525,0,0,1,.505,3.743h-63.945s-5.346-.2-5.648-5.147,4.64-8.673,18.76-14.523S2475.56,2443.984,2475.541,2444.784Z" transform="translate(-1865.514 -1872.232)" fill="#ffc280"/>
    <path id="Path_746" data-name="Path 746" d="M2670.093,1773.574s-1.612,3.227-16.144,6.207a58.219,58.219,0,0,1-10.321,1.193c-8.512.2-13.638-1.689-13.638-1.689s-5.849-51.521-6.582-66.917,0-50.155,0-50.155-11.671,42.7-12.043,64.68,1.49,53.26,1.49,53.26-2.106,1.872-16.512,3.6-22.843-.994-22.843-.994-2.234-37.492-3.229-58.1-1.736-77.591-.868-96.585c.152-3.29.372-6.135.636-8.6,1.252-11.743,3.46-14.684,3.46-14.991,0,0,9.932-6.706,13.161-6.706s73,23.84,75.48,27.438c.871,1.259,1.664,8.552,2.34,18.589,1.242,18.62,2.054,46.687,2.136,63.222C2666.751,1732.481,2670.093,1773.574,2670.093,1773.574Z" transform="translate(-1967.936 -1223.94)" fill="#315ec5"/>
    <path id="Path_747" data-name="Path 747" d="M2667.884,1643.807c-5.8.6-16.275.468-24.68-4.932-12.167-7.822-36.205-24.184-51.147-23.217a60.975,60.975,0,0,0-18.608,3.818c1.252-11.743,3.46-14.684,3.46-14.991,0,0,9.932-6.706,13.161-6.706s73,23.84,75.48,27.438C2666.422,1626.477,2667.215,1633.77,2667.884,1643.807Z" transform="translate(-1971.329 -1223.94)" fill="#1c35ab"/>
    <path id="Path_748" data-name="Path 748" d="M2820.735,1956.693c-8.512.2-13.638-1.689-13.638-1.689s-5.849-51.521-6.582-66.917,0-50.155,0-50.155a81.126,81.126,0,0,1,3.744-10.227c1.778-3.542,4.668,10.95,4.024,29.3s-.482,43.47,4.024,65.847C2815.531,1938.939,2819.02,1951.115,2820.735,1956.693Z" transform="translate(-2145.017 -1399.658)" fill="#1c35ab"/>
    <path id="Path_749" data-name="Path 749" d="M2696.057,802.3c-.468,1.79-1.06,3.7-1.708,5.779a45.766,45.766,0,0,0-1.694,9.464,114.518,114.518,0,0,0,.234,19.364l-20.122,2.26s0-5.552-.122-10.391a47.363,47.363,0,0,0-.445-6.9c-.271-.81-1.233-1.154-3.163-1.5h-.026c-2.106-.381-5.381-.77-10.152-1.771-9.158-1.921-9.448-16.732-9.448-16.732s-6.72-.908-8.077-3.168-.564-3.163,4.637-6.668,4.293-11.76,6.1-16.846c.037-.108.077-.218.124-.325a13.2,13.2,0,0,1,5.868-6.785c4.467-4.111,26.907,6.551,34.144,14.7,2.929,3.294,4.394,6.292,4.876,9.415S2697.059,798.528,2696.057,802.3Z" transform="translate(-2022.883 -587.668)" fill="#fdbfa6"/>
    <path id="Path_750" data-name="Path 750" d="M2734.512,792.15c-2.169,1.638-4.31,2.461-5.849,1.841-5.07-2.04-7.352,2.67-9.013,5.421s-3.107.763-4.111-3.381c-.7-2.9-4.525-4.68-6.982-5.667-4.394-1.766-9.167-2.808-13.037-5.54a13.489,13.489,0,0,1-4.3-4.345,21.367,21.367,0,0,1-1.6-5.648,13.2,13.2,0,0,1,5.868-6.785c4.467-4.111,26.907,6.551,34.144,14.7C2732.566,786.029,2734.03,789.027,2734.512,792.15Z" transform="translate(-2060.318 -587.645)" fill="#b8697c" opacity="0.28"/>
    <path id="Path_751" data-name="Path 751" d="M2849.7,907.961c-.468,1.79-1.06,3.7-1.708,5.779a45.75,45.75,0,0,0-1.694,9.464c-2.768-1.359-6.907-12.017-3.961-13.2a7.321,7.321,0,0,0,4.211-4.642C2848.3,904.5,2849.269,905.773,2849.7,907.961Z" transform="translate(-2176.53 -693.324)" fill="#b8697c"/>
    <path id="Path_752" data-name="Path 752" d="M2765.188,994.232a47.363,47.363,0,0,0-.445-6.9c-.271-.81-1.233-1.154-3.163-1.5a13.591,13.591,0,0,0,9.155-2.227C2775.26,980.542,2765.188,994.232,2765.188,994.232Z" transform="translate(-2115.441 -753.119)" fill="#b8697c"/>
    <path id="Path_753" data-name="Path 753" d="M2766.629,1048.938a35.44,35.44,0,0,0,11.76.564c7.349-.678,10.966-2.826,11.191-1.355s.566,16.612.566,16.612-22.838.234-23.517-1.584S2764.839,1047.806,2766.629,1048.938Z" transform="translate(-2118.566 -802.521)" fill="#315ec5"/>
    <path id="Path_754" data-name="Path 754" d="M2677.788,1245.945s-28.718.339-41.72-4.633c-3.432-1.315-7.611-3.3-12.05-5.522-12.372-6.21-26.753-14.308-32.492-15.056-7.8-1.018-12.1.793-12.1.793s4.972-19.785,7.574-37.649c1.855-12.745,7.335-35.44,11.39-50.852,1.638-6.193,3.03-11.21,3.872-13.931,2.941-9.5,19.867-25.126,21.058-23.865a38.98,38.98,0,0,0,13.3,1.71c7.464-.339,11.673-3.194,12.45-1.71a167.062,167.062,0,0,1,14.121,50.552c2.829,26.795,10.061,79.14,12.66,88.976S2677.788,1245.945,2677.788,1245.945Z" transform="translate(-1975.909 -838.649)" fill="#fcf4e7"/>
    <path id="Path_755" data-name="Path 755" d="M2633.886,1333.861a99.352,99.352,0,0,1-9.853,21.647c-9.462-4.75-20.1-10.6-27.141-13.428a24.721,24.721,0,0,0-5.346-1.638,35.3,35.3,0,0,0-5.042-.306,20.393,20.393,0,0,0-7.054,1.1s4.972-19.785,7.574-37.649c1.855-12.745,7.335-35.44,11.39-50.852.194-.295.386-.58.576-.849a1.869,1.869,0,0,1,3.329,1.556,125.26,125.26,0,0,0-3.437,21.689c-1.369,17.5-.854,24.284-.854,24.284s2.759,3.846,9.052,3.732a101.441,101.441,0,0,0,20.393-2.66,27.236,27.236,0,0,0,6.551-2.267l.994-19.738s1.86-4.719,3.1,2.234S2638.6,1317.97,2633.886,1333.861Z" transform="translate(-1975.925 -958.368)" fill="#e5ddec"/>
    <path id="Path_756" data-name="Path 756" d="M2624.882,1480.679a37.172,37.172,0,0,1-5.414,5.262c-6.317,5.381-16.4,12.995-22.892,17.855-3.51,2.628-5.969,4.445-6.207,4.679-.868.868-.372,5.711-1.615,9.312s-5.585,9.062-5.585,9.062-3.477-5.835-4.036-9.637,1.17-9.109,5.028-13.082c.487-.5,1.17-1.287,2.026-2.281,5.061-5.959,15.5-19.42,18.922-24.237.515-.725.87-1.256,1.027-1.537,1.364-2.485.627-11.214.627-11.214a101.443,101.443,0,0,0,20.393-2.66C2627.4,1466.713,2627.622,1476.7,2624.882,1480.679Z" transform="translate(-1975.604 -1120.083)" fill="#fdbfa6"/>
    <path id="Path_757" data-name="Path 757" d="M2710.263,1480.718a37.185,37.185,0,0,1-5.414,5.262,15.88,15.88,0,0,0-4.766-5.758c-4.123-3.372-7.777-3.042-9.593-2.56.515-.725.87-1.256,1.027-1.537,1.364-2.485.627-11.214.627-11.214a101.439,101.439,0,0,0,20.393-2.66C2712.785,1466.752,2713,1476.735,2710.263,1480.718Z" transform="translate(-2060.984 -1120.121)" fill="#315ec5"/>
    <path id="Path_758" data-name="Path 758" d="M2576.448,1696.941c.445,2.74,2.012,5.365,3.346,7.754,1.448,2.6,3.489,6.425,6.937,6.484a1.163,1.163,0,0,0,.583-2.15,11.388,11.388,0,0,1-3.552-2.59,30.089,30.089,0,0,1-2.253-3.379c-1.289-2.05-2.887-4.177-3.526-6.551-.274-1.009-1.7-.566-1.535.423Z" transform="translate(-1973.616 -1299.131)"/>
    <path id="Path_759" data-name="Path 759" d="M2677.316,1658.8a.9.9,0,0,1-.136,0,.952.952,0,0,1-.812-1.079c.248-1.764.4-2.724.4-2.733a.957.957,0,1,1,1.891.295s-.15.957-.4,2.7A.957.957,0,0,1,2677.316,1658.8Z" transform="translate(-2050.16 -1267.126)" fill="#1c35ab"/>
    <path id="Path_760" data-name="Path 760" d="M2647.111,1846.621a.957.957,0,0,1-.955-.936c-.042-1.6-.086-3.4-.133-5.4a.957.957,0,1,1,1.911-.044c.047,1.991.091,3.8.134,5.393a.957.957,0,0,1-.936.98Zm-.246-10.789a.959.959,0,0,1-.957-.936q-.049-2.574-.1-5.4a.952.952,0,0,1,.936-.971h.014a.957.957,0,0,1,.957.936c.03,1.872.063,3.685.1,5.381a.952.952,0,0,1-.936.973Zm-.178-10.791a.955.955,0,0,1-.955-.936q-.035-2.62-.063-5.4a.955.955,0,0,1,.936-.964h.012a.954.954,0,0,1,.955.936q.028,2.772.063,5.393a.957.957,0,0,1-.936.969Zm-.108-10.791a.955.955,0,0,1-.955-.95q-.016-2.651-.028-5.4a.957.957,0,0,1,.952-.959h0a.954.954,0,0,1,.955.955q0,2.745.028,5.381a.957.957,0,0,1-.95.964Zm-.035-10.791h0a.955.955,0,0,1-.955-.957v-5.4a.957.957,0,1,1,1.914,0v5.381a.957.957,0,0,1-.959.985Zm.044-10.791h0a.957.957,0,0,1-.948-.964q.021-2.679.054-5.4a.957.957,0,0,1,1.912.023q-.033,2.712-.054,5.393a.955.955,0,0,1-.964.948Zm.129-10.791h-.016a.957.957,0,0,1-.936-.971q.044-2.693.1-5.4a.957.957,0,1,1,1.912.04q-.056,2.7-.1,5.381a.955.955,0,0,1-.959.95Zm.234-10.789h-.026a.957.957,0,0,1-.936-.98q.07-2.7.157-5.4a.955.955,0,0,1,.955-.924h.03a.953.953,0,0,1,.924.985q-.084,2.693-.154,5.381a.955.955,0,0,1-.957.938Zm.342-10.784h-.038a.957.957,0,0,1-.919-.99c.023-.613.047-1.221.07-1.832q.075-1.795.152-3.566a.955.955,0,1,1,1.909.087q-.077,1.764-.149,3.556l-.07,1.825a.959.959,0,0,1-.962.92Zm.468-10.779h-.049a.955.955,0,0,1-.906-1c.091-1.785.192-3.6.295-5.393a.957.957,0,0,1,1.909.11c-.1,1.79-.2,3.6-.295,5.381a.957.957,0,0,1-.952.906Zm.629-10.763h-.063a.957.957,0,0,1-.892-1.018c.115-1.792.234-3.606.367-5.381a.957.957,0,0,1,1.907.136c-.126,1.781-.25,3.589-.367,5.381a.957.957,0,0,1-.95.873Zm.772-10.763h-.077a.954.954,0,0,1-.877-1.027c.14-1.783.288-3.6.44-5.381a.956.956,0,0,1,1.9.161c-.152,1.785-.3,3.591-.438,5.381a.954.954,0,0,1-.95.854Zm.915-10.763h-.089a.957.957,0,0,1-.866-1.039c.164-1.785.337-3.594.512-5.381a.957.957,0,0,1,1.9.19c-.176,1.781-.349,3.584-.512,5.365a.954.954,0,0,1-.948.866Zm1.06-10.739h-.1a.957.957,0,0,1-.852-1.053c.19-1.795.388-3.6.587-5.381a.957.957,0,1,1,1.9.215c-.2,1.764-.4,3.566-.585,5.356a.957.957,0,0,1-.948.864Zm1.212-10.723h-.115a.959.959,0,0,1-.835-1.065c.234-1.827.447-3.631.672-5.363a.957.957,0,1,1,1.9.234c-.234,1.727-.449,3.526-.669,5.346a.959.959,0,0,1-.948.847Z" transform="translate(-2026.59 -1293.407)" fill="#1c35ab"/>
    <path id="Path_761" data-name="Path 761" d="M2649.706,2383.721a.957.957,0,0,1-.955-.922s-.035-.966-.089-2.752a.957.957,0,1,1,1.912-.058c.054,1.778.089,2.74.089,2.742a.957.957,0,0,1-.919.99Z" transform="translate(-2028.941 -1822.393)" fill="#1c35ab"/>
    <path id="Path_762" data-name="Path 762" d="M2682.679,1200.561c1.348-2.106,2.808-4.113,4.352-6.083a15.263,15.263,0,0,1,1.961-2.185c.768-.662,1.76-.973,2.515-1.638a.817.817,0,0,0-.358-1.348c-2.131-.835-4.268,1.743-5.381,3.191a45.566,45.566,0,0,0-4.492,7.218.815.815,0,0,0,1.4.826Z" transform="translate(-2053.85 -910.915)" fill="#e5ddec"/>
    <path id="Path_763" data-name="Path 763" d="M2742.793,1186.937c.7.077,1.4.234,2.106.356a2.94,2.94,0,0,0,1.886,0,.724.724,0,0,0,.145-1.128,2.754,2.754,0,0,0-2.05-.667,7.785,7.785,0,0,0-2.249.26c-.718.154-.468,1.118.162,1.189Z" transform="translate(-2100.592 -908.119)" fill="#e5ddec"/>
    <path id="Path_764" data-name="Path 764" d="M2790.472,1111.38a32.382,32.382,0,0,0,7.677.9,28.113,28.113,0,0,0,3.545-.3,26.9,26.9,0,0,0,4-.608c.442-.129.636-.875.141-1.086-2.106-.894-4.818-.028-7.019.133a31.112,31.112,0,0,1-7.955-.421c-.894-.166-1.289,1.17-.379,1.383Z" transform="translate(-2137.18 -850.202)" fill="#e5ddec"/>
    <path id="Path_765" data-name="Path 765" d="M2700.122,734.51c-2.887,5.866-1.486,14.834,3.4,18.669,7.349,5.768,20.463,6.551,20.8,12.323s1.921,2.036,2.714,0,6.1-5.653,9.382-.679-4.408,19.221,2.036,19.106c0,0,3.617.115,4.071-1.694s.112-4.644,2.826-9.331,7.686-9.89,4.521-22.438-10.04-12.887-10.061-12.89-1.278-2.653-1.4-2.833a14.1,14.1,0,0,0-6.375-4.958c-4.939-1.94-10.333-2.218-15.581-2.092-4.764.115-9.785.2-13.667,3.374a10.3,10.3,0,0,0-2.667,3.442Z" transform="translate(-2067.221 -557.413)"/>
    <path id="Path_766" data-name="Path 766" d="M2892.15,948.5c-.468,1.036-1.107,3.18.26,3.8a.369.369,0,0,0,.491-.129,2.025,2.025,0,0,0,.208-1.453,4.446,4.446,0,0,1,.187-1.736C2893.5,948.317,2892.445,947.838,2892.15,948.5Z" transform="translate(-2215.028 -726.332)"/>
    <path id="Path_767" data-name="Path 767" d="M2694.94,858.6a1.915,1.915,0,0,0-.43,1.331,6.35,6.35,0,0,0,0,1.369c.171,1.065,1.8.955,2.045,0a4.066,4.066,0,0,0,.016-1.448,1.748,1.748,0,0,0-.7-1.373.8.8,0,0,0-.95.122Z" transform="translate(-2064.035 -657.536)"/>
    <path id="Path_768" data-name="Path 768" d="M2688.034,933.9a6.7,6.7,0,0,0,4.722.6c1.4-.278,3.446-.854,4.282-2.078a.442.442,0,0,0-.379-.657c-1.287.026-2.443.971-3.664,1.336a7.648,7.648,0,0,1-4.614-.021A.45.45,0,0,0,2688.034,933.9Z" transform="translate(-2058.938 -713.76)"/>
    <path id="Path_769" data-name="Path 769" d="M2692.768,831.226a5.653,5.653,0,0,1,1.715.2,7.775,7.775,0,0,0,1.465.414c.372.028.5-.447.283-.688-.76-.866-2.415-.882-3.463-.753C2692.256,830.461,2692.221,831.243,2692.768,831.226Z" transform="translate(-2062.425 -636.061)"/>
    <path id="Path_770" data-name="Path 770" d="M2834.21,894.186a6.084,6.084,0,0,0-1.06,3.074,1.23,1.23,0,0,0,2.405.325c.285-.831.388-1.708.7-2.536C2836.725,893.831,2834.853,893.136,2834.21,894.186Z" transform="translate(-2170.265 -684.576)" fill="#b8697c"/>
    <path id="Path_771" data-name="Path 771" d="M2366.8,1148.85c-.524.868-1.015,1.757-1.476,2.66-.269.529-.636,1.919-1.364,2a33.78,33.78,0,0,1-.215-5.786l.08.073a22.78,22.78,0,0,1-6.622-3.556c-4.644-3.306-9.088-7.176-11.722-12.23-4.059-7.791-2.171-16.612,5.056-21.724a24.706,24.706,0,0,1,20.11-3.4c10.028,2.553,21.292,12.092,20.646,23.325a16.48,16.48,0,0,1-4.7,10.475c-3.152,3.182-6.919,3.912-11.205,4.324a25.161,25.161,0,0,1-6.923.178Z" transform="translate(-1795.091 -847.297)" fill="#fff"/>
    <path id="Path_772" data-name="Path 772" d="M2364.314,1140.816c-1.32.426-1.937,1.944-2.574,3.042-.517.889-1.076,1.752-1.551,2.67-.145.278-.52,1.556-.8,1.638l1.448.821a32.366,32.366,0,0,1-.145-5.473l-2.054.852.077.073,1.17-2.015a22.551,22.551,0,0,1-6.317-3.465,53.711,53.711,0,0,1-5.1-4.106c-3.205-2.955-6.1-6.525-7.358-10.763a15.145,15.145,0,0,1,.76-10.936,17.378,17.378,0,0,1,8.811-8.058c7.866-3.47,16.825-1.916,23.887,2.632,6.317,4.064,11.993,11.083,11.09,19.027-.538,4.729-3.578,9.5-8.063,11.35-4.888,2.012-10.681,1.6-15.828,1.324-1.451-.075-1.823,2.34-.349,2.574a37.582,37.582,0,0,0,8.821.234,30.5,30.5,0,0,0,7.11-1.221,16.185,16.185,0,0,0,9.916-9.89c3.369-8.826-1.509-17.932-8.4-23.454-7.253-5.812-16.708-8.657-25.857-6.172a21.765,21.765,0,0,0-11.811,7.693,17.313,17.313,0,0,0-3.292,12.167c.585,5.313,3.418,9.963,7.108,13.725a49.819,49.819,0,0,0,6.369,5.363,26.708,26.708,0,0,0,7.854,4.31,1.212,1.212,0,0,0,1.17-2.012l-.08-.073a1.219,1.219,0,0,0-2.054.852,35.867,35.867,0,0,0,.283,6.1,1.19,1.19,0,0,0,1.448.821c1.521-.454,1.872-2.284,2.52-3.535.409-.793.865-1.561,1.275-2.354.2-.377.641-1.614,1.055-1.762,1.219-.44.72-2.372-.543-1.968Z" transform="translate(-1790.82 -843.086)" fill="#315ec5"/>
    <path id="Path_773" data-name="Path 773" d="M2387.867,1179.415a5.636,5.636,0,0,1-1.617-1.252l1.191-1.591a5.557,5.557,0,0,0,1.381,1.114,5.955,5.955,0,0,0,1.734.7,2.945,2.945,0,0,0,1.546.033.917.917,0,0,0,.653-.683.775.775,0,0,0-.147-.665,2.269,2.269,0,0,0-.639-.547c-.274-.161-.65-.356-1.125-.585a16.845,16.845,0,0,1-1.778-.973,3.157,3.157,0,0,1-1.072-1.17,2.452,2.452,0,0,1-.168-1.741,2.937,2.937,0,0,1,.835-1.5,3.312,3.312,0,0,1,1.7-.817,6.027,6.027,0,0,1,2.45.105,7.893,7.893,0,0,1,1.848.655,5.758,5.758,0,0,1,1.477,1.027l-1.123,1.621a5.792,5.792,0,0,0-2.635-1.422,2.64,2.64,0,0,0-1.528,0,1,1,0,0,0-.66.735.845.845,0,0,0,.372.9,8.691,8.691,0,0,0,1.549.868,16.562,16.562,0,0,1,1.776.976,3.2,3.2,0,0,1,1.076,1.151,2.394,2.394,0,0,1,.171,1.727,2.857,2.857,0,0,1-.84,1.481,3.357,3.357,0,0,1-1.71.814,6.066,6.066,0,0,1-2.457-.108A8.483,8.483,0,0,1,2387.867,1179.415Z" transform="translate(-1827.929 -895.992)" fill="#fe677a"/>
    <path id="Path_774" data-name="Path 774" d="M2436.528,1186.464l-.419,1.886-7.859-1.75,2.26-10.15,7.67,1.708-.419,1.886-5.337-1.189-.491,2.2,4.712,1.048-.407,1.827-4.712-1.048-.522,2.34Z" transform="translate(-1860.102 -901.191)" fill="#fe677a"/>
    <path id="Path_775" data-name="Path 775" d="M2476.018,1187.257l-3.248-.723.426-1.914,8.847,1.97-.428,1.914-3.248-.723-1.834,8.236-2.34-.524Z" transform="translate(-1894.205 -907.449)" fill="#fe677a"/>
    <path id="Path_776" data-name="Path 776" d="M1499.5,1835.935c-6.9,19.226-27.183,31.987-45.26,39.741-17.993,7.721-37.579,10.5-57.071,9.247a155.511,155.511,0,0,1-62.375-17.946,153.174,153.174,0,0,1-19.7-12.445c-15.236-11.355-27.99-25.524-36.558-41.907-10.047-19.209-15.007-40.805-15.566-62.415-1.968-76.2,91.638-93.679,119.947-56.154s47.829,48.561,68.531,61.037S1511.984,1801.15,1499.5,1835.935Z" transform="translate(-967.444 -1283.093)" fill="#fe677a"/>
    <path id="Path_777" data-name="Path 777" d="M1632.465,2399.147a155.51,155.51,0,0,1-62.375-17.946l.131-34.911s20.384,3.208,42.9,19.843C1627.753,2376.931,1631.581,2390.771,1632.465,2399.147Z" transform="translate(-1202.729 -1797.318)" fill="#e53855"/>
    <path id="Path_778" data-name="Path 778" d="M1484.071,1734.434a40.381,40.381,0,0,0-18.084,27.317,55.125,55.125,0,0,0-.108,14.946c2.085,18.535,10.131,36.222,22.022,50.592,14.974,18.114,36.032,32.12,59.088,37.3,22.745,5.108,51.762.538,67.722-18.084,3.949-4.609,6.392-10.943,4.869-16.818-3.547-13.694-25.19-24.488-36.123-31.619-14.177-9.247-28.7-18.458-39.916-31.334-9.963-11.437-14.2-28.826-28.154-36.528C1506.285,1725.178,1492.186,1729.322,1484.071,1734.434Z" transform="translate(-1122.553 -1323.636)" fill="#e53855"/>
    <path id="Path_779" data-name="Path 779" d="M1833.188,1910.114c-1.923,5.751-3.868,11.544-6.881,16.806a54.91,54.91,0,0,1-8.472,11.027,96.829,96.829,0,0,1-10.854,9.415c-3.559,2.7-7.054,5.777-11.053,7.831-4.869,2.5-9.792,2.49-15,1.17-8.57-2.19-17.3-4.212-25.365-7.922-5.915-2.726-15.031-6.858-17.33-13.519-1.526-4.406,2.854-9.593,4.843-13.318a157.27,157.27,0,0,1,9.789-16.31,84.314,84.314,0,0,1,5.615-7.157,79.321,79.321,0,0,1,24-18.718,6.779,6.779,0,0,1,3.24-.969c2.9.117,6.453,2.843,8.905,4.212a211.465,211.465,0,0,1,24.888,16.193C1821.155,1900.086,1833.633,1908.794,1833.188,1910.114Z" transform="translate(-1331.29 -1438.939)" fill="#ffc280"/>
    <path id="Path_780" data-name="Path 780" d="M1461.615,2377.944c-1.923,5.751-3.868,11.544-6.881,16.806a54.918,54.918,0,0,1-8.472,11.027,97.038,97.038,0,0,1-10.854,9.415c-3.559,2.7-7.054,5.777-11.053,7.831-4.869,2.5-9.794,2.49-15,1.17-8.573-2.19-17.3-4.212-25.368-7.922-5.912-2.726-15.028-6.858-17.33-13.519a5.869,5.869,0,0,1-.309-2.162c.124-3.863,3.482-8.021,5.147-11.156a156.864,156.864,0,0,1,9.789-16.31,84.315,84.315,0,0,1,5.615-7.157,79.346,79.346,0,0,1,24-18.718,6.787,6.787,0,0,1,3.243-.969c2.9.117,6.453,2.843,8.905,4.211a211.5,211.5,0,0,1,24.888,16.193c1.093.824,6.975,4.951,10.662,8.011C1460.459,2376.231,1461.763,2377.5,1461.615,2377.944Z" transform="translate(-1046.655 -1797.308)" fill="#ffc280"/>
    <path id="Path_781" data-name="Path 781" d="M1817.834,2002.411a96.82,96.82,0,0,1-10.854,9.415c-3.559,2.7-7.054,5.777-11.053,7.831-4.869,2.5-9.792,2.489-15,1.17-8.571-2.19-17.3-4.212-25.365-7.922-5.915-2.726-15.031-6.858-17.33-13.519-1.526-4.406,2.854-9.593,4.843-13.318a157.27,157.27,0,0,1,9.789-16.31,84.317,84.317,0,0,1,5.615-7.157C1763.538,1973.69,1780.705,2003.733,1817.834,2002.411Z" transform="translate(-1331.289 -1503.402)" fill="#f4b271"/>
    <path id="Path_782" data-name="Path 782" d="M1652.214,2008.044c-3.566-.4-6.785,1.891-10.033,3.425-5.5,2.6-11.729,3.131-17.808,3.369q-6.3.25-12.607.138-3.308-.059-6.612-.215a9.469,9.469,0,0,1-3.76-.714,10.231,10.231,0,0,1-3.24-3.1c-3.411-4.305-7.253-8.259-10.487-12.707a57.514,57.514,0,0,1-10.793-35.7c.218-5.669.98-11.465,1.624-17.1.438-3.835,1.483-6.785,5.473-7.955a18.381,18.381,0,0,1,5.339-.7h.019c5.517.047,11.261,2.106,16.212,3.744l14.3,4.717a16.169,16.169,0,0,1,3.489,1.465,13.554,13.554,0,0,1,3.744,3.849c5.615,7.826,8.563,17.188,12.686,25.887C1644.654,1986.747,1651.367,1996.675,1652.214,2008.044Z" transform="translate(-1207.897 -1483.623)" fill="#ffc280"/>
    <path id="Path_783" data-name="Path 783" d="M1611.772,2014.979q-3.308-.059-6.612-.215a9.469,9.469,0,0,1-3.76-.714,10.234,10.234,0,0,1-3.241-3.1c-3.411-4.305-7.253-8.259-10.487-12.707a57.513,57.513,0,0,1-10.8-35.7c.218-5.669.98-11.465,1.624-17.1.438-3.835,1.483-6.785,5.473-7.955a18.381,18.381,0,0,1,5.339-.7c-.349,0-5.068.253-5.281,13.943C1583.807,1964.934,1594.254,2006.05,1611.772,2014.979Z" transform="translate(-1207.897 -1483.623)" fill="#f4b271"/>
    <path id="Path_784" data-name="Path 784" d="M1461.615,2470.988c-1.923,5.751-3.868,11.544-6.881,16.806a54.916,54.916,0,0,1-8.472,11.027,97.04,97.04,0,0,1-10.854,9.415c-3.559,2.7-7.054,5.777-11.053,7.831-4.869,2.5-9.794,2.489-15,1.17-8.573-2.19-17.3-4.212-25.368-7.922-5.912-2.726-15.028-6.858-17.33-13.519a5.87,5.87,0,0,1-.309-2.162c7.118,4.039,31.739,17.314,47.633,17.024s38.248-33.044,44.619-42.918C1460.459,2469.275,1461.763,2470.545,1461.615,2470.988Z" transform="translate(-1046.655 -1890.352)" fill="#f4b271"/>
    <path id="Path_785" data-name="Path 785" d="M1465.442,2034.976c-.131,3.439,1.271,6.582,2.777,9.593a101.518,101.518,0,0,0,5.147,8.91,132.955,132.955,0,0,0,12.426,16.561c1.271,1.441,2.574,2.861,3.9,4.244.674.7,1.427,1.28,2.148,1.928a7.923,7.923,0,0,0,2.246,1.638c.891.367,1.4-.76,1.1-1.432a11.751,11.751,0,0,0-1.989-2.438c-.7-.847-1.423-1.659-2.19-2.464q-2.132-2.235-4.16-4.562-4.071-4.679-7.721-9.708-3.636-4.993-6.806-10.307c-2.209-3.7-4.927-7.564-5.4-11.961a.74.74,0,0,0-1.479,0Z" transform="translate(-1122.56 -1558.298)" fill="#e53855"/>
    <path id="Path_786" data-name="Path 786" d="M1624.5,2237.337a26.507,26.507,0,0,0,2.62,3.166c.849.856,1.888,2.167,3.109,2.427a.772.772,0,0,0,.859-1.118c-.5-1.06-1.844-1.8-2.693-2.574-.962-.885-1.914-1.781-2.822-2.719-.526-.543-1.54.187-1.074.828Z" transform="translate(-1244.317 -1713.085)" fill="#e53855"/>
    <path id="Path_787" data-name="Path 787" d="M2134.658,2156.7c2.52-2.927,2.656-6.725,2.15-10.379a23.684,23.684,0,0,0-1.067-5.183c-.468-1.242-1.3-2.889-2.777-3a.7.7,0,0,0-.669.88,6.15,6.15,0,0,0,.973,1.425,6.792,6.792,0,0,1,.889,1.823,27.874,27.874,0,0,1,.863,4.1c.533,3.259.77,6.827-1.28,9.628-.388.531.484,1.207.917.7Z" transform="translate(-1633.375 -1637.862)" fill="#e53855"/>
    <path id="Path_788" data-name="Path 788" d="M3315.734,2202.663v10.606a2.939,2.939,0,0,1-2.946,2.946,2.946,2.946,0,0,0-2.869,2.272l-3.46,14.675-3.861,16.364a2.948,2.948,0,0,1-2.089,2.164c-6.212,1.71-28.629,6.858-52.75-.012a2.948,2.948,0,0,1-2.054-2.132l-6.221-25.339-1.837-7.487a2.951,2.951,0,0,0-2.155-2.159c-1.109-.274-2.34-.7-2.361-1.315-.019-1.149-.012-6.966,0-10.587a2.944,2.944,0,0,1,2.948-2.939h76.713a2.944,2.944,0,0,1,2.941,2.944Z" transform="translate(-2476.653 -1685.042)" fill="#541d10"/>
    <path id="Path_789" data-name="Path 789" d="M3315.346,2259.045a2.945,2.945,0,0,1-2.52,1.4,2.946,2.946,0,0,0-2.868,2.272l-3.46,14.675c-14.038-1.039-47.895-3.938-66.975-8.954l-1.837-7.487a2.951,2.951,0,0,0-2.155-2.16c-1.109-.274-2.34-.7-2.361-1.315,0,0,47.927,3.2,65.021,2.419C3306.706,2259.522,3312.087,2259.239,3315.346,2259.045Z" transform="translate(-2476.691 -1729.287)"/>
    <path id="Path_790" data-name="Path 790" d="M3458.993,1645.236a18.275,18.275,0,0,0,1.224-4.317c.185-1.554.253-3.11.334-4.68.157-3.042.145-6.083.164-9.113.035-5.92.07-11.837.07-17.756v-35.976c0-23.987-.353-47.965-.568-71.964q-.092-10.044-.15-20.094c-.023-3.425-.133-6.855-.264-10.281a87.614,87.614,0,0,0-.641-10.2,1.489,1.489,0,0,0-2.848,0,77.229,77.229,0,0,0-.6,9.036c-.115,3.023-.206,6.083-.281,9.113-.143,5.915-.079,11.839-.133,17.756-.11,11.994-.2,23.99-.33,35.983-.262,23.987-.283,47.965-.283,71.964q0,10.044.056,20.094c.021,3.421-.059,6.862.117,10.278.089,1.713.126,3.437.318,5.147a20.246,20.246,0,0,0,1.3,5.019,1.315,1.315,0,0,0,2.51,0Z" transform="translate(-2646.381 -1118.244)" fill="#315ec5"/>
    <path id="Path_791" data-name="Path 791" d="M3463,1824.232a23.533,23.533,0,0,1,2.681-10.133c1.594-3.362,3.454-6.622,5.323-9.827s3.828-6.4,5.8-9.555,4.516-6.338,5.73-9.885c.62-1.809-1.816-3-3.077-1.792a24.952,24.952,0,0,0-3.62,4.9c-1.09,1.729-2.139,3.411-3.191,5.126q-3.042,4.956-5.824,10.061c-3.573,6.586-7.33,13.709-6.193,21.441.2,1.364,2.377,1.006,2.37-.321Z" transform="translate(-2650.775 -1365.479)" fill="#315ec5"/>
    <path id="Path_792" data-name="Path 792" d="M3407.195,1646.977c.718-5.147-3.021-9.076-5.948-12.84-1.722-2.218-3.421-4.446-5.206-6.621-1.724-2.106-3.439-4.616-5.866-5.938a.866.866,0,0,0-1.259.966c.657,2.382,2.391,4.375,3.865,6.317,1.6,2.106,3.255,4.153,4.913,6.205,1.54,1.9,3.114,3.776,4.619,5.7a11.862,11.862,0,0,1,2.85,5.945c.094,1.062,1.855,1.511,2.029.274Z" transform="translate(-2595.978 -1242.087)" fill="#315ec5"/>
    <path id="Path_793" data-name="Path 793" d="M3467.027,1559.707c-.08-3.582,2.995-6.285,5.288-8.657,1.444-1.493,2.9-2.972,4.319-4.488,1.376-1.476,3.042-2.979,3.62-4.963.22-.737-.548-1.638-1.327-1.327-2.078.791-3.51,2.646-4.986,4.247-1.6,1.75-3.17,3.531-4.743,5.3-2.415,2.724-4.864,6.03-4.392,9.885.168,1.376,2.255,1.469,2.22,0Z" transform="translate(-2654.086 -1179.84)" fill="#315ec5"/>
    <path id="Path_794" data-name="Path 794" d="M3360.185,1806.982c1.381-31.165,1.844-62.368,1.872-93.564l.016-13.1c0-4.422.248-8.87-1-13.159a2,2,0,0,0-3.826,0c-1.123,3.854-1.008,7.777-1,11.755l.014,11.7q.014,11.7.11,23.4c.115,15.6.449,31.186.774,46.781.182,8.741.615,17.464,1,26.205a1.017,1.017,0,0,0,2.033,0Z" transform="translate(-2570.964 -1291.321)" fill="#315ec5"/>
    <path id="Path_795" data-name="Path 795" d="M3404.968,2075.932c0-6.83.122-13.68.487-20.5.18-3.341.468-6.671.8-10,.171-1.664.351-3.325.557-4.981a23.842,23.842,0,0,0,.138-2.712,6.692,6.692,0,0,0-.166-2.574c-.285-.735-1.374-1.3-1.989-.524a10.754,10.754,0,0,0-1.579,4.654c-.3,1.724-.451,3.489-.641,5.227-.377,3.472-.615,6.961-.779,10.449a130.889,130.889,0,0,0,.639,20.957c.178,1.582,2.536,1.675,2.539,0Z" transform="translate(-2605.735 -1558.304)" fill="#315ec5"/>
    <path id="Path_796" data-name="Path 796" d="M3512.684,2081.224a99.361,99.361,0,0,1,3.4-18.938,84.5,84.5,0,0,1,3.089-9.144q.842-2.092,1.787-4.141a23.352,23.352,0,0,0,1.954-4.7,1.694,1.694,0,0,0-2.808-1.638,15.274,15.274,0,0,0-2.623,4.3c-.739,1.561-1.423,3.119-2.054,4.712a85.069,85.069,0,0,0-3.161,9.556,74.915,74.915,0,0,0-2.41,19.991,1.414,1.414,0,0,0,2.826,0Z" transform="translate(-2688.643 -1564.348)" fill="#315ec5"/>
    <path id="Path_797" data-name="Path 797" d="M3267.613,2035.388a96.413,96.413,0,0,0-2.611-22.054,93.924,93.924,0,0,0-7.927-20.885,48.446,48.446,0,0,0-6.834-10.569c-1.38-1.5-3.51.4-2.693,2.078,1.584,3.205,3.589,6.179,5.283,9.331a105.581,105.581,0,0,1,4.56,9.567,121.265,121.265,0,0,1,6.24,20.5,88.378,88.378,0,0,1,1.855,12.036C3265.591,2036.736,3267.631,2036.776,3267.613,2035.388Z" transform="translate(-2487.565 -1517.755)" fill="#315ec5"/>
    <path id="Path_798" data-name="Path 798" d="M3521.728,1830.69a26.72,26.72,0,0,1,8.526-2.941,5.91,5.91,0,0,0,2.78-.849.9.9,0,0,0,0-1.535c-1.872-.936-4.417.058-6.264.681a28.531,28.531,0,0,0-6.067,2.89A1.017,1.017,0,0,0,3521.728,1830.69Z" transform="translate(-2696.578 -1397.982)" fill="#315ec5"/>
    <path id="Path_799" data-name="Path 799" d="M3507.489,1572.463a7.221,7.221,0,0,0,2.847-.089.77.77,0,0,0,0-1.469,7.223,7.223,0,0,0-2.847-.091.819.819,0,0,0,0,1.638Z" transform="translate(-2686.216 -1203.207)" fill="#315ec5"/>
    <path id="Path_800" data-name="Path 800" d="M3474.509,1524.379a13.385,13.385,0,0,0,1.54-2.492c.438-.936.994-1.872.494-2.887a1.1,1.1,0,0,0-1.476-.388c-.812.367-1.03,1.453-1.434,2.185a17.583,17.583,0,0,1-1.453,2.22,1.359,1.359,0,0,0,.484,1.846A1.38,1.38,0,0,0,3474.509,1524.379Z" transform="translate(-2659.625 -1163.2)" fill="#315ec5"/>
    <path id="Path_801" data-name="Path 801" d="M3397.45,1656.136a3.744,3.744,0,0,0-2.412-1.816,3.166,3.166,0,0,0-3.007.863,1.062,1.062,0,0,0-.276,1.036,1.022,1.022,0,0,0,.887.765,1.854,1.854,0,0,0,.772-.147c-.36.091.585-.033.58-.033a1.8,1.8,0,0,1,1.71.679C3396.5,1658.5,3398.044,1657.2,3397.45,1656.136Z" transform="translate(-2598.142 -1267.184)" fill="#315ec5"/>
    <path id="Path_802" data-name="Path 802" d="M3361.552,1820.2a134.161,134.161,0,0,1,5.922-13.442q1.638-3.215,3.465-6.317c.613-1.037,1.24-2.059,1.809-3.121s1.292-2.021,1.055-3.276a1.159,1.159,0,0,0-1.4-.8c-1.2.292-1.8,1.493-2.461,2.436a34.452,34.452,0,0,0-1.872,3.079q-1.872,3.341-3.51,6.785a103.939,103.939,0,0,0-5.428,13.989c-.482,1.565,1.86,2.15,2.419.664Z" transform="translate(-2573.128 -1373.65)" fill="#315ec5"/>
    <path id="Path_803" data-name="Path 803" d="M3314.235,1740.538a18.929,18.929,0,0,0-3.46-4.888,57.211,57.211,0,0,0-4.162-4.326c-1.453-1.373-2.958-2.7-4.518-3.945-1.235-.99-3.861-2.7-4.914-.536a1.17,1.17,0,0,0,.178,1.366,14.208,14.208,0,0,0,1.935,1.13c.721.517,1.4,1.1,2.087,1.671q1.991,1.657,3.863,3.444c1.247,1.189,2.466,2.415,3.662,3.655a27.335,27.335,0,0,0,3.727,3.666c.742.52,1.965-.36,1.607-1.238Z" transform="translate(-2525.615 -1322.004)" fill="#315ec5"/>
    <path id="Path_804" data-name="Path 804" d="M3373.343,1911.16a13.107,13.107,0,0,1,1.067-3.978c.5-1.146,1.53-2.164,1.289-3.458a1,1,0,0,0-.964-.735c-1.584.176-2.34,2.005-2.9,3.336a13.669,13.669,0,0,0-.969,4.841c-.054,1.614,2.34,1.561,2.475,0Z" transform="translate(-2582.17 -1457.739)" fill="#315ec5"/>
    <path id="Path_805" data-name="Path 805" d="M2554.733,441.775l.849-1.273a5.705,5.705,0,0,0,.562-2.857q-.14-.716-.278-1.432a5.674,5.674,0,0,0-1.638-2.487,5.866,5.866,0,0,0-8.049.515l-.847,1.273a5.7,5.7,0,0,0-.562,2.859c.091.468.185.955.276,1.432a5.672,5.672,0,0,0,1.638,2.485,5.849,5.849,0,0,0,8.049-.515Z" transform="translate(-1949.35 -331.205)" fill="#fff"/>
    <path id="Path_806" data-name="Path 806" d="M3558.678,1438.723q.421-.639.847-1.273a5.7,5.7,0,0,0,.562-2.859c-.094-.468-.185-.955-.278-1.432a5.676,5.676,0,0,0-1.638-2.485,4.322,4.322,0,0,0-1.975-1.083,5.868,5.868,0,0,0-6.083,1.6l-.849,1.273a5.689,5.689,0,0,0-.562,2.857c.094.468.185.955.278,1.432a5.674,5.674,0,0,0,1.638,2.487,5.866,5.866,0,0,0,8.049-.515Z" transform="translate(-2718.387 -1094.891)" fill="#fff"/>
    <path id="Path_807" data-name="Path 807" d="M2478.224,2059.795l.849-1.273a5.7,5.7,0,0,0,.562-2.859c-.094-.468-.185-.955-.278-1.432a5.67,5.67,0,0,0-1.638-2.485,5.866,5.866,0,0,0-8.049.515l-.847,1.273a5.686,5.686,0,0,0-.562,2.857q.138.716.278,1.432a5.669,5.669,0,0,0,1.638,2.487,5.866,5.866,0,0,0,8.049-.515Z" transform="translate(-1890.742 -1570.65)" fill="#fff"/>
    <path id="Path_808" data-name="Path 808" d="M2235.078,1926.138l1.32-1.977a8.872,8.872,0,0,0,.87-4.446c-.143-.742-.288-1.481-.43-2.223a8.807,8.807,0,0,0-2.56-3.863,9.1,9.1,0,0,0-12.508.81l-1.32,1.977a8.875,8.875,0,0,0-.87,4.445l.43,2.223a8.822,8.822,0,0,0,2.557,3.863,9.1,9.1,0,0,0,12.5-.8Z" transform="translate(-1700.24 -1464.273)" fill="none" stroke="#fff" stroke-miterlimit="10" stroke-width="7.51"/>
    <path id="Path_809" data-name="Path 809" d="M3440.552,1163.945q.655-.99,1.317-1.977a8.819,8.819,0,0,0,.871-4.446q-.215-1.109-.431-2.223a8.8,8.8,0,0,0-2.557-3.863,9.1,9.1,0,0,0-12.5.8l-1.317,1.977a8.852,8.852,0,0,0-.873,4.446l.433,2.225a8.807,8.807,0,0,0,2.557,3.86A9.106,9.106,0,0,0,3440.552,1163.945Z" transform="translate(-2623.668 -880.412)" fill="none" stroke="#fff" stroke-miterlimit="10" stroke-width="7.51"/>
    <path id="Path_810" data-name="Path 810" d="M1124.9,1399.445l1.32-1.977a8.853,8.853,0,0,0,.87-4.446c-.143-.742-.288-1.483-.431-2.225a8.827,8.827,0,0,0-2.557-3.861,9.1,9.1,0,0,0-12.5.8q-.66.985-1.317,1.977a8.845,8.845,0,0,0-.873,4.446l.431,2.225a8.833,8.833,0,0,0,2.56,3.861,8.55,8.55,0,0,0,9.675,1.259A6.661,6.661,0,0,0,1124.9,1399.445Z" transform="translate(-849.821 -1060.812)" fill="#fff"/>
    <path id="Path_811" data-name="Path 811" d="M3514.959,983.978l1.317-1.977a8.852,8.852,0,0,0,.873-4.446c-.145-.742-.288-1.481-.431-2.223a8.822,8.822,0,0,0-2.56-3.863,9.106,9.106,0,0,0-12.5.8q-.656.99-1.317,1.977a8.851,8.851,0,0,0-.87,4.446l.43,2.223a8.822,8.822,0,0,0,2.557,3.863,9.1,9.1,0,0,0,12.5-.8Z" transform="translate(-2680.667 -742.554)" fill="#fff"/>
  </g>
</svg>
