<svg xmlns="http://www.w3.org/2000/svg" xmlns:xlink="http://www.w3.org/1999/xlink" width="579.263" height="481.539" viewBox="0 0 579.263 481.539">
  <defs>
    <clipPath id="clip-path">
      <path id="Path_770" data-name="Path 770" d="M3249.924,2109.7a85.349,85.349,0,0,1-3.826-17.608v-8.371h-28.854v6.788a85.349,85.349,0,0,1-4.318,20.189,51.15,51.15,0,0,1-6.5,12.773,22.336,22.336,0,0,0-4.087,12.889v63.736a5.724,5.724,0,0,0,5.706,5.708h47.247a5.724,5.724,0,0,0,5.708-5.708v-63.736a22.338,22.338,0,0,0-3.935-12.67A55.928,55.928,0,0,1,3249.924,2109.7Z" transform="translate(-3202.34 -2083.72)" fill="none"/>
    </clipPath>
    <clipPath id="clip-path-2">
      <path id="Path_799" data-name="Path 799" d="M2328.636,1684.937s9.029,2.378-12.841,3.812-56.125,2.378-76.1,12.365-24.733,27.113-25.682,43.76,11.892,72.772,11.892,72.772l5.706,21.88s35.2-40.9,61.358-21.4c-7.61-28.539-18.549-77.046-18.549-77.046s48.99,8.086,83.236.476,40.429-29.494,34.723-54.223S2328.636,1684.937,2328.636,1684.937Z" transform="translate(-2213.96 -1675.682)" fill="none"/>
    </clipPath>
    <clipPath id="clip-path-3">
      <path id="Path_811" data-name="Path 811" d="M2213.076,1404.15l-14.745,16.653s-42.807,2.38-53.748,4.282-17.44.158-23.148,3.487-17.44,14.9-15.538,14.9,7.927-2.853,7.927-2.853-6.182,5.706-3.812,5.706,8.4-2.219,8.4-2.219-4.757,4.282-1.9,4.282,8.72-3.648,8.72-3.648-3.965,5.55-1.585,5.074,10.463-5.708,10.463-5.708,9.512,0,14.745-.951,57.552,9.512,67.54,4.282,25.21-22.831,25.21-22.831Z" transform="translate(-2105.692 -1404.15)" fill="none"/>
    </clipPath>
    <clipPath id="clip-path-4">
      <path id="Path_815" data-name="Path 815" d="M2716.624,1343.7s-6.184,4.755-29.966,6.184-46.613-7.618-46.613-7.618l-.476-38.523-15.187-12.5-14.3-11.762s12.368-19.5,18.551-23.307a108.993,108.993,0,0,1,14.739-7.131,73.57,73.57,0,0,0,6.659-3.331c3.331-1.9,17.837-2.139,17.837-2.139s27.35-2.141,33.058,10.233S2716.624,1343.7,2716.624,1343.7Z" transform="translate(-2610.08 -1243.435)" fill="none"/>
    </clipPath>
    <clipPath id="clip-path-5">
      <path id="Path_819" data-name="Path 819" d="M2750.094,921.728s-6.9-6.184-19.025-5.945-17.837,4.994-21.641,11.414-5.708,19.5-5.708,19.5l5.469.712,30.917,7.849,4.9,11.254s-4.414,22.755-5.618,36.071-3.567,40.429,15.7,58.988c9.274,0,11.176-.714,11.176-.714l-6.9-16.172,9.029,15.935,10.7-1.19-2.853-13.555,5.706,12.129,13.319-5.233s-29.966-44.235-26.4-72.3S2771.34,924.028,2750.094,921.728Z" transform="translate(-2703.72 -915.776)" fill="none"/>
    </clipPath>
    <clipPath id="clip-path-6">
      <path id="Path_823" data-name="Path 823" d="M2758.8,1066.387a10.132,10.132,0,0,1-3.343,1.218l-2.283,15.144-8.114.5-4.729.289.263-6.822a17.389,17.389,0,0,1-4.938.718c-10.421,0-18.86-9.229-18.86-20.61a22.131,22.131,0,0,1,1.627-8.367l5.032.437,2.853-6.659-.156,7.3,13.156.951.8-6.659.951,7.135,9.831,1.693c4.32-2.492,9.6-1.441,11.786,2.35S2763.128,1063.889,2758.8,1066.387Z" transform="translate(-2716.8 -1042.24)" fill="none"/>
    </clipPath>
  </defs>
  <g id="_07" data-name="07" transform="translate(-179.869 -72.23)">
    <path id="Path_727" data-name="Path 727" d="M1386.007,535.912a101.486,101.486,0,0,1-22.327-48.645L1361,471.015a101.5,101.5,0,0,0-59.6-76.533l-59.747-26.037a101.492,101.492,0,0,0-85.874,2.241L952.636,472.11a101.49,101.49,0,0,0-53.22,115.032l20.652,84.008a101.488,101.488,0,0,0,101.179,77.229l93.932-2.428a101.439,101.439,0,0,1,11.156.325l172.77,14.581a101.494,101.494,0,0,0,91.065-42.06l22.889-31.98a101.49,101.49,0,0,0-4.717-124.231Z" transform="translate(-716.602 -287.767)" fill="#f4e2c9"/>
    <path id="Path_728" data-name="Path 728" d="M1305.772,1540.59a4.97,4.97,0,1,0,4.968,4.969,4.97,4.97,0,0,0-4.968-4.969Z" transform="translate(-1039.806 -1231.484)" fill="#fff"/>
    <path id="Path_729" data-name="Path 729" d="M1377.46,1540.59a4.97,4.97,0,1,0,4.97,4.968A4.97,4.97,0,0,0,1377.46,1540.59Z" transform="translate(-1097.112 -1231.484)" fill="#fff"/>
    <path id="Path_730" data-name="Path 730" d="M1449.192,1540.59a4.97,4.97,0,1,0,4.968,4.969A4.97,4.97,0,0,0,1449.192,1540.59Z" transform="translate(-1154.45 -1231.484)" fill="#fff"/>
    <path id="Path_731" data-name="Path 731" d="M1520.822,1540.59a4.97,4.97,0,1,0,4.968,4.969,4.97,4.97,0,0,0-4.968-4.969Z" transform="translate(-1211.708 -1231.484)" fill="#fff"/>
    <path id="Path_732" data-name="Path 732" d="M1592.5,1540.59a4.97,4.97,0,1,0,4.968,4.969,4.97,4.97,0,0,0-4.968-4.969Z" transform="translate(-1269.006 -1231.484)" fill="#fff"/>
    <path id="Path_733" data-name="Path 733" d="M1664.2,1540.59a4.97,4.97,0,1,0,4.97,4.968A4.97,4.97,0,0,0,1664.2,1540.59Z" transform="translate(-1326.32 -1231.484)" fill="#fff"/>
    <path id="Path_734" data-name="Path 734" d="M1735.872,1540.59a4.97,4.97,0,1,0,4.968,4.969A4.97,4.97,0,0,0,1735.872,1540.59Z" transform="translate(-1383.611 -1231.484)" fill="#fff"/>
    <path id="Path_735" data-name="Path 735" d="M1305.772,1608.36a4.97,4.97,0,1,0,4.968,4.969A4.97,4.97,0,0,0,1305.772,1608.36Z" transform="translate(-1039.806 -1285.657)" fill="#fff"/>
    <path id="Path_736" data-name="Path 736" d="M1377.46,1608.36a4.97,4.97,0,1,0,4.97,4.97A4.97,4.97,0,0,0,1377.46,1608.36Z" transform="translate(-1097.112 -1285.657)" fill="#fff"/>
    <path id="Path_737" data-name="Path 737" d="M1449.192,1608.36a4.97,4.97,0,1,0,4.968,4.969,4.97,4.97,0,0,0-4.968-4.969Z" transform="translate(-1154.45 -1285.657)" fill="#fff"/>
    <path id="Path_738" data-name="Path 738" d="M1520.822,1608.36a4.97,4.97,0,1,0,4.968,4.969A4.97,4.97,0,0,0,1520.822,1608.36Z" transform="translate(-1211.708 -1285.657)" fill="#fff"/>
    <path id="Path_739" data-name="Path 739" d="M1592.5,1608.36a4.97,4.97,0,1,0,4.968,4.969A4.97,4.97,0,0,0,1592.5,1608.36Z" transform="translate(-1269.006 -1285.657)" fill="#fff"/>
    <path id="Path_740" data-name="Path 740" d="M1664.2,1608.36a4.97,4.97,0,1,0,4.97,4.97A4.97,4.97,0,0,0,1664.2,1608.36Z" transform="translate(-1326.32 -1285.657)" fill="#fff"/>
    <path id="Path_741" data-name="Path 741" d="M1735.872,1608.36a4.97,4.97,0,1,0,4.968,4.969,4.97,4.97,0,0,0-4.968-4.969Z" transform="translate(-1383.611 -1285.657)" fill="#fff"/>
    <circle id="Ellipse_187" data-name="Ellipse 187" cx="4.968" cy="4.968" r="4.968" transform="translate(259.475 343.958) rotate(-67.5)" fill="#fff"/>
    <circle id="Ellipse_188" data-name="Ellipse 188" cx="4.968" cy="4.968" r="4.968" transform="translate(273.857 343.959) rotate(-67.5)" fill="#fff"/>
    <circle id="Ellipse_189" data-name="Ellipse 189" cx="4.968" cy="4.968" r="4.968" transform="translate(289.045 337.146) rotate(-9.22)" fill="#fff"/>
    <circle id="Ellipse_190" data-name="Ellipse 190" cx="4.968" cy="4.968" r="4.968" transform="translate(304.146 336.302)" fill="#fff"/>
    <circle id="Ellipse_191" data-name="Ellipse 191" cx="4.968" cy="4.968" r="4.968" transform="translate(317.004 343.959) rotate(-67.5)" fill="#fff"/>
    <circle id="Ellipse_192" data-name="Ellipse 192" cx="4.968" cy="4.968" r="4.968" transform="translate(332.191 337.144) rotate(-9.22)" fill="#fff"/>
    <circle id="Ellipse_193" data-name="Ellipse 193" cx="4.968" cy="4.968" r="4.968" transform="translate(347.294 336.302)" fill="#fff"/>
    <path id="Path_742" data-name="Path 742" d="M1305.772,1743.91a4.97,4.97,0,1,0,4.968,4.969,4.97,4.97,0,0,0-4.968-4.969Z" transform="translate(-1039.806 -1394.01)" fill="#fff"/>
    <path id="Path_743" data-name="Path 743" d="M1377.46,1743.91a4.97,4.97,0,1,0,4.97,4.968A4.97,4.97,0,0,0,1377.46,1743.91Z" transform="translate(-1097.112 -1394.01)" fill="#fff"/>
    <path id="Path_744" data-name="Path 744" d="M1449.192,1743.91a4.97,4.97,0,1,0,4.968,4.969A4.97,4.97,0,0,0,1449.192,1743.91Z" transform="translate(-1154.45 -1394.01)" fill="#fff"/>
    <path id="Path_745" data-name="Path 745" d="M1520.822,1743.91a4.97,4.97,0,1,0,4.968,4.969,4.97,4.97,0,0,0-4.968-4.969Z" transform="translate(-1211.708 -1394.01)" fill="#fff"/>
    <path id="Path_746" data-name="Path 746" d="M1592.5,1743.91a4.97,4.97,0,1,0,4.968,4.969,4.97,4.97,0,0,0-4.968-4.969Z" transform="translate(-1269.006 -1394.01)" fill="#fff"/>
    <path id="Path_747" data-name="Path 747" d="M1664.2,1743.91a4.97,4.97,0,1,0,4.97,4.968A4.97,4.97,0,0,0,1664.2,1743.91Z" transform="translate(-1326.32 -1394.01)" fill="#fff"/>
    <path id="Path_748" data-name="Path 748" d="M1735.872,1743.91a4.97,4.97,0,1,0,4.968,4.969A4.97,4.97,0,0,0,1735.872,1743.91Z" transform="translate(-1383.611 -1394.01)" fill="#fff"/>
    <path id="Path_749" data-name="Path 749" d="M1305.772,1811.68a4.97,4.97,0,1,0,4.968,4.969,4.97,4.97,0,0,0-4.968-4.969Z" transform="translate(-1039.806 -1448.183)" fill="#fff"/>
    <path id="Path_750" data-name="Path 750" d="M1377.46,1811.68a4.97,4.97,0,1,0,4.97,4.968A4.97,4.97,0,0,0,1377.46,1811.68Z" transform="translate(-1097.112 -1448.183)" fill="#fff"/>
    <path id="Path_751" data-name="Path 751" d="M1449.192,1811.68a4.97,4.97,0,1,0,4.968,4.969A4.97,4.97,0,0,0,1449.192,1811.68Z" transform="translate(-1154.45 -1448.183)" fill="#fff"/>
    <path id="Path_752" data-name="Path 752" d="M1520.822,1811.68a4.97,4.97,0,1,0,4.968,4.969,4.97,4.97,0,0,0-4.968-4.969Z" transform="translate(-1211.708 -1448.183)" fill="#fff"/>
    <path id="Path_753" data-name="Path 753" d="M1592.5,1811.68a4.97,4.97,0,1,0,4.968,4.969,4.97,4.97,0,0,0-4.968-4.969Z" transform="translate(-1269.006 -1448.183)" fill="#fff"/>
    <path id="Path_754" data-name="Path 754" d="M1664.2,1811.68a4.97,4.97,0,1,0,4.97,4.968A4.97,4.97,0,0,0,1664.2,1811.68Z" transform="translate(-1326.32 -1448.183)" fill="#fff"/>
    <path id="Path_755" data-name="Path 755" d="M1735.872,1811.68a4.97,4.97,0,1,0,4.968,4.969A4.97,4.97,0,0,0,1735.872,1811.68Z" transform="translate(-1383.611 -1448.183)" fill="#fff"/>
    <circle id="Ellipse_194" data-name="Ellipse 194" cx="4.968" cy="4.968" r="4.968" transform="translate(259.476 384.751) rotate(-67.5)" fill="#fff"/>
    <circle id="Ellipse_195" data-name="Ellipse 195" cx="4.968" cy="4.968" r="4.968" transform="translate(273.858 384.753) rotate(-67.5)" fill="#fff"/>
    <circle id="Ellipse_196" data-name="Ellipse 196" cx="4.968" cy="4.968" r="4.968" transform="translate(289.049 377.94) rotate(-9.22)" fill="#fff"/>
    <circle id="Ellipse_197" data-name="Ellipse 197" cx="4.968" cy="4.968" r="4.968" transform="translate(304.146 377.097)" fill="#fff"/>
    <circle id="Ellipse_198" data-name="Ellipse 198" cx="4.968" cy="4.968" r="4.968" transform="translate(317.005 384.752) rotate(-67.5)" fill="#fff"/>
    <circle id="Ellipse_199" data-name="Ellipse 199" cx="4.968" cy="4.968" r="4.968" transform="translate(332.193 377.937) rotate(-9.22)" fill="#fff"/>
    <circle id="Ellipse_200" data-name="Ellipse 200" cx="4.968" cy="4.968" r="4.968" transform="translate(347.294 377.097)" fill="#fff"/>
    <circle id="Ellipse_201" data-name="Ellipse 201" cx="4.968" cy="4.968" r="4.968" transform="translate(259.474 398.35) rotate(-67.5)" fill="#fff"/>
    <circle id="Ellipse_202" data-name="Ellipse 202" cx="4.968" cy="4.968" r="4.968" transform="translate(273.856 398.351) rotate(-67.5)" fill="#fff"/>
    <circle id="Ellipse_203" data-name="Ellipse 203" cx="4.968" cy="4.968" r="4.968" transform="translate(289.049 391.537) rotate(-9.22)" fill="#fff"/>
    <circle id="Ellipse_204" data-name="Ellipse 204" cx="4.968" cy="4.968" r="4.968" transform="translate(304.146 390.694)" fill="#fff"/>
    <circle id="Ellipse_205" data-name="Ellipse 205" cx="4.968" cy="4.968" r="4.968" transform="translate(317.005 398.349) rotate(-67.5)" fill="#fff"/>
    <circle id="Ellipse_206" data-name="Ellipse 206" cx="4.968" cy="4.968" r="4.968" transform="translate(332.195 391.536) rotate(-9.22)" fill="#fff"/>
    <circle id="Ellipse_207" data-name="Ellipse 207" cx="4.968" cy="4.968" r="4.968" transform="translate(347.294 390.694)" fill="#fff"/>
    <circle id="Ellipse_208" data-name="Ellipse 208" cx="7.024" cy="7.024" r="7.024" transform="matrix(0.999, -0.045, 0.045, 0.999, 555.942, 157.397)" fill="#fff"/>
    <circle id="Ellipse_209" data-name="Ellipse 209" cx="7.024" cy="7.024" r="7.024" transform="translate(576.58 157.098)" fill="#fff"/>
    <circle id="Ellipse_210" data-name="Ellipse 210" cx="7.024" cy="7.024" r="7.024" transform="translate(596.913 157.098)" fill="#fff"/>
    <circle id="Ellipse_211" data-name="Ellipse 211" cx="7.024" cy="7.024" r="7.024" transform="matrix(0.999, -0.045, 0.045, 0.999, 616.941, 157.395)" fill="#fff"/>
    <circle id="Ellipse_212" data-name="Ellipse 212" cx="7.024" cy="7.024" r="7.024" transform="translate(637.579 157.098)" fill="#fff"/>
    <circle id="Ellipse_213" data-name="Ellipse 213" cx="7.024" cy="7.024" r="7.024" transform="translate(657.912 157.098)" fill="#fff"/>
    <circle id="Ellipse_214" data-name="Ellipse 214" cx="7.024" cy="7.024" r="7.024" transform="matrix(0.999, -0.045, 0.045, 0.999, 677.937, 157.391)" fill="#fff"/>
    <circle id="Ellipse_215" data-name="Ellipse 215" cx="7.024" cy="7.024" r="7.024" transform="translate(554.094 187.147) rotate(-67.5)" fill="#fff"/>
    <circle id="Ellipse_216" data-name="Ellipse 216" cx="7.024" cy="7.024" r="7.024" transform="translate(576.58 176.321)" fill="#fff"/>
    <circle id="Ellipse_217" data-name="Ellipse 217" cx="7.024" cy="7.024" r="7.024" transform="translate(596.913 176.321)" fill="#fff"/>
    <circle id="Ellipse_218" data-name="Ellipse 218" cx="7.024" cy="7.024" r="7.024" transform="translate(615.091 187.146) rotate(-67.5)" fill="#fff"/>
    <circle id="Ellipse_219" data-name="Ellipse 219" cx="7.024" cy="7.024" r="7.024" transform="translate(637.579 176.321)" fill="#fff"/>
    <circle id="Ellipse_220" data-name="Ellipse 220" cx="7.024" cy="7.024" r="7.024" transform="translate(657.912 176.321)" fill="#fff"/>
    <circle id="Ellipse_221" data-name="Ellipse 221" cx="7.024" cy="7.024" r="7.024" transform="translate(676.088 187.146) rotate(-67.5)" fill="#fff"/>
    <circle id="Ellipse_222" data-name="Ellipse 222" cx="7.024" cy="7.024" r="7.024" transform="translate(554.094 206.37) rotate(-67.5)" fill="#fff"/>
    <circle id="Ellipse_223" data-name="Ellipse 223" cx="7.024" cy="7.024" r="7.024" transform="translate(576.58 195.545)" fill="#fff"/>
    <circle id="Ellipse_224" data-name="Ellipse 224" cx="7.024" cy="7.024" r="7.024" transform="translate(596.913 195.545)" fill="#fff"/>
    <circle id="Ellipse_225" data-name="Ellipse 225" cx="7.024" cy="7.024" r="7.024" transform="translate(615.091 206.37) rotate(-67.5)" fill="#fff"/>
    <circle id="Ellipse_226" data-name="Ellipse 226" cx="7.024" cy="7.024" r="7.024" transform="translate(637.579 195.545)" fill="#fff"/>
    <circle id="Ellipse_227" data-name="Ellipse 227" cx="7.024" cy="7.024" r="7.024" transform="translate(657.912 195.545)" fill="#fff"/>
    <circle id="Ellipse_228" data-name="Ellipse 228" cx="7.024" cy="7.024" r="7.024" transform="translate(676.087 206.37) rotate(-67.5)" fill="#fff"/>
    <circle id="Ellipse_229" data-name="Ellipse 229" cx="7.024" cy="7.024" r="7.024" transform="matrix(0.999, -0.045, 0.045, 0.999, 555.944, 215.068)" fill="#fff"/>
    <circle id="Ellipse_230" data-name="Ellipse 230" cx="7.024" cy="7.024" r="7.024" transform="translate(576.58 214.768)" fill="#fff"/>
    <circle id="Ellipse_231" data-name="Ellipse 231" cx="7.024" cy="7.024" r="7.024" transform="translate(596.913 214.768)" fill="#fff"/>
    <circle id="Ellipse_232" data-name="Ellipse 232" cx="7.024" cy="7.024" r="7.024" transform="matrix(0.999, -0.045, 0.045, 0.999, 616.944, 215.064)" fill="#fff"/>
    <circle id="Ellipse_233" data-name="Ellipse 233" cx="7.024" cy="7.024" r="7.024" transform="translate(637.579 214.768)" fill="#fff"/>
    <circle id="Ellipse_234" data-name="Ellipse 234" cx="7.024" cy="7.024" r="7.024" transform="translate(657.912 214.768)" fill="#fff"/>
    <circle id="Ellipse_235" data-name="Ellipse 235" cx="7.024" cy="7.024" r="7.024" transform="matrix(0.999, -0.045, 0.045, 0.999, 677.94, 215.062)" fill="#fff"/>
    <circle id="Ellipse_236" data-name="Ellipse 236" cx="7.024" cy="7.024" r="7.024" transform="translate(554.092 244.818) rotate(-67.5)" fill="#fff"/>
    <circle id="Ellipse_237" data-name="Ellipse 237" cx="7.024" cy="7.024" r="7.024" transform="translate(576.58 233.992)" fill="#fff"/>
    <circle id="Ellipse_238" data-name="Ellipse 238" cx="7.024" cy="7.024" r="7.024" transform="translate(596.913 233.992)" fill="#fff"/>
    <circle id="Ellipse_239" data-name="Ellipse 239" cx="7.024" cy="7.024" r="7.024" transform="translate(615.092 244.817) rotate(-67.5)" fill="#fff"/>
    <circle id="Ellipse_240" data-name="Ellipse 240" cx="7.024" cy="7.024" r="7.024" transform="translate(637.579 233.992)" fill="#fff"/>
    <circle id="Ellipse_241" data-name="Ellipse 241" cx="7.024" cy="7.024" r="7.024" transform="translate(657.912 233.992)" fill="#fff"/>
    <circle id="Ellipse_242" data-name="Ellipse 242" cx="7.024" cy="7.024" r="7.024" transform="translate(676.088 244.817) rotate(-67.5)" fill="#fff"/>
    <circle id="Ellipse_243" data-name="Ellipse 243" cx="7.024" cy="7.024" r="7.024" transform="translate(554.092 264.041) rotate(-67.5)" fill="#fff"/>
    <circle id="Ellipse_244" data-name="Ellipse 244" cx="7.024" cy="7.024" r="7.024" transform="translate(576.58 253.215)" fill="#fff"/>
    <circle id="Ellipse_245" data-name="Ellipse 245" cx="7.024" cy="7.024" r="7.024" transform="translate(596.913 253.215)" fill="#fff"/>
    <circle id="Ellipse_246" data-name="Ellipse 246" cx="7.024" cy="7.024" r="7.024" transform="translate(615.091 264.039) rotate(-67.5)" fill="#fff"/>
    <circle id="Ellipse_247" data-name="Ellipse 247" cx="7.024" cy="7.024" r="7.024" transform="translate(637.579 253.215)" fill="#fff"/>
    <circle id="Ellipse_248" data-name="Ellipse 248" cx="7.024" cy="7.024" r="7.024" transform="translate(657.912 253.215)" fill="#fff"/>
    <circle id="Ellipse_249" data-name="Ellipse 249" cx="7.024" cy="7.024" r="7.024" transform="translate(676.088 264.041) rotate(-67.5)" fill="#fff"/>
    <circle id="Ellipse_250" data-name="Ellipse 250" cx="7.024" cy="7.024" r="7.024" transform="translate(554.093 283.265) rotate(-67.5)" fill="#fff"/>
    <circle id="Ellipse_251" data-name="Ellipse 251" cx="7.024" cy="7.024" r="7.024" transform="translate(576.58 272.438)" fill="#fff"/>
    <circle id="Ellipse_252" data-name="Ellipse 252" cx="7.024" cy="7.024" r="7.024" transform="translate(596.913 272.438)" fill="#fff"/>
    <circle id="Ellipse_253" data-name="Ellipse 253" cx="7.024" cy="7.024" r="7.024" transform="translate(615.09 283.263) rotate(-67.5)" fill="#fff"/>
    <circle id="Ellipse_254" data-name="Ellipse 254" cx="7.024" cy="7.024" r="7.024" transform="translate(637.579 272.438)" fill="#fff"/>
    <circle id="Ellipse_255" data-name="Ellipse 255" cx="7.024" cy="7.024" r="7.024" transform="translate(657.912 272.438)" fill="#fff"/>
    <circle id="Ellipse_256" data-name="Ellipse 256" cx="7.024" cy="7.024" r="7.024" transform="translate(676.087 283.264) rotate(-67.5)" fill="#fff"/>
    <ellipse id="Ellipse_257" data-name="Ellipse 257" cx="167.425" cy="17.598" rx="167.425" ry="17.598" transform="translate(424.281 517.648)" fill="#f4e2c9"/>
    <ellipse id="Ellipse_258" data-name="Ellipse 258" cx="113.125" cy="11.89" rx="113.125" ry="11.89" transform="translate(190.342 520.503)" fill="#f4e2c9"/>
    <path id="Path_756" data-name="Path 756" d="M2391.1,1778.71H2373.02l5.622,39.753,21.015,148.6h9.512l-13.443-140.1Z" transform="translate(-1896.895 -1421.828)" fill="#e5745a"/>
    <g id="Group_297" data-name="Group 297" transform="translate(476.121 356.882)" opacity="0.5">
      <path id="Path_757" data-name="Path 757" d="M2373,1778.71l5.618,39.753c.4.11.785.225,1.17.347a58.353,58.353,0,0,1,15.915,8.152l-4.633-48.252Z" transform="translate(-2373 -1778.71)"/>
    </g>
    <path id="Path_758" data-name="Path 758" d="M1293.613,1826.962l-13.443,140.1h9.514l21.013-148.6,5.622-39.753h-18.074Z" transform="translate(-1023.315 -1421.828)" fill="#e5745a"/>
    <g id="Group_298" data-name="Group 298" transform="translate(270.298 356.882)" opacity="0.5">
      <path id="Path_759" data-name="Path 759" d="M1347.17,1826.962a58.436,58.436,0,0,1,15.915-8.152c.385-.122.775-.237,1.17-.347l5.618-39.753H1351.8Z" transform="translate(-1347.17 -1778.71)"/>
    </g>
    <rect id="Rectangle_246" data-name="Rectangle 246" width="253.991" height="33.294" transform="translate(258.759 336.904)" fill="#c45230"/>
    <rect id="Rectangle_247" data-name="Rectangle 247" width="117.483" height="21.404" transform="translate(266.369 343.088)" fill="#e5745a"/>
    <rect id="Rectangle_248" data-name="Rectangle 248" width="116.532" height="21.404" transform="translate(388.132 343.088)" fill="#e5745a"/>
    <path id="Path_760" data-name="Path 760" d="M1818.608,1750.26a2.608,2.608,0,1,0,2.608,2.608A2.608,2.608,0,0,0,1818.608,1750.26Z" transform="translate(-1451.636 -1399.086)" fill="#fff"/>
    <path id="Path_761" data-name="Path 761" d="M1994,1750.26a2.608,2.608,0,1,0,2.608,2.608A2.608,2.608,0,0,0,1994,1750.26Z" transform="translate(-1591.836 -1399.086)" fill="#fff"/>
    <g id="Group_299" data-name="Group 299" transform="translate(436.9 336.904)" opacity="0.3">
      <path id="Path_762" data-name="Path 762" d="M2201.739,1685.332a75.643,75.643,0,0,0-20.877,21.4q-1.79,2.775-3.343,5.706h75.842v-33.3H2212.7A73.64,73.64,0,0,0,2201.739,1685.332Z" transform="translate(-2177.52 -1679.14)"/>
    </g>
    <path id="Path_763" data-name="Path 763" d="M3340.872,1682.29c.02.558,1.806,55.965-5.682,76.268l.752.277c2.181-5.9,4.946-18.69,5.732-46.067.471-16.35,0-30.365,0-30.5Z" transform="translate(-2666.014 -1344.738)" fill="#fff"/>
    <circle id="Ellipse_259" data-name="Ellipse 259" cx="7.452" cy="7.452" r="7.452" transform="matrix(0.989, -0.151, 0.151, 0.989, 666.733, 328.166)" fill="#e53f58"/>
    <path id="Path_764" data-name="Path 764" d="M3327.058,1672.5c-4.123,1.268-20.612,70.393-20.612,70.393s-1.9-81.175-5.391-75.784.634,91,.634,91l11.1,9.2S3331.179,1671.217,3327.058,1672.5Z" transform="translate(-2637.607 -1332.41)" fill="#f4aa40"/>
    <path id="Path_765" data-name="Path 765" d="M3205.72,1745.421c-3.489,1.585,20.927,81.175,20.927,81.175l11.417-8.244S3209.208,1743.836,3205.72,1745.421Z" transform="translate(-2562.248 -1395.198)" fill="#fcc56b"/>
    <path id="Path_766" data-name="Path 766" d="M3385.4,1942.245a135.147,135.147,0,0,0-4.851,15.55l.782.179c.064-.275,6.471-27.634,19.556-41.031l-.574-.562C3393.387,1923.475,3388.381,1934.361,3385.4,1942.245Z" transform="translate(-2702.273 -1531.875)" fill="#fff"/>
    <circle id="Ellipse_260" data-name="Ellipse 260" cx="7.452" cy="7.452" r="7.452" transform="translate(695.157 374.005)" fill="#e53f58"/>
    <path id="Path_767" data-name="Path 767" d="M3249.924,2109.7a85.349,85.349,0,0,1-3.826-17.608v-8.371h-28.854v6.788a85.349,85.349,0,0,1-4.318,20.189,51.15,51.15,0,0,1-6.5,12.773,22.336,22.336,0,0,0-4.087,12.889v63.736a5.724,5.724,0,0,0,5.706,5.708h47.247a5.724,5.724,0,0,0,5.708-5.708v-63.736a22.338,22.338,0,0,0-3.935-12.67A55.928,55.928,0,0,1,3249.924,2109.7Z" transform="translate(-2559.819 -1665.64)" fill="#4c608e"/>
    <g id="Group_300" data-name="Group 300" transform="translate(642.521 418.08)" clip-path="url(#clip-path)">
      <path id="Path_768" data-name="Path 768" d="M3223,2047.342c-3.812-11.85-8.349-24.077-17.508-32.5l-15.03-3.658a100.535,100.535,0,0,0,1.262,44.877c2.482,9.551,6.4,19.482,3.668,28.967-2.608,9.093-10.68,15.345-17.979,21.37-13.932,11.5-27.024,25-33.348,41.934-2.982,7.978-4.2,17.456.391,24.621,4.94,7.717,14.978,10.347,24.129,10.771a81.485,81.485,0,0,0,53.184-16.854c6.938-5.383,13.1-12.081,16.44-20.2,5.2-12.64,3.028-26.984.281-40.371a558.244,558.244,0,0,0-15.49-58.952Z" transform="translate(-3153.636 -2025.734)" fill="#364b75"/>
      <path id="Path_769" data-name="Path 769" d="M3153.546,2031.91c-1.258,7.518.989,15.13,1.467,22.735,1.156,18.371-7.955,35.66-17,51.691,23.316-15.018,36.9-43.91,33.589-71.44Z" transform="translate(-3150.917 -2042.305)" fill="#7c94c4"/>
    </g>
    <g id="Group_301" data-name="Group 301" transform="translate(642.517 451.725)" opacity="0.3">
      <path id="Path_771" data-name="Path 771" d="M3202.657,2266.544l-.337,24.278a39.857,39.857,0,0,0,21.4-13.156c5.983-7.319,9.119-16.918,12.115-26.256-10.233,2.564-20.676,5.417-29.4,11.91A36.853,36.853,0,0,0,3202.657,2266.544Z" transform="translate(-3202.32 -2251.41)"/>
    </g>
    <path id="Path_772" data-name="Path 772" d="M3104.738,2017.537a96.662,96.662,0,0,0-7.187,8.585,42.718,42.718,0,0,0-4.161,6.838c-4.767,10.158-3.5,22.384-2.113,33.75a1.031,1.031,0,0,0,.333.779c.3.185.662-.084.923-.339,3.054-2.978,6.122-5.769,9.065-8.828a91.508,91.508,0,0,0,14.057-18.156c6.033-10.634,9.2-23.963,5.937-36.015A76.793,76.793,0,0,0,3104.738,2017.537Z" transform="translate(-2470.031 -1602.035)" fill="#f4aa40"/>
    <path id="Path_773" data-name="Path 773" d="M2908,2181.24c.06,7.7.229,15.521,2.207,22.9s6.019,14.384,12.125,17.971c3.309,1.944,7.022,2.795,10.544,4.213a17.444,17.444,0,0,1,8.79,7.057c1.112-10.5-3.582-21.8-8.614-30.369C2927.143,2192.951,2918.265,2185,2908,2181.24Z" transform="translate(-2324.536 -1743.594)" fill="#fcc56b"/>
    <path id="Path_774" data-name="Path 774" d="M3113.516,2271.288c-.335,1.421-2.677,7.374-1.186,8.3.6.373,10.153-3.728,11.681-4.1a39.846,39.846,0,0,0,21.432-13.166c5.985-7.319,9.121-16.92,12.115-26.256-10.233,2.562-20.676,5.417-29.4,11.91C3120.536,2253.644,3115.825,2261.529,3113.516,2271.288Z" transform="translate(-2487.476 -1787.414)" fill="#f4aa40"/>
    <path id="Path_775" data-name="Path 775" d="M3107.776,2338.842c-2.871,2.546-5.839,5.179-7.947,8.666-3.467,5.738-4.1,12.931-4.659,19.278l.8.07c.55-6.26,1.174-13.355,4.545-18.933,2.046-3.383,4.968-5.975,7.793-8.481l16.308-14.46-.531-.6Z" transform="translate(-2474.152 -1858.014)" fill="#fff"/>
    <path id="Path_776" data-name="Path 776" d="M3023.273,2342.363a91.2,91.2,0,0,0,.038-9.516c-.919-13.935-8.078-26.1-14.717-36.417l-.674.436c6.583,10.233,13.684,22.289,14.591,36.035a92.441,92.441,0,0,1-.038,9.43,62.219,62.219,0,0,0,.475,13.7l.789-.145A61.77,61.77,0,0,1,3023.273,2342.363Z" transform="translate(-2404.407 -1835.672)" fill="#fff"/>
    <path id="Path_777" data-name="Path 777" d="M3089.145,2197.453a146.944,146.944,0,0,0-1.226,20.146l-.369,25.08.8.012.369-25.08a146.669,146.669,0,0,1,1.216-20.036c1.948-12.658,7.167-24.32,12.211-35.6l-.732-.329C3096.35,2172.976,3091.109,2184.688,3089.145,2197.453Z" transform="translate(-2468.061 -1727.934)" fill="#fff"/>
    <path id="Path_778" data-name="Path 778" d="M3000.952,2569.381s33.248-.387,33.262-.586l2.207-33.605H2998.3S3000.947,2569.315,3000.952,2569.381Z" transform="translate(-2396.718 -2026.527)" fill="#c45230"/>
    <g id="Group_302" data-name="Group 302" transform="translate(601.588 508.663)" opacity="0.5">
      <path id="Path_779" data-name="Path 779" d="M2999.353,2546.611c.481-.2.961-.423,1.443-.628,7.123-3.046,14.308-5.909,21.559-8.4q2.973-1.2,5.955-2.394H2998.33Z" transform="translate(-2998.33 -2535.19)"/>
    </g>
    <path id="Path_780" data-name="Path 780" d="M2992.56,2504v9.216a5.743,5.743,0,0,0,.991.094h38l.917-9.4h-38.914A5.529,5.529,0,0,0,2992.56,2504Z" transform="translate(-2392.13 -2001.523)" fill="#c45230"/>
    <path id="Path_781" data-name="Path 781" d="M2539.94,2039.556l-1.312-.161a.484.484,0,0,0-.538.419l-16.964,137.941a.483.483,0,0,0,.419.538l1.312.163a.483.483,0,0,0,.538-.421l16.964-137.941A.484.484,0,0,0,2539.94,2039.556Z" transform="translate(-2015.282 -1630.207)" fill="#314366"/>
    <path id="Path_782" data-name="Path 782" d="M3007.19,2039.557l-1.312-.161a.486.486,0,0,0-.538.419l-16.964,137.941a.483.483,0,0,0,.419.538l1.312.163a.484.484,0,0,0,.538-.421l16.966-137.935a.485.485,0,0,0-.421-.544Z" transform="translate(-2388.782 -1630.207)" fill="#314366"/>
    <rect id="Rectangle_249" data-name="Rectangle 249" width="139.939" height="2.287" rx="1.144" transform="translate(507.231 498.609)" fill="#314366"/>
    <path id="Path_783" data-name="Path 783" d="M3138.805,2044.375a.484.484,0,0,0-.538-.419l-1.312.161a.484.484,0,0,0-.419.538l16.964,137.935a.484.484,0,0,0,.538.421l1.312-.163a.484.484,0,0,0,.419-.538Z" transform="translate(-2507.215 -1633.852)" fill="#314366"/>
    <path id="Path_784" data-name="Path 784" d="M2678.385,2044.375a.484.484,0,0,0-.538-.419l-1.312.161a.483.483,0,0,0-.419.538l16.964,137.935a.486.486,0,0,0,.538.421l1.312-.163a.484.484,0,0,0,.419-.538Z" transform="translate(-2139.174 -1633.852)" fill="#314366"/>
    <rect id="Rectangle_250" data-name="Rectangle 250" width="119.861" height="16.172" rx="8.086" transform="translate(517.505 398.738)" fill="#40557f"/>
    <path id="Path_785" data-name="Path 785" d="M1920.748,1513.2l-9.988,29.015h37.1l-1.427-27.588Z" transform="translate(-1527.383 -1209.59)" fill="#4c608e"/>
    <path id="Path_786" data-name="Path 786" d="M1581.248,1018.215l-2.378,4.757,24.733,97.981,140.314-.476,2.225-6.28-29.336-96.458S1579.821,1018.215,1581.248,1018.215Z" transform="translate(-1262.084 -813.539)" fill="#4c608e"/>
    <path id="Path_787" data-name="Path 787" d="M1581.248,1020.11l-2.378,4.757,24.733,97.981,140.314-.476,1.9-6.182-139.839.476Z" transform="translate(-1262.084 -815.434)" fill="#2f4268"/>
    <path id="Path_788" data-name="Path 788" d="M1635.77,1053.3l20.927,78.956h124.618l-22.831-78.956Z" transform="translate(-1307.568 -841.965)" fill="#98acd3"/>
    <rect id="Rectangle_251" data-name="Rectangle 251" width="65.638" height="5.708" transform="translate(371.485 331.196)" fill="#2f4268"/>
    <path id="Path_789" data-name="Path 789" d="M1890.256,2365.48c-5.57,11.12-11.112,21.218-13.281,22.151-4.994,2.139-31.392,7.133-24.257,12.841s57.072,4.282,62.779,2.141c3.355-1.256,12.115-16.286,18.78-28.491,4.685-8.575,8.333-15.748,8.333-15.748L1904.8,2334.83S1897.5,2351.02,1890.256,2365.48Z" transform="translate(-1480.016 -1866.367)" fill="#ffb38d"/>
    <path id="Path_790" data-name="Path 790" d="M1890.256,2487.59c-5.57,11.119-11.112,21.218-13.281,22.151-4.994,2.139-31.392,7.133-24.257,12.841s57.072,4.282,62.779,2.141c3.355-1.256,12.115-16.286,18.78-28.491C1916.592,2498.21,1900.443,2492.526,1890.256,2487.59Z" transform="translate(-1480.016 -1988.477)" fill="#c45230"/>
    <path id="Path_791" data-name="Path 791" d="M2006.826,2527.277a.6.6,0,0,0,.72.965c.141-.1,3.461-2.454,7.265,2.193a.6.6,0,1,0,.931-.762C2011.188,2524.109,2006.868,2527.245,2006.826,2527.277Z" transform="translate(-1603.981 -2019.474)" fill="#fff"/>
    <path id="Path_792" data-name="Path 792" d="M1992.692,2552.171a.6.6,0,0,0,.72.963c.138-.1,3.459-2.454,7.263,2.2a.6.6,0,0,0,.933-.763C1997.052,2549,1992.734,2552.137,1992.692,2552.171Z" transform="translate(-1592.7 -2039.373)" fill="#fff"/>
    <path id="Path_793" data-name="Path 793" d="M1978.393,2577.061a.6.6,0,0,0,.718.965c.14-.1,3.461-2.456,7.265,2.193a.6.6,0,1,0,.931-.762C1982.753,2573.891,1978.435,2577.027,1978.393,2577.061Z" transform="translate(-1581.254 -2059.269)" fill="#fff"/>
    <path id="Path_794" data-name="Path 794" d="M2099.521,1726.59l-11.33,2.474-34.783,50.694L2021.13,1826.8l40.991,27.331,14.647,9.769,49.129-85.154,12.917-22.387s64.231,7.662,78.5-13.742a71.218,71.218,0,0,0,11.41-44.229Z" transform="translate(-1615.608 -1357.623)" fill="#c62846"/>
    <g id="Group_303" data-name="Group 303" transform="translate(437.803 368.967)" opacity="0.3">
      <path id="Path_795" data-name="Path 795" d="M2216.8,1841.414l-34.779,50.694,8.71,74.376,14.655,9.769,49.129-85.154-26.384-52.159Z" transform="translate(-2182.02 -1838.94)"/>
    </g>
    <ellipse id="Ellipse_261" data-name="Ellipse 261" cx="32.636" cy="13.098" rx="32.636" ry="13.098" transform="matrix(0.942, -0.336, 0.336, 0.942, 457.321, 487.989)"/>
    <path id="Path_796" data-name="Path 796" d="M2328.636,1684.946s9.029,2.38-12.841,3.812-56.125,2.378-76.1,12.366-24.733,27.113-25.682,43.76,11.892,72.773,11.892,72.773l5.706,21.88s35.2-40.9,61.358-21.4c-7.61-28.539-18.549-77.046-18.549-77.046s48.99,8.086,83.236.475,40.429-29.494,34.723-54.221S2328.636,1684.946,2328.636,1684.946Z" transform="translate(-1769.749 -1339.48)" fill="#e53f58"/>
    <g id="Group_313" data-name="Group 313" transform="translate(444.211 336.21)" clip-path="url(#clip-path-2)">
      <g id="Group_304" data-name="Group 304" transform="translate(14.621 14.798)" opacity="0.5">
        <circle id="Ellipse_262" data-name="Ellipse 262" cx="11.414" cy="11.414" r="11.414" transform="translate(0 8.736) rotate(-22.5)" fill="#fff"/>
      </g>
      <g id="Group_305" data-name="Group 305" transform="translate(65.989 19.553)" opacity="0.5">
        <circle id="Ellipse_263" data-name="Ellipse 263" cx="11.414" cy="11.414" r="11.414" transform="translate(0 8.736) rotate(-22.5)" fill="#fff"/>
      </g>
      <g id="Group_306" data-name="Group 306" transform="translate(118.482 0.696)" opacity="0.5">
        <circle id="Ellipse_264" data-name="Ellipse 264" cx="11.414" cy="11.414" r="11.414" fill="#fff"/>
      </g>
      <g id="Group_307" data-name="Group 307" transform="translate(162.24 28.758)" opacity="0.5">
        <circle id="Ellipse_265" data-name="Ellipse 265" cx="11.414" cy="11.414" r="11.414" fill="#fff"/>
      </g>
      <g id="Group_308" data-name="Group 308" transform="translate(26.035 58.555)" opacity="0.5">
        <circle id="Ellipse_266" data-name="Ellipse 266" cx="11.414" cy="11.414" r="11.414" transform="translate(0 8.736) rotate(-22.5)" fill="#fff"/>
      </g>
      <g id="Group_309" data-name="Group 309" transform="translate(-10.178 86.982)" opacity="0.5">
        <circle id="Ellipse_267" data-name="Ellipse 267" cx="11.414" cy="11.414" r="11.414" transform="translate(0 3.658) rotate(-9.22)" fill="#fff"/>
      </g>
      <g id="Group_310" data-name="Group 310" transform="translate(23.355 134.824)" opacity="0.5">
        <circle id="Ellipse_268" data-name="Ellipse 268" cx="11.414" cy="11.414" r="11.414" fill="#fff"/>
      </g>
      <g id="Group_311" data-name="Group 311" transform="translate(102.138 50.944)" opacity="0.5">
        <circle id="Ellipse_269" data-name="Ellipse 269" cx="11.414" cy="11.414" r="11.414" transform="translate(0 8.736) rotate(-22.5)" fill="#fff"/>
      </g>
      <g id="Group_312" data-name="Group 312" transform="translate(49.031 33.037)" opacity="0.4">
        <path id="Path_797" data-name="Path 797" d="M3104.424,1840.34,3097,1852.78A56.244,56.244,0,0,0,3104.424,1840.34Z" transform="translate(-2968.856 -1840.34)"/>
        <path id="Path_798" data-name="Path 798" d="M2534.908,1924.615c-44.235-3.331-75.15-8.561-75.15-8.561l-1.428,110.822,54.223-.951,73.9-123.595C2578.125,1913.1,2562.081,1926.66,2534.908,1924.615Z" transform="translate(-2458.33 -1889.892)"/>
      </g>
    </g>
    <path id="Path_800" data-name="Path 800" d="M2335.166,2372.122c-2.43-8.01-4.376-14.992-4.376-14.992s-27.586,4.757-36.15,20.929c0,0,2.123,4.522,4.125,9.488,1.673,4.139,3.272,8.585,3.485,10.965.476,5.231-.475,28.537-8.561,29.964s-14.745,7.61-8.561,8.561,25.682,2.38,34.723-2.853,26.635-32.819,22.829-40.429C2340.748,2389.879,2337.692,2380.447,2335.166,2372.122Z" transform="translate(-1824.699 -1884.193)" fill="#ffb38d"/>
    <path id="Path_801" data-name="Path 801" d="M2340.386,2443.9c-1.645-4.529-3.519-10.433-5.17-15.883-16-4.057-28.291,5.447-36.4,15.425,1.673,4.139,3.272,8.585,3.485,10.965.475,5.231-.476,28.537-8.562,29.964s-14.745,7.61-8.561,8.561c1.152.177,2.765.371,4.685.534,8.395.718,22.684.871,30.038-3.387,9.029-5.233,26.635-32.819,22.829-40.429A60.082,60.082,0,0,1,2340.386,2443.9Z" transform="translate(-1824.739 -1940.09)" fill="#c45230"/>
    <path id="Path_802" data-name="Path 802" d="M2364.015,2534.553c-7.117,1.027-6.661,6.344-6.655,6.4a.6.6,0,0,0,.6.54h.058a.6.6,0,0,0,.542-.656c-.016-.173-.315-4.23,5.63-5.088a.6.6,0,1,0-.177-1.194Z" transform="translate(-1884.37 -2026.013)" fill="#fff"/>
    <path id="Path_803" data-name="Path 803" d="M2375.379,2564.7c-7.119,1.027-6.661,6.344-6.657,6.4a.6.6,0,0,0,.6.542h.062a.6.6,0,0,0,.538-.66c-.018-.17-.357-4.213,5.63-5.084a.6.6,0,0,0-.171-1.192Z" transform="translate(-1893.453 -2050.115)" fill="#fff"/>
    <g id="Group_314" data-name="Group 314" transform="translate(465.124 502.898)" opacity="0.5">
      <path id="Path_804" data-name="Path 804" d="M2368.713,2507.367a12.917,12.917,0,0,0-4.314-.909c-10.526-.437-19.839,45.224-46.21,50.475,8.395.718,22.685.871,30.038-3.387,9.029-5.233,26.635-32.819,22.829-40.429A59.949,59.949,0,0,1,2368.713,2507.367Z" transform="translate(-2318.19 -2506.455)"/>
    </g>
    <path id="Path_805" data-name="Path 805" d="M2198.331,1420.8s-42.807,2.38-53.748,4.282-17.44.159-23.148,3.487-17.44,14.9-15.538,14.9,7.927-2.853,7.927-2.853-6.182,5.706-3.812,5.706,8.4-2.219,8.4-2.219-4.757,4.282-1.9,4.282,8.72-3.648,8.72-3.648-3.965,5.55-1.585,5.074,10.463-5.708,10.463-5.708,9.512,0,14.745-.951,57.552,9.512,67.54,4.282,25.21-22.831,25.21-22.831l-28.531-20.453Z" transform="translate(-1683.203 -1122.42)" fill="#ffb38d"/>
    <g id="Group_315" data-name="Group 315" transform="translate(422.488 281.73)" clip-path="url(#clip-path-3)">
      <path id="Path_806" data-name="Path 806" d="M2418.985,1349.462c-14.045-1.059-28.036,4.214-39.512,12.372l-22.723,17.095a68.469,68.469,0,0,1,35.873.261c4.791,1.346,9.42,3.21,14.117,4.864q6.754,2.374,13.7,4.151c7.046,1.806,14.418,3.136,21.565,1.786,5.333-1,10.907-4.169,12.107-9.46.686-3.022-.2-6.188-1.459-9.017C2446.888,1358.669,2433.028,1350.527,2418.985,1349.462Z" transform="translate(-2306.377 -1360.327)" fill="#f78259"/>
      <path id="Path_807" data-name="Path 807" d="M2208.285,1587a39.229,39.229,0,0,1-12.251,1.956,14.2,14.2,0,0,0-3.369.217c-2.313.566-4.043,2.42-5.839,3.983s-4.129,2.974-6.435,2.38l-.6,8.523c2.625,1.517,5.937.526,8.744-.618a117.914,117.914,0,0,0,16.7-8.469,9.9,9.9,0,0,0,3.79-3.367C2209.844,1590.106,2209.715,1587.945,2208.285,1587Z" transform="translate(-2164.923 -1550.313)" fill="#f78259"/>
      <path id="Path_808" data-name="Path 808" d="M2162.051,1592.25a20.189,20.189,0,0,0-4.516,2.064,39.783,39.783,0,0,1-3.846,2.368,5.8,5.8,0,0,1-4.382.439l-.086,2.7c1.659,1.1,3.88.526,5.722-.225,3.266-1.332,6.527-3.287,8.094-6.447a.835.835,0,0,0,.106-.7C2162.972,1592.077,2162.438,1592.127,2162.051,1592.25Z" transform="translate(-2140.486 -1554.437)" fill="#f78259"/>
      <path id="Path_809" data-name="Path 809" d="M2127.313,1582.229a1.177,1.177,0,0,0-1.065.092c-1.924.877-3.457,2.42-5.251,3.537a13.492,13.492,0,0,1-6.356,2.006l.959,1.766a47.054,47.054,0,0,0,6.128-1.184,11.36,11.36,0,0,0,3.953-1.659,4.639,4.639,0,0,0,2.032-3.612A1.075,1.075,0,0,0,2127.313,1582.229Z" transform="translate(-2112.845 -1546.423)" fill="#f78259"/>
      <path id="Path_810" data-name="Path 810" d="M2092.49,1565.417l.058,4.37a27.053,27.053,0,0,0,9.974-4.531,9.168,9.168,0,0,0,2.717-2.791,4.009,4.009,0,0,0,.223-3.756A22.5,22.5,0,0,1,2092.49,1565.417Z" transform="translate(-2095.139 -1527.699)" fill="#f78259"/>
    </g>
    <path id="Path_812" data-name="Path 812" d="M2667.871,1243.572s-14.506.237-17.837,2.139a73.6,73.6,0,0,1-6.659,3.331,108.767,108.767,0,0,0-14.743,7.135c-6.182,3.806-18.551,23.307-18.551,23.307l14.3,11.762,15.187,12.5.475,38.523s22.831,9.029,46.613,7.608,29.966-6.182,29.966-6.182-9.99-77.53-15.7-89.9S2667.871,1243.572,2667.871,1243.572Z" transform="translate(-2086.391 -993.946)" fill="#fcc56b"/>
    <g id="Group_316" data-name="Group 316" transform="translate(523.689 249.484)" clip-path="url(#clip-path-4)">
      <path id="Path_813" data-name="Path 813" d="M2568.2,1393.5l37.893,7.135-32.5-35.991Z" transform="translate(-2576.603 -1340.321)" fill="#fff"/>
      <path id="Path_814" data-name="Path 814" d="M2810.526,1694.021c-27.586,15.538-78,1.9-78,1.9-8.88,1.585,9.831,31.7,9.831,31.7l86.567-12.038S2838.114,1678.484,2810.526,1694.021Z" transform="translate(-2706.044 -1600.576)" fill="#fff"/>
    </g>
    <path id="Path_816" data-name="Path 816" d="M2768.882,980.47c3.567-28.064,2.458-56.442-18.788-58.742,0,0-6.9-6.184-19.025-5.945s-17.837,4.994-21.641,11.414-5.708,19.5-5.708,19.5l5.469.712,30.917,7.849,4.9,11.254s-4.414,22.755-5.618,36.071-3.567,40.429,15.7,58.989c9.274,0,11.176-.714,11.176-.714l-6.9-16.172,9.029,15.935,10.7-1.19-2.853-13.555,5.706,12.129,13.319-5.233S2765.315,1008.531,2768.882,980.47Z" transform="translate(-2161.243 -732.034)" fill="#b22630"/>
    <g id="Group_317" data-name="Group 317" transform="translate(542.477 183.742)" clip-path="url(#clip-path-5)">
      <path id="Path_817" data-name="Path 817" d="M2774.948,1124.787c-42.335-15.221-43.758-89.887-43.758-96.079s-7.61-15.221-7.61-15.221l-4.281,6.659-13.792-4.755,1.9-11.892-9.029,9.512-19.027-4.755-2.853,44.233,18.549,100.361,97.03,7.61S2817.281,1140.012,2774.948,1124.787Z" transform="translate(-2681.961 -985.899)" fill="#8e1927"/>
      <path id="Path_818" data-name="Path 818" d="M2746.185,821l-10.465,15.7s28.064-5.708,37.576,7.61c11.892,0,25.682,15.221,26.637,30.441s16.172-9.988,16.172-9.988l-19.5-50.895Z" transform="translate(-2729.3 -834.317)" fill="#d35060"/>
    </g>
    <path id="Path_820" data-name="Path 820" d="M2709.208,1115.233s-5.048,7.384-1.252,8.479c2.795.8,3.154-.789,3.437-2.125S2711.1,1113.859,2709.208,1115.233Z" transform="translate(-2163.498 -891.318)" fill="#f78259"/>
    <path id="Path_821" data-name="Path 821" d="M2750.889,1052.647l-9.832-1.693-.951-7.135-.8,6.659-13.156-.951.156-7.3-2.835,6.659-5.032-.437a22.131,22.131,0,0,0-1.627,8.367c0,11.382,8.447,20.61,18.86,20.61a17.4,17.4,0,0,0,4.938-.718l-.263,6.822,4.729-.289,8.114-.5,2.283-15.144a10.134,10.134,0,0,0,3.343-1.218c4.324-2.5,6.055-7.592,3.862-11.382S2755.208,1050.155,2750.889,1052.647Z" transform="translate(-2171.706 -833.116)" fill="#ffb38d"/>
    <g id="Group_318" data-name="Group 318" transform="translate(545.102 209.116)" clip-path="url(#clip-path-6)">
      <path id="Path_822" data-name="Path 822" d="M2742.947,1005.633c-.792-.476-29.494-2.853-29.494-2.853l-4.593,14.892,9.512,1.744,4.28-6.184.158,6.976,21.723.9S2743.74,1006.1,2742.947,1005.633Z" transform="translate(-2710.453 -1010.697)" fill="#f78259"/>
    </g>
    <path id="Path_824" data-name="Path 824" d="M2898.661,1115.791a1.806,1.806,0,0,0-1.152-.365,2.562,2.562,0,0,0-1.072.277,4.12,4.12,0,0,0-1.521,1.376,4.414,4.414,0,0,0-.722,1.838,2.55,2.55,0,0,0,.04.971,1.524,1.524,0,0,0,.5.8,1.405,1.405,0,0,1-.469-.819,2.178,2.178,0,0,1,.038-.945,3.727,3.727,0,0,1,.927-1.605,4.029,4.029,0,0,1,1.483-.991,2.158,2.158,0,0,1,.8-.138,1,1,0,0,1,1,.8,2.172,2.172,0,0,1,.038.8,4,4,0,0,1-.642,1.661,3.709,3.709,0,0,1-1.364,1.258,2.168,2.168,0,0,1-.915.245,1.4,1.4,0,0,1-.9-.277,1.523,1.523,0,0,0,.9.307,2.607,2.607,0,0,0,.957-.173,4.447,4.447,0,0,0,1.637-1.108,4.091,4.091,0,0,0,1-1.788,2.558,2.558,0,0,0,.036-1.108A1.805,1.805,0,0,0,2898.661,1115.791Z" transform="translate(-2313.478 -891.625)" fill="#ed8e5f"/>
    <path id="Path_825" data-name="Path 825" d="M2770.228,1068.32a4.473,4.473,0,0,0-1.631-.6,5.722,5.722,0,0,0-1.685-.016,6.427,6.427,0,0,0-.812.158,5.761,5.761,0,0,0-.8.267.4.4,0,0,0,.281.75h.026a4.7,4.7,0,0,1,.682-.175,5.446,5.446,0,0,1,.714-.092,4.837,4.837,0,0,1,1.4.108,3.337,3.337,0,0,1,1.222.546,3.81,3.81,0,0,1,.931.949l.038.048.02.024a.612.612,0,0,0,.925-.8,5.018,5.018,0,0,0-1.312-1.164Z" transform="translate(-2210.273 -853.434)" fill="#89132a"/>
    <path id="Path_826" data-name="Path 826" d="M2758.324,1096.838a2.073,2.073,0,1,0,1.376.794A2.074,2.074,0,0,0,2758.324,1096.838Z" transform="translate(-2203.016 -876.753)" fill="#961e2d"/>
    <path id="Path_827" data-name="Path 827" d="M2797.542,1111.81a4.988,4.988,0,1,0,3.349,1.839A4.988,4.988,0,0,0,2797.542,1111.81Z" transform="translate(-2231.818 -888.711)" fill="#ea6036"/>
    <path id="Path_828" data-name="Path 828" d="M2743.239,1163.375a.4.4,0,0,0-.491.283,3.194,3.194,0,0,1-1.587,1.9,4.416,4.416,0,0,1-3.722-.381.4.4,0,1,0-.347.724,6.758,6.758,0,0,0,2.809.718,3.746,3.746,0,0,0,1.605-.341,3.951,3.951,0,0,0,2.006-2.408A.4.4,0,0,0,2743.239,1163.375Z" transform="translate(-2187.736 -929.943)" fill="#89132a"/>
    <path id="Path_829" data-name="Path 829" d="M2841.68,1192.973c-1.188,1.188-7.347,4.2-7.347,4.2l-.263,6.822,4.729-.289C2841.155,1198.5,2842.353,1192.307,2841.68,1192.973Z" transform="translate(-2265.439 -953.574)" fill="#f78259"/>
    <g id="Group_319" data-name="Group 319" transform="translate(581.355 206.265)" opacity="0.5">
      <path id="Path_830" data-name="Path 830" d="M2898.874,1036.555c-.182-.925-.307-1.866-.427-2.809l-.343-2.847c-.121-.953-.239-1.908-.4-2.869a18.109,18.109,0,0,0-.215,2.907,22.812,22.812,0,0,0,.175,2.909,15.159,15.159,0,0,0,.612,2.871,7.424,7.424,0,0,0,.6,1.366,3.682,3.682,0,0,0,.447.6,1.666,1.666,0,0,0,.6.433,2.779,2.779,0,0,1-.694-1.2A10.854,10.854,0,0,1,2898.874,1036.555Z" transform="translate(-2897.487 -1028.03)"/>
    </g>
    <g id="Group_320" data-name="Group 320" transform="translate(588.536 198.963)" opacity="0.5">
      <path id="Path_831" data-name="Path 831" d="M2938.083,995.936a2.8,2.8,0,0,0-.038-.307,5.426,5.426,0,0,0-.118-.6,5.143,5.143,0,0,0-.469-1.17,4.415,4.415,0,0,0-1.806-1.73,4.274,4.274,0,0,0-2.372-.475,7.314,7.314,0,0,1,2.044,1,5.08,5.08,0,0,1,1.437,1.591,6.316,6.316,0,0,1,.439.989,8.238,8.238,0,0,1,.273,1.075,19.6,19.6,0,0,1,.247,2.309,6.376,6.376,0,0,0,.381-2.376Z" transform="translate(-2933.28 -991.636)"/>
    </g>
    <g id="Group_321" data-name="Group 321" transform="translate(586.983 231.309)" opacity="0.5">
      <path id="Path_832" data-name="Path 832" d="M2929.133,1210.58l-.249-1.025c-.161-.682-.345-1.36-.471-2.053s-.283-1.374-.414-2.065l-.345-2.079c-.413-2.777-.736-5.57-.937-8.375s-.319-5.618-.365-8.427c-.086-5.618.09-11.254.441-16.874q.269-4.213.656-8.427c.245-2.809.558-5.618.909-8.407-1.017,5.55-1.716,11.16-2.187,16.786-.241,2.809-.4,5.634-.52,8.457s-.13,5.65-.1,8.477c.058,2.825.187,5.652.4,8.471s.586,5.63,1.077,8.427a60.876,60.876,0,0,0,2.006,8.242c.229.67.429,1.348.7,2.006l.387.987c.132.329.251.662.4.979.3.64.586,1.288.9,1.92l1.031,1.848a40.313,40.313,0,0,1-3.054-7.851Z" transform="translate(-2925.537 -1152.85)"/>
    </g>
    <g id="Group_322" data-name="Group 322" transform="translate(537.993 290.767)" opacity="0.5">
      <path id="Path_833" data-name="Path 833" d="M2681.37,1455.721l15.187,12.5-2.378-19.027Z" transform="translate(-2681.37 -1449.19)"/>
    </g>
    <path id="Path_834" data-name="Path 834" d="M1698.18,766.413l8.4,31.063h156.167V634.49H1698.18Z" transform="translate(-1357.455 -507.185)" fill="#fff"/>
    <rect id="Rectangle_252" data-name="Rectangle 252" width="164.572" height="16.172" transform="translate(340.725 127.305)" fill="#fcc56b"/>
    <path id="Path_835" data-name="Path 835" d="M1937.633,657.236a3.393,3.393,0,0,0-1.2-.821,3.987,3.987,0,0,0-1.543-.287,3.879,3.879,0,0,0-1.529.287,3.465,3.465,0,0,0-1.188.821,3.73,3.73,0,0,0-.776,1.28,5.291,5.291,0,0,0,0,3.355,3.731,3.731,0,0,0,.776,1.28,3.466,3.466,0,0,0,1.188.821,3.881,3.881,0,0,0,1.529.287,3.987,3.987,0,0,0,1.543-.287,3.393,3.393,0,0,0,1.2-.821,3.7,3.7,0,0,0,.776-1.28,5.256,5.256,0,0,0,0-3.355A3.7,3.7,0,0,0,1937.633,657.236Zm-1.336,4.647a1.906,1.906,0,0,1-2.809,0,2.958,2.958,0,0,1,0-3.4,1.9,1.9,0,0,1,2.809,0,2.957,2.957,0,0,1,0,3.4Z" transform="translate(-1543.658 -524.481)" fill="#fff"/>
    <path id="Path_836" data-name="Path 836" d="M1980.74,656.77a.917.917,0,0,0-.64.239.846.846,0,0,0-.263.64l.058-.034v3.642l-2.935-4.111a.869.869,0,0,0-.341-.307.947.947,0,0,0-.4-.08.9.9,0,0,0-.4.08.729.729,0,0,0-.275.217.981.981,0,0,0-.159.309,1.272,1.272,0,0,0-.046.365v6.039a.835.835,0,0,0,.251.638.939.939,0,0,0,1.256,0,.8.8,0,0,0,.251-.628v-3.345l2.911,3.812a.965.965,0,0,0,.353.307,1.055,1.055,0,0,0,.445.092.775.775,0,0,0,.618-.251.917.917,0,0,0,.227-.618v-6.14a.819.819,0,0,0-.261-.628A.917.917,0,0,0,1980.74,656.77Z" transform="translate(-1579.002 -524.985)" fill="#fff"/>
    <path id="Path_837" data-name="Path 837" d="M2019.457,662.97h-2.751v-5.417a.881.881,0,1,0-1.76,0v6.1a.871.871,0,0,0,.241.64.9.9,0,0,0,.662.239l-.012-.012h3.632a.931.931,0,0,0,.628-.2.8.8,0,0,0,0-1.142A.961.961,0,0,0,2019.457,662.97Z" transform="translate(-1610.664 -524.883)" fill="#fff"/>
    <path id="Path_838" data-name="Path 838" d="M2047.861,656.752a.825.825,0,0,0-.879.879v6.1a.879.879,0,1,0,1.758,0v-6.1a.829.829,0,0,0-.879-.879Z" transform="translate(-1636.272 -524.979)" fill="#fff"/>
    <path id="Path_839" data-name="Path 839" d="M2069.252,656.769a.908.908,0,0,0-.638.239.846.846,0,0,0-.263.64l.058-.034v3.642l-2.927-4.111a.869.869,0,0,0-.341-.307.947.947,0,0,0-.4-.08.9.9,0,0,0-.411.08.729.729,0,0,0-.275.217,1.028,1.028,0,0,0-.16.309,1.272,1.272,0,0,0-.046.365v6.039a.836.836,0,0,0,.253.638.939.939,0,0,0,1.256,0,.8.8,0,0,0,.251-.628v-3.345l2.911,3.812a.949.949,0,0,0,.353.307,1.058,1.058,0,0,0,.446.092.771.771,0,0,0,.616-.251.92.92,0,0,0,.229-.618v-6.14a.815.815,0,0,0-.265-.63A.911.911,0,0,0,2069.252,656.769Z" transform="translate(-1649.753 -524.984)" fill="#fff"/>
    <path id="Path_840" data-name="Path 840" d="M2108.2,658.531a.871.871,0,0,0,.618-.2.841.841,0,0,0-.016-1.138.867.867,0,0,0-.616-.2h-4.041a.915.915,0,0,0-.674.241.863.863,0,0,0-.241.638v6.083a.908.908,0,0,0,.229.638.843.843,0,0,0,.65.241h4.065a.777.777,0,1,0,0-1.543l.046-.046h-3.17v-1.637h1.906a.925.925,0,0,0,.628-.2.8.8,0,0,0,0-1.142.943.943,0,0,0-.638-.2h-1.908v-1.529Z" transform="translate(-1681.232 -525.171)" fill="#fff"/>
    <path id="Path_841" data-name="Path 841" d="M2149.76,656.694h-5a.952.952,0,0,0-.64.2.8.8,0,0,0,0,1.142.927.927,0,0,0,.628.2h1.633v5.417a.879.879,0,1,0,1.758,0v-5.417h1.633a.931.931,0,0,0,.628-.2.8.8,0,0,0,0-1.142A.951.951,0,0,0,2149.76,656.694Z" transform="translate(-1713.731 -524.933)" fill="#fff"/>
    <path id="Path_842" data-name="Path 842" d="M2187.692,658.523a.871.871,0,0,0,.618-.2.841.841,0,0,0-.012-1.14.867.867,0,0,0-.616-.2h-4.041a.915.915,0,0,0-.674.241.863.863,0,0,0-.241.638v6.085a.91.91,0,0,0,.229.638.843.843,0,0,0,.65.241h4.065a.777.777,0,1,0,0-1.543l.046-.046h-3.174V661.6h1.906a.924.924,0,0,0,.628-.2.8.8,0,0,0,0-1.142.943.943,0,0,0-.638-.2h-1.908v-1.529Z" transform="translate(-1744.781 -525.163)" fill="#fff"/>
    <path id="Path_843" data-name="Path 843" d="M2220.832,659.964a2.724,2.724,0,0,0-.777-.433,8.077,8.077,0,0,0-.891-.273c-.341-.092-.628-.173-.845-.251a3.467,3.467,0,0,1-.536-.241.914.914,0,0,1-.285-.239.452.452,0,0,1-.08-.275.508.508,0,0,1,.217-.377,1.254,1.254,0,0,1,.787-.183,1.822,1.822,0,0,1,.754.126c.17.08.343.171.514.263.114.056.229.114.331.159a1,1,0,0,0,.4.068.855.855,0,0,0,.275-.044.784.784,0,0,0,.273-.148.877.877,0,0,0,.2-.275.921.921,0,0,0,.08-.411,1.064,1.064,0,0,0-.138-.5,1.182,1.182,0,0,0-.467-.445,3.211,3.211,0,0,0-.959-.411,4.971,4.971,0,0,0-1.154-.114,4.27,4.27,0,0,0-1.152.148,3.151,3.151,0,0,0-.959.445,2.171,2.171,0,0,0-.652.72,2.009,2.009,0,0,0-.239,1,2.5,2.5,0,0,0,.161.925,1.7,1.7,0,0,0,.455.662,2.808,2.808,0,0,0,.73.467,6.463,6.463,0,0,0,.937.331c.365.1.662.2.9.273a3.74,3.74,0,0,1,.584.241.8.8,0,0,1,.307.251.546.546,0,0,1,.08.3.459.459,0,0,1-.1.309.749.749,0,0,1-.263.2,1.57,1.57,0,0,1-.365.1,2.754,2.754,0,0,1-.433.034h.056a2.676,2.676,0,0,1-.913-.136,3.1,3.1,0,0,1-.742-.387,2.152,2.152,0,0,0-.307-.173.874.874,0,0,0-.343-.068,1.049,1.049,0,0,0-.229.034.77.77,0,0,0-.275.138.937.937,0,0,0-.239.273.843.843,0,0,0-.1.433.767.767,0,0,0,.17.48,2.781,2.781,0,0,0,.343.377,2.88,2.88,0,0,0,1.027.536,5.065,5.065,0,0,0,1.485.2,4.415,4.415,0,0,0,1.368-.2,2.942,2.942,0,0,0,.983-.514,1.985,1.985,0,0,0,.582-.764,2.354,2.354,0,0,0,.2-.935,2.193,2.193,0,0,0-.2-1,2.007,2.007,0,0,0-.556-.7Z" transform="translate(-1770.922 -524.344)" fill="#fff"/>
    <path id="Path_844" data-name="Path 844" d="M2254.218,656.693h-5a.945.945,0,0,0-.638.2.8.8,0,0,0,0,1.142.926.926,0,0,0,.628.2h1.631v5.417a.881.881,0,1,0,1.76,0v-5.417h1.631a.925.925,0,0,0,.628-.2.8.8,0,0,0,0-1.142A.945.945,0,0,0,2254.218,656.693Z" transform="translate(-1797.232 -524.932)" fill="#fff"/>
    <path id="Path_845" data-name="Path 845" d="M1739.566,749.217a.914.914,0,0,0-.275.046,1.085,1.085,0,0,0-.363.2l-1.918,1.643a1.1,1.1,0,0,0-.229.275.73.73,0,0,0-.1.387.825.825,0,0,0,.239.6.8.8,0,0,0,.582.239.744.744,0,0,0,.309-.068,1.114,1.114,0,0,0,.263-.148l.6-.5v4.35a.764.764,0,0,0,.253.616.911.911,0,0,0,.616.229.833.833,0,0,0,.616-.241.8.8,0,0,0,.239-.6h.036v-6.17a.834.834,0,0,0-.241-.618A.849.849,0,0,0,1739.566,749.217Z" transform="translate(-1388.229 -598.893)" fill="#fcc56b"/>
    <path id="Path_846" data-name="Path 846" d="M1769.62,778.75Z" transform="translate(-1414.562 -622.501)" fill="#fcc56b"/>
    <path id="Path_847" data-name="Path 847" d="M1765.674,778.741a.941.941,0,0,0-1,1,.9.9,0,0,0,.275.718,1.038,1.038,0,0,0,.708.241,1.075,1.075,0,0,0,.706-.241.923.923,0,0,0,.3-.754.909.909,0,0,0-.3-.718A1.025,1.025,0,0,0,1765.674,778.741Z" transform="translate(-1410.603 -622.492)" fill="#fcc56b"/>
    <path id="Path_848" data-name="Path 848" d="M1842.556,830.824a1.258,1.258,0,0,0-.365-.488.975.975,0,0,0-1.12,0,1.242,1.242,0,0,0-.355.488l-2.3,5.367a.487.487,0,0,0-.062.177,1.505,1.505,0,0,0-.022.239.692.692,0,0,0,.219.53.829.829,0,0,0,.582.2.86.86,0,0,0,.445-.1.716.716,0,0,0,.291-.385l.363-.945,2.743-.02.373.955a.8.8,0,0,0,.269.363.789.789,0,0,0,.468.124.869.869,0,0,0,.6-.219.733.733,0,0,0,.249-.58.685.685,0,0,0-.072-.333Zm-1.806,3.748.841-2.171.853,2.171Z" transform="translate(-1469.484 -663.595)" fill="#fcc56b"/>
    <path id="Path_849" data-name="Path 849" d="M1845.627,896.085a1.694,1.694,0,0,0-.331-.4,2.12,2.12,0,0,0-.53-.343,1.29,1.29,0,0,0,.56-.592,1.86,1.86,0,0,0,.187-.821,1.635,1.635,0,0,0-.6-1.338,2.836,2.836,0,0,0-1.838-.5l.052.032h-1.972a.8.8,0,0,0-.6.217.79.79,0,0,0-.219.582v5.556a.8.8,0,0,0,.2.622.85.85,0,0,0,.6.187h2.159a2.751,2.751,0,0,0,1.89-.6,2.06,2.06,0,0,0,.674-1.629,2.656,2.656,0,0,0-.052-.51A1.439,1.439,0,0,0,1845.627,896.085Zm-3.716-2.566h1.132a1,1,0,0,1,.6.157.572.572,0,0,1,.217.5.748.748,0,0,1-.187.53.638.638,0,0,1-.5.2h-1.256Zm2.035,4.071a.9.9,0,0,1-.664.229h-1.36v-1.589h1.328c.614,0,.925.259.925.768a.8.8,0,0,1-.229.6Z" transform="translate(-1471.082 -713.1)" fill="#fcc56b"/>
    <path id="Path_850" data-name="Path 850" d="M1842.345,955.579a2.165,2.165,0,0,1,.477.05,1.2,1.2,0,0,1,.373.156,1.987,1.987,0,0,1,.333.259c.1.1.219.219.343.353l.082-.062a.633.633,0,0,0,.261.167.842.842,0,0,0,.279.042.751.751,0,0,0,.249-.042.724.724,0,0,0,.251-.134.894.894,0,0,0,.187-.239.7.7,0,0,0,.072-.343,1.342,1.342,0,0,0-.03-.281,1.1,1.1,0,0,0-.116-.279,3.518,3.518,0,0,0-.279-.323,2.589,2.589,0,0,0-.53-.415,3.912,3.912,0,0,0-.8-.363,3.453,3.453,0,0,0-1.092-.156,3.3,3.3,0,0,0-2.472,1.049,3.431,3.431,0,0,0-.694,1.174,4.35,4.35,0,0,0-.249,1.5,4.244,4.244,0,0,0,.249,1.495,3.432,3.432,0,0,0,.694,1.154,3.144,3.144,0,0,0,1.071.746,3.527,3.527,0,0,0,1.39.261,3.487,3.487,0,0,0,.9-.1,3.712,3.712,0,0,0,.716-.271,2.491,2.491,0,0,0,.55-.363,3.457,3.457,0,0,0,.4-.383.909.909,0,0,0,.187-.343,1.193,1.193,0,0,0,.052-.321.677.677,0,0,0-.052-.239.732.732,0,0,0-.144-.229.936.936,0,0,0-.219-.187.511.511,0,0,0-.281-.074.8.8,0,0,0-.269.042.683.683,0,0,0-.239.156c-.114.114-.229.217-.333.311a1.743,1.743,0,0,1-.331.239,1.505,1.505,0,0,1-.375.146,2.125,2.125,0,0,1-.466.05,1.768,1.768,0,0,1-1.392-.54,2.189,2.189,0,0,1-.488-1.5,2.478,2.478,0,0,1,.468-1.589,1.545,1.545,0,0,1,1.264-.57Z" transform="translate(-1470.012 -762.562)" fill="#fcc56b"/>
    <path id="Path_851" data-name="Path 851" d="M1845.592,1017.333a2.791,2.791,0,0,0-1.027-.716,3.5,3.5,0,0,0-1.34-.249H1841.2a.8.8,0,0,0-.622.219.817.817,0,0,0-.2.582v5.544a.862.862,0,0,0,.189.582.781.781,0,0,0,.622.217h2.006a3.235,3.235,0,0,0,1.308-.259,3.074,3.074,0,0,0,1.037-.726,3.368,3.368,0,0,0,.686-1.132,4.181,4.181,0,0,0,.249-1.475,4.333,4.333,0,0,0-.239-1.475,3.335,3.335,0,0,0-.642-1.112Zm-1.184,4.213a1.549,1.549,0,0,1-1.3.562v-.012h-1.089v-4.3h1.039a1.643,1.643,0,0,1,1.338.55,2.435,2.435,0,0,1,.445,1.589,2.584,2.584,0,0,1-.435,1.611Z" transform="translate(-1471.12 -812.441)" fill="#fcc56b"/>
    <path id="Path_852" data-name="Path 852" d="M1733.238,1111.113h-2.055l1.324-1.471c.217-.253.4-.482.582-.686a4.483,4.483,0,0,0,.421-.6,2.516,2.516,0,0,0,.138-2.207,2.115,2.115,0,0,0-.538-.73,2.206,2.206,0,0,0-.821-.457,3.456,3.456,0,0,0-1.051-.161,3.209,3.209,0,0,0-1.083.172,3.014,3.014,0,0,0-.823.433,1.983,1.983,0,0,0-.538.582,1.305,1.305,0,0,0-.2.65.8.8,0,0,0,.239.64.941.941,0,0,0,.572.217.905.905,0,0,0,.8-.492,1.258,1.258,0,0,1,.375-.353,1.192,1.192,0,0,1,.618-.136.855.855,0,0,1,.628.2.7.7,0,0,1,.2.5,1.2,1.2,0,0,1-.056.331,1.887,1.887,0,0,1-.172.375,5,5,0,0,1-.309.458c-.124.171-.285.365-.478.582v-.114l-2.135,2.341a1,1,0,0,0-.2.331,1.034,1.034,0,0,0-.092.4.7.7,0,0,0,.1.4.982.982,0,0,0,.239.251.731.731,0,0,0,.285.136,1.22,1.22,0,0,0,.275.034h3.722a.873.873,0,0,0,.616-.227.831.831,0,0,0,0-1.166A.875.875,0,0,0,1733.238,1111.113Z" transform="translate(-1381.761 -883.13)" fill="#fcc56b"/>
    <path id="Path_853" data-name="Path 853" d="M1774.42,840.043h8.413V831.63h-8.413Zm.8-7.61h6.808v6.808h-6.808Z" transform="translate(-1418.399 -664.771)" fill="#fcc56b"/>
    <path id="Path_854" data-name="Path 854" d="M1774.42,898.507h8.413V890.1h-8.413Zm.8-7.61h6.808V897.7h-6.808Z" transform="translate(-1418.399 -711.509)" fill="#fcc56b"/>
    <path id="Path_855" data-name="Path 855" d="M1774.42,956.993h8.413V948.58h-8.413Zm.8-7.61h6.808v6.808h-6.808Z" transform="translate(-1418.399 -758.256)" fill="#fcc56b"/>
    <path id="Path_856" data-name="Path 856" d="M1774.42,1015.483h8.413v-8.413h-8.413Zm.8-7.61h6.808v6.808h-6.808Z" transform="translate(-1418.399 -805.01)" fill="#fcc56b"/>
    <rect id="Rectangle_253" data-name="Rectangle 253" width="127.788" height="2.219" transform="translate(359.593 154.576)" fill="#fcc56b"/>
    <rect id="Rectangle_254" data-name="Rectangle 254" width="106.225" height="2.536" transform="translate(381.473 170.431)" fill="#fcc56b"/>
    <rect id="Rectangle_255" data-name="Rectangle 255" width="106.225" height="2.536" transform="translate(381.473 182.481)" fill="#fcc56b"/>
    <rect id="Rectangle_256" data-name="Rectangle 256" width="106.225" height="2.536" transform="translate(381.473 194.529)" fill="#fcc56b"/>
    <rect id="Rectangle_257" data-name="Rectangle 257" width="106.225" height="2.536" transform="translate(381.473 206.58)" fill="#fcc56b"/>
    <path id="Path_857" data-name="Path 857" d="M1844.14,1189.573a1.275,1.275,0,0,0-.365-.488.975.975,0,0,0-1.12,0,1.234,1.234,0,0,0-.353.488l-2.309,5.373a.488.488,0,0,0-.062.177,1.505,1.505,0,0,0-.022.239.692.692,0,0,0,.219.53.829.829,0,0,0,.582.2.86.86,0,0,0,.445-.1.716.716,0,0,0,.291-.385l.363-.945,2.743-.02.373.955a.8.8,0,0,0,.269.363.788.788,0,0,0,.467.124.876.876,0,0,0,.6-.217.742.742,0,0,0,.251-.582.687.687,0,0,0-.074-.333Zm-1.806,3.748.841-2.171.853,2.171Z" transform="translate(-1470.747 -950.365)" fill="#fcc56b"/>
    <path id="Path_858" data-name="Path 858" d="M1847.191,1254.767a1.691,1.691,0,0,0-.331-.4,2.119,2.119,0,0,0-.536-.355,1.29,1.29,0,0,0,.56-.6,1.862,1.862,0,0,0,.187-.821,1.635,1.635,0,0,0-.6-1.338,2.836,2.836,0,0,0-1.838-.5l.052.032h-1.97a.8.8,0,0,0-.6.217.79.79,0,0,0-.219.582v5.556a.8.8,0,0,0,.2.622.851.851,0,0,0,.6.187h2.159a2.75,2.75,0,0,0,1.89-.6,2.06,2.06,0,0,0,.674-1.629,2.666,2.666,0,0,0-.052-.51,1.444,1.444,0,0,0-.175-.437Zm-3.716-2.562h1.132a1,1,0,0,1,.6.157.572.572,0,0,1,.217.5.749.749,0,0,1-.187.53.638.638,0,0,1-.5.2h-1.256Zm2.035,4.071a.889.889,0,0,1-.664.229h-1.36v-1.589h1.328c.614,0,.925.259.925.768a.8.8,0,0,1-.229.588Z" transform="translate(-1472.329 -999.798)" fill="#fcc56b"/>
    <path id="Path_859" data-name="Path 859" d="M1843.925,1314.287a2.041,2.041,0,0,1,.478.052,1.138,1.138,0,0,1,.373.155,1.978,1.978,0,0,1,.333.259c.1.1.219.219.343.355l.082-.064a.633.633,0,0,0,.261.167.838.838,0,0,0,.279.042.751.751,0,0,0,.249-.042.721.721,0,0,0,.251-.134.9.9,0,0,0,.187-.239.7.7,0,0,0,.072-.343,1.358,1.358,0,0,0-.03-.281,1.176,1.176,0,0,0-.114-.279c-.052-.072-.146-.177-.281-.323a2.588,2.588,0,0,0-.53-.415,3.9,3.9,0,0,0-.8-.363,3.452,3.452,0,0,0-1.091-.155,3.293,3.293,0,0,0-2.472,1.047,3.43,3.43,0,0,0-.694,1.174,4.351,4.351,0,0,0-.249,1.5,4.258,4.258,0,0,0,.249,1.5,3.444,3.444,0,0,0,.694,1.152,3.142,3.142,0,0,0,1.071.746,3.528,3.528,0,0,0,1.39.261,3.485,3.485,0,0,0,.9-.1,3.708,3.708,0,0,0,.716-.271,2.489,2.489,0,0,0,.55-.363,3.308,3.308,0,0,0,.4-.383.911.911,0,0,0,.187-.343,1.174,1.174,0,0,0,.052-.321.685.685,0,0,0-.052-.239.732.732,0,0,0-.144-.229.937.937,0,0,0-.219-.187.509.509,0,0,0-.279-.074.8.8,0,0,0-.271.042.7.7,0,0,0-.239.156c-.114.114-.229.217-.333.311a1.69,1.69,0,0,1-.331.239,1.529,1.529,0,0,1-.373.146,2.15,2.15,0,0,1-.468.05,1.768,1.768,0,0,1-1.392-.54,2.188,2.188,0,0,1-.488-1.5,2.479,2.479,0,0,1,.467-1.589,1.545,1.545,0,0,1,1.264-.57Z" transform="translate(-1471.275 -1049.3)" fill="#fcc56b"/>
    <path id="Path_860" data-name="Path 860" d="M1847.212,1376.083a2.792,2.792,0,0,0-1.027-.716,3.5,3.5,0,0,0-1.34-.249h-2.026a.8.8,0,0,0-.622.219.816.816,0,0,0-.2.582v5.544a.862.862,0,0,0,.189.582.78.78,0,0,0,.622.217h2.006a3.232,3.232,0,0,0,1.308-.259,3.055,3.055,0,0,0,1.037-.726,3.348,3.348,0,0,0,.686-1.132,4.181,4.181,0,0,0,.249-1.475,4.33,4.33,0,0,0-.239-1.475A3.331,3.331,0,0,0,1847.212,1376.083Zm-1.184,4.214a1.545,1.545,0,0,1-1.3.562v-.012h-1.089v-4.3h1.039a1.639,1.639,0,0,1,1.328.55,2.435,2.435,0,0,1,.448,1.589,2.637,2.637,0,0,1-.435,1.621Z" transform="translate(-1472.415 -1099.211)" fill="#fcc56b"/>
    <path id="Path_861" data-name="Path 861" d="M1776,1198.793h8.413v-8.413H1776Zm.8-7.61h6.808v6.808H1776.8Z" transform="translate(-1419.661 -951.541)" fill="#fcc56b"/>
    <path id="Path_862" data-name="Path 862" d="M1776,1257.263h8.413v-8.413H1776Zm.8-7.61h6.808v6.808H1776.8Z" transform="translate(-1419.661 -998.279)" fill="#fcc56b"/>
    <path id="Path_863" data-name="Path 863" d="M1776,1315.743h8.413v-8.413H1776Zm.8-7.61h6.808v6.808H1776.8Z" transform="translate(-1419.661 -1045.026)" fill="#fcc56b"/>
    <path id="Path_864" data-name="Path 864" d="M1776,1374.213h8.413V1365.8H1776Zm.8-7.61h6.808v6.808H1776.8Z" transform="translate(-1419.661 -1091.765)" fill="#fcc56b"/>
    <rect id="Rectangle_258" data-name="Rectangle 258" width="106.225" height="2.536" transform="translate(381.79 242.41)" fill="#fcc56b"/>
    <rect id="Rectangle_259" data-name="Rectangle 259" width="106.225" height="2.536" transform="translate(381.79 254.461)" fill="#fcc56b"/>
    <rect id="Rectangle_260" data-name="Rectangle 260" width="106.225" height="2.536" transform="translate(381.79 266.509)" fill="#fcc56b"/>
    <rect id="Rectangle_261" data-name="Rectangle 261" width="106.225" height="2.536" transform="translate(381.79 278.56)" fill="#fcc56b"/>
    <rect id="Rectangle_262" data-name="Rectangle 262" width="55.808" height="2.219" transform="translate(359.593 160.284)" fill="#fcc56b"/>
    <path id="Path_865" data-name="Path 865" d="M1765.674,1134.331a.941.941,0,0,0-1,1,.9.9,0,0,0,.275.718,1.037,1.037,0,0,0,.708.241,1.075,1.075,0,0,0,.706-.241.923.923,0,0,0,.3-.754.909.909,0,0,0-.3-.718A1.025,1.025,0,0,0,1765.674,1134.331Z" transform="translate(-1410.603 -906.736)" fill="#fcc56b"/>
    <path id="Path_866" data-name="Path 866" d="M1769.62,1134.34Z" transform="translate(-1414.562 -906.745)" fill="#fcc56b"/>
    <rect id="Rectangle_263" data-name="Rectangle 263" width="127.788" height="2.219" transform="translate(359.593 225.922)" fill="#fcc56b"/>
    <rect id="Rectangle_264" data-name="Rectangle 264" width="55.808" height="2.219" transform="translate(359.593 231.63)" fill="#fcc56b"/>
  </g>
</svg>
