<svg xmlns="http://www.w3.org/2000/svg" width="501.939" height="446.154" viewBox="0 0 501.939 446.154">
  <g id="_14_RUNO_FIELD_CRM_NOTIFICATIONS_OF_IMPORTANT_TASKS" data-name="14 RUNO FIELD CRM NOTIFICATIONS OF IMPORTANT TASKS" transform="translate(-184.032 -66.923)">
    <path id="Path_727" data-name="Path 727" d="M1617.925,2561.775q-1.19.151-2.387.322c-4.225.612-9.176,1.97-10.54,6.018a8.158,8.158,0,0,0,1.582,7.281c13.866,18.467,42.479,12.1,61.629,8.973,31.811-5.205,61.586,8.219,93.083,4.759,40.433-4.443,80.172,8.625,120.512,8.57,13.13-.021,37.088-2.417,46.722-12.269,2.865-2.926,3.917-8.059,1.143-11.07-7.724-8.382-30.115-9.436-40.78-10.873-48.863-6.583-100.615.258-149.833.595-20.624.141-41.269-.143-61.852-1.359C1657.148,2561.541,1637.97,2559.261,1617.925,2561.775Z" transform="translate(-1306.372 -2084.621)" fill="#ffe8d4"/>
    <path id="Path_728" data-name="Path 728" d="M1565.649,635.824c-8.574,16.288-20.274,30.792-33.4,43.7-24.223,23.828-52.353,40.34-82.591,51.049-51.728,18.33-109.629,19.705-164.718,11.743q-5.326-.77-10.611-1.656c-21.233-3.545-42.351-8.536-62.192-17.037-44.917-19.244-84.425-58.361-101.976-104.688-8.38-22.122-11.758-45.881-8.326-69.907a142.508,142.508,0,0,1,35.653-75.337c19.181-21.019,50.272-24.52,68.02-47.854,7.514-9.877,11.542-20.962,21.2-29.058,9.89-8.285,21.581-14.191,33.462-19.056,91.462-37.456,199.282-14.24,267.25,57.383a208.531,208.531,0,0,1,31.846,43.407C1584.872,525.369,1591.111,587.451,1565.649,635.824Z" transform="translate(-895.927 -293.077)" fill="#ffe8d4"/>
    <path id="Path_729" data-name="Path 729" d="M1305.139,485.063c-9.373,6.722-15.125,17.861-16.4,29.327-.7,6.32.011,13.171,3.893,18.218,4.179,5.432,11.455,7.841,18.3,7.449s13.316-3.238,19.227-6.7c10.6-6.209,20.635-15.946,21.254-28.208C1352.7,479.906,1322.493,472.619,1305.139,485.063Z" transform="translate(-1048.973 -390.053)" fill="#ffe8d4"/>
    <path id="Path_730" data-name="Path 730" d="M1491.937,966.14c-51.728,18.33-109.629,19.705-164.718,11.743q-5.326-.77-10.611-1.656c-21.233-3.545-42.351-8.536-62.192-17.037-44.917-19.244-84.425-58.361-101.976-104.688L1289.474,649.36s134.424,34.949,144.69,40.654,79.492,150.965,83.734,172.113C1521.086,878.027,1505.667,933.7,1491.937,966.14Z" transform="translate(-938.204 -528.646)" fill="#fccfac" opacity="0.62"/>
    <path id="Path_731" data-name="Path 731" d="M2980.6,790.813a9.339,9.339,0,0,0,8.365-5.188c5.923-12.565-17.208-26.31-22.4-13.156-.417-7.207-5.233-13.7-11.448-17.368-6.826-4.034-15.667-4.932-22.774-1.418s-11.885,11.723-10.5,19.53c-5.688-3.619-12.94-4.32-19.49-2.729a16.433,16.433,0,0,0-6.295,2.788,8.606,8.606,0,0,0-3.432,5.806c-.293,3.211,1.773,6.285,4.48,8.038s5.962,2.417,9.154,2.88c9.9,1.448,19.949,1.346,29.95,1.242C2951.252,791.082,2980.6,790.813,2980.6,790.813Z" transform="translate(-2354.865 -611.794)" fill="#fff"/>
    <path id="Path_732" data-name="Path 732" d="M1384.231,958.567a9.186,9.186,0,0,0,8.328-5.205c5.925-12.563-17.208-26.31-22.4-13.156-.416-7.207-5.231-13.7-11.448-17.368-6.824-4.032-15.666-4.93-22.773-1.417s-11.884,11.723-10.505,19.519c-5.687-3.618-12.938-4.32-19.49-2.729A16.515,16.515,0,0,0,1299.65,941a8.571,8.571,0,0,0-3.432,5.806c-.294,3.21,1.772,6.283,4.478,8.036s5.964,2.417,9.154,2.881c9.9,1.446,19.949,1.346,29.952,1.24C1354.844,958.814,1384.231,958.567,1384.231,958.567Z" transform="translate(-1055.232 -748.351)" fill="#fff"/>
    <path id="Path_733" data-name="Path 733" d="M3254.894,1082.812a6.93,6.93,0,0,0,7.289-5.006,8.531,8.531,0,0,0-.93-6.676c-2.16-3.763-6.891-6.878-11.351-6.382a6.877,6.877,0,0,0-5.731,4.54l2.644.357c-.487-6.867-5.763-12.444-12.15-14.53-6.592-2.155-14.065-.405-18.192,5.359a13.481,13.481,0,0,0-2.383,10.018l1.917-1.472a18.7,18.7,0,0,0-15.636-1.554c-2.582.885-4.948,2.578-5.82,5.27a6.926,6.926,0,0,0,2.231,7.084c2.071,1.881,4.833,2.6,7.531,3.025a79.307,79.307,0,0,0,9.523.878c6.447.227,12.905-.011,19.352-.14,7.414-.149,14.816-.3,22.235-.3a1.176,1.176,0,0,0,0-2.35c-2.788,0-5.594-.08-8.38.125a1.05,1.05,0,0,0,0,2.1c2.789.2,5.586.126,8.38.125v-2.35c-11.7,0-23.39-.1-35.088-.1-5.6,0-11.414-.013-16.931-1.115-2.253-.448-4.635-1.273-5.833-3.385-1.134-1.995-.186-4.134,1.6-5.354a13.855,13.855,0,0,1,7.871-1.906,14.922,14.922,0,0,1,7.654,2.192,1.32,1.32,0,0,0,1.915-1.472c-.848-5.159,2.761-10.4,7.549-12.134a15.662,15.662,0,0,1,16.1,3.9,12.913,12.913,0,0,1,3.869,8.073,1.353,1.353,0,0,0,2.644.359,4.019,4.019,0,0,1,3.112-2.545,7.6,7.6,0,0,1,4.391.809c2.908,1.411,5.763,4.311,5.631,7.73a5.284,5.284,0,0,1-5.008,5.075c-1.147-.011-1.086,1.617,0,1.74Z" transform="translate(-2600.466 -858.247)" fill="#fff"/>
    <path id="Path_734" data-name="Path 734" d="M1027.746,1551.309a9.962,9.962,0,0,0-1.575-3.835q-1-1.7-1.946-3.428c-1.3-2.359-2.532-4.753-3.835-7.111q-3.718-6.735-6.754-13.821a190.618,190.618,0,0,1-11.792-43.334c-.164-1.039-.268-2.1-.455-3.129-.017-.089-.23-.8-.336-1.253v-.011c-.032-.251-.065-.5-.095-.744q-.418-3.37-.684-6.759c-.2-2.539-2.1-5.008-4.884-4.883a5.015,5.015,0,0,0-4.885,4.883q-.162,2.253-.258,4.508-.05,1.126-.08,2.251-.013.558-.026,1.127c0,.249,0,.5-.013.744q.251-1.3.08-.4c-.041,1.058-.258,1.976-.242,3.023q.017,1.115.05,2.246c.048,1.619.106,3.24.255,4.854a169.084,169.084,0,0,0,2.848,19.187,147.048,147.048,0,0,0,12.712,35.246,83,83,0,0,0,4.986,8.826q1.454,2.2,2.984,4.346a25.482,25.482,0,0,0,2.4,3.214,10.746,10.746,0,0,0,4.359,2.262c3.688,1.275,7.125-2.045,7.274-5.54A13.382,13.382,0,0,0,1027.746,1551.309Z" transform="translate(-805.933 -1191.029)" fill="#ffe8d4"/>
    <path id="Path_735" data-name="Path 735" d="M1214.938,2023.867a16.05,16.05,0,0,0-2.714-3.612c-.682-.721-1.465-1.37-2.192-2.045-1.933-1.807-3.971-3.759-6.609-4.435a4.6,4.6,0,0,0-4.417,1.167,4.786,4.786,0,0,0-1.167,4.417c.331,2.346,1.954,4.383,3.32,6.231,1.682,2.281,3.346,4.742,5.824,6.235a5.887,5.887,0,0,0,7.045-.909A6.13,6.13,0,0,0,1214.938,2023.867Z" transform="translate(-975.087 -1639.292)" fill="#ffe8d4"/>
    <path id="Path_736" data-name="Path 736" d="M3411.862,680.419c-.625-1.537-1.035-3.179-1.781-4.666-.573-1.143-1.216-2.259-1.848-3.37a113.8,113.8,0,0,0-8.167-12.615,132.685,132.685,0,0,0-21.413-22.8,76.146,76.146,0,0,0-7.709-5.659c-.585-.372-1.166-.755-1.766-1.095a9.467,9.467,0,0,0-1.095-.5c-.074-.056-.591-.327-.771-.429q-1.893-1.071-3.82-2.082a4.521,4.521,0,0,0-5.781,1.154,4.473,4.473,0,0,0,.349,5.885c1.186,1.086,2.3,2.273,3.51,3.328l.186.186.483.621c.268.3.558.587.844.872q.8.8,1.595,1.6c2.2,2.231,4.479,4.395,6.67,6.642a167.378,167.378,0,0,1,11.851,13.474c2.746,3.623,5.3,7.382,7.767,11.2q1.942,3.01,3.729,6.118.869,1.513,1.7,3.052c.3.558.576,1.149.9,1.7a13.775,13.775,0,0,0,1.2,1.655c.775,1.175,1.45,2.437,2.14,3.66,1.128,2,2.173,4.491,4.43,5.454a6.265,6.265,0,0,0,5.342.3,6.146,6.146,0,0,0,3.477-3.891C3415.054,687.041,3413.048,683.336,3411.862,680.419Z" transform="translate(-2732.759 -510.137)" fill="#ffe8d4"/>
    <path id="Path_737" data-name="Path 737" d="M1909.549,629.58l-11.73,2.16a10.061,10.061,0,0,0-8.239,9.894V984.057a10.059,10.059,0,0,0,6.821,9.524l12.431,4.229Z" transform="translate(-1538.312 -512.543)" fill="#1c35ab"/>
    <rect id="Rectangle_246" data-name="Rectangle 246" width="189.805" height="368.267" rx="31.11" transform="translate(365.454 117.037)" fill="#315ec5"/>
    <path id="Path_738" data-name="Path 738" d="M2190.888,691.076V1009.69a11.629,11.629,0,0,1-6.878,10.555,12.066,12.066,0,0,1-5.038,1.091H2033.816a11.778,11.778,0,0,1-11.916-11.646V691.076a11.784,11.784,0,0,1,11.916-11.646h145.167a12.067,12.067,0,0,1,5.038,1.091A11.65,11.65,0,0,1,2190.888,691.076Z" transform="translate(-1646.034 -553.126)" fill="#d3e2ff"/>
    <path id="Path_739" data-name="Path 739" d="M2190.855,691.342v23.152h-169V691.342a11.916,11.916,0,0,1,11.916-11.912h145.167a11.9,11.9,0,0,1,11.912,11.912Z" transform="translate(-1646.001 -553.126)" fill="#fff"/>
    <rect id="Rectangle_247" data-name="Rectangle 247" width="138.466" height="124.384" transform="translate(391.124 246.539)" fill="#fff"/>
    <rect id="Rectangle_248" data-name="Rectangle 248" width="138.466" height="14.595" transform="translate(391.124 246.539)" fill="#fe677a"/>
    <g id="Group_297" data-name="Group 297" transform="translate(398.456 285.129)" opacity="0.44">
      <rect id="Rectangle_249" data-name="Rectangle 249" width="13.658" height="13.658" fill="#ffc280"/>
    </g>
    <g id="Group_298" data-name="Group 298" transform="translate(414.245 285.129)" opacity="0.44">
      <rect id="Rectangle_250" data-name="Rectangle 250" width="13.658" height="13.658" fill="#ffc280"/>
    </g>
    <g id="Group_299" data-name="Group 299" transform="translate(430.035 285.129)" opacity="0.44">
      <rect id="Rectangle_251" data-name="Rectangle 251" width="13.658" height="13.658" fill="#ffc280"/>
    </g>
    <rect id="Rectangle_252" data-name="Rectangle 252" width="13.658" height="13.658" transform="translate(445.823 285.129)" fill="#ffc280"/>
    <rect id="Rectangle_253" data-name="Rectangle 253" width="13.658" height="13.658" transform="translate(461.611 285.129)" fill="#ffc280"/>
    <rect id="Rectangle_254" data-name="Rectangle 254" width="13.658" height="13.658" transform="translate(477.4 285.129)" fill="#ffc280"/>
    <rect id="Rectangle_255" data-name="Rectangle 255" width="13.658" height="13.658" transform="translate(493.188 285.129)" fill="#ffc280"/>
    <rect id="Rectangle_256" data-name="Rectangle 256" width="13.658" height="13.658" transform="translate(508.976 285.129)" fill="#ffc280"/>
    <rect id="Rectangle_257" data-name="Rectangle 257" width="13.658" height="13.658" transform="translate(398.456 301.247)" fill="#dd8f79"/>
    <rect id="Rectangle_258" data-name="Rectangle 258" width="13.658" height="13.658" transform="translate(414.245 301.247)" fill="#ffc280"/>
    <rect id="Rectangle_259" data-name="Rectangle 259" width="13.658" height="13.658" transform="translate(430.035 301.247)" fill="#ffc280"/>
    <rect id="Rectangle_260" data-name="Rectangle 260" width="13.658" height="13.658" transform="translate(445.823 301.247)" fill="#ffc280"/>
    <rect id="Rectangle_261" data-name="Rectangle 261" width="13.658" height="13.658" transform="translate(461.611 301.247)" fill="#ffc280"/>
    <rect id="Rectangle_262" data-name="Rectangle 262" width="13.658" height="13.658" transform="translate(477.4 301.247)" fill="#ffc280"/>
    <rect id="Rectangle_263" data-name="Rectangle 263" width="13.658" height="13.658" transform="translate(493.188 301.247)" fill="#ffc280"/>
    <rect id="Rectangle_264" data-name="Rectangle 264" width="13.658" height="13.658" transform="translate(508.976 301.247)" fill="#ffc280"/>
    <rect id="Rectangle_265" data-name="Rectangle 265" width="13.658" height="13.658" transform="translate(398.456 317.364)" fill="#dd8f79"/>
    <rect id="Rectangle_266" data-name="Rectangle 266" width="13.658" height="13.658" transform="translate(414.245 317.364)" fill="#ffc280"/>
    <rect id="Rectangle_267" data-name="Rectangle 267" width="13.658" height="13.658" transform="translate(430.035 317.364)" fill="#fe677a"/>
    <rect id="Rectangle_268" data-name="Rectangle 268" width="13.658" height="13.658" transform="translate(445.823 317.364)" fill="#ffc280"/>
    <rect id="Rectangle_269" data-name="Rectangle 269" width="13.658" height="13.658" transform="translate(461.611 317.364)" fill="#ffc280"/>
    <rect id="Rectangle_270" data-name="Rectangle 270" width="13.658" height="13.658" transform="translate(477.4 317.364)" fill="#ffc280"/>
    <rect id="Rectangle_271" data-name="Rectangle 271" width="13.658" height="13.658" transform="translate(493.188 317.364)" fill="#ffc280"/>
    <rect id="Rectangle_272" data-name="Rectangle 272" width="13.658" height="13.658" transform="translate(508.976 317.364)" fill="#ffc280"/>
    <rect id="Rectangle_273" data-name="Rectangle 273" width="13.658" height="13.658" transform="translate(398.456 333.481)" fill="#dd8f79"/>
    <rect id="Rectangle_274" data-name="Rectangle 274" width="13.658" height="13.658" transform="translate(414.245 333.481)" fill="#ffc280"/>
    <rect id="Rectangle_275" data-name="Rectangle 275" width="13.658" height="13.658" transform="translate(430.035 333.481)" fill="#ffc280"/>
    <rect id="Rectangle_276" data-name="Rectangle 276" width="13.658" height="13.658" transform="translate(445.823 333.481)" fill="#ffc280"/>
    <rect id="Rectangle_277" data-name="Rectangle 277" width="13.658" height="13.658" transform="translate(461.611 333.481)" fill="#ffc280"/>
    <rect id="Rectangle_278" data-name="Rectangle 278" width="13.658" height="13.658" transform="translate(477.4 333.481)" fill="#ffc280"/>
    <rect id="Rectangle_279" data-name="Rectangle 279" width="13.658" height="13.658" transform="translate(493.188 333.481)" fill="#ffc280"/>
    <rect id="Rectangle_280" data-name="Rectangle 280" width="13.658" height="13.658" transform="translate(508.976 333.481)" fill="#ffc280"/>
    <rect id="Rectangle_281" data-name="Rectangle 281" width="13.658" height="13.658" transform="translate(398.456 349.599)" fill="#dd8f79"/>
    <rect id="Rectangle_282" data-name="Rectangle 282" width="13.658" height="13.658" transform="translate(414.245 349.599)" fill="#ffc280"/>
    <rect id="Rectangle_283" data-name="Rectangle 283" width="13.658" height="13.658" transform="translate(430.035 349.599)" fill="#ffc280"/>
    <rect id="Rectangle_284" data-name="Rectangle 284" width="13.658" height="13.658" transform="translate(445.823 349.599)" fill="#ffc280"/>
    <rect id="Rectangle_285" data-name="Rectangle 285" width="13.658" height="13.658" transform="translate(461.611 349.599)" fill="#ffc280"/>
    <rect id="Rectangle_286" data-name="Rectangle 286" width="13.658" height="13.658" transform="translate(477.4 349.599)" fill="#ffc280"/>
    <g id="Group_300" data-name="Group 300" transform="translate(493.188 349.599)" opacity="0.44">
      <rect id="Rectangle_287" data-name="Rectangle 287" width="13.658" height="13.658" fill="#ffc280"/>
    </g>
    <g id="Group_301" data-name="Group 301" transform="translate(508.976 349.599)" opacity="0.44">
      <rect id="Rectangle_288" data-name="Rectangle 288" width="13.658" height="13.658" fill="#ffc280"/>
    </g>
    <rect id="Rectangle_289" data-name="Rectangle 289" width="11.423" height="5.473" rx="2.736" transform="translate(399.574 270.68)" fill="#452964"/>
    <rect id="Rectangle_290" data-name="Rectangle 290" width="11.423" height="5.473" rx="2.736" transform="translate(415.362 270.68)" fill="#452964"/>
    <rect id="Rectangle_291" data-name="Rectangle 291" width="11.423" height="5.473" rx="2.736" transform="translate(431.15 270.68)" fill="#452964"/>
    <rect id="Rectangle_292" data-name="Rectangle 292" width="11.423" height="5.473" rx="2.736" transform="translate(446.938 270.68)" fill="#452964"/>
    <rect id="Rectangle_293" data-name="Rectangle 293" width="11.423" height="5.473" rx="2.736" transform="translate(462.727 270.68)" fill="#452964"/>
    <rect id="Rectangle_294" data-name="Rectangle 294" width="11.423" height="5.473" rx="2.736" transform="translate(478.515 270.68)" fill="#452964"/>
    <rect id="Rectangle_295" data-name="Rectangle 295" width="11.423" height="5.473" rx="2.736" transform="translate(494.305 270.68)" fill="#452964"/>
    <rect id="Rectangle_296" data-name="Rectangle 296" width="11.423" height="5.473" rx="2.736" transform="translate(510.093 270.68)" fill="#452964"/>
    <path id="Path_740" data-name="Path 740" d="M2190.855,691.342v14.314l-169,257.325V691.342a11.916,11.916,0,0,1,11.916-11.912h145.167a11.914,11.914,0,0,1,11.912,11.91Z" transform="translate(-1646.001 -553.126)" fill="#fff" opacity="0.38"/>
    <path id="Path_741" data-name="Path 741" d="M2325.192,1727.652a4.929,4.929,0,0,0-5.51-.387,17.889,17.889,0,0,0-3.108,2.26,31.392,31.392,0,0,0-2.461,3.3l-3.573,4.908c-.137.186-.292.372-.426.574l-.666.84c-.892,1.115-1.777,2.244-2.562,3.445q-1.651,2.534-3.3,5.068c-4.441,6.813-8.94,13.593-13.3,20.449-8.642,13.593-17.532,27.061-25.879,40.838-4.733,7.808-9.312,15.706-13.991,23.551a4.669,4.669,0,0,0,1.658,6.32,4.743,4.743,0,0,0,6.32-1.66l3.542-4.925q.885-1.232,1.772-2.463l.759-1.056c.206-.286.954-1,1.007-1.379l.391-.487c.511-.636,1.021-1.275,1.5-1.935.593-.82,1.169-1.649,1.753-2.474l3.506-4.947c4.67-6.588,9.17-13.288,13.7-19.977q13.57-20.047,26.955-40.2c2.458-3.718,5.07-7.365,7.167-11.3,1.082-2.03,2.3-3.989,3.463-5.971.548-.929,1.1-1.859,1.641-2.788a12.791,12.791,0,0,0,1.413-4.4A5.019,5.019,0,0,0,2325.192,1727.652Z" transform="translate(-1831.573 -1405.624)" fill="#fff" opacity="0.38"/>
    <path id="Path_742" data-name="Path 742" d="M2647.211,1764.206a3.449,3.449,0,0,0-2.995-1.718c-2.045-.149-3.324,1.115-4.519,2.549-.976,1.173-1.969,2.329-2.857,3.569-1.55,2.158-3.056,4.348-4.582,6.521-2.974,4.227-5.865,8.5-8.765,12.781-5.837,8.6-11.682,17.194-17.314,25.935-3.186,4.945-6.453,9.821-9.785,14.669a3.21,3.21,0,0,0,1.141,4.35,3.253,3.253,0,0,0,4.348-1.141c3.067-4.276,6.151-8.512,9.343-12.691,3.149-4.123,6.32-8.226,9.375-12.422,6.135-8.431,12.37-16.794,18.361-25.323l4.954-7.051c.87-1.238,1.645-2.506,2.417-3.813a18.594,18.594,0,0,0,1.18-2.164A4.854,4.854,0,0,0,2647.211,1764.206Z" transform="translate(-2113.364 -1434.836)" fill="#fff" opacity="0.38"/>
    <path id="Path_743" data-name="Path 743" d="M2900.818,695.855v318.613a11.629,11.629,0,0,1-6.878,10.555V685.3A11.641,11.641,0,0,1,2900.818,695.855Z" transform="translate(-2355.964 -557.904)" fill="#1c35ab"/>
    <rect id="Rectangle_297" data-name="Rectangle 297" width="132.314" height="21.127" rx="10.564" transform="translate(393.798 388.728)" fill="#fff"/>
    <rect id="Rectangle_298" data-name="Rectangle 298" width="132.314" height="21.127" rx="10.564" transform="translate(393.798 419.522)" fill="#fff" opacity="0.69"/>
    <path id="Path_744" data-name="Path 744" d="M2144.184,2125.551c.175.054.347.119.524.164a1.1,1.1,0,0,0,.266.082c.318-.021-.827-.444-.294-.155a2.21,2.21,0,0,0,.816.29c.221.033.454.041.679.069l.372.046c-.532-.067.2.022.4.035,1.19.078,2.389.126,3.58.16,3.171.091,6.346.171,9.52.2q12.912.129,25.827.186,14.8.041,29.595.054h26.665a150.22,150.22,0,0,0,17.354-.567,9.049,9.049,0,0,0,.9-.16c.1-.021.2-.035.294-.061.041-.011.084-.015.125-.028.822-.255.015.015-.186.015a1.3,1.3,0,0,0,0-2.6l.541.154-.316-.134c-.041-.011-.084-.015-.125-.026-.095-.026-.186-.043-.292-.063-.311-.065-.615-.128-.93-.165-.49-.058-.983-.091-1.474-.134-1.2-.1-2.4-.186-3.606-.248-3.184-.139-6.375-.186-9.562-.186h-25.877q-14.8,0-29.6.045-13.306.037-26.611.166-5.1.053-10.2.186c-1.335.032-2.666.073-4,.134-.558.026-1.1.039-1.645.076-.154.011-.894.1-.355.033l-.34.041c-.238.03-.483.039-.719.074a2.632,2.632,0,0,0-.68.186l-.273.21.467-.27c-.044-.019-.219.071-.27.083-.186.045-.372.115-.558.173a1.011,1.011,0,0,0,0,1.935Z" transform="translate(-1745.006 -1727.917)" fill="#fe677a"/>
    <path id="Path_745" data-name="Path 745" d="M2151.423,2164.22a57.149,57.149,0,0,0,8.615.444q4.529.037,9.057.082c2.958.033,5.914.052,8.871.039l4.436-.017c.744,0,1.478,0,2.218-.022a7.11,7.11,0,0,0,2.231-.186.777.777,0,0,0,0-1.487,5.918,5.918,0,0,0-2.045-.186c-.744-.017-1.487-.022-2.22-.026l-4.436-.019q-4.529-.017-9.055.039-4.437.05-8.873.082a58.431,58.431,0,0,0-8.8.446.429.429,0,0,0,0,.822Z" transform="translate(-1751.23 -1760.773)" fill="#ffc280"/>
    <path id="Path_746" data-name="Path 746" d="M2287.14,1212.4l1.487.63a8.789,8.789,0,0,0,2.6.632c1.169.134,2.342.311,3.517.392,2.27.158,4.573.1,6.848.147,4.566.091,9.13.091,13.7.1,4.5,0,9.009.032,13.511.019s9.014-.271,13.511-.415c2.6-.082,5.183-.23,7.774-.383,1.238-.074,2.469-.171,3.7-.3a19.262,19.262,0,0,0,2.341-.262,4.435,4.435,0,0,0,2.169-1.569,2.249,2.249,0,0,0,0-3.1,5.156,5.156,0,0,0-1.4-1.242,6.2,6.2,0,0,0-2.37-.515c-1.173-.117-2.342-.244-3.517-.314-2.281-.134-4.564-.307-6.849-.372l-13.7-.433c-4.5-.141-9.01-.03-13.511-.024s-9.009-.028-13.511.063l-7.772.154c-1.242.024-2.469.2-3.7.337a13.587,13.587,0,0,0-2.461.346c-.775.24-1.6.675-2.363,1-1.941.823-1.941,4.289,0,5.11Z" transform="translate(-1860.786 -981.276)" fill="#452964"/>
    <path id="Path_747" data-name="Path 747" d="M2719.148,1505l-.508,1.164,12.827,14.091,1.539-.612s-5.073-9.378-6.506-10.994S2719.148,1505,2719.148,1505Z" transform="translate(-2213.252 -1225.224)"/>
    <path id="Path_748" data-name="Path 748" d="M2734.768,1497l-13.4-15.03,7.345-5.259,12.466,14.734S2736.811,1498.259,2734.768,1497Z" transform="translate(-2215.474 -1202.193)" fill="#261452"/>
    <path id="Path_749" data-name="Path 749" d="M2729.95,1488.79l5.885-4.22,10.436,12.371-4.82,4.917Z" transform="translate(-2222.459 -1208.592)" fill="#fff"/>
    <path id="Path_750" data-name="Path 750" d="M3079.959,2458.653s6.783,17.233,6.692,19.294-8.1,8.443-8.1,8.443,1.236,5.687,4.495,5.068,14.686-11.648,14.314-12.658-2.447-3.5-2.458-4.887-1.359-20.767-3.226-24.516S3079.959,2458.653,3079.959,2458.653Z" transform="translate(-2506.255 -1993.507)" fill="#f4b49d"/>
    <path id="Path_751" data-name="Path 751" d="M3027.044,2608.252s1.443,3.22,2.975,3.357,12.066-9.447,13.554-10.41,2.285.764,4.313,4.833,2.43,8.232,1.9,8.657-32.393,11.327-34.8,8.652-1.759-3.69,1.381-7.1S3026.544,2607.291,3027.044,2608.252Z" transform="translate(-2453.32 -2117.431)" fill="#180530"/>
    <path id="Path_752" data-name="Path 752" d="M3133.025,2492.91s1.967,18.415,1.34,20.382-10.052,5.99-10.052,5.99-.318,5.811,2.989,6.079,17.253-7.33,17.164-8.4-1.43-4.021-1.073-5.363,4.2-20.382,3.4-24.494S3133.025,2492.91,3133.025,2492.91Z" transform="translate(-2543.505 -2023.941)" fill="#fdbfa6"/>
    <path id="Path_753" data-name="Path 753" d="M3062.831,2644.96s.537,3.487,1.967,4.023,14.143-5.906,15.833-6.439,2,1.344,2.872,5.815.158,8.581-.469,8.849-34.239,2.325-35.846-.894-.716-4.023,3.218-6.48S3062.6,2643.9,3062.831,2644.96Z" transform="translate(-2480.106 -2151.229)" fill="#452964"/>
    <path id="Path_754" data-name="Path 754" d="M2814.513,1553.8c-1.431,1.636-4.809,4.4-13.507-3.378s-17.907-25.583-21.285-26.176a7.089,7.089,0,0,1-3.277-1.757,16.353,16.353,0,0,1-2.863-3.381l.511-2.25,3.638,3.9,5.146-4.6.017-.017h0c-.061-.076-.587-.744-1.835-2.655-1.331-2.045-.818-5.116,0-6.551s1.841-.1,2.147,2.662,3.071,5.729,3.789,7.367,1.125,6.135,1.125,6.135c2.354,3.173,20.363,17.5,20.363,17.5s5.22.511,6.756,2.456S2815.946,1552.162,2814.513,1553.8Z" transform="translate(-2257.979 -1226.333)" fill="#ffd5c6"/>
    <path id="Path_755" data-name="Path 755" d="M2782.875,1559.07c-.311.34-4.943,5.408-6.432,6.321a16.351,16.351,0,0,1-2.863-3.381l.511-2.249,3.638,3.9Z" transform="translate(-2257.979 -1269.243)" fill="#b8697c" opacity="0.41"/>
    <path id="Path_756" data-name="Path 756" d="M2965.327,1602.655s-5.99,14.535-4.763,16.273,6.551,10.847,6.038,13.2,6.447,2.045,8.7-14.738S2965.327,1602.655,2965.327,1602.655Z" transform="translate(-2410.068 -1304.661)" fill="#d6cce2"/>
    <path id="Path_757" data-name="Path 757" d="M3041.477,1843.207c-.915,17.77-2.2,57.243-2.2,57.243s-7.787,1.1-17.038,2.567-20.882-1.009-20.882-1.009v-1.649c-2.655,1.558-15.112,1.649-15.112,1.649s-9.352-26.334-12.981-38.791c-.558-1.918-.983-3.508-1.214-4.622-1.742-8.335,12.455-59.534,14.836-71.349s5.4-23.269,5.4-23.269,11.356-4.214,13.2-4.765,7.233,5.4,7.233,5.4l12.732-1.463s8.061,11.9,10.442,20.789S3042.393,1825.439,3041.477,1843.207Z" transform="translate(-2419.436 -1432.15)" fill="#452964"/>
    <g id="Group_302" data-name="Group 302" transform="translate(600.559 331.824)" opacity="0.35">
      <path id="Path_758" data-name="Path 758" d="M3239.117,1945a.8.8,0,0,1-.1,0,.652.652,0,0,1-.546-.744c.2-1.3.392-2.662.58-4.043a.649.649,0,1,1,1.286.177c-.186,1.387-.385,2.753-.582,4.06A.649.649,0,0,1,3239.117,1945Zm1.115-8.111h-.082a.65.65,0,0,1-.557-.725c.167-1.333.331-2.7.487-4.058a.649.649,0,1,1,1.288.149c-.156,1.365-.32,2.733-.487,4.071A.649.649,0,0,1,3240.232,1936.888Zm.93-8.133a.44.44,0,0,1-.067,0,.647.647,0,0,1-.578-.712c.139-1.342.275-2.71.4-4.067a.654.654,0,0,1,1.3.123c-.128,1.361-.264,2.733-.405,4.079A.649.649,0,0,1,3241.162,1928.755Zm.77-8.15h-.056a.648.648,0,0,1-.591-.7c.115-1.352.225-2.721.325-4.075a.652.652,0,1,1,1.3.1c-.1,1.355-.212,2.731-.327,4.09a.649.649,0,0,1-.645.587Zm.615-8.163h-.042a.65.65,0,0,1-.6-.682c.089-1.357.175-2.729.251-4.079a.652.652,0,0,1,1.3.073c-.076,1.355-.162,2.731-.251,4.09a.649.649,0,0,1-.653.6Zm.461-8.179h-.03a.65.65,0,0,1-.619-.678c.065-1.357.123-2.731.175-4.09a.651.651,0,1,1,1.3.048c-.05,1.359-.109,2.736-.173,4.09a.651.651,0,0,1-.641.638Zm.309-8.18h-.019a.65.65,0,0,1-.63-.667c.039-1.352.071-2.725.1-4.09a.651.651,0,1,1,1.3.024c-.026,1.365-.058,2.744-.1,4.1a.649.649,0,0,1-.645.641Zm.154-8.179h0a.649.649,0,0,1-.643-.654c.013-1.264.019-2.547.019-3.809v-.277a.649.649,0,0,1,.649-.649h0a.649.649,0,0,1,.649.649v.277c0,1.266,0,2.552-.017,3.82a.649.649,0,0,1-.649.645Zm0-8.179a.649.649,0,0,1-.648-.643c-.013-1.357-.035-2.731-.063-4.09a.651.651,0,1,1,1.3-.028c.028,1.359.05,2.738.065,4.1a.65.65,0,0,1-.643.656Zm-.169-8.179a.647.647,0,0,1-.647-.63c-.043-1.357-.093-2.731-.149-4.09a.651.651,0,0,1,1.3-.054c.056,1.357.106,2.735.147,4.09a.649.649,0,0,1-.628.669Zm-.338-8.179a.649.649,0,0,1-.647-.615c-.071-1.359-.15-2.731-.234-4.078a.652.652,0,1,1,1.3-.082c.086,1.353.166,2.729.236,4.09a.649.649,0,0,1-.615.68Zm-.515-8.168a.65.65,0,0,1-.647-.6c-.1-1.353-.208-2.723-.323-4.071a.653.653,0,0,1,1.3-.11c.117,1.352.227,2.727.327,4.09a.649.649,0,0,1-.6.7Zm-.7-8.153a.647.647,0,0,1-.645-.586c-.132-1.353-.273-2.719-.42-4.064a.649.649,0,0,1,1.29-.139c.149,1.348.29,2.72.422,4.077a.649.649,0,0,1-.584.708Zm-.891-8.135a.648.648,0,0,1-.643-.571c-.164-1.352-.338-2.714-.519-4.049a.649.649,0,1,1,1.287-.173c.186,1.34.357,2.708.521,4.065a.649.649,0,0,1-.558.723.58.58,0,0,1-.087,0Zm-1.089-8.109a.652.652,0,0,1-.642-.558c-.2-1.346-.407-2.7-.623-4.036a.65.65,0,0,1,1.283-.206c.214,1.339.426,2.7.625,4.053a.649.649,0,0,1-.548.744.534.534,0,0,1-.095,0Zm-1.3-8.079a.649.649,0,0,1-.639-.537c-.234-1.34-.48-2.692-.731-4.015a.649.649,0,0,1,1.275-.242c.251,1.329.5,2.686.734,4.034a.649.649,0,0,1-.528.744.548.548,0,0,1-.111.011Z" transform="translate(-3235.881 -1811.373)"/>
      <path id="Path_759" data-name="Path 759" d="M3231.66,1788.293a.651.651,0,0,1-.636-.519q-.2-1-.417-2.008a.649.649,0,1,1,1.27-.27q.212,1.009.42,2.017a.651.651,0,0,1-.508.766A.629.629,0,0,1,3231.66,1788.293Z" transform="translate(-3230.593 -1784.983)"/>
    </g>
    <path id="Path_760" data-name="Path 760" d="M3005.109,1959.236c.256,12.775,2.214,56.961,2.214,56.961-2.655,1.558-15.112,1.649-15.112,1.649s-9.353-26.334-12.981-38.791a16.966,16.966,0,0,0,11.68-5c7.064-6.653,10.505-56.063,12.169-65.566s4.244-6.607,4.244-6.607-2.231,40.3-2.231,55.25C3005.09,1957.905,3005.1,1958.61,3005.109,1959.236Z" transform="translate(-2425.399 -1547.988)" fill="#381c57"/>
    <path id="Path_761" data-name="Path 761" d="M2873.8,1216.507l-5.378,4.714-4.986,4.37s-.483-2.244-1.067-4.924c-.478-2.175-1.026-4.647-1.441-6.427-.169-.721-.316-1.333-.427-1.768-.744-2.844-3.121-6.878-5.966-6.789s-12.935,1.283-16.054-.825-3.1-8.845-3.742-10.128-4.408-1.474-4.6-2.868c-.3-2.184,5.315-4.16,5.315-8.012s2.2-9.267,5.229-13.571a8.557,8.557,0,0,1,2.443-2.318,12.094,12.094,0,0,1,6.363-1.718s12.293,2.66,16.145,7.982,3.671,17.43,4.313,24.31S2873.8,1216.507,2873.8,1216.507Z" transform="translate(-2304.014 -949.44)" fill="#fdbfa6"/>
    <path id="Path_762" data-name="Path 762" d="M2930.78,1216.467l-5.378,4.714a16.338,16.338,0,0,1-6.053-.558c-.478-2.175-1.026-4.647-1.441-6.427,2.006-.476,4.906-1.366,6.375-2.777,2.381-2.292,2.29-9.505.463-9.836s-4.127,1.773-7.882.584-3.393-5.674-3.393-5.674l7.791-4.255s1.536-4.09.372-6.408-3.3-1.982-5.372,2.006-2.463,2.446-2.463,2.446c.186-4.276-6.177-9.732-8.1-15.136s-5.577-7.235-5.577-7.235h0a12.094,12.094,0,0,1,6.363-1.718s12.293,2.66,16.145,7.982,3.672,17.43,4.313,24.31S2930.78,1216.467,2930.78,1216.467Z" transform="translate(-2360.995 -949.399)" fill="#b8697c" opacity="0.41"/>
    <path id="Path_763" data-name="Path 763" d="M3044.665,1433.427s-9.159,10.038-11.083,14.979c-1.115,2.889-3.934,5.869-6.077,7.85-1.528,1.413-2.718,2.314-2.718,2.314s-16.208-.639-20.423-.639c0,0-.21-.534-.582-1.418-1.279-3.045-4.489-10.224-7.754-14.061-4.213-4.947-7.235-6.045-8.7-10.349s.186-18.4.643-24.364-.979-14.656.459-14.838h0c.093,0,2.642.212,6.865-3.112s4.4-6.417,4.406-6.549h0s7.867,2.707,18.032,11.407S3052.789,1426.775,3044.665,1433.427Z" transform="translate(-2431.506 -1126.099)" fill="#fcf4e7"/>
    <path id="Path_764" data-name="Path 764" d="M3102.172,1572.458c-1.528,1.413-2.718,2.314-2.718,2.314s-16.208-.639-20.423-.639c0,0-.21-.533-.582-1.418,3.718.5,13.253,1.42,17.177-1.625,4.928-3.828,7.676-18.032,4.746-21.321-4.322-4.863-9.667-8.923-14.314-13.489a66.547,66.547,0,0,1-5.934-6.389,8.916,8.916,0,0,1-1.487-2.318c-.166-.461-.342-1.859.606-1.549a.768.768,0,0,1,.2.1,2.02,2.02,0,0,1,.372.357c1.474,1.651,2.928,3.324,4.461,4.919q1.24,1.288,2.528,2.532a14.249,14.249,0,0,0,2.747,2.554c5.949,5.313,13.1,12.548,14.746,13.013s5.679-.091,7.053,0C3112.49,1549.573,3104.918,1566.433,3102.172,1572.458Z" transform="translate(-2506.174 -1242.305)" fill="#d6cce2"/>
    <path id="Path_765" data-name="Path 765" d="M3182.362,1650s-9.8,24.862-12.582,34.577a19.331,19.331,0,0,0,8.332,2.48s.071-4.166,4.25-9.423,11.526-22.943,11.323-27.639C3193.685,1650,3184.829,1648.345,3182.362,1650Z" transform="translate(-2580.526 -1342.669)" fill="#ffd5c6"/>
    <path id="Path_766" data-name="Path 766" d="M2865.765,1267.364c-.048.236-.106.47-.147.71a3.332,3.332,0,0,0-.128.929,1.167,1.167,0,0,0,2.288.311,3.286,3.286,0,0,0-.154-1.956.987.987,0,0,0-.929-.708.976.976,0,0,0-.929.708Z" transform="translate(-2332.797 -1031.183)" fill="#261452"/>
    <path id="Path_767" data-name="Path 767" d="M3117.74,2015.809a.649.649,0,0,1-.649-.625l-2.212-56.959c-.255-12.665,2.19-56.974,2.214-57.42a.652.652,0,0,1,1.3.073c-.024.446-2.465,44.7-2.212,57.308l2.212,56.948a.649.649,0,0,1-.625.673Z" transform="translate(-2535.816 -1546.949)"/>
    <path id="Path_768" data-name="Path 768" d="M3157.4,1831.482c1.532,1.519,3.685,2.261,5.651,3.047s4.54,1.766,6.672,1.264a.6.6,0,0,0,0-1.153c-.993-.221-2.017-.212-3.017-.431a26.091,26.091,0,0,1-2.975-.874,19.739,19.739,0,0,1-5.649-2.541c-.479-.372-1.147.234-.689.688Z" transform="translate(-2570.314 -1490.361)"/>
    <path id="Path_769" data-name="Path 769" d="M2895.1,1150s2.541-.684,5.205,4.192,4.558,9.306,7.155,11.966a6.332,6.332,0,0,1,1.329,6.213,12.622,12.622,0,0,0,2.724-5.452c.95-3.672,9.813-.507,4.748,7.406,0,0,.619,4.666,6.32,10.817,0,0-3.346,7.48,4.439,12.989s18.032,7.436,20.114,11.052c0,0,1.5-2.947-.714-9.594s-6.291-8.263-11.58-9.62c-5.133-1.318-9.91-3.3-9.72-4.69s6.921-9.168,4.263-22.782c-1.221-6.25-3.6-11.223-8.873-14.965-4.685-3.326-12.07-3.978-18.114-2.813-1.164.225-9.28,2.5-8.352,4.647C2894.205,1149.738,2894.755,1149.911,2895.1,1150Z" transform="translate(-2355.991 -931.481)" fill="#541d10"/>
    <path id="Path_770" data-name="Path 770" d="M3044.5,1362.564a23.249,23.249,0,0,0,2.381-.206.211.211,0,0,1,.136.015.185.185,0,0,1,.065.1c.2.558-.342,1.035-.874,1.024l-2.443-.045c-.372,0-1.115-.1-.827-.641C3043.182,1362.341,3044.078,1362.569,3044.5,1362.564Z" transform="translate(-2477.209 -1109.095)" fill="#fe677a"/>
    <g id="Group_303" data-name="Group 303" transform="translate(534.165 238.441)" opacity="0.17">
      <path id="Path_771" data-name="Path 771" d="M2873.476,1286.16a3.107,3.107,0,0,0,1.2,1.807,3.461,3.461,0,0,0,1.454.71c1.983.392,4.948-1.829,4.369-4.012-.571-2.153-3.685-2.437-5.332-1.528A3.032,3.032,0,0,0,2873.476,1286.16Z" transform="translate(-2873.439 -1282.65)" fill="#fe677a"/>
    </g>
    <circle id="Ellipse_187" data-name="Ellipse 187" cx="5.651" cy="5.651" r="5.651" transform="translate(552.448 240.888)" fill="#fe677a"/>
    <ellipse id="Ellipse_188" data-name="Ellipse 188" cx="3.848" cy="4.597" rx="3.848" ry="4.597" transform="translate(528.876 232.283)" fill="none" stroke="#315ec5" stroke-miterlimit="10" stroke-width="3"/>
    <g id="Group_304" data-name="Group 304" transform="translate(528.876 232.283)" opacity="0.36">
      <ellipse id="Ellipse_189" data-name="Ellipse 189" cx="3.848" cy="4.597" rx="3.848" ry="4.597" fill="#fff"/>
    </g>
    <path id="Path_772" data-name="Path 772" d="M2884.773,1272.459a44.05,44.05,0,0,0,4.647-.026c1.534,0,3.092.039,4.638.035,1.487,0,2.974,0,4.462-.024.743,0,1.487-.045,2.231-.03a9.006,9.006,0,0,0,2.3-.048.3.3,0,0,0,0-.571,7.627,7.627,0,0,0-2.119-.056c-.719.03-1.487-.011-2.231-.02-1.545-.021-3.092-.022-4.647-.026-1.487,0-2.974.03-4.452.033a45.579,45.579,0,0,0-4.833-.024.378.378,0,0,0,0,.757Z" transform="translate(-2348.193 -1035.239)" fill="#315ec5"/>
    <path id="Path_773" data-name="Path 773" d="M2872.064,1242.141a7.381,7.381,0,0,0-.654-.823,4.444,4.444,0,0,0-.844-.669,3.6,3.6,0,0,0-1-.452c-.383-.095-.994-.169-1.277.186a.411.411,0,0,0,.186.684.976.976,0,0,0,.293.019c.112,0,.126-.019.216-.02a1.153,1.153,0,0,1,.394.048,3.822,3.822,0,0,1,.823.322,4.762,4.762,0,0,1,1.426,1.048c.2.236.625-.08.439-.338Z" transform="translate(-2334.994 -1009.583)" fill="#261452"/>
    <path id="Path_774" data-name="Path 774" d="M2870.227,1330.049a6.527,6.527,0,0,0,3.647-.048,7.378,7.378,0,0,0,3.2-1.8c.268-.275-.126-.643-.413-.413a8.283,8.283,0,0,1-2.991,1.615,9.9,9.9,0,0,1-3.4.268c-.219-.015-.249.314-.05.372Z" transform="translate(-2336.551 -1080.9)" fill="#261452"/>
    <path id="Path_775" data-name="Path 775" d="M3075.5,1479.615a14.971,14.971,0,0,1,.071-3.4c.147-1.032.784-2.182.688-3.208a.719.719,0,0,0-1.212-.5c-.864.771-.979,2.352-1.078,3.441a10.2,10.2,0,0,0,.4,3.824C3074.543,1480.371,3075.564,1480.286,3075.5,1479.615Z" transform="translate(-2502.498 -1198.61)" fill="#d6cce2"/>
    <path id="Path_776" data-name="Path 776" d="M2995.851,1276.331a.683.683,0,0,0-.929-.61,1.308,1.308,0,1,0,1.521,2.06c.6-.693.7-2.013-.271-2.433a1.419,1.419,0,0,0-1.372.186,1.774,1.774,0,0,0-.76,1.3.744.744,0,0,0,.385.671.84.84,0,0,0,.6.078.779.779,0,0,0,.545-.543c0-.017.1-.21.037-.1a1.652,1.652,0,0,1,.125-.2c-.08.1.095-.082,0,0l.071-.041a.055.055,0,0,1-.044.013.351.351,0,0,1-.335-.2.145.145,0,0,1-.02-.083c-.034-.041-.013.093,0-.015,0,.019-.076.2-.024.1-.009.019-.138.186-.054.095l.048-.028c-.089.047-.087.054,0,.019h.069a.509.509,0,0,1,.284.2c.043.065.039.186.035.054v-.258c0,.039-.071.149,0,.05l.065-.154q.078-.415-.095.136a.431.431,0,0,0,.123-.3Z" transform="translate(-2437.454 -1038.184)" fill="#b8697c"/>
    <path id="Path_777" data-name="Path 777" d="M3139.045,1389.43c2.29,1.024,3.976,3.06,5.477,5.019a15.025,15.025,0,0,1,1.929,3.06,7.958,7.958,0,0,1,.615,2.181,9.482,9.482,0,0,0,.223,1.773.513.513,0,0,0,.929.121c.677-1.186.214-2.8-.249-3.995a13.394,13.394,0,0,0-2.231-3.66,16.55,16.55,0,0,0-6.441-5.086c-.338-.134-.586.442-.249.593Z" transform="translate(-2555.377 -1130.644)" fill="#261452"/>
    <path id="Path_778" data-name="Path 778" d="M2771.828,1561.413c-.833-.269-1.859.671-2.307,1.324-.956,1.409-.336,2.686.744,2.865.8.132,1.593-.744,2-1.32a2.067,2.067,0,0,0,.089-2.489A1.079,1.079,0,0,0,2771.828,1561.413Z" transform="translate(-2254.29 -1271.112)" fill="#fdbfa6"/>
    <path id="Path_779" data-name="Path 779" d="M2757.14,1548.029c-.9-.314-2.023.786-2.5,1.55-1.035,1.653-.372,3.149.8,3.357.868.156,1.725-.866,2.164-1.547a2.583,2.583,0,0,0,.1-2.917A1.189,1.189,0,0,0,2757.14,1548.029Z" transform="translate(-2242.141 -1260.21)" fill="#fdbfa6"/>
    <path id="Path_780" data-name="Path 780" d="M2732.958,1519.927c-.9-.316-2.021.786-2.5,1.55-1.036,1.651-.372,3.149.8,3.357.868.154,1.725-.866,2.164-1.547a2.583,2.583,0,0,0,.1-2.917A1.185,1.185,0,0,0,2732.958,1519.927Z" transform="translate(-2222.456 -1237.331)" fill="#fdbfa6"/>
    <path id="Path_781" data-name="Path 781" d="M2744.122,1533.318c-1.017-.329-2.281.825-2.82,1.627-1.167,1.734-.411,3.305.9,3.532.98.162,1.947-.909,2.443-1.623a2.554,2.554,0,0,0,.108-3.062A1.337,1.337,0,0,0,2744.122,1533.318Z" transform="translate(-2231.23 -1248.231)" fill="#fdbfa6"/>
    <path id="Path_782" data-name="Path 782" d="M1609.278,1164a9.761,9.761,0,0,0,1.476-5.175v-87.773a9.806,9.806,0,0,0-9.806-9.806H1471.136a9.806,9.806,0,0,0-9.806,9.806v87.775a9.806,9.806,0,0,0,9.806,9.806h122.157l7.484,3.846c9.077,4.668,18.185,9.351,26.607,15.115l.177-1.1Q1618.724,1175,1609.278,1164Z" transform="translate(-1189.672 -863.966)" fill="#fff"/>
    <path id="Path_783" data-name="Path 783" d="M1603.8,1158.924c.037-.084.078-.171.123-.256l.121-.225c.073-.136.139-.275.207-.413.128-.279.247-.558.349-.851a9.631,9.631,0,0,0,.452-1.775,10.147,10.147,0,0,0,.106-1.827l-.037-1.872-.134-7.486-.219-14.974-.175-14.974-.134-14.974q-.12-14.974-.171-29.948v-3.268a2.055,2.055,0,0,0,0-.219l-.011-.208a8.653,8.653,0,0,0-5.391-7.681,8.47,8.47,0,0,0-3.216-.636h-11.223c-19.965-.024-39.931-.32-59.9-.541q-14.974-.164-29.948-.218-7.486-.02-14.974,0l-7.488.013h-6.083c-.158,0-.312,0-.459.013l-.446.026a3.59,3.59,0,0,0-.446.037,9.3,9.3,0,0,0-6.1,3.359,9.181,9.181,0,0,0-1.673,3.116c-.082.284-.145.574-.219.859s-.087.586-.136.877a3.5,3.5,0,0,0-.031.441l-.019.444v.924l.134,14.974.3,29.948.119,14.974.082,14.974.031,7.486.017,3.744v.93l.045.82c.028.271.084.541.121.811a2.939,2.939,0,0,0,.093.4l.1.394a8.589,8.589,0,0,0,3.965,4.989,8.483,8.483,0,0,0,3.062,1.036c.136.015.268.048.4.052l.407.017.411.019h2.339l29.948-.089h14.974l14.974.024q14.974.043,29.948.132l14.974.089,14.974.121h.258l.212.112,8.641,4.538c2.879,1.517,5.763,3.045,8.618,4.612a175.923,175.923,0,0,1,16.708,10.224l-.95.409.186-1.095.117.459q-2.169-2.9-4.372-5.763t-4.445-5.718q-2.231-2.85-4.515-5.666l-2.287-2.835-1.147-1.4C1604.577,1159.912,1604.183,1159.413,1603.8,1158.924Zm.258-.02c.4.433.794.853,1.173,1.281l1.2,1.359,2.385,2.731q2.37,2.744,4.705,5.521t4.621,5.592q2.29,2.815,4.543,5.659l.154.186-.037.264-.162,1.1-.139.946-.812-.537q-4.047-2.684-8.271-5.094t-8.542-4.647c-2.878-1.5-5.776-2.963-8.683-4.421l-8.719-4.385.469.113-14.974.121-14.974.087q-14.974.095-29.948.132l-14.974.026H1498.1l-29.948-.089h-2.339l-.526-.024-.528-.03a4.192,4.192,0,0,1-.524-.071,11.058,11.058,0,0,1-9.038-7.871l-.13-.511a4.442,4.442,0,0,1-.113-.515c-.05-.348-.113-.693-.145-1.043l-.048-1.047v-.929l.017-3.744.032-7.486.082-14.974.119-14.974.3-29.948.134-14.974v-.7l.013-.245.028-.491a3.612,3.612,0,0,1,.045-.491c.056-.323.093-.651.166-.97s.162-.636.258-.948a10.326,10.326,0,0,1,4.911-5.887,10.124,10.124,0,0,1,3.718-1.156,3.535,3.535,0,0,1,.487-.037l.487-.022a3.389,3.389,0,0,1,.478,0h6.083l7.488.013q7.486.017,14.974,0,14.974-.039,29.948-.216c19.965-.223,39.931-.519,59.9-.543h11.238a10.872,10.872,0,0,1,4.08.823,11,11,0,0,1,5.846,5.7,10.851,10.851,0,0,1,.92,4.049l.011.26v3.517q-.054,14.974-.171,29.948l-.134,14.974-.175,14.974-.219,14.974-.134,7.486-.037,1.872a10.381,10.381,0,0,1-.186,1.9,9.857,9.857,0,0,1-.544,1.826,9.185,9.185,0,0,1-.4.863c-.074.141-.149.279-.23.415l-.06.1c-.021.033-.035.052-.052.078s-.078.091-.121.14Z" transform="translate(-1184.324 -858.886)" fill="#fe677a"/>
    <circle id="Ellipse_190" data-name="Ellipse 190" cx="16.733" cy="16.733" r="16.733" transform="translate(285.559 214.632)" fill="#ffc280"/>
    <circle id="Ellipse_191" data-name="Ellipse 191" cx="13.017" cy="13.017" r="13.017" transform="translate(289.275 218.348)" fill="#fff"/>
    <path id="Path_784" data-name="Path 784" d="M1618.051,1191.506a8.962,8.962,0,0,0-.268,2.857l-.067,2.575c-.043,1.673-.476,3.707.729,5.047a.905.905,0,0,0,1.271,0c1.2-1.337.773-3.383.729-5.047q-.034-1.288-.065-2.575a8.91,8.91,0,0,0-.27-2.857,1.078,1.078,0,0,0-2.06,0Z" transform="translate(-1316.897 -969.39)" fill="#ffc280"/>
    <path id="Path_785" data-name="Path 785" d="M1625.351,1244.81a17.676,17.676,0,0,0-2.71-1.9c-.983-.578-1.9-1.5-3.056-1.571a1.225,1.225,0,0,0-1.052,1.833c.69.989,1.995,1.266,3.084,1.718a11.149,11.149,0,0,0,3.346.866.562.562,0,0,0,.394-.95Z" transform="translate(-1317.505 -1010.579)" fill="#ffc280"/>
    <path id="Path_786" data-name="Path 786" d="M1570.4,1404.334c-.047-.065-.082-.11-.112-.156q-5.493-8.38-10.983-16.759a9.088,9.088,0,0,1-.894-1.939,12.752,12.752,0,0,1,8.486-16.515,12.515,12.515,0,0,1,2.848-.467,12.334,12.334,0,0,1,7.348,1.887,12.535,12.535,0,0,1,5.781,8.313,12.023,12.023,0,0,1,.244,2.985,12.585,12.585,0,0,1-1.487,5.521,4.589,4.589,0,0,1-.3.476q-5.391,8.235-10.8,16.469C1570.491,1404.208,1570.448,1404.265,1570.4,1404.334Zm0-31.1a7.951,7.951,0,1,0,7.949,7.927,7.952,7.952,0,0,0-7.949-7.927Z" transform="translate(-1268.108 -1114.08)" fill="#ffc280"/>
    <path id="Path_787" data-name="Path 787" d="M1771.194,1179.565h-.026l-1.467.792-.221-.87,1.844-.987h.972v8.438h-1.1Z" transform="translate(-1440.538 -959.42)" fill="#1c35ab"/>
    <path id="Path_788" data-name="Path 788" d="M1806.282,1182.051c0,2.868-1.063,4.462-2.933,4.462-1.647,0-2.764-1.545-2.788-4.335,0-2.829,1.219-4.387,2.933-4.387C1805.271,1177.781,1806.282,1179.362,1806.282,1182.051Zm-4.58.13c0,2.194.675,3.439,1.712,3.439,1.169,0,1.727-1.363,1.727-3.517,0-2.076-.532-3.441-1.714-3.441C1802.428,1178.662,1801.7,1179.883,1801.7,1182.181Z" transform="translate(-1465.84 -958.842)" fill="#1c35ab"/>
    <path id="Path_789" data-name="Path 789" d="M1852.477,1182.827l-.907,2.751H1850.4l2.974-8.748h1.363l2.986,8.748h-1.207l-.929-2.751Zm2.87-.883-.857-2.519c-.2-.571-.325-1.089-.456-1.595h-.026c-.128.519-.271,1.05-.44,1.582l-.857,2.532Z" transform="translate(-1506.415 -958.06)" fill="#1c35ab"/>
    <path id="Path_790" data-name="Path 790" d="M1902.767,1181.736c-.065-1.22-.143-2.686-.13-3.777h-.039c-.3,1.026-.662,2.115-1.1,3.324l-1.545,4.244h-.855l-1.415-4.166c-.417-1.234-.766-2.363-1.013-3.4h-.026c-.026,1.091-.091,2.558-.169,3.869l-.234,3.751h-1.076l.61-8.748h1.441l1.487,4.231c.372,1.078.662,2.045.883,2.946h.039c.221-.883.532-1.842.93-2.946l1.558-4.231h1.441l.545,8.748h-1.1Z" transform="translate(-1542.855 -958.06)" fill="#1c35ab"/>
    <path id="Path_791" data-name="Path 791" d="M1765.436,1267.38a4.007,4.007,0,0,0,2.024.571c1.154,0,1.831-.61,1.831-1.487,0-.818-.469-1.285-1.649-1.74-1.428-.506-2.311-1.245-2.311-2.478,0-1.363,1.129-2.376,2.829-2.376a3.986,3.986,0,0,1,1.933.428l-.311.93a3.485,3.485,0,0,0-1.662-.415c-1.193,0-1.649.714-1.649,1.3,0,.818.533,1.219,1.74,1.688,1.487.571,2.231,1.285,2.231,2.569,0,1.35-1,2.519-3.064,2.519a4.517,4.517,0,0,1-2.231-.558Z" transform="translate(-1437.013 -1025.662)" fill="#1c35ab"/>
    <path id="Path_792" data-name="Path 792" d="M1800.467,1266.617l-.909,2.751h-1.167l2.974-8.748h1.363l2.985,8.748H1804.5l-.929-2.751Zm2.868-.883-.857-2.519c-.2-.571-.323-1.089-.453-1.6H1802c-.13.521-.273,1.052-.442,1.584l-.855,2.532Z" transform="translate(-1464.074 -1026.274)" fill="#1c35ab"/>
    <path id="Path_793" data-name="Path 793" d="M1836.59,1261.579h-2.66v-.959h6.477v.959h-2.673v7.789h-1.143Z" transform="translate(-1493.007 -1026.274)" fill="#1c35ab"/>
    <path id="Path_794" data-name="Path 794" d="M1875.114,1260.62v5.179c0,1.959.87,2.788,2.045,2.788,1.3,0,2.129-.857,2.129-2.788v-5.179h1.143v5.1c0,2.686-1.415,3.791-3.311,3.791-1.79,0-3.14-1.026-3.14-3.738v-5.153Z" transform="translate(-1525.612 -1026.274)" fill="#1c35ab"/>
    <path id="Path_795" data-name="Path 795" d="M1919.18,1260.435a11.74,11.74,0,0,1,2.167-.186,3.58,3.58,0,0,1,2.532.714,2.181,2.181,0,0,1,.688,1.662,2.3,2.3,0,0,1-1.649,2.231v.039a2.174,2.174,0,0,1,1.285,1.764,14.2,14.2,0,0,0,.675,2.4h-1.167a11.228,11.228,0,0,1-.584-2.089c-.26-1.208-.727-1.662-1.753-1.7h-1.063v3.79h-1.13Zm1.13,3.984h1.155c1.206,0,1.972-.662,1.972-1.662,0-1.128-.818-1.621-2.011-1.634a4.755,4.755,0,0,0-1.115.1Z" transform="translate(-1562.41 -1025.971)" fill="#1c35ab"/>
    <path id="Path_796" data-name="Path 796" d="M1956.75,1260.436a16.135,16.135,0,0,1,2.4-.186,5,5,0,0,1,3.545,1.089,4.081,4.081,0,0,1,1.232,3.142,4.633,4.633,0,0,1-1.259,3.4,5.482,5.482,0,0,1-3.868,1.26,18.192,18.192,0,0,1-2.045-.1Zm1.128,7.735a7.1,7.1,0,0,0,1.143.065,3.358,3.358,0,0,0,3.718-3.718c.013-2.063-1.156-3.374-3.545-3.374a6.567,6.567,0,0,0-1.323.115Z" transform="translate(-1592.995 -1025.973)" fill="#1c35ab"/>
    <path id="Path_797" data-name="Path 797" d="M2000.786,1266.617l-.909,2.751h-1.167l2.974-8.748h1.355l2.986,8.748h-1.207l-.929-2.751Zm2.868-.883-.857-2.519c-.186-.571-.323-1.089-.454-1.6h-.026c-.13.521-.273,1.052-.44,1.584l-.857,2.532Z" transform="translate(-1627.155 -1026.274)" fill="#1c35ab"/>
    <path id="Path_798" data-name="Path 798" d="M2037.894,1269.344v-3.718l-2.764-5.036h1.277l1.233,2.417c.338.664.6,1.2.87,1.8h.026c.247-.571.545-1.141.883-1.8l1.259-2.417h1.287l-2.934,5.019v3.718Z" transform="translate(-1656.804 -1026.25)" fill="#1c35ab"/>
    <rect id="Rectangle_299" data-name="Rectangle 299" width="63.179" height="7.929" rx="3.964" transform="translate(327.944 261.132)" fill="#1c35ab"/>
    <rect id="Rectangle_300" data-name="Rectangle 300" width="39.016" height="7.929" rx="3.964" transform="translate(327.944 272.187)" fill="#1c35ab"/>
    <path id="Path_799" data-name="Path 799" d="M1504.014,1949.92a134.63,134.63,0,0,0-3.16-14.905q-1.8-7.295-3.794-14.539c-2.679-9.778-5.59-19.488-8.668-29.147-6.166-19.333-13-38.457-20.038-57.493q-2.974-8.064-6.031-16.108c-1.015-2.681-1.985-5.391-3.086-8.031s-2.082-5.318-3.411-7.836c-.543-1.03-2.1-.307-1.835.775.6,2.485,1.521,4.885,2.346,7.306s1.757,4.82,2.655,7.222q2.638,7.049,5.272,14.1,5.3,14.182,10.4,28.442c6.785,19.056,13.18,38.254,18.885,57.662q2.37,8.068,4.56,16.184c1.5,5.514,2.736,11.139,4.562,16.554.229.678,1.439.623,1.335-.186Z" transform="translate(-1183.674 -1466.496)" fill="#315ec5"/>
    <path id="Path_800" data-name="Path 800" d="M1728.788,1955.451c-.744-4.724-1.878-9.406-2.789-14.1q-1.333-6.878-2.541-13.775c-1.623-9.306-3.03-18.651-4.149-28.03a509.571,509.571,0,0,1-3.662-56.537q-.057-7.893.108-15.787c.119-5.391.253-10.743-.045-16.134-.048-.868-1.452-1.181-1.614-.218-1.588,9.4-1.545,19.034-1.519,28.55q.037,14.173.887,28.329a462.466,462.466,0,0,0,6.852,56.8c.974,5.228,2.065,10.433,3.223,15.615a157.233,157.233,0,0,0,4.017,15.615.64.64,0,0,0,1.233-.34Z" transform="translate(-1394.208 -1473.75)" fill="#315ec5"/>
    <path id="Path_801" data-name="Path 801" d="M1754.57,2257.08c.151-2.6.186-5.205.508-7.789a63.583,63.583,0,0,1,1.506-7.771c.632-2.495,1.392-4.956,2.186-7.4.827-2.547,1.891-5.058,2.491-7.668.186-.846-1.039-1.463-1.465-.617a57.247,57.247,0,0,0-2.852,7.6c-.87,2.6-1.643,5.246-2.277,7.923-1.2,5.079-2.2,10.689-1.188,15.881.126.645,1.062.45,1.1-.149Z" transform="translate(-1427.173 -1811.726)" fill="#315ec5"/>
    <path id="Path_802" data-name="Path 802" d="M1688.186,2166.171a70.851,70.851,0,0,0-4.3-9.351c-1.614-2.995-3.2-6.166-5.594-8.618a.552.552,0,0,0-.917.532c1.089,3.186,3.011,6.042,4.668,8.957,1.7,2.993,3.367,5.971,5.214,8.871.294.461,1.134.175.929-.39Z" transform="translate(-1365.533 -1748.734)" fill="#315ec5"/>
    <path id="Path_803" data-name="Path 803" d="M1724.166,2048.647c.851-4.612,1.859-9.22,3.086-13.756.6-2.216,1.257-4.413,1.939-6.6q.524-1.684,1.095-3.355a9.212,9.212,0,0,0,.805-3.424.662.662,0,0,0-1.115-.459,7.254,7.254,0,0,0-1.467,2.848q-.608,1.751-1.169,3.517c-.73,2.3-1.361,4.627-1.933,6.971a107.767,107.767,0,0,0-2.461,14.091c-.074.69,1.087.85,1.214.166Z" transform="translate(-1402.651 -1645.184)" fill="#315ec5"/>
    <path id="Path_804" data-name="Path 804" d="M1672.22,1944.762c-1.714-2.329-3.532-4.575-5.3-6.854-.892-1.143-1.762-2.305-2.632-3.465a12.211,12.211,0,0,0-2.8-3.233.7.7,0,0,0-1.011.779,10.586,10.586,0,0,0,2.214,3.532q1.329,1.727,2.7,3.417a70.336,70.336,0,0,0,5.906,6.54c.461.441,1.333-.154.929-.714Z" transform="translate(-1351.778 -1572.122)" fill="#315ec5"/>
    <path id="Path_805" data-name="Path 805" d="M1719.092,1847.508a24.7,24.7,0,0,1,2.3-4.623,25.882,25.882,0,0,1,1.508-2.155,5.348,5.348,0,0,0,1.138-1.872.524.524,0,0,0-.759-.584c-1.465.653-2.445,2.681-3.2,4.025a29.307,29.307,0,0,0-2.123,4.9C1717.712,1847.917,1718.835,1848.213,1719.092,1847.508Z" transform="translate(-1398.565 -1496.502)" fill="#315ec5"/>
    <path id="Path_806" data-name="Path 806" d="M1650.495,2250.512a104.4,104.4,0,0,1-.351-11.838c.063-1.915.186-3.832.372-5.739.186-2,.589-4.047.578-6.056a.621.621,0,0,0-1.214-.164,25.432,25.432,0,0,0-1.013,5.862c-.2,2.028-.32,4.06-.349,6.1a69.829,69.829,0,0,0,.812,12c.1.662,1.229.513,1.175-.158Z" transform="translate(-1342.052 -1812.421)" fill="#315ec5"/>
    <path id="Path_807" data-name="Path 807" d="M1584.194,2062.7c-.32-3.751-.39-7.542-.424-11.308-.015-1.829.013-3.656.054-5.486.022-.974.031-1.948.058-2.924a9.357,9.357,0,0,0-.076-2.764.788.788,0,0,0-1.506,0,8.653,8.653,0,0,0-.292,2.764c-.039.974-.076,1.95-.078,2.924,0,1.829.041,3.659.112,5.486.149,3.792.558,7.542,1,11.308C1583.124,2063.427,1584.259,2063.446,1584.194,2062.7Z" transform="translate(-1287.853 -1660.496)" fill="#315ec5"/>
    <path id="Path_808" data-name="Path 808" d="M1491.95,2020.074a9.242,9.242,0,0,0-2.772-2.458c-1.056-.77-2.127-1.51-3.225-2.21s-2.194-1.417-3.346-2.026a16.22,16.22,0,0,0-3.563-1.61.6.6,0,0,0-.582,1,22.507,22.507,0,0,0,3.1,2.062c1.1.7,2.231,1.335,3.346,2.03q1.58,1,3.14,2.023a11.709,11.709,0,0,0,3.322,1.95.524.524,0,0,0,.584-.76Z" transform="translate(-1203.469 -1637.774)" fill="#315ec5"/>
    <path id="Path_809" data-name="Path 809" d="M1509.355,1854.651a66.45,66.45,0,0,1,0-7.862c.078-1.3.2-2.616.355-3.919a17,17,0,0,0,.437-3.891c-.048-.4-.623-.68-.85-.231a10.968,10.968,0,0,0-.693,3.59c-.162,1.359-.271,2.727-.342,4.09a66.609,66.609,0,0,0,.1,8.219c.045.632,1.03.641.993,0Z" transform="translate(-1227.814 -1496.742)" fill="#315ec5"/>
    <path id="Path_810" data-name="Path 810" d="M1605.677,2356.52a58.252,58.252,0,0,0-6.135-4.186c-1.058-.647-2.127-1.268-3.218-1.859a12.12,12.12,0,0,0-3.372-1.534.581.581,0,0,0-.558.967,13.194,13.194,0,0,0,2.937,1.924q1.6.948,3.2,1.891c2.13,1.264,4.2,2.612,6.359,3.83.627.353,1.4-.558.8-1.036Z" transform="translate(-1296.233 -1912.272)" fill="#315ec5"/>
    <path id="Path_811" data-name="Path 811" d="M1520.753,1850.594c-1.231,4.462-5.391,6.925-9.724,7.553l.719.548a7.028,7.028,0,0,1,.723-2.636,9.786,9.786,0,0,1,1.954-2.556,5.859,5.859,0,0,1,2.738-1.3c1.009-.221,2.1-.1,3.077-.416a.487.487,0,0,0,0-.929,8.38,8.38,0,0,0-3.532.227,6.754,6.754,0,0,0-3.119,1.567,10.86,10.86,0,0,0-2.283,3.071,8.156,8.156,0,0,0-.69,2.959c-.044.4.4.6.719.558,4.594-.779,9.137-3.6,9.96-8.5.059-.348-.441-.5-.539-.149Z" transform="translate(-1229.794 -1506.405)" fill="#fff"/>
    <path id="Path_812" data-name="Path 812" d="M1546.813,1968.369c1.383,3.885-.314,7.808-3.16,10.52l.8.1a6.7,6.7,0,0,1-.818-2.028,8.531,8.531,0,0,1,.074-3.207,5.26,5.26,0,0,1,1.487-2.495,21.51,21.51,0,0,0,1.911-1.786c.3-.387-.253-.729-.586-.588a7.67,7.67,0,0,0-2.569,2.162,5.854,5.854,0,0,0-1.324,2.729,10.242,10.242,0,0,0-.058,3.169,7.072,7.072,0,0,0,1.008,2.556.513.513,0,0,0,.8.1c2.995-2.988,4.833-7.367,2.9-11.431-.121-.253-.558-.074-.457.186Z" transform="translate(-1255.731 -1602.197)" fill="#fff"/>
    <path id="Path_813" data-name="Path 813" d="M1759.062,1964.849c1.383,3.885-.314,7.808-3.16,10.518l.8.1a6.7,6.7,0,0,1-.818-2.028,8.486,8.486,0,0,1,.074-3.2,5.257,5.257,0,0,1,1.487-2.5,21.5,21.5,0,0,0,1.911-1.786c.3-.385-.253-.729-.587-.586a7.658,7.658,0,0,0-2.567,2.162,5.86,5.86,0,0,0-1.325,2.727,10.312,10.312,0,0,0-.056,3.172,7.057,7.057,0,0,0,1.008,2.554.513.513,0,0,0,.8.1c2.995-2.989,4.833-7.369,2.9-11.431-.121-.253-.558-.074-.457.186Z" transform="translate(-1428.523 -1599.332)" fill="#fff"/>
    <path id="Path_814" data-name="Path 814" d="M1530.286,2109.652c-4.09.5-7.559-1.993-9.581-5.359l-.3.744a6.671,6.671,0,0,1,2.324-.351,8.133,8.133,0,0,1,3.222.89,5.49,5.49,0,0,1,1.917,1.956,17.512,17.512,0,0,0,1.257,2.149c.3.359.783-.039.716-.416a7.6,7.6,0,0,0-1.445-2.844,5.946,5.946,0,0,0-2.184-1.9,9.843,9.843,0,0,0-3.16-.861,6.984,6.984,0,0,0-2.918.4.515.515,0,0,0-.3.744c2.262,3.573,6.135,6.346,10.524,5.337.27-.061.218-.526-.065-.491Z" transform="translate(-1237.242 -1712.566)" fill="#fff"/>
    <path id="Path_815" data-name="Path 815" d="M1734.811,1794.19c-.266,3.365-2.9,5.763-5.9,6.893l.53.4a6.013,6.013,0,0,1,1.26-4.3c1.048-1.322,2.56-1.335,3.926-2.076a.355.355,0,0,0-.186-.656,6.376,6.376,0,0,0-4.441,2.2,6.65,6.65,0,0,0-1.4,4.833c.022.24.255.515.53.4,3.237-1.3,6.176-3.96,6.086-7.7a.206.206,0,0,0-.411,0Z" transform="translate(-1407.226 -1460.504)" fill="#fff"/>
    <path id="Path_816" data-name="Path 816" d="M1751.163,2057.014c-.264,3.365-2.9,5.763-5.9,6.9l.53.4a6.019,6.019,0,0,1,1.26-4.3c1.048-1.322,2.56-1.335,3.926-2.074a.355.355,0,0,0-.186-.658,6.386,6.386,0,0,0-4.443,2.2,6.656,6.656,0,0,0-1.4,4.833c.022.238.255.513.53.4,3.236-1.3,6.176-3.962,6.088-7.7a.206.206,0,1,0-.413,0Z" transform="translate(-1420.537 -1674.454)" fill="#fff"/>
    <path id="Path_817" data-name="Path 817" d="M1689.958,2052.4c-1.591-.334-2.878-2.021-3.69-3.331a11.754,11.754,0,0,1-1.045-2.134,9.135,9.135,0,0,0-.744-2.024.314.314,0,0,0-.558.074c-.422,1.6.885,3.852,1.777,5.108.93,1.3,2.394,3.16,4.164,3.073.418-.021.558-.671.1-.766Z" transform="translate(-1370.819 -1664.657)" fill="#fff"/>
    <path id="Path_818" data-name="Path 818" d="M1685.472,2047.093c1.4-.128,3.011,2.328,3.634,3.346a18.816,18.816,0,0,1,1.534,4.077c.137.4.8.372.775-.1a9.85,9.85,0,0,0-2.119-4.919c-.788-1.063-2.324-2.974-3.824-2.788-.234.031-.245.4,0,.372Z" transform="translate(-1372.001 -1666.217)" fill="#fff"/>
    <path id="Path_819" data-name="Path 819" d="M1678.855,1916.544a14.617,14.617,0,0,1-.255-4.945,5.244,5.244,0,0,1,.667-1.746c.327-.524.812-.887,1.149-1.4a.4.4,0,0,0-.446-.58c-1.327.348-2.032,2.121-2.26,3.346a11.4,11.4,0,0,0,.66,5.463.252.252,0,1,0,.485-.134Z" transform="translate(-1365.729 -1553.198)" fill="#fff"/>
    <path id="Path_820" data-name="Path 820" d="M1683.271,1918.1c1.435-2.649,2.818-5.6,2.145-8.687-.121-.558-.969-.32-.85.234.625,2.939-.537,5.636-1.656,8.3C1682.825,1918.16,1683.167,1918.3,1683.271,1918.1Z" transform="translate(-1370.051 -1554.203)" fill="#fff"/>
    <path id="Path_821" data-name="Path 821" d="M1664.2,2184.728c-.08-1.275-1.889-1.487-2.846-1.66-1.593-.3-3.629-.8-5.218-.361a.335.335,0,0,0,0,.64,19.436,19.436,0,0,0,4.227.63,7.366,7.366,0,0,1,3.419.991.281.281,0,0,0,.418-.24Z" transform="translate(-1348.073 -1776.807)" fill="#fff"/>
    <path id="Path_822" data-name="Path 822" d="M1654.556,2186.358a28.021,28.021,0,0,1,2.395,1.69,8.363,8.363,0,0,0,2.56.972c1.245.262,3.571.781,4.393-.558a.5.5,0,0,0-.078-.6l-.1-.078c-.186-.145-.524-.186-.64.082-.461,1.062-3.632.216-4.391,0-1.45-.422-2.58-1.381-3.958-1.946-.249-.1-.429.323-.186.437Z" transform="translate(-1346.883 -1779.552)" fill="#fff"/>
    <path id="Path_823" data-name="Path 823" d="M1442.8,1867.268a12.672,12.672,0,0,0-2.29-.361,6.755,6.755,0,0,1-2.755-1.361,9.879,9.879,0,0,1-1.887-2.231,8.283,8.283,0,0,0-1.418-2.123.3.3,0,0,0-.5.206,4.773,4.773,0,0,0,1.166,2.716,10.392,10.392,0,0,0,2.121,2.37,7.132,7.132,0,0,0,2.855,1.37,3.662,3.662,0,0,0,2.71-.093c.158-.111.216-.405,0-.5Z" transform="translate(-1167.38 -1515.135)" fill="#fff"/>
    <path id="Path_824" data-name="Path 824" d="M1435.643,1864.345c1.654.106,3.445,1.219,4.833,2.078a11.466,11.466,0,0,1,3.3,3.465c.325.457,1.242.186.989-.417a8.479,8.479,0,0,0-3.645-3.843c-1.632-.946-3.545-1.937-5.478-1.781a.249.249,0,0,0,0,.5Z" transform="translate(-1168.575 -1517.35)" fill="#fff"/>
    <path id="Path_825" data-name="Path 825" d="M1827.311,2470.067a18.547,18.547,0,0,0,.2-5.763c-.091-2.056-.149-4.112-.156-6.168,0-2,.063-4,.158-5.993.046-.965.154-1.939.163-2.9a6.621,6.621,0,0,0-.476-3.091,1.115,1.115,0,0,0-1.736-.223,5.594,5.594,0,0,0-1.008,2.7,24.847,24.847,0,0,0-.251,3.16c-.1,2.116-.089,4.242-.026,6.358.059,2.06.2,4.119.437,6.168.225,1.959.446,4.218,1.487,5.93a.667.667,0,0,0,1.2-.158Z" transform="translate(-1485.031 -1990.973)" fill="#315ec5"/>
    <path id="Path_826" data-name="Path 826" d="M1639.573,2552.445a39.786,39.786,0,0,0-3.852-4.961,28.679,28.679,0,0,0-2.173-2.075c-.762-.664-1.64-1.585-2.7-1.6a.971.971,0,0,0-.929,1.219c.268.894,1.115,1.394,1.809,1.974.768.647,1.5,1.333,2.219,2.03a32.855,32.855,0,0,1,3.891,4.424c.744,1.038,2.463.071,1.734-1.013Z" transform="translate(-1326.893 -2070.922)" fill="#315ec5"/>
    <path id="Path_827" data-name="Path 827" d="M3328.924,2543.968c.247-1.673.279-3.363.558-5.031a23.087,23.087,0,0,1,1.433-4.963,32.365,32.365,0,0,1,2.327-4.289,18.613,18.613,0,0,1,1.426-2.024,5.994,5.994,0,0,0,1.322-2.312.851.851,0,0,0-.811-1.065c-1.859.111-3.314,1.995-4.426,3.3a18.183,18.183,0,0,0-2.889,5.1c-1.342,3.346-2.255,7.789-1,11.28.314.875,1.883,1.141,2.045,0Z" transform="translate(-2707.923 -2055.025)" fill="#315ec5"/>
    <path id="Path_828" data-name="Path 828" d="M3357.684,2555.46a59.224,59.224,0,0,1,3.586-7.529,37.376,37.376,0,0,1,2.3-3.417,21.034,21.034,0,0,0,1.268-1.7,5.03,5.03,0,0,0,1-1.8c.086-.608-.264-1.467-1.046-1.374-1.441.173-2.74,1.546-3.644,2.619a28.085,28.085,0,0,0-2.749,3.816,23.2,23.2,0,0,0-3.19,8.713A1.336,1.336,0,0,0,3357.684,2555.46Z" transform="translate(-2731.477 -2067.522)" fill="#315ec5"/>
    <path id="Path_829" data-name="Path 829" d="M3296.672,2585.9c-.115-.97-.186-1.943-.2-2.92a6.066,6.066,0,0,0-.285-2.523.643.643,0,0,0-1.1,0,4.881,4.881,0,0,0-.335,2.7c.05.993.166,1.976.313,2.958.136.905,1.723.7,1.613-.219Z" transform="translate(-2682.233 -2100.5)" fill="#315ec5"/>
    <path id="Path_830" data-name="Path 830" d="M3388,2625.412a15.048,15.048,0,0,0,1.8-1.632c.544-.459,1.524-.957,1.673-1.71a.743.743,0,0,0-.5-.885c-.894-.251-1.831.612-2.417,1.192a5.066,5.066,0,0,0-1.569,2.246.709.709,0,0,0,1.028.79Z" transform="translate(-2757.341 -2133.877)" fill="#315ec5"/>
    <path id="Path_831" data-name="Path 831" d="M3430.966,1404.411c-.074-.558-.151-1.115-.225-1.673a6.318,6.318,0,0,0-1.625-2.788l-1.277-.989a6.3,6.3,0,0,0-3.188-.861,6.486,6.486,0,0,0-6.321,6.321c.074.558.151,1.115.225,1.673a6.32,6.32,0,0,0,1.625,2.789l1.277.987a6.3,6.3,0,0,0,3.188.862A6.492,6.492,0,0,0,3430.966,1404.411Z" transform="translate(-2782.871 -1138.197)" fill="#fff"/>
    <path id="Path_832" data-name="Path 832" d="M1597.995,1756.958a5.878,5.878,0,1,0-5.878,5.878A5.979,5.979,0,0,0,1597.995,1756.958Z" transform="translate(-1291.357 -1425.558)" fill="none" stroke="#fff" stroke-miterlimit="10" stroke-width="10.47"/>
    <path id="Path_833" data-name="Path 833" d="M1222.518,1497.45a3.563,3.563,0,0,0-3.532,3.532,3.532,3.532,0,1,0,3.532-3.532Z" transform="translate(-992.377 -1219.078)" fill="#fff"/>
    <path id="Path_834" data-name="Path 834" d="M2765.957,455.159q-.145-1.071-.288-2.143a8.078,8.078,0,0,0-2.073-3.558l-1.632-1.26a8.043,8.043,0,0,0-4.069-1.1,7.783,7.783,0,0,0-7.369,4.956,6.074,6.074,0,0,0-.693,3.106q.141,1.073.286,2.143a8.062,8.062,0,0,0,2.075,3.558l1.632,1.26a7.993,7.993,0,0,0,4.069,1.1,7.776,7.776,0,0,0,7.367-4.956,6.075,6.075,0,0,0,.7-3.106Z" transform="translate(-2238.641 -363.981)" fill="#fff"/>
    <path id="Path_835" data-name="Path 835" d="M3419.18,1652.064q-.177-1.3-.35-2.6a9.813,9.813,0,0,0-2.522-4.33l-1.987-1.534a9.766,9.766,0,0,0-4.95-1.338,10.079,10.079,0,0,0-9.81,9.81q.177,1.3.35,2.6a9.816,9.816,0,0,0,2.522,4.33l1.985,1.534a9.781,9.781,0,0,0,4.953,1.339A10.08,10.08,0,0,0,3419.18,1652.064Z" transform="translate(-2767.591 -1336.968)" fill="none" stroke="#fff" stroke-miterlimit="10" stroke-width="10.47"/>
  </g>
</svg>
