<svg xmlns="http://www.w3.org/2000/svg" xmlns:xlink="http://www.w3.org/1999/xlink" width="312.109" height="261.538" viewBox="0 0 312.109 261.538">
  <defs>
    <clipPath id="clip-path">
      <path id="Path_449" data-name="Path 449" d="M1290.182,1694.142s.515,19.215.972,26.557-.516,5.83-.486,13.386.608,20.728.608,20.728a57,57,0,0,0-10.979,0l-4.2.647s-9.579-1.943-14.371.864-.173-22.455-1.229-27.421-1.386-3.454-.992-7.342,1.363-9.068.992-12.738,1.229-39.944,1.229-39.944l25.637,4.44Z" transform="translate(-1259.342 -1668.88)" fill="none"/>
    </clipPath>
    <clipPath id="clip-path-2">
      <path id="Path_452" data-name="Path 452" d="M1443.16,2443.806s4.638-2.66,9.161-.521c1.457.689,3.281,5.667,1.541,5.829-6.444.586-13.176-.327-15.058-.971s-2.995-3.79-2.995-3.79S1440.936,2442.731,1443.16,2443.806Z" transform="translate(-1435.81 -2442.453)" fill="none"/>
    </clipPath>
    <clipPath id="clip-path-3">
      <path id="Path_455" data-name="Path 455" d="M1278.094,2448.834a8.938,8.938,0,0,1,8.339-.382c1.457.688,3.256,5.515,1.54,5.829-5.3.972-13.175-.327-15.058-.971a6.317,6.317,0,0,1-2.995-2.914S1275.87,2447.753,1278.094,2448.834Z" transform="translate(-1269.92 -2447.591)" fill="none"/>
    </clipPath>
    <clipPath id="clip-path-4">
      <path id="Path_458" data-name="Path 458" d="M1394.807,1053.443s.177-2.537,4.2-1.486,6.558,5.509,9.182,5.6,3.585,8.436-2.187,8.241-15.792,2.961-15.792,2.961S1381.339,1053.356,1394.807,1053.443Z" transform="translate(-1387.342 -1051.702)" fill="none"/>
    </clipPath>
    <clipPath id="clip-path-5">
      <path id="Path_464" data-name="Path 464" d="M1407.347,1122.7s-1.988,7.963-2.268,10.171-2.566,5.284-4.922,5.114a10.97,10.97,0,0,1-2.015-.314,14.935,14.935,0,0,1-.315,3.641c-.391,1.314-2.094,2.024-3.814,1.916-1.756-.109-6.539-3.772-6.223-5.788s.857-.68,1.575-3.7l.719-3.015s-2.051-1.695-2.425-3.316,1-3.6,2.4-3.378c1.68.262,1.73,2.148,1.73,2.148a5.168,5.168,0,0,0,2.288-3.836c.3-2.706.879-2.843.879-2.843s.892,1.1,1.466.228,1.167-1.475,2.349-1.037S1403.042,1122.64,1407.347,1122.7Z" transform="translate(-1387.598 -1118.548)" fill="none"/>
    </clipPath>
    <clipPath id="clip-path-6">
      <path id="Path_472" data-name="Path 472" d="M1489.1,1311s2.492,17.84,1.771,21.864a84.421,84.421,0,0,0-.82,17.49c.27,8.046.95,17.49.95,17.49a26.291,26.291,0,0,0,9.643-1.749c-1.925-11.741-3.324-15.741-2.8-17.49a11.294,11.294,0,0,0,0-4.285c0-.612.174-5.747.174-5.747s-.174,4.785,7.519,5.747,7.87-9.183,4.548-16.529-10.145-11.9-12.243-13.471S1489.1,1311,1489.1,1311Z" transform="translate(-1489.1 -1311)" fill="none"/>
    </clipPath>
    <clipPath id="clip-path-7">
      <path id="Path_475" data-name="Path 475" d="M1230.469,1294.19a62.357,62.357,0,0,1,2.886,13.773,119.069,119.069,0,0,1,.654,13.249l8-3.41s-1.836,4.722.393,6.165-9.575,10.889-9.575,10.889l-.263,19.194s-14.3.218-19.546-4.108c1.18-6.69,3.935-17.053,3.148-18.365s.394-1.049.131-2.492-.654-7.876-1.049-12.136S1211.846,1295.1,1230.469,1294.19Z" transform="translate(-1213.02 -1294.19)" fill="none"/>
    </clipPath>
    <clipPath id="clip-path-9">
      <path id="Path_487" data-name="Path 487" d="M1465.008,1462.037a20.926,20.926,0,0,1,1.542-3.895c.916-1.635,4.332-3.072,4.332-3.072l-.719,2.49a2.885,2.885,0,0,0,2.577-.218c5.268-3.189,5.186-1.542,3.9-.528a6.705,6.705,0,0,0-1.724,1.933c-.577.7.148.872-.3,1.853a3.437,3.437,0,0,0-.123,2.521c.2.341.276,1.942-.747,2.189s-4.224,2.615-7.121,2.367S1465.008,1462.037,1465.008,1462.037Z" transform="translate(-1464.728 -1455.07)" fill="none"/>
    </clipPath>
    <clipPath id="clip-path-10">
      <path id="Path_501" data-name="Path 501" d="M2989.742,1680.93s-7.481,5.2-9.571,7.456a8.067,8.067,0,0,0-1.783,3.307,12.752,12.752,0,0,1-1.635,3.661c-1.332,2-2.745,5.614.861,9.233,5.392,5.411,6.344.8,7.745-1.885,3.13-6.01,3.289-7.261,5.2-8.126s8.417-5.162,8.417-5.162Z" transform="translate(-2975.326 -1680.93)" fill="none"/>
    </clipPath>
    <clipPath id="clip-path-11">
      <path id="Path_506" data-name="Path 506" d="M2870.66,1755.28s3.413,8.446,3.923,11.479a8.073,8.073,0,0,1-.319,3.744,12.746,12.746,0,0,0-.633,3.961c.02,2.4-.778,6.2-5.776,7.253-7.474,1.576-5.748-2.8-5.448-5.817.671-6.743,1.224-7.877.1-9.645s-4.216-8.928-4.216-8.928Z" transform="translate(-2858.29 -1755.28)" fill="none"/>
    </clipPath>
    <clipPath id="clip-path-12">
      <path id="Path_509" data-name="Path 509" d="M2746.432,1503.086s-24.251-2.586-27.9,3.133c-6.271,9.835,13.725,33.811,13.725,33.811l18.935-4.442-6.669-10.926s21.339,4.336,30.464-3.98,3.24-17.2-1.653-17.94S2746.432,1503.086,2746.432,1503.086Z" transform="translate(-2717.317 -1502.485)" fill="none"/>
    </clipPath>
    <clipPath id="clip-path-13">
      <path id="Path_512" data-name="Path 512" d="M2950.841,1164.313s8.459-.128,13.9,5.079,6.607,25.239,6.607,25.239l-15.127-.7-.738,10.639a26.282,26.282,0,0,1-18.858.7c-10.3-3.553-15.022-7.24-15.022-7.24s5.493-25.6,9.9-28.808C2935.2,1166.53,2943.582,1163.864,2950.841,1164.313Z" transform="translate(-2921.6 -1164.263)" fill="none"/>
    </clipPath>
    <clipPath id="clip-path-14">
      <path id="Path_515" data-name="Path 515" d="M3062.021,905.486c-.21-.016.461-4.124-4.024-4.433s-4.729,4.121-6.739,3.512-6.5.838-4.875,5.34c-1.518,1.651-1.4,4.117,2.407,4.966s16.588,3.84,16.588,3.84S3072.907,906.3,3062.021,905.486Z" transform="translate(-3045.473 -901.038)" fill="none"/>
    </clipPath>
    <clipPath id="clip-path-15">
      <path id="Path_520" data-name="Path 520" d="M3080.218,984.8c.058-.038.109-.077.168-.116a3.5,3.5,0,0,0,1.962-.726,2.99,2.99,0,0,0,.872-4.121,2.827,2.827,0,0,0-3.309-.763,2.765,2.765,0,0,1-.293-.932,16.514,16.514,0,0,1-.03-3.805,3.492,3.492,0,0,1-1.635-2.63c-.06-1.7-.026,1.227-3.766,1.144s-.816-.872-1.015-2.236-1.058,2.615-3.533,2.857-1.249-.555-1.2-1.2-1.931,3.378-3.735,2.375c0,0,.945,5.8,1.613,8.827s2.1,5.939,4.6,6.229a7.429,7.429,0,0,1-.011,2.692l-1.56,2.2s4,5.44,6.135,4.126,6.877-5.237,6.877-5.237S3079.691,991.553,3080.218,984.8Z" transform="translate(-3064.7 -970.333)" fill="none"/>
    </clipPath>
    <clipPath id="clip-path-16">
      <path id="Path_531" data-name="Path 531" d="M3037.247,1436.426s.838,11.4-8.677,11.4a43.266,43.266,0,0,1-17.474-4.007,4.316,4.316,0,0,0-3.514-.372c-1.88.673-2.366.289-1.607-.782s-1.106.4-2.355.376.618-1.5.618-1.5a8.225,8.225,0,0,1-2.9.265c-1.094-.222,1.57-1.7,1.57-1.7s-2.225.716-2.695.507c-.34-.152,1.424-1.772,2.425-2.655a3.281,3.281,0,0,1,1.526-.763c1.669-.333,5.382-.907,8.156-.109,2.011.58,11.781.343,12.2.114s.464-1.3.464-1.3Z" transform="translate(-3000.167 -1435.9)" fill="none"/>
    </clipPath>
    <clipPath id="clip-path-17">
      <path id="Path_535" data-name="Path 535" d="M2718.636,1305.434l.236,3.039-41.251,3.026-8.142-28.489,34.225-3.771,5.736,25.181Z" transform="translate(-2669.48 -1279.24)" fill="none"/>
    </clipPath>
  </defs>
  <g id="_02" data-name="02" transform="translate(-98.945 -39.23)">
    <ellipse id="Ellipse_155" data-name="Ellipse 155" cx="156.054" cy="33.162" rx="156.054" ry="33.162" transform="translate(98.945 234.445)" fill="#f6f5fb"/>
    <ellipse id="Ellipse_156" data-name="Ellipse 156" cx="31.341" cy="11.593" rx="31.341" ry="11.593" transform="translate(125.824 259.117)" fill="#e3e2ed"/>
    <path id="Path_421" data-name="Path 421" d="M1107.71,365.713c-19.76,6.741-39.053,15.163-59.145,9.6-17.51-4.849-40.962-5.958-67.246,7.021-56.126,27.717-95.862,180.25,121.645,161.847C1289.843,528.364,1231.407,323.516,1107.71,365.713Z" transform="translate(-834.997 -320.769)" fill="#f6f5fb"/>
    <path id="Path_422" data-name="Path 422" d="M2004.857,986.52c-2.238,24.155-5.677,144.563-10.9,151.612-26.729,0-97.17-.684-102.68-2.327,1.834-2.388,3.487-8.391,4.958-16.7,7.083-39.84,10.135-132.587,10.135-132.587s67.986.8,91.081.356A64.959,64.959,0,0,0,2004.857,986.52Z" transform="translate(-1685.179 -879.015)" fill="#d4d8e1"/>
    <rect id="Rectangle_223" data-name="Rectangle 223" width="72.405" height="1.762" rx="0.881" transform="translate(226.142 238.253)" fill="#fff"/>
    <rect id="Rectangle_224" data-name="Rectangle 224" width="72.405" height="1.762" rx="0.881" transform="translate(224.057 219.363)" fill="#fff"/>
    <rect id="Rectangle_225" data-name="Rectangle 225" width="72.405" height="1.762" rx="0.881" transform="translate(228.868 198.148)" fill="#fff"/>
    <g id="Group_227" data-name="Group 227" transform="translate(211.06 107.505)" opacity="0.68">
      <path id="Path_423" data-name="Path 423" d="M2038,986.876l-6.257,66.357a132.28,132.28,0,0,1-2.6,18.354c-1,4.177-2.492,8.4-5.482,11.481-3.141,3.229-7.573,4.841-11.143,7.587-6.557,5.043-9.679,13.439-15.715,19.094s-10.2,12.057-21.929,13.413c-17.564,2.03-36.376-2.506-38.084-4.056,7.083-39.84,10.135-132.587,10.135-132.587S2014.906,987.318,2038,986.876Z" transform="translate(-1936.79 -986.52)" fill="#a3abb7"/>
    </g>
    <path id="Path_424" data-name="Path 424" d="M1895.939,982.978c-16.339,2.569-100.059-.524-100.059-.524s12.3-7.278,12.034-20.028.293-63.184.293-63.184l10.382-.155,72.5-1.076,15.583-.231S1910.4,976.2,1895.939,982.978Z" transform="translate(-1600.176 -799.945)" fill="#e6e9ef"/>
    <path id="Path_425" data-name="Path 425" d="M1895.94,1543.06s-3.059.144-6.127-10.277c-7.586-12.034-82.991-3.466-82.991-3.466l-10.941,13.219S1885.809,1546.777,1895.94,1543.06Z" transform="translate(-1600.175 -1360.026)" fill="#bfc6d1"/>
    <path id="Path_426" data-name="Path 426" d="M1707.473,1533.481s-6.567-7.519-12.6-1.793-6.559,17.411-5.247,28.754,2.361,24.461-9.445,25.773-88.94-3.673-88.94-3.673,9.17-7.807,5.5-17.152-8.055-31.552,3.19-34.218,58.432-4.071,71.042-3.949S1704.173,1525.631,1707.473,1533.481Z" transform="translate(-1417.836 -1360.725)" fill="#fff"/>
    <path id="Path_427" data-name="Path 427" d="M1616.313,1964.141s-11.935,0-13.186-11.544c-23.286,0-78.991-.535-83.31-1.308a9.274,9.274,0,0,0-.218,1.391,10.846,10.846,0,0,0,10.644,11.641C1551.41,1964.771,1609.257,1965.851,1616.313,1964.141Z" transform="translate(-1353.969 -1738.65)" fill="#bfc6d1"/>
    <rect id="Rectangle_226" data-name="Rectangle 226" width="79.099" height="1.575" rx="0.787" transform="translate(217.439 128.68)" fill="#bfc6d1"/>
    <rect id="Rectangle_227" data-name="Rectangle 227" width="32.446" height="1.575" rx="0.787" transform="translate(217.567 138.617)" fill="#bfc6d1"/>
    <rect id="Rectangle_228" data-name="Rectangle 228" width="37.573" height="1.575" rx="0.787" transform="translate(216.734 160.235)" fill="#bfc6d1"/>
    <rect id="Rectangle_229" data-name="Rectangle 229" width="79.099" height="1.575" rx="0.787" transform="translate(216.734 151.243)" fill="#bfc6d1"/>
    <rect id="Rectangle_230" data-name="Rectangle 230" width="27.936" height="18.612" rx="5.92" transform="translate(185.581 178.807)" fill="#bfc6d1"/>
    <rect id="Rectangle_231" data-name="Rectangle 231" width="39.069" height="2.618" rx="1.309" transform="translate(221.191 176.189)" fill="#bfc6d1"/>
    <rect id="Rectangle_232" data-name="Rectangle 232" width="22.477" height="2.199" rx="1.1" transform="translate(217.567 185.913)" fill="#bfc6d1"/>
    <rect id="Rectangle_233" data-name="Rectangle 233" width="14.539" height="2.765" rx="1.382" transform="translate(233.79 196.263)" fill="#bfc6d1"/>
    <rect id="Rectangle_234" data-name="Rectangle 234" width="69.122" height="1.935" rx="0.968" transform="translate(189.408 204.665)" fill="#bfc6d1"/>
    <g id="Group_228" data-name="Group 228" transform="translate(218.417 98.066)" opacity="0.68">
      <path id="Path_428" data-name="Path 428" d="M2076.8,899.9a66.1,66.1,0,0,1-4.867,22.885c-4.108,9.6-11.452,18.795-24.4,25.265q-.582.291-1.18.578-1.2.568-2.455,1.105c-.421.178-.846.354-1.275.526-.633.255-1.278.507-1.934.749,0,.088-.338.088-.338,0a60.98,60.98,0,0,1-16.311-8.868,48.881,48.881,0,0,1-6.937-6.538,46.536,46.536,0,0,1-3.069-3.923,47.1,47.1,0,0,1-3.286-5.423c-4.386-8.427-5.979-17.4-6.451-25.273Z" transform="translate(-2004.3 -899.9)" fill="#bfc6d1"/>
    </g>
    <rect id="Rectangle_235" data-name="Rectangle 235" width="85.923" height="85.923" transform="translate(303.564 184.19)" fill="#e6e9ef"/>
    <path id="Path_429" data-name="Path 429" d="M2785.65,1799.227l2.542-.033,2.54-.024,5.082-.049,10.163-.061c3.388-.026,6.775-.021,10.163-.031l10.163-.02,10.163.018,5.08.01,2.542.006,2.54.014,10.163.061,5.082.049,2.541.025,2.54.033-2.54.034-2.541.024-5.082.049-10.163.061-2.54.015h-2.542l-5.08.01-10.163.02-10.163-.02c-3.388-.01-6.775,0-10.163-.031l-10.163-.06-5.082-.049-2.54-.025Z" transform="translate(-2482.086 -1602.965)" fill="#bfc6d1"/>
    <path id="Path_430" data-name="Path 430" d="M3209.11,1740.008l1.244-.033,1.242-.025,2.487-.048q2.487-.039,4.971-.063c1.658-.021,3.315-.025,4.973-.037l4.972-.012,4.972.012c1.657.012,3.314.015,4.972.036s3.315.038,4.972.063l2.486.049,1.243.025,1.243.033-1.243.033-1.243.025-2.486.049q-2.487.039-4.972.063c-1.658.021-3.315.024-4.972.036l-4.972.012-4.972-.012c-1.657-.012-3.315-.016-4.973-.036s-3.314-.038-4.971-.063l-2.487-.049-1.242-.025Z" transform="translate(-2859.4 -1550.198)" fill="#bfc6d1"/>
    <path id="Path_431" data-name="Path 431" d="M3038.75,1847.06h58.343s-13.017,1.909-13.017,18.962C3070.695,1856.541,3038.75,1847.06,3038.75,1847.06Z" transform="translate(-2707.605 -1645.778)" fill="#bfc6d1"/>
    <path id="Path_432" data-name="Path 432" d="M2833.53,2035.51h40.928s-23.046,3.936-31.331,12.593C2833.53,2040.844,2833.53,2035.51,2833.53,2035.51Z" transform="translate(-2524.749 -1813.692)" fill="#bfc6d1"/>
    <path id="Path_433" data-name="Path 433" d="M2785.65,1949.468l1.082-.033,1.081-.025,2.162-.049q2.164-.038,4.325-.063c1.442-.02,2.884-.024,4.326-.036l4.325-.012,4.325.011c1.442.013,2.884.016,4.325.037s2.884.037,4.325.063l2.162.049,1.082.025,1.081.033-1.081.033-1.082.025-2.162.049q-2.162.038-4.325.063c-1.441.02-2.883.024-4.325.036l-4.325.012-4.325-.012c-1.443-.012-2.885-.016-4.326-.037s-2.883-.037-4.325-.063l-2.162-.049-1.081-.024Z" transform="translate(-2482.086 -1736.833)" fill="#bfc6d1"/>
    <path id="Path_434" data-name="Path 434" d="M2896.11,2192.628l2.309-.033,2.309-.025,4.617-.048,9.236-.061c3.078-.026,6.157-.022,9.237-.032l9.236-.02,9.236.02,4.618.01,2.308.005,2.309.015,9.236.061,4.618.049,2.309.025,2.309.033-2.309.033-2.309.025-4.618.049-9.236.061-2.309.015h-2.308l-4.618.01-9.236.02-9.236-.02c-3.08-.01-6.158-.006-9.237-.032l-9.236-.061-4.617-.048-2.309-.025Z" transform="translate(-2580.509 -1953.494)" fill="#bfc6d1"/>
    <path id="Path_435" data-name="Path 435" d="M2785.65,2272.078c1.577-.09,3.154-.137,4.731-.17.788-.02,1.577-.024,2.365-.036l2.366-.012,2.365.012c.788.012,1.577.015,2.365.036,1.577.031,3.154.08,4.731.17-1.577.091-3.154.138-4.731.17-.788.021-1.577.024-2.365.036l-2.365.012-2.366-.012c-.788-.012-1.577-.016-2.365-.037C2788.8,2272.215,2787.227,2272.168,2785.65,2272.078Z" transform="translate(-2482.086 -2024.286)" fill="#bfc6d1"/>
    <path id="Path_436" data-name="Path 436" d="M2843.9,2340.338l2.487-.033,2.487-.025,4.974-.049,9.947-.06c3.316-.026,6.631-.022,9.947-.032l9.947-.02,9.946.02,4.974.01,2.487.006,2.487.015,9.947.061,4.973.049,2.487.025,2.487.033-2.487.033-2.487.025-4.973.049-9.947.061-2.487.014-2.487.007-4.974.01-9.946.02-9.947-.02c-3.316-.01-6.631-.005-9.947-.031l-9.947-.061-4.974-.048-2.487-.025Z" transform="translate(-2533.988 -2085.108)" fill="#bfc6d1"/>
    <path id="Path_437" data-name="Path 437" d="M2844,2411.708l2.487-.033,2.487-.025,4.974-.049,9.946-.061c3.316-.026,6.632-.021,9.947-.031l9.947-.02,9.947.02,4.974.01h2.487l2.487.015,9.946.06,4.974.05,2.487.024,2.487.034-2.487.033-2.487.025-4.974.049-9.946.06-2.487.015-2.487.006-4.974.011-9.947.019-9.947-.02c-3.315-.01-6.631,0-9.947-.031l-9.946-.061-4.974-.049-2.487-.024Z" transform="translate(-2534.077 -2148.7)" fill="#bfc6d1"/>
    <path id="Path_438" data-name="Path 438" d="M2045.064,595.211h0c.054,16.165-3.287,40.279-29.373,53.316q-2.332,1.167-4.911,2.209-.949.384-1.934.749c0,.088-.338.088-.338,0a60.9,60.9,0,0,1-16.31-8.869,48.821,48.821,0,0,1-6.937-6.538,46.289,46.289,0,0,1-3.069-3.923,47.606,47.606,0,0,1-3.287-5.423c-9.154-17.586-6.145-37.534-6.145-44.943,17.06,5.687,33.455-7.44,35.776-9.407,0-.158.282-.158.282,0,.005.007.013.011.02.017a47.485,47.485,0,0,0,4.468,3.289c1.143.751,2.464,1.555,3.935,2.351a46.484,46.484,0,0,0,8.55,3.613,30.657,30.657,0,0,0,18.808.137c0,1.725.161,4.131.3,7.032C2044.98,590.747,2045.058,592.9,2045.064,595.211Z" transform="translate(-1757.358 -509.901)" fill="#f28c20"/>
    <g id="Group_229" data-name="Group 229" transform="translate(221.547 62.494)" opacity="0.51">
      <path id="Path_439" data-name="Path 439" d="M2131.867,628.86l-33.589,60.97a48.831,48.831,0,0,1-6.937-6.538l31.976-58.042A46.488,46.488,0,0,0,2131.867,628.86Z" transform="translate(-2084.985 -619.608)" fill="#fff"/>
      <path id="Path_440" data-name="Path 440" d="M2067.417,576.769l-31.11,56.466a47.587,47.587,0,0,1-3.287-5.423l29.933-54.332A47.493,47.493,0,0,0,2067.417,576.769Z" transform="translate(-2033.02 -573.48)" fill="#fff"/>
      <path id="Path_441" data-name="Path 441" d="M2359.659,724.17l-34.109,61.921q2.581-1.039,4.912-2.209l29.373-53.316h0Z" transform="translate(-2293.672 -707.749)" fill="#fff"/>
    </g>
    <path id="Path_442" data-name="Path 442" d="M2039.761,689.284c0,.074-.294.074-.294,0a51.752,51.752,0,0,1-17.344-10.319q-1.184-1.09-2.244-2.222a42.2,42.2,0,0,1-3.487-4.228,45.318,45.318,0,0,1-5.833-11.106c-4.873-13.409-3.313-27.011-3.313-32.548,7.393,2.465,14.947.852,20.907-1.593a47.616,47.616,0,0,0,11.341-6.58c0-.137.246-.137.246,0,.375.317,1.215.974,2.43,1.8,1.135.774,2.6,1.7,4.313,2.632.839.454,1.738.914,2.688,1.36,6.221,2.919,14.659,5.265,22.876,2.525C2072.045,639.047,2077.109,675.428,2039.761,689.284Z" transform="translate(-1788.296 -552.957)" fill="#ffb776"/>
    <path id="Path_443" data-name="Path 443" d="M2243.317,729.455H2242.1v-5.61a6.605,6.605,0,0,0-6.585-6.585h-1.34a6.6,6.6,0,0,0-6.584,6.585v5.61h-.981a1.1,1.1,0,0,0-1.1,1.1v16.036a1.1,1.1,0,0,0,1.1,1.1h16.707a1.1,1.1,0,0,0,1.1-1.1V730.553A1.1,1.1,0,0,0,2243.317,729.455Zm-13.536-6.4c0-1.543,1.689-3.841,3.231-3.841h3.23c2.134,0,3.719,2.359,3.719,3.9v6.341H2229.8Z" transform="translate(-1982.987 -639.097)" fill="#5867ac"/>
    <path id="Path_444" data-name="Path 444" d="M2295.891,881.744v-2.236a1.1,1.1,0,0,0-2.195,0v2.258a1.99,1.99,0,1,0,2.195-.022Z" transform="translate(-2042.962 -782.686)" fill="#fff"/>
    <rect id="Rectangle_236" data-name="Rectangle 236" width="28.335" height="6.953" transform="translate(237.714 113.581)" fill="#fff"/>
    <circle id="Ellipse_157" data-name="Ellipse 157" cx="0.833" cy="0.833" r="0.833" transform="translate(241.19 116.147)" fill="#5867ac"/>
    <circle id="Ellipse_158" data-name="Ellipse 158" cx="0.833" cy="0.833" r="0.833" transform="translate(245.167 116.147)" fill="#5867ac"/>
    <circle id="Ellipse_159" data-name="Ellipse 159" cx="0.833" cy="0.833" r="0.833" transform="translate(249.144 116.147)" fill="#5867ac"/>
    <circle id="Ellipse_160" data-name="Ellipse 160" cx="0.833" cy="0.833" r="0.833" transform="translate(253.121 116.147)" fill="#5867ac"/>
    <circle id="Ellipse_161" data-name="Ellipse 161" cx="0.833" cy="0.833" r="0.833" transform="translate(257.097 116.147)" fill="#5867ac"/>
    <circle id="Ellipse_162" data-name="Ellipse 162" cx="0.833" cy="0.833" r="0.833" transform="translate(261.075 116.147)" fill="#5867ac"/>
    <g id="Group_230" data-name="Group 230" transform="translate(222.26 67.628)" opacity="0.57">
      <path id="Path_445" data-name="Path 445" d="M2071.181,622.49,2045.4,672.51a45.317,45.317,0,0,1-5.833-11.106l17.592-34.136a47.577,47.577,0,0,0,11.341-6.58c0-.137.246-.137.246,0C2069.126,621.005,2069.966,621.662,2071.181,622.49Z" transform="translate(-2039.57 -620.585)" fill="#fff"/>
      <path id="Path_446" data-name="Path 446" d="M2127.364,716.063l27.046-52.483c-.95-.446-1.853-.906-2.688-1.36l-26.6,51.621Z" transform="translate(-2115.797 -657.683)" fill="#fff"/>
    </g>
    <path id="Path_447" data-name="Path 447" d="M1290.182,1694.142s.515,19.215.972,26.557-.516,5.83-.486,13.386.608,20.728.608,20.728a57,57,0,0,0-10.979,0l-4.2.647s-9.579-1.943-14.371.864-.173-22.455-1.229-27.421-1.386-3.454-.992-7.342,1.363-9.068.992-12.738,1.229-39.944,1.229-39.944l25.637,4.44Z" transform="translate(-1122.106 -1487.015)" fill="#fecbc8"/>
    <g id="Group_231" data-name="Group 231" transform="translate(137.236 181.865)" clip-path="url(#clip-path)">
      <path id="Path_448" data-name="Path 448" d="M1294.528,1905.211c.72,2.47,2.15.872.618,2.984-.318.436-.972,4.509-1.132,5.019-.168.533-1.236,10.819-1.315,15.047l-.218,11.8a2.661,2.661,0,0,1-.557,1.928,3,3,0,0,1-1.635.628l-9.263,1.587a8.086,8.086,0,0,1-.676-4.157c.35-22.006.562-35.34.912-57.347-1.238-.032-2.086,13.274-2.54,21.468a24.513,24.513,0,0,1-.511,4.3c-.2.85-.487,1.683-.635,2.542a17.8,17.8,0,0,0-.04,4.067c.51,8.734-.34,17.483-1.189,26.193a4.194,4.194,0,0,1-.465,1.828c-1.023,1.666-3.58,1.356-5.616,1.368a11.085,11.085,0,0,0-7.846,3.33c-.342,2.055,22.5,9.969,35.464,5.223,3.051-1.117,3-46.545.278-47.329Z" transform="translate(-1262.08 -1859.399)" fill="#f9a4a2"/>
    </g>
    <path id="Path_450" data-name="Path 450" d="M1443.16,2443.806s4.638-2.66,9.161-.521c1.457.689,3.281,5.667,1.541,5.829-6.444.586-13.176-.327-15.058-.971s-2.995-3.79-2.995-3.79S1440.936,2442.731,1443.16,2443.806Z" transform="translate(-1279.344 -2176.289)" fill="#727272"/>
    <g id="Group_232" data-name="Group 232" transform="translate(156.466 266.164)" clip-path="url(#clip-path-2)">
      <path id="Path_451" data-name="Path 451" d="M1449.5,2464.82c.181-1.007-1.061-1.661-2.083-1.99a8.1,8.1,0,0,0-4.686-.529,12.532,12.532,0,0,0-2.1,1,10.805,10.805,0,0,1-11.83-1.605c-1.006,1.239-.327,3.082.763,4.262a11.586,11.586,0,0,0,5.985,3.207,31.332,31.332,0,0,0,6.945.587,17.171,17.171,0,0,0,4.886-.486,5.783,5.783,0,0,0,3.705-2.867.948.948,0,0,0-.822-.109Z" transform="translate(-1429.125 -2459.603)" fill="#443b3d"/>
    </g>
    <path id="Path_453" data-name="Path 453" d="M1278.094,2448.834a8.938,8.938,0,0,1,8.339-.382c1.457.688,3.256,5.515,1.54,5.829-5.3.972-13.175-.327-15.058-.971a6.317,6.317,0,0,1-2.995-2.914S1275.87,2447.753,1278.094,2448.834Z" transform="translate(-1131.532 -2180.867)" fill="#727272"/>
    <g id="Group_233" data-name="Group 233" transform="translate(138.388 266.724)" clip-path="url(#clip-path-3)">
      <path id="Path_454" data-name="Path 454" d="M1279.986,2472.119c.181-1.007-1.061-1.661-2.084-1.99a8.108,8.108,0,0,0-4.686-.528,12.518,12.518,0,0,0-2.1,1,10.806,10.806,0,0,1-11.83-1.6c-1.006,1.238-.327,3.081.763,4.261a11.586,11.586,0,0,0,5.985,3.208,31.283,31.283,0,0,0,6.944.586,17.176,17.176,0,0,0,4.888-.486,5.784,5.784,0,0,0,3.705-2.866.941.941,0,0,0-.822-.109Z" transform="translate(-1260.009 -2466.667)" fill="#443b3d"/>
    </g>
    <path id="Path_456" data-name="Path 456" d="M1394.807,1053.443s.177-2.537,4.2-1.486,6.558,5.509,9.182,5.6,3.585,8.436-2.187,8.241-15.792,2.961-15.792,2.961S1381.339,1053.356,1394.807,1053.443Z" transform="translate(-1236.158 -937.093)" fill="#892e0e"/>
    <g id="Group_234" data-name="Group 234" transform="translate(151.184 114.608)" clip-path="url(#clip-path-4)">
      <path id="Path_457" data-name="Path 457" d="M1377.9,1066.395a2.228,2.228,0,0,1,2-2.324c.311.375-.445.784-.495,1.266-.034.327.285.591.606.654a6.256,6.256,0,0,0,.981.012,3.313,3.313,0,0,1,2.237,1.327,14.656,14.656,0,0,0,1.758,2.015,6.359,6.359,0,0,0,5.026.858,5.29,5.29,0,0,1,2.594-.062,3.423,3.423,0,0,1,1.873,2.07,4.7,4.7,0,0,1,.172,3.269c-.67,1.865-2.715,2.833-4.627,3.349-5.71,1.552-11.966.894-17.4,3.244a3.2,3.2,0,0,1-1.427.391c-1.044-.064-1.674-1.154-2.087-2.114a17.529,17.529,0,0,1-1.456-4.752,7.225,7.225,0,0,1,.943-4.795c1.611-2.473,4.92-3.257,7.864-3.045a2.644,2.644,0,0,1-.849-.745.9.9,0,0,1,.016-1.06,1.37,1.37,0,0,1,.722-.327l.218-.048a1.128,1.128,0,0,1,1.33.8Z" transform="translate(-1369.749 -1062.722)" fill="#6b210a"/>
    </g>
    <path id="Path_459" data-name="Path 459" d="M1303.935,1284.32s8.718,3.95,10.884,4.609-2.484,41.922-2.484,41.922a30.9,30.9,0,0,1-19.491-1.536c-9.877-4.39-1.535-43.239-1.535-43.239Z" transform="translate(-1147.657 -1144.362)" fill="#fff5f3"/>
    <path id="Path_460" data-name="Path 460" d="M1407.347,1122.7s-1.988,7.963-2.268,10.171-2.566,5.284-4.922,5.114a10.97,10.97,0,0,1-2.015-.314,14.935,14.935,0,0,1-.315,3.641c-.391,1.314-2.094,2.024-3.814,1.916-1.756-.109-6.539-3.772-6.223-5.788s.857-.68,1.575-3.7l.719-3.015s-2.051-1.695-2.425-3.316,1-3.6,2.4-3.378c1.68.262,1.73,2.148,1.73,2.148a5.168,5.168,0,0,0,2.288-3.836c.3-2.706.879-2.843.879-2.843s.892,1.1,1.466.228,1.167-1.475,2.349-1.037S1403.042,1122.64,1407.347,1122.7Z" transform="translate(-1236.385 -996.655)" fill="#f9a96a"/>
    <g id="Group_235" data-name="Group 235" transform="translate(151.212 121.893)" clip-path="url(#clip-path-5)">
      <path id="Path_461" data-name="Path 461" d="M1443.2,1087.22c-2.324-2.9-6.136-4.25-9.843-4.505a7.877,7.877,0,0,0-4.032.568,3.518,3.518,0,0,0-2.085,3.269l.189,7.519a5.8,5.8,0,0,0,3.424-5.022,1.635,1.635,0,0,0,2.028-.624.742.742,0,0,1,.23-.291c.182-.109.406.01.585.119a41.445,41.445,0,0,0,5.217,2.7,6.652,6.652,0,0,0,2.814.713,2.529,2.529,0,0,0,2.328-1.479A3.212,3.212,0,0,0,1443.2,1087.22Z" transform="translate(-1422.916 -1086.587)" fill="#ea8744"/>
      <path id="Path_462" data-name="Path 462" d="M1438.134,1269.623a5.549,5.549,0,0,1-3.186-.951,16.433,16.433,0,0,1-2.578-2.172,4.353,4.353,0,0,0,.462,2.927,9.433,9.433,0,0,0,2.077,3.109,4.98,4.98,0,0,0,3.378,1.431,1.483,1.483,0,0,0,1.308-.581,1.759,1.759,0,0,0,.178-.626,4.148,4.148,0,0,0-.208-2.764Z" transform="translate(-1427.397 -1250.377)" fill="#ea8744"/>
      <path id="Path_463" data-name="Path 463" d="M1402.831,1187.983a1.321,1.321,0,1,0,1.5.563A1.154,1.154,0,0,0,1402.831,1187.983Z" transform="translate(-1400.825 -1180.312)" fill="#ea8744"/>
    </g>
    <path id="Path_465" data-name="Path 465" d="M1477.182,1152.079c-.2-.038-.377-.081-.545-.119s-.337-.072-.5-.1c-.082-.017-.164-.024-.247-.039a1.931,1.931,0,0,0-.253-.026c-.173-.022-.349-.019-.556-.042a1.089,1.089,0,0,1,.522-.3,1.419,1.419,0,0,1,.3-.046,1.681,1.681,0,0,1,.305.023,1.538,1.538,0,0,1,.562.218A1.161,1.161,0,0,1,1477.182,1152.079Z" transform="translate(-1314.334 -1025.934)" fill="#892e0e"/>
    <path id="Path_466" data-name="Path 466" d="M1535.8,1166.108c-.2-.038-.376-.08-.545-.118s-.338-.072-.5-.1c-.082-.017-.165-.024-.247-.039a1.765,1.765,0,0,0-.252-.026c-.174-.022-.349-.019-.557-.044a1.1,1.1,0,0,1,.523-.3,1.412,1.412,0,0,1,.3-.046,1.669,1.669,0,0,1,.3.023,1.527,1.527,0,0,1,.562.218A1.159,1.159,0,0,1,1535.8,1166.108Z" transform="translate(-1366.566 -1038.436)" fill="#892e0e"/>
    <path id="Path_467" data-name="Path 467" d="M1514.656,1181a5.93,5.93,0,0,0-.2.9,3.32,3.32,0,0,0-.011.872,2.019,2.019,0,0,0,.27.782,2.386,2.386,0,0,0,.564.622l.161.128-.117.139c-.087.109-.177.208-.271.307s-.193.2-.294.288a2.968,2.968,0,0,1-.327.257,1.035,1.035,0,0,1-.376.175.753.753,0,0,0,.15-.131c.047-.047.088-.1.131-.149.085-.1.16-.21.239-.316s.15-.218.224-.327l.218-.327.045.268a2.206,2.206,0,0,1-.72-.706,2.015,2.015,0,0,1-.3-.973,2.537,2.537,0,0,1,.148-.974,2.756,2.756,0,0,1,.2-.436A2.177,2.177,0,0,1,1514.656,1181Z" transform="translate(-1349.047 -1052.302)" fill="#892e0e"/>
    <path id="Path_468" data-name="Path 468" d="M1482.153,1231.347a1.37,1.37,0,0,1-.68.032,1.535,1.535,0,0,1-.643-.288,1.187,1.187,0,0,1-.413-.6,1.027,1.027,0,0,1,.031-.693,3.231,3.231,0,0,0,.28.553,1.739,1.739,0,0,0,.371.4,3.477,3.477,0,0,0,.484.306C1481.761,1231.152,1481.948,1231.244,1482.153,1231.347Z" transform="translate(-1319.049 -1095.784)" fill="#892e0e"/>
    <circle id="Ellipse_163" data-name="Ellipse 163" cx="1.622" cy="1.622" r="1.622" transform="translate(156.607 130.04)" fill="#d1544e"/>
    <ellipse id="Ellipse_164" data-name="Ellipse 164" cx="0.875" cy="0.647" rx="0.875" ry="0.647" transform="translate(166.34 130.163) rotate(-75.548)" fill="#892e0e"/>
    <ellipse id="Ellipse_165" data-name="Ellipse 165" cx="0.874" cy="0.646" rx="0.874" ry="0.646" transform="matrix(0.253, -0.968, 0.968, 0.253, 160.697, 129.92)" fill="#892e0e"/>
    <ellipse id="Ellipse_166" data-name="Ellipse 166" cx="0.359" cy="0.266" rx="0.359" ry="0.266" transform="translate(166.996 129.66) rotate(-75.548)" fill="#fff"/>
    <ellipse id="Ellipse_167" data-name="Ellipse 167" cx="0.359" cy="0.266" rx="0.359" ry="0.266" transform="matrix(0.253, -0.968, 0.968, 0.253, 161.326, 129.38)" fill="#fff"/>
    <path id="Path_469" data-name="Path 469" d="M1489.1,1311s2.492,17.84,1.771,21.864a84.421,84.421,0,0,0-.82,17.49c.27,8.046.95,17.49.95,17.49a26.291,26.291,0,0,0,9.643-1.749c-1.925-11.741-3.324-15.741-2.8-17.49a11.294,11.294,0,0,0,0-4.285c0-.612.174-5.747.174-5.747s-.174,4.785,7.519,5.747,7.87-9.183,4.548-16.529-10.145-11.9-12.243-13.471S1489.1,1311,1489.1,1311Z" transform="translate(-1326.827 -1168.135)" fill="#5867ac"/>
    <g id="Group_236" data-name="Group 236" transform="translate(162.273 142.865)" clip-path="url(#clip-path-6)">
      <path id="Path_470" data-name="Path 470" d="M1466.618,1301.93a21.134,21.134,0,0,0-2.966,3.072,2.243,2.243,0,0,0-.468.822,2.4,2.4,0,0,0,.115,1.183,98.88,98.88,0,0,1,3.327,28.915l3.756-11.746a24.924,24.924,0,0,0,.846-3.115,20.739,20.739,0,0,0,.244-3.715,68.111,68.111,0,0,0-1.744-15.019Z" transform="translate(-1465.975 -1302.918)" fill="#3b4c89"/>
      <path id="Path_471" data-name="Path 471" d="M1554.3,1589.42l-.932-6.47a21.8,21.8,0,0,1-1.661,7.031c-.272.645-.553,1.462-.082,1.981a4.714,4.714,0,0,1,.458.436c.4.606-.406,1.274-.642,1.962a2.964,2.964,0,0,0,.62,2.27c1.229,2.219,1.635,4.781,2.288,7.232s1.659,4.967,3.685,6.491C1555.584,1603.686,1556.526,1596.17,1554.3,1589.42Z" transform="translate(-1544.58 -1553.314)" fill="#3b4c89"/>
    </g>
    <path id="Path_473" data-name="Path 473" d="M1230.469,1294.19a62.357,62.357,0,0,1,2.886,13.773,119.069,119.069,0,0,1,.654,13.249l8-3.41s-1.836,4.722.393,6.165-9.575,10.889-9.575,10.889l-.263,19.194s-14.3.218-19.546-4.108c1.18-6.69,3.935-17.053,3.148-18.365s.394-1.049.131-2.492-.654-7.876-1.049-12.136S1211.846,1295.1,1230.469,1294.19Z" transform="translate(-1080.832 -1153.157)" fill="#5867ac"/>
    <g id="Group_237" data-name="Group 237" transform="translate(132.188 141.033)" clip-path="url(#clip-path-7)">
      <path id="Path_474" data-name="Path 474" d="M1299.09,1274.962c3.278,3.844,4.977,8.954,7.044,13.565,2.607,5.815,2.573,9.838,3.963,14.26,1.355-.971,1.866-2.724,2.18-4.359a37,37,0,0,0-1.381-18.891,11.739,11.739,0,0,0-3.5-5.632c-1.771-1.374-4.5-1.73-6.212-.272Z" transform="translate(-1289.711 -1275.037)" fill="#3b4c89"/>
    </g>
    <g id="Group_238" data-name="Group 238" transform="translate(132.188 141.033)" clip-path="url(#clip-path-7)">
      <path id="Path_476" data-name="Path 476" d="M1296.346,1413.216a5.647,5.647,0,0,1-2.171-2.165c-1.492-2.385-2.1-5.207-3.269-7.764s-3.215-5.039-6.005-5.4c2.482,1.235,4,3.814,5,6.4s1.62,5.34,3,7.737c.394.684.858,1.526.462,2.206-.218.378-.685.687-.6,1.114l2.092-.726a6.532,6.532,0,0,0-.891,4.829,14.2,14.2,0,0,1,4.937-5.894A4.311,4.311,0,0,1,1296.346,1413.216Z" transform="translate(-1277.067 -1386.589)" fill="#3b4c89"/>
      <path id="Path_477" data-name="Path 477" d="M1271.944,1552.7a10.45,10.45,0,0,1-3.391-3.487,55.905,55.905,0,0,1-5.152-9.391l.407,1.354,3.134,6.633a20.759,20.759,0,0,0,2.842,4.831,6.993,6.993,0,0,0,4.809,2.6c2.657.109,4.933-1.765,6.92-3.535C1278.48,1553.077,1274.869,1554.289,1271.944,1552.7Z" transform="translate(-1257.91 -1513.053)" fill="#3b4c89"/>
      <path id="Path_478" data-name="Path 478" d="M1188.032,1537.956c-1.914-1.119-3.776-2.976-3.559-5.182.122-1.241.89-2.321,1.226-3.523.356-1.276.218-2.645.521-3.933s1.347-2.6,2.667-2.478c-.581-.292-1.268-.86-.981-1.445a1.272,1.272,0,0,1,.625-.509l1.831-.924a15.609,15.609,0,0,1-6.415-13.932l-5.392,15.865a9.536,9.536,0,0,1,1.936,6.274c-.218,3.86-2.774,7.577-1.853,11.333.844,3.434,4.327,5.538,7.706,6.582a26.9,26.9,0,0,0,9.25,1.163c2.167-.109,4.468-.545,6.019-2.07,1.626-1.6,2.071-4.007,2.431-6.256A18.058,18.058,0,0,1,1188.032,1537.956Z" transform="translate(-1182.206 -1482.945)" fill="#3b4c89"/>
    </g>
    <rect id="Rectangle_237" data-name="Rectangle 237" width="1.738" height="8.45" rx="0.869" transform="translate(177.852 151.59) rotate(180)" fill="#17161e"/>
    <path id="Path_480" data-name="Path 480" d="M1505.993,1363.43h-15.5a2.355,2.355,0,0,0-2.246,1.644l-6.879,21.753a2.355,2.355,0,0,0,2.246,3.065h15.75a2.355,2.355,0,0,0,2.254-1.669l6.621-21.753a2.356,2.356,0,0,0-2.25-3.04Z" transform="translate(-1319.843 -1214.852)" fill="#17161e"/>
    <path id="Path_481" data-name="Path 481" d="M1516.579,1365.35h-15.492a2.354,2.354,0,0,0-2.246,1.645l-6.878,21.753a2.355,2.355,0,0,0,2.246,3.066h15.75a2.355,2.355,0,0,0,2.254-1.669l6.62-21.753a2.355,2.355,0,0,0-2.254-3.04Z" transform="translate(-1329.279 -1216.562)" fill="#35333e"/>
    <path id="Path_482" data-name="Path 482" d="M1599.611,1426.672a2.9,2.9,0,0,1-1.971-.717,3.065,3.065,0,0,1-.951-2.583,5.268,5.268,0,0,1,4.072-4.56,2.929,2.929,0,0,1,3.625,3.238,5.254,5.254,0,0,1-4.066,4.559A3.84,3.84,0,0,1,1599.611,1426.672Zm1.845-7.49a3.41,3.41,0,0,0-.62.059,4.572,4.572,0,0,0-2.52,1.49h0a4.611,4.611,0,0,0-1.2,2.672,2.49,2.49,0,0,0,3.11,2.772,4.815,4.815,0,0,0,3.712-4.162,2.634,2.634,0,0,0-.805-2.226A2.48,2.48,0,0,0,1601.456,1419.183Zm-3.3,1.4Z" transform="translate(-1422.681 -1264.14)" fill="#fff"/>
    <path id="Path_483" data-name="Path 483" d="M1465.008,1462.037a20.926,20.926,0,0,1,1.542-3.895c.916-1.635,4.332-3.072,4.332-3.072l-.719,2.49a2.885,2.885,0,0,0,2.577-.218c5.268-3.189,5.186-1.542,3.9-.528a6.705,6.705,0,0,0-1.724,1.933c-.577.7.148.872-.3,1.853a3.437,3.437,0,0,0-.123,2.521c.2.341.276,1.942-.747,2.189s-4.224,2.615-7.121,2.367S1465.008,1462.037,1465.008,1462.037Z" transform="translate(-1305.11 -1296.505)" fill="#f9a96a"/>
    <g id="Group_239" data-name="Group 239" transform="translate(159.617 158.565)" clip-path="url(#clip-path-9)">
      <path id="Path_484" data-name="Path 484" d="M1504.5,1447.1a3.988,3.988,0,0,0-2.243-.4c-.768.053-1.526.218-2.288.284a2.615,2.615,0,0,1-1.526-.224,4.647,4.647,0,0,0-.518-.311,1.434,1.434,0,0,0-1.323.258l.137.375-1.466,1.4c-.19.182-.4.412-.347.669.078.4.627.426,1.033.464.981.09,1.866.806,2.844.7a4.044,4.044,0,0,0,1.618-.747,12.7,12.7,0,0,1,3.835-1.584c.26-.06.584-.18.593-.447A.6.6,0,0,0,1504.5,1447.1Z" transform="translate(-1491.63 -1447.329)" fill="#ea8744"/>
      <path id="Path_485" data-name="Path 485" d="M1537.852,1490.732a1.152,1.152,0,0,0-.339.934,2.269,2.269,0,0,1,.109.576c-.038.452-.654.719-.628,1.173a1.263,1.263,0,0,0,.34.607,2.108,2.108,0,0,1,.138,2.043,4.032,4.032,0,0,1-1.393,1.594,1.224,1.224,0,0,0,1.056.109,4.333,4.333,0,0,0,2.132-1.984,2.9,2.9,0,0,0,.085-1.1,14.258,14.258,0,0,1-.145-2.515,2.355,2.355,0,0,1,1.308-2.006l-1.838-.027A3.4,3.4,0,0,0,1537.852,1490.732Z" transform="translate(-1528.305 -1486.318)" fill="#ea8744"/>
      <path id="Path_486" data-name="Path 486" d="M1454.613,1518.616a27.284,27.284,0,0,1-3.6-1.569,5.325,5.325,0,0,1-1.979-5.247l-1.475,1.722a5.89,5.89,0,0,0-.81,2.071,2.748,2.748,0,0,0,.495,2.116,3.974,3.974,0,0,0,1.635,1.05,9.072,9.072,0,0,0,5.63.809c.236-.06.51-.185.533-.428S1454.829,1518.724,1454.613,1518.616Z" transform="translate(-1448.68 -1505.618)" fill="#ea8744"/>
    </g>
    <path id="Path_488" data-name="Path 488" d="M3194.055,1314c-.052,1.227-.147,2.448-.257,3.667-.051.61-.118,1.218-.177,1.828l-.2,1.825-.225,1.822c-.083.607-.158,1.214-.249,1.82-.174,1.212-.363,2.421-.6,3.627.052-1.226.147-2.448.258-3.667.05-.61.117-1.218.177-1.827l.2-1.824.226-1.822c.083-.607.158-1.214.25-1.82C3193.631,1316.417,3193.821,1315.206,3194.055,1314Z" transform="translate(-2844.466 -1170.808)"/>
    <path id="Path_489" data-name="Path 489" d="M3078.716,550.266h0c-.422-.008-.872-.035-1.324-.083a.219.219,0,1,1,.045-.436c.446.046.878.073,1.287.081a.218.218,0,1,1,0,.436Zm1.308-.049a.218.218,0,1,1-.021-.436,7.5,7.5,0,0,0,1.25-.218.218.218,0,0,1,.109.421,7.9,7.9,0,0,1-1.322.235Zm-3.906-.213h-.037c-.418-.072-.854-.159-1.293-.26a.218.218,0,1,1,.1-.425q.654.149,1.27.256a.219.219,0,0,1-.037.436Zm6.4-.512a.218.218,0,0,1-.109-.405,3.054,3.054,0,0,0,.91-.8.218.218,0,1,1,.35.259,3.467,3.467,0,0,1-1.039.917.218.218,0,0,1-.115.029Zm-8.947-.07a.219.219,0,0,1-.059-.008c-.412-.115-.837-.244-1.26-.383a.218.218,0,1,1,.135-.414c.417.136.836.263,1.242.377a.218.218,0,0,1-.059.427Zm-2.487-.807a.2.2,0,0,1-.075-.014c-.4-.148-.816-.308-1.227-.475a.218.218,0,1,1,.166-.4c.4.166.813.327,1.212.471a.218.218,0,0,1-.075.423Zm-2.423-.987a.217.217,0,0,1-.088-.02c-.4-.177-.8-.363-1.192-.555a.218.218,0,0,1,.191-.392c.39.19.788.375,1.179.545a.218.218,0,0,1-.089.417Zm15.351-.181a.183.183,0,0,1-.042,0,.218.218,0,0,1-.172-.256,3.284,3.284,0,0,0,.062-.654,4.249,4.249,0,0,0-.042-.579.22.22,0,1,1,.436-.06,4.777,4.777,0,0,1,.046.639,3.823,3.823,0,0,1-.07.734.218.218,0,0,1-.22.175Zm-17.705-.959a.218.218,0,0,1-.1-.024c-.385-.2-.774-.411-1.156-.624a.218.218,0,1,1,.213-.38c.379.211.763.42,1.145.618a.218.218,0,0,1-.1.411Zm-2.289-1.275a.217.217,0,0,1-.109-.031c-.376-.224-.752-.457-1.119-.69a.218.218,0,1,1,.234-.368c.363.232.735.461,1.108.683a.218.218,0,0,1-.109.405Zm19.685-.327a.218.218,0,0,1-.2-.143,9.233,9.233,0,0,0-.523-1.165.218.218,0,1,1,.385-.2,9.673,9.673,0,0,1,.545,1.219.218.218,0,0,1-.13.279.233.233,0,0,1-.063.01Zm-21.892-1.075a.219.219,0,0,1-.122-.038c-.364-.247-.726-.5-1.075-.755a.218.218,0,1,1,.256-.353c.345.252.7.5,1.065.748a.218.218,0,0,1-.123.4Zm20.689-1.239a.218.218,0,0,1-.182-.1c-.228-.342-.482-.694-.756-1.046a.218.218,0,1,1,.344-.268c.281.361.545.721.775,1.073a.219.219,0,0,1-.181.339Zm-22.8-.3a.218.218,0,0,1-.133-.046c-.35-.271-.694-.545-1.025-.825a.218.218,0,1,1,.279-.335c.327.272.668.545,1.013.815a.218.218,0,0,1-.134.39Zm-2.009-1.676a.217.217,0,0,1-.145-.056c-.327-.3-.654-.6-.961-.9a.218.218,0,1,1,.305-.312c.3.3.621.6.947.889a.218.218,0,0,1-.146.379Zm23.212-.092a.218.218,0,0,1-.164-.074c-.278-.315-.574-.634-.883-.95a.218.218,0,1,1,.312-.3c.313.32.616.646.9.965a.218.218,0,0,1-.163.363Zm-25.076-1.744a.218.218,0,0,1-.16-.07c-.306-.327-.6-.664-.872-.991a.218.218,0,1,1,.336-.278c.266.32.555.647.855.972a.22.22,0,0,1-.161.368Zm23.251-.134a.218.218,0,0,1-.149-.059c-.309-.29-.634-.582-.965-.872a.218.218,0,1,1,.284-.327c.337.29.666.586.981.88a.218.218,0,0,1-.148.377Zm-1.977-1.712a.225.225,0,0,1-.137-.048c-.332-.268-.678-.536-1.026-.8a.218.218,0,0,1,.262-.349c.353.265.7.536,1.039.806a.218.218,0,0,1-.136.388Zm-22.94-.168a.217.217,0,0,1-.177-.09c-.269-.373-.515-.744-.732-1.106a.218.218,0,1,1,.374-.223c.21.351.45.712.713,1.075a.218.218,0,0,1-.177.345Zm20.848-1.4a.217.217,0,0,1-.125-.039c-.351-.246-.713-.493-1.077-.731a.218.218,0,0,1,.24-.364c.367.241.733.489,1.09.738a.218.218,0,0,1-.125.4Zm-22.182-.838a.218.218,0,0,1-.2-.129,7.941,7.941,0,0,1-.453-1.263.218.218,0,1,1,.421-.109,7.616,7.616,0,0,0,.429,1.2.208.208,0,0,1-.2.3Zm19.989-.6a.217.217,0,0,1-.114-.032c-.365-.226-.741-.45-1.117-.667s-.751-.426-1.125-.629a.218.218,0,1,1,.207-.384c.378.2.763.418,1.135.634s.763.446,1.128.673a.218.218,0,0,1-.115.4ZM3069.405,532a.218.218,0,0,1-.1-.023c-.388-.2-.782-.386-1.172-.568a.218.218,0,1,1,.184-.394c.393.183.791.376,1.183.573a.218.218,0,0,1-.1.412Zm-17.187-.017h0a.218.218,0,0,1-.218-.218,3.471,3.471,0,0,1,.28-1.358.218.218,0,0,1,.4.175,3.037,3.037,0,0,0-.243,1.188A.218.218,0,0,1,3052.218,531.985Zm14.82-1.082a.216.216,0,0,1-.086-.017c-.4-.172-.806-.338-1.2-.491a.218.218,0,1,1,.158-.406c.4.156.812.327,1.217.5a.218.218,0,0,1-.085.418Zm-2.439-.946a.233.233,0,0,1-.071-.012c-.414-.144-.829-.28-1.236-.4a.218.218,0,1,1,.127-.416c.411.124.833.262,1.251.408a.218.218,0,0,1-.072.424Zm-11.349-.284a.218.218,0,0,1-.144-.382,4.168,4.168,0,0,1,1.18-.7.218.218,0,1,1,.162.4,3.708,3.708,0,0,0-1.056.628.218.218,0,0,1-.146.053Zm8.847-.474a.239.239,0,0,1-.055-.007c-.427-.109-.852-.207-1.263-.29a.218.218,0,1,1,.086-.427c.418.084.85.183,1.285.294a.218.218,0,0,1-.053.429Zm-2.563-.513h-.031c-.436-.062-.872-.109-1.285-.133a.218.218,0,1,1,.028-.436c.422.027.864.072,1.316.136a.218.218,0,0,1-.029.436Zm-3.908-.027a.219.219,0,0,1-.038-.436,9.746,9.746,0,0,1,1.331-.133.218.218,0,0,1,.015.436,9.531,9.531,0,0,0-1.271.126Z" transform="translate(-2719.411 -470.541)" fill="#d4d8e1"/>
    <path id="Path_490" data-name="Path 490" d="M3033.7,543.578h-.023c-.458,0-.9-.02-1.308-.059a.219.219,0,1,1,.042-.436c.395.038.818.057,1.263.057h.023a.218.218,0,1,1,0,.436Zm1.308-.05a.218.218,0,1,1-.015-.436c.413-.031.847-.074,1.289-.131a.22.22,0,0,1,.056.436c-.45.058-.893.1-1.313.133Zm-3.9-.218a.262.262,0,0,1-.051-.005,5.753,5.753,0,0,1-1.276-.463.218.218,0,0,1,.2-.387,5.31,5.31,0,0,0,1.178.426.218.218,0,0,1-.051.429Zm6.5-.109a.219.219,0,0,1-.037-.436c.414-.072.844-.156,1.275-.248a.218.218,0,0,1,.092.427c-.436.094-.872.178-1.292.251a.228.228,0,0,1-.039.005Zm2.558-.545a.218.218,0,0,1-.053-.429c.413-.109.836-.218,1.258-.335a.218.218,0,1,1,.119.42c-.426.12-.854.233-1.271.338a.217.217,0,0,1-.054.005Zm-11.3-.592a.217.217,0,0,1-.169-.081,2.665,2.665,0,0,1-.327-.515,2.733,2.733,0,0,1-.239-.77.221.221,0,0,1,.436-.066,2.3,2.3,0,0,0,.2.647,2.245,2.245,0,0,0,.274.436.218.218,0,0,1-.17.355Zm13.817-.117a.218.218,0,0,1-.064-.426c.407-.128.824-.263,1.238-.4a.218.218,0,1,1,.141.412c-.417.142-.838.279-1.249.408a.225.225,0,0,1-.068.009Zm2.477-.841a.218.218,0,0,1-.075-.422c.4-.148.813-.3,1.219-.463a.218.218,0,1,1,.159.406c-.407.16-.82.316-1.227.465a.2.2,0,0,1-.077.012Zm2.435-.955a.218.218,0,0,1-.084-.418c.4-.167.8-.34,1.2-.515a.218.218,0,0,1,.177.4c-.4.177-.805.351-1.207.519a.224.224,0,0,1-.087.015Zm-19.179-.566a.2.2,0,0,1-.05,0,.218.218,0,0,1-.162-.263,6.18,6.18,0,0,1,.467-1.268.218.218,0,1,1,.392.191,5.755,5.755,0,0,0-.436,1.178.218.218,0,0,1-.208.161Zm21.567-.493a.218.218,0,0,1-.092-.415q.419-.2.839-.4l.336-.163a.218.218,0,1,1,.193.391l-.338.165q-.424.206-.846.4a.218.218,0,0,1-.09.02Zm2.347-1.154a.218.218,0,0,1-.1-.412c.386-.2.774-.405,1.152-.611a.218.218,0,1,1,.208.384c-.38.207-.77.414-1.159.615a.218.218,0,0,1-.1.024Zm-22.809-.707a.212.212,0,0,1-.12-.036.218.218,0,0,1-.061-.3c.231-.345.5-.705.79-1.067a.218.218,0,1,1,.338.275,12.811,12.811,0,0,0-.763,1.034.218.218,0,0,1-.182.1Zm25.107-.545a.218.218,0,0,1-.109-.406c.378-.218.756-.436,1.125-.66a.218.218,0,1,1,.225.374c-.371.218-.752.447-1.132.665a.217.217,0,0,1-.106.028Zm2.241-1.349a.218.218,0,0,1-.117-.4c.368-.233.735-.473,1.09-.711a.218.218,0,0,1,.242.357c-.36.241-.73.482-1.1.717a.219.219,0,0,1-.112.038Zm-25.711-.144a.218.218,0,0,1-.16-.367c.288-.31.6-.626.924-.942a.218.218,0,0,1,.3.314c-.321.309-.625.621-.908.925a.219.219,0,0,1-.157.07Zm27.885-1.308a.218.218,0,0,1-.126-.4c.359-.254.712-.512,1.052-.763a.218.218,0,1,1,.261.348c-.342.258-.7.519-1.061.775a.218.218,0,0,1-.123.032Zm-26.009-.509a.218.218,0,0,1-.145-.381c.319-.282.654-.57,1-.853a.218.218,0,1,1,.277.337c-.342.28-.676.563-.99.842a.218.218,0,0,1-.142.051Zm28.1-1.069a.218.218,0,0,1-.136-.388c.343-.276.679-.556,1-.833a.218.218,0,0,1,.285.327c-.327.279-.664.562-1.011.842A.218.218,0,0,1,3061.132,532.309Zm-26.076-.6a.218.218,0,0,1-.133-.391c.34-.26.7-.524,1.055-.784a.218.218,0,0,1,.255.354c-.356.256-.707.518-1.045.776a.217.217,0,0,1-.133.045Zm28.053-1.117a.218.218,0,0,1-.149-.377c.327-.305.633-.611.922-.912a.218.218,0,0,1,.314.3c-.293.306-.608.618-.937.927a.218.218,0,0,1-.15.06Zm-25.936-.413a.218.218,0,0,1-.124-.394c.358-.243.726-.487,1.1-.725a.218.218,0,1,1,.235.366c-.367.236-.732.478-1.09.718a.21.21,0,0,1-.115.035Zm2.2-1.417a.218.218,0,0,1-.109-.4c.37-.226.75-.452,1.128-.671a.218.218,0,0,1,.218.377c-.376.218-.752.442-1.12.667a.218.218,0,0,1-.113.032Zm25.538-.061a.218.218,0,0,1-.166-.359c.291-.343.558-.685.792-1.017a.218.218,0,0,1,.355.253c-.242.34-.517.692-.815,1.046a.218.218,0,0,1-.163.076Zm-23.276-1.252a.218.218,0,0,1-.109-.409c.379-.209.768-.418,1.156-.622a.218.218,0,0,1,.2.386c-.386.2-.772.41-1.147.618a.219.219,0,0,1-.1.027Zm24.776-.885a.209.209,0,0,1-.1-.026.218.218,0,0,1-.087-.3,6.749,6.749,0,0,0,.5-1.158.218.218,0,1,1,.415.132,7.127,7.127,0,0,1-.537,1.235.218.218,0,0,1-.188.113Zm-22.46-.327a.218.218,0,0,1-.1-.413q.335-.167.674-.327c.394-.191.792-.379,1.187-.56a.218.218,0,0,1,.182.4c-.391.181-.788.368-1.178.557l-.67.327a.216.216,0,0,1-.094.016Zm3.051-1.424a.218.218,0,0,1-.087-.417c.4-.175.809-.348,1.208-.511a.218.218,0,1,1,.166.4c-.4.162-.8.333-1.2.508a.228.228,0,0,1-.088.013Zm20.138-.722a.218.218,0,0,1-.218-.218,2.38,2.38,0,0,0-.229-.992c-.025-.051-.051-.1-.081-.15a.218.218,0,1,1,.377-.218c.034.059.066.12.1.18a2.8,2.8,0,0,1,.272,1.173.218.218,0,0,1-.212.223Zm-17.719-.27a.218.218,0,0,1-.078-.421c.41-.158.824-.312,1.23-.458a.218.218,0,1,1,.148.41c-.4.145-.815.3-1.222.454a.218.218,0,0,1-.079.01Zm2.462-.883a.218.218,0,0,1-.069-.425c.418-.138.84-.272,1.252-.4a.218.218,0,0,1,.126.417c-.409.124-.826.257-1.241.395a.218.218,0,0,1-.069.007Zm2.506-.763a.218.218,0,0,1-.057-.427c.428-.118.856-.228,1.273-.327a.218.218,0,1,1,.1.424c-.413.1-.837.207-1.261.327a.211.211,0,0,1-.061,0Zm11.507-.259a.218.218,0,0,1-.118-.035,4.491,4.491,0,0,0-1.135-.508.218.218,0,0,1,.127-.417,4.93,4.93,0,0,1,1.243.559.218.218,0,0,1-.119.4Zm-8.963-.349a.219.219,0,1,1-.042-.436c.436-.089.872-.169,1.294-.236a.218.218,0,1,1,.07.43c-.414.067-.844.145-1.278.233a.2.2,0,0,1-.047.009Zm2.582-.414a.218.218,0,1,1-.024-.436c.452-.051.9-.088,1.316-.109a.218.218,0,1,1,.023.436c-.412.023-.846.059-1.291.109Zm3.916-.037h-.029a11.8,11.8,0,0,0-1.281-.094.218.218,0,1,1,.011-.436,12.652,12.652,0,0,1,1.326.1.218.218,0,0,1-.027.436Z" transform="translate(-2698.139 -463.859)" fill="#979cba"/>
    <path id="Path_491" data-name="Path 491" d="M3149.448,450.262h-.811v-3.731a4.394,4.394,0,0,0-4.381-4.381h-.893a4.393,4.393,0,0,0-4.38,4.381v3.731h-.654a.732.732,0,0,0-.73.73v10.666a.732.732,0,0,0,.73.73h11.115a.733.733,0,0,0,.73-.73V450.992A.732.732,0,0,0,3149.448,450.262Zm-9-4.259c0-1.027,1.124-2.555,2.15-2.555h2.15a2.793,2.793,0,0,1,2.474,2.6v4.218h-6.757Z" transform="translate(-2795.683 -393.967)" fill="#5867ac"/>
    <path id="Path_492" data-name="Path 492" d="M3184.486,551.52v-1.49a.73.73,0,0,0-1.46,0v1.5a1.322,1.322,0,1,0,1.454-.02Z" transform="translate(-2835.641 -489.441)" fill="#fff"/>
    <path id="Path_493" data-name="Path 493" d="M2060.485,2362.781h0c-.422-.008-.866-.035-1.324-.083a.218.218,0,0,1,.045-.434c.446.047.878.073,1.287.081a.218.218,0,0,1,0,.436Zm1.308-.048a.218.218,0,1,1-.021-.436,7.612,7.612,0,0,0,1.25-.218.218.218,0,0,1,.115.421,8.012,8.012,0,0,1-1.322.236Zm-3.9-.218h-.038c-.42-.072-.854-.159-1.293-.26a.218.218,0,1,1,.1-.425c.431.1.858.185,1.27.256a.219.219,0,0,1-.036.436Zm6.4-.512a.218.218,0,0,1-.109-.405,3.039,3.039,0,0,0,.909-.8.218.218,0,0,1,.351.26,3.478,3.478,0,0,1-1.039.917.217.217,0,0,1-.119.034Zm-8.947-.069a.219.219,0,0,1-.059-.009c-.413-.115-.837-.244-1.26-.383a.218.218,0,0,1,.135-.414c.417.136.835.263,1.242.377a.218.218,0,0,1-.059.428Zm-2.487-.809a.228.228,0,0,1-.075-.013c-.4-.149-.817-.31-1.226-.477a.218.218,0,1,1,.165-.4c.4.166.812.327,1.212.471a.218.218,0,0,1-.075.423Zm-2.421-.987a.239.239,0,0,1-.089-.018c-.395-.177-.8-.364-1.191-.555a.218.218,0,1,1,.189-.392c.391.19.788.374,1.179.545a.218.218,0,0,1-.088.417Zm15.35-.181h-.042a.218.218,0,0,1-.172-.256,3.32,3.32,0,0,0,.062-.654,4.334,4.334,0,0,0-.042-.579.22.22,0,0,1,.436-.06,4.66,4.66,0,0,1,.046.639,3.827,3.827,0,0,1-.07.735.218.218,0,0,1-.224.18Zm-17.7-.958a.224.224,0,0,1-.1-.025c-.385-.2-.774-.411-1.156-.625a.218.218,0,1,1,.213-.38c.379.211.763.42,1.145.618a.218.218,0,0,1-.1.412Zm-2.283-1.276a.22.22,0,0,1-.109-.031c-.377-.225-.753-.457-1.119-.69a.218.218,0,0,1,.234-.367c.363.23.735.46,1.108.682a.218.218,0,0,1-.109.406Zm19.685-.327a.218.218,0,0,1-.205-.143,9.14,9.14,0,0,0-.523-1.164.218.218,0,1,1,.386-.2,9.725,9.725,0,0,1,.545,1.219.218.218,0,0,1-.13.279.207.207,0,0,1-.08.014Zm-21.891-1.074a.217.217,0,0,1-.123-.038c-.363-.246-.725-.5-1.076-.755a.218.218,0,1,1,.256-.352c.348.252.705.5,1.065.748a.218.218,0,0,1-.122.4Zm20.684-1.238a.218.218,0,0,1-.182-.1c-.228-.342-.482-.694-.756-1.046a.218.218,0,0,1,.344-.268c.281.361.545.721.775,1.073a.22.22,0,0,1-.187.34Zm-22.8-.3a.218.218,0,0,1-.133-.046c-.35-.27-.694-.545-1.026-.824a.218.218,0,1,1,.279-.336c.327.274.668.545,1.013.815a.219.219,0,0,1-.141.391Zm-2.016-1.675a.218.218,0,0,1-.145-.055c-.327-.3-.654-.6-.961-.9a.218.218,0,1,1,.305-.312c.3.3.621.595.947.889a.218.218,0,0,1-.146.379Zm23.211-.092a.218.218,0,0,1-.165-.074c-.277-.315-.573-.634-.882-.95a.218.218,0,1,1,.312-.3c.313.321.615.646.9.967a.218.218,0,0,1-.164.362Zm-25.076-1.744a.217.217,0,0,1-.16-.07c-.306-.327-.6-.663-.872-.991a.218.218,0,0,1,.335-.278c.267.327.555.654.855.972a.222.222,0,0,1-.16.37Zm23.251-.134a.218.218,0,0,1-.149-.059c-.309-.29-.634-.583-.966-.872a.218.218,0,1,1,.286-.327c.334.29.665.586.981.881a.222.222,0,0,1-.153.381Zm-1.977-1.712a.224.224,0,0,1-.137-.048c-.333-.268-.678-.536-1.027-.8a.218.218,0,1,1,.261-.349c.353.265.7.536,1.039.806a.218.218,0,0,1-.136.388Zm-22.94-.168a.218.218,0,0,1-.178-.091c-.269-.373-.516-.744-.731-1.1a.218.218,0,0,1,.374-.224c.209.35.449.711.712,1.074a.218.218,0,0,1-.177.345Zm20.848-1.4a.218.218,0,0,1-.125-.04c-.351-.246-.714-.492-1.077-.731a.218.218,0,0,1,.24-.364c.366.241.732.49,1.09.738a.222.222,0,0,1-.129.4Zm-22.18-.844a.218.218,0,0,1-.2-.128,7.96,7.96,0,0,1-.453-1.263.218.218,0,0,1,.422-.109,7.608,7.608,0,0,0,.429,1.2.218.218,0,0,1-.109.288.213.213,0,0,1-.09.019Zm19.994-.593a.217.217,0,0,1-.109-.033c-.367-.226-.743-.45-1.118-.667s-.75-.426-1.125-.629a.218.218,0,0,1,.207-.384c.379.2.763.418,1.135.635s.763.445,1.128.672a.218.218,0,0,1-.109.4Zm-3.413-1.907a.208.208,0,0,1-.1-.023c-.389-.2-.782-.386-1.172-.567a.218.218,0,0,1,.184-.4c.393.183.79.376,1.183.573a.218.218,0,0,1-.1.412Zm-17.193-.021h0a.218.218,0,0,1-.218-.218,3.465,3.465,0,0,1,.28-1.357.218.218,0,1,1,.4.174,3.039,3.039,0,0,0-.243,1.188.218.218,0,0,1-.219.217Zm14.82-1.082a.217.217,0,0,1-.086-.018c-.4-.172-.806-.337-1.2-.491a.218.218,0,0,1,.158-.406c.4.156.812.327,1.217.5a.218.218,0,0,1-.085.418Zm-2.439-.946a.234.234,0,0,1-.071-.012c-.414-.144-.83-.28-1.236-.4a.218.218,0,1,1,.128-.416c.411.124.831.261,1.251.407a.218.218,0,0,1-.072.424Zm-11.349-.285a.218.218,0,0,1-.144-.382,4.162,4.162,0,0,1,1.18-.7.218.218,0,1,1,.162.4,3.7,3.7,0,0,0-1.056.628.218.218,0,0,1-.142.058Zm8.847-.474a.242.242,0,0,1-.055-.007c-.427-.109-.853-.207-1.263-.29a.218.218,0,1,1,.086-.427c.417.084.85.184,1.285.3a.218.218,0,0,1-.053.428Zm-2.563-.513h-.031c-.441-.062-.872-.109-1.285-.133a.218.218,0,1,1,.028-.436c.422.027.864.073,1.316.136a.219.219,0,0,1-.03.436Zm-3.909-.026a.219.219,0,0,1-.037-.436,9.888,9.888,0,0,1,1.331-.134.218.218,0,1,1,.015.436,9.4,9.4,0,0,0-1.271.127.218.218,0,0,1-.041.011Z" transform="translate(-1812.133 -2085.534)" fill="#979cba"/>
    <path id="Path_494" data-name="Path 494" d="M2037.781,2317.515c-.459,0-.9-.02-1.308-.059a.219.219,0,0,1,.042-.436c.393.037.818.057,1.263.057h.022a.218.218,0,0,1,0,.436Zm1.328-.05a.218.218,0,0,1-.015-.436c.413-.03.847-.073,1.289-.13a.22.22,0,1,1,.055.436c-.45.057-.891.1-1.308.132Zm-3.9-.218a.222.222,0,0,1-.052-.007,5.736,5.736,0,0,1-1.275-.462.218.218,0,1,1,.2-.387,5.335,5.335,0,0,0,1.178.426.218.218,0,0,1-.051.43Zm6.495-.109a.219.219,0,0,1-.037-.436c.414-.072.844-.156,1.276-.249a.218.218,0,1,1,.09.426c-.436.094-.872.179-1.291.252A.222.222,0,0,1,2041.7,2317.138Zm2.558-.545a.218.218,0,0,1-.052-.429c.412-.1.835-.218,1.258-.334a.218.218,0,1,1,.118.42c-.427.121-.854.234-1.27.338A.22.22,0,0,1,2044.261,2316.594Zm-11.3-.593a.218.218,0,0,1-.17-.082,2.643,2.643,0,0,1-.327-.514,2.679,2.679,0,0,1-.239-.772.22.22,0,0,1,.436-.066,2.254,2.254,0,0,0,.474,1.079.218.218,0,0,1-.169.355Zm13.817-.118a.218.218,0,0,1-.065-.426c.407-.126.824-.262,1.239-.4a.218.218,0,0,1,.139.413c-.417.142-.838.279-1.249.406a.193.193,0,0,1-.067.01Zm2.477-.84a.218.218,0,0,1-.075-.423c.4-.147.812-.3,1.219-.462a.218.218,0,1,1,.159.406c-.41.16-.822.317-1.228.465a.218.218,0,0,1-.076.013Zm2.435-.955a.218.218,0,0,1-.084-.42c.4-.166.8-.339,1.2-.514a.218.218,0,0,1,.176.4c-.4.177-.805.351-1.205.519a.222.222,0,0,1-.087.015Zm-19.179-.566a.267.267,0,0,1-.05-.006.218.218,0,0,1-.162-.262,6.171,6.171,0,0,1,.467-1.269.218.218,0,1,1,.392.191,5.808,5.808,0,0,0-.436,1.178.218.218,0,0,1-.208.168Zm21.567-.493a.218.218,0,0,1-.093-.415q.421-.2.84-.4l.336-.164a.218.218,0,1,1,.192.391l-.338.165c-.282.136-.563.271-.844.4a.218.218,0,0,1-.091.021Zm2.347-1.155a.218.218,0,0,1-.1-.411c.386-.2.773-.405,1.151-.611a.218.218,0,1,1,.209.383c-.382.208-.772.415-1.159.616a.221.221,0,0,1-.1.024Zm-22.809-.706a.218.218,0,0,1-.181-.339c.231-.346.5-.705.789-1.067a.218.218,0,1,1,.339.273,12.567,12.567,0,0,0-.763,1.035A.218.218,0,0,1,2033.619,2311.169Zm25.106-.545a.218.218,0,0,1-.109-.408c.377-.218.756-.436,1.124-.654a.218.218,0,0,1,.226.374c-.372.223-.752.447-1.133.665a.216.216,0,0,1-.1.024Zm2.242-1.349a.218.218,0,0,1-.117-.4c.368-.234.736-.473,1.09-.712a.218.218,0,1,1,.243.363c-.359.24-.729.481-1.1.717a.217.217,0,0,1-.111.035Zm-25.714-.144a.218.218,0,0,1-.159-.366c.288-.31.6-.627.924-.942a.218.218,0,0,1,.3.314c-.32.31-.626.62-.908.924A.219.219,0,0,1,2035.253,2309.131Zm27.886-1.308a.218.218,0,0,1-.126-.4c.357-.254.712-.512,1.052-.768a.218.218,0,0,1,.261.349c-.343.258-.7.519-1.061.775a.216.216,0,0,1-.122.037Zm-26.009-.51a.218.218,0,0,1-.145-.381c.319-.282.654-.57,1-.853a.218.218,0,0,1,.276.338c-.341.28-.673.563-.99.842a.218.218,0,0,1-.141.051Zm28.1-1.063a.218.218,0,0,1-.137-.388c.343-.277.68-.557,1-.833a.218.218,0,1,1,.285.327c-.327.28-.664.563-1.011.844a.217.217,0,0,1-.133.047Zm-26.076-.6a.218.218,0,0,1-.133-.391c.34-.26.7-.524,1.055-.783a.218.218,0,1,1,.255.353c-.356.257-.708.518-1.045.776a.218.218,0,0,1-.129.042Zm28.052-1.118a.218.218,0,0,1-.149-.376c.327-.305.634-.613.923-.912a.218.218,0,1,1,.314.3c-.293.305-.608.618-.938.927a.217.217,0,0,1-.146.055Zm-25.93-.412a.218.218,0,0,1-.123-.4c.356-.242.725-.486,1.1-.725a.218.218,0,1,1,.235.367c-.368.237-.733.479-1.09.718a.21.21,0,0,1-.115.035Zm2.2-1.417a.218.218,0,0,1-.115-.4c.37-.226.749-.451,1.129-.671a.218.218,0,1,1,.218.377c-.376.218-.753.443-1.119.666a.218.218,0,0,1-.11.03Zm25.538-.061a.218.218,0,0,1-.167-.358c.291-.344.558-.687.793-1.017a.218.218,0,0,1,.355.253c-.242.34-.517.692-.815,1.045a.218.218,0,0,1-.163.076Zm-23.276-1.253a.218.218,0,0,1-.109-.409c.379-.209.768-.418,1.156-.622a.218.218,0,1,1,.2.386c-.386.2-.771.411-1.149.618a.21.21,0,0,1-.1.024Zm24.776-.884a.229.229,0,0,1-.109-.026.218.218,0,0,1-.087-.3,6.743,6.743,0,0,0,.506-1.158.218.218,0,0,1,.415.132,7.26,7.26,0,0,1-.537,1.235.218.218,0,0,1-.184.11Zm-22.46-.327a.218.218,0,0,1-.1-.413c.223-.109.448-.218.675-.333.393-.191.792-.379,1.186-.56a.218.218,0,1,1,.183.4c-.391.18-.788.367-1.179.557l-.67.327a.2.2,0,0,1-.094.019Zm3.051-1.424a.218.218,0,0,1-.086-.417c.4-.176.807-.346,1.208-.511a.218.218,0,1,1,.166.4c-.4.164-.8.333-1.2.507a.207.207,0,0,1-.089.011Zm20.139-.722a.218.218,0,0,1-.218-.218,2.366,2.366,0,0,0-.23-.993c-.024-.05-.051-.1-.08-.15a.218.218,0,1,1,.376-.218c.035.059.068.12.1.18a2.819,2.819,0,0,1,.272,1.172.218.218,0,0,1-.218.218Zm-17.719-.27a.218.218,0,0,1-.078-.422c.411-.158.825-.312,1.23-.458a.218.218,0,0,1,.147.411c-.4.145-.813.3-1.221.455a.217.217,0,0,1-.078.006Zm2.462-.883a.218.218,0,0,1-.069-.425c.418-.138.84-.272,1.252-.4a.218.218,0,0,1,.126.417c-.409.124-.826.256-1.241.395a.217.217,0,0,1-.069,0Zm2.506-.763a.218.218,0,0,1-.058-.428c.428-.116.856-.227,1.274-.327a.218.218,0,1,1,.1.424c-.412.1-.836.208-1.26.327a.222.222,0,0,1-.061,0Zm11.507-.26a.219.219,0,0,1-.119-.036,4.465,4.465,0,0,0-1.133-.507.218.218,0,1,1,.126-.417,4.9,4.9,0,0,1,1.244.559.218.218,0,0,1-.119.4Zm-8.963-.349a.219.219,0,1,1-.043-.436c.436-.089.872-.169,1.3-.238a.221.221,0,0,1,.07.436c-.414.067-.844.146-1.278.234a.215.215,0,0,1-.047,0Zm2.582-.414a.218.218,0,0,1-.024-.436c.452-.051.9-.089,1.315-.109a.218.218,0,1,1,.024.436c-.412.022-.847.059-1.29.109Zm3.914-.038h-.028a11.761,11.761,0,0,0-1.281-.094.218.218,0,0,1,.01-.436,12.7,12.7,0,0,1,1.327.1.218.218,0,0,1-.028.436Z" transform="translate(-1810.766 -2044.485)" fill="#979cba"/>
    <path id="Path_495" data-name="Path 495" d="M2153.567,2224.181h-.81v-3.731a4.392,4.392,0,0,0-4.38-4.38h-.893a4.394,4.394,0,0,0-4.381,4.38v3.731h-.654a.732.732,0,0,0-.73.73v10.667a.732.732,0,0,0,.73.73h11.115a.732.732,0,0,0,.729-.73v-10.667a.733.733,0,0,0-.728-.73Zm-9-4.259c0-1.025,1.124-2.554,2.15-2.554h2.149a2.794,2.794,0,0,1,2.475,2.6v4.217h-6.756Z" transform="translate(-1908.328 -1974.576)" fill="#5867ac"/>
    <path id="Path_496" data-name="Path 496" d="M2188.558,2325.511a.424.424,0,0,0,0-.056v-1.425a.73.73,0,1,0-1.46,0v1.43a.468.468,0,0,0,0,.074,1.324,1.324,0,1,0,1.453-.019Z" transform="translate(-1948.24 -2070.121)" fill="#fff"/>
    <rect id="Rectangle_238" data-name="Rectangle 238" width="32.446" height="1.575" rx="0.787" transform="translate(262.554 141.619)" fill="#bfc6d1"/>
    <rect id="Rectangle_239" data-name="Rectangle 239" width="32.446" height="1.575" rx="0.787" transform="translate(258.53 160.235)" fill="#bfc6d1"/>
    <path id="Path_497" data-name="Path 497" d="M2989.742,1680.93s-7.481,5.2-9.571,7.456a8.067,8.067,0,0,0-1.783,3.307,12.752,12.752,0,0,1-1.635,3.661c-1.332,2-2.745,5.614.861,9.233,5.392,5.411,6.344.8,7.745-1.885,3.13-6.01,3.289-7.261,5.2-8.126s8.417-5.162,8.417-5.162Z" transform="translate(-2651.093 -1497.752)" fill="#727795"/>
    <g id="Group_240" data-name="Group 240" transform="translate(324.234 183.178)" clip-path="url(#clip-path-10)">
      <path id="Path_498" data-name="Path 498" d="M2972.913,1742.826a7.331,7.331,0,0,1-5.833-3.085,6.608,6.608,0,0,1-.524-6.517c.351-.713.836-1.35,1.2-2.055,1.154-2.233,1.065-5.062,2.667-7l-.565-1.251a43.343,43.343,0,0,0-4.265,6.667,20.73,20.73,0,0,0-2.38,6.931,10.223,10.223,0,0,0,1.51,7.046,6.848,6.848,0,0,0,6.32,3.019,4.571,4.571,0,0,0,3.279-1.981,1.281,1.281,0,0,0,.189-1.223C2974.232,1742.854,2973.5,1742.838,2972.913,1742.826Z" transform="translate(-2964.449 -1718.344)" fill="#444a66"/>
      <path id="Path_499" data-name="Path 499" d="M3043.677,1815.381c-1.08-1-2.288-2.049-3.752-2.134a.47.47,0,0,0-.436.135.477.477,0,0,0-.062.292,3.89,3.89,0,0,0,2.042,3.316c1,.523,2.252.617,3.051,1.417l.386-1.08A3.038,3.038,0,0,0,3043.677,1815.381Z" transform="translate(-3032.439 -1798.826)" fill="#444a66"/>
      <path id="Path_500" data-name="Path 500" d="M3064.094,1785.167a5.616,5.616,0,0,0-2.545-1.692.605.605,0,0,0-.358-.023c-.229.078-.293.373-.278.615a2.823,2.823,0,0,0,.922,1.8,8.424,8.424,0,0,0,1.7,1.172l2.108,1.213.177-.518A13.7,13.7,0,0,0,3064.094,1785.167Z" transform="translate(-3051.584 -1772.264)" fill="#444a66"/>
    </g>
    <path id="Path_502" data-name="Path 502" d="M2870.66,1755.28s3.413,8.446,3.923,11.479a8.073,8.073,0,0,1-.319,3.744,12.746,12.746,0,0,0-.633,3.961c.02,2.4-.778,6.2-5.776,7.253-7.474,1.576-5.748-2.8-5.448-5.817.671-6.743,1.224-7.877.1-9.645s-4.216-8.928-4.216-8.928Z" transform="translate(-2546.81 -1564)" fill="#727795"/>
    <g id="Group_241" data-name="Group 241" transform="translate(311.48 191.28)" clip-path="url(#clip-path-11)">
      <path id="Path_503" data-name="Path 503" d="M2897.588,1816.41a17.62,17.62,0,0,1,.218,6.069c-.192.967-.545,1.9-.711,2.869-.151.886-.147,1.792-.269,2.682a8.463,8.463,0,0,1-3.929,6.117,6.917,6.917,0,0,1-7.14-.052l.03,1c-.365.664.093,1.485.64,2.01,2.051,1.962,5.255,2.116,8.038,1.554a6.168,6.168,0,0,0,4.2-2.36,12.924,12.924,0,0,0,1.012-3.051c.271-.872.687-1.68,1.015-2.527A13.611,13.611,0,0,0,2897.588,1816.41Z" transform="translate(-2882.675 -1809.748)" fill="#444a66"/>
      <path id="Path_504" data-name="Path 504" d="M2896.383,1899.99c.081.013.177.021.228-.044a.219.219,0,0,0,.033-.086,1.547,1.547,0,0,0-.993-1.6,4.284,4.284,0,0,0-2.011-.2,7.678,7.678,0,0,0-1.865.3,2.84,2.84,0,0,0-1.516,1.075l.644.81A13.256,13.256,0,0,1,2896.383,1899.99Z" transform="translate(-2886.776 -1882.475)" fill="#444a66"/>
      <path id="Path_505" data-name="Path 505" d="M2894.082,1863.451a14.331,14.331,0,0,1,2.629-.01c.555.034,1.258-.023,1.45-.545a.882.882,0,0,0-.369-.966,2.269,2.269,0,0,0-1.046-.336,9.566,9.566,0,0,0-3.411.122,2.311,2.311,0,0,0-1.795,1.262l.135,1.449A4.631,4.631,0,0,1,2894.082,1863.451Z" transform="translate(-2887.917 -1849.922)" fill="#444a66"/>
    </g>
    <path id="Path_507" data-name="Path 507" d="M2746.432,1503.086s-24.251-2.586-27.9,3.133c-6.271,9.835,13.725,33.811,13.725,33.811l18.935-4.442-6.669-10.926s21.339,4.336,30.464-3.98,3.24-17.2-1.653-17.94S2746.432,1503.086,2746.432,1503.086Z" transform="translate(-2421.2 -1338.754)" fill="#a12324"/>
    <g id="Group_242" data-name="Group 242" transform="translate(296.117 163.732)" clip-path="url(#clip-path-12)">
      <path id="Path_508" data-name="Path 508" d="M2878.9,1487.15c2.056,2.8,1.239,6.957-.993,9.622s-5.54,4.156-8.787,5.4a34.212,34.212,0,0,1-10.034,2.548,14.6,14.6,0,0,1-9.822-2.64c-2.105-1.625-3.651-4-6.055-5.141,1.438,2.481,3.878,5.533,4.064,6.947.04.315-.024.7-.317.825a.872.872,0,0,1-.62-.065l-2.565-.946c2.25,2.171,3.28,5.279,4.231,8.258q.806,2.52,1.61,5.039c.527,1.648,1.02,3.568.057,5.005a5.544,5.544,0,0,1-2.346,1.717,63.57,63.57,0,0,1-12.088,4.353c5.355.887,10.776,1.777,16.187,1.332s10.9-2.373,14.594-6.348c1.166-1.252,2.135-2.683,3.365-3.873,4.82-4.662,12.834-4.934,17.3-9.933a12.977,12.977,0,0,0,2.833-10.872,17.347,17.347,0,0,0-5.853-9.8Z" transform="translate(-2822.381 -1488.821)" fill="#891b21"/>
    </g>
    <path id="Path_510" data-name="Path 510" d="M2950.841,1164.313s8.459-.128,13.9,5.079,6.607,25.239,6.607,25.239l-15.127-.7-.738,10.639a26.282,26.282,0,0,1-18.858.7c-10.3-3.553-15.022-7.24-15.022-7.24s5.493-25.6,9.9-28.808C2935.2,1166.53,2943.582,1163.864,2950.841,1164.313Z" transform="translate(-2603.221 -1037.389)" fill="#fecbc8"/>
    <g id="Group_243" data-name="Group 243" transform="translate(318.379 126.874)" clip-path="url(#clip-path-13)">
      <path id="Path_511" data-name="Path 511" d="M2997.8,1287.323c-1.41.155-2.787.563-4.2.654a5.126,5.126,0,0,1-3.957-1.173c-1.113-1.1-1.335-2.792-1.441-4.353-.271-4.048-.71-11.577-.923-11.375a1.1,1.1,0,0,0-.226.826q.013,6.11.027,12.221a2.759,2.759,0,0,1-.327,1.6c-.3.436-.823.664-1.141,1.09a3.045,3.045,0,0,0-.436,1.675c-.232,3.571-1.062,7.7-4.259,9.31a10.008,10.008,0,0,1-4.884.724,51.989,51.989,0,0,1-7.383-.8l.006-.01.264-1.016c-1.135-1.3-1.156-3.2-1.061-4.921.372-6.744-1.461-12.958-1.641-19.92-2.465,5.55-.707,12.026-1.677,18.022a5.473,5.473,0,0,1-1.971,3.853c-.909.6-2.179.763-2.724,1.71a1.634,1.634,0,0,0-.182.479,5.69,5.69,0,0,0-1.162.169,1.207,1.207,0,0,0-.909.639c-.156.446.179.9.5,1.245a23.478,23.478,0,0,0,27.611,4.359,5.544,5.544,0,0,0,1.94-1.542,6.358,6.358,0,0,0,.822-3.443l.272-6.126a1.457,1.457,0,0,1,.247-.907,1.3,1.3,0,0,1,.863-.353c3.743-.449,7.3,2.348,11.048,1.943,2.329-.252,4.33-1.7,6.211-3.1C3004.085,1287.9,3000.951,1286.975,2997.8,1287.323Z" transform="translate(-2953.639 -1259.434)" fill="#f9a4a2"/>
    </g>
    <path id="Path_513" data-name="Path 513" d="M3062.021,905.486c-.21-.016.461-4.124-4.024-4.433s-4.729,4.121-6.739,3.512-6.5.838-4.875,5.34c-1.518,1.651-1.4,4.117,2.407,4.966s16.588,3.84,16.588,3.84S3072.907,906.3,3062.021,905.486Z" transform="translate(-2713.595 -802.848)" fill="#892e0e"/>
    <g id="Group_244" data-name="Group 244" transform="translate(331.878 98.19)" clip-path="url(#clip-path-14)">
      <path id="Path_514" data-name="Path 514" d="M3064.3,926.624a3.406,3.406,0,0,0-2.643-3.264,4.359,4.359,0,0,1,.834,2.6,2.8,2.8,0,0,0-4.981-1.249c-.512.664-.744,1.573-1.446,2.032-1.375.9-3.756-.409-4.631.981-.545.872.1,2.029-.175,3.014-.262.932-1.275,1.474-1.623,2.377a2.578,2.578,0,0,0,1.173,2.879,8.62,8.62,0,0,0,3.168,1.042,39.148,39.148,0,0,1,8.195,2.648c1.5.674,3.1,1.461,4.7,1.09,2.167-.5,3.341-3.051,3.094-5.257s-1.533-4.152-2.783-5.994c.4-.172.841.036,1.264.119s1-.1.986-.534a.768.768,0,0,0-.26-.474c-1.271-1.308-3.335-1.32-5.16-1.239a2.484,2.484,0,0,0,.257-1.853Z" transform="translate(-3049.074 -920.927)" fill="#591b0a"/>
    </g>
    <path id="Path_516" data-name="Path 516" d="M3080.218,984.8c.058-.038.109-.077.168-.116a3.5,3.5,0,0,0,1.962-.726,2.99,2.99,0,0,0,.872-4.121,2.827,2.827,0,0,0-3.309-.763,2.765,2.765,0,0,1-.293-.932,16.514,16.514,0,0,1-.03-3.805,3.492,3.492,0,0,1-1.635-2.63c-.06-1.7-.026,1.227-3.766,1.144s-.816-.872-1.015-2.236-1.058,2.615-3.533,2.857-1.249-.555-1.2-1.2-1.931,3.378-3.735,2.375c0,0,.945,5.8,1.613,8.827s2.1,5.939,4.6,6.229a7.429,7.429,0,0,1-.011,2.692l-1.56,2.2s4,5.44,6.135,4.126,6.877-5.237,6.877-5.237S3079.691,991.553,3080.218,984.8Z" transform="translate(-2730.727 -864.592)" fill="#f9a96a"/>
    <g id="Group_245" data-name="Group 245" transform="translate(333.973 105.741)" clip-path="url(#clip-path-15)">
      <path id="Path_517" data-name="Path 517" d="M3069.958,944.218a5.8,5.8,0,0,0-1.9-5.392,7.257,7.257,0,0,0-5.134-1.526,15.034,15.034,0,0,0-5.251,1.492,13.865,13.865,0,0,0-4.661,3.123,3.809,3.809,0,0,0-1.155,3.479l-.211-.184a2.658,2.658,0,0,0,4.109-.235.791.791,0,0,0,.349,1.07,1.774,1.774,0,0,0,1.238.069,4.781,4.781,0,0,0,2.28-1.287,1.524,1.524,0,0,1,.53-.416c.631-.224,1.291.565,1.925.351.26-.087.436-.327.684-.453.771-.4,1.8.446,2.534-.017.179-.109.327-.3.53-.335.5-.093.675.638.678,1.149a6.937,6.937,0,0,0,1.693,4.468C3068.342,947.691,3069.6,946.071,3069.958,944.218Z" transform="translate(-3053.072 -940.886)" fill="#ea8744"/>
      <path id="Path_518" data-name="Path 518" d="M3107.258,1126.238c-.134-.091-.306.021-.429.124a9.954,9.954,0,0,1-6.222,2.316l-.915.792a3.232,3.232,0,0,0-1.349,1.7,1.681,1.681,0,0,0-.087.892,1.485,1.485,0,0,0,.883.981,3.584,3.584,0,0,0,1.341.241,7.946,7.946,0,0,0,5.449-1.646,4.684,4.684,0,0,0,1.436-5.244A.348.348,0,0,0,3107.258,1126.238Z" transform="translate(-3094.577 -1109.218)" fill="#ea8744"/>
      <path id="Path_519" data-name="Path 519" d="M3202.632,1067.735a1.2,1.2,0,1,0-.889,1.223A1.081,1.081,0,0,0,3202.632,1067.735Z" transform="translate(-3185.553 -1056.531)" fill="#ea8744"/>
    </g>
    <path id="Path_521" data-name="Path 521" d="M3091.673,1013.3c-.191.017-.36.021-.523.023s-.317.005-.469.011a4.522,4.522,0,0,0-.451.041c-.157.017-.307.061-.5.1a.873.873,0,0,1,.38-.418,1.212,1.212,0,0,1,.551-.156,1.423,1.423,0,0,1,.552.089A1.1,1.1,0,0,1,3091.673,1013.3Z" transform="translate(-2753.029 -902.521)" fill="#892e0e"/>
    <path id="Path_522" data-name="Path 522" d="M3160.113,1011.162c-.19.017-.358.021-.522.024s-.318,0-.469.01-.3.022-.451.041-.306.061-.5.1a.871.871,0,0,1,.381-.42,1.216,1.216,0,0,1,.55-.155,1.407,1.407,0,0,1,.552.089A1.079,1.079,0,0,1,3160.113,1011.162Z" transform="translate(-2814.011 -900.613)" fill="#892e0e"/>
    <path id="Path_523" data-name="Path 523" d="M3116.244,1043.83a2.514,2.514,0,0,1,.119,1.274,2.045,2.045,0,0,1-.212.64,1.78,1.78,0,0,1-.446.536,1.21,1.21,0,0,1-.145.1l-.144.089a1.115,1.115,0,0,0-.21.138.264.264,0,0,0-.094.141.27.27,0,0,0,.039.179,1.6,1.6,0,0,0,.377.415c.152.133.32.254.491.38a2.571,2.571,0,0,1-.607-.2,1.559,1.559,0,0,1-.545-.4.62.62,0,0,1-.138-.4.591.591,0,0,1,.019-.119.875.875,0,0,1,.042-.109c.019-.032.038-.063.058-.093l.066-.079a1.381,1.381,0,0,1,.293-.224c.048-.029.077-.051.118-.076a.776.776,0,0,0,.109-.077,1.3,1.3,0,0,0,.194-.185.86.86,0,0,0,.087-.1c.025-.038.051-.076.077-.109a2.281,2.281,0,0,0,.238-.512A4.915,4.915,0,0,0,3116.244,1043.83Z" transform="translate(-2775.304 -930.08)" fill="#892e0e"/>
    <circle id="Ellipse_168" data-name="Ellipse 168" cx="1.664" cy="1.664" r="1.664" transform="translate(344.846 115.041)" fill="#d1544e"/>
    <ellipse id="Ellipse_169" data-name="Ellipse 169" cx="0.782" cy="1.058" rx="0.782" ry="1.058" transform="translate(336.963 113.52) rotate(-12.19)" fill="#892e0e"/>
    <ellipse id="Ellipse_170" data-name="Ellipse 170" cx="0.782" cy="1.058" rx="0.782" ry="1.058" transform="translate(344.011 112.598) rotate(-12.19)" fill="#892e0e"/>
    <ellipse id="Ellipse_171" data-name="Ellipse 171" cx="0.321" cy="0.435" rx="0.321" ry="0.435" transform="translate(337.358 113.905) rotate(-12.19)" fill="#fff"/>
    <ellipse id="Ellipse_172" data-name="Ellipse 172" cx="0.321" cy="0.435" rx="0.321" ry="0.435" transform="translate(344.442 112.938) rotate(-12.19)" fill="#fff"/>
    <path id="Path_524" data-name="Path 524" d="M3128.048,1096.58a1.189,1.189,0,0,1-.361.617,1.868,1.868,0,0,1-.612.385,2.073,2.073,0,0,1-.7.131,2.346,2.346,0,0,1-.352-.03,1.947,1.947,0,0,1-.341-.1,2.547,2.547,0,0,1,.327-.109c.109-.039.211-.062.314-.1.206-.062.4-.126.6-.2a5.485,5.485,0,0,0,.563-.252A4.636,4.636,0,0,0,3128.048,1096.58Z" transform="translate(-2785.062 -977.081)" fill="#892e0e"/>
    <path id="Path_525" data-name="Path 525" d="M3068.2,1492.538s7.02-3.705,10.358.338,5.813,11.209-5.072,18.227-25.391,16.434-25.391,16.434l-9.346-16.824S3061.954,1492.405,3068.2,1492.538Z" transform="translate(-2707.605 -1328.508)" fill="#cb4441"/>
    <path id="Path_526" data-name="Path 526" d="M3037.247,1436.426s.838,11.4-8.677,11.4a43.266,43.266,0,0,1-17.474-4.007,4.316,4.316,0,0,0-3.514-.372c-1.88.673-2.366.289-1.607-.782s-1.106.4-2.355.376.618-1.5.618-1.5a8.225,8.225,0,0,1-2.9.265c-1.094-.222,1.57-1.7,1.57-1.7s-2.225.716-2.695.507c-.34-.152,1.424-1.772,2.425-2.655a3.281,3.281,0,0,1,1.526-.763c1.669-.333,5.382-.907,8.156-.109,2.011.58,11.781.343,12.2.114s.464-1.3.464-1.3Z" transform="translate(-2673.226 -1279.424)" fill="#f9a96a"/>
    <g id="Group_246" data-name="Group 246" transform="translate(326.941 156.476)" clip-path="url(#clip-path-16)">
      <path id="Path_527" data-name="Path 527" d="M3150.145,1366.914a12.173,12.173,0,0,0-3.8-2.218,23.3,23.3,0,0,0-20.378,1.792l-.531,5.783a10.522,10.522,0,0,0,3.641.2,21.658,21.658,0,0,1,11.526,2.89c1.8,1.046,3.487,2.367,5.469,3.008s4.458.411,5.742-1.234a5.2,5.2,0,0,0,.935-2.3A8.792,8.792,0,0,0,3150.145,1366.914Z" transform="translate(-3111.788 -1371.073)" fill="#ea8744"/>
      <path id="Path_528" data-name="Path 528" d="M3049.12,1498.656a5.288,5.288,0,0,0-.636-.616,2.81,2.81,0,0,0-2.3-.155,4.533,4.533,0,0,1-2.336.229.351.351,0,0,1-.094-.042l.121.253a5.312,5.312,0,0,0-.2,1.786.51.51,0,0,0,.063.258c.1.15.314.16.5.154l3.884-.134a9.548,9.548,0,0,0,3.9-.694,3.675,3.675,0,0,1-2.9-1.04Z" transform="translate(-3038.927 -1490.982)" fill="#ea8744"/>
      <path id="Path_529" data-name="Path 529" d="M3023.787,1487.062c.1-.09.2-.245.1-.341a.248.248,0,0,0-.212-.044c-1.14.124-2.152.832-3.291.959-.306.034-.71-.051-.752-.357l-.095.967a1.373,1.373,0,0,0,1.4.3,6.119,6.119,0,0,0,1.215-.4.308.308,0,0,0,.1.089l-.053-.109A6.051,6.051,0,0,0,3023.787,1487.062Z" transform="translate(-3017.429 -1481.137)" fill="#ea8744"/>
      <path id="Path_530" data-name="Path 530" d="M2994.512,1465.244a.293.293,0,0,0,.074-.191c-.013-.155-.218-.2-.371-.2a8.556,8.556,0,0,0-2.381.338c-.647.187-1.4.429-1.942.05a4.543,4.543,0,0,0,3.16-1.308c.177-.18.339-.479.161-.659a.49.49,0,0,0-.353-.1,3.879,3.879,0,0,0-1.722.391,8.9,8.9,0,0,1-1.281.639,1.2,1.2,0,0,1-1.308-.313l-.091,1.139a4.338,4.338,0,0,0,1.375.218l-.109.763a6.888,6.888,0,0,0,2.781.218A2.884,2.884,0,0,0,2994.512,1465.244Z" transform="translate(-2989.736 -1460.196)" fill="#ea8744"/>
    </g>
    <path id="Path_532" data-name="Path 532" d="M2718.636,1305.434l.236,3.039-41.251,3.026-8.142-28.489,34.225-3.771,5.736,25.181Z" transform="translate(-2378.576 -1139.836)" fill="#35333e"/>
    <g id="Group_247" data-name="Group 247" transform="translate(290.904 139.404)" clip-path="url(#clip-path-17)">
      <path id="Path_533" data-name="Path 533" d="M2767.615,1247.684a17.264,17.264,0,0,1-2.841,11.6,41.1,41.1,0,0,1-8.362,9.064c-3.148,2.694-6.451,5.231-9.342,8.183a16.615,16.615,0,0,0-3.305,4.412,7.188,7.188,0,0,0-.5,5.307,2.475,2.475,0,0,0,.933,1.345,3.24,3.24,0,0,0,2.025.273,72.615,72.615,0,0,0,12.187-2.525c4.081-1.09,8.166-2.186,12.168-3.531a8.2,8.2,0,0,0,2.752-1.343,6.4,6.4,0,0,0,1.612-2.316,18.291,18.291,0,0,0,1.308-9.328c-.535-5.624-2.862-10.907-5.16-16.083l-2.455-5.533Z" transform="translate(-2734.953 -1250.7)" fill="#535160"/>
      <path id="Path_534" data-name="Path 534" d="M2966,1253.611l4.985,32.1,14.167-.436v-8.323L2972.52,1259.3l-1.361-7.783S2966.257,1251.688,2966,1253.611Z" transform="translate(-2933.687 -1254.541)" fill="#1e1d26"/>
    </g>
    <path id="Path_536" data-name="Path 536" d="M2803.5,1385.768a5.009,5.009,0,0,1-1.217-.156,6.4,6.4,0,0,1-3.5-2.405c-1.893-2.517-1.766-5.821.285-7.363s5.26-.749,7.154,1.769a6.394,6.394,0,0,1,1.34,4.024,4.244,4.244,0,0,1-1.626,3.339,4.013,4.013,0,0,1-2.441.792Zm-1.98-10.282a3.585,3.585,0,0,0-2.179.7c-1.858,1.4-1.948,4.427-.2,6.756a5.966,5.966,0,0,0,3.253,2.244,3.645,3.645,0,0,0,4.743-3.567,5.96,5.96,0,0,0-1.253-3.749A5.672,5.672,0,0,0,2801.525,1375.486Z" transform="translate(-2492.602 -1225.211)" fill="#fff"/>
    <rect id="Rectangle_240" data-name="Rectangle 240" width="32.726" height="34.632" rx="12" transform="translate(164.553 75.158)" fill="#fff"/>
    <path id="Path_537" data-name="Path 537" d="M1704.941,903.577a.217.217,0,0,1-.2-.312c.355-.739.685-1.511.981-2.3.313-.828.6-1.695.846-2.574a.218.218,0,0,1,.42.118c-.252.891-.545,1.77-.858,2.61-.3.8-.636,1.582-1,2.332A.218.218,0,0,1,1704.941,903.577Z" transform="translate(-1518.952 -800.356)" fill="#5867ac"/>
    <path id="Path_538" data-name="Path 538" d="M1674.579,769.5h-.028a.218.218,0,0,1-.193-.241,8.914,8.914,0,0,0,.034-1.543,8.644,8.644,0,0,0-.232-1.5,8.265,8.265,0,0,0-.488-1.417,8.059,8.059,0,0,0-.736-1.3,7.7,7.7,0,0,0-.942-1.114,7.01,7.01,0,0,0-1.09-.872,6.493,6.493,0,0,0-1.219-.608,6.3,6.3,0,0,0-1.315-.327c-.073-.01-.145-.02-.218-.027s-.145-.014-.218-.018-.145-.01-.218-.012-.145,0-.218,0a.218.218,0,1,1,0-.436h.233c.077,0,.156.008.233.013s.156.012.232.021.155.017.232.028a6.627,6.627,0,0,1,1.406.353,6.884,6.884,0,0,1,1.308.654,7.3,7.3,0,0,1,1.164.923,8.089,8.089,0,0,1,1,1.178,8.45,8.45,0,0,1,.775,1.37,8.724,8.724,0,0,1,.513,1.49,8.961,8.961,0,0,1,.244,1.573,9.492,9.492,0,0,1-.035,1.62A.218.218,0,0,1,1674.579,769.5Z" transform="translate(-1485.59 -677.26)" fill="#5867ac"/>
    <path id="Path_539" data-name="Path 539" d="M1576.729,779.48a.218.218,0,0,1-.165-.361,8.9,8.9,0,0,0,.872-1.192,11.173,11.173,0,0,0,.8-1.6,14.721,14.721,0,0,0,.661-2.063,20.219,20.219,0,0,0,.446-2.588,8.908,8.908,0,0,1,.8-2.861,8.135,8.135,0,0,1,1.609-2.288,7.24,7.24,0,0,1,2.225-1.526.218.218,0,0,1,.173.4,6.8,6.8,0,0,0-2.1,1.436,7.717,7.717,0,0,0-1.526,2.169,8.455,8.455,0,0,0-.763,2.724,20.686,20.686,0,0,1-.457,2.645,15.168,15.168,0,0,1-.681,2.125,11.567,11.567,0,0,1-.833,1.66,9.436,9.436,0,0,1-.91,1.242A.218.218,0,0,1,1576.729,779.48Z" transform="translate(-1404.712 -681.621)" fill="#5867ac"/>
    <path id="Path_540" data-name="Path 540" d="M1570.739,846.457a.218.218,0,0,1-.175-.345,8.355,8.355,0,0,0,.631-1.021,10.579,10.579,0,0,0,.579-1.326,13.661,13.661,0,0,0,.481-1.672.218.218,0,0,1,.426.095,14.343,14.343,0,0,1-.5,1.725,11.069,11.069,0,0,1-.6,1.381,8.647,8.647,0,0,1-.665,1.074A.218.218,0,0,1,1570.739,846.457Z" transform="translate(-1399.376 -750.174)" fill="#5867ac"/>
    <path id="Path_541" data-name="Path 541" d="M1614.4,756.585h-.024a.218.218,0,0,1-.193-.24,10.723,10.723,0,0,0,.04-1.86,10.435,10.435,0,0,0-.279-1.8,10.023,10.023,0,0,0-.589-1.707,9.745,9.745,0,0,0-.886-1.567,9.242,9.242,0,0,0-1.137-1.343,8.317,8.317,0,0,0-1.321-1.048,7.813,7.813,0,0,0-1.47-.733,7.55,7.55,0,0,0-1.588-.4l-.26-.033c-.087-.009-.175-.016-.263-.023s-.176-.011-.263-.014a7.438,7.438,0,0,0-3.246.62,8.2,8.2,0,0,0-2.523,1.732,9.3,9.3,0,0,0-1.837,2.615.218.218,0,0,1-.393-.186,9.745,9.745,0,0,1,1.929-2.744,8.651,8.651,0,0,1,2.657-1.819,7.869,7.869,0,0,1,3.435-.654c.093,0,.185.009.278.015s.185.015.278.025.184.021.276.034a7.948,7.948,0,0,1,1.678.422,8.232,8.232,0,0,1,1.553.775,8.8,8.8,0,0,1,1.391,1.1,9.613,9.613,0,0,1,1.19,1.407,10.2,10.2,0,0,1,.926,1.635,10.473,10.473,0,0,1,.614,1.781,10.772,10.772,0,0,1,.291,1.881,11.153,11.153,0,0,1-.042,1.935A.218.218,0,0,1,1614.4,756.585Z" transform="translate(-1423.993 -664.147)" fill="#5867ac"/>
    <path id="Path_542" data-name="Path 542" d="M1725.142,895.352a.217.217,0,0,1-.2-.3c.258-.666.5-1.356.717-2.051.227-.724.436-1.474.617-2.23a.218.218,0,1,1,.424.1c-.185.763-.4,1.526-.624,2.257-.218.705-.465,1.4-.727,2.079A.218.218,0,0,1,1725.142,895.352Z" transform="translate(-1536.951 -793.555)" fill="#5867ac"/>
    <path id="Path_543" data-name="Path 543" d="M1623.343,794.272a.218.218,0,0,1-.19-.327,26.407,26.407,0,0,0,1.186-2.386,28.361,28.361,0,0,0,1.029-2.748,32.1,32.1,0,0,0,.821-3.137c.238-1.138.425-2.332.558-3.548a7.008,7.008,0,0,0,.026-1.228,6.819,6.819,0,0,0-.184-1.19,6.515,6.515,0,0,0-.972-2.159,6,6,0,0,0-.749-.884,5.433,5.433,0,0,0-.872-.69,4.977,4.977,0,0,0-2.01-.744c-.058-.009-.115-.015-.172-.022l-.172-.015c-.058,0-.116-.007-.172-.009a4.882,4.882,0,0,0-2.131.406,5.386,5.386,0,0,0-1.656,1.148,6.1,6.1,0,0,0-1.21,1.717,6.736,6.736,0,0,0-.606,2.163.219.219,0,0,1-.436-.048,7.2,7.2,0,0,1,.646-2.3,6.57,6.57,0,0,1,1.3-1.845,5.819,5.819,0,0,1,1.793-1.228,5.31,5.31,0,0,1,2.32-.442c.062,0,.125.005.188.01s.125.01.188.016l.186.024a5.33,5.33,0,0,1,1.135.284,5.552,5.552,0,0,1,1.05.524,5.906,5.906,0,0,1,.939.744,6.5,6.5,0,0,1,.8.948,6.859,6.859,0,0,1,.623,1.1,7.122,7.122,0,0,1,.414,1.2,7.36,7.36,0,0,1,.2,1.266,7.56,7.56,0,0,1-.028,1.308c-.135,1.23-.327,2.439-.566,3.6a32.745,32.745,0,0,1-.83,3.18,29.137,29.137,0,0,1-1.045,2.791,26.371,26.371,0,0,1-1.206,2.424A.218.218,0,0,1,1623.343,794.272Z" transform="translate(-1439.388 -690.321)" fill="#5867ac"/>
    <path id="Path_544" data-name="Path 544" d="M1583.935,860.366a.218.218,0,0,1-.159-.367,9.958,9.958,0,0,0,1.069-1.367,12.312,12.312,0,0,0,.987-1.845,16.009,16.009,0,0,0,.809-2.391.218.218,0,1,1,.422.109,16.371,16.371,0,0,1-.83,2.457,12.851,12.851,0,0,1-1.022,1.909,10.682,10.682,0,0,1-1.115,1.431A.218.218,0,0,1,1583.935,860.366Z" transform="translate(-1411.133 -761.137)" fill="#5867ac"/>
    <path id="Path_545" data-name="Path 545" d="M1576.729,791.584a.218.218,0,0,1-.165-.361,8.9,8.9,0,0,0,.872-1.192,11.173,11.173,0,0,0,.8-1.6,14.724,14.724,0,0,0,.661-2.063,20.218,20.218,0,0,0,.446-2.588,8.907,8.907,0,0,1,.8-2.861,8.134,8.134,0,0,1,1.609-2.288.218.218,0,1,1,.307.309,7.719,7.719,0,0,0-1.526,2.169,8.452,8.452,0,0,0-.763,2.724,20.706,20.706,0,0,1-.457,2.645,15.181,15.181,0,0,1-.681,2.125,11.576,11.576,0,0,1-.833,1.66,9.443,9.443,0,0,1-.915,1.243A.218.218,0,0,1,1576.729,791.584Z" transform="translate(-1404.712 -693.725)" fill="#5867ac"/>
    <path id="Path_546" data-name="Path 546" d="M1669.031,882.834a.218.218,0,0,1-.183-.336,23.242,23.242,0,0,0,1.332-2.372,25.7,25.7,0,0,0,1.167-2.813,29.68,29.68,0,0,0,.932-3.287.218.218,0,1,1,.425.095,30.052,30.052,0,0,1-.945,3.335,26.392,26.392,0,0,1-1.181,2.861,23.812,23.812,0,0,1-1.357,2.417A.218.218,0,0,1,1669.031,882.834Z" transform="translate(-1486.956 -778.62)" fill="#5867ac"/>
    <path id="Path_547" data-name="Path 547" d="M1689.049,799.428a.218.218,0,0,1-.218-.2,5.122,5.122,0,0,0-.136-.884,5.039,5.039,0,0,0-.288-.835,4.815,4.815,0,0,0-.436-.763,4.547,4.547,0,0,0-.555-.654,4.084,4.084,0,0,0-.644-.51.218.218,0,1,1,.234-.368,4.574,4.574,0,0,1,.714.566,4.965,4.965,0,0,1,.608.719,5.214,5.214,0,0,1,.473.836,5.372,5.372,0,0,1,.314.909,5.451,5.451,0,0,1,.148.96.218.218,0,0,1-.2.231Z" transform="translate(-1502.868 -708.523)" fill="#5867ac"/>
    <path id="Path_548" data-name="Path 548" d="M1592.376,803.87a.218.218,0,0,1-.158-.368,11.55,11.55,0,0,0,1.237-1.547,13.76,13.76,0,0,0,1.132-2.07,17.318,17.318,0,0,0,.922-2.669,23.309,23.309,0,0,0,.6-3.344,5.417,5.417,0,0,1,.489-1.744,4.982,4.982,0,0,1,.981-1.4,4.4,4.4,0,0,1,1.361-.932,4.033,4.033,0,0,1,1.762-.337.889.889,0,0,1,.143.008l.143.012c.047.005.095.011.142.019a.22.22,0,0,1-.062.436c-.041-.007-.084-.012-.126-.016s-.084-.009-.126-.011l-.128-.008a3.612,3.612,0,0,0-1.574.3,4,4,0,0,0-1.227.842,4.534,4.534,0,0,0-.9,1.277,4.966,4.966,0,0,0-.45,1.6,23.878,23.878,0,0,1-.614,3.408,17.845,17.845,0,0,1-.945,2.736,14.262,14.262,0,0,1-1.169,2.135,12.094,12.094,0,0,1-1.283,1.606A.218.218,0,0,1,1592.376,803.87Z" transform="translate(-1418.654 -703.426)" fill="#5867ac"/>
    <path id="Path_549" data-name="Path 549" d="M1623.343,794.272a.218.218,0,0,1-.19-.327,26.407,26.407,0,0,0,1.186-2.386,28.361,28.361,0,0,0,1.029-2.748,32.1,32.1,0,0,0,.821-3.137c.238-1.138.425-2.332.558-3.548a7.008,7.008,0,0,0,.026-1.228,6.819,6.819,0,0,0-.184-1.19,6.515,6.515,0,0,0-.972-2.159,6,6,0,0,0-.749-.884,5.433,5.433,0,0,0-.872-.69,4.977,4.977,0,0,0-2.01-.744c-.058-.009-.115-.015-.172-.022l-.172-.015c-.058,0-.116-.007-.172-.009a4.882,4.882,0,0,0-2.131.406,5.386,5.386,0,0,0-1.656,1.148,6.1,6.1,0,0,0-1.21,1.717,6.736,6.736,0,0,0-.606,2.163.219.219,0,0,1-.436-.048,7.2,7.2,0,0,1,.646-2.3,6.57,6.57,0,0,1,1.3-1.845,5.819,5.819,0,0,1,1.793-1.228,5.31,5.31,0,0,1,2.32-.442c.062,0,.125.005.188.01s.125.01.188.016l.186.024a5.33,5.33,0,0,1,1.135.284,5.552,5.552,0,0,1,1.05.524,5.906,5.906,0,0,1,.939.744,6.5,6.5,0,0,1,.8.948,6.859,6.859,0,0,1,.623,1.1,7.122,7.122,0,0,1,.414,1.2,7.36,7.36,0,0,1,.2,1.266,7.56,7.56,0,0,1-.028,1.308c-.135,1.23-.327,2.439-.566,3.6a32.745,32.745,0,0,1-.83,3.18,29.137,29.137,0,0,1-1.045,2.791,26.371,26.371,0,0,1-1.206,2.424A.218.218,0,0,1,1623.343,794.272Z" transform="translate(-1439.388 -690.321)" fill="#5867ac"/>
    <path id="Path_550" data-name="Path 550" d="M1642.844,820.7a.218.218,0,0,1-.177-.344,21.141,21.141,0,0,0,1.425-2.3,23.574,23.574,0,0,0,1.266-2.8,27.136,27.136,0,0,0,1.013-3.346,32.538,32.538,0,0,0,.667-3.936,3.346,3.346,0,0,0-.076-1.17,3.264,3.264,0,0,0-.187-.545,3.229,3.229,0,0,0-.282-.5,2.973,2.973,0,0,0-.361-.426,2.616,2.616,0,0,0-.418-.327,2.365,2.365,0,0,0-.464-.231,2.414,2.414,0,0,0-.5-.126l-.084-.01-.082-.008h-.083a2.326,2.326,0,0,0-1.017.2,2.58,2.58,0,0,0-.8.545,2.983,2.983,0,0,0-.582.83,3.239,3.239,0,0,0-.293,1.047.219.219,0,0,1-.436-.047,3.709,3.709,0,0,1,.327-1.187,3.386,3.386,0,0,1,.669-.954,3.021,3.021,0,0,1,.928-.636,2.776,2.776,0,0,1,1.206-.231l.1.005.1.009.1.012a2.859,2.859,0,0,1,.591.148,2.94,2.94,0,0,1,.545.272,3.093,3.093,0,0,1,.487.386,3.354,3.354,0,0,1,.415.49,3.565,3.565,0,0,1,.327.569,3.727,3.727,0,0,1,.314,1.271,3.939,3.939,0,0,1-.014.671,33.181,33.181,0,0,1-.677,3.988,27.588,27.588,0,0,1-1.03,3.4,23.953,23.953,0,0,1-1.289,2.85,21.356,21.356,0,0,1-1.456,2.343A.218.218,0,0,1,1642.844,820.7Z" transform="translate(-1462.511 -716.559)" fill="#5867ac"/>
    <path id="Path_551" data-name="Path 551" d="M1602.005,894.752a.218.218,0,0,1-.159-.367,13.04,13.04,0,0,0,1.367-1.729,15.421,15.421,0,0,0,1.241-2.278.218.218,0,1,1,.4.177,15.7,15.7,0,0,1-1.277,2.342,13.419,13.419,0,0,1-1.417,1.787A.218.218,0,0,1,1602.005,894.752Z" transform="translate(-1427.234 -793.234)" fill="#5867ac"/>
    <path id="Path_552" data-name="Path 552" d="M1638.362,930.79a.217.217,0,0,1-.171-.352,18.94,18.94,0,0,0,1.469-2.174.218.218,0,1,1,.377.218,19.282,19.282,0,0,1-1.5,2.224A.218.218,0,0,1,1638.362,930.79Z" transform="translate(-1459.629 -827.003)" fill="#5867ac"/>
    <path id="Path_553" data-name="Path 553" d="M1612.882,832.016a.218.218,0,0,1-.161-.364,14.931,14.931,0,0,0,1.457-1.908,17.162,17.162,0,0,0,1.308-2.464,20.912,20.912,0,0,0,1.049-3.092,27,27,0,0,0,.677-3.79,1.936,1.936,0,0,1,.2-.679,1.761,1.761,0,0,1,.408-.53,1.578,1.578,0,0,1,.565-.327,1.479,1.479,0,0,1,.661-.056,1.535,1.535,0,0,1,.625.233,1.714,1.714,0,0,1,.473.461,1.894,1.894,0,0,1,.28.618,2,2,0,0,1,.05.712,31,31,0,0,1-.706,4.044.218.218,0,1,1-.423-.1,30.6,30.6,0,0,0,.7-3.987,1.563,1.563,0,0,0-.038-.553,1.456,1.456,0,0,0-.218-.476,1.288,1.288,0,0,0-.352-.344,1.1,1.1,0,0,0-.449-.168,1.028,1.028,0,0,0-.468.039,1.134,1.134,0,0,0-.41.235,1.352,1.352,0,0,0-.307.4,1.475,1.475,0,0,0-.156.529,27.594,27.594,0,0,1-.689,3.851,21.412,21.412,0,0,1-1.071,3.16,17.645,17.645,0,0,1-1.341,2.527,15.231,15.231,0,0,1-1.5,1.961A.218.218,0,0,1,1612.882,832.016Z" transform="translate(-1436.926 -729.565)" fill="#5867ac"/>
    <path id="Path_554" data-name="Path 554" d="M1626.655,849.594l-.355-.251a26.268,26.268,0,0,0,2.01-3.269,22.335,22.335,0,0,0,1.319-3.107,20.1,20.1,0,0,0,.741-2.905,18.968,18.968,0,0,0,.276-2.662l.436.013a19.21,19.21,0,0,1-.282,2.724,20.4,20.4,0,0,1-.757,2.969,22.911,22.911,0,0,1-1.344,3.168A26.921,26.921,0,0,1,1626.655,849.594Z" transform="translate(-1449.075 -746.145)" fill="#5867ac"/>
    <path id="Path_555" data-name="Path 555" d="M1612.882,832.016a.218.218,0,0,1-.161-.364,14.931,14.931,0,0,0,1.457-1.908,17.162,17.162,0,0,0,1.308-2.464,20.912,20.912,0,0,0,1.049-3.092,27,27,0,0,0,.677-3.79,1.936,1.936,0,0,1,.2-.679,1.761,1.761,0,0,1,.408-.53,1.578,1.578,0,0,1,.565-.327,1.479,1.479,0,0,1,.661-.056,1.535,1.535,0,0,1,.625.233,1.714,1.714,0,0,1,.473.461,1.894,1.894,0,0,1,.28.618,2,2,0,0,1,.05.712,31,31,0,0,1-.706,4.044.218.218,0,1,1-.423-.1,30.6,30.6,0,0,0,.7-3.987,1.563,1.563,0,0,0-.038-.553,1.456,1.456,0,0,0-.218-.476,1.288,1.288,0,0,0-.352-.344,1.1,1.1,0,0,0-.449-.168,1.028,1.028,0,0,0-.468.039,1.134,1.134,0,0,0-.41.235,1.352,1.352,0,0,0-.307.4,1.475,1.475,0,0,0-.156.529,27.594,27.594,0,0,1-.689,3.851,21.412,21.412,0,0,1-1.071,3.16,17.645,17.645,0,0,1-1.341,2.527,15.231,15.231,0,0,1-1.5,1.961A.218.218,0,0,1,1612.882,832.016Z" transform="translate(-1436.926 -729.565)" fill="#5867ac"/>
    <path id="Path_556" data-name="Path 556" d="M1638.362,930.79a.217.217,0,0,1-.171-.352,18.94,18.94,0,0,0,1.469-2.174.218.218,0,1,1,.377.218,19.282,19.282,0,0,1-1.5,2.224A.218.218,0,0,1,1638.362,930.79Z" transform="translate(-1459.629 -827.003)" fill="#5867ac"/>
  </g>
</svg>
