<svg xmlns="http://www.w3.org/2000/svg" xmlns:xlink="http://www.w3.org/1999/xlink" width="827.008" height="629.231" viewBox="0 0 827.008 629.231">
  <defs>
    <clipPath id="clip-path">
      <path id="Path_733" data-name="Path 733" d="M1456.9,401.288a183.743,183.743,0,0,0-29.519,25.73c-16.588,17.865-67.5,55.506-198.884,49.395C1057.22,468.448,964.28,630.428,1028.01,753.9S1309.484,963.681,1573.7,857.464s203.577-393.1,112.5-467.9C1651.295,360.9,1550.641,335.935,1456.9,401.288Z" transform="translate(-1007.852 -360)" fill="#fcefdf"/>
    </clipPath>
  </defs>
  <g id="_02" data-name="02" transform="translate(-199.996 -94.385)">
    <path id="Path_727" data-name="Path 727" d="M1589.828,2209.806c0,45.842-185.146,83.006-413.5,83.006s-413.5-37.164-413.5-83.006c0-7.268,4.654-14.317,13.392-21.032,46.406-35.656,207.942-61.974,400.109-61.974,151.668,0,284.263,16.389,356.226,40.827C1568.943,2179.991,1589.828,2194.408,1589.828,2209.806Z" transform="translate(-562.824 -1569.197)" fill="#ffac6a" fill-rule="evenodd"/>
    <path id="Path_728" data-name="Path 728" d="M1570.235,2174.525c-12.511,24.309-195.093,43.6-418.5,43.6-138.622,0-261.529-7.427-337.839-18.877,46.406-41.687,207.942-72.466,400.109-72.466C1365.677,2126.785,1498.272,2145.951,1570.235,2174.525Z" transform="translate(-600.512 -1569.182)" fill="#e97425" fill-rule="evenodd"/>
    <ellipse id="Ellipse_187" data-name="Ellipse 187" cx="103.797" cy="19.05" rx="103.797" ry="19.05" transform="translate(505.052 637.799)" fill="#e97425"/>
    <ellipse id="Ellipse_188" data-name="Ellipse 188" cx="103.797" cy="19.05" rx="103.797" ry="19.05" transform="translate(795.324 612.716)" fill="#e97425"/>
    <ellipse id="Ellipse_189" data-name="Ellipse 189" cx="78.282" cy="19.05" rx="78.282" ry="19.05" transform="translate(735.872 664.806)" fill="#e97425"/>
    <path id="Path_729" data-name="Path 729" d="M1059.763,2580.271c44.046-1.135,78.177-9.176,78.177-18.911,0-10.519-39.809-19.05-88.918-19.05-41.841,0-76.934,6.193-86.4,14.535Z" transform="translate(-710.241 -1875.769)" fill="#e97425" fill-rule="evenodd"/>
    <rect id="Rectangle_246" data-name="Rectangle 246" width="283.154" height="475.106" rx="51.91" transform="translate(218.348 148.553)" fill="#ffdcc6"/>
    <rect id="Rectangle_247" data-name="Rectangle 247" width="245.851" height="99.117" rx="18.25" transform="translate(235.285 170.044)" fill="#fec0b1"/>
    <rect id="Rectangle_248" data-name="Rectangle 248" width="70.684" height="70.684" rx="21.69" transform="translate(240.408 366.569)" fill="#fc9d81"/>
    <rect id="Rectangle_249" data-name="Rectangle 249" width="70.684" height="70.684" rx="21.69" transform="translate(323.894 366.569)" fill="#a7b0d1"/>
    <rect id="Rectangle_250" data-name="Rectangle 250" width="70.684" height="70.684" rx="21.69" transform="translate(407.382 366.569)" fill="#a7b0d1"/>
    <rect id="Rectangle_251" data-name="Rectangle 251" width="70.684" height="31.839" rx="15.92" transform="translate(240.408 323.312)" fill="#fca792"/>
    <rect id="Rectangle_252" data-name="Rectangle 252" width="70.684" height="31.839" rx="15.92" transform="translate(323.894 323.312)" fill="#a7b0d1"/>
    <rect id="Rectangle_253" data-name="Rectangle 253" width="70.684" height="31.839" rx="15.92" transform="translate(407.382 323.312)" fill="#a7b0d1"/>
    <rect id="Rectangle_254" data-name="Rectangle 254" width="70.684" height="31.839" rx="15.92" transform="translate(240.408 283.135)" fill="#fdb59f"/>
    <rect id="Rectangle_255" data-name="Rectangle 255" width="70.684" height="31.839" rx="15.92" transform="translate(323.894 283.135)" fill="#a7b0d1"/>
    <rect id="Rectangle_256" data-name="Rectangle 256" width="70.684" height="31.839" rx="15.92" transform="translate(407.382 283.135)" fill="#a7b0d1"/>
    <rect id="Rectangle_257" data-name="Rectangle 257" width="70.684" height="70.684" rx="21.69" transform="translate(240.408 448.966)" fill="#fb8f72"/>
    <rect id="Rectangle_258" data-name="Rectangle 258" width="70.684" height="70.684" rx="21.69" transform="translate(323.894 448.966)" fill="#a7b0d1"/>
    <rect id="Rectangle_259" data-name="Rectangle 259" width="70.684" height="70.684" rx="21.69" transform="translate(407.382 448.966)" fill="#a7b0d1"/>
    <rect id="Rectangle_260" data-name="Rectangle 260" width="70.684" height="70.684" rx="21.69" transform="translate(240.408 531.236)" fill="#fb8360"/>
    <rect id="Rectangle_261" data-name="Rectangle 261" width="70.684" height="70.684" rx="21.69" transform="translate(323.894 531.236)" fill="#a7b0d1"/>
    <rect id="Rectangle_262" data-name="Rectangle 262" width="70.684" height="70.684" rx="21.69" transform="translate(407.382 531.236)" fill="#fb8360"/>
    <path id="Path_730" data-name="Path 730" d="M1456.9,401.288a183.743,183.743,0,0,0-29.519,25.73c-16.588,17.865-67.5,55.506-198.884,49.395C1057.22,468.448,964.28,630.428,1028.01,753.9S1309.484,963.681,1573.7,857.464s203.577-393.1,112.5-467.9C1651.295,360.9,1550.641,335.935,1456.9,401.288Z" transform="translate(-743.614 -265.615)" fill="#fcefdf" fill-rule="evenodd"/>
    <g id="Group_297" data-name="Group 297" transform="translate(264.238 94.385)" clip-path="url(#clip-path)">
      <path id="Path_731" data-name="Path 731" d="M706.157,999.837s65.7,195.523,296.129,164.735,262.1-223.442,508.875-149.162l52.2,411.687S1260.4,1579.358,1141.1,1550.437s-531.962-39.641-531.962-86.5S632.033,979.023,706.157,999.837Z" transform="translate(-713.674 -831.099)" fill="#ffddca" fill-rule="evenodd"/>
      <path id="Path_732" data-name="Path 732" d="M705.489,1520.168s65.7,195.52,296.129,164.733,262.1-223.442,508.875-149.156l39.909,314.741s-278.123,51.107-414.469,48.207c-122.724-2.622-532.992-22.836-532.992-69.7S631.366,1499.354,705.489,1520.168Z" transform="translate(-709.1 -1215.01)" fill="#fac3a5" fill-rule="evenodd"/>
      <rect id="Rectangle_263" data-name="Rectangle 263" width="1.707" height="35.15" transform="translate(724.92 179.86)" fill="#fb8360"/>
      <rect id="Rectangle_264" data-name="Rectangle 264" width="14.724" height="23.428" transform="translate(718.41 181.845)" fill="#fb8360"/>
      <rect id="Rectangle_265" data-name="Rectangle 265" width="1.707" height="91.65" transform="translate(668.337 186.716)" fill="#fb8360"/>
      <rect id="Rectangle_266" data-name="Rectangle 266" width="14.724" height="64.2" transform="translate(661.829 197.437)" fill="#fb8360"/>
      <rect id="Rectangle_267" data-name="Rectangle 267" width="1.707" height="130.319" transform="translate(640.048 240.835)" fill="#fb8360"/>
      <rect id="Rectangle_268" data-name="Rectangle 268" width="14.727" height="91.288" transform="translate(633.538 256.078)" fill="#fb8360"/>
      <rect id="Rectangle_269" data-name="Rectangle 269" width="1.707" height="51.56" transform="translate(611.756 319.594)" fill="#fb8360"/>
      <rect id="Rectangle_270" data-name="Rectangle 270" width="14.727" height="20.849" transform="translate(605.246 340.896)" fill="#fb8360"/>
      <rect id="Rectangle_271" data-name="Rectangle 271" width="1.707" height="46.487" transform="translate(555.175 336.507)" fill="#fb8360"/>
      <rect id="Rectangle_272" data-name="Rectangle 272" width="14.724" height="29.757" transform="translate(548.665 345.374)" fill="#fb8360"/>
      <rect id="Rectangle_273" data-name="Rectangle 273" width="1.707" height="81.999" transform="translate(498.594 351.32)" fill="#fb8360"/>
      <rect id="Rectangle_274" data-name="Rectangle 274" width="14.727" height="55.6" transform="translate(492.084 367.114)" fill="#fb8360"/>
      <rect id="Rectangle_275" data-name="Rectangle 275" width="1.707" height="37.117" transform="translate(470.302 401.14)" fill="#fb8360"/>
      <rect id="Rectangle_276" data-name="Rectangle 276" width="14.724" height="16.273" transform="translate(463.795 411.378)" fill="#fb8360"/>
      <rect id="Rectangle_277" data-name="Rectangle 277" width="1.707" height="43.241" transform="translate(385.429 374.72)" fill="#fb8360"/>
      <rect id="Rectangle_278" data-name="Rectangle 278" width="14.727" height="26.695" transform="translate(378.92 382.674)" fill="#fb8360"/>
      <rect id="Rectangle_279" data-name="Rectangle 279" width="1.707" height="38.567" transform="translate(272.268 278.227)" fill="#fb8360"/>
      <rect id="Rectangle_280" data-name="Rectangle 280" width="14.727" height="20.091" transform="translate(265.758 284.811)" fill="#fb8360"/>
      <rect id="Rectangle_281" data-name="Rectangle 281" width="1.707" height="60.474" transform="translate(328.848 302.041)" fill="#fb8360"/>
      <rect id="Rectangle_282" data-name="Rectangle 282" width="14.727" height="38.168" transform="translate(322.339 310.271)" fill="#fb8360"/>
      <rect id="Rectangle_283" data-name="Rectangle 283" width="1.707" height="34.967" transform="translate(583.464 326.775)" fill="#fb8360"/>
      <rect id="Rectangle_284" data-name="Rectangle 284" width="14.727" height="19.724" transform="translate(576.957 331.033)" fill="#fb8360"/>
      <rect id="Rectangle_285" data-name="Rectangle 285" width="1.707" height="27.33" transform="translate(526.886 337.336)" fill="#fb8360"/>
      <rect id="Rectangle_286" data-name="Rectangle 286" width="14.727" height="10.694" transform="translate(520.373 343.274)" fill="#fb8360"/>
      <rect id="Rectangle_287" data-name="Rectangle 287" width="1.707" height="51.835" transform="translate(442.01 377.187)" fill="#fb8360"/>
      <rect id="Rectangle_288" data-name="Rectangle 288" width="14.727" height="35.654" transform="translate(435.5 387.061)" fill="#fb8360"/>
      <rect id="Rectangle_289" data-name="Rectangle 289" width="1.707" height="98.595" transform="translate(357.14 302.041)" fill="#fb8360"/>
      <rect id="Rectangle_290" data-name="Rectangle 290" width="14.724" height="79.855" transform="translate(350.63 314.474)" fill="#fb8360"/>
      <rect id="Rectangle_291" data-name="Rectangle 291" width="1.707" height="81.682" transform="translate(243.976 205.96)" fill="#fb8360"/>
      <rect id="Rectangle_292" data-name="Rectangle 292" width="14.727" height="60.566" transform="translate(237.469 213.687)" fill="#fb8360"/>
      <rect id="Rectangle_293" data-name="Rectangle 293" width="1.707" height="75.217" transform="translate(300.559 254.138)" fill="#fb8360"/>
      <rect id="Rectangle_294" data-name="Rectangle 294" width="14.724" height="41.846" transform="translate(294.049 274.25)" fill="#fb8360"/>
      <rect id="Rectangle_295" data-name="Rectangle 295" width="1.707" height="44.384" transform="translate(413.721 358.722)" fill="#fb8360"/>
      <rect id="Rectangle_296" data-name="Rectangle 296" width="14.724" height="24.684" transform="translate(407.214 368.595)" fill="#fb8360"/>
      <rect id="Rectangle_297" data-name="Rectangle 297" width="1.707" height="24.708" transform="translate(696.629 172.726)" fill="#fb8360"/>
      <rect id="Rectangle_298" data-name="Rectangle 298" width="14.727" height="10.288" transform="translate(690.119 177.805)" fill="#fb8360"/>
      <rect id="Rectangle_299" data-name="Rectangle 299" width="1.707" height="104.486" transform="translate(181.249 168.657)" fill="#fb8360"/>
      <rect id="Rectangle_300" data-name="Rectangle 300" width="14.724" height="60.073" transform="translate(174.742 190.864)" fill="#fb8360"/>
      <rect id="Rectangle_301" data-name="Rectangle 301" width="1.707" height="167.443" transform="translate(152.958 206.089)" fill="#fb8360"/>
      <rect id="Rectangle_302" data-name="Rectangle 302" width="14.724" height="101.356" transform="translate(146.45 228.295)" fill="#fb8360"/>
      <rect id="Rectangle_303" data-name="Rectangle 303" width="1.707" height="60.999" transform="translate(124.666 334.656)" fill="#fb8360"/>
      <rect id="Rectangle_304" data-name="Rectangle 304" width="14.724" height="50.679" transform="translate(118.159 323.82)" fill="#fb8360"/>
      <rect id="Rectangle_305" data-name="Rectangle 305" width="1.707" height="60.999" transform="translate(96.377 377.806)" fill="#fb8360"/>
      <rect id="Rectangle_306" data-name="Rectangle 306" width="14.724" height="31.64" transform="translate(89.869 396.843)" fill="#fb8360"/>
      <rect id="Rectangle_307" data-name="Rectangle 307" width="1.707" height="49.478" transform="translate(68.088 377.806)" fill="#fb8360"/>
      <rect id="Rectangle_308" data-name="Rectangle 308" width="14.727" height="15.82" transform="translate(61.578 396.843)" fill="#fb8360"/>
      <rect id="Rectangle_309" data-name="Rectangle 309" width="1.707" height="74.865" transform="translate(209.541 168.657)" fill="#fb8360"/>
      <rect id="Rectangle_310" data-name="Rectangle 310" width="14.727" height="21.52" transform="translate(203.031 184.569)" fill="#fb8360"/>
    </g>
    <path id="Path_734" data-name="Path 734" d="M3047.045,2335.54h97.442a3.615,3.615,0,0,1,3.6,3.6v12.1a3.615,3.615,0,0,1-3.6,3.6h-97.441a3.616,3.616,0,0,1-3.6-3.6v-12.1A3.615,3.615,0,0,1,3047.045,2335.54Z" transform="translate(-2245.513 -1723.209)" fill="#dba21b" fill-rule="evenodd"/>
    <rect id="Rectangle_311" data-name="Rectangle 311" width="7.155" height="19.307" transform="translate(880.401 612.331)" fill="#c99024"/>
    <rect id="Rectangle_312" data-name="Rectangle 312" width="7.155" height="19.307" transform="translate(865.74 612.331)" fill="#c99024"/>
    <rect id="Rectangle_313" data-name="Rectangle 313" width="7.15" height="19.307" transform="translate(813.299 612.331)" fill="#eabc39"/>
    <path id="Path_735" data-name="Path 735" d="M3047.045,2335.54h97.565a3.087,3.087,0,0,1,.023.383v12.1a3.616,3.616,0,0,1-3.608,3.6h-97.567a3.758,3.758,0,0,1-.018-.385v-12.1A3.615,3.615,0,0,1,3047.045,2335.54Z" transform="translate(-2245.513 -1723.209)" fill="#f1cf51" fill-rule="evenodd"/>
    <rect id="Rectangle_314" data-name="Rectangle 314" width="7.155" height="16.09" transform="translate(880.401 612.331)" fill="#eabc39"/>
    <rect id="Rectangle_315" data-name="Rectangle 315" width="7.155" height="16.09" transform="translate(865.74 612.331)" fill="#eabc39"/>
    <rect id="Rectangle_316" data-name="Rectangle 316" width="7.15" height="16.09" transform="translate(813.299 612.331)" fill="#f7e191"/>
    <path id="Path_736" data-name="Path 736" d="M3067.787,2261.9h97.442a3.608,3.608,0,0,1,3.6,3.6v12.1a3.61,3.61,0,0,1-3.6,3.6h-97.442a3.621,3.621,0,0,1-3.608-3.6v-12.1A3.618,3.618,0,0,1,3067.787,2261.9Z" transform="translate(-2260.815 -1668.876)" fill="#dba21b" fill-rule="evenodd"/>
    <rect id="Rectangle_317" data-name="Rectangle 317" width="7.15" height="19.31" transform="translate(885.844 593.024)" fill="#c99024"/>
    <rect id="Rectangle_318" data-name="Rectangle 318" width="7.15" height="19.31" transform="translate(871.183 593.024)" fill="#c99024"/>
    <rect id="Rectangle_319" data-name="Rectangle 319" width="7.155" height="19.31" transform="translate(818.739 593.024)" fill="#eabc39"/>
    <path id="Path_737" data-name="Path 737" d="M3067.787,2261.9h97.568a3.711,3.711,0,0,1,.018.383v12.1a3.613,3.613,0,0,1-3.6,3.6H3064.2a3.649,3.649,0,0,1-.024-.383v-12.1A3.618,3.618,0,0,1,3067.787,2261.9Z" transform="translate(-2260.815 -1668.876)" fill="#f1cf51" fill-rule="evenodd"/>
    <rect id="Rectangle_320" data-name="Rectangle 320" width="7.15" height="16.093" transform="translate(885.844 593.024)" fill="#eabc39"/>
    <rect id="Rectangle_321" data-name="Rectangle 321" width="7.15" height="16.093" transform="translate(871.183 593.024)" fill="#eabc39"/>
    <rect id="Rectangle_322" data-name="Rectangle 322" width="7.155" height="16.093" transform="translate(818.739 593.024)" fill="#f7e191"/>
    <path id="Path_738" data-name="Path 738" d="M3036.662,2188.24h97.444a3.615,3.615,0,0,1,3.6,3.608v12.1a3.613,3.613,0,0,1-3.6,3.6h-97.444a3.616,3.616,0,0,1-3.6-3.6v-12.1A3.618,3.618,0,0,1,3036.662,2188.24Z" transform="translate(-2237.854 -1614.529)" fill="#dba21b" fill-rule="evenodd"/>
    <rect id="Rectangle_323" data-name="Rectangle 323" width="7.15" height="19.31" transform="translate(877.68 573.711)" fill="#c99024"/>
    <rect id="Rectangle_324" data-name="Rectangle 324" width="7.15" height="19.31" transform="translate(863.024 573.711)" fill="#c99024"/>
    <rect id="Rectangle_325" data-name="Rectangle 325" width="7.15" height="19.31" transform="translate(810.577 573.711)" fill="#eabc39"/>
    <path id="Path_739" data-name="Path 739" d="M3036.663,2188.24h97.567a3.179,3.179,0,0,1,.023.385v12.1a3.616,3.616,0,0,1-3.6,3.6h-97.567a3.735,3.735,0,0,1-.021-.38v-12.1A3.618,3.618,0,0,1,3036.663,2188.24Z" transform="translate(-2237.854 -1614.529)" fill="#f1cf51" fill-rule="evenodd"/>
    <rect id="Rectangle_326" data-name="Rectangle 326" width="7.15" height="16.093" transform="translate(877.68 573.711)" fill="#eabc39"/>
    <rect id="Rectangle_327" data-name="Rectangle 327" width="7.15" height="16.093" transform="translate(863.024 573.711)" fill="#eabc39"/>
    <rect id="Rectangle_328" data-name="Rectangle 328" width="7.15" height="16.093" transform="translate(810.577 573.711)" fill="#f7e191"/>
    <path id="Path_740" data-name="Path 740" d="M3047.045,2114.6h97.442a3.616,3.616,0,0,1,3.6,3.6v12.1a3.613,3.613,0,0,1-3.6,3.6h-97.442a3.616,3.616,0,0,1-3.6-3.6v-12.1A3.616,3.616,0,0,1,3047.045,2114.6Z" transform="translate(-2245.513 -1560.195)" fill="#dba21b" fill-rule="evenodd"/>
    <rect id="Rectangle_329" data-name="Rectangle 329" width="7.155" height="19.307" transform="translate(880.401 554.405)" fill="#c99024"/>
    <rect id="Rectangle_330" data-name="Rectangle 330" width="7.155" height="19.307" transform="translate(865.74 554.405)" fill="#c99024"/>
    <rect id="Rectangle_331" data-name="Rectangle 331" width="7.15" height="19.307" transform="translate(813.299 554.405)" fill="#eabc39"/>
    <path id="Path_741" data-name="Path 741" d="M3047.045,2114.6h97.565a3.094,3.094,0,0,1,.024.38v12.1a3.618,3.618,0,0,1-3.608,3.6h-97.567a3.78,3.78,0,0,1-.018-.383v-12.1A3.616,3.616,0,0,1,3047.045,2114.6Z" transform="translate(-2245.513 -1560.195)" fill="#f1cf51" fill-rule="evenodd"/>
    <rect id="Rectangle_332" data-name="Rectangle 332" width="7.155" height="16.09" transform="translate(880.401 554.405)" fill="#eabc39"/>
    <rect id="Rectangle_333" data-name="Rectangle 333" width="7.155" height="16.09" transform="translate(865.74 554.405)" fill="#eabc39"/>
    <rect id="Rectangle_334" data-name="Rectangle 334" width="7.15" height="16.09" transform="translate(813.299 554.405)" fill="#f7e191"/>
    <path id="Path_742" data-name="Path 742" d="M3007.258,2041H3104.7a3.615,3.615,0,0,1,3.607,3.6v12.1a3.616,3.616,0,0,1-3.608,3.6h-97.439a3.616,3.616,0,0,1-3.608-3.6v-12.113a3.615,3.615,0,0,1,3.607-3.592Z" transform="translate(-2216.155 -1505.892)" fill="#dba21b" fill-rule="evenodd"/>
    <rect id="Rectangle_335" data-name="Rectangle 335" width="7.157" height="19.307" transform="translate(869.972 535.098)" fill="#c99024"/>
    <rect id="Rectangle_336" data-name="Rectangle 336" width="7.15" height="19.307" transform="translate(855.313 535.098)" fill="#c99024"/>
    <rect id="Rectangle_337" data-name="Rectangle 337" width="7.147" height="19.307" transform="translate(802.872 535.098)" fill="#eabc39"/>
    <path id="Path_743" data-name="Path 743" d="M3007.258,2041h97.567a3.716,3.716,0,0,1,.024.383v12.1a3.621,3.621,0,0,1-3.608,3.6h-97.567a3.781,3.781,0,0,1-.024-.383v-12.115a3.615,3.615,0,0,1,3.607-3.592Z" transform="translate(-2216.155 -1505.892)" fill="#f1cf51" fill-rule="evenodd"/>
    <rect id="Rectangle_338" data-name="Rectangle 338" width="7.157" height="16.09" transform="translate(869.972 535.098)" fill="#eabc39"/>
    <rect id="Rectangle_339" data-name="Rectangle 339" width="7.15" height="16.09" transform="translate(855.313 535.098)" fill="#eabc39"/>
    <rect id="Rectangle_340" data-name="Rectangle 340" width="7.147" height="16.09" transform="translate(802.872 535.098)" fill="#f7e191"/>
    <path id="Path_744" data-name="Path 744" d="M3047.045,1967.3h97.442a3.616,3.616,0,0,1,3.6,3.6V1983a3.618,3.618,0,0,1-3.6,3.608h-97.442a3.618,3.618,0,0,1-3.6-3.608v-12.1A3.616,3.616,0,0,1,3047.045,1967.3Z" transform="translate(-2245.513 -1451.515)" fill="#dba21b" fill-rule="evenodd"/>
    <rect id="Rectangle_341" data-name="Rectangle 341" width="7.155" height="19.312" transform="translate(880.401 515.786)" fill="#c99024"/>
    <rect id="Rectangle_342" data-name="Rectangle 342" width="7.155" height="19.312" transform="translate(865.74 515.786)" fill="#c99024"/>
    <rect id="Rectangle_343" data-name="Rectangle 343" width="7.15" height="19.312" transform="translate(813.299 515.786)" fill="#eabc39"/>
    <path id="Path_745" data-name="Path 745" d="M3047.045,1967.3h97.565a3.04,3.04,0,0,1,.023.383v12.1a3.616,3.616,0,0,1-3.608,3.6h-97.567a3.711,3.711,0,0,1-.018-.383v-12.1A3.616,3.616,0,0,1,3047.045,1967.3Z" transform="translate(-2245.513 -1451.515)" fill="#f1cf51" fill-rule="evenodd"/>
    <rect id="Rectangle_344" data-name="Rectangle 344" width="7.155" height="16.09" transform="translate(880.401 515.786)" fill="#eabc39"/>
    <rect id="Rectangle_345" data-name="Rectangle 345" width="7.155" height="16.09" transform="translate(865.74 515.786)" fill="#eabc39"/>
    <rect id="Rectangle_346" data-name="Rectangle 346" width="7.15" height="16.09" transform="translate(813.299 515.786)" fill="#f7e191"/>
    <path id="Path_746" data-name="Path 746" d="M3047.045,1893.66h97.442a3.613,3.613,0,0,1,3.6,3.6v12.1a3.616,3.616,0,0,1-3.6,3.6h-97.441a3.616,3.616,0,0,1-3.6-3.6v-12.1A3.616,3.616,0,0,1,3047.045,1893.66Z" transform="translate(-2245.513 -1397.181)" fill="#dba21b" fill-rule="evenodd"/>
    <rect id="Rectangle_347" data-name="Rectangle 347" width="7.155" height="19.307" transform="translate(880.401 496.479)" fill="#c99024"/>
    <rect id="Rectangle_348" data-name="Rectangle 348" width="7.155" height="19.307" transform="translate(865.74 496.479)" fill="#c99024"/>
    <rect id="Rectangle_349" data-name="Rectangle 349" width="7.15" height="19.307" transform="translate(813.299 496.479)" fill="#eabc39"/>
    <path id="Path_747" data-name="Path 747" d="M3047.045,1893.66h97.565a3.089,3.089,0,0,1,.024.383v12.1a3.615,3.615,0,0,1-3.608,3.6h-97.567a3.762,3.762,0,0,1-.018-.385v-12.1A3.615,3.615,0,0,1,3047.045,1893.66Z" transform="translate(-2245.512 -1397.181)" fill="#f1cf51" fill-rule="evenodd"/>
    <rect id="Rectangle_350" data-name="Rectangle 350" width="7.155" height="16.087" transform="translate(880.401 496.479)" fill="#eabc39"/>
    <rect id="Rectangle_351" data-name="Rectangle 351" width="7.155" height="16.087" transform="translate(865.74 496.479)" fill="#eabc39"/>
    <rect id="Rectangle_352" data-name="Rectangle 352" width="7.15" height="16.087" transform="translate(813.299 496.479)" fill="#f7e191"/>
    <path id="Path_748" data-name="Path 748" d="M3096.428,1819.13h97.439a3.618,3.618,0,0,1,3.6,3.6v12.092a3.618,3.618,0,0,1-3.6,3.6h-97.439a3.618,3.618,0,0,1-3.608-3.6v-12.1a3.618,3.618,0,0,1,3.608-3.594Z" transform="translate(-2281.946 -1342.191)" fill="#dba21b" fill-rule="evenodd"/>
    <rect id="Rectangle_353" data-name="Rectangle 353" width="7.155" height="19.312" transform="translate(893.35 476.938)" fill="#c99024"/>
    <rect id="Rectangle_354" data-name="Rectangle 354" width="7.155" height="19.312" transform="translate(878.689 476.938)" fill="#c99024"/>
    <rect id="Rectangle_355" data-name="Rectangle 355" width="7.15" height="19.312" transform="translate(826.248 476.938)" fill="#eabc39"/>
    <path id="Path_749" data-name="Path 749" d="M3096.427,1819.13h97.565a3.128,3.128,0,0,1,.021.385v12.1a3.613,3.613,0,0,1-3.615,3.6h-97.557a3.646,3.646,0,0,1-.021-.383v-12.1a3.618,3.618,0,0,1,3.607-3.6Z" transform="translate(-2281.946 -1342.191)" fill="#f1cf51" fill-rule="evenodd"/>
    <rect id="Rectangle_356" data-name="Rectangle 356" width="7.155" height="16.09" transform="translate(893.35 476.938)" fill="#eabc39"/>
    <rect id="Rectangle_357" data-name="Rectangle 357" width="7.155" height="16.09" transform="translate(878.689 476.938)" fill="#eabc39"/>
    <rect id="Rectangle_358" data-name="Rectangle 358" width="7.15" height="16.09" transform="translate(826.248 476.938)" fill="#f7e191"/>
    <path id="Path_750" data-name="Path 750" d="M3096.428,1745.5h97.439a3.615,3.615,0,0,1,3.6,3.6v12.1a3.615,3.615,0,0,1-3.6,3.6h-97.439a3.615,3.615,0,0,1-3.608-3.6v-12.1a3.615,3.615,0,0,1,3.607-3.6Z" transform="translate(-2281.946 -1287.866)" fill="#dba21b" fill-rule="evenodd"/>
    <rect id="Rectangle_359" data-name="Rectangle 359" width="7.155" height="19.307" transform="translate(893.35 457.634)" fill="#c99024"/>
    <rect id="Rectangle_360" data-name="Rectangle 360" width="7.155" height="19.307" transform="translate(878.689 457.634)" fill="#c99024"/>
    <rect id="Rectangle_361" data-name="Rectangle 361" width="7.15" height="19.307" transform="translate(826.248 457.634)" fill="#eabc39"/>
    <path id="Path_751" data-name="Path 751" d="M3096.427,1745.5h97.565a3.129,3.129,0,0,1,.021.385v12.1a3.613,3.613,0,0,1-3.6,3.6h-97.567a3.644,3.644,0,0,1-.021-.383v-12.1A3.615,3.615,0,0,1,3096.427,1745.5Z" transform="translate(-2281.946 -1287.866)" fill="#f1cf51" fill-rule="evenodd"/>
    <rect id="Rectangle_362" data-name="Rectangle 362" width="7.155" height="16.087" transform="translate(893.35 457.634)" fill="#eabc39"/>
    <rect id="Rectangle_363" data-name="Rectangle 363" width="7.155" height="16.087" transform="translate(878.689 457.634)" fill="#eabc39"/>
    <rect id="Rectangle_364" data-name="Rectangle 364" width="7.15" height="16.087" transform="translate(826.248 457.634)" fill="#f7e191"/>
    <path id="Path_752" data-name="Path 752" d="M3349.925,2366.57h97.442a3.613,3.613,0,0,1,3.6,3.6v12.1a3.613,3.613,0,0,1-3.6,3.6h-97.442a3.615,3.615,0,0,1-3.6-3.6v-12.1A3.615,3.615,0,0,1,3349.925,2366.57Z" transform="translate(-2468.984 -1746.104)" fill="#dba21b" fill-rule="evenodd"/>
    <rect id="Rectangle_365" data-name="Rectangle 365" width="7.155" height="19.307" transform="translate(959.813 620.466)" fill="#c99024"/>
    <rect id="Rectangle_366" data-name="Rectangle 366" width="7.155" height="19.307" transform="translate(945.152 620.466)" fill="#c99024"/>
    <rect id="Rectangle_367" data-name="Rectangle 367" width="7.15" height="19.307" transform="translate(892.708 620.466)" fill="#eabc39"/>
    <path id="Path_753" data-name="Path 753" d="M3349.925,2366.57h97.565a3.08,3.08,0,0,1,.023.385v12.1a3.618,3.618,0,0,1-3.608,3.6h-97.567a3.709,3.709,0,0,1-.018-.383v-12.1A3.615,3.615,0,0,1,3349.925,2366.57Z" transform="translate(-2468.984 -1746.104)" fill="#f1cf51" fill-rule="evenodd"/>
    <rect id="Rectangle_368" data-name="Rectangle 368" width="7.155" height="16.09" transform="translate(959.813 620.466)" fill="#eabc39"/>
    <rect id="Rectangle_369" data-name="Rectangle 369" width="7.155" height="16.09" transform="translate(945.152 620.466)" fill="#eabc39"/>
    <rect id="Rectangle_370" data-name="Rectangle 370" width="7.15" height="16.09" transform="translate(892.708 620.466)" fill="#f7e191"/>
    <path id="Path_754" data-name="Path 754" d="M3370.667,2292.92h97.444a3.61,3.61,0,0,1,3.6,3.6v12.1a3.616,3.616,0,0,1-3.6,3.608h-97.444a3.623,3.623,0,0,1-3.607-3.608v-12.1A3.618,3.618,0,0,1,3370.667,2292.92Z" transform="translate(-2484.286 -1691.763)" fill="#dba21b" fill-rule="evenodd"/>
    <rect id="Rectangle_371" data-name="Rectangle 371" width="7.15" height="19.31" transform="translate(965.253 601.156)" fill="#c99024"/>
    <rect id="Rectangle_372" data-name="Rectangle 372" width="7.15" height="19.31" transform="translate(950.592 601.156)" fill="#c99024"/>
    <rect id="Rectangle_373" data-name="Rectangle 373" width="7.155" height="19.31" transform="translate(898.148 601.156)" fill="#eabc39"/>
    <path id="Path_755" data-name="Path 755" d="M3370.667,2292.92h97.578a3.579,3.579,0,0,1,.018.383v12.1a3.612,3.612,0,0,1-3.6,3.6h-97.581a3.64,3.64,0,0,1-.024-.383v-12.1A3.618,3.618,0,0,1,3370.667,2292.92Z" transform="translate(-2484.286 -1691.763)" fill="#f1cf51" fill-rule="evenodd"/>
    <rect id="Rectangle_374" data-name="Rectangle 374" width="7.15" height="16.093" transform="translate(965.253 601.156)" fill="#eabc39"/>
    <rect id="Rectangle_375" data-name="Rectangle 375" width="7.15" height="16.093" transform="translate(950.592 601.156)" fill="#eabc39"/>
    <rect id="Rectangle_376" data-name="Rectangle 376" width="7.155" height="16.093" transform="translate(898.148 601.156)" fill="#f7e191"/>
    <path id="Path_756" data-name="Path 756" d="M3339.542,2219.26h97.444a3.616,3.616,0,0,1,3.6,3.608v12.1a3.613,3.613,0,0,1-3.6,3.6h-97.444a3.613,3.613,0,0,1-3.6-3.6v-12.107A3.618,3.618,0,0,1,3339.542,2219.26Z" transform="translate(-2461.325 -1637.416)" fill="#dba21b" fill-rule="evenodd"/>
    <rect id="Rectangle_377" data-name="Rectangle 377" width="7.15" height="19.31" transform="translate(957.091 581.844)" fill="#c99024"/>
    <rect id="Rectangle_378" data-name="Rectangle 378" width="7.15" height="19.31" transform="translate(942.433 581.844)" fill="#c99024"/>
    <rect id="Rectangle_379" data-name="Rectangle 379" width="7.15" height="19.31" transform="translate(889.986 581.844)" fill="#eabc39"/>
    <path id="Path_757" data-name="Path 757" d="M3339.52,2219.26h97.567a2.713,2.713,0,0,1,.024.385v12.1a3.615,3.615,0,0,1-3.6,3.6h-97.575a3.59,3.59,0,0,1-.024-.38v-12.108A3.618,3.618,0,0,1,3339.52,2219.26Z" transform="translate(-2461.303 -1637.416)" fill="#f1cf51" fill-rule="evenodd"/>
    <rect id="Rectangle_380" data-name="Rectangle 380" width="7.15" height="16.093" transform="translate(957.091 581.844)" fill="#eabc39"/>
    <rect id="Rectangle_381" data-name="Rectangle 381" width="7.15" height="16.093" transform="translate(942.433 581.844)" fill="#eabc39"/>
    <rect id="Rectangle_382" data-name="Rectangle 382" width="7.15" height="16.093" transform="translate(889.986 581.844)" fill="#f7e191"/>
    <path id="Path_758" data-name="Path 758" d="M3349.925,2145.62h97.442a3.616,3.616,0,0,1,3.6,3.6v12.1a3.613,3.613,0,0,1-3.6,3.6h-97.442a3.615,3.615,0,0,1-3.6-3.6v-12.1A3.615,3.615,0,0,1,3349.925,2145.62Z" transform="translate(-2468.984 -1583.083)" fill="#dba21b" fill-rule="evenodd"/>
    <rect id="Rectangle_383" data-name="Rectangle 383" width="7.155" height="19.307" transform="translate(959.813 562.537)" fill="#c99024"/>
    <rect id="Rectangle_384" data-name="Rectangle 384" width="7.155" height="19.307" transform="translate(945.152 562.537)" fill="#c99024"/>
    <rect id="Rectangle_385" data-name="Rectangle 385" width="7.15" height="19.307" transform="translate(892.708 562.537)" fill="#eabc39"/>
    <path id="Path_759" data-name="Path 759" d="M3349.925,2145.62h97.565a3.087,3.087,0,0,1,.023.383v12.1a3.616,3.616,0,0,1-3.608,3.6h-97.567a3.711,3.711,0,0,1-.018-.383v-12.1A3.615,3.615,0,0,1,3349.925,2145.62Z" transform="translate(-2468.984 -1583.083)" fill="#f1cf51" fill-rule="evenodd"/>
    <rect id="Rectangle_386" data-name="Rectangle 386" width="7.155" height="16.09" transform="translate(959.813 562.537)" fill="#eabc39"/>
    <rect id="Rectangle_387" data-name="Rectangle 387" width="7.155" height="16.09" transform="translate(945.152 562.537)" fill="#eabc39"/>
    <rect id="Rectangle_388" data-name="Rectangle 388" width="7.15" height="16.09" transform="translate(892.708 562.537)" fill="#f7e191"/>
    <path id="Path_760" data-name="Path 760" d="M3310.138,2072h97.439a3.615,3.615,0,0,1,3.607,3.6v12.1a3.615,3.615,0,0,1-3.607,3.6h-97.439a3.615,3.615,0,0,1-3.608-3.6v-12.1A3.615,3.615,0,0,1,3310.138,2072Z" transform="translate(-2439.626 -1528.764)" fill="#dba21b" fill-rule="evenodd"/>
    <rect id="Rectangle_389" data-name="Rectangle 389" width="7.157" height="19.307" transform="translate(949.38 543.23)" fill="#c99024"/>
    <rect id="Rectangle_390" data-name="Rectangle 390" width="7.15" height="19.307" transform="translate(934.725 543.23)" fill="#c99024"/>
    <rect id="Rectangle_391" data-name="Rectangle 391" width="7.147" height="19.307" transform="translate(882.281 543.23)" fill="#eabc39"/>
    <path id="Path_761" data-name="Path 761" d="M3310.138,2072h97.567a3.6,3.6,0,0,1,.024.38v12.1a3.618,3.618,0,0,1-3.608,3.6h-97.567a3.707,3.707,0,0,1-.024-.383v-12.1A3.615,3.615,0,0,1,3310.138,2072Z" transform="translate(-2439.626 -1528.764)" fill="#f1cf51" fill-rule="evenodd"/>
    <rect id="Rectangle_392" data-name="Rectangle 392" width="7.157" height="16.09" transform="translate(949.38 543.23)" fill="#eabc39"/>
    <rect id="Rectangle_393" data-name="Rectangle 393" width="7.15" height="16.09" transform="translate(934.725 543.23)" fill="#eabc39"/>
    <rect id="Rectangle_394" data-name="Rectangle 394" width="7.147" height="16.09" transform="translate(882.281 543.23)" fill="#f7e191"/>
    <path id="Path_762" data-name="Path 762" d="M1984,2421.379h97.439a3.616,3.616,0,0,1,3.6,3.6v12.1a3.615,3.615,0,0,1-3.6,3.6H1984a3.616,3.616,0,0,1-3.608-3.6v-12.1A3.616,3.616,0,0,1,1984,2421.379Z" transform="translate(-1461.172 -1786.544)" fill="#dba21b" fill-rule="evenodd"/>
    <rect id="Rectangle_395" data-name="Rectangle 395" width="7.155" height="19.307" transform="translate(601.694 634.836)" fill="#c99024"/>
    <rect id="Rectangle_396" data-name="Rectangle 396" width="7.155" height="19.307" transform="translate(587.033 634.836)" fill="#c99024"/>
    <rect id="Rectangle_397" data-name="Rectangle 397" width="7.15" height="19.307" transform="translate(534.592 634.836)" fill="#eabc39"/>
    <path id="Path_763" data-name="Path 763" d="M1984,2421.38h97.565a3.135,3.135,0,0,1,.021.383v12.1a3.616,3.616,0,0,1-3.6,3.6h-97.568a3.748,3.748,0,0,1-.021-.383v-12.1A3.615,3.615,0,0,1,1984,2421.38Z" transform="translate(-1461.172 -1786.544)" fill="#f1cf51" fill-rule="evenodd"/>
    <rect id="Rectangle_398" data-name="Rectangle 398" width="7.155" height="16.09" transform="translate(601.694 634.836)" fill="#eabc39"/>
    <rect id="Rectangle_399" data-name="Rectangle 399" width="7.155" height="16.09" transform="translate(587.033 634.836)" fill="#eabc39"/>
    <rect id="Rectangle_400" data-name="Rectangle 400" width="7.15" height="16.09" transform="translate(534.592 634.836)" fill="#f7e191"/>
    <path id="Path_764" data-name="Path 764" d="M2004.745,2347.73h97.444a3.61,3.61,0,0,1,3.6,3.6v12.1a3.613,3.613,0,0,1-3.6,3.608h-97.444a3.618,3.618,0,0,1-3.6-3.608v-12.1A3.615,3.615,0,0,1,2004.745,2347.73Z" transform="translate(-1476.482 -1732.203)" fill="#dba21b" fill-rule="evenodd"/>
    <rect id="Rectangle_401" data-name="Rectangle 401" width="7.15" height="19.31" transform="translate(607.137 615.526)" fill="#c99024"/>
    <rect id="Rectangle_402" data-name="Rectangle 402" width="7.15" height="19.31" transform="translate(592.476 615.526)" fill="#c99024"/>
    <rect id="Rectangle_403" data-name="Rectangle 403" width="7.155" height="19.31" transform="translate(540.029 615.526)" fill="#eabc39"/>
    <path id="Path_765" data-name="Path 765" d="M2004.745,2347.73h97.56a3.646,3.646,0,0,1,.021.383v12.1a3.613,3.613,0,0,1-3.6,3.6h-97.562a3.518,3.518,0,0,1-.024-.383v-12.1A3.615,3.615,0,0,1,2004.745,2347.73Z" transform="translate(-1476.482 -1732.203)" fill="#f1cf51" fill-rule="evenodd"/>
    <rect id="Rectangle_404" data-name="Rectangle 404" width="7.15" height="16.093" transform="translate(607.137 615.526)" fill="#eabc39"/>
    <rect id="Rectangle_405" data-name="Rectangle 405" width="7.15" height="16.093" transform="translate(592.476 615.526)" fill="#eabc39"/>
    <rect id="Rectangle_406" data-name="Rectangle 406" width="7.155" height="16.093" transform="translate(540.029 615.526)" fill="#f7e191"/>
    <path id="Path_766" data-name="Path 766" d="M1973.607,2274.08h97.442a3.616,3.616,0,0,1,3.6,3.6v12.1a3.613,3.613,0,0,1-3.6,3.6h-97.442a3.615,3.615,0,0,1-3.608-3.6v-12.1A3.621,3.621,0,0,1,1973.607,2274.08Z" transform="translate(-1453.506 -1677.863)" fill="#dba21b" fill-rule="evenodd"/>
    <rect id="Rectangle_407" data-name="Rectangle 407" width="7.15" height="19.31" transform="translate(598.972 596.217)" fill="#c99024"/>
    <rect id="Rectangle_408" data-name="Rectangle 408" width="7.15" height="19.31" transform="translate(584.317 596.217)" fill="#c99024"/>
    <rect id="Rectangle_409" data-name="Rectangle 409" width="7.15" height="19.31" transform="translate(531.87 596.217)" fill="#eabc39"/>
    <path id="Path_767" data-name="Path 767" d="M1973.615,2274.08h97.567a3.179,3.179,0,0,1,.024.385v12.1a3.615,3.615,0,0,1-3.6,3.6h-97.568a3.656,3.656,0,0,1-.024-.38v-12.1A3.621,3.621,0,0,1,1973.615,2274.08Z" transform="translate(-1453.514 -1677.863)" fill="#f1cf51" fill-rule="evenodd"/>
    <rect id="Rectangle_410" data-name="Rectangle 410" width="7.15" height="16.093" transform="translate(598.972 596.217)" fill="#eabc39"/>
    <rect id="Rectangle_411" data-name="Rectangle 411" width="7.15" height="16.093" transform="translate(584.317 596.217)" fill="#eabc39"/>
    <rect id="Rectangle_412" data-name="Rectangle 412" width="7.15" height="16.093" transform="translate(531.87 596.217)" fill="#f7e191"/>
    <path id="Path_768" data-name="Path 768" d="M1984,2200.44h97.439a3.616,3.616,0,0,1,3.6,3.6v12.1a3.618,3.618,0,0,1-3.6,3.6H1984a3.618,3.618,0,0,1-3.608-3.6v-12.1A3.616,3.616,0,0,1,1984,2200.44Z" transform="translate(-1461.172 -1623.53)" fill="#dba21b" fill-rule="evenodd"/>
    <rect id="Rectangle_413" data-name="Rectangle 413" width="7.155" height="19.307" transform="translate(601.694 576.91)" fill="#c99024"/>
    <rect id="Rectangle_414" data-name="Rectangle 414" width="7.155" height="19.307" transform="translate(587.033 576.91)" fill="#c99024"/>
    <rect id="Rectangle_415" data-name="Rectangle 415" width="7.15" height="19.307" transform="translate(534.592 576.91)" fill="#eabc39"/>
    <path id="Path_769" data-name="Path 769" d="M1984,2200.44h97.565a3.132,3.132,0,0,1,.021.383v12.1a3.616,3.616,0,0,1-3.6,3.6h-97.568a3.7,3.7,0,0,1-.021-.385v-12.1A3.616,3.616,0,0,1,1984,2200.44Z" transform="translate(-1461.172 -1623.53)" fill="#f1cf51" fill-rule="evenodd"/>
    <rect id="Rectangle_416" data-name="Rectangle 416" width="7.155" height="16.09" transform="translate(601.694 576.91)" fill="#eabc39"/>
    <rect id="Rectangle_417" data-name="Rectangle 417" width="7.155" height="16.09" transform="translate(587.033 576.91)" fill="#eabc39"/>
    <rect id="Rectangle_418" data-name="Rectangle 418" width="7.15" height="16.09" transform="translate(534.592 576.91)" fill="#f7e191"/>
    <path id="Path_770" data-name="Path 770" d="M1944.218,2126.79h97.434a3.618,3.618,0,0,1,3.607,3.6v12.1a3.618,3.618,0,0,1-3.608,3.6h-97.434a3.618,3.618,0,0,1-3.608-3.6v-12.1A3.615,3.615,0,0,1,1944.218,2126.79Z" transform="translate(-1431.822 -1569.189)" fill="#dba21b" fill-rule="evenodd"/>
    <rect id="Rectangle_419" data-name="Rectangle 419" width="7.157" height="19.307" transform="translate(591.264 557.601)" fill="#c99024"/>
    <rect id="Rectangle_420" data-name="Rectangle 420" width="7.15" height="19.307" transform="translate(576.606 557.601)" fill="#c99024"/>
    <rect id="Rectangle_421" data-name="Rectangle 421" width="7.147" height="19.307" transform="translate(524.165 557.601)" fill="#eabc39"/>
    <path id="Path_771" data-name="Path 771" d="M1944.218,2126.79h97.568a3.713,3.713,0,0,1,.021.383v12.1a3.616,3.616,0,0,1-3.6,3.6h-97.568a3.808,3.808,0,0,1-.024-.385v-12.1A3.615,3.615,0,0,1,1944.218,2126.79Z" transform="translate(-1431.822 -1569.189)" fill="#f1cf51" fill-rule="evenodd"/>
    <rect id="Rectangle_422" data-name="Rectangle 422" width="7.157" height="16.09" transform="translate(591.264 557.601)" fill="#eabc39"/>
    <rect id="Rectangle_423" data-name="Rectangle 423" width="7.15" height="16.09" transform="translate(576.606 557.601)" fill="#eabc39"/>
    <rect id="Rectangle_424" data-name="Rectangle 424" width="7.147" height="16.09" transform="translate(524.165 557.601)" fill="#f7e191"/>
    <path id="Path_772" data-name="Path 772" d="M1428.069,2403.02c-22.285-2.1-39.518,2.52-36.574-8.408a55.354,55.354,0,0,0,1.348-11.586c.4-11.355-.648-27.018-2.076-41.094-.3-2.992-.624-5.907-.952-8.7-2.522-21.441,33.627-22.7,29,0-.126.616-1.751,5.262-3.3,11.557-2.569,10.487-4.905,25.591.354,34.264a48.219,48.219,0,0,0,8.156,9.488C1433.984,2397.949,1445.022,2404.625,1428.069,2403.02Z" transform="translate(-1025.341 -1709.293)" fill="#ff8b65"/>
    <path id="Path_773" data-name="Path 773" d="M1050.829,2262.69A162.919,162.919,0,0,0,1036.1,2273.7c-7.43,6.4-15.088,14.781-16.148,22.98a41.553,41.553,0,0,0,.068,9.331c1.521,14.7,7.729,29.742-5.477,17-16.106-15.539-32.466-22.671-23.334-29.38a45.851,45.851,0,0,0,6.245-5.912c5.81-6.389,12.847-15.993,19.538-25.882,3.956-5.842,7.789-11.8,11.174-17.236C1039.556,2226.271,1068.605,2247.828,1050.829,2262.69Z" transform="translate(-729.397 -1650.919)" fill="#ff8b65"/>
    <path id="Path_774" data-name="Path 774" d="M1432.23,2589.734c-22.285-2.1-39.518,2.52-36.574-8.408A55.352,55.352,0,0,0,1397,2569.74c6.418,3.545,18.29,8.786,31.2,5.519C1438.145,2584.663,1449.182,2591.338,1432.23,2589.734Z" transform="translate(-1029.501 -1896.007)" fill="#24293f"/>
    <path id="Path_775" data-name="Path 775" d="M1014.564,2464.172c-16.106-15.539-32.466-22.671-23.334-29.38a45.851,45.851,0,0,0,6.245-5.912c4.586,6.243,13.7,17.057,22.579,18.29C1021.561,2461.87,1027.772,2476.911,1014.564,2464.172Z" transform="translate(-729.412 -1792.078)" fill="#24293f"/>
    <path id="Path_776" data-name="Path 776" d="M1130.74,2262.69a162.919,162.919,0,0,0-14.729,11.012c-11.845-2.04-16.981-7.983-19.121-11.861,3.956-5.842,7.789-11.8,11.174-17.236C1119.466,2226.271,1148.516,2247.828,1130.74,2262.69Z" transform="translate(-809.308 -1650.919)" fill="#ef613a"/>
    <path id="Path_777" data-name="Path 777" d="M1418.82,2333.266c-.126.616-1.751,5.262-3.3,11.557-15.445,1.969-22.34-1.222-24.758-2.86-.3-2.991-.624-5.907-.952-8.7C1387.292,2311.824,1423.442,2310.563,1418.82,2333.266Z" transform="translate(-1025.341 -1709.315)" fill="#ef613a"/>
    <path id="Path_778" data-name="Path 778" d="M1699.6,1125.477l-91.81,100.48a1.528,1.528,0,0,1-2.147.115l-3.408-3.057-6.075-5.456a1.523,1.523,0,0,1-.115-2.15l91.411-100.045.4-.435a1.529,1.529,0,0,1,2.147-.115l9.483,8.516A1.523,1.523,0,0,1,1699.6,1125.477Z" transform="translate(-1177.307 -822.248)" fill="#333" fill-rule="evenodd"/>
    <path id="Path_779" data-name="Path 779" d="M1693.658,1125.6l-91.414,100.048-6.075-5.456a1.523,1.523,0,0,1-.115-2.15L1687.463,1118l6.083,5.453A1.523,1.523,0,0,1,1693.658,1125.6Z" transform="translate(-1177.314 -824.883)" fill="#575756" fill-rule="evenodd"/>
    <path id="Path_780" data-name="Path 780" d="M1421.344,1472.836l-70.747,78.693a2.658,2.658,0,0,1-3.746.2l-16.538-14.85a2.622,2.622,0,0,1-.786-1.282,2.656,2.656,0,0,1,.582-2.47l70.741-78.69a2.664,2.664,0,0,1,3.749-.2l12.674,11.384,3.867,3.471A2.661,2.661,0,0,1,1421.344,1472.836Z" transform="translate(-980.882 -1072.464)" fill="#8c8c8c" fill-rule="evenodd"/>
    <path id="Path_781" data-name="Path 781" d="M1416.7,1468.075l-70.741,78.7a2.669,2.669,0,0,1-3.752.2l-12.666-11.376a2.656,2.656,0,0,1,.582-2.47l70.741-78.691a2.664,2.664,0,0,1,3.749-.2l12.674,11.384A2.65,2.65,0,0,1,1416.7,1468.075Z" transform="translate(-980.897 -1072.464)" fill="#aaa" fill-rule="evenodd"/>
    <path id="Path_782" data-name="Path 782" d="M1907.7,678.019a107.1,107.1,0,1,1-84.736-113.432A107.168,107.168,0,0,1,1907.7,678.019Z" transform="translate(-1249.628 -414.867)" fill="#8c8c8c" fill-rule="evenodd"/>
    <path id="Path_783" data-name="Path 783" d="M1915.654,675.783a97.881,97.881,0,1,1-75.94-111.2A107.173,107.173,0,0,1,1915.654,675.783Z" transform="translate(-1261.989 -414.867)" fill="#aaa" fill-rule="evenodd"/>
    <circle id="Ellipse_190" data-name="Ellipse 190" cx="91.071" cy="91.071" r="91.071" transform="translate(422.434 254.606) rotate(-45)" fill="#e8e8e8"/>
    <path id="Path_784" data-name="Path 784" d="M1077.933,1797.117s-5.115-7.032-30.054-.637c-.511.131-1.033.246-1.573.354-24.28,4.772-69.716-17.655-80.292-31.682a15.3,15.3,0,0,1-1.261-1.922c-7.671-14.066-36.443-14.708-36.443-14.708s70.335-75.445,72.886-123.4c.863-16.153,9.05-27.791,19.926-34.694,11.536-7.315,26.118-9.258,38.158-5.506,10.285,3.209,18.72,10.571,21.845,22.285C1081.121,1607.218,1101.582,1686.5,1077.933,1797.117Z" transform="translate(-684.926 -1168.01)" fill="#263437"/>
    <path id="Path_785" data-name="Path 785" d="M1010.076,1728.906s44.922-17.886,51.94-11.274-9.538,27.317-32.725,27.24,56.156,29.133,21.454,35.394c-30.937,5.584-68.8-3.933-84.742-15.165a15.3,15.3,0,0,1-1.261-1.922c-7.671-14.066-36.443-14.708-36.443-14.708s70.335-75.445,72.886-123.4c.863-16.153,9.05-27.791,19.926-34.694,11.536-7.315,26.118-9.258,38.158-5.506,7.939,21.8,29.548,87.99,7.645,108.9C1040.555,1718.969,1006.1,1717.643,1010.076,1728.906Z" transform="translate(-684.919 -1167.973)" fill="#394a52"/>
    <ellipse id="Ellipse_191" data-name="Ellipse 191" cx="23.329" cy="30.827" rx="23.329" ry="30.827" transform="translate(333.625 282.456) rotate(-16.59)" fill="#ff8b65"/>
    <path id="Path_786" data-name="Path 786" d="M1505.315,1296.1s-34.671,41.983-78.195,29.32a66.679,66.679,0,0,1-13.51-5.655c-24.556-13.494-30.882-24.6-31.005-32.384h0c-.123-7.944,6.219-12.417,6.219-12.417s6.893-4.774,45.071,20.148q1.911,1.243,3.762,2.278c35.877,20.041,56.688-17.125,56.688-17.125s4.772-27.041,6.363-6.893c0,0,12.823-7.837,18.41-1.261a16.032,16.032,0,0,1,1.148,1.507C1524.46,1279.831,1522.331,1286.985,1505.315,1296.1Z" transform="translate(-1020.113 -934.016)" fill="#ff6c45"/>
    <path id="Path_787" data-name="Path 787" d="M1520.268,1273.617c-1.2,4.7-6.03,9.931-16.494,15.967,0,0-34.671,45.226-78.2,31.582a64.165,64.165,0,0,1-13.51-6.09c-18.214-10.783-26.4-20.154-29.464-27.694h0c-.123-7.944,6.219-12.417,6.219-12.417s6.893-4.774,45.071,20.148q1.911,1.243,3.762,2.278c35.877,20.041,56.688-17.125,56.688-17.125s4.772-27.041,6.363-6.893c0,0,12.823-7.837,18.41-1.261A16.019,16.019,0,0,1,1520.268,1273.617Z" transform="translate(-1020.113 -934.016)" fill="#ff8b65"/>
    <path id="Path_788" data-name="Path 788" d="M1427.125,1349.858a66.671,66.671,0,0,1-13.51-5.655c-49.633-27.267-24.786-44.8-24.786-44.8s6.893-4.774,45.071,20.148q1.911,1.243,3.762,2.278C1438.721,1328.632,1437.942,1339.366,1427.125,1349.858Z" transform="translate(-1020.117 -958.453)" fill="#263437"/>
    <rect id="Rectangle_425" data-name="Rectangle 425" width="24.737" height="18.471" rx="9.235" transform="matrix(0.677, -0.736, 0.736, 0.677, 414.036, 417.261)" fill="#ff8b65"/>
    <path id="Path_789" data-name="Path 789" d="M1230.635,1184.138c-3.324,11.536-9.457,23.035-19.926,28.934-6.214,3.5-13.455,4.743-20.578,5.1a92.252,92.252,0,0,1-51.626-12.936,70.167,70.167,0,0,1-8.206-5.7,43.753,43.753,0,0,1-10.773-12.391c-4.329-7.708-5.542-17.524-1.573-25.431,3.052-6.067,8.807-10.534,11.394-16.811a19.228,19.228,0,0,0-1.371-17.123c-2.847-4.635-7.65-7.983-9.785-12.991-2.976-6.987.183-15.246,5.183-20.974s11.628-9.729,17.3-14.774,10.65-11.83,10.466-19.42c-.136-5.768-3.209-11.027-4.523-16.648a27.661,27.661,0,0,1,39.959-30.7c.4.215.8.443,1.2.671a29.833,29.833,0,0,0,6.416,3.222c2.3.666,4.719.627,6.987,1.258s4.572,2.231,4.9,4.58l.406.121c3.574,1.311,3.529,6.8.991,9.64s-6.418,3.969-9.779,5.768c-1.835.975-3.718,2.443-3.933,4.512-.338,3.466,4.038,5.529,5.047,8.862,1.788,5.912-7.393,9.8-8.025,15.941-.645,6.292,7.5,9.7,9.889,15.531,1.592,3.883.409,8.277.566,12.469.246,6.6,3.851,12.627,8.128,17.653s9.331,9.381,13.371,14.614C1234.9,1142.91,1236.146,1165.009,1230.635,1184.138Z" transform="translate(-823.069 -744.56)" fill="#131314"/>
    <path id="Path_790" data-name="Path 790" d="M1209.361,1171.975c-3.324,11.536-9.457,23.032-19.926,28.932-6.211,3.5-13.455,4.743-20.576,5.092a92.22,92.22,0,0,1-38.54-6.463,43.753,43.753,0,0,1-10.773-12.391c-4.329-7.708-5.542-17.524-1.573-25.431,3.052-6.067,8.807-10.534,11.394-16.811A19.228,19.228,0,0,0,1128,1127.78c-2.847-4.635-7.65-7.983-9.785-12.991-2.976-6.987.183-15.246,5.183-20.974s11.628-9.729,17.3-14.774,10.65-11.83,10.466-19.42c-.136-5.768-3.209-11.027-4.523-16.648a27.661,27.661,0,0,1,39.959-30.7c.4.215.8.443,1.2.671a7.549,7.549,0,0,1-1.594,6.657c-2.535,2.839-6.413,3.967-9.777,5.768-1.835.975-3.72,2.444-3.933,4.512-.333,3.463,4.038,5.529,5.047,8.862,1.791,5.912-7.393,9.8-8.025,15.941-.645,6.279,7.5,9.7,9.892,15.531,1.589,3.883.409,8.277.566,12.467.244,6.6,3.851,12.629,8.128,17.655s9.334,9.381,13.371,14.614C1213.621,1130.75,1214.869,1152.844,1209.361,1171.975Z" transform="translate(-823.084 -744.56)" fill="#212223"/>
    <circle id="Ellipse_192" data-name="Ellipse 192" cx="8.55" cy="8.55" r="8.55" transform="translate(360.001 302.151)" fill="#ff8b65"/>
    <path id="Path_791" data-name="Path 791" d="M1396.139,1169.634a6.707,6.707,0,0,0-4.276-2.908c-.627-.108-.894.847-.262.957a5.74,5.74,0,0,1,3.752,2.554,7.392,7.392,0,0,1,.488.878,14.3,14.3,0,0,0-4.819.262.5.5,0,0,0,.262.957,14.058,14.058,0,0,1,4.981-.207,11.475,11.475,0,0,1,.524,3.125c.021.637,1.012.64.991,0A10.855,10.855,0,0,0,1396.139,1169.634Z" transform="translate(-1026.065 -860.828)" fill="#141111"/>
    <ellipse id="Ellipse_193" data-name="Ellipse 193" cx="5.178" cy="2.019" rx="5.178" ry="2.019" transform="translate(376.503 298.212) rotate(-30)" fill="#352a28"/>
    <ellipse id="Ellipse_194" data-name="Ellipse 194" cx="1.523" cy="3.018" rx="1.523" ry="3.018" transform="translate(382.705 300.789) rotate(-12.84)" fill="#352a28"/>
    <ellipse id="Ellipse_195" data-name="Ellipse 195" cx="5.445" cy="2.281" rx="5.445" ry="2.281" transform="translate(375.424 314.223) rotate(-12.84)" fill="#e85449"/>
    <path id="Path_792" data-name="Path 792" d="M1956.008,746.267a80.734,80.734,0,0,1-161.468,0v-.482a80.733,80.733,0,0,1,161.463.482Z" transform="translate(-1324.049 -491.041)" fill="#dba21b" fill-rule="evenodd"/>
    <path id="Path_793" data-name="Path 793" d="M1907.629,847.873a69.236,69.236,0,1,0-69.239-69.236A69.236,69.236,0,0,0,1907.629,847.873Z" transform="translate(-1356.402 -523.41)" fill="#ffe948" fill-rule="evenodd"/>
    <path id="Path_794" data-name="Path 794" d="M2005.869,868.952a72.809,72.809,0,0,1-25.9-6.03V842.529a88.923,88.923,0,0,0,15.469,6.03,53.6,53.6,0,0,0,14.653,2.425c3.476,0,6.03-.417,7.642-1.256a4.369,4.369,0,0,0,2.43-4.195,4.289,4.289,0,0,0-1.759-3.435,26.549,26.549,0,0,0-5.823-3.183c-2.721-1.177-6.405-2.622-11.011-4.292a50.184,50.184,0,0,1-12.585-6.468,22.824,22.824,0,0,1-6.969-8.041,24.911,24.911,0,0,1-2.179-11.077q0-10.11,6.513-15.807t19.511-7.053V777.75h12.689v8.3a71.393,71.393,0,0,1,24.6,6l-7.286,17.461q-12.847-5.75-23.137-5.755-4.895,0-6.908,1.19a3.885,3.885,0,0,0-1.99,3.542,4.31,4.31,0,0,0,1.447,3.327,20.229,20.229,0,0,0,5,2.952c2.381,1.085,5.653,2.344,9.861,3.768q12.847,4.551,18.405,10.343t5.59,14.944q0,10.338-6.534,16.779t-19.05,7.975v11.8h-12.689Z" transform="translate(-1460.767 -573.84)" fill="#e29b0e" fill-rule="evenodd"/>
    <path id="Path_795" data-name="Path 795" d="M3012.945,2448.271c-2.045,6.481-6.7,11.816-11.735,16.381-5.144,4.667-10.828,8.759-15.51,13.9a2.066,2.066,0,0,0-.44.721c-.346,1.02.38,1.5,1.049,1.867a25.457,25.457,0,0,0,19.808,1.819c2.913-.952,5.626-2.425,8.489-3.521,4.51-1.733,9.328-2.506,13.935-3.967a3.3,3.3,0,0,0,1.791-1.049,2.9,2.9,0,0,0,.409-1.89c-.126-3.335-1.7-6.421-3.24-9.381q-3.387-6.518-6.777-13.03a2.917,2.917,0,0,0-3.2-2.069l-5.026-.128" transform="translate(-2202.52 -1806.126)" fill="#252930"/>
    <path id="Path_796" data-name="Path 796" d="M2932.049,1584.283c-1.964,16.205-38.4,81.179-38.4,81.179,20.762,12.43,31.241,125.82,31.241,125.82-6.148,7.469-15.865,6.164-15.865,6.164s-44.946-102.976-53.222-125.87c-5.375-14.842,7.8-58.45,18.554-87.893,5.831-15.964,10.946-27.765,12.008-28.562,7.656-5.744,17.057-4.588,25.347-.1C2923.6,1561.447,2933.208,1574.732,2932.049,1584.283Z" transform="translate(-2106.158 -1144.524)" fill="#363a43"/>
    <path id="Path_797" data-name="Path 797" d="M3061.515,2502.279c-2.543,6.292-7.6,11.26-12.973,15.419-5.493,4.25-11.478,7.889-16.546,12.645a2.083,2.083,0,0,0-.5.682c-.425.991.262,1.534.9,1.945a25.463,25.463,0,0,0,19.6,3.354c2.981-.721,5.8-1.979,8.739-2.85,4.633-1.374,9.5-1.772,14.2-2.884a3.347,3.347,0,0,0,1.867-.9,2.9,2.9,0,0,0,.553-1.854c.136-3.335-1.193-6.533-2.5-9.606q-2.884-6.756-5.744-13.515a2.921,2.921,0,0,0-3.026-2.312l-5-.524" transform="translate(-2236.606 -1845.939)" fill="#363a43"/>
    <path id="Path_798" data-name="Path 798" d="M2974.993,1610c-1.311,1.311-4.53,11.035-4.787,11.468l-2.451.663s-5.828-29.477-37.754-38.446c5.831-15.964,10.946-27.765,12.008-28.562,7.656-5.744,17.058-4.588,25.348-.1,2.179,13.371,6.533,40.58,7.538,50.907C2975.134,1608.32,2975.187,1609.8,2974.993,1610Z" transform="translate(-2161.814 -1144.524)" fill="#4d5562"/>
    <path id="Path_799" data-name="Path 799" d="M3093.247,1828.535s-3.3,3.075-7.506,2.729a8.784,8.784,0,0,1-5.01-2.189,15.854,15.854,0,0,1-2.913-3.372l-14-128.623-4.305-114.266a19.177,19.177,0,0,1,4.772-3.332,26.246,26.246,0,0,1,7.27-2.457c7.653-1.392,18.845-.084,33.3,10.453,0,0,5.907,49.688-3.338,107.617C3101.5,1695.1,3118.3,1732.03,3093.247,1828.535Z" transform="translate(-2257.369 -1163.224)" fill="#363a43"/>
    <path id="Path_800" data-name="Path 800" d="M3080.731,1830.369a15.854,15.854,0,0,1-2.913-3.372l-14-128.623-4.305-114.266a19.177,19.177,0,0,1,4.772-3.332,26.246,26.246,0,0,1,7.27-2.457c6.709,1.479,13.667,6.793,19.215,19.635,0,0,10.75,75.264,0,105.236s-2.373,17.251,4.782,12.514C3095.557,1715.7,3113.524,1776.688,3080.731,1830.369Z" transform="translate(-2257.369 -1164.517)" fill="#4d5562"/>
    <path id="Path_801" data-name="Path 801" d="M3054.359,804.172c-4.376-4.116-10.451-8.455-16.4-9.289-6.185-.868-13.232.87-18.977-1.573-3.726-1.589-8.277-2.255-11.08-5.183a10.551,10.551,0,0,0-3.052-2.522,7.664,7.664,0,0,0-3.812-.524,14.28,14.28,0,0,0-9.016,3.783,10.594,10.594,0,0,0-3.212,9.053,15.982,15.982,0,0,0,1.649,4.51,51.617,51.617,0,0,0,5.957,9.176l.013.042c1.015,1.408,2.522,2.7,3.552,4.1a257.189,257.189,0,0,0,21.591,25.6,39.845,39.845,0,0,0,8.324,7.079,21.857,21.857,0,0,0,24.183-1.935,11.868,11.868,0,0,0,3.948-5.259c1.172-3.555-.207-7.407-.173-11.153.026-2.884.9-5.708,1.072-8.592C3059.3,815.48,3058.735,808.291,3054.359,804.172Z" transform="translate(-2205.121 -579.222)" fill="#212223"/>
    <path id="Path_802" data-name="Path 802" d="M3025.706,908.905c-1.185,9.509-11.494,6.935-11.494,6.935-3.17,4.559-.988,25.563-.988,25.563l-22.789,2.774,1.342-5.22,2.024-7.865s-10.1,8.72-22.789-4.753,9.315-55.488,9.315-55.488c5.149,10.3,20.015,1.573,19.616,15.06s14.071,15.655,15.657,15.256S3026.9,899.391,3025.706,908.905Z" transform="translate(-2189.167 -642.531)" fill="#ff8b65"/>
    <path id="Path_803" data-name="Path 803" d="M3061.3,1068.979l2.024-7.865s7.118-2.082,14.944-12.008C3085.08,1040.483,3073.9,1061.717,3061.3,1068.979Z" transform="translate(-2258.69 -772.557)" fill="#ed633e"/>
    <ellipse id="Ellipse_196" data-name="Ellipse 196" cx="1.875" cy="4.688" rx="1.875" ry="4.688" transform="matrix(0.392, -0.92, 0.92, 0.392, 801.379, 249.086)" fill="#353638"/>
    <ellipse id="Ellipse_197" data-name="Ellipse 197" cx="1.875" cy="4.688" rx="1.875" ry="4.688" transform="translate(783.968 243.159) rotate(-77)" fill="#353638"/>
    <ellipse id="Ellipse_198" data-name="Ellipse 198" cx="3.293" cy="1.269" rx="3.293" ry="1.269" transform="matrix(0.341, -0.94, 0.94, 0.341, 800.783, 257.895)" fill="#353638"/>
    <ellipse id="Ellipse_199" data-name="Ellipse 199" cx="3.293" cy="1.269" rx="3.293" ry="1.269" transform="matrix(0.341, -0.94, 0.94, 0.341, 784.469, 251.517)" fill="#353638"/>
    <path id="Path_804" data-name="Path 804" d="M2995.252,952.558a8.716,8.716,0,0,1-2.061,3.718,9.9,9.9,0,0,1-3.831,2.423c-.76.281-1.542.511-2.325.729a21.953,21.953,0,0,0-2.116.616,2.5,2.5,0,0,0-1.418,1.127,2.148,2.148,0,0,0,.286,2.1c.9,1.434,2.252,2.923,4.108,2.622.627-.1.362-1.049-.262-.957a2.227,2.227,0,0,1-1.869-.75,6.456,6.456,0,0,1-1.29-1.717c-.695-1.426,1.5-1.72,2.412-1.969,2.687-.739,5.385-1.633,7.268-3.809a9.826,9.826,0,0,0,2.058-3.867.5.5,0,0,0-.957-.262Z" transform="translate(-2201.166 -702.557)"/>
    <path id="Path_805" data-name="Path 805" d="M2986.72,1022.362c.461.231,9.087,2.184,13.8.231s-.115,5.634-6.439,5.06S2986.72,1022.362,2986.72,1022.362Z" transform="translate(-2203.664 -754.252)" fill="#f9f9f9"/>
    <ellipse id="Ellipse_200" data-name="Ellipse 200" cx="3.17" cy="7.097" rx="3.17" ry="7.097" transform="translate(801.282 265.816) rotate(-74.5)" fill="#ed615d"/>
    <ellipse id="Ellipse_201" data-name="Ellipse 201" cx="2.792" cy="4.557" rx="2.792" ry="4.557" transform="translate(775.834 255.447) rotate(-74.5)" fill="#ed615d"/>
    <path id="Path_806" data-name="Path 806" d="M3011.28,1038.9s5.259.443,7.776-2.517S3017.5,1045.417,3011.28,1038.9Z" transform="translate(-2221.784 -764.311)" fill="#e85449"/>
    <path id="Path_807" data-name="Path 807" d="M3161.876,995.523a.5.5,0,0,0,0-.994,4.556,4.556,0,0,0-4.3,3.482c-.5,1.861-.427,4.195.928,5.687.43.472,1.127-.231.7-.7a4.533,4.533,0,0,1-.889-3.508.554.554,0,0,0,.087-.073,3.249,3.249,0,0,1,3.186-.884.5.5,0,0,0,.262-.957,4.274,4.274,0,0,0-3.225.42A3.509,3.509,0,0,1,3161.876,995.523Z" transform="translate(-2329.517 -733.784)"/>
    <path id="Path_808" data-name="Path 808" d="M3026.257,1268.725s-2.792.17-7.134.281c-11.213.283-32.759.144-43.168-4.5-14.444-6.439-23.407-16.8-23.937-17.862-3.089-6.224-2.163-9.478.281-18.588s7.414-80.211,7.414-80.211,10.886-26.218,19.1-24.884c0,0,.4,8.406,18.484-1q1.46-.752,3.067-1.67s24.22,1.557,35.1,21.331S3034.036,1267.171,3026.257,1268.725Z" transform="translate(-2176.615 -826.573)" fill="#fff"/>
    <path id="Path_809" data-name="Path 809" d="M3030.707,1161.73s-21.2,33.195-16.517,126.509" transform="translate(-2223.433 -857.148)" fill="none" stroke="#345753" stroke-linecap="round" stroke-miterlimit="10" stroke-width="3"/>
    <path id="Path_810" data-name="Path 810" d="M3159.205,1268.725s-2.792.17-7.134.281c9.029-39.256-19.831-41.335-9.111-75.356,8.681-27.55-6.573-60.225-12.71-71.69q1.46-.752,3.068-1.67s24.22,1.557,35.1,21.331S3166.984,1267.171,3159.205,1268.725Z" transform="translate(-2309.563 -826.573)" fill="#dbdbdb"/>
    <path id="Path_811" data-name="Path 811" d="M2863.821,1027.226s-.611,8.128-1.814,19.021c-2.179,19.679-6.292,48.349-12.215,54.124,0,0-16.381,7.425-22.13,1.361-2.593-2.734-3.023-8.222,1.2-18.379,6.937-16.7,13.337-32.371,17.933-43.708,4.394-10.836,7.142-17.7,7.142-17.7s-5.75-20.712,10.81-21.394a9.769,9.769,0,0,1,3.568.419C2878.406,1004.388,2863.821,1027.226,2863.821,1027.226Z" transform="translate(-2084.857 -738.207)" fill="#ed633e"/>
    <path id="Path_812" data-name="Path 812" d="M2861.485,1025.645s-.613,8.128-1.817,19.021c-2.179,19.679-6.292,48.349-12.215,54.124,0,0-12.863,5.831-19.792,2.942-2.593-2.734-3.023-8.222,1.2-18.379,6.937-16.7,13.337-32.371,17.933-43.708,4.394-10.836,7.142-17.7,7.142-17.7s-5.75-20.712,10.81-21.394a9.769,9.769,0,0,1,3.568.419C2873.278,1007.177,2861.485,1025.645,2861.485,1025.645Z" transform="translate(-2084.857 -738.207)" fill="#ff7d5a"/>
    <path id="Path_813" data-name="Path 813" d="M2862,1156.342c-2.179,19.679-6.292,48.349-12.215,54.124,0,0-34.505,15.642-20.935-17.018,6.937-16.7,13.337-32.371,17.933-43.708C2849.134,1152.462,2853.864,1156.26,2862,1156.342Z" transform="translate(-2084.852 -848.302)" fill="#233f3b"/>
    <path id="Path_814" data-name="Path 814" d="M2864.744,1285.864h-82.188l-17.136-58.524h82.185Z" transform="translate(-2040.384 -905.557)" fill="#aaa"/>
    <path id="Path_815" data-name="Path 815" d="M2832.826,1227.34c-12.542,10.34-35.685,32.786-37.035,58.524h-13.235l-17.136-58.524Z" transform="translate(-2040.384 -905.557)" fill="#b7b7b7"/>
    <rect id="Rectangle_426" data-name="Rectangle 426" width="100.564" height="5.178" rx="2.589" transform="translate(740.536 380.31)" fill="#929397"/>
    <path id="Path_816" data-name="Path 816" d="M3064.528,1468.178s-6.714-3.309-9.991-3.482-20.531-2.242-17.425-8.453,15.872-.863,22.6,0,10.589,1.573,10.589,1.573Z" transform="translate(-2240.569 -1072.261)" fill="#ff7d5a"/>
    <path id="Path_817" data-name="Path 817" d="M3189.863,1230.477c-2.121,6.458-4.958,11.012-8.24,14.113-17.752,16.751-48.487-9.284-48.487-9.284a10.774,10.774,0,0,0,1.573-1.261,9,9,0,0,0,2.936-8.9l19.488.278h.2l4.591.066a2.885,2.885,0,0,0,1.392-.2h0a2.884,2.884,0,0,0,1.8-2.685,63.246,63.246,0,0,0-.482-7.435c-1.366-11.318-6.321-30.342-23.169-50.394-10.558-12.585-10.532-19.2-6.641-22.631a13.139,13.139,0,0,1,5.59-2.622,22.1,22.1,0,0,1,22.385,7.8C3175.5,1163.144,3200.115,1199.239,3189.863,1230.477Z" transform="translate(-2311.174 -840.315)" fill="#345753"/>
    <path id="Path_818" data-name="Path 818" d="M3165.168,1231.7a63.194,63.194,0,0,0-.482-7.435c-1.366-11.318-6.321-30.342-23.169-50.394-10.558-12.585-10.532-19.2-6.641-22.631.139,3.2,1.809,8.87,9.68,16.465,11.578,11.182,24.438,41.254,26,59.84a7.359,7.359,0,0,0,3.961,5.886c2.244,1.169,5.013,3.558,6.963,8.432,0,0-8.972-7.1-24.094-7.341l4.591.066a2.885,2.885,0,0,0,1.392-.2h0a2.884,2.884,0,0,0,1.8-2.685Z" transform="translate(-2311.211 -849.409)" fill="#233f3b"/>
    <path id="Path_819" data-name="Path 819" d="M3183.6,1512.325c-17.752,16.751-48.488-9.284-48.488-9.284a10.771,10.771,0,0,0,1.573-1.261C3144.354,1505.941,3169.537,1518.536,3183.6,1512.325Z" transform="translate(-2313.148 -1108.044)" fill="#233f3b"/>
    <path id="Path_820" data-name="Path 820" d="M2393.846,2149.239a60.149,60.149,0,0,1-120.243-3.6,3.331,3.331,0,0,1,.013-.359,60.148,60.148,0,0,1,120.23,3.961Z" transform="translate(-1677.491 -1540.041)" fill="#dba21b" fill-rule="evenodd"/>
    <path id="Path_821" data-name="Path 821" d="M2356.28,2223.114a51.583,51.583,0,1,0-50.016-53.1A51.579,51.579,0,0,0,2356.28,2223.114Z" transform="translate(-1701.592 -1564.157)" fill="#ffe948" fill-rule="evenodd"/>
    <path id="Path_822" data-name="Path 822" d="M2428.339,2238.358a54.236,54.236,0,0,1-19.139-5.071l.454-15.185a66.4,66.4,0,0,0,11.389,4.837,40.3,40.3,0,0,0,10.859,2.131,12.956,12.956,0,0,0,5.718-.763,3.263,3.263,0,0,0,1.9-3.078,3.2,3.2,0,0,0-1.232-2.6,19.216,19.216,0,0,0-4.266-2.5c-2-.926-4.719-2.1-8.1-3.442a37.429,37.429,0,0,1-9.229-5.1,17,17,0,0,1-5.01-6.146,18.515,18.515,0,0,1-1.374-8.3q.226-7.53,5.2-11.628t14.682-4.816l.189-6.269,9.438.283-.186,6.177a53.253,53.253,0,0,1,18.188,5.018l-5.815,12.847q-9.438-4.564-17.1-4.8a10.771,10.771,0,0,0-5.17.731,2.884,2.884,0,0,0-1.573,2.593,3.214,3.214,0,0,0,1,2.512,14.96,14.96,0,0,0,3.67,2.31c1.765.863,4.156,1.872,7.257,3.026q9.464,3.671,13.476,8.112a15.509,15.509,0,0,1,3.831,11.258,16.774,16.774,0,0,1-5.244,12.344q-5.01,4.649-14.365,5.506l-.262,8.8-9.438-.283Z" transform="translate(-1777.557 -1601.396)" fill="#e29b0e" fill-rule="evenodd"/>
  </g>
</svg>
