<svg xmlns="http://www.w3.org/2000/svg" xmlns:xlink="http://www.w3.org/1999/xlink" width="492.03" height="414.281" viewBox="0 0 492.03 414.281">
  <defs>
    <clipPath id="clip-path">
      <path id="Path_750" data-name="Path 750" d="M1399.13,473.268l139.349,87.01,92.274-131.968s41.944-63.35-14.534-81.361-276.882-8.258-267.24,39.552S1373.181,452.6,1399.13,473.268Z" transform="translate(-1348.672 -338.508)" fill="none"/>
    </clipPath>
    <clipPath id="clip-path-2">
      <path id="Path_783" data-name="Path 783" d="M2892.352,1361.732c-6.139,5.616-15.814,2.129-15.983,2.068h0s1.132,7.928.066,12.921-3.531,6.527-3.864,4.263-1.866-7.267-15.787-10.658-48.889-2.33-57.808-1.931-20.714.866-20.714.866,1.208-2.615,1.006-10.736a33.622,33.622,0,0,0-.855-7.456c-3.194-13.524-13.413-37.427-13.413-37.427s22.246-21.449,23.454-22.514,1.4-1.733.991-3.4c-.244-1.021,6.949-5.857,12.553-9.448,3.536-2.263,6.442-4.032,6.442-4.032a30.283,30.283,0,0,1,5.323-.507c1.731.134,4.129,4.529,4.129,4.529,1.817,1.548,2.6.33,2.6.33,4.625-.908,12.163-8.614,12.163-8.614,1.037.438,2.855,1.368,5.12,2.592,7.55,4.1,20.008,11.492,24.565,14.774,5.921,4.261,2.684,6.394,4.737,6.551s6.71,5.92,17.919,21.551,11.687,29.685,11.687,29.685S2898.547,1356.072,2892.352,1361.732Z" transform="translate(-2765 -1269.99)" fill="none"/>
    </clipPath>
  </defs>
  <g id="_15_RUNO_FIELD_CRM_REALTIME_PERFORMANCE_MONITORING" data-name="15 RUNO FIELD CRM REALTIME PERFORMANCE MONITORING" transform="translate(-140.402 -49.96)">
    <path id="Path_727" data-name="Path 727" d="M1227.761,438.682c-11.218-9.557-22.542-20.271-36.946-24.716-15.856-4.9-33.489-4.686-49.892-3.893a364.714,364.714,0,0,0-183.056,60.094c-28.039,18.616-53.844,41.6-71.122,70.477s-25.418,64.174-17.437,96.87c7.53,30.848,31.669,61.087,63.631,67.945,14.485,3.108,29.357,2.766,43.967,4.79,15.01,2.079,29.869,6.324,44.493,10.187,29.753,7.859,59.79,16.541,90.825,16.682,31.919.147,63.028-8.861,92.2-21.221,52.784-22.362,102.635-53.643,112.561-114.72,6.623-40.748-8.808-83.9-35.494-114.72C1265.779,468.323,1246.029,454.244,1227.761,438.682Z" transform="translate(-723.23 -341.858)" fill="#fff0dc"/>
    <g id="Group_297" data-name="Group 297" transform="translate(279.665 113.976)" opacity="0.35">
      <path id="Path_728" data-name="Path 728" d="M1861.638,698.077c-20.025-15.747-49.728-8.617-67.75,8.523s-49.055,12.341-69.088,3.452-30.6,13.048-30.6,13.048l-.53,31.732,3.4,6.886h182.066S1881.663,713.824,1861.638,698.077Z" transform="translate(-1693.67 -689.328)" fill="#ffcc7c"/>
    </g>
    <path id="Path_729" data-name="Path 729" d="M1798.369,607.43h-12.823a2.846,2.846,0,0,0-2.846,2.846v68.84a2.846,2.846,0,0,0,2.846,2.844h12.823a2.846,2.846,0,0,0,2.847-2.844v-68.84A2.846,2.846,0,0,0,1798.369,607.43Z" transform="translate(-1488.33 -506.981)" fill="#4faeee"/>
    <rect id="Rectangle_246" data-name="Rectangle 246" width="18.515" height="59.011" rx="9.258" transform="translate(324.987 115.97)" fill="#4faeee"/>
    <rect id="Rectangle_247" data-name="Rectangle 247" width="18.515" height="40.281" transform="translate(355.602 134.7)" fill="#4faeee"/>
    <rect id="Rectangle_248" data-name="Rectangle 248" width="18.515" height="65.494" rx="9.258" transform="translate(386.219 109.486)" fill="#4faeee"/>
    <path id="Path_730" data-name="Path 730" d="M2539.8,529.12h-12.825a2.844,2.844,0,0,0-2.844,2.844V613.74a2.844,2.844,0,0,0,2.844,2.844H2539.8a2.844,2.844,0,0,0,2.846-2.844V531.964A2.844,2.844,0,0,0,2539.8,529.12Z" transform="translate(-2107.301 -441.605)" fill="#4faeee"/>
    <path id="Path_731" data-name="Path 731" d="M1998.085,733.409a25.339,25.339,0,0,1-4.625-3.359c-2.22-2.233-3.328-5.31-3.3-9.145a28.219,28.219,0,0,1,2.362-10.339c.567-1.339,1.2-2.7,1.817-4.023.826-1.794,1.69-3.65,2.413-5.5l-.461-.18c-.719,1.838-1.574,3.687-2.4,5.474-.613,1.321-1.247,2.691-1.817,4.038a28.717,28.717,0,0,0-2.4,10.529c-.033,3.964,1.124,7.167,3.439,9.5a25.35,25.35,0,0,0,4.71,3.431c3.09,1.914,6.01,3.723,6.306,7.025.3,3.333-2.411,5.88-5.029,8.342-.5.463-.991.94-1.47,1.409a23.7,23.7,0,0,0-5.659,9.274l.471.165a23.2,23.2,0,0,1,5.538-9.084c.466-.464.948-.918,1.46-1.4,2.7-2.545,5.5-5.176,5.183-8.754S2001.144,735.3,1998.085,733.409Z" transform="translate(-1661.12 -584.979)" fill="#fff"/>
    <path id="Path_732" data-name="Path 732" d="M2352.085,704.689a15.374,15.374,0,0,1,5.042-1.444l-.058-.5a15.842,15.842,0,0,0-5.209,1.495c-4.475,2.261-7.036,7.4-5.831,11.689.706,2.514,2.478,4.488,4.2,6.4a23.323,23.323,0,0,1,3.436,4.494,11.54,11.54,0,0,1-5.979,15.555c-2.489.907-5.364.976-9.049.215l-.1.486a23.285,23.285,0,0,0,4.692.533,13.335,13.335,0,0,0,4.625-.768,12.04,12.04,0,0,0,6.258-16.252,23.59,23.59,0,0,0-3.507-4.595c-1.757-1.952-3.418-3.8-4.093-6.2C2345.231,711.256,2348.341,706.59,2352.085,704.689Z" transform="translate(-1952.364 -586.557)" fill="#fff"/>
    <path id="Path_733" data-name="Path 733" d="M2549.986,878.655a27.845,27.845,0,0,0-8.772,2.182c-3.844,1.921-6.759,6.58-4.973,10.458,1.051,2.278,3.287,3.523,5.451,4.727a17.029,17.029,0,0,1,4.316,3.013,9.844,9.844,0,0,1,1.888,9.015l.482.116a10.339,10.339,0,0,0-2.007-9.467,17.387,17.387,0,0,0-4.438-3.11c-2.19-1.219-4.258-2.37-5.239-4.5-1.667-3.615,1.108-7.991,4.743-9.808a27.427,27.427,0,0,1,8.617-2.134c.755-.1,1.536-.208,2.3-.33l-.076-.5C2551.515,878.447,2550.738,878.553,2549.986,878.655Z" transform="translate(-2116.962 -733.128)" fill="#fff"/>
    <path id="Path_734" data-name="Path 734" d="M2531.385,610.332c0,1.031.093,2.068.182,3.072a31.992,31.992,0,0,1,.179,3.287,8.085,8.085,0,0,1-2.009,5.678c-1.278,1.247-3.011,2.2-6.175-.218l-.3.393a6.42,6.42,0,0,0,3.746,1.6,4.354,4.354,0,0,0,3.077-1.42,8.563,8.563,0,0,0,2.157-6.027,31.894,31.894,0,0,0-.18-3.338c-.088-.991-.18-2.018-.18-3.028a8.508,8.508,0,0,1,3.021-6.914,11.968,11.968,0,0,1,7.038-2.453l-.026-.5C2536.817,600.746,2531.376,603.481,2531.385,610.332Z" transform="translate(-2106.574 -501.17)" fill="#fff"/>
    <path id="Path_735" data-name="Path 735" d="M2184.993,927.965c-5.014,3.3-5.781,10.23-4.9,15.152a37.821,37.821,0,0,0,1.27,4.955l.472-.152a36.816,36.816,0,0,1-1.254-4.9c-.845-4.773-.125-11.474,4.688-14.65,2.251-1.486,5.081-2.028,8.65-1.66l.051-.5C2190.278,925.846,2187.343,926.421,2184.993,927.965Z" transform="translate(-1819.823 -773.024)" fill="#fff"/>
    <path id="Path_736" data-name="Path 736" d="M1790.662,628.174a37.31,37.31,0,0,1-2.192-5.829c-1.034-4.129-.694-8.957,1.041-14.763l.135-.449-.474-.144-.135.449c-1.761,5.895-2.1,10.81-1.047,15.03a37.345,37.345,0,0,0,2.22,5.908,42.546,42.546,0,0,1,1.974,5.031c1.563,5.246.04,8.939-1.908,10.645-1.584,1.387-3.634,1.893-5.791,2.43-.735.183-1.487.372-2.225.6l.147.472c.717-.22,1.468-.406,2.2-.586,2.126-.529,4.324-1.074,6-2.539a8.2,8.2,0,0,0,2.593-5.166,14.53,14.53,0,0,0-.535-5.992A43.292,43.292,0,0,0,1790.662,628.174Z" transform="translate(-1487.963 -506.613)" fill="#fff"/>
    <path id="Path_737" data-name="Path 737" d="M1782.238,998.67l-.228.439a34.283,34.283,0,0,0,15.636,3.777c1.008,0,2.015-.044,3.016-.137l-.044-.5A33.752,33.752,0,0,1,1782.238,998.67Z" transform="translate(-1487.754 -833.601)" fill="#fff"/>
    <path id="Path_738" data-name="Path 738" d="M1692.862,547.412V438.26h-1.982V547.412c0,3.191,1.7,5.692,3.862,5.692h182.067v-1.982H1694.742C1693.855,551.122,1692.862,549.539,1692.862,547.412Z" transform="translate(-1411.676 -365.752)" fill="#ffcc7c"/>
    <path id="Path_739" data-name="Path 739" d="M1645,364.662h17.085l-8.3-15.922Zm3.358-1.982,5.38-9.745,5.079,9.745Z" transform="translate(-1373.374 -291.018)" fill="#ffcc7c"/>
    <path id="Path_740" data-name="Path 740" d="M2810.58,1092.242l13.945-8.423-13.945-8.919Zm1.982-13.717,8.208,5.249-8.208,4.955Z" transform="translate(-2346.438 -897.24)" fill="#ffcc7c"/>
    <path id="Path_741" data-name="Path 741" d="M2658.758,317.7,2662,301.74l-16,4.223Zm-1.242-3.837-7.51-6.909,9.414-2.487Z" transform="translate(-2209.042 -251.78)" fill="#ffcc7c"/>
    <path id="Path_742" data-name="Path 742" d="M1944.286,376.816l-31.05,20.781-.044.03-26.153,21.893-31.824-15.955-30.645-22.111-1.159,1.607,30.774,22.205,33.131,16.609,27.068-22.659,31.074-20.8.069-.046,21.031-19.858-1.361-1.442Z" transform="translate(-1522.316 -297.972)" fill="#ffcc7c"/>
    <circle id="Ellipse_187" data-name="Ellipse 187" cx="3.156" cy="3.156" r="3.156" transform="translate(300.01 82.076) rotate(-9.22)" fill="#fff"/>
    <path id="Path_743" data-name="Path 743" d="M1819.885,489.47a3.734,3.734,0,1,0,3.735,3.734A3.734,3.734,0,0,0,1819.885,489.47Zm0,6.313a2.578,2.578,0,1,1,2.578-2.578A2.578,2.578,0,0,1,1819.885,495.783Z" transform="translate(-1516.255 -408.504)" fill="#d80010"/>
    <circle id="Ellipse_188" data-name="Ellipse 188" cx="3.156" cy="3.156" r="3.156" transform="translate(329.227 103.287)" fill="#fff"/>
    <path id="Path_744" data-name="Path 744" d="M1993.974,621.11a3.734,3.734,0,1,0,3.735,3.734A3.734,3.734,0,0,0,1993.974,621.11Zm0,6.313a2.578,2.578,0,1,1,2.578-2.578A2.578,2.578,0,0,1,1993.974,627.423Z" transform="translate(-1661.591 -518.401)" fill="#d80010"/>
    <circle id="Ellipse_189" data-name="Ellipse 189" cx="3.156" cy="3.156" r="3.156" transform="translate(360.736 124.434) rotate(-67.5)" fill="#fff"/>
    <path id="Path_745" data-name="Path 745" d="M2190.613,719.69a3.734,3.734,0,1,0,3.736,3.735A3.734,3.734,0,0,0,2190.613,719.69Zm0,6.313a2.578,2.578,0,1,1,2.58-2.579A2.578,2.578,0,0,1,2190.613,726Z" transform="translate(-1825.753 -600.699)" fill="#d80010"/>
    <circle id="Ellipse_190" data-name="Ellipse 190" cx="3.156" cy="3.156" r="3.156" transform="translate(391.014 98.123) rotate(-45)" fill="#fff"/>
    <path id="Path_746" data-name="Path 746" d="M2375.974,570.74a3.734,3.734,0,1,0,3.735,3.734A3.735,3.735,0,0,0,2375.974,570.74Zm0,6.313a1.069,1.069,0,1,1,0,.007Z" transform="translate(-1980.498 -476.35)" fill="#d80010"/>
    <circle id="Ellipse_191" data-name="Ellipse 191" cx="3.156" cy="3.156" r="3.156" transform="translate(420.856 75.23)" fill="#fff"/>
    <path id="Path_747" data-name="Path 747" d="M2548.728,451.24a3.736,3.736,0,1,0,3.734,3.735A3.736,3.736,0,0,0,2548.728,451.24Zm0,6.314a2.58,2.58,0,1,1,2.578-2.579A2.58,2.58,0,0,1,2548.728,457.554Z" transform="translate(-2124.715 -376.588)" fill="#d80010"/>
    <path id="Path_748" data-name="Path 748" d="M2100.591,1490.531c-1.709,4.422-3.173,8.919-4.655,13.417-.73,2.218-1.486,4.43-2.228,6.645-.382,1.133-.781,2.26-1.156,3.4a6.641,6.641,0,0,1-.33.968,3.221,3.221,0,0,0-.565,1.506,1.35,1.35,0,0,0,1.321,1.321c2.3.268,3.1-3.857,3.616-5.389.773-2.312,1.511-4.648,2.238-6.982a143.673,143.673,0,0,0,3.832-14.318A1.075,1.075,0,0,0,2100.591,1490.531Z" transform="translate(-1746.257 -1243.597)" fill="#d80010"/>
    <g id="Group_298" data-name="Group 298" transform="translate(222.683 56.033)" clip-path="url(#clip-path)">
      <path id="Path_749" data-name="Path 749" d="M3105.078,1587.726v-18.5l-40.638,18.5Z" transform="translate(-2781.052 -1365.956)" fill="#fff"/>
    </g>
    <path id="Path_751" data-name="Path 751" d="M3047,1291.853Z" transform="translate(-2543.81 -1078.358)" fill="#ff9358"/>
    <path id="Path_752" data-name="Path 752" d="M2983.4,943.151c-5.285-3.634-12.483-9.274-16.642-7.8s-9.97,6.242-9.97,6.242-3.208,4.246-3.634,7.195a.505.505,0,0,1-.013.071c-.517,2.923-6.663,5.923-7.008,7.556s3.381,3.554,3.12,6.328-1.559,9.882,3.9,13.608,7.974,3.383,12.222,3.383l-.854,4.694-1.749,9.606c.069.088,3.883,8.394,10.923,9.449,6.621.991,10.406-9.015,10.406-9.015s-.758-11.866-.948-16.963h0a12.916,12.916,0,0,1,0-2.278l3.9-3.9s7.281,2.339,7.454-7.976S2988.689,946.791,2983.4,943.151Z" transform="translate(-2459.586 -780.538)" fill="#ff9358"/>
    <path id="Path_753" data-name="Path 753" d="M3018.938,943.151c-5.286-3.634-12.484-9.274-16.642-7.8s-9.97,6.242-9.97,6.242-3.208,4.246-3.634,7.195a.472.472,0,0,1-.013.071c.689-.135,1.761-.826,3.386-2.877,3.6-4.552,6.531-3.876,6.836-2.345s-1.226,5.406,1.835,7.243,18.874,9.18,19.281,13.364-.2,8.518-4.184,11.043-14.919,4.448-14.919,4.448l-.854,4.694s11.316-.71,18.627-6.922h0a12.888,12.888,0,0,1,0-2.278l3.9-3.9s7.281,2.339,7.454-7.976S3024.225,946.791,3018.938,943.151Z" transform="translate(-2495.122 -780.538)" fill="#ff8141"/>
    <path id="Path_754" data-name="Path 754" d="M1945.062,1609.381a9.5,9.5,0,0,0-2.914-1.97c-2.75-.9-11.117,4.772-16.431,5.492-3.275.444-10.553.582-15.653.621-3.176.025-5.508.011-5.508.011s-.258,8.841,4.232,11.164a9.945,9.945,0,0,0,3.429.618c6.937.438,21.518-.91,30.1-1.786,3.855-.393,6.5-.692,6.721-.692.811,0,2.7-3.092,2.071-5.523C1950.666,1615.588,1947.716,1611.769,1945.062,1609.381Z" transform="translate(-1590.057 -1341.716)" fill="#ff9358"/>
    <path id="Path_755" data-name="Path 755" d="M1904.556,1644.942s-.258,8.841,4.232,11.164a9.946,9.946,0,0,0,3.429.618,1.854,1.854,0,0,1,.022-.7c.76-3.611-.7-7.956-2.174-11.089C1906.889,1644.952,1904.556,1644.942,1904.556,1644.942Z" transform="translate(-1590.057 -1373.12)" fill="#d80010"/>
    <path id="Path_756" data-name="Path 756" d="M2135.96,1619.83a23.11,23.11,0,0,1-2.74,14.15c3.855-.393,6.5-.692,6.721-.692.811,0,2.7-3.092,2.071-5.523C2141.565,1626.037,2138.615,1622.219,2135.96,1619.83Z" transform="translate(-1780.956 -1352.166)" fill="#ff8141"/>
    <path id="Path_757" data-name="Path 757" d="M2152.757,1651.877q-.362-.287-.72-.578-.733-.594-1.462-1.194-1.453-1.2-2.882-2.435c-.241-.206-.593.14-.352.352q1.432,1.257,2.892,2.477.723.606,1.45,1.206l.747.608a1.667,1.667,0,0,0,.758.471.213.213,0,0,0,.2-.269C2153.291,1652.234,2152.985,1652.059,2152.757,1651.877Z" transform="translate(-1792.677 -1375.355)"/>
    <path id="Path_758" data-name="Path 758" d="M2147.311,1686.222l-.637-.294c-.449-.208-.9-.418-1.351-.623l-2.674-1.206c-.228-.1-.429.228-.2.33l2.677,1.287c.434.208.87.411,1.307.614l.674.316a3.9,3.9,0,0,0,.7.3.22.22,0,0,0,.165-.4A3.908,3.908,0,0,0,2147.311,1686.222Z" transform="translate(-1788.575 -1405.803)"/>
    <path id="Path_759" data-name="Path 759" d="M2553.257,2405.729l13.791-1.655V2383.8l-16-1.379Z" transform="translate(-2129.774 -1988.801)" fill="#ff8141"/>
    <path id="Path_760" data-name="Path 760" d="M3057.89,2467.1l13.929-.689,1.794-22.2-15.447,1.242C3058.029,2446.28,3057.89,2467.1,3057.89,2467.1Z" transform="translate(-2552.901 -2040.386)" fill="#ff8141"/>
    <rect id="Rectangle_249" data-name="Rectangle 249" width="9.793" height="84.189" transform="translate(532.549 348.938)" fill="#1a1b16"/>
    <path id="Path_761" data-name="Path 761" d="M3086.24,2605.4v3.219h57.681v-3.512l-29.376-8.622Z" transform="translate(-2576.569 -2167.514)" fill="#1a1b16"/>
    <rect id="Rectangle_250" data-name="Rectangle 250" width="78.547" height="10.217" rx="5.109" transform="translate(500.194 340.955)" fill="#d80010"/>
    <path id="Path_762" data-name="Path 762" d="M2565.324,1800.427c-17.936-1.523-52.039,11.562-52.039,11.562l-2.477.507c-2,.411-5.615,1.156-12.151,2.491-14.629,3-37.734,10.66-47.885,18.781s7.616,58.377,5.077,57.7.844,9.644,3.214,11.675,17.258,1.353,24.365.506,7.1-4.23,7.1-9.474-1.017-3.045-2.708-4.062-1.521-32.318-1.521-32.318c6.735,1.855,48.2-7.7,48.558-7.781h0s1.014,22.165,2.371,30.625,3.374,13.91,1.513,13.233-4.593,10.686.481,14.411,32.082,2.286,35.8,1.609,3.487-1.84,2.973-5.226a76.138,76.138,0,0,0-2.106-8.551c11.337-11.337,4.815-49.993,4.815-49.993a35.353,35.353,0,0,0,17.765-6.093,23.481,23.481,0,0,0,9.114-16.315c.146-5.487.023-10.417-3.7-15.156S2583.26,1801.951,2565.324,1800.427Z" transform="translate(-2043.419 -1502.831)" fill="#0068bb"/>
    <path id="Path_763" data-name="Path 763" d="M2884.757,1800.427c-17.936-1.523-52.039,11.562-52.039,11.562l-2.478.507a38.509,38.509,0,0,0,4.407.239c8.315,0,53.78-.825,70.544,2.162,12.4,2.215,18.68,8.983,20.923,13.364a22.187,22.187,0,0,0,.918-4.549c.145-5.487.023-10.417-3.7-15.156S2902.692,1801.951,2884.757,1800.427Z" transform="translate(-2362.851 -1502.831)" fill="#003c68"/>
    <path id="Path_764" data-name="Path 764" d="M2737.079,1947.944c-9.137.4-12.858,8.243-14.2,12.615s-31.134,13.339-36.888,12.661-8.63-2.466-8.291.036.679,7.746.679,7.746c6.735,1.855,48.2-7.7,48.559-7.781h0s.165-16.414,3.723-19.29,12.858-4.06,12.858-4.06S2746.217,1947.541,2737.079,1947.944Z" transform="translate(-2235.479 -1626.047)" fill="#003c68"/>
    <path id="Path_765" data-name="Path 765" d="M2521.109,2334.629c-4.955,1.321-23.609.043-23.609.043s.8,2.016,0,2.478c0,0,7.755,2.083,19.206,0S2526.063,2333.308,2521.109,2334.629Z" transform="translate(-2085.069 -1948.522)" fill="#003c68"/>
    <path id="Path_766" data-name="Path 766" d="M3242.089,2039.774c-6.289-.671-11.727-2.519-9.388-1.487s2.585,6.29,2.973,6.247a44.614,44.614,0,0,0,19.174-6.554A31.7,31.7,0,0,1,3242.089,2039.774Z" transform="translate(-2698.376 -1701.252)" fill="#003c68"/>
    <path id="Path_767" data-name="Path 767" d="M2884.914,1315.467c-11.208-15.631-15.866-21.393-17.919-21.551s1.184-2.289-4.737-6.551c-4.557-3.282-17.012-10.676-24.565-14.774-2.258-1.224-4.076-2.147-5.12-2.592,0,0-7.536,7.705-12.163,8.614,0,0-.781,1.216-2.6-.33,0,0-2.4-4.4-4.129-4.529a30.442,30.442,0,0,0-5.323.507s-2.9,1.769-6.442,4.032c-5.6,3.591-12.8,8.423-12.552,9.448.4,1.665.2,2.332-.991,3.4s-23.453,22.514-23.453,22.514,11.515,22.793,14.7,36.3c.783,3.318-.485,6.646-.446,8.247.2,8.128-1,11.066-1,11.066s11.79-.466,20.714-.866,43.9-1.465,57.808,1.931,15.453,8.394,15.787,10.658,2.8.732,3.863-4.263-.066-12.921-.066-12.921h0c.165.061,9.844,3.546,15.983-2.068,6.2-5.66,4.329-16.586,4.329-16.586S2896.124,1331.1,2884.914,1315.467Z" transform="translate(-2308.32 -1060.116)" fill="#fff"/>
    <path id="Path_768" data-name="Path 768" d="M3009.884,912.827c-1.126-3.814-9.362-12.482-24.7-6.937s-7.115,16.573-7.115,16.573c6.581-11.251,12.749-8.858,12.749-8.858s-2.6,5.373-1.473,8.321,3.293.606,3.293.606a5.062,5.062,0,0,0,1.652,3.12c1.652,1.733,3.034-.953,3.034-.953,1.128,3.293,4.854,5.285,5.721,5.285s1.387-1.906,1.387-1.906.78,2.514,1.039,3.293,5.028,4.681,7.542,4.767,5.12,1.908,3.381,5.721-4.508,3.554-4.508,3.554l-3.906,3.914s4.334.867,10.488-3.987,6.848-16.122,3.208-24.184A14.193,14.193,0,0,0,3009.884,912.827Z" transform="translate(-2484.421 -754.641)" fill="#d80010"/>
    <path id="Path_769" data-name="Path 769" d="M2992.067,952.121c-5.462,2.167-4.79,8.093-4.342,9.813,0,0,5.989-9.031,12.749-8.858C3000.474,953.072,2997.528,949.951,2992.067,952.121Z" transform="translate(-2494.081 -794.099)" fill="#1a1b16"/>
    <path id="Path_770" data-name="Path 770" d="M3181.85,956.343a2.586,2.586,0,0,0,2.18,2.657c2.243.306,1.044-2.01,1.044-2.01S3182.933,955.833,3181.85,956.343Z" transform="translate(-2656.386 -798.156)" fill="#1a1b16"/>
    <g id="Group_299" data-name="Group 299" transform="translate(456.613 209.882)" clip-path="url(#clip-path-2)">
      <path id="Path_771" data-name="Path 771" d="M2904.163,1288.078c-5.208-1.652-10.547-2.973-15.823-4.4q-8.006-2.17-15.993-4.4-15.9-4.435-31.712-9.155t-31.6-9.593q-15.775-4.869-31.547-9.745c-10.328-3.207-20.7-6.341-30.781-10.265q-1.858-.723-3.7-1.486c-.794-.331-1.133.958-.355,1.283,9.969,4.167,20.269,7.449,30.556,10.7q15.739,4.978,31.489,9.92t31.578,9.656q15.812,4.74,31.7,9.239c10.592,2.99,21.212,5.875,31.908,8.465,1.321.32,2.643.621,3.975.877A.569.569,0,0,0,2904.163,1288.078Z" transform="translate(-2745.979 -1244.098)" fill="#4faeee"/>
      <path id="Path_772" data-name="Path 772" d="M2896.2,1372.2c-10.108-1.706-20.288-2.94-30.391-4.7s-20.174-3.819-30.166-6.172a536.189,536.189,0,0,1-59-17.524q-16.292-5.873-32.168-12.81c-.686-.3-1.287.709-.595,1.017q14.077,6.247,28.491,11.7,14.478,5.466,29.282,10.016t29.827,8.233q15.03,3.662,30.268,6.43c10.087,1.832,20.283,3.563,30.5,4.449,1.273.111,2.547.21,3.823.286C2896.6,1373.163,2896.729,1372.294,2896.2,1372.2Z" transform="translate(-2747.112 -1320.878)" fill="#4faeee"/>
      <path id="Path_773" data-name="Path 773" d="M2819.353,1487.257c-5.68-.991-11.452-1.5-17.159-2.339s-11.453-1.6-17.169-2.478q-17.147-2.642-34.189-5.9t-33.95-7.191q-16.9-3.928-33.651-8.475t-33.319-9.694q-2.071-.644-4.139-1.3c-.783-.246-1.11.971-.33,1.225q16.487,5.424,33.185,10.158,16.782,4.727,33.742,8.789,16.878,4.023,33.907,7.386,17.107,3.376,34.34,6.052,17.1,2.643,34.282,4.517c1.437.165,2.866.294,4.311.368C2819.836,1488.415,2820,1487.37,2819.353,1487.257Z" transform="translate(-2664.82 -1420.145)" fill="#4faeee"/>
      <path id="Path_774" data-name="Path 774" d="M2829.4,1598.575c-13.171-1.926-26.443-3.214-39.648-4.887-13.316-1.688-26.614-3.536-39.853-5.75-13.17-2.2-26.289-4.737-39.29-7.8s-25.886-6.712-38.621-10.805c-12.856-4.129-25.6-8.624-38.3-13.233l-4.79-1.739c-.761-.276-1.087.933-.33,1.209,12.688,4.651,25.356,9.363,38.153,13.684,12.756,4.295,25.639,8.189,38.705,11.436,13.02,3.237,26.172,5.931,39.39,8.219,13.129,2.274,26.32,4.174,39.531,5.881,13.268,1.713,26.561,3.193,39.862,4.612,1.665.177,3.336.286,5.007.416C2829.931,1599.878,2830.114,1598.679,2829.4,1598.575Z" transform="translate(-2650.743 -1507.362)" fill="#4faeee"/>
      <path id="Path_775" data-name="Path 775" d="M2750.9,1692.964c-6.4-1.039-12.891-1.586-19.325-2.4q-9.695-1.23-19.347-2.77-19.286-3.067-38.366-7.3t-37.84-9.641q-18.766-5.4-37.194-11.892-18.51-6.511-36.591-14.163-2.239-.952-4.473-1.913c-.661-.287-1.254.689-.578.991q17.839,7.943,36.149,14.758,18.391,6.844,37.2,12.476t37.923,10.059q19.2,4.46,38.649,7.71c12.843,2.136,25.8,4.073,38.776,5.163,1.614.136,3.218.246,4.836.3C2751.478,1694.357,2751.684,1693.092,2750.9,1692.964Z" transform="translate(-2591.258 -1581.252)" fill="#4faeee"/>
      <path id="Path_776" data-name="Path 776" d="M2716.755,1214.769c-1.581,3.432-3.034,6.922-4.625,10.353q-2.346,5.08-4.853,10.087c-3.363,6.725-6.937,13.34-10.633,19.891-7.348,13.048-15.077,25.882-22.4,38.945-4.147,7.4-8.187,14.865-11.981,22.441-.284.57.568,1.072.855.5,6.788-13.459,14.525-26.407,22.23-39.354s15.387-25.895,22.261-39.3c1.908-3.719,3.754-7.469,5.5-11.268,1.769-3.857,3.536-7.743,4.947-11.75C2718.327,1214.566,2717.095,1214.032,2716.755,1214.769Z" transform="translate(-2679.183 -1223.595)" fill="#4faeee"/>
      <path id="Path_777" data-name="Path 777" d="M2846.143,1200.59c-2.093,3.269-3.8,6.752-5.574,10.2s-3.531,6.907-5.277,10.369q-5.242,10.391-10.381,20.829-10.28,20.885-20.066,42.007-5.526,11.867-10.944,23.784c-.283.621.636,1.156.923.538q9.729-21.219,19.952-42.208,10.183-21.006,20.74-41.834,2.923-5.764,5.87-11.517c1.982-3.886,4.081-7.721,5.733-11.762C2847.357,1200.42,2846.453,1200.1,2846.143,1200.59Z" transform="translate(-2789.083 -1211.852)" fill="#4faeee"/>
      <path id="Path_778" data-name="Path 778" d="M2969.6,1187.816c-1.2,1.946-2.168,4.032-3.179,6.08s-2,4.129-3,6.184q-2.933,6.035-5.881,12.057-5.966,12.2-11.986,24.382-11.972,24.21-24.072,48.358-6.82,13.611-13.74,27.17c-.372.727.722,1.369,1.095.641,8.28-16.105,16.595-32.191,24.749-48.359s16.226-32.383,24.217-48.635q3.32-6.755,6.625-13.52,1.651-3.383,3.3-6.772a76.124,76.124,0,0,0,3.178-7.049C2971.185,1187.586,2970.008,1187.15,2969.6,1187.816Z" transform="translate(-2884.098 -1201.115)" fill="#4faeee"/>
      <path id="Path_779" data-name="Path 779" d="M3098.563,1252.447c-1.538,3.351-2.808,6.821-4.19,10.24-1.406,3.485-2.882,6.937-4.39,10.384-2.953,6.749-6.1,13.41-9.323,20.033-6.709,13.795-13.544,27.532-20.315,41.292q-5.789,11.748-11.6,23.482c-.418.846.847,1.592,1.271.743q10.43-20.935,20.885-41.85c6.7-13.41,13.544-26.769,19.675-40.454q2.563-5.723,4.9-11.542a92.937,92.937,0,0,0,4.141-11.892C3099.761,1252.285,3098.843,1251.836,3098.563,1252.447Z" transform="translate(-3001.804 -1255.101)" fill="#4faeee"/>
      <path id="Path_780" data-name="Path 780" d="M3199.655,1313.2c-2.035,3.234-3.844,6.607-5.71,9.941q-2.762,4.93-5.484,9.882-5.46,9.9-10.9,19.807-10.886,19.906-21.61,39.9-6.045,11.254-12.087,22.516c-.331.633.621,1.2.963.563q10.787-19.956,21.75-39.805,10.931-19.878,21.941-39.713c2.064-3.723,4.142-7.433,6.2-11.172s4.2-7.423,6.071-11.248A.658.658,0,0,0,3199.655,1313.2Z" transform="translate(-3081.23 -1305.798)" fill="#4faeee"/>
      <path id="Path_781" data-name="Path 781" d="M3327.976,1385.842a153.132,153.132,0,0,1-5.16,17.881,148.191,148.191,0,0,1-7.748,17.012c-5.9,11.213-12.8,21.857-18.907,32.951a173.913,173.913,0,0,0-9.284,19.288c-.241.6.73.859.97.268,4.852-11.913,11.59-22.9,18.181-33.909,6.442-10.751,12.845-21.591,17.491-33.266,2.543-6.387,4.762-13.213,5.285-20.1A.424.424,0,0,0,3327.976,1385.842Z" transform="translate(-3200.649 -1366.457)" fill="#4faeee"/>
      <path id="Path_782" data-name="Path 782" d="M3384.017,1568.455c-3.093,3.8-5.544,8.2-8.132,12.354q-3.964,6.361-7.855,12.759-7.819,12.779-15.423,25.692-4.307,7.289-8.551,14.619a.542.542,0,0,0,.935.548q15.324-25.568,31.079-50.871,2.237-3.6,4.459-7.2a73.081,73.081,0,0,0,4.232-7.332C3384.97,1568.573,3384.38,1568.007,3384.017,1568.455Z" transform="translate(-3248.349 -1519.022)" fill="#4faeee"/>
    </g>
    <g id="Group_300" data-name="Group 300" transform="translate(493.604 209.886)" opacity="0.77">
      <path id="Path_784" data-name="Path 784" d="M3007.452,1278.622s-.781,1.216-2.6-.331c0,0-2.4-4.4-4.129-4.529a30.451,30.451,0,0,0-5.323.507s-2.9,1.769-6.441,4.032a8.052,8.052,0,0,0,5.781,5.219c7.023,2.053,11.918.5,18.629,5.028,6.343,4.278,11.066-5.226,11.359-15.947-2.258-1.224-4.077-2.147-5.121-2.592C3019.615,1270.008,3012.078,1277.713,3007.452,1278.622Z" transform="translate(-2988.96 -1270.01)" fill="#006fcc"/>
    </g>
    <g id="Group_301" data-name="Group 301" transform="translate(469.45 250.654)" opacity="0.77">
      <path id="Path_785" data-name="Path 785" d="M2850.123,1526.259c-1.1,6.74-7.4,18-7.4,18s6.187,5.414,8.728,2.312c.223-.271.884-17.565,1.652-25.962S2851.228,1519.52,2850.123,1526.259Z" transform="translate(-2842.72 -1516.841)" fill="#006fcc"/>
    </g>
    <g id="Group_302" data-name="Group 302" transform="translate(469.866 257.779)" opacity="0.77">
      <path id="Path_786" data-name="Path 786" d="M2914.979,1560.066c-6.519,1.1-26.622,2.54-28.116,5.743s10.44,20,12.759,24.2c1.911,3.457-38.107,1.122-53.254,1.115-.073,3.3-.165,7.568-.127,9.168.2,8.128-1,11.066-1,11.066s11.79-.466,20.714-.865,43.9-1.465,57.808,1.931,15.453,8.394,15.787,10.658,2.8.732,3.864-4.263-.066-12.921-.066-12.921-26.671-12.928-33.251-21.323c0,0-5.285-1.27-7.277-3.267a3.4,3.4,0,0,1-.884-4s2.431-3.645,1.216-6.96-1.88-8.063.773-7.4,8.947,2.43,8.947,1.652,2.1-3.2,7.292-.33,22.1,7.735,24.525,11.712a29.273,29.273,0,0,1,3.317,8.409s2.651,1.652,1.1-6.863S2921.5,1558.959,2914.979,1560.066Z" transform="translate(-2845.24 -1559.982)" fill="#006fcc"/>
    </g>
    <path id="Path_787" data-name="Path 787" d="M2805.51,1683.763h32.947V1680.2H2797.47Z" transform="translate(-2335.494 -1402.565)" fill="#d3441e"/>
    <path id="Path_788" data-name="Path 788" d="M2235.488,1361.23l-6.308,3.882,101.9,52.364h5.338l-32.028-56.246Z" transform="translate(-1861.066 -1136.278)" fill="#ff8141"/>
    <path id="Path_789" data-name="Path 789" d="M2229.18,1384.73,2245.1,1414.7l11.9,22.393h74.081l-29.6-52.364Z" transform="translate(-1861.066 -1155.896)" fill="#ffcc7c"/>
    <g id="Group_303" data-name="Group 303" transform="translate(384.037 228.834)" opacity="0.33">
      <path id="Path_790" data-name="Path 790" d="M2349.232,1384.73c-8.014,10.09-17.238,21.747-23.642,29.971l11.892,22.393h74.081l-29.6-52.358Z" transform="translate(-2325.59 -1384.73)" fill="#ff8141"/>
    </g>
    <ellipse id="Ellipse_192" data-name="Ellipse 192" cx="8.326" cy="3.878" rx="8.326" ry="3.878" transform="translate(407.744 251.828)" fill="#fff"/>
    <path id="Path_791" data-name="Path 791" d="M2981.86,1624.945c-3.863-.609-3.2-2.121-6.6,0s-9.89,6.925-9.89,6.925-.941,3.014-.376,4.8h19.641S2985.713,1625.556,2981.86,1624.945Z" transform="translate(-2475.201 -1355.523)" fill="#003c68"/>
    <path id="Path_792" data-name="Path 792" d="M2991.21,1593.948c-5.211.178-15.445.537-18.286.745-3.863.284-13.755,7.347-15.45,9.515s-3.2,4.332-1.036,4.05,3.391-.943,6.029-2.732,6.593-4.872,7.723-4.459-3.768,9.925-2.92,11.151,2.544.375,3.579,0a3.8,3.8,0,0,0,1.584-1.108c-.084.122-.392.7.865,1.2,1.414.565,4.334-1.508,4.334-1.508s-.472.753,1.321,1.414,5.652-2.643,6.311-3.2c.518-.444,6.382-2.851,9.115-4.322a6.65,6.65,0,0,1,.4-.9c1.486-2.542.1-8.615-.748-9.933Z" transform="translate(-2467.31 -1330.485)" fill="#ff9358"/>
    <path id="Path_793" data-name="Path 793" d="M3058.347,1647.521a3.3,3.3,0,0,0-1.072,1.635c-.321.745-.585,1.51-.838,2.279-.5,1.525-1.067,3.019-1.585,4.536a.359.359,0,0,0,.594.347,11.489,11.489,0,0,0,1.956-4.042c.253-.743.5-1.486.785-2.221a7.689,7.689,0,0,0,.859-2.132.467.467,0,0,0-.7-.4Z" transform="translate(-2550.351 -1375.232)" fill="#231f20"/>
    <path id="Path_794" data-name="Path 794" d="M3091.011,1658.141a14.989,14.989,0,0,1-1.661,3.094,12.186,12.186,0,0,0-1.249,3.018c-.079.372.471.661.651.274.514-1.1.879-2.243,1.452-3.317a10.2,10.2,0,0,0,1.275-2.94C3091.531,1657.976,3091.09,1657.839,3091.011,1658.141Z" transform="translate(-2578.116 -1384.007)" fill="#231f20"/>
    <path id="Path_795" data-name="Path 795" d="M3189.2,1596.99a18.247,18.247,0,0,1,.7,4.9,17.9,17.9,0,0,1-.147,2.4,5.234,5.234,0,0,1-.791,2.562.276.276,0,0,0,.266.458c.713-.13.791-1.179.93-1.761a15.018,15.018,0,0,0,.473-2.937,12.829,12.829,0,0,0-1.1-5.754C3189.444,1596.662,3189.142,1596.8,3189.2,1596.99Z" transform="translate(-2662.258 -1332.907)" fill="#231f20"/>
    <path id="Path_796" data-name="Path 796" d="M3237.587,1654.494a3.322,3.322,0,0,0-.52,1.764,23.8,23.8,0,0,1-.436,2.385,10.205,10.205,0,0,1-.826,2.235c-.367.7-.915,1.713-1.714,1.965a.312.312,0,0,0,.082.609c1.652.082,2.606-2.265,3.064-3.54a16.055,16.055,0,0,0,.693-2.858,4.167,4.167,0,0,0,0-2.517.225.225,0,0,0-.344-.044Z" transform="translate(-2699.817 -1381.054)" fill="#231f20"/>
    <path id="Path_797" data-name="Path 797" d="M3250.59,1587.986c.256.892.558,1.772.8,2.669a20.308,20.308,0,0,1,.349,2.89.446.446,0,0,0,.872.119c.588-1.908-.509-4.294-1.386-5.946A.348.348,0,0,0,3250.59,1587.986Z" transform="translate(-2713.761 -1325.217)" fill="#231f20"/>
    <path id="Path_798" data-name="Path 798" d="M3369.671,1615.563a22.844,22.844,0,0,0-6.5-4.017,74.655,74.655,0,0,0-7.578-2.818c-.246-.079-.425.32-.18.424,4.684,2.01,9.619,3.483,13.344,7.142a20.607,20.607,0,0,1,4,5.616,27.134,27.134,0,0,1,1.334,3.27c.385,1.133.633,2.312,1.1,3.421.228.535,1.106.253,1.078-.292a18.316,18.316,0,0,0-2.268-6.819A21.477,21.477,0,0,0,3369.671,1615.563Z" transform="translate(-2801.184 -1342.889)" fill="#231f20"/>
    <path id="Path_799" data-name="Path 799" d="M2894.761,1522.572c-.566,4.281-.644,8.636-.816,12.949q-.128,3.2-.256,6.392a62.527,62.527,0,0,0-.125,6.557c.036.562.964.778,1.054.142a60.72,60.72,0,0,0,.373-6.37q.114-3.279.23-6.557c.152-4.359.408-8.754.165-13.113a.312.312,0,1,0-.624,0Z" transform="translate(-2415.672 -1270.711)" fill="#231f20"/>
    <path id="Path_800" data-name="Path 800" d="M2665.08,2088.557c-.165-.837-.344-1.677-.548-2.506a7.917,7.917,0,0,0-.793-2.454.687.687,0,0,0-1.27.344,7.929,7.929,0,0,0,.393,2.406c.188.826.393,1.662.6,2.489.426,1.663.953,3.272,1.486,4.9.137.424.871.381.826-.111C2665.6,2091.92,2665.406,2090.248,2665.08,2088.557Z" transform="translate(-2222.78 -1739.059)"/>
    <path id="Path_801" data-name="Path 801" d="M2985.188,1952.03a6.333,6.333,0,0,0-2.217.513q-1.014.331-2.008.717a35.79,35.79,0,0,0-3.746,1.718c-2.329,1.237-4.344,2.732-5.338,5.257-.94,2.388-.917,5.066-1.044,7.6-.165,3.206-.33,6.41-.447,9.616-.021.542.794.53.836,0,.229-2.932.43-5.865.624-8.8a31.07,31.07,0,0,1,.945-7.368c.818-2.575,2.739-4.013,5.046-5.232a33.377,33.377,0,0,1,3.739-1.691q.991-.376,2.017-.694a7.434,7.434,0,0,0,1.86-.644.53.53,0,0,0-.266-.989Z" transform="translate(-2479.851 -1629.494)"/>
    <path id="Path_802" data-name="Path 802" d="M3233.328,2026.465a.606.606,0,0,0-.908.522,5.932,5.932,0,0,0,.751,1.952c.306.631.588,1.237.855,1.866a41.416,41.416,0,0,0,1.6,4.047.483.483,0,0,0,.893-.243,12.008,12.008,0,0,0-1.1-4.39C3234.942,2028.983,3234.414,2027.287,3233.328,2026.465Z" transform="translate(-2698.603 -1691.561)"/>
    <path id="Path_803" data-name="Path 803" d="M2932.143,1866.534a30.931,30.931,0,0,0-8.138-3.278,79.994,79.994,0,0,0-13.379-2.218c-9.484-.88-19.065-.912-28.574-.841-8.551.066-17.1.314-25.642.679-4.318.185-8.643.358-12.954.661l-.18.011c-.527.033-.53.859,0,.826,3.493-.223,6.99-.395,10.486-.557q12.158-.557,24.328-.752c9.158-.13,18.333-.1,27.48.421a103.98,103.98,0,0,1,14.8,1.76,40.474,40.474,0,0,1,9.441,2.958c3.235,1.556,6.316,3.964,7.1,7.571a8.581,8.581,0,0,1,.147.884c.058.522.884.529.826,0C2937.488,1871.078,2935.141,1868.369,2932.143,1866.534Z" transform="translate(-2373.404 -1552.812)" fill="#231f20"/>
    <path id="Path_804" data-name="Path 804" d="M3269.5,1727.243a21.39,21.39,0,0,0-3.353-1.692c-1.136-.535-2.271-1.082-3.391-1.651q-3.358-1.721-6.577-3.7a93.54,93.54,0,0,1-12.133-8.919c-2.147-1.86-4.091-3.964-6.253-5.8-.385-.33-1.12.121-.761.588a41.916,41.916,0,0,0,5.285,5.371c1.9,1.731,3.888,3.368,5.933,4.929a89.872,89.872,0,0,0,12.952,8.258q1.922,1,3.891,1.91a16.518,16.518,0,0,0,4.063,1.534.457.457,0,0,0,.344-.824Z" transform="translate(-2702.378 -1423.572)" fill="#231f20"/>
    <path id="Path_805" data-name="Path 805" d="M3190.635,1670.768c-.9-.292-1.781-.639-2.661-.979s-1.954-.616-2.39-1.528a4.332,4.332,0,0,1,.058-3.006.315.315,0,0,0-.607-.165c-.562,1.939-.5,3.769,1.3,4.98a16.609,16.609,0,0,0,2.973,1.568c.865.357,2.147,1.113,3.069.636a.4.4,0,0,0,.142-.545C3192.133,1671.072,3191.313,1670.987,3190.635,1670.768Z" transform="translate(-2658.785 -1389.763)" fill="#231f20"/>
    <path id="Path_806" data-name="Path 806" d="M3019.337,2030.856a17.376,17.376,0,0,0-3.245.522c-.915.146-1.838.229-2.763.291-2.02.132-4.042.122-6.063.177a1.407,1.407,0,0,0-.373,2.75,21.059,21.059,0,0,0,6.592.7c1.037-.043,2.071-.145,3.1-.281a10.9,10.9,0,0,0,3.652-.838C3021.861,2033.312,3021.024,2030.917,3019.337,2030.856Z" transform="translate(-2509.496 -1695.302)" fill="#003c68"/>
    <path id="Path_807" data-name="Path 807" d="M2477.709,2053.14a9.156,9.156,0,0,1-5.188.5c-.955-.14-1.889-.375-2.826-.6a6.078,6.078,0,0,0-2.853-.246.754.754,0,0,0-.331,1.242,5.971,5.971,0,0,0,2.787,1.576,20.071,20.071,0,0,0,3.364.888c2.058.33,4.727.438,6.524-.826A1.465,1.465,0,0,0,2477.709,2053.14Z" transform="translate(-2059.035 -1713.536)" fill="#003c68"/>
    <path id="Path_808" data-name="Path 808" d="M2511.4,2346.4a16.393,16.393,0,0,0-4.233.078c-1.534.071-3.065.1-4.6.046-1.487-.051-2.958-.165-4.428-.331q-1.17-.137-2.331-.33a10.07,10.07,0,0,0-2.2-.287.53.53,0,0,0-.264.981,13.985,13.985,0,0,0,4.459.991c1.531.218,3.067.375,4.612.449a46.308,46.308,0,0,0,4.758,0,10.856,10.856,0,0,0,4.346-.729.477.477,0,0,0-.117-.869Z" transform="translate(-2081.383 -1958.034)"/>
    <path id="Path_809" data-name="Path 809" d="M2404.82,2506.275c-.66-2.066-1.429-4.258-2.33-6.415-3.484-8.328-4.5-7.647-4.5-7.647s-1.179.908-6.63,2.045-7.432.311-7.432.311c-1.444-.9-.826,1.2-6.656,4.192-4,2.053-10.571,5.763-14.639,7.583a8.961,8.961,0,0,1-3.316,1.055.376.376,0,0,1-.213-.084h0c-1.07-.946-6.893-.1-9.689,5.576s2.043,9.542,2.043,9.542h56.109v-5.378s-.254-1.422-.785-3.662C2406.328,2511.49,2405.679,2508.988,2404.82,2506.275Z" transform="translate(-1960.715 -2080.448)" fill="#ffcc7c"/>
    <path id="Path_810" data-name="Path 810" d="M2418.355,2646.445c-1.625-.515-3.513-.272-5.2-.279q-2.643,0-5.285-.05c-3.577-.064-7.156-.144-10.736-.165-7.046-.048-14.094,0-21.141-.008-1.982,0-3.964.011-5.946.02-.991,0-1.982-.013-2.973.031a13.062,13.062,0,0,0-1.5.1,14.872,14.872,0,0,0-1.521.471.811.811,0,0,0,0,1.553c.414.112.786.32,1.2.423a6.957,6.957,0,0,0,1.321.127c.882.043,1.761.048,2.643.051l5.286.023c3.577.013,7.157,0,10.736,0,7.05,0,14.094-.019,21.141-.147,1.982-.036,3.964-.068,5.946-.074l2.973-.01a9.875,9.875,0,0,0,3.054-.271.938.938,0,0,0,0-1.8Z" transform="translate(-1973.181 -2208.788)" fill="#fff"/>
    <path id="Path_811" data-name="Path 811" d="M2456.93,2581.941c-4.971,3.316-33.474,6.333-35.015,2.781-1.206-2.769-2.747-6-4.778-7.234a8.945,8.945,0,0,1-3.317,1.056c.991.421,5.134,2.413,5.588,6.714.481,4.524,34.294,2.188,41.872-.726-.449-1.9-1.1-4.4-1.957-7.112A5.484,5.484,0,0,1,2456.93,2581.941Z" transform="translate(-2015.21 -2151.594)" fill="#ffa55a"/>
    <path id="Path_812" data-name="Path 812" d="M2471.69,2582.182h0v-.012Z" transform="translate(-2063.522 -2155.559)" fill="#ffa55a"/>
    <path id="Path_813" data-name="Path 813" d="M2473.44,2579.21Z" transform="translate(-2064.983 -2153.088)" fill="#ffa55a"/>
    <path id="Path_814" data-name="Path 814" d="M2474.77,2578.16h.01Z" transform="translate(-2066.093 -2152.212)" fill="#ffa55a"/>
    <path id="Path_815" data-name="Path 815" d="M2472.182,2586.638l-.01-.023-.011-.015A.2.2,0,0,1,2472.182,2586.638Z" transform="translate(-2063.914 -2159.258)" fill="#ffa55a"/>
    <path id="Path_816" data-name="Path 816" d="M2472.95,2587.682l-.018-.023-.021-.018a.176.176,0,0,1,.039.042Z" transform="translate(-2064.541 -2160.126)" fill="#ffa55a"/>
    <path id="Path_817" data-name="Path 817" d="M2471.7,2585.3v-.02a.062.062,0,0,1,0-.021C2471.7,2585.274,2471.7,2585.288,2471.7,2585.3Z" transform="translate(-2063.527 -2158.139)" fill="#ffa55a"/>
    <path id="Path_818" data-name="Path 818" d="M2471.46,2583.792v-.042A.169.169,0,0,1,2471.46,2583.792Z" transform="translate(-2063.33 -2156.878)" fill="#ffa55a"/>
    <path id="Path_819" data-name="Path 819" d="M2476.42,2577.45Z" transform="translate(-2067.47 -2151.619)" fill="#ffa55a"/>
    <path id="Path_820" data-name="Path 820" d="M2471.732,2577.073a1.2,1.2,0,0,0-.5.292.986.986,0,0,0-.256.436.751.751,0,0,0-.017.4.728.728,0,0,0,.117.368.988.988,0,0,0,.355.355.221.221,0,0,1,.036.02l-.183-.141.018.023a.178.178,0,0,0-.04-.042l.021.018-.134-.175.01.023a.21.21,0,0,0-.022-.038l.012.015c-.03-.071-.062-.142-.091-.215v.021a.26.26,0,0,0-.011-.042.1.1,0,0,0,0,.021c-.011-.083-.023-.165-.033-.252v.02a.148.148,0,0,0,0-.042v.021c.012-.089.023-.18.037-.269h0v0l.292-.5h0l.225-.175h.005l.269-.113h.013l.309-.041h0l.321.043-.017-.008a.081.081,0,0,0,.028.008h-.011l.306.128-.02-.015-.068-.036h-.013l.023.01.036.021-.273-.114h.021c.05.02.124.048.192.078l-.117-.056a1.023,1.023,0,0,0-.331-.068,1.079,1.079,0,0,0-.238-.025,1.443,1.443,0,0,0-.243.038Z" transform="translate(-2062.9 -2151.268)" fill="#ffa55a"/>
    <path id="Path_821" data-name="Path 821" d="M2478.28,2577.19Z" transform="translate(-2069.023 -2151.402)" fill="#ffa55a"/>
    <path id="Path_822" data-name="Path 822" d="M2477.945,2577.089a1.158,1.158,0,0,0-.147-.053h-.021l-.294-.04a.25.25,0,0,0-.043,0h-.06a1.086,1.086,0,0,1,.238.025,1.025,1.025,0,0,1,.326.068Z" transform="translate(-2068.272 -2151.24)" fill="#ffa55a"/>
    <path id="Path_823" data-name="Path 823" d="M2471.881,2577.675h0q-.1-.134-.2-.263l-.01-.01a3.015,3.015,0,0,0-.258-.2l-.091-.043.068.036.02.015-.306-.129-.32-.043-.309.042-.269.112-.225.175-.292.5c-.013.089-.025.18-.036.269a.93.93,0,0,0,.033.253.792.792,0,0,0,.091.215l.134.175.183.14a.264.264,0,0,0-.036-.02.989.989,0,0,1-.355-.355.73.73,0,0,1-.117-.368.756.756,0,0,1,.017-.4.989.989,0,0,1,.256-.436,1.2,1.2,0,0,1,.5-.292l.037-.01a1.41,1.41,0,0,1,.243-.038,1.033,1.033,0,0,0-.33.05l-.33.14a1.072,1.072,0,0,0-.393.362,1.06,1.06,0,0,0-.251.477,1.59,1.59,0,0,0,.14,1.082c.074.094.147.19.22.284a1.559,1.559,0,0,0,.991.411l.373-.051a1.4,1.4,0,0,0,.619-.36c.073-.094.146-.19.22-.284a1.408,1.408,0,0,0,.192-.709,2.547,2.547,0,0,0-.058-.4A3.351,3.351,0,0,0,2471.881,2577.675Z" transform="translate(-2061.514 -2151.243)" fill="#ffa55a"/>
    <path id="Path_824" data-name="Path 824" d="M2480.17,2577.41l.017.008h.011A.077.077,0,0,1,2480.17,2577.41Z" transform="translate(-2070.601 -2151.586)" fill="#ffa55a"/>
    <path id="Path_825" data-name="Path 825" d="M2480.931,2577.621a1.056,1.056,0,0,0-.13-.061l.117.056Z" transform="translate(-2071.127 -2151.71)" fill="#ffa55a"/>
    <path id="Path_826" data-name="Path 826" d="M2480.22,2577.4l.272.114-.036-.021-.023-.01c-.068-.03-.142-.058-.192-.078Z" transform="translate(-2070.643 -2151.577)" fill="#ffa55a"/>
    <path id="Path_827" data-name="Path 827" d="M2503.848,2559.229l-.294-.228a1.441,1.441,0,0,0-.73-.2,1.083,1.083,0,0,0-.558.125,1.1,1.1,0,0,0-.466.3,1.08,1.08,0,0,0-.3.466,1.1,1.1,0,0,0-.125.557c.018.129.035.258.053.385a1.436,1.436,0,0,0,.372.639c.1.076.195.152.294.227a1.437,1.437,0,0,0,.73.2,1.1,1.1,0,0,0,.559-.126,1.3,1.3,0,0,0,.765-.765,1.1,1.1,0,0,0,.125-.558c-.018-.127-.035-.256-.053-.385A1.441,1.441,0,0,0,2503.848,2559.229Z" transform="translate(-2088.303 -2136.051)" fill="#ffa55a"/>
    <path id="Path_828" data-name="Path 828" d="M2534.7,2542.852l-.284-.221a1.4,1.4,0,0,0-.711-.191,1.366,1.366,0,0,0-1.289.865,1.08,1.08,0,0,0-.12.543l.049.375a1.409,1.409,0,0,0,.364.621l.284.221a1.4,1.4,0,0,0,.712.192,1.41,1.41,0,0,0,1.4-1.4l-.05-.375A1.417,1.417,0,0,0,2534.7,2542.852Z" transform="translate(-2114.117 -2122.391)" fill="#ffa55a"/>
    <path id="Path_829" data-name="Path 829" d="M2560.62,2521.925a1.04,1.04,0,0,0-.358-.392.709.709,0,0,0-.307-.18,1.054,1.054,0,0,0-.537-.119l-.372.05-.331.141a1.063,1.063,0,0,0-.391.358.7.7,0,0,0-.178.307,1.061,1.061,0,0,0-.121.537l.05.372.14.33a1.042,1.042,0,0,0,.36.392.712.712,0,0,0,.307.18,1.052,1.052,0,0,0,.537.119l.37-.05.33-.14a1.4,1.4,0,0,0,.5-.5l.026-.033a1.336,1.336,0,0,0,0-1.34Z" transform="translate(-2135.596 -2104.688)" fill="#ffa55a"/>
    <path id="Path_830" data-name="Path 830" d="M2456.541,2565.014a.589.589,0,0,0-.312,1.135,4.4,4.4,0,0,1,2.6,1.957c.256.413,1.011.149.826-.345A4.439,4.439,0,0,0,2456.541,2565.014Z" transform="translate(-2050.266 -2141.222)" fill="#fff"/>
    <path id="Path_831" data-name="Path 831" d="M2489.463,2548.317a3.239,3.239,0,0,0-2.469-.826.494.494,0,0,0-.117.892,11.478,11.478,0,0,1,2.076,1.006,14.839,14.839,0,0,1,1.693,1.937c.35.437,1.011-.12.755-.582A7.862,7.862,0,0,0,2489.463,2548.317Z" transform="translate(-2076.006 -2126.572)" fill="#fff"/>
    <path id="Path_832" data-name="Path 832" d="M2518.261,2532.764a6.047,6.047,0,0,0-2.421-1.336.573.573,0,0,0-.3,1.1,5.033,5.033,0,0,1,1.652.875c.39.289,1.321.811,1.374,1.351.071.669,1.108.7,1.069,0A2.988,2.988,0,0,0,2518.261,2532.764Z" transform="translate(-2099.786 -2113.181)" fill="#fff"/>
    <path id="Path_833" data-name="Path 833" d="M2545.394,2509.963a.589.589,0,0,0-.314,1.135,3.881,3.881,0,0,1,1.582.905c.4.38.637,1.062,1.12,1.321a.4.4,0,0,0,.573-.238c.21-.686-.5-1.5-.943-1.951A4.578,4.578,0,0,0,2545.394,2509.963Z" transform="translate(-2124.445 -2095.257)" fill="#fff"/>
    <path id="Path_834" data-name="Path 834" d="M2901.877,2506.275c-.661-2.066-1.429-4.258-2.331-6.415-3.483-8.328-4.5-7.647-4.5-7.647s-1.179.908-6.63,2.045-7.432.311-7.432.311c-1.445-.9-.826,1.2-6.658,4.192-4,2.053-10.571,5.763-14.639,7.583a8.96,8.96,0,0,1-3.317,1.055.367.367,0,0,1-.212-.084h0c-1.07-.946-6.891-.1-9.688,5.576s2.043,9.542,2.043,9.542h56.109v-5.378s-.254-1.422-.785-3.662C2903.384,2511.49,2902.737,2508.988,2901.877,2506.275Z" transform="translate(-2375.673 -2080.448)" fill="#ffcc7c"/>
    <path id="Path_835" data-name="Path 835" d="M2915.417,2646.445c-1.627-.515-3.515-.272-5.2-.279q-2.643,0-5.285-.05c-3.577-.064-7.155-.144-10.736-.165-7.046-.048-14.093,0-21.141-.008-1.982,0-3.964.011-5.946.02-.991,0-1.981-.013-2.973.031a13.058,13.058,0,0,0-1.5.1,14.812,14.812,0,0,0-1.521.471.811.811,0,0,0,0,1.553c.414.112.786.32,1.2.423a6.959,6.959,0,0,0,1.321.127c.882.043,1.761.048,2.643.051l5.286.023c3.577.013,7.157,0,10.736,0,7.049,0,14.093-.019,21.141-.147,1.982-.036,3.964-.068,5.946-.074l2.973-.01a9.889,9.889,0,0,0,3.056-.271.938.938,0,0,0,0-1.8Z" transform="translate(-2388.144 -2208.788)" fill="#fff"/>
    <path id="Path_836" data-name="Path 836" d="M2953.99,2581.941c-4.971,3.316-33.474,6.333-35.015,2.781-1.206-2.769-2.747-6-4.778-7.234a8.946,8.946,0,0,1-3.317,1.056c.991.421,5.134,2.413,5.589,6.714.479,4.524,34.292,2.188,41.87-.726-.449-1.9-1.1-4.4-1.957-7.112A5.482,5.482,0,0,1,2953.99,2581.941Z" transform="translate(-2430.172 -2151.594)" fill="#ffa55a"/>
    <path id="Path_837" data-name="Path 837" d="M2970.5,2579.21Z" transform="translate(-2479.945 -2153.088)" fill="#ffa55a"/>
    <path id="Path_838" data-name="Path 838" d="M2968.75,2582.182h0v-.012Z" transform="translate(-2478.484 -2155.559)" fill="#ffa55a"/>
    <path id="Path_839" data-name="Path 839" d="M2971.83,2578.16h.01Z" transform="translate(-2481.055 -2152.212)" fill="#ffa55a"/>
    <path id="Path_840" data-name="Path 840" d="M2969.242,2586.638l-.01-.023-.011-.015A.185.185,0,0,1,2969.242,2586.638Z" transform="translate(-2478.876 -2159.258)" fill="#ffa55a"/>
    <path id="Path_841" data-name="Path 841" d="M2968.52,2583.792v-.042A.169.169,0,0,1,2968.52,2583.792Z" transform="translate(-2478.292 -2156.878)" fill="#ffa55a"/>
    <path id="Path_842" data-name="Path 842" d="M2973.48,2577.45h.009Z" transform="translate(-2482.433 -2151.619)" fill="#ffa55a"/>
    <path id="Path_843" data-name="Path 843" d="M2968.76,2585.3v-.042C2968.761,2585.274,2968.761,2585.288,2968.76,2585.3Z" transform="translate(-2478.493 -2158.139)" fill="#ffa55a"/>
    <path id="Path_844" data-name="Path 844" d="M2970.012,2587.682l-.019-.023-.023-.018A.247.247,0,0,1,2970.012,2587.682Z" transform="translate(-2479.503 -2160.126)" fill="#ffa55a"/>
    <path id="Path_845" data-name="Path 845" d="M2968.806,2577.073a1.22,1.22,0,0,0-.5.292.967.967,0,0,0-.254.436.756.756,0,0,0-.018.4.728.728,0,0,0,.117.368.988.988,0,0,0,.355.355l.038.02-.183-.141.018.023a.221.221,0,0,0-.041-.042l.023.018-.136-.175.01.023a.208.208,0,0,0-.021-.038l.012.015-.091-.215v.021a.37.37,0,0,0-.012-.042v.021c-.011-.083-.021-.165-.033-.252v.02a.169.169,0,0,0,0-.042v.021c.012-.089.023-.18.036-.269h0v0l.292-.5h0l.225-.175h.005l.271-.113h.005l.307-.041h0l.321.043-.017-.008a.083.083,0,0,0,.028.008h-.012l.306.128-.02-.015a.742.742,0,0,0-.068-.036h-.013l.023.01.036.021-.272-.114h.021c.05.02.125.048.192.078-.035-.019-.074-.038-.117-.056a1.022,1.022,0,0,0-.33-.068,1.082,1.082,0,0,0-.238-.025,1.522,1.522,0,0,0-.243.038Z" transform="translate(-2477.874 -2151.268)" fill="#ffa55a"/>
    <path id="Path_846" data-name="Path 846" d="M2975.34,2577.19Z" transform="translate(-2483.986 -2151.402)" fill="#ffa55a"/>
    <path id="Path_847" data-name="Path 847" d="M2975.022,2577.1a1.243,1.243,0,0,0-.147-.053h-.021l-.289-.038h-.1a1.052,1.052,0,0,1,.238.025A1.035,1.035,0,0,1,2975.022,2577.1Z" transform="translate(-2483.251 -2151.249)" fill="#ffa55a"/>
    <path id="Path_848" data-name="Path 848" d="M2968.93,2577.676h0q-.1-.134-.2-.263l-.01-.01a2.914,2.914,0,0,0-.258-.2l-.091-.043c.023.012.046.023.068.036l.02.015-.305-.129-.321-.043-.307.041-.271.112-.224.175-.292.5c-.013.089-.025.18-.036.269a.94.94,0,0,0,.033.253l.091.215.136.175.183.14-.038-.02a.988.988,0,0,1-.355-.355.726.726,0,0,1-.117-.368.749.749,0,0,1,.018-.4.963.963,0,0,1,.254-.436,1.223,1.223,0,0,1,.5-.292l.035-.01a1.446,1.446,0,0,1,.242-.038,1.045,1.045,0,0,0-.322.05l-.33.14a1.076,1.076,0,0,0-.393.362,1.062,1.062,0,0,0-.251.477,1.593,1.593,0,0,0,.14,1.082l.218.284a1.563,1.563,0,0,0,.991.411l.373-.051a1.4,1.4,0,0,0,.619-.36l.22-.284a1.408,1.408,0,0,0,.191-.708,2.479,2.479,0,0,0-.058-.4A3.37,3.37,0,0,0,2968.93,2577.676Z" transform="translate(-2476.462 -2151.243)" fill="#ffa55a"/>
    <path id="Path_849" data-name="Path 849" d="M2977.23,2577.41l.017.008h.011A.076.076,0,0,1,2977.23,2577.41Z" transform="translate(-2485.563 -2151.586)" fill="#ffa55a"/>
    <path id="Path_850" data-name="Path 850" d="M2977.99,2577.621a1.043,1.043,0,0,0-.131-.061c.043.018.083.038.117.056Z" transform="translate(-2486.089 -2151.71)" fill="#ffa55a"/>
    <path id="Path_851" data-name="Path 851" d="M2977.28,2577.4l.272.114-.036-.021-.023-.01c-.066-.03-.142-.058-.192-.078Z" transform="translate(-2485.605 -2151.577)" fill="#ffa55a"/>
    <path id="Path_852" data-name="Path 852" d="M3000.921,2559.228l-.292-.228a1.442,1.442,0,0,0-.731-.2,1.081,1.081,0,0,0-.558.124,1.1,1.1,0,0,0-.466.3,1.6,1.6,0,0,0-.423,1.022c.017.129.033.258.051.385a1.456,1.456,0,0,0,.372.639l.294.226a1.428,1.428,0,0,0,.73.2,1.1,1.1,0,0,0,.558-.125,1.063,1.063,0,0,0,.466-.3,1.081,1.081,0,0,0,.3-.466,1.1,1.1,0,0,0,.125-.558c-.018-.127-.035-.256-.053-.385A1.43,1.43,0,0,0,3000.921,2559.228Z" transform="translate(-2503.279 -2136.051)" fill="#ffa55a"/>
    <path id="Path_853" data-name="Path 853" d="M3031.765,2542.853l-.284-.221a1.4,1.4,0,0,0-.712-.192,1.45,1.45,0,0,0-1.409,1.409l.051.375a1.4,1.4,0,0,0,.362.621l.286.221a1.4,1.4,0,0,0,.71.191,1.445,1.445,0,0,0,1.409-1.408l-.05-.375A1.411,1.411,0,0,0,3031.765,2542.853Z" transform="translate(-2529.083 -2122.391)" fill="#ffa55a"/>
    <path id="Path_854" data-name="Path 854" d="M3057.688,2521.925a1.038,1.038,0,0,0-.359-.392.707.707,0,0,0-.307-.18,1.055,1.055,0,0,0-.537-.119l-.37.05-.33.141a1.061,1.061,0,0,0-.392.358.7.7,0,0,0-.178.307,1.058,1.058,0,0,0-.12.537l.049.372c.048.111.094.222.141.33a1.042,1.042,0,0,0,.36.392.71.71,0,0,0,.307.18,1.051,1.051,0,0,0,.537.119l.37-.05.33-.14a1.387,1.387,0,0,0,.5-.5l.027-.033a1.323,1.323,0,0,0,0-1.34Z" transform="translate(-2550.567 -2104.688)" fill="#ffa55a"/>
    <path id="Path_855" data-name="Path 855" d="M2953.6,2565.014a.589.589,0,0,0-.314,1.135,4.391,4.391,0,0,1,2.6,1.957c.256.413,1.011.149.826-.345A4.459,4.459,0,0,0,2953.6,2565.014Z" transform="translate(-2465.229 -2141.222)" fill="#fff"/>
    <path id="Path_856" data-name="Path 856" d="M2986.523,2548.317a3.239,3.239,0,0,0-2.469-.826.494.494,0,0,0-.117.892,11.528,11.528,0,0,1,2.077,1.006,15.105,15.105,0,0,1,1.691,1.937c.352.437,1.011-.12.755-.582A7.855,7.855,0,0,0,2986.523,2548.317Z" transform="translate(-2490.968 -2126.572)" fill="#fff"/>
    <path id="Path_857" data-name="Path 857" d="M3015.321,2532.764a6.041,6.041,0,0,0-2.421-1.336.573.573,0,0,0-.3,1.1,5.056,5.056,0,0,1,1.652.875c.389.289,1.321.811,1.374,1.351.071.669,1.108.7,1.069,0A2.99,2.99,0,0,0,3015.321,2532.764Z" transform="translate(-2514.748 -2113.181)" fill="#fff"/>
    <path id="Path_858" data-name="Path 858" d="M3042.458,2509.963a.589.589,0,0,0-.312,1.135,3.885,3.885,0,0,1,1.581.905c.4.38.637,1.062,1.12,1.321a.4.4,0,0,0,.58-.236c.209-.686-.5-1.5-.941-1.951A4.59,4.59,0,0,0,3042.458,2509.963Z" transform="translate(-2539.412 -2095.257)" fill="#fff"/>
    <path id="Path_859" data-name="Path 859" d="M2576.227,2490.74a13.379,13.379,0,0,0-3.138.866,34.8,34.8,0,0,1-3.487.825,24.613,24.613,0,0,1-7.032.3c-.4-.043-.474.6-.094.7a16.777,16.777,0,0,0,6.982.215,33.907,33.907,0,0,0,3.647-.811,11.061,11.061,0,0,0,3.374-1.148A.508.508,0,0,0,2576.227,2490.74Z" transform="translate(-2139.103 -2079.23)"/>
    <path id="Path_860" data-name="Path 860" d="M3027.908,2364.128a9.517,9.517,0,0,0-2.733-.125q-1.537,0-3.071-.035c-1.993-.045-3.982-.165-5.971-.3-3.964-.279-7.9-.88-11.841-1.381-.632-.081-.743.938-.148,1.095a70.448,70.448,0,0,0,11.829,1.829c1.982.165,3.979.243,5.969.274.969.015,1.939.016,2.909,0a9.2,9.2,0,0,0,3.057-.261A.575.575,0,0,0,3027.908,2364.128Z" transform="translate(-2507.706 -1971.99)"/>
    <rect id="Rectangle_251" data-name="Rectangle 251" width="259.949" height="10.491" transform="translate(272.454 281.211)" fill="#1a1b16"/>
    <rect id="Rectangle_252" data-name="Rectangle 252" width="9.793" height="84.189" transform="translate(244.752 348.938)" fill="#1a1b16"/>
    <path id="Path_861" data-name="Path 861" d="M1913.172,2004.288c-9.452-.8-23.231-.48-23.071,7.049,0,0-4.966,17.783-3.845,29.8s5.285,32.208,12.176,42.294,7.209,16.5,7.209,16.5,11.7.641,13.458-7.049S1922.625,2005.089,1913.172,2004.288Z" transform="translate(-1574.645 -1672.873)" fill="#ff8141"/>
    <path id="Path_862" data-name="Path 862" d="M1418.8,1022.749c-1.607-.185-3.036-2.562-4.927-5.667a55.806,55.806,0,0,0-5.077-7.318c-5-5.854-10.432-5.109-10.432-5.109-1.407,0-3.511.745-10.11,4.684s-7.664,32.782-1.6,36.933,14.9,2.235,21.713-.745a11.607,11.607,0,0,0,2.174-1.252c5.1-3.708,6.772-10.964,6.872-13.223.106-2.555,1.279-2.555,4.045-4.258S1421.566,1023.068,1418.8,1022.749Z" transform="translate(-1154.358 -838.572)" fill="#ff9358"/>
    <path id="Path_863" data-name="Path 863" d="M1379.516,1350.468s-15.012-3.189-18.415-4.577-22.991-33.2-24.8-36.082-4.256-6.067-13.091-8.093c-.253-.06-.5-.117-.742-.18-8.194-2.066-9.882-5.781-9.882-5.781s-16.943-.745-16.517,3.087c.206,1.842-.844,3.733-2.312,5.342a16.876,16.876,0,0,1-5.142,3.812,5.19,5.19,0,0,0-3.194,3.726s-2.872,4.79-5.959,18.518-7.13,26.29-2.767,31.712h0c4.364,5.426,15.432,7.555,15.432,7.555v9.046s1.031.9,2.781,2.2c10.107,1.576,30.865,1.881,34.412.851,3.1-.9,8.435-4.79,11.624-8.736l2.162-14.11a17.449,17.449,0,0,0,9.048,4.79c5.216.745,31.611-.636,31.611-.636C1384.625,1354.619,1379.516,1350.468,1379.516,1350.468Z" transform="translate(-1064.304 -1081.568)" fill="#ffcc7c"/>
    <path id="Path_864" data-name="Path 864" d="M2018.479,2541.748c-1.7-.026-3.469.01-5.153-.149-.375-.035-.746-.079-1.112-.135-.228-.036-.467-.083-.715-.137-5.238-1.156-14.517-6.356-15.876-8.32-1.42-2.056-2.178-.552-2.178-.552s0,.71-4.534,1.027-6.349-.464-6.349-.464c-1.939-1.293-1.282,6.8-1.817,12.333-.017.18-.033.359-.055.534a24.774,24.774,0,0,0-.112,4.547,14.8,14.8,0,0,0,.826,4.223h44.242a2.877,2.877,0,0,0,1.321-1.113,6.274,6.274,0,0,0,.923-3.039,9.773,9.773,0,0,0-1.766-6.354C2024.544,2542.049,2021.642,2541.794,2018.479,2541.748Z" transform="translate(-1653.478 -2113.613)" fill="#0055a4"/>
    <path id="Path_865" data-name="Path 865" d="M2013.35,2590.5c-1.156,2.846-4.405,7.519-13.417,7.7a47.244,47.244,0,0,1-19.159-3.944c-.017.18-.033.358-.054.533a24.78,24.78,0,0,0-.113,4.547,14.809,14.809,0,0,0,.826,4.223h36.59a24.543,24.543,0,0,1,.165-6.965,17.63,17.63,0,0,0,.315-5.946C2016.807,2590.622,2015.035,2590.659,2013.35,2590.5Z" transform="translate(-1653.503 -2162.513)" fill="#003c68"/>
    <path id="Path_866" data-name="Path 866" d="M2174.669,2591.05c-.23-.035-2.549,10.615-2.549,10.833,0,0,9.745,1.67,14.792,1.019a6.275,6.275,0,0,0,.923-3.039,9.773,9.773,0,0,0-1.766-6.354C2183.464,2590.032,2179.725,2591.841,2174.669,2591.05Z" transform="translate(-1813.431 -2162.972)" fill="#fff"/>
    <path id="Path_867" data-name="Path 867" d="M2178.44,2590.241a26.257,26.257,0,0,1-4.582-.213l-.084-.008-.058.05c-.355.3-2.6,10.868-2.6,10.954v.14l.137.023a87.692,87.692,0,0,0,12.057,1.169,22.307,22.307,0,0,0,2.78-.15l.074-.008.041-.063a6.383,6.383,0,0,0,.953-3.12,9.87,9.87,0,0,0-1.8-6.465C2183.577,2590.161,2181.309,2590.2,2178.44,2590.241Zm8.4,8.754h0a6.16,6.16,0,0,1-.854,2.9c-4.639.57-13.236-.791-14.51-1,.226-1.321,2.081-9.58,2.444-10.518a26.794,26.794,0,0,0,4.529.2c2.775-.043,4.968-.077,6.658,2.177a9.629,9.629,0,0,1,1.732,6.24Z" transform="translate(-1812.596 -2162.113)" fill="#0055a4"/>
    <path id="Path_868" data-name="Path 868" d="M1992.445,2644.75c-4.818,0-8.343.012-10.485.035a15.543,15.543,0,0,0,.758,3.9h44.1c1.143-.474,1.916-1.894,2.091-3.822h-.253C2013.135,2644.792,2000.961,2644.75,1992.445,2644.75Z" transform="translate(-1654.679 -2207.803)" fill="#fff"/>
    <path id="Path_869" data-name="Path 869" d="M1991.543,2644.081c8.519,0,20.707.036,36.226.107h.051c-.2,1.757-.909,3.045-1.943,3.493h-43.944a15.573,15.573,0,0,1-.7-3.568c2.147-.021,5.616-.033,10.3-.033v-.331c-4.521,0-8.351.01-10.663.038a14.727,14.727,0,0,0,.826,4.223h44.241c1.335-.532,2.1-2.19,2.238-4.152-4.284-.02-23.414-.109-36.639-.109Z" transform="translate(-1653.777 -2206.968)" fill="#0055a4"/>
    <path id="Path_870" data-name="Path 870" d="M2064.035,2550.6c-.872.32-1.528,1.4-2.184,2.043a7.56,7.56,0,0,1-2.478,1.622c-.34.146-.165.717.187.692a4.352,4.352,0,0,0,2.885-1.111c.79-.717,2.107-1.644,2.229-2.76a.5.5,0,0,0-.641-.485Z" transform="translate(-1719.154 -2129.191)" fill="#fff"/>
    <path id="Path_871" data-name="Path 871" d="M2086.69,2562.409a11.311,11.311,0,0,0-1.952,1.8,19.1,19.1,0,0,1-2.327,1.662c-.446.281-.165,1.047.37.876a9.226,9.226,0,0,0,2.8-1.452,5,5,0,0,0,2-2.2A.611.611,0,0,0,2086.69,2562.409Z" transform="translate(-1738.354 -2139.005)" fill="#fff"/>
    <path id="Path_872" data-name="Path 872" d="M2112.559,2576.776c-.677.1-1.2.766-1.721,1.176-.643.507-1.272,1.036-1.934,1.52-.272.2-.124.733.251.595a11.754,11.754,0,0,0,2.312-1.084c.635-.408,1.472-.826,1.7-1.6C2113.286,2576.988,2112.914,2576.723,2112.559,2576.776Z" transform="translate(-1760.539 -2151.051)" fill="#fff"/>
    <path id="Path_873" data-name="Path 873" d="M2134.441,2582.17a1.347,1.347,0,0,0-.725.6,6.2,6.2,0,0,1-.945.9c-.763.626-1.526,1.247-2.284,1.88-.4.33.109.918.533.693a17.78,17.78,0,0,0,2.734-1.756c.613-.48,1.478-1.1,1.3-1.964a.5.5,0,0,0-.61-.347Z" transform="translate(-1778.553 -2155.545)" fill="#fff"/>
    <path id="Path_874" data-name="Path 874" d="M2001.765,2528.723a8.941,8.941,0,0,1-5.082,1,49.6,49.6,0,0,1-5.361-.132.427.427,0,0,0-.368.641c.522.694,1.376.669,2.18.712,1.181.063,2.367.086,3.549.119a9.87,9.87,0,0,0,5.769-1.168C2003.185,2529.423,2002.5,2528.243,2001.765,2528.723Z" transform="translate(-1662.139 -2110.846)" fill="#d3441e"/>
    <path id="Path_875" data-name="Path 875" d="M1298.85,1569.92c.639,5.639.745,7.875-4.256,7.13a20.034,20.034,0,0,1-8.194-3.084c4.364,5.426,15.432,7.555,15.432,7.555.319-13.943-6.387-31.4-6.387-31.4C1292.252,1546.5,1298.211,1564.278,1298.85,1569.92Z" transform="translate(-1074.002 -1293.57)" fill="#ffa55a"/>
    <rect id="Rectangle_253" data-name="Rectangle 253" width="78.547" height="10.217" rx="5.109" transform="translate(212.398 340.955)" fill="#d80010"/>
    <path id="Path_876" data-name="Path 876" d="M1343.78,2605.4v3.219h57.681v-3.512l-29.377-8.622Z" transform="translate(-1121.905 -2167.514)" fill="#1a1b16"/>
    <path id="Path_877" data-name="Path 877" d="M1922.175,1907.658a9.575,9.575,0,0,0-1.969-1.126c-7.134-3.183-24.144-4.481-24.144-4.481l-8.972,26.683s9.933.874,16.5,1.835c0,0-1.124,25.312.8,37.97s12.495,43.257,12.495,43.257h9.292s.322-61.842,1.123-76.421c.221-4.023.319-7.632.24-10.832C1927.332,1916.142,1925.889,1910.553,1922.175,1907.658Z" transform="translate(-1575.479 -1587.772)" fill="#ff9358"/>
    <path id="Path_878" data-name="Path 878" d="M1422.5,1565.717c3.33,4.862,5.672,14.5,1.62,19.541s-23.592,7.383-32.328,6.575a74.883,74.883,0,0,1-11.928-2.023v3.3s1.031.9,2.781,2.2c10.106,1.576,30.865,1.881,34.412.851,3.1-.9,8.435-4.79,11.625-8.736l2.162-14.11c-5.616-7.18-13.787-20.289-13.787-20.289C1414.038,1550.679,1419.16,1560.853,1422.5,1565.717Z" transform="translate(-1152.026 -1296.107)" fill="#ffa55a"/>
    <path id="Path_879" data-name="Path 879" d="M1408.5,1295.785s-16.943-.745-16.517,3.087c.206,1.842-.844,3.733-2.312,5.342,7.763.826,21.721,1.609,28.708-2.643C1410.187,1299.5,1408.5,1295.785,1408.5,1295.785Z" transform="translate(-1160.215 -1081.594)" fill="#ffa55a"/>
    <path id="Path_880" data-name="Path 880" d="M1404.584,1024.8c2.846-1.579,7.1-5.626,9.249-7.763a55.82,55.82,0,0,0-5.077-7.319c-5-5.854-10.432-5.109-10.432-5.109-1.407,0-3.511.745-10.11,4.684s-7.664,32.782-1.6,36.933,14.9,2.235,21.713-.745a11.616,11.616,0,0,0,2.174-1.252,8.277,8.277,0,0,1-9.167-3.847C1398.008,1034.86,1400.643,1026.987,1404.584,1024.8Z" transform="translate(-1154.325 -838.53)" fill="#ff7c3c"/>
    <path id="Path_881" data-name="Path 881" d="M1904.424,2102.482a90.931,90.931,0,0,1-1.331-15.942c-.132-7.613.1-15.273.674-22.772l.025-.317-.317-.036c-3.4-.388-16.371-1.817-16.5-1.835l-.073.661c.127.013,12.364,1.366,16.187,1.8-.563,7.416-.783,14.991-.653,22.516a91.6,91.6,0,0,0,1.344,16.059c2.466,12.508,6.732,24.927,10.856,36.938l.306.892.626-.215-.307-.892C1911.135,2127.345,1906.879,2114.946,1904.424,2102.482Z" transform="translate(-1575.32 -1720.953)" fill="#d3441e"/>
    <path id="Path_882" data-name="Path 882" d="M1991.9,2068.047a5.3,5.3,0,0,0-1.64.221c-.715.129-1.434.241-2.157.314a17.85,17.85,0,0,0-3.605.3c-.177.056-.259.349-.058.438a8.319,8.319,0,0,0,3.817.21c1.156-.094,2.875-.1,3.835-.778A.383.383,0,0,0,1991.9,2068.047Z" transform="translate(-1656.647 -1726.339)" fill="#d3441e"/>
    <path id="Path_883" data-name="Path 883" d="M2088.056,1930.307a9.576,9.576,0,0,0-1.969-1.126,19.3,19.3,0,0,0-.3,3.384c0,6.39,3.1,11.927,7.634,14.627C2093.213,1938.791,2091.771,1933.2,2088.056,1930.307Z" transform="translate(-1741.36 -1610.422)" fill="#ff8141"/>
    <path id="Path_884" data-name="Path 884" d="M1420.209,1781.4c-9.084-1.584-20.875-7.563-23.25-12.853-.02-.043-.04-.089-.058-.132-2.235-5.323-1.914-3.726-1.914-3.726s-19.267,6.387-29.377,6.276a67.472,67.472,0,0,1-19.361-3.406c-1.652-.533-4.27,3.832-5.758,15.752s-2.023,24.479,5.758,29.7c4.831,3.237,35.833,4.834,60.246,4.612,14.9-.135,27.352-.95,29.9-2.478,6.7-4.045,7.875-27.462,7.343-28.631S1429.362,1783,1420.209,1781.4Z" transform="translate(-1118.41 -1472.908)" fill="#0064c4"/>
    <path id="Path_885" data-name="Path 885" d="M1621.459,1572.988q-1.566-2.567-3.181-5.1c-2.137-3.336-4.394-6.592-6.7-9.816-.3-.415-.991-.035-.7.406,2.147,3.315,4.243,6.671,6.334,10.027,1.031,1.652,2.06,3.317,3.067,4.988a35.305,35.305,0,0,0,3.148,4.889.444.444,0,0,0,.738-.429A28.9,28.9,0,0,0,1621.459,1572.988Z" transform="translate(-1344.835 -1300.456)"/>
    <path id="Path_886" data-name="Path 886" d="M1398.51,1591.113c-4.864,1.589-10.26,2.928-15.36,4.052a82.192,82.192,0,0,1-12.213,1.923,51.379,51.379,0,0,1-13.862-1.118,35.258,35.258,0,0,1-6.762-1.967c-.01.088-.018.175-.03.263l-.211-.368.241.106a54.7,54.7,0,0,0-1.2-17.838c-.661-3.085-1.4-6.151-2.091-9.228-.745-3.32-1.558-6.628-2.58-9.872a.272.272,0,0,0-.523.144c.923,3.168,1.617,6.39,2.312,9.614.672,3.092,1.409,6.169,2.056,9.266a54.812,54.812,0,0,1,1.135,18.183.41.41,0,0,0,.213.37,30.74,30.74,0,0,0,5.616,1.817,52.867,52.867,0,0,0,13.955,1.612,69.545,69.545,0,0,0,12.014-1.652c3.868-.806,7.707-1.774,11.5-2.871,1.961-.566,4.1-1.272,5.934-1.873C1399.015,1591.554,1398.865,1591,1398.51,1591.113Z" transform="translate(-1122.01 -1299.609)"/>
    <path id="Path_887" data-name="Path 887" d="M1381.412,1781.389c.012-.088.02-.175.03-.263l-.241-.106Z" transform="translate(-1153.145 -1486.732)"/>
    <path id="Path_888" data-name="Path 888" d="M1360.5,1775.563c6.455-1.794,26.8-5.34,36.492-6.99-.02-.043-.04-.089-.058-.132-2.235-5.323-1.914-3.726-1.914-3.726s-19.267,6.387-29.376,6.276a67.475,67.475,0,0,1-19.361-3.406c-1.652-.533-4.27,3.832-5.758,15.752s-2.023,24.479,5.758,29.7c4.831,3.237,35.833,4.834,60.246,4.611,0,0-36.941-.973-50.08-12.28S1351.908,1777.953,1360.5,1775.563Z" transform="translate(-1118.435 -1472.933)" fill="#073f7d"/>
    <path id="Path_889" data-name="Path 889" d="M1608.7,1796.516a7.973,7.973,0,0,1-.915,7.5,9.759,9.759,0,0,1-6.442,4.255c-.456.086-.256.757.188.686a10.572,10.572,0,0,0,7.309-4.778c1.4-2.228,2.548-6.035.723-8.331C1609.145,1795.326,1608.463,1795.995,1608.7,1796.516Z" transform="translate(-1336.711 -1498.954)"/>
    <path id="Path_890" data-name="Path 890" d="M1285.378,954.219c-5.322-1.817-13.943-.213-15.007.638,0,0-13.625-4.212-24.055,6.995s-12.027,25.148-8.2,37.708,18.52,22.031,26.29,14.9c0,0,12.553,5.854,24.8-4.364,0,0-10.643-.426-12.883-12.772s2.342-17.881,2.342-17.881,1.277,2.235,4.471.106,5.887-3.976,7.2-7.309a4.4,4.4,0,0,0,5.146-2.056C1297.509,966.991,1290.7,956.027,1285.378,954.219Z" transform="translate(-1032.111 -795.797)" fill="#1a1b16"/>
    <path id="Path_891" data-name="Path 891" d="M1377.666,1290.694a17.311,17.311,0,0,1-1.914-1.614,16.5,16.5,0,0,1-2.879-3.746c-.251-.444-.917-.051-.682.4a17.3,17.3,0,0,0,2.88,4.028,15.373,15.373,0,0,0,1.76,1.566,5.145,5.145,0,0,0,2.129,1.224.383.383,0,0,0,.368-.634A8.014,8.014,0,0,0,1377.666,1290.694Z" transform="translate(-1145.582 -1072.755)" fill="#ffa55a"/>
    <path id="Path_892" data-name="Path 892" d="M1488.3,1093.112a5.6,5.6,0,0,0-1.414,2.443,10.89,10.89,0,0,0-.609,2.9c-.031.388.623.482.684.094a10.479,10.479,0,0,1,.826-2.765c.358-.776.955-1.46,1.245-2.251C1489.19,1093.079,1488.6,1092.877,1488.3,1093.112Z" transform="translate(-1240.863 -912.362)" fill="#ffa55a"/>
    <path id="Path_893" data-name="Path 893" d="M1555.4,1052.285a7.8,7.8,0,0,0,.363,1.63,19.064,19.064,0,0,1,.33,1.982.279.279,0,0,0,.557,0c.15-1.184.165-2.89-.661-3.855C1555.793,1051.8,1555.4,1052,1555.4,1052.285Z" transform="translate(-1298.573 -878.067)" fill="#ffa55a"/>
    <path id="Path_894" data-name="Path 894" d="M1569.448,1110.9c0-.015-.013-.03-.018-.046a.179.179,0,0,0,.018.046Z" transform="translate(-1310.285 -927.252)" fill="#1a1b16"/>
    <path id="Path_895" data-name="Path 895" d="M1569.85,1111.728l-.03-.038C1569.85,1111.741,1569.858,1111.741,1569.85,1111.728Z" transform="translate(-1310.611 -927.954)" fill="#1a1b16"/>
    <path id="Path_896" data-name="Path 896" d="M1562.369,1106.755c-.046-.064-.1-.125-.147-.185,0,.013,0,.01-.03-.038l.03.038c-.013-.028-.071-.127-.081-.147l-.015-.03c0,.016.013.031.018.046a.176.176,0,0,1-.018-.046c-.025-.066-.049-.134-.079-.2-.02-.03-.033-.038-.04-.038,0,.069-.016,0,0,0v-.027a.613.613,0,0,0-1.2-.165c-.026.114-.063.224-.091.33a1.4,1.4,0,0,0,0,.6,1.517,1.517,0,0,0,.408.9.836.836,0,0,0,.991.127.821.821,0,0,0,.373-.918A2.027,2.027,0,0,1,1562.369,1106.755Z" transform="translate(-1302.981 -922.802)" fill="#1a1b16"/>
    <path id="Path_897" data-name="Path 897" d="M1568.673,1109.42C1568.657,1109.42,1568.673,1109.49,1568.673,1109.42Z" transform="translate(-1309.647 -926.058)" fill="#1a1b16"/>
    <path id="Path_898" data-name="Path 898" d="M1545.194,1183.347a7.253,7.253,0,0,1-3.009-.149,22.355,22.355,0,0,0-2.42-.872c-.284-.038-.441.33-.315.548a4.189,4.189,0,0,0,2.707,1.416,7.787,7.787,0,0,0,3.28-.061C1546.018,1184.1,1545.762,1183.261,1545.194,1183.347Z" transform="translate(-1285.219 -986.921)" fill="#c62f2e"/>
    <path id="Path_899" data-name="Path 899" d="M2083.664,2541.748c-1.7-.026-3.469.01-5.153-.149q-.565-.053-1.112-.135c-.228-.036-.469-.083-.717-.137-5.237-1.156-14.515-6.356-15.874-8.32-1.422-2.056-2.178-.552-2.178-.552s0,.71-4.535,1.027-6.349-.464-6.349-.464c-1.939-1.293-1.282,6.8-1.817,12.333-.017.18-.035.359-.055.534a24.518,24.518,0,0,0-.112,4.547,14.73,14.73,0,0,0,.826,4.223h44.242a2.874,2.874,0,0,0,1.313-1.113,6.254,6.254,0,0,0,.925-3.039,9.783,9.783,0,0,0-1.766-6.354C2089.729,2542.049,2086.827,2541.794,2083.664,2541.748Z" transform="translate(-1707.895 -2113.613)" fill="#0055a4"/>
    <path id="Path_900" data-name="Path 900" d="M2078.536,2590.5c-1.156,2.846-4.405,7.519-13.418,7.7a47.252,47.252,0,0,1-19.159-3.944c-.017.18-.035.358-.054.533a24.5,24.5,0,0,0-.112,4.547,14.729,14.729,0,0,0,.826,4.223h36.588a24.606,24.606,0,0,1,.165-6.965,17.687,17.687,0,0,0,.317-5.946C2081.993,2590.622,2080.221,2590.659,2078.536,2590.5Z" transform="translate(-1707.92 -2162.513)" fill="#003c68"/>
    <path id="Path_901" data-name="Path 901" d="M2239.869,2591.05c-.229-.035-2.548,10.615-2.548,10.833,0,0,9.736,1.67,14.791,1.019a6.254,6.254,0,0,0,.925-3.039,9.783,9.783,0,0,0-1.765-6.354C2248.664,2590.032,2244.925,2591.841,2239.869,2591.05Z" transform="translate(-1867.862 -2162.972)" fill="#fff"/>
    <path id="Path_902" data-name="Path 902" d="M2243.638,2590.241a26.243,26.243,0,0,1-4.58-.213l-.086-.008-.058.05c-.355.3-2.595,10.868-2.595,10.954v.14l.137.023a87.693,87.693,0,0,0,12.057,1.169,22.32,22.32,0,0,0,2.78-.15l.074-.008.041-.063a6.4,6.4,0,0,0,.953-3.12,9.87,9.87,0,0,0-1.8-6.465C2248.777,2590.161,2246.507,2590.2,2243.638,2590.241Zm8.4,8.754h0a6.146,6.146,0,0,1-.855,2.9c-4.638.57-13.236-.791-14.51-1,.228-1.321,2.083-9.58,2.446-10.518a26.794,26.794,0,0,0,4.529.2c2.775-.043,4.969-.077,6.658,2.177a9.629,9.629,0,0,1,1.732,6.24Z" transform="translate(-1867.027 -2162.113)" fill="#0055a4"/>
    <path id="Path_903" data-name="Path 903" d="M2057.645,2644.75c-4.818,0-8.344.012-10.485.035a15.469,15.469,0,0,0,.758,3.9h44.1c1.143-.474,1.918-1.894,2.093-3.822h-.252C2078.335,2644.792,2066.152,2644.75,2057.645,2644.75Z" transform="translate(-1709.11 -2207.803)" fill="#fff"/>
    <path id="Path_904" data-name="Path 904" d="M2056.741,2644.081c8.519,0,20.709.036,36.226.107h.053c-.2,1.757-.908,3.045-1.942,3.493h-43.944a15.548,15.548,0,0,1-.7-3.568c2.156-.021,5.616-.033,10.3-.033v-.331c-4.519,0-8.349.01-10.662.038a14.727,14.727,0,0,0,.826,4.223h44.242c1.334-.532,2.1-2.19,2.238-4.152-4.286-.02-23.416-.109-36.641-.109Z" transform="translate(-1708.208 -2206.968)" fill="#0055a4"/>
    <path id="Path_905" data-name="Path 905" d="M2129.233,2550.6c-.871.321-1.526,1.4-2.182,2.043a7.575,7.575,0,0,1-2.478,1.622c-.34.146-.165.717.187.692a4.353,4.353,0,0,0,2.885-1.112c.788-.717,2.107-1.644,2.229-2.76a.506.506,0,0,0-.642-.486Z" transform="translate(-1773.585 -2129.191)" fill="#fff"/>
    <path id="Path_906" data-name="Path 906" d="M2151.889,2562.409a11.641,11.641,0,0,0-1.952,1.8,19.078,19.078,0,0,1-2.327,1.662c-.446.281-.165,1.047.368.876a9.232,9.232,0,0,0,2.8-1.452,5.011,5.011,0,0,0,2-2.2A.611.611,0,0,0,2151.889,2562.409Z" transform="translate(-1792.784 -2139.005)" fill="#fff"/>
    <path id="Path_907" data-name="Path 907" d="M2177.759,2576.776c-.679.1-1.2.766-1.721,1.176-.644.507-1.273,1.036-1.934,1.52-.272.2-.124.733.25.595a11.717,11.717,0,0,0,2.313-1.084c.635-.408,1.473-.826,1.7-1.6C2178.485,2576.988,2178.114,2576.723,2177.759,2576.776Z" transform="translate(-1814.97 -2151.051)" fill="#fff"/>
    <path id="Path_908" data-name="Path 908" d="M2199.638,2582.17a1.358,1.358,0,0,0-.727.6,6.185,6.185,0,0,1-.943.9c-.763.626-1.528,1.247-2.286,1.88-.4.33.11.918.535.693a17.8,17.8,0,0,0,2.734-1.756c.613-.48,1.487-1.1,1.3-1.964a.5.5,0,0,0-.61-.347Z" transform="translate(-1832.981 -2155.545)" fill="#fff"/>
    <path id="Path_909" data-name="Path 909" d="M2066.963,2528.723a8.936,8.936,0,0,1-5.081,1,49.6,49.6,0,0,1-5.361-.132.427.427,0,0,0-.369.641c.521.694,1.376.669,2.18.712,1.181.063,2.367.086,3.55.119a9.872,9.872,0,0,0,5.769-1.168C2068.385,2529.423,2067.7,2528.243,2066.963,2528.723Z" transform="translate(-1716.57 -2110.846)" fill="#d3441e"/>
    <path id="Path_910" data-name="Path 910" d="M2043.688,2536.341c.187-1.853.613-3.726.634-5.588a.339.339,0,0,0-.661-.089,25.3,25.3,0,0,0-.925,5.677q-.3,2.974-.365,5.946c-.042,1.932-.033,3.875.112,5.8.125,1.643.065,3.654.826,5.152.2.395.765.047.588-.343a7.741,7.741,0,0,1-.408-2.717c-.056-.9-.091-1.817-.12-2.735-.063-1.882-.1-3.759-.048-5.641Q2043.413,2539.071,2043.688,2536.341Z" transform="translate(-1705.094 -2112.366)"/>
    <path id="Path_911" data-name="Path 911" d="M3008.16,1276.962s6.927-2.664,9.059-3.663,3.663,1.465,3.663,1.465c.2-1.333-5.549-8.863-5.549-8.863C3014.263,1264.467,3008.16,1276.962,3008.16,1276.962Z" transform="translate(-2511.385 -1056.598)" fill="#ffcc7c"/>
    <path id="Path_912" data-name="Path 912" d="M3112.948,1255.884c-1.561,2.92-12.027,10.866-12.027,10.866,7.393.533,9.042,6.138,9.042,6.138,1.332-4.2,4.812-14.865,4.412-16.187S3112.948,1255.884,3112.948,1255.884Z" transform="translate(-2588.824 -1048.252)" fill="#ffcc7c"/>
    <path id="Path_913" data-name="Path 913" d="M3022.258,1051.852c-.783.373-1.174,1.523-1.411,2.292a1.216,1.216,0,1,0,2.344.646,5.048,5.048,0,0,0,.4-2.4A.921.921,0,0,0,3022.258,1051.852Z" transform="translate(-2521.94 -877.911)" fill="#1a1b16"/>
    <path id="Path_914" data-name="Path 914" d="M3041.671,1026.589a4.865,4.865,0,0,0-2.445-1.285c-.356-.063-.517.476-.152.552a4.4,4.4,0,0,1,2.37,1.462c.473.517.842,1.434,1.514,1.683a.257.257,0,0,0,.331-.246C3043.258,1027.969,3042.215,1027.085,3041.671,1026.589Z" transform="translate(-2537.02 -855.832)" fill="#1a1b16"/>
    <g id="Group_304" data-name="Group 304" transform="translate(499.647 179.452)" opacity="0.55">
      <path id="Path_915" data-name="Path 915" d="M3050.04,1096.361c.122-.015.266-.036.349-.053l-.012-.012-.03-.081.184-.676c-.056.132-.259.208-.524.238A1.235,1.235,0,0,0,3050.04,1096.361Z" transform="translate(-3045.949 -1093.923)" fill="#d80010"/>
      <path id="Path_916" data-name="Path 916" d="M3039.528,1095.394q-.139-.1-.015-.025a.585.585,0,0,0,.294.091,2.82,2.82,0,0,0,.625,0l.2-.026a1.232,1.232,0,0,1-.033-.583,2.581,2.581,0,0,1-1.817-.431l.251.431c0-.018.008-.036.013-.053l.068.192c-.028-.046-.054-.093-.081-.139q-.158.595-.315,1.189a2.583,2.583,0,0,1,.707-.368C3039.484,1095.538,3039.571,1095.368,3039.528,1095.394Z" transform="translate(-3036.544 -1092.988)" fill="#d80010"/>
      <path id="Path_917" data-name="Path 917" d="M3042.725,1101a.493.493,0,0,0-.055.126,3.841,3.841,0,0,0,.725-.058c.182,0,.426-.03.661-.031a1.319,1.319,0,0,1-.11-.235A3.57,3.57,0,0,0,3042.725,1101Z" transform="translate(-3039.842 -1098.313)" fill="#d80010"/>
      <path id="Path_918" data-name="Path 918" d="M3044.177,1100.063a.387.387,0,0,0-.012-.04l-.2.026a2.842,2.842,0,0,1-.626,0,.585.585,0,0,1-.294-.091q-.124-.074.015.025c.043-.026-.044.144-.109.269A3.569,3.569,0,0,1,3044.177,1100.063Z" transform="translate(-3040.075 -1097.586)" fill="#d80010"/>
      <path id="Path_919" data-name="Path 919" d="M3040.634,1096.66a.441.441,0,0,0-.013.053c.027.046.053.093.081.139Z" transform="translate(-3038.13 -1094.858)" fill="#d80010"/>
      <path id="Path_920" data-name="Path 920" d="M3050.322,1100.283a2.709,2.709,0,0,1,.354.028.644.644,0,0,1,.01-.094l-.027-.026c-.083.016-.226.038-.348.053C3050.314,1100.256,3050.318,1100.269,3050.322,1100.283Z" transform="translate(-3046.219 -1097.805)" fill="#d80010"/>
      <path id="Path_921" data-name="Path 921" d="M3053.473,1104.848l-.063-.048.045.076Z" transform="translate(-3048.808 -1101.654)" fill="#d80010"/>
      <path id="Path_922" data-name="Path 922" d="M3052.66,1100.026c-.013-.012-.023,0-.03.015C3052.652,1100.036,3052.665,1100.03,3052.66,1100.026Z" transform="translate(-3048.156 -1097.664)" fill="#d80010"/>
      <path id="Path_923" data-name="Path 923" d="M3052.455,1100.14h-.035l.026.026A.167.167,0,0,1,3052.455,1100.14Z" transform="translate(-3047.981 -1097.763)" fill="#d80010"/>
      <path id="Path_924" data-name="Path 924" d="M3051.62,1101.73l.035.076h.01Z" transform="translate(-3047.313 -1099.091)" fill="#d80010"/>
      <path id="Path_925" data-name="Path 925" d="M3028.49,1102.28a3.086,3.086,0,0,0,2.905,1.777c1.183.041,2.717-.2,3.353-1.336a2.159,2.159,0,0,0,.284-1.23,2,2,0,0,1-.431.844C3033.4,1103.733,3029.8,1103.839,3028.49,1102.28Z" transform="translate(-3028.004 -1098.891)" fill="#d80010"/>
      <path id="Path_926" data-name="Path 926" d="M3026.484,1091c-.1.051-.208.106-.312.165a1.31,1.31,0,0,0-.586,1.442,2.005,2.005,0,0,0,.446.908c-.017-.041-.035-.081-.05-.124A2.3,2.3,0,0,1,3026.484,1091Z" transform="translate(-3025.545 -1090.133)" fill="#d80010"/>
      <path id="Path_927" data-name="Path 927" d="M3050.19,1092a1.341,1.341,0,0,0-.08.274c.264-.03.467-.106.523-.238l-.184.676.03.081.012.012h.035c0-.018.017-.027.03-.015s0,.01-.03.015a.169.169,0,0,0-.008.035l.117.117.1.023a.739.739,0,0,0,.567-1.345,5.491,5.491,0,0,0-.5-.292A1.379,1.379,0,0,0,3050.19,1092Z" transform="translate(-3046.053 -1090.417)" fill="#d80010"/>
      <path id="Path_928" data-name="Path 928" d="M3032.788,1088.7a1.064,1.064,0,0,0-.9.084,5.466,5.466,0,0,1,.5.292.739.739,0,0,1-.566,1.344l-.1-.023.33.33a.97.97,0,0,0-.469-.136c-.008.053-.02.084-.044.071l.208.357.063.048-.018.028-.044-.076a1.552,1.552,0,0,1-.39-.434c-.241,0-.486.025-.661.031a4.193,4.193,0,0,1-.725.058.51.51,0,0,1,.055-.125,2.583,2.583,0,0,0-.7.368c.106-.4.21-.793.315-1.189l-.251-.431a2.611,2.611,0,0,0,1.817.431,1.3,1.3,0,0,1,.7-.94,4.051,4.051,0,0,0-3.819-.043,2.3,2.3,0,0,0-.5,2.393c.015.043.033.083.049.124,1.321,1.559,4.912,1.453,6.111.054a2,2,0,0,0,.431-.844A2.115,2.115,0,0,0,3032.788,1088.7Z" transform="translate(-3027.126 -1087.873)" fill="#d80010"/>
      <path id="Path_929" data-name="Path 929" d="M3035.848,1085.957a6.8,6.8,0,0,0-3.84.149,2.338,2.338,0,0,0-.778.522,4.049,4.049,0,0,1,3.818.043,1.065,1.065,0,0,1,.9-.084,2.115,2.115,0,0,1,1.368,1.769A2.038,2.038,0,0,0,3035.848,1085.957Z" transform="translate(-3030.291 -1085.751)" fill="#d80010"/>
      <path id="Path_930" data-name="Path 930" d="M3052.52,1100.444l.127.023-.117-.117A.717.717,0,0,0,3052.52,1100.444Z" transform="translate(-3048.064 -1097.939)" fill="#d80010"/>
      <path id="Path_931" data-name="Path 931" d="M3051.933,1102.281c.025.013.036-.018.044-.071h-.087A.426.426,0,0,1,3051.933,1102.281Z" transform="translate(-3047.539 -1099.491)" fill="#d80010"/>
      <path id="Path_932" data-name="Path 932" d="M3052.42,1101.108a.969.969,0,0,1,.469.135l-.33-.33-.127-.023A1.692,1.692,0,0,1,3052.42,1101.108Z" transform="translate(-3047.981 -1098.389)" fill="#d80010"/>
      <path id="Path_933" data-name="Path 933" d="M3051.179,1102.19h-.129a1.554,1.554,0,0,0,.39.434l-.208-.357A.165.165,0,0,1,3051.179,1102.19Z" transform="translate(-3046.838 -1099.475)" fill="#d80010"/>
      <path id="Path_934" data-name="Path 934" d="M3051.83,1102.19a.167.167,0,0,0,.053.074c-.013-.025-.028-.049-.043-.074Z" transform="translate(-3047.489 -1099.475)" fill="#d80010"/>
      <path id="Path_935" data-name="Path 935" d="M3050.38,1100.75a1.316,1.316,0,0,0,.11.234h.129l-.035-.076.045.076h.087c0-.058.012-.14.017-.213A2.715,2.715,0,0,0,3050.38,1100.75Z" transform="translate(-3046.278 -1098.273)" fill="#d80010"/>
    </g>
    <path id="Path_936" data-name="Path 936" d="M3198.708,1125.12l-.028-.01h0C3198.786,1125.2,3198.773,1125.178,3198.708,1125.12Z" transform="translate(-2670.437 -939.157)" fill="#d3441e"/>
    <path id="Path_937" data-name="Path 937" d="M3198.53,1124Z" transform="translate(-2670.312 -938.23)" fill="#d3441e"/>
    <path id="Path_938" data-name="Path 938" d="M3198.334,1124h0l-.01.018C3198.255,1124.165,3198.333,1124,3198.334,1124Z" transform="translate(-2670.116 -938.23)" fill="#d3441e"/>
    <path id="Path_939" data-name="Path 939" d="M3198.67,1125v.017l.028.01a.209.209,0,0,0-.028-.027Z" transform="translate(-2670.428 -939.065)" fill="#d3441e"/>
    <path id="Path_940" data-name="Path 940" d="M3199.706,1125.637a.261.261,0,0,0-.105-.117.6.6,0,0,0,.106.117Z" transform="translate(-2671.206 -939.499)" fill="#d3441e"/>
    <path id="Path_941" data-name="Path 941" d="M3200.207,1126.407a.244.244,0,0,1-.026.19,2.289,2.289,0,0,0,.279-.182c.023-.02.126-.05.1-.071a.461.461,0,0,1-.106-.008.5.5,0,0,1-.264-.106.3.3,0,0,1,.017.177Z" transform="translate(-2671.69 -940.092)" fill="#d3441e"/>
    <path id="Path_942" data-name="Path 942" d="M3198.236,1123.968l-.013.028-.033.061c.03.023.056.046.079.068a1.2,1.2,0,0,0-.023-.175C3198.245,1123.958,3198.167,1124.124,3198.236,1123.968Z" transform="translate(-2670.028 -938.189)" fill="#d3441e"/>
    <path id="Path_943" data-name="Path 943" d="M3198.48,1123.92l-.01.023.01-.018Z" transform="translate(-2670.262 -938.164)" fill="#d3441e"/>
    <path id="Path_944" data-name="Path 944" d="M3198.66,1123.139v-.059l-.02.078.023.01A.18.18,0,0,1,3198.66,1123.139Z" transform="translate(-2670.404 -937.462)" fill="#d3441e"/>
    <path id="Path_945" data-name="Path 945" d="M3200.105,1116.526a1.006,1.006,0,0,0-1.184-.624c.191-.035-.23.04-.276.053h-.015A1.651,1.651,0,0,1,3200.105,1116.526Z" transform="translate(-2670.396 -931.452)" fill="#d3441e"/>
    <path id="Path_946" data-name="Path 946" d="M3199.676,1127.5h0C3199.654,1127.5,3199.653,1127.5,3199.676,1127.5Z" transform="translate(-2671.254 -941.152)" fill="#d3441e"/>
    <path id="Path_947" data-name="Path 947" d="M3199.78,1127.372h.028C3199.836,1127.332,3199.807,1127.35,3199.78,1127.372Z" transform="translate(-2671.356 -941.026)" fill="#d3441e"/>
    <path id="Path_948" data-name="Path 948" d="M3198.62,1125.09l.012.01h0Z" transform="translate(-2670.387 -939.14)" fill="#d3441e"/>
    <path id="Path_949" data-name="Path 949" d="M3196.457,1123a.466.466,0,0,1-.035.031c-.013.01-.122.053-.132.091.017-.066.152.017.274.111a1.939,1.939,0,0,0-.018-.2Z" transform="translate(-2668.442 -937.396)" fill="#d3441e"/>
    <path id="Path_950" data-name="Path 950" d="M3190.8,1118.534a.663.663,0,0,1-.413-.274,1.1,1.1,0,0,1,.119-1.29,1.753,1.753,0,0,1,.523-.486,1.539,1.539,0,0,1,.3-.124,1.464,1.464,0,0,0-.2.041,1.612,1.612,0,0,0-1.145,2.036,1.308,1.308,0,0,0,.791.765.692.692,0,0,1-.046-.311A1.592,1.592,0,0,1,3190.8,1118.534Z" transform="translate(-2663.09 -931.852)" fill="#d3441e"/>
    <path id="Path_951" data-name="Path 951" d="M3193.338,1119.017a2.457,2.457,0,0,0,1.262-1.557,1.19,1.19,0,0,0-.046-.606,1.652,1.652,0,0,0-1.475-.567,1.532,1.532,0,0,0-.3.124,1.75,1.75,0,0,0-.523.485,1.109,1.109,0,0,0-.119,1.29.661.661,0,0,0,.413.274,4.582,4.582,0,0,1,.423-.753.351.351,0,0,0-.008-.091c-.123-.094-.258-.177-.274-.111.01-.038.119-.079.132-.091l.035-.031-.625-.254a2.944,2.944,0,0,0,.692-.642c.042.33.084.649.125.974l.033.013.02-.078v.059a.269.269,0,0,0,0,.028l.733.3a.927.927,0,0,1-.22.585.584.584,0,0,1-.584.026.292.292,0,0,0-.009-.086l-.117.083a.464.464,0,0,1-.36.071,1.636,1.636,0,0,0-.076.358.7.7,0,0,0,.046.311A1.018,1.018,0,0,0,3193.338,1119.017Z" transform="translate(-2664.845 -931.779)" fill="#d3441e"/>
    <path id="Path_952" data-name="Path 952" d="M3195.8,1125.676l.117-.083-.055-.593a4.217,4.217,0,0,0-.423.753A.462.462,0,0,0,3195.8,1125.676Z" transform="translate(-2667.732 -939.065)" fill="#d3441e"/>
    <path id="Path_953" data-name="Path 953" d="M3197.639,1120.523a1.548,1.548,0,0,0-.347-.733,1.185,1.185,0,0,1,.046.606,2.458,2.458,0,0,1-1.262,1.557,1.02,1.02,0,0,1-.816.112,1,1,0,0,0,.517.52,1.852,1.852,0,0,0,.511-.139A1.931,1.931,0,0,0,3197.639,1120.523Z" transform="translate(-2667.582 -934.716)" fill="#d3441e"/>
    <path id="Path_954" data-name="Path 954" d="M3190.639,1114.329a2.018,2.018,0,0,0-2.236.228,1.977,1.977,0,0,0-1.036,2.2,1.558,1.558,0,0,0,1.762,1.059,1,1,0,0,1-.517-.52,1.309,1.309,0,0,1-.792-.765,1.618,1.618,0,0,1,1.145-2.037,1.5,1.5,0,0,1,.2-.041h.015c.047-.013.468-.088.276-.053a1,1,0,0,1,1.184.625,1.552,1.552,0,0,1,.347.733,1.915,1.915,0,0,1-1.349,1.924,1.846,1.846,0,0,1-.512.139.828.828,0,0,0,.1.041c.854.271,1.678-.57,1.955-1.3A1.813,1.813,0,0,0,3190.639,1114.329Z" transform="translate(-2660.935 -929.949)" fill="#d3441e"/>
    <path id="Path_955" data-name="Path 955" d="M3198.268,1125.1a.28.28,0,0,1,.031-.025h0c.022,0,.056-.04.028,0h0c.121,0,.066-.025-.165-.064-.013-.107-.028-.215-.041-.32l-.012-.01h.01v-.016c-.023-.021-.05-.045-.079-.068-.01.02-.02.04-.031.06l.055.6A1.628,1.628,0,0,0,3198.268,1125.1Z" transform="translate(-2669.878 -938.731)" fill="#d3441e"/>
    <path id="Path_956" data-name="Path 956" d="M3198.646,1124.043a.5.5,0,0,0,.265.106.451.451,0,0,0,.105.008c.025.022-.077.051-.1.071-.089.076-.286.177-.279.182a.245.245,0,0,0,.026-.19.3.3,0,0,0-.017-.177.62.62,0,0,1-.106-.117.514.514,0,0,0-.124-.058c.064.058.078.081-.027,0,.013.106.028.213.041.32.231.04.286.061.166.065h-.03a.251.251,0,0,0-.031.025,1.616,1.616,0,0,1-.205.155.3.3,0,0,0,.008.086.585.585,0,0,0,.585-.026.925.925,0,0,0,.219-.585l-.733-.3a.966.966,0,0,0,.131.315A.264.264,0,0,1,3198.646,1124.043Z" transform="translate(-2670.145 -937.905)" fill="#d3441e"/>
    <path id="Path_957" data-name="Path 957" d="M3198.5,1123.511l.008-.028-.033-.013.01.074A.267.267,0,0,0,3198.5,1123.511Z" transform="translate(-2670.262 -937.788)" fill="#d3441e"/>
    <path id="Path_958" data-name="Path 958" d="M3194.233,1118.5l.1.041c-.041-.33-.082-.649-.125-.974a2.816,2.816,0,0,1-.692.643l.625.254a.857.857,0,0,0,.079-.073Z" transform="translate(-2666.13 -932.862)" fill="#d3441e"/>
    <path id="Path_959" data-name="Path 959" d="M3198.531,1123.586h0c0,.058.017.116.023.175a.238.238,0,0,1,.03.026.511.511,0,0,1,.124.058.97.97,0,0,1-.13-.316l-.024-.01-.008.028C3198.541,1123.561,3198.536,1123.574,3198.531,1123.586Z" transform="translate(-2670.313 -937.83)" fill="#d3441e"/>
    <path id="Path_960" data-name="Path 960" d="M3197.931,1123.387l.013-.028.01-.023-.01-.074-.1-.041c0,.064.013.131.018.2l.04.031Z" transform="translate(-2669.736 -937.579)" fill="#d3441e"/>
    <path id="Path_961" data-name="Path 961" d="M3198,1124.41a.333.333,0,0,0,.009.091c.011-.02.021-.04.031-.059Z" transform="translate(-2669.87 -938.573)" fill="#d3441e"/>
    <path id="Path_962" data-name="Path 962" d="M3197.38,1122.56a.774.774,0,0,1-.079.073l.09.036Z" transform="translate(-2669.285 -937.028)" fill="#d3441e"/>
    <path id="Path_963" data-name="Path 963" d="M2983.664,1142.554a4.2,4.2,0,0,0-.84.469,3.538,3.538,0,0,1-1.364.33,9.592,9.592,0,0,1-3.059-.294.325.325,0,0,0-.173.626,8.3,8.3,0,0,0,3.761.482c.758-.111,1.933-.44,2.03-1.338a.283.283,0,0,0-.354-.276Z" transform="translate(-2486.206 -953.712)" fill="#d3441e"/>
    <path id="Path_964" data-name="Path 964" d="M3072.6,1183.335a11.109,11.109,0,0,0-2.233,1.017,23.971,23.971,0,0,1-2.553,1.022,25.25,25.25,0,0,1-5.277,1.1.372.372,0,0,0,0,.743,18.676,18.676,0,0,0,5.583-.737,20.363,20.363,0,0,0,2.466-.9,6.6,6.6,0,0,0,2.459-1.487.461.461,0,0,0-.444-.763Z" transform="translate(-2556.477 -987.755)" fill="#d3441e"/>
    <path id="Path_965" data-name="Path 965" d="M1588.363,1420.51a4.9,4.9,0,0,0-1.156,2.628,28.2,28.2,0,0,0-.626,3.23c-.23,1.662-.629,3.692.512,5.106.38.471,1.173-.144.839-.648a3.255,3.255,0,0,1-.271-2.255c.1-.983.218-1.957.4-2.927.165-.872.355-1.741.576-2.6a5.029,5.029,0,0,0,.33-2.375A.364.364,0,0,0,1588.363,1420.51Z" transform="translate(-1324.387 -1185.686)" fill="#ffa55a"/>
    <path id="Path_966" data-name="Path 966" d="M1607.887,1376.064c-.621-.109-1.222.395-1.652.795a5.167,5.167,0,0,0-1.146,1.577c-.261.552.539,1.037.826.484a4.372,4.372,0,0,1,.991-1.282c.373-.33.969-.535,1.219-.971A.408.408,0,0,0,1607.887,1376.064Z" transform="translate(-1340.011 -1148.649)" fill="#ffa55a"/>
    <path id="Path_967" data-name="Path 967" d="M3138.414,391.038a26.954,26.954,0,0,0-15.468-5.964c-6.491-.5-15.428.3-21.141,3.536-12.584,7.127-3.556,25.135,4.129,32.614,10.991,10.7,35.58,15.134,41.3-3.4C3149.95,409.007,3145.214,396.852,3138.414,391.038Z" transform="translate(-2584.337 -321.237)" fill="#fff0dc"/>
    <path id="Path_968" data-name="Path 968" d="M1518.738,825a3.85,3.85,0,1,0,3.852,3.851A3.85,3.85,0,0,0,1518.738,825Zm0,6.379a2.526,2.526,0,1,0,0-.007Z" transform="translate(-1264.753 -688.615)" fill="#fff"/>
    <path id="Path_969" data-name="Path 969" d="M1093.354,1355.22a3.852,3.852,0,1,0,3.85,3.851A3.852,3.852,0,0,0,1093.354,1355.22Zm0,6.38a2.53,2.53,0,1,1,2.529-2.53A2.53,2.53,0,0,1,1093.354,1361.6Z" transform="translate(-909.624 -1131.26)" fill="#fff"/>
    <path id="Path_970" data-name="Path 970" d="M1800.189,1264.25a3.85,3.85,0,1,0,3.852,3.851A3.85,3.85,0,0,0,1800.189,1264.25Zm0,6.379a2.529,2.529,0,1,1,2.53-2.529,2.529,2.529,0,0,1-2.53,2.529Z" transform="translate(-1499.717 -1055.316)" fill="#fff"/>
    <path id="Path_971" data-name="Path 971" d="M2286.82,1244.94a3.85,3.85,0,1,0,3.85,3.85A3.85,3.85,0,0,0,2286.82,1244.94Zm0,6.379a2.529,2.529,0,1,1,2.529-2.529A2.529,2.529,0,0,1,2286.82,1251.319Z" transform="translate(-1905.972 -1039.195)" fill="#fff"/>
    <circle id="Ellipse_193" data-name="Ellipse 193" cx="3.189" cy="3.189" r="3.189" transform="translate(467.481 217.174)" fill="#fff"/>
    <circle id="Ellipse_194" data-name="Ellipse 194" cx="3.189" cy="3.189" r="3.189" transform="translate(319.2 244.031)" fill="#fff"/>
    <path id="Path_972" data-name="Path 972" d="M1135.323,1916.61a3.191,3.191,0,1,0,3.189,3.191,3.191,3.191,0,0,0-3.189-3.191Z" transform="translate(-945.212 -1599.928)" fill="#fff"/>
    <path id="Path_973" data-name="Path 973" d="M2880.549,837.1a3.85,3.85,0,1,0,3.852,3.851A3.85,3.85,0,0,0,2880.549,837.1Zm0,6.379a2.529,2.529,0,1,1,2.531-2.529A2.529,2.529,0,0,1,2880.549,843.479Z" transform="translate(-2401.638 -698.717)" fill="#fff"/>
    <path id="Path_974" data-name="Path 974" d="M2779.317,604.69a5.148,5.148,0,1,0,5.15,5.149A5.149,5.149,0,0,0,2779.317,604.69Zm0,8.975a3.827,3.827,0,1,1,3.828-3.827,3.827,3.827,0,0,1-3.828,3.827Z" transform="translate(-2316.042 -504.693)" fill="#fff"/>
    <path id="Path_975" data-name="Path 975" d="M3357.851,1275.7a5.15,5.15,0,1,0,5.148,5.149A5.15,5.15,0,0,0,3357.851,1275.7Zm0,8.977a3.829,3.829,0,1,1,3.827-3.828,3.829,3.829,0,0,1-3.827,3.828Z" transform="translate(-2799.018 -1064.874)" fill="#fff"/>
    <path id="Path_976" data-name="Path 976" d="M946.707,2691.926c16.584.433,33.088-2.241,49.666-2.9,42.1-1.663,83.782,9.687,125.913,9.476,38.956-.2,77.281-10.262,116.216-11.6,41.341-1.427,84.935,6.636,122.608-10.45L900.33,2677.7C912.911,2688.516,930.121,2691.493,946.707,2691.926Z" transform="translate(-751.698 -2234.268)" fill="#fff0dc"/>
    <rect id="Rectangle_254" data-name="Rectangle 254" width="492.03" height="1.817" transform="translate(140.402 441.335)" fill="#ff8141"/>
    <path id="Path_977" data-name="Path 977" d="M1169.525,2232.531c.339.144.074.031-.165-.071Z" transform="translate(-976.293 -1863.61)" fill="#fff0dc"/>
    <path id="Path_978" data-name="Path 978" d="M1329.57,2276.76l2,2a2.837,2.837,0,0,0-.765-1.472,4.013,4.013,0,0,0-.5-.244C1330.059,2276.945,1329.818,2276.846,1329.57,2276.76Z" transform="translate(-1110.042 -1900.593)" fill="#fff0dc"/>
    <path id="Path_979" data-name="Path 979" d="M1053.024,2164.26C1052.816,2164.115,1052.659,2164.021,1053.024,2164.26Z" transform="translate(-878.99 -1806.552)" fill="#fff0dc"/>
    <path id="Path_980" data-name="Path 980" d="M978.16,2093.224C978.1,2093.154,978.143,2093.208,978.16,2093.224Z" transform="translate(-816.648 -1747.342)" fill="#fff0dc"/>
    <path id="Path_981" data-name="Path 981" d="M1331.57,2298.09l-2,2c.248-.049.5-.112.732-.176l.038-.013A3.419,3.419,0,0,0,1331.57,2298.09Z" transform="translate(-1110.042 -1918.4)" fill="#fff0dc"/>
    <path id="Path_982" data-name="Path 982" d="M1008.008,2098.97a2.836,2.836,0,0,1,.765,1.472q-.991-1-2-2c.248.086.5.185.732.284a4.023,4.023,0,0,1,.5.245,4.3,4.3,0,0,0-1.447-1.017,8.8,8.8,0,0,0-2.113-.425c-1.174-.185-2.342-.406-3.516-.6-2.355-.386-4.7-.884-7.021-1.422q-3.558-.826-7.036-1.954-1.706-.553-3.388-1.176-.807-.3-1.612-.618c-.248-.1-.5-.195-.74-.3l-.368-.15-.454-.188c.238.1.5.215.165.071l-.165-.071-.246-.106-.852-.375q-.851-.38-1.691-.778-1.62-.767-3.211-1.6-3.176-1.667-6.207-3.592c-2.017-1.282-4-2.6-5.925-4.023q-.372-.274-.743-.555a1.861,1.861,0,0,0-.165-.116c-.365-.239-.208-.145,0,0l.026.017a17.827,17.827,0,0,1-1.458-1.156q-1.444-1.174-2.836-2.413c-1.994-1.776-4-3.548-5.83-5.5-.5-.532-.956-1.1-1.437-1.652-.2-.236-.426-.459-.631-.7-.086-.1-.165-.2-.256-.305l-.1-.121c-.016-.016-.058-.069,0,0,.01.01.008,0-.048-.071a7.437,7.437,0,0,1-1.564-3.4c-.5-2.395-4.246-1.817-4.22.572a15.2,15.2,0,0,0,2.324,7.834,49.2,49.2,0,0,0,5.2,6.321,78.159,78.159,0,0,0,11.875,10.146,86.233,86.233,0,0,0,27.629,12.8,69.173,69.173,0,0,0,8.2,1.672c1.652.233,3.283.421,4.947.512.661.036,1.321.089,1.982.086a4.074,4.074,0,0,0,2.458-.852l-.038.013c-.245.064-.484.127-.732.177l2-2a3.42,3.42,0,0,1-1.23,1.817,2.655,2.655,0,0,0,1.889-2.519A2.6,2.6,0,0,0,1008.008,2098.97Z" transform="translate(-787.245 -1722.268)" fill="#fff0dc"/>
    <path id="Path_983" data-name="Path 983" d="M3551.93,1009.713c-.795-1.529-1.68-2.995-2.521-4.494a35.31,35.31,0,0,0-3.009-4.945l-.15-.2c.028.045.056.089.086.132-.124-.177-.124-.18-.086-.132-.1-.155-.2-.314-.305-.469q-.351-.54-.712-1.078c-.238-.359-.476-.719-.722-1.072-.149-.216-.3-.425-.464-.633.043.056-.443-.577-.375-.481l.056.076-.056-.076c-1.067-1.44-2.091-2.909-3.18-4.332a2.514,2.514,0,0,0-3.331-.874,2.462,2.462,0,0,0-.872,3.331c1.642,2.585,3.138,5.237,4.608,7.928.165.294.33.586.469.889l.058.132q-.216-.458.063.177a7.476,7.476,0,0,0,.361.737q.556,1.006,1.087,2.022.5.953.991,1.914c.087.165.165.342.259.512-.256-.5-.04-.083,0,.031.23.573.482,1.128.746,1.685q.992,2.078,1.9,4.19c.1.233.2.466.3.7l.1.225-.1-.225c-.074-.165.251.6.3.722.073.177.145.354.22.528.025.061.628,1.421.221.527.165.349.294.707.439,1.059q1.735,4.242,3.178,8.589a146.542,146.542,0,0,1,4.53,17.48q.448,2.25.826,4.514.174,1.062.33,2.126c.052.367.1.735.166,1.1l-.02-.144c-.069-.557.1.735.024.18v-.036c.025.19.05.378.073.568.367,2.9.661,5.825.793,8.754.068,1.521.083,3.044.01,4.565-.036.758-.107,1.511-.182,2.266.01-.061.018-.122.031-.182a.269.269,0,0,0,0-.028V1068c-.025.165-.1.89-.038.246v-.064c-.021.142-.04.286-.062.426-.06.378-.121.758-.192,1.135a28.752,28.752,0,0,1-1.115,4.38c-.235.647-.486,1.288-.706,1.941.013-.028.025-.056.038-.083.205-.424-.188.529-.043.094v-.011c-.078.165-.155.33-.229.5a6.393,6.393,0,0,0-.5,1.652,2.7,2.7,0,0,0,.671,2.532,2.544,2.544,0,0,0,2.53.661,6.506,6.506,0,0,0,2.478-1.472,17.469,17.469,0,0,0,1.574-1.817,16.9,16.9,0,0,0,2.341-4.595,28.148,28.148,0,0,0,1.237-9.048,103.636,103.636,0,0,0-1.934-18.865A125.731,125.731,0,0,0,3551.93,1009.713Z" transform="translate(-2952.005 -827.037)" fill="#fff0dc"/>
    <path id="Path_984" data-name="Path 984" d="M3598.286,1046.917c-.03-.043-.058-.088-.086-.132S3598.162,1046.74,3598.286,1046.917Z" transform="translate(-3003.955 -873.747)" fill="#fff0dc"/>
    <path id="Path_985" data-name="Path 985" d="M3603.66,1139.57l.1.224C3603.7,1139.674,3603.676,1139.6,3603.66,1139.57Z" transform="translate(-3008.528 -951.229)" fill="#fff0dc"/>
    <path id="Path_986" data-name="Path 986" d="M3582.68,1024.31l.056.076Z" transform="translate(-2991.013 -855.006)" fill="#fff0dc"/>
    <path id="Path_987" data-name="Path 987" d="M3665.2,1359.89l.02.143v.036C3665.3,1360.625,3665.125,1359.333,3665.2,1359.89Z" transform="translate(-3059.885 -1135.04)" fill="#fff0dc"/>
    <path id="Path_988" data-name="Path 988" d="M3656.9,1505.915c-.013.027-.024.055-.038.083v.011C3656.712,1506.444,3657.1,1505.491,3656.9,1505.915Z" transform="translate(-3052.914 -1256.973)" fill="#fff0dc"/>
    <path id="Path_989" data-name="Path 989" d="M3669.488,1458.16c-.014.06-.021.121-.032.182v.064C3669.387,1459.05,3669.463,1458.329,3669.488,1458.16Z" transform="translate(-3063.433 -1217.198)" fill="#fff0dc"/>
  </g>
</svg>
