<svg xmlns="http://www.w3.org/2000/svg" xmlns:xlink="http://www.w3.org/1999/xlink" width="619.986" height="489.081" viewBox="0 0 619.986 489.081">
  <defs>
    <linearGradient id="linear-gradient" x1="0.983" y1="0.344" x2="-0.277" y2="0.716" gradientUnits="objectBoundingBox">
      <stop offset="0" stop-color="#ebdcdc"/>
      <stop offset="1" stop-color="#cbb2aa"/>
    </linearGradient>
  </defs>
  <g id="Group_189" data-name="Group 189" transform="translate(-309.514 -9362.919)">
    <g id="Group_187" data-name="Group 187" transform="translate(309.514 9593.774)">
      <path id="Path_6" data-name="Path 6" d="M112.325,314.741,37.681,286.5,50.7,331.664l26.328,5.028,31.34,27.566,10.173-17.092,94.281,27.3,35.032,40.972,38.622,13.638L348.655,486.7l30.453-17.563,41.244,15.705L558.6,523.563l84.737,21.16h14.33l-90.9-61.179L517.8,479.811l-12.536-.956-.252-.079-67.821-21.251-1.241-.389L422.635,450.7l-2.412-1.166-13.514-13.2L392.6,431.949l-15.147-4.706-71.846-22.323-.408-.126-.47-.044-3.637-.341-5.759-.541-2.556-.24-7.314-4.281-37.54-53.612-5.069-2.925-4.112-.13-13.285-.422h-.025l-33.169-3.679-46.8-9.124-.595-.116-10.022-1.909-1.8-.343Z" transform="translate(-37.681 -286.497)" fill="#2e3d46" fill-rule="evenodd"/>
      <path id="Path_7" data-name="Path 7" d="M49.675,325.55l-6.32,52.523,20.568,46.813,37.8,12.693,45.687-52.625,49.007,45.835,21.8,29.311,24.562,5.034,72.2,45.607,72.445-18.926,38.706,24.509,24.194,22.285H642.31l-84.737-21.16L419.324,478.723,378.08,463.018l-30.453,17.563L285.45,422.962l-38.621-13.638L211.8,368.352l-94.281-27.3-10.173,17.092L76.063,320.28Z" transform="translate(-36.654 -280.383)" fill="#2a3944" fill-rule="evenodd"/>
      <path id="Path_8" data-name="Path 8" d="M71.747,490.88l35.966-23.7,28.124,8.245,23.913-33.4,27.428,42.126,34.362,10.463,26.646-14,33.228,32.346,77.481,6.6,7.892,9.129h80.647l-24.194-22.285L384.535,481.9,312.09,500.829l-72.2-45.608-21.946-12.883-24.413-21.462-49.007-45.835L98.841,427.667l-37.8-12.693L59.292,456.38Z" transform="translate(-33.77 -270.471)" fill="#273742" fill-rule="evenodd"/>
      <path id="Path_9" data-name="Path 9" d="M106.506,457.859s-19.557,12.8-35.966,23.7l-4.575,19.919,3.924,16.48,295.69,1.418c-4.533-5.153-7.891-9.129-7.891-9.129l-77.481-6.6L246.979,471.3l-11.365,5.97-12.784,6.716L199.8,469.975l-45.284-43.45L133.882,457.88Z" transform="translate(-32.562 -261.154)" fill="#25363e" fill-rule="evenodd"/>
    </g>
    <g id="Group_188" data-name="Group 188" transform="translate(404.648 9362.919)">
      <path id="Path_10" data-name="Path 10" d="M127.386,222.93c-.081.229-1.188,3.451.138,3.914a7.951,7.951,0,0,0,3.461.446,4.113,4.113,0,0,0,1.821-.347l-.288-3.19-4.13-2.337Z" transform="translate(-116.672 -67.421)" fill="#f4c8c2" fill-rule="evenodd"/>
      <path id="Path_11" data-name="Path 11" d="M239.012,265.8a18.934,18.934,0,0,0-3.816-.744c-.8.084-5.012,1.211-5.1.615s2.187-1.774,2.187-1.774a4.656,4.656,0,0,0-2.3-.539c-1.105.112-3.607.495-3.561-.549.076-1.722,2.054-3.274,4.187-3.534,2.865-.35,6.239,1.005,7.844,1.436,1.077.288,2.367,1.434,2.29,1.725S239.012,265.8,239.012,265.8Z" transform="translate(-98.655 -60.579)" fill="#efc8c2" fill-rule="evenodd"/>
      <path id="Path_12" data-name="Path 12" d="M287.142,298.992,262.306,284.3l-26.4-18.26,2.725-4.356,28.688,16.73,25.017,7.653,1.723,3.55Z" transform="translate(-96.938 -60.132)" fill="#0c1b1c" fill-rule="evenodd"/>
      <path id="Path_13" data-name="Path 13" d="M158.884,275.341l21.108,2.032c.887.1,17.67-37.622,24.338-42.868-5.09-5.18-8.738-10.1-14.214-15.283l-10.141-1.84C171.058,225.6,165.149,256.084,158.884,275.341Z" transform="translate(-110.878 -68.15)" fill="#e8f2f8" fill-rule="evenodd"/>
      <path id="Path_14" data-name="Path 14" d="M228.347,260.578c.87,1.324,5.878,7.867,6.272,6.446s-.575-2.967.446-3.461,5.842-.321,6.732-.067.939-1.834-1.314-3.735-9.127-2.282-9.127-2.282Z" transform="translate(-98.306 -60.894)" fill="#f8dfdf" fill-rule="evenodd"/>
      <path id="Path_15" data-name="Path 15" d="M188.832,239.418l20.316,13.456L234.33,267.2l4.3-4.106-26.164-17.4L194.807,226.88Z" transform="translate(-105.458 -66.432)" fill="#0c1b1c" fill-rule="evenodd"/>
      <path id="Path_16" data-name="Path 16" d="M165.409,262.409l20.369,6.9,21.231,36.1,9.025,39.641-5.362-.184s-14.132-33.638-14.988-34.816-21.342-28.125-21.342-28.125l-22.917,21L129.606,332.7s-4.7-1.221-4.57-3.046l16.892-35.235S164.326,263.519,165.409,262.409Z" transform="translate(-117.005 -60.001)" fill="#0c1b1c" fill-rule="evenodd"/>
      <path id="Path_17" data-name="Path 17" d="M193.5,207.541a73.024,73.024,0,0,1-5.956,10.134,16.994,16.994,0,0,1-3.806,3.859,18.052,18.052,0,0,0,3.45,6.941c.69.841.937,3.51.937,3.51l4.482-1.264a34.855,34.855,0,0,1,2.021-7.979,16.368,16.368,0,0,1,3.817-6.317Z" transform="translate(-106.381 -69.932)" fill="#f4cbc3" fill-rule="evenodd"/>
      <path id="Path_18" data-name="Path 18" d="M204.289,200.113c6.687,2.086,8.417,8.746,6.042,14.968-.7,1.826-2.942,3.1-3.694,4.313-.377.607.566,3.97.477,4.642-.148,1.124-2.759-.254-2.857-.161-2.138,2.037-5.855,4.109-8.872,3.176-7.778-2.408-5.633-7.374-5.821-10.895-.123-2.276-1.3-3.536-.384-5.908C191.881,203.226,197.15,197.888,204.289,200.113Z" transform="translate(-105.457 -71.369)" fill="#f8dfdf" fill-rule="evenodd"/>
      <path id="Path_19" data-name="Path 19" d="M188.405,217.7a10.3,10.3,0,0,0,1.6-2.63c.128-.37-.573-1.16-.582-1.531-.084-3.173,3.291-6.846,5.512-2.82.925,1.711-.273,4.243-.273,4.243,1.908-1.525,4.43-2.843,7.419-7.138,6.688,4.75,14.593,5.507,17.279-.648-4.547-1.017-6.533-10.993-21.841-10.488C186.975,194.245,184.535,213.064,188.405,217.7Z" transform="translate(-105.849 -71.935)" fill="#423330" fill-rule="evenodd"/>
      <path id="Path_20" data-name="Path 20" d="M193.667,206.833c1.47.549,2,2.772,1.181,4.964s-2.676,3.522-4.148,2.971-2-2.772-1.181-4.964S192.2,206.283,193.667,206.833Z" transform="translate(-105.404 -70.082)" fill="#f8dfdf" fill-rule="evenodd"/>
      <path id="Path_21" data-name="Path 21" d="M191.435,208.486c-1.377,1.777-1.659,4.074-.583,4.724a1.052,1.052,0,0,0,1.488-1.371c-.424-.727-.555-1.159-.071-1.538s.683.409,1.053-.505C194.021,208.075,192.811,206.713,191.435,208.486Z" transform="translate(-105.212 -69.911)" fill="#d8b9b5" fill-rule="evenodd"/>
      <path id="Path_22" data-name="Path 22" d="M189.948,218.7c-4.311,26.676-10.978,44.105-27.857,62.542l-10.327-8.5a175.282,175.282,0,0,0,21.482-43.521l8.017-11.842Z" transform="translate(-112.167 -68.15)" fill="#0c1b1c" fill-rule="evenodd"/>
      <path id="Path_23" data-name="Path 23" d="M195,225.2l-.655-.159s-3.078,15.741-5.653,25.815-12.64,26.6-12.64,26.6l4.381,5.241s8.169-14.167,12.537-26.944a187.306,187.306,0,0,0,6.5-24.82Z" transform="translate(-107.771 -66.765)" fill="#0c1b1c" fill-rule="evenodd"/>
      <path id="Path_24" data-name="Path 24" d="M185.718,223.917l2.317.7s-.283,4.679-.272,4.406S185.718,223.917,185.718,223.917Z" transform="translate(-106.022 -66.968)" fill="#d7e4ef" fill-rule="evenodd"/>
      <path id="Path_25" data-name="Path 25" d="M192.1,225.242l-4.648,3.539L193.2,227.5Z" transform="translate(-105.708 -66.728)" fill="#d7e4ef" fill-rule="evenodd"/>
      <path id="Path_26" data-name="Path 26" d="M191.385,225.591s1.105,5.829,1.075,5.525c-.014-.145.354-3.424.354-3.424-.208-.628-.689-4.417-.7-4.379Z" transform="translate(-104.996 -67.077)" fill="#fff" fill-rule="evenodd"/>
      <path id="Path_27" data-name="Path 27" d="M188.721,225.9c-.358.105-5.841,1.155-5.841,1.155s-1.591-8.338-.66-8.6a40.794,40.794,0,0,0,3.772-1.644Z" transform="translate(-106.708 -68.253)" fill="#fff" fill-rule="evenodd"/>
      <path id="Path_28" data-name="Path 28" d="M182.392,217.437,155.9,223.343l-24.265-.127-.412,5.482,25.051,2.166,28.788-1.307,2.025-11.865Z" transform="translate(-115.885 -68.141)" fill="#0c1b1c" fill-rule="evenodd"/>
      <path id="Path_29" data-name="Path 29" d="M328.253,400.022c.28.215,3.819,3.649,3.819,3.649s6.433,4.924,9.056,5.9,1.226,1.924-.455,1.834a44.727,44.727,0,0,1-7.1-1.049,37.513,37.513,0,0,1-4.432-1.264l-.314-.657-.452.452-2.91-.677-.172-4.206Z" transform="translate(-80.761 -35.095)" fill="#0c1b1c" fill-rule="evenodd"/>
      <path id="Path_30" data-name="Path 30" d="M293.019,329.979c-3.241.783-29.6,23.765-30.253,25.032s-2.682,41.7-2.682,41.7,4.85,1.574,4.785-.019,7.733-36.125,7.733-36.125L301.81,346.6,322.4,378.494l15.332,40.259L343,417.1l-9.916-43.828s-17.722-45.682-19.308-45.44S293.019,329.979,293.019,329.979Z" transform="translate(-92.562 -48.161)" fill="#0c1b1c" fill-rule="evenodd"/>
      <path id="Path_31" data-name="Path 31" d="M305.967,337.488l-22.723,3.238c-.856-.171-3.8-36.664-2.173-50.533,6.286-3.306,5.723-3.03,12.371-6.225l10.773,2.811C310.068,297.089,310.966,318.981,305.967,337.488Z" transform="translate(-88.851 -56.099)" fill="#e8f2f8" fill-rule="evenodd"/>
      <path id="Path_32" data-name="Path 32" d="M293.631,284.531c2.673,28.4,6.05,43.5,9.494,64,5.42,1.442,9.857.692,12.154-4.83-5.914-20.208-5.194-39.205-11.289-56.462Z" transform="translate(-86.491 -55.997)" fill="#0c1b1c" fill-rule="evenodd"/>
      <path id="Path_33" data-name="Path 33" d="M287.47,282.9c-3.825,14.4-2.667,41.067-1.275,57.728.157,1.885-.557,4.259-.315,5.865-2.262.99-10.392,3.777-9.97.768,2.514-17.917,0-55.438,1.988-64.4Z" transform="translate(-89.701 -56.299)" fill="#0c1b1c" fill-rule="evenodd"/>
      <rect id="Rectangle_2" data-name="Rectangle 2" width="270.049" height="2.218" transform="matrix(0.058, -0.998, 0.998, 0.058, 6.106, 272.255)" fill="#0c1b1c"/>
      <path id="Path_34" data-name="Path 34" d="M191.25,227.122c-.581-.361-4.468-2.364-4.86-1.7s-.569,3.007.505,3.8,1.984,1.629,3.131.1A5.669,5.669,0,0,0,191.25,227.122Z" transform="translate(-105.955 -66.719)" fill="#d3546e" fill-rule="evenodd"/>
      <path id="Path_35" data-name="Path 35" d="M187.127,227.807c-2.708,6.1-6,34.976-1.689,44.326,0,0,5.272,7.872,5.162,7.278s1.692-6.151,1.692-6.151c-5.487-10.423-6.2-25.709-2.553-44.139Z" transform="translate(-106.45 -66.264)" fill="#d3546e" fill-rule="evenodd"/>
      <path id="Path_36" data-name="Path 36" d="M258.975,105.94c-6.236,3.826-60.974,30.269-71.863,29.714-11.893-.6-5.066-6.318-18.707-8.113s-33.375,6.448-33.375,6.448a57.385,57.385,0,0,0,7.936-14.632c6.98-2.2,17.3-4.7,25.438-3.626,13.64,1.8,6.814,7.511,18.707,8.113C196.359,124.316,241.213,111.349,258.975,105.94Z" transform="translate(-115.196 -88.321)" fill="#f6475b" fill-rule="evenodd"/>
      <path id="Path_37" data-name="Path 37" d="M258.618,108.64c-17.762,5.409-62.616,18.376-71.863,17.9-11.893-.6-5.066-6.318-18.707-8.113-8.137-1.075-18.459,1.429-25.438,3.626,1.252-3.756,1.783-7.641.626-10.912-.165-.461-.331-.909-.484-1.335C139.468,100.94,137,98.082,137,98.082s2.02-.555,5.267-1.358c10-2.468,31.674-7.251,42-5.208,13.688,2.693,8.975,11.952,20.431,15.471s50.4,2.1,54.325,1.216C259.35,108.132,259.2,108.286,258.618,108.64Z" transform="translate(-114.839 -91.021)" fill="#f72059" fill-rule="evenodd"/>
      <path id="Path_38" data-name="Path 38" d="M352.268,320.085a18.944,18.944,0,0,0-3.817-.745c-.8.084-5.012,1.211-5.1.615s2.187-1.774,2.187-1.774a4.642,4.642,0,0,0-2.3-.537c-1.105.111-3.606.495-3.56-.55.074-1.721,2.053-3.274,4.187-3.534,2.864-.348,6.238,1.006,7.844,1.436,1.077.288,2.367,1.434,2.29,1.725S352.268,320.085,352.268,320.085Z" transform="translate(-78.157 -50.754)" fill="#efc8c2" fill-rule="evenodd"/>
      <path id="Path_39" data-name="Path 39" d="M341.668,316.562c.87,1.324,5.8,6.178,6.194,4.757s-.575-2.968.448-3.463,5.891-1.319,6.78-1.066.889-.834-1.363-2.735-9.775-2.323-9.775-2.323Z" transform="translate(-77.797 -51.074)" fill="#f8dfdf" fill-rule="evenodd"/>
      <path id="Path_40" data-name="Path 40" d="M302.723,286.82l25.235,18.851,23.63,10.583-2.069,3.919-.8,2.167-25.959-10.907-22.122-13.522Z" transform="translate(-85.223 -55.583)" fill="#0c1b1c" fill-rule="evenodd"/>
      <path id="Path_41" data-name="Path 41" d="M405.29,339.621l-29.231-6.105L350.1,319.683l2.088-4.382,26.134,9.678,31.95,4.111Z" transform="translate(-76.27 -50.428)" fill="#0c1b1c" fill-rule="evenodd"/>
      <path id="Path_42" data-name="Path 42" d="M407.544,373.529c-3.241.783-31.6,21.4-32.254,22.669s-2.682,41.695-2.682,41.695,4.85,1.574,4.785-.019,7.733-36.125,7.733-36.125l29.207-13.963,11.3,30.826,25.041,42.819,5.565-.618-19.919-47.427s-7.235-39.679-8.821-39.436S407.544,373.529,407.544,373.529Z" transform="translate(-72.197 -39.89)" fill="#0c1b1c" fill-rule="evenodd"/>
      <path id="Path_43" data-name="Path 43" d="M419.434,383.132l-21.118,2.18c-.856-.171-6.375-39.372-4.749-53.241,6.286-3.306,5.724-3.03,12.371-6.225l9.995,1.312C421.786,337.468,424.433,364.625,419.434,383.132Z" transform="translate(-68.458 -48.52)" fill="#e8f2f8" fill-rule="evenodd"/>
      <path id="Path_44" data-name="Path 44" d="M403.271,309.594c.1.788,5.821,3.544,4.618,8.216a11.907,11.907,0,0,0,.3,7.731,17.663,17.663,0,0,1-5.284,5.436c-.894.576-1.919,2.989-1.919,2.989l-3.8-2.514a34.033,34.033,0,0,0,.5-8.034,16.013,16.013,0,0,0-1.67-7.023Z" transform="translate(-67.96 -51.461)" fill="#f4cbc3" fill-rule="evenodd"/>
      <path id="Path_45" data-name="Path 45" d="M406.614,300.409c-6.334-2.611-13.46.629-15.275,6.886-.611,2.1-.269,4.234-.39,6.748-1.737,6.263.13,12.229,3.038,13.619,4.1,1.96,12.448-.242,13.97-6.752.509-2.181,2.832-.9,3.567-3.071C413.882,310.869,413.377,303.2,406.614,300.409Z" transform="translate(-68.998 -53.288)" fill="#f8dfdf" fill-rule="evenodd"/>
      <path id="Path_46" data-name="Path 46" d="M408.725,324.087a8.121,8.121,0,0,1,.52-4.11c1.856-2.487,2.925-7.225-1.261-5.585-1.766.71-2.447,3.362-2.447,3.362-.482-2.34-1.557-4.907-1.118-10.007-9.292,4.006-16.987-3.412-15.767-7.028,5.761.341,20.511-8.136,24.965,1.592C417.717,305.265,414.537,323.017,408.725,324.087Z" transform="translate(-69.316 -53.628)" fill="#423330" fill-rule="evenodd"/>
      <path id="Path_47" data-name="Path 47" d="M407.269,310.979c-1.45-.505-3.238.835-3.992,2.995s-.189,4.322,1.261,4.828,3.238-.835,3.992-3S408.719,311.486,407.269,310.979Z" transform="translate(-66.707 -51.23)" fill="#f8dfdf" fill-rule="evenodd"/>
      <path id="Path_48" data-name="Path 48" d="M407.458,313.446c-.074,2.2-1.3,4.1-2.514,3.917a1.028,1.028,0,0,1-.261-1.96c.772-.283,1.141-.526,1.014-1.112s-.769-.12-.477-1.039C405.77,311.519,407.532,311.251,407.458,313.446Z" transform="translate(-66.503 -51.048)" fill="#d8b9b5" fill-rule="evenodd"/>
      <path id="Path_49" data-name="Path 49" d="M406.369,323.527c-3.946,26.133-2.7,42.74,7.523,64.949,5.42,1.441,9.857.692,12.154-4.831-4.522-15.449-5.931-30.2-6.109-46.376l-.622-9.456Z" transform="translate(-66.462 -48.939)" fill="#0c1b1c" fill-rule="evenodd"/>
      <path id="Path_50" data-name="Path 50" d="M398.682,325.275l-.105.887s-1.831,15.58-2.438,25.731,2.962,33.318,2.962,33.318l-2.936,1.945s-5.216-18.774-5.473-31.978.9-29.558.9-29.558Z" transform="translate(-68.93 -48.623)" fill="#0c1b1c" fill-rule="evenodd"/>
      <path id="Path_51" data-name="Path 51" d="M403.651,326.728l-2.367-.04s-1.131,4.442-1.061,4.184S403.651,326.728,403.651,326.728Z" transform="translate(-67.199 -48.367)" fill="#d7e4ef" fill-rule="evenodd"/>
      <path id="Path_52" data-name="Path 52" d="M397.711,326.266l3.273,4.684-4.972-2.906Z" transform="translate(-67.961 -48.444)" fill="#d7e4ef" fill-rule="evenodd"/>
      <path id="Path_53" data-name="Path 53" d="M397.857,326.625s-2.768,5.1-2.649,4.824c.057-.132.692-3.295.692-3.295.381-.523,1.958-3.908,1.958-3.87Z" transform="translate(-68.107 -48.803)" fill="#fff" fill-rule="evenodd"/>
      <path id="Path_54" data-name="Path 54" d="M401.121,327.86c.3.2,5.1,2.818,5.1,2.818s3.968-7.291,3.18-7.81a39.881,39.881,0,0,1-3.023-2.657Z" transform="translate(-67.036 -49.54)" fill="#fff" fill-rule="evenodd"/>
      <path id="Path_55" data-name="Path 55" d="M291.65,268.434c-.149.639-3.819,2.853-5.123,6.545-.274.776.8,3.048.654,3.794-.865,4.291-2.127,4.988-2.135,4.987a13.675,13.675,0,0,0,4.24,5.99c.827.67,1.69,3.435,1.69,3.435l4.372-2.367a34.126,34.126,0,0,1,.368-8.041,16.019,16.019,0,0,1,2.416-6.8Z" transform="translate(-88.045 -58.911)" fill="#f4cbc3" fill-rule="evenodd"/>
      <path id="Path_56" data-name="Path 56" d="M294.54,259.1c6.8-.814,12.4,3.692,12.465,10.2.018,1.755-1.633,4.583-2.093,6.534-.253,1.071,2.088,3.115,1.754,4.185-.377,1.2-2.56,1.29-2.56,1.29-1.511,4.5-3.334,5.88-5.92,6.367-4.228.794-11.379-3.589-10.565-8.373-.115-1.252.422-4.105.344-5.534C287.565,266.429,287.278,259.972,294.54,259.1Z" transform="translate(-87.59 -60.617)" fill="#f8dfdf" fill-rule="evenodd"/>
      <path id="Path_57" data-name="Path 57" d="M287.6,280.866a8.273,8.273,0,0,0-.065-2.064c-.06-3.353-.266-10.135,3.327-7.431,1.509,1.159,1.368,4.738,1.368,4.738,1.094-2.123,2.818-4.308,3.766-9.338,9.593,1.906,12.5-1.536,13.024-3.533.394-1.5.022-1.131-3.876-2.5-4-1.4-9.435-5.124-16.392-1.727C278.962,259.031,282.294,278.275,287.6,280.866Z" transform="translate(-88.508 -60.868)" fill="#0c1b1c" fill-rule="evenodd"/>
      <path id="Path_58" data-name="Path 58" d="M288.547,268.014c1.479-.094,2.791,1.613,2.931,3.815s-.944,4.064-2.422,4.158-2.791-1.614-2.931-3.816S287.068,268.108,288.547,268.014Z" transform="translate(-87.852 -58.988)" fill="#f8dfdf" fill-rule="evenodd"/>
      <path id="Path_59" data-name="Path 59" d="M287.311,270.2c-.5,2.061.143,4.148,1.319,4.291a.992.992,0,0,0,.752-1.754c-.645-.463-.925-.783-.654-1.3s.745.087.712-.842C289.378,268.85,287.81,268.145,287.311,270.2Z" transform="translate(-87.666 -58.819)" fill="#d8b9b5" fill-rule="evenodd"/>
      <path id="Path_60" data-name="Path 60" d="M286.967,285.7l2.356.214s1.421,4.6,1.378,4.334S286.967,285.7,286.967,285.7Z" transform="translate(-87.697 -55.785)" fill="#d7e4ef" fill-rule="evenodd"/>
      <path id="Path_61" data-name="Path 61" d="M294.145,285.516l-4.042,4.7,5.54-2.752Z" transform="translate(-87.129 -55.819)" fill="#d7e4ef" fill-rule="evenodd"/>
      <path id="Path_62" data-name="Path 62" d="M293.525,285.873s2.2,5.366,2.115,5.082c-.043-.138-.334-3.35-.334-3.35-.322-.562-1.527-4.1-1.531-4.058Z" transform="translate(-86.51 -56.176)" fill="#fff" fill-rule="evenodd"/>
      <path id="Path_63" data-name="Path 63" d="M290.356,287.793c-.322.172-4.469,1.883-4.469,1.883l-2.883-7.4,2.8-2.3Z" transform="translate(-88.414 -56.823)" fill="#fff" fill-rule="evenodd"/>
      <path id="Path_64" data-name="Path 64" d="M130.661,220.657c-.456-.233-3.2-1.629-4.707.361s-.966,5.711.567,6.319,3.809.207,3.535-.341-.791-.918-.514-.957,1.091.039,1.064-.631-.42-.79-.42-.79,1.252-.725,1-1.357a3.864,3.864,0,0,0-.4-.822s.864-.035.667-.755A1.748,1.748,0,0,0,130.661,220.657Z" transform="translate(-117.001 -67.683)" fill="#f8dfdf" fill-rule="evenodd"/>
      <path id="Path_65" data-name="Path 65" d="M132.542,222.1c-.337-1.41-.933-3.106-2.191-2.668-1.818.634-5.314,4.377-3.559,4.478a4.476,4.476,0,0,0,3.1-1.3,1.871,1.871,0,0,0,.523,2.549C132.166,226.38,132.96,223.857,132.542,222.1Z" transform="translate(-116.774 -67.793)" fill="#f8dfdf" fill-rule="evenodd"/>
      <path id="Path_66" data-name="Path 66" d="M286.789,260.534c1.963-2.98,1.74-2.88,4.279-3.936s3.367-.772,3.367-.772-.691.843-.345.422,5.73,1.079,7.865,1.2,2.935-.256,2.629.027-1.13,1.157-1.13,1.157a30.453,30.453,0,0,0,8.033,1.154c-.12.106-.772.508-.772.508a1.821,1.821,0,0,0,1.434.428c.025,1.2-2.523,2.562-2.41,2.534s.979-.154.979-.154-1.716,3.636-6.95,4.169-13.506-.247-15.263-2.214A7.268,7.268,0,0,1,286.789,260.534Z" transform="translate(-87.729 -61.199)" fill="#0c1b1c" fill-rule="evenodd"/>
      <path id="Path_67" data-name="Path 67" d="M129.972,318.407c-1.142.511-6.952,2.416-8.407,2.825s-3.9,1.322-3.209,2.069,7.935,3.493,9.568,2.784a3.885,3.885,0,0,1,2.264-.523l1.107-3Z" transform="translate(-118.235 -49.866)" fill="#0c1b1c" fill-rule="evenodd"/>
      <path id="Path_68" data-name="Path 68" d="M197.1,328.441c-.033.319-.523,8.223-.523,8.223l3.869.43.389-.469a35.085,35.085,0,0,0,5.4,1.273c1.223,0,7.759.129,7.766-.681s-8.54-3.816-8.869-4.119-2.741-3.052-2.741-3.052Z" transform="translate(-104.056 -48.05)" fill="#0c1b1c" fill-rule="evenodd"/>
      <path id="Path_69" data-name="Path 69" d="M436.91,376.851a10.74,10.74,0,0,0-2.458,2.363c-1.335,1.547-1.585,2.125-1.285,2.778.5,1.082,3.715-.935,4.266-2.468A3.128,3.128,0,0,0,436.91,376.851Z" transform="translate(-61.257 -39.288)" fill="#e0bdc6" fill-rule="evenodd"/>
      <rect id="Rectangle_3" data-name="Rectangle 3" width="43.559" height="31.679" rx="2.294" transform="translate(356.905 351.82) rotate(-15.238)" fill="#0f2b39"/>
      <rect id="Rectangle_4" data-name="Rectangle 4" width="3.699" height="4.898" rx="0.375" transform="translate(380.466 361.578) rotate(-15.242)" fill="#fff"/>
      <path id="Path_70" data-name="Path 70" d="M461.824,379.684l-12.019,3.373-1.34-4.924a1.124,1.124,0,0,0-1.336-.844l-14.48,3.944a1.122,1.122,0,0,0-.723,1.405l1.342,4.924L421,390.91c-1.43.4-.993,1.472-.613,2.9,7.557,2.794,20.307,7.026,21.857,7.561a6.136,6.136,0,0,0,7.037-1.917c1.058-1.24,9.453-11.131,14.551-17.375l-.034-.126c-.392-1.438-.535-2.675-1.97-2.272Zm-14.09,3.937h0L435.339,387l-.846-3.1a.748.748,0,0,1,.482-.937l11.023-3a.748.748,0,0,1,.889.563Z" transform="translate(-63.618 -39.215)" fill="#031216" fill-rule="evenodd"/>
      <path id="Path_71" data-name="Path 71" d="M440.53,375.249c1.116,1.446,3.61,5.622,2.964,6.386-.713.844-4.762,2.445-6.517,2.6s-2.631-.222-2.382-2c.222-1.584.6-4.354.74-5.612Z" transform="translate(-60.985 -39.578)" fill-rule="evenodd" fill="url(#linear-gradient)"/>
      <path id="Path_72" data-name="Path 72" d="M434.744,375.37a17.728,17.728,0,0,1,.426,2.038s5.639-1.355,5.647-1.493a8.4,8.4,0,0,0-.805-1.923Z" transform="translate(-60.951 -39.806)" fill="#dfedf6" fill-rule="evenodd"/>
      <path id="Rectangle_5" data-name="Rectangle 5" d="M.463,0H2.481a.463.463,0,0,1,.463.463V1.921a.463.463,0,0,1-.463.463H.464A.464.464,0,0,1,0,1.921V.463A.463.463,0,0,1,.463,0Z" transform="translate(381.321 363.181) rotate(-15.239)" fill="#aecee1"/>
      <path id="Path_73" data-name="Path 73" d="M418.468,327.237l14.568,24.909,12.958,31.006-6.741,1.979-13.46-30.279-17.926-22.785Z" transform="translate(-65.815 -48.268)" fill="#0c1b1c" fill-rule="evenodd"/>
      <path id="Path_74" data-name="Path 74" d="M293.467,288.277c-.621-.286-4.727-1.789-5.033-1.078s-.189,3.054.975,3.708,2.171,1.37,3.119-.292A5.655,5.655,0,0,0,293.467,288.277Z" transform="translate(-87.458 -55.549)" fill="#2b69ae" fill-rule="evenodd"/>
      <path id="Path_75" data-name="Path 75" d="M289.187,289.529c-1.927,6.393-3.114,36.481.868,47.184,0,0,6.55,6.173,6.368,5.6s1.488-7.787,1.488-7.787c-4.426-12.835-7.293-25.274-5.969-44.015Z" transform="translate(-87.618 -55.093)" fill="#2b69ae" fill-rule="evenodd"/>
      <path id="Path_76" data-name="Path 76" d="M265.247,383.226c-.533.239-2.867-.059-3.854,1.374-.97,1.409-5.005,1.718-5.814,1.86-1.489.26-2.637.913-1.947,1.66s5.116,2.319,6.9,2.282c1.182-.025,3.283.035,4.086-.03,1.485-.118,1.276-.667,1.957-2.994Z" transform="translate(-93.767 -38.135)" fill="#0c1b1c" fill-rule="evenodd"/>
      <path id="Path_77" data-name="Path 77" d="M379.92,425.805c-.353,0-5.252.574-5.252.574s-8.1,0-10.778-.82-2.143.783-.756,1.734a44.743,44.743,0,0,0,6.277,3.486,37.587,37.587,0,0,0,4.287,1.691l.648-.33.085.634,2.721,1.232,2.694-3.234Z" transform="translate(-74.119 -30.513)" fill="#0c1b1c" fill-rule="evenodd"/>
      <path id="Path_78" data-name="Path 78" d="M444.353,446.283c-.533.24-2.867-.058-3.854,1.375-.97,1.409-5.005,1.717-5.815,1.86-1.489.26-2.275.9-1.947,1.659s4.077,2.363,6.9,2.283c1.182-.034,4.875.138,5.675.041,1.3-.156,1.431-2.363.352-4.56Z" transform="translate(-61.327 -26.722)" fill="#0c1b1c" fill-rule="evenodd"/>
      <path id="Path_79" data-name="Path 79" d="M203.068,213.737c.477,0,.626.523.332,1.168a1.9,1.9,0,0,1-1.4,1.168c-.477,0-.626-.523-.332-1.168A1.9,1.9,0,0,1,203.068,213.737Z" transform="translate(-103.162 -68.81)" fill="#1d3e4b" fill-rule="evenodd"/>
      <path id="Path_80" data-name="Path 80" d="M205.485,214.475a35.52,35.52,0,0,1-3.648-1.664c-.489-.274-.1-1.351.56-1.138s3.463,1.275,3.848,1.847A.643.643,0,0,1,205.485,214.475Z" transform="translate(-103.144 -69.189)" fill="#312624" fill-rule="evenodd"/>
      <path id="Path_81" data-name="Path 81" d="M300.845,272.473c.477,0,.626.523.332,1.168a1.9,1.9,0,0,1-1.4,1.168c-.477,0-.626-.523-.332-1.168A1.9,1.9,0,0,1,300.845,272.473Z" transform="translate(-85.465 -58.18)" fill="#1d3e4b" fill-rule="evenodd"/>
      <path id="Path_82" data-name="Path 82" d="M301.963,271.821a35.566,35.566,0,0,1-4.011-.015c-.557-.048-.649-1.189.044-1.267s3.68-.262,4.267.1A.642.642,0,0,1,301.963,271.821Z" transform="translate(-85.79 -58.551)" fill="#0c1b1c" fill-rule="evenodd"/>
      <path id="Path_83" data-name="Path 83" d="M397.607,328.934c.621-.286,4.727-1.789,5.035-1.078s.189,3.055-.977,3.709-2.171,1.369-3.118-.293A5.65,5.65,0,0,1,397.607,328.934Z" transform="translate(-67.672 -48.19)" fill="#2f7a91" fill-rule="evenodd"/>
      <path id="Path_84" data-name="Path 84" d="M402.37,330.186c1.927,6.393.079,32.177,1.235,48.287l-4.172,8.66-3.615-7.389c.249-14.9,2.64-29.218,3.8-48.579Z" transform="translate(-67.996 -47.734)" fill="#2f7a91" fill-rule="evenodd"/>
      <path id="Path_85" data-name="Path 85" d="M397.022,311.714c-.449-.074-.888.465-.98,1.2s.2,1.4.645,1.474.888-.465.981-1.2S397.472,311.788,397.022,311.714Z" transform="translate(-67.959 -51.079)" fill="#1d3e4b" fill-rule="evenodd"/>
      <path id="Path_86" data-name="Path 86" d="M395.49,311.037a35.485,35.485,0,0,0,3.959.64c.559.044.836-1.068.165-1.258s-3.588-.86-4.226-.6A.642.642,0,0,0,395.49,311.037Z" transform="translate(-68.145 -51.431)" fill="#423330" fill-rule="evenodd"/>
      <path id="Path_87" data-name="Path 87" d="M390.9,310.134a14.055,14.055,0,0,0,2.49.4c.353.009.6-1.107.181-1.255s-2.239-.637-2.662-.339S390.567,310.026,390.9,310.134Z" transform="translate(-68.937 -51.597)" fill="#423330" fill-rule="evenodd"/>
      <path id="Path_88" data-name="Path 88" d="M392.22,310.861c-.449-.074-.888.465-.981,1.2s.2,1.4.645,1.474.889-.465.981-1.2S392.669,310.935,392.22,310.861Z" transform="translate(-68.828 -51.233)" fill="#1d3e4b" fill-rule="evenodd"/>
      <path id="Path_89" data-name="Path 89" d="M393.963,314.411a14.724,14.724,0,0,1-2.107,2.143s.335.954,1.986,1.025,1.8-.129,1.61-.227-1.416-.632-1.6-1.351A3.229,3.229,0,0,1,393.963,314.411Z" transform="translate(-68.713 -50.589)" fill="#dcbdba" fill-rule="evenodd"/>
    </g>
  </g>
</svg>
