<svg xmlns="http://www.w3.org/2000/svg" xmlns:xlink="http://www.w3.org/1999/xlink" width="717.801" height="717.801" viewBox="0 0 717.801 717.801">
  <defs>
    <linearGradient id="linear-gradient" x1="2.173" y1="-1.002" x2="0.241" y2="0.976" gradientUnits="objectBoundingBox">
      <stop offset="0" stop-color="#9bb6cc"/>
      <stop offset="1" stop-color="#fdfbf9"/>
    </linearGradient>
  </defs>
  <g id="Group_237" data-name="Group 237" transform="translate(-131.099 -2309)">
    <circle id="Ellipse_48" data-name="Ellipse 48" cx="296.069" cy="296.069" r="296.069" transform="translate(848.9 2883.55) rotate(166)" fill="url(#linear-gradient)"/>
    <ellipse id="Ellipse_181" data-name="Ellipse 181" cx="104.5" cy="9.5" rx="104.5" ry="9.5" transform="translate(444 2854)" fill="#bfb8b1"/>
    <g id="money-investment" transform="translate(145.972 2417.7)">
      <ellipse id="Ellipse_165" data-name="Ellipse 165" cx="66.883" cy="65.535" rx="66.883" ry="65.535" transform="translate(234.933 130.387) rotate(-8.11)" fill="#dc952d"/>
      <ellipse id="Ellipse_166" data-name="Ellipse 166" cx="66.883" cy="65.535" rx="66.883" ry="65.535" transform="translate(240.813 129.765) rotate(-8.11)" fill="#fcc84e"/>
      <path id="Path_382" data-name="Path 382" d="M507,316q42.641-35.119,85.316-70.2a72.924,72.924,0,0,1,14.075,5.845,68.177,68.177,0,0,1,7.816,4.98L514.85,339.9S507.553,331.877,507,316Z" transform="translate(-257.096 -123.638)" fill="#fef04f"/>
      <path id="Path_383" data-name="Path 383" d="M594.4,435.155q48.969-40.41,97.9-80.855a68.234,68.234,0,0,1,3.7,12.035c.484,2.386.83,4.669,1.072,6.778q-41.863,35.067-83.725,70.169a63.421,63.421,0,0,1-18.951-8.127Z" transform="translate(-314.27 -194.616)" fill="#f59e1b"/>
      <circle id="Ellipse_167" data-name="Ellipse 167" cx="50.214" cy="50.214" r="50.214" transform="translate(266.573 135.407)" fill="#d2753f"/>
      <ellipse id="Ellipse_168" data-name="Ellipse 168" cx="48.001" cy="48.105" rx="48.001" ry="48.105" transform="translate(265.284 144.738) rotate(-8.11)" fill="#fdaa40"/>
      <path id="Path_384" data-name="Path 384" d="M659.876,337.853a35.51,35.51,0,0,1,6.847,2.767c2.421,1.487,7.02-.035,5.983-4.5s-5.6-6.121-8.473-6.674a25.369,25.369,0,0,0-4.219-.553l-.8-.173-.8-5.464a8.262,8.262,0,0,0-4.357-1.591c-2.836-.277-4.081,2.974-4.081,2.974l1.037,6.017s-14.041,4.012-11.931,16.807,14.559,12.277,14.559,12.277,16.911-2.8,18.675,7.435-7.228,14.006-11.412,13.176-8.715-.38-12.1-6.536-8.577-.035-8.611,1.141,3.7,9.752,9.822,12.83a18.086,18.086,0,0,0,5.6,1.522,10.215,10.215,0,0,0,3.147-.242l1.037,6.5s.622.968,4.046,1.349a4.644,4.644,0,0,0,4.738-2.49l-.865-6.813s10.686-1.418,13.971-16.634-13.314-20.508-19.712-20.2c-6.4.346-13.729,2.352-13.626-6.536C648.394,342.971,651.783,336.989,659.876,337.853Z" transform="translate(-343.365 -173.258)" fill="#d2753f"/>
      <path id="Path_385" data-name="Path 385" d="M669.476,336.953a35.511,35.511,0,0,1,6.847,2.767c2.421,1.487,7.02-.035,5.983-4.5s-5.6-6.121-8.473-6.674a25.367,25.367,0,0,0-4.219-.553l-.8-.173-.8-5.464a8.262,8.262,0,0,0-4.357-1.591c-2.836-.277-4.081,2.974-4.081,2.974l1.037,6.017s-14.041,4.012-11.931,16.807,14.559,12.277,14.559,12.277,16.911-2.8,18.675,7.435-7.228,14.006-11.412,13.176-8.715-.38-12.1-6.536-8.577-.035-8.611,1.141,3.7,9.752,9.822,12.83a18.084,18.084,0,0,0,5.6,1.522,10.216,10.216,0,0,0,3.147-.242l1.037,6.5s.622.968,4.046,1.349a4.644,4.644,0,0,0,4.738-2.49l-.865-6.813s10.686-1.418,13.971-16.634c3.32-15.182-13.314-20.508-19.712-20.2-6.4.346-13.729,2.352-13.626-6.536C657.96,342.071,661.349,336.089,669.476,336.953Z" transform="translate(-349.645 -172.67)" fill="#fecb51"/>
      <g id="Group_229" data-name="Group 229" transform="translate(306.746 56.8)">
        <path id="Path_386" data-name="Path 386" d="M831.5,1090.338l2.455,11.724.692,6.052,11.9-.761s-1.21-15.355-2.421-18.951S831.5,1090.338,831.5,1090.338Z" transform="translate(-776.121 -730.849)" fill="#feabb5"/>
        <path id="Path_387" data-name="Path 387" d="M1075.682,1050.226l9.822,1.729-.138,12.554-16.565-1.9,3.078-10.652.45-2.455Z" transform="translate(-931.355 -706.196)" fill="#feabb5"/>
        <path id="Path_388" data-name="Path 388" d="M837.1,249.082c.311,4.461.657,8.922.968,13.384.934,1.453,1.867,2.9,2.836,4.357,6.605-.346,13.211-.657,19.781-1l-.38-1.037L853.527,245.9Z" transform="translate(-779.784 -180.504)" fill="#feabb5"/>
        <path id="Path_389" data-name="Path 389" d="M843.1,296.6s2.87.415,7.02,1.141a32.831,32.831,0,0,0,9.683.311c1.418-.277,4.323-.726,4.323-.726l.519,1.66s-15.182.726-15.562.726-4.012-1.314-4.012-1.314Z" transform="translate(-783.709 -213.67)" fill="#fe8d90"/>
        <path id="Path_390" data-name="Path 390" d="M819.328,293.8a1.945,1.945,0,0,0-.173.968c.1,1.107,1.28,1.833,1.625,2.04.138.1,1.625,2.006,4.6,5.775a52.978,52.978,0,0,1,5.879,10.548c2.87,6.571,6.294,22.2,5.187,42.4-.277,5.187-1.833,25.557-10.271,45.3-1.522,3.562-2.87,6.294-3.77,8.058-4.5,8.957-14.006,25.246-14.006,25.246s2.179,5.36,23.447,3.078,25.453-7.608,25.453-7.608l.207-.83-2.386-66.468-12.657-66.053a32.448,32.448,0,0,1-23.136-2.455Z" transform="translate(-761.009 -211.839)" fill="#fff"/>
        <path id="Path_391" data-name="Path 391" d="M715.781,628.954s-42.26,66.572-44.093,82.1,4.6,19.332,7.366,22.2,47.482,59.621,47.482,59.621,7.193,1.28,12.415,0,5.983-3.977,5.983-3.977-35.067-63.736-35.9-72.52c-.934-9.51,21.822-43.056,21.822-43.056s13.556,68.716,14.456,73S809.5,792.219,809.5,792.219s4.15-2.525,8.127-9.683c3.977-7.124,3.977-12.692,3.977-12.692l-50.56-36.727s7.366-51.978,7.366-71.344c0,0-.311-7.435-.761-10.133s-25.107-19.5-42.122-23.447C718.513,624.216,715.781,628.954,715.781,628.954Z" transform="translate(-671.365 -429.549)" fill="#4f2926"/>
        <path id="Path_392" data-name="Path 392" d="M827.6,116.141c-.45-.692-13.833,10.237-18.26,22.41s-1.625,21.58,4.876,24.312,14.11.83,16.531-.277c2.455-1.107,8.68-4.219,8.957-5.015.277-.83,2.7.9,6.4-1.833s3.527-5.775,1.072-9.13l-1.453-1.937s3.8-8.992,4.012-12.1c.207-3.078-1.833-3.977-4.081-4.738C843.47,127.069,833.718,125.963,827.6,116.141Z" transform="translate(-760.217 -95.599)" fill="#feabb5"/>
        <path id="Path_393" data-name="Path 393" d="M861.3,114.2s-.553,1.522.9,4.012a21.665,21.665,0,0,0,9.752,7.747c3.873,1.314,10.167,1.383,10.409,3.562s-.8,6.847-1.141,7.989c-.38,1.141,0,4.911,0,4.911s4.669-8.3,4.669-9.268,1.037-5.084-2.352-7.09-9.614-2.663-9.856-2.8C873.408,123.157,861.3,114.2,861.3,114.2Z" transform="translate(-795.55 -94.349)" fill="#fe8d90"/>
        <path id="Path_394" data-name="Path 394" d="M861.4,58.252s-6.087,4.738-6.64,12.623c-.519,7.885,9.268,14.283,12.8,15.631A78.281,78.281,0,0,0,877.1,89.17a5.438,5.438,0,0,1,2.663,5.5c-.519,3.839-3.6,11-3.6,11s4.53,3.8,2.732,8.334-7.159,4.669-8.334,4.254c0,0-3.32,2.421-4.427,3.009,0,0,2.144,3.424,13.453.138s15.977-13.833,17.153-17.119,2.179-13.314-3.527-18.986-9.614-4.6-8.957-13.038-5.844-8.369-6.225-8.369-8.507,1.556-8.507,1.556a10.2,10.2,0,0,1-3.942-4.807,6.4,6.4,0,0,0-2.732-3.839Z" transform="translate(-791.325 -56.8)" fill="#4f2926"/>
        <path id="Path_395" data-name="Path 395" d="M923.323,658.38s-1.21,16.6,4.98,25.418c6.19,8.853,13.314,8.473,13.314,8.473s2.179-18.64-.865-23.724S922.7,658,922.7,658Z" transform="translate(-835.781 -450.088)" fill="none" stroke="#fff" stroke-miterlimit="10" stroke-width="3"/>
        <path id="Path_396" data-name="Path 396" d="M905.859,299.611a23.8,23.8,0,0,1,23,6.847c10.409,10.686,22.133,27.113,27.182,52.912s.38,47.724-5.43,56.785c-5.845,9.061-12.727,16.185-18.018,19.885l-5.291,3.7s-8.334-6.847-10.2-20.577,1.453-20.577,1.453-20.577L905.375,300.51S905.237,299.542,905.859,299.611Z" transform="translate(-824.439 -215.194)" fill="#5670c4"/>
        <path id="Path_397" data-name="Path 397" d="M913.4,399.163c1.418-.45,13.971-3.009,22.341-12.727s10.859-34.2,8.646-46.445-6.536-20.75-12.45-24.969S913.4,399.163,913.4,399.163Z" transform="translate(-829.697 -225.626)" fill="#c92615"/>
        <path id="Path_398" data-name="Path 398" d="M715.618,596.522c-.208.138-5.291,3.493-7.539,3.147s-9.2-4.323-12.381-2.87-3.631,5.084-.657,6.986a14.231,14.231,0,0,0,5.118,2.248s-7.435,4.046-8.68,3.7-2.836-1.66-4.185-1.037c-1.314.622-4.046,11.1,3.908,15.355s14.974,5.015,20.957,3.009c5.948-2.006,11.793-3.7,14.905-6.225s3.389-3.908,3.389-3.908l-.208-1.453Z" transform="translate(-680.781 -409.844)" fill="#feabb5"/>
        <path id="Path_399" data-name="Path 399" d="M737.51,615.7c-.138.38,1.833,13.211-4.5,17.326-6.294,4.115-13.695,6.052-16.6,6.19s-8.715-1.452-8.715-1.452a27.825,27.825,0,0,0,19.09,1.66s8.438-2.075,13.522-5.257,5.084-6.19,5.084-6.19Z" transform="translate(-695.134 -422.416)" fill="#fe8d90"/>
        <path id="Path_400" data-name="Path 400" d="M821.546,298s-9.337,3.908-10.548,20.992c-1.176,17.084-.38,35-2.767,41.292S768.6,397.046,768.6,397.046a26.122,26.122,0,0,0,8.231,16.876c8.092,7.816,7.816,6.432,7.816,6.432S826.941,397.6,830.3,394.487c9.614-8.784,10.2-20.853,12.519-30.883a129.366,129.366,0,0,0,.761-53.846,47.107,47.107,0,0,0-6.225-6.329,33.71,33.71,0,0,0-7.747-4.945c-3.355-1.487-5.395-1.695-7.124-1A9.22,9.22,0,0,0,821.546,298Z" transform="translate(-734.973 -213.999)" fill="#f0512a"/>
        <path id="Path_401" data-name="Path 401" d="M853.6,136.8s4.461,2.421,5.464,4.081,1.9,2.94,1.729,4.15a32.352,32.352,0,0,1-3.009,7.4,33.172,33.172,0,0,1-3.77,4.427l-.519.45m13.28-8.749s3.147-.415,4.738,1,2.455,4.634,2.455,4.634" transform="translate(-790.512 -109.134)" fill="none" stroke="#4f2926" stroke-miterlimit="10" stroke-width="1"/>
        <ellipse id="Ellipse_169" data-name="Ellipse 169" cx="4.012" cy="3.216" rx="4.012" ry="3.216" transform="translate(56.058 39.049) rotate(-63.801)" fill="#4f2926"/>
        <ellipse id="Ellipse_170" data-name="Ellipse 170" cx="4.012" cy="3.216" rx="4.012" ry="3.216" transform="translate(72.578 49.447) rotate(-63.801)" fill="#4f2926"/>
        <path id="Path_402" data-name="Path 402" d="M836.9,207.2s1.453,3.562,3.043,4.807a9.3,9.3,0,0,0,4.357,1.418" transform="translate(-779.653 -155.187)" fill="none" stroke="#4f2926" stroke-miterlimit="10" stroke-width="1"/>
        <path id="Path_403" data-name="Path 403" d="M883.473,1051.78c-.9.069-.311,12.381-.311,12.381l-6.121.173a7,7,0,0,0-.138,4.115c.622,2.213,5.049,8.715,5.049,8.715s-.138,18.536.761,20.438,5.049-2.87,7.5-8.231c2.455-5.395,7.124-24.173,8.058-28.289a30.466,30.466,0,0,0,.934-5.533S899.658,1050.258,883.473,1051.78Zm-94.826,24.588s2.628,6.536,5.049,6.536,7.228-5.118,7.228-5.118,2.179-.726,2.525.1.692,18.917.692,18.917-18.606-.968-27.113-1.072-13.557-2.006-14.248-3.458c-.692-1.418.346-3.078,1.487-3.078a126.448,126.448,0,0,0,12.8-2.075c2.006-.588,10.617-11.24,10.617-11.24Z" transform="translate(-731.019 -707.507)" fill="#f0512a"/>
        <path id="Path_404" data-name="Path 404" d="M837.1,248.385a41.708,41.708,0,0,0,7.885-1.141,35.039,35.039,0,0,0,5.049-2.144s-.519,3.631-5.672,5.395-6.917,1.66-6.917,1.66l-.346-3.6Z" transform="translate(-779.784 -179.98)" fill="#fe8d90"/>
        <path id="Path_405" data-name="Path 405" d="M907.58,206.9s2.525,1.729,2.248,3.666-1.349,2.732-2.317,2.144-1.8-2.075-1.349-2.594,2.075-1.349,2.248-.208c.138,1.107-.865.968-.865.968" transform="translate(-824.881 -154.991)" fill="none" stroke="#fe8d90" stroke-miterlimit="10" stroke-width="1"/>
        <ellipse id="Ellipse_173" data-name="Ellipse 173" cx="1.28" cy="1.037" rx="1.28" ry="1.037" transform="translate(51.887 373.91)" fill="#f9ecdc"/>
        <ellipse id="Ellipse_174" data-name="Ellipse 174" cx="1.107" cy="0.899" rx="1.107" ry="0.899" transform="translate(50.019 376.573)" fill="#f9ecdc"/>
        <ellipse id="Ellipse_175" data-name="Ellipse 175" cx="1.003" cy="0.899" rx="1.003" ry="0.899" transform="translate(47.84 378.613)" fill="#f9ecdc"/>
        <ellipse id="Ellipse_176" data-name="Ellipse 176" cx="1.28" cy="1.037" rx="1.28" ry="1.037" transform="translate(147.187 360.724) rotate(-69.929)" fill="#f9ecdc"/>
        <ellipse id="Ellipse_177" data-name="Ellipse 177" cx="1.107" cy="0.899" rx="1.107" ry="0.899" transform="translate(149.024 363.392) rotate(-69.929)" fill="#f9ecdc"/>
        <ellipse id="Ellipse_178" data-name="Ellipse 178" cx="1.003" cy="0.899" rx="1.003" ry="0.899" transform="translate(150.202 366.128) rotate(-69.929)" fill="#f9ecdc"/>
      </g>
      <g id="Group_230" data-name="Group 230" transform="translate(113.99 242.31)">
        <path id="Path_406" data-name="Path 406" d="M122.466,951.894a40.586,40.586,0,0,0,35.205,1.591s7.816-3.6,14.144-13.695,6.156-10.064,9.787-8.265c3.6,1.8,3.6,35.655,3.6,35.655l4.98.311s0-29.638-4.357-38.664c0,0-1.21-7.5-4.219-8.127s-9.026-1.037-19.851,3.77-12.035-2.11-26.318,3.458S115.9,941.9,114.374,947.779s1.971,12.346,1.971,12.346S115.861,955.871,122.466,951.894Z" transform="translate(-113.99 -807.207)" fill="#529a74"/>
        <path id="Path_407" data-name="Path 407" d="M124.1,964.569c.45-1.349,4.046-4.669,26.629-7.677,22.548-3.009,29.326-16.842,32.646-17.291" transform="translate(-120.604 -819.812)" fill="none" stroke="#328a5a" stroke-miterlimit="10" stroke-width="3"/>
        <path id="Path_408" data-name="Path 408" d="M179.551,786.835c1.21-.208,3.458,8.577,16.531,15.493s19.712,7.677,23.758,6.778,6.917-4.98,8.265-4.357,1.349,65.88,1.349,65.88h4.807s-.761-67.229-1.349-68.578-2.559-6.156-14.456-13.971-20.473-16.254-35.482-12.623c0,0-6.605,2.421-9.925,7.228S171.7,790.5,171.7,790.5,171.113,788.183,179.551,786.835Z" transform="translate(-151.363 -711.866)" fill="#529a74"/>
        <path id="Path_409" data-name="Path 409" d="M187.2,799.824s17.6-2.559,29.188,6.017,17.291,12.035,17.291,12.035" transform="translate(-161.882 -728.141)" fill="none" stroke="#328a5a" stroke-miterlimit="10" stroke-width="3"/>
        <path id="Path_410" data-name="Path 410" d="M360.9,830.505c-1.349-2.49-.553-81.443,0-83.829s1-5.879,11.724-9.579,35.655-25.937,46.03-24.692,21.545,11.378,21.338,14.767c-.242,3.389-6.329,2.04-11.724,2.594-5.43.553-8.473,7.885-15.562,17.6-7.124,9.718-19.5,13.314-32.266,9.026s-14.456-6.778-14.456-6.778l-2.144,81.339Z" transform="translate(-275.023 -671.155)" fill="#328a5a"/>
        <path id="Path_411" data-name="Path 411" d="M291.059,753.194c-.761-1.8,5.706-53.846,2.248-72.347s-2.248-23.447-10.064-26.456-24.83-15.044-28.427-27.078-4.046-18.813-4.5-19.539-1.21-3.009-4.807.588-5.118-1.487.138-8.577,10.513-9.026,19.712-2.87,24.381,23.309,27.839,32.2-.311,22.41,0,26.318,5.706,26.179,6.778,42.122c1.038,15.943-3.458,55.505-3.458,55.505Z" transform="translate(-197.889 -593.221)" fill="#529a74"/>
        <path id="Path_412" data-name="Path 412" d="M406,1057.1" transform="translate(-305.014 -896.677)" fill="none" stroke="#000" stroke-miterlimit="10" stroke-width="1"/>
        <path id="Path_413" data-name="Path 413" d="M378.529,761.938s21.995,4.184,29.223.692,18.26-28.427,25.038-29.776,18.052,8.231,18.052,8.231.242,2.248-7.124,2.04-8.784.9-13.764,8.231-9.372,16.254-20.2,18.709a36.117,36.117,0,0,1-23.586-2.04,43.858,43.858,0,0,1-9.372-5.084Z" transform="translate(-285.913 -684.48)" fill="#529a74"/>
        <path id="Path_414" data-name="Path 414" d="M277.7,613.9s21.061,22.41,25.73,33.545,6.605,17.6,6.605,17.6" transform="translate(-221.084 -606.749)" fill="none" stroke="#328a5a" stroke-miterlimit="10" stroke-width="3"/>
        <path id="Path_415" data-name="Path 415" d="M242.9,608.008c.138-1.8,6.778-16.254,17.6-7.055s10.686,17.914,19.09,25.418c8.438,7.5,11.447,12.035,11,17.6s.311,12.484,2.248,15.631c1.971,3.147,2.421,3.009,1.971,3.147s-1.591-7.989-1.591-7.989,4.98-19.4-.45-27.736S271.777,596.7,259.5,593.76C247.188,590.821,242.9,608.008,242.9,608.008ZM369.715,717.152a42.843,42.843,0,0,1-35.205,1.487s-7.816-3.389-14.144-12.9c-4.15-6.225-5.5-8.369-6.986-8.646a4.689,4.689,0,0,0-2.8.83c-5.6,3.6-4.185,44.508-3.666,56.266l-4.15.519a165.659,165.659,0,0,1,3.631-59.344s1.21-7.089,4.219-7.643,9.026-1,19.851,3.527,12.035-1.971,26.318,3.251c14.283,5.257,19.539,13.176,21.061,18.709,1.487,5.533-1.971,11.62-1.971,11.62S376.321,720.887,369.715,717.152Z" transform="translate(-198.319 -593.352)" fill="#328a5a"/>
        <path id="Path_416" data-name="Path 416" d="M513.335,907.087c-.865-1.729-5.015-5.43-24.415-4.565S458.97,886.1,456.1,886.2" transform="translate(-337.788 -784.878)" fill="none" stroke="#529a74" stroke-miterlimit="10" stroke-width="3"/>
        <path id="Path_417" data-name="Path 417" d="M336.035,1112.858H282.673a3.867,3.867,0,0,1-3.873-3.873v-52.912a3.867,3.867,0,0,1,3.873-3.873h53.361a3.867,3.867,0,0,1,3.873,3.873v52.912A3.867,3.867,0,0,1,336.035,1112.858Z" transform="translate(-221.804 -893.472)" fill="#feabb5"/>
        <path id="Path_418" data-name="Path 418" d="M313.7,1151.352c.242-.553,8.922-16.6,19.954-26.629,11.066-10.029,29.119-12.623,29.119-12.623l.242,35.309s-.346,4.5-6.432,4.738Z" transform="translate(-244.634 -932.657)" fill="#fe8d90"/>
      </g>
      <g id="Group_231" data-name="Group 231" transform="translate(153.003 75.198)">
        <path id="Path_419" data-name="Path 419" d="M324.981,138.565H233.474a6.679,6.679,0,0,1-6.674-6.674V116.674A6.679,6.679,0,0,1,233.474,110h91.506a6.678,6.678,0,0,1,6.674,6.674v15.216A6.678,6.678,0,0,1,324.981,138.565Z" transform="translate(-226.8 -110)" fill="#f1cfaa"/>
        <path id="Path_420" data-name="Path 420" d="M380.767,136.111H317.9a.783.783,0,0,1-.8-.8V132a.783.783,0,0,1,.8-.8h62.872a.783.783,0,0,1,.8.8v3.32A.8.8,0,0,1,380.767,136.111Zm.484,9.752H318.414a.783.783,0,0,1-.8-.8v-3.32a.783.783,0,0,1,.8-.8h62.872a.783.783,0,0,1,.8.8v3.32A.835.835,0,0,1,381.251,145.863Z" transform="translate(-285.872 -123.868)" fill="#f9ecdc"/>
        <ellipse id="Ellipse_179" data-name="Ellipse 179" cx="10.237" cy="9.579" rx="10.237" ry="9.579" transform="translate(7.297 5.43)" fill="#faefe5"/>
        <path id="Path_421" data-name="Path 421" d="M258.267,125.7v10.237L248.1,134.519C248.135,134.484,248.515,126.15,258.267,125.7Z" transform="translate(-240.734 -120.27)" fill="#e6b78b"/>
      </g>
      <g id="Group_232" data-name="Group 232" transform="translate(131.561 162.468)">
        <path id="Path_422" data-name="Path 422" d="M164.8,365.308s7.5-3.216,10.755-2.94,5.049,3.355,7.989,3.735c2.94.415,8.473-4.012,13.176-3.355,4.738.657,4.738,3.216,8.3,3.355,3.6.138,6.19-4.427,12.035-3.631,5.879.8,2.594,3.078,7.989,3.078s6.19-2.8,10.409-2.421,4.876,1.21,4.876,1.21m-73.419,5.5a16.221,16.221,0,0,1,10.582-.519c2.767.657,2.767,4.807,7.5,3.216s8.3-4.288,10.582-3.873,6.017,3.355,9.13,3.493c3.078.138,7.816-2.8,10.582-2.8s6.5,2.663,10.271,2.282c3.735-.415,6.986-3.078,9.268-3.078a14.043,14.043,0,0,1,5.049,1.349" transform="translate(-164.8 -362.351)" fill="none" stroke="#e6b78b" stroke-miterlimit="10" stroke-width="4"/>
      </g>
      <g id="Group_233" data-name="Group 233" transform="translate(448.099 299.191)">
        <path id="Path_423" data-name="Path 423" d="M1107.04,794.047h-22.79a4.162,4.162,0,0,1-4.15-4.15V761.85a4.162,4.162,0,0,1,4.15-4.15h22.79a4.162,4.162,0,0,1,4.15,4.15V789.9A4.162,4.162,0,0,1,1107.04,794.047Z" transform="translate(-1080.1 -757.7)" fill="#f1cfaa"/>
        <path id="Path_424" data-name="Path 424" d="M1107.268,802.508c-7.055-5.257-10.859-11.136-9.372-14.629a5.5,5.5,0,0,1,3.873-3.182c2.732-.45,4.807,1.8,5.015,2.04a6.87,6.87,0,0,1,4.53-2.386c.45-.035,3.043-.242,4.565,1.487a4.851,4.851,0,0,1,.968,2.11C1117.4,790.715,1113.6,796.352,1107.268,802.508Z" transform="translate(-1091.533 -775.118)" fill="#f0512a"/>
      </g>
      <g id="Group_234" data-name="Group 234" transform="translate(484.307 234.245)">
        <path id="Path_425" data-name="Path 425" d="M1243.3,589.208s7.5-3.216,10.755-2.94,5.049,3.355,7.989,3.735c2.939.415,8.473-4.012,13.176-3.355,4.738.657,4.738,3.216,8.3,3.355,3.6.138,6.19-4.427,12.035-3.631s2.594,3.078,7.989,3.078,6.19-2.8,10.41-2.421c4.219.415,4.876,1.21,4.876,1.21m-73.419,5.533a16.221,16.221,0,0,1,10.582-.519c2.767.657,2.767,4.807,7.5,3.216s8.3-4.288,10.582-3.873,6.017,3.355,9.13,3.493,7.816-2.8,10.582-2.8,6.5,2.663,10.271,2.282,6.986-3.078,9.268-3.078a14.042,14.042,0,0,1,5.049,1.349" transform="translate(-1223.069 -580.596)" fill="none" stroke="#e6b78b" stroke-miterlimit="10" stroke-width="4"/>
        <path id="Path_426" data-name="Path 426" d="M1200.743,588.194l-6.052-3.009-5.914,3.285.968-6.674-4.945-4.6,6.674-1.141,2.836-6.156,3.147,5.983,6.709.83-4.738,4.842Z" transform="translate(-1184.8 -569.9)" fill="#e6b78b"/>
      </g>
      <g id="Group_235" data-name="Group 235" transform="translate(212.797 223.351)">
        <circle id="Ellipse_180" data-name="Ellipse 180" cx="13.971" cy="13.971" r="13.971" fill="#f1cfaa"/>
        <path id="Path_427" data-name="Path 427" d="M432.486,569.057l-5.5-.8-3.8,4.046-.934-5.464-5.049-2.352,4.945-2.594.657-5.5,3.977,3.873,5.464-1.072-2.455,4.98Z" transform="translate(-411.148 -550.175)" fill="#fdaa40"/>
      </g>
      <g id="Group_236" data-name="Group 236" transform="translate(463.557 109.643)">
        <path id="Path_428" data-name="Path 428" d="M1196.075,290.489h-63.909a7.35,7.35,0,0,1-7.366-7.366V216.966a7.35,7.35,0,0,1,7.366-7.366h63.909a7.35,7.35,0,0,1,7.366,7.366v66.122A7.38,7.38,0,0,1,1196.075,290.489Z" transform="translate(-1124.8 -209.6)" fill="#f1cfaa"/>
        <path id="Path_429" data-name="Path 429" d="M1207.122,241.4c.346.035-.069-8.2-.069-8.2l7.919.1-.035,8.577s5.291.8,7.159,2.386a29.576,29.576,0,0,1,2.732,2.628l-6.813,7.055s-5.568-4.876-11.17-1c0,0-2.767,5.775,2.352,7.366,0,0,5.533-.138,8.991,1.107s10.859,6.571,8.473,16.427a15.988,15.988,0,0,1-10.755,11.931l-.8.173.415,7.089s-7.47.415-7.816.242-.138-7.919-.138-7.919a22.362,22.362,0,0,1-10.409-4.565l-1.591-2.075,7.332-7.159a12.66,12.66,0,0,0,9.995,4.219c6.26-.415,4.6-8.334,1.522-8.749s-13.038.207-17.672-9.614C1192.044,251.633,1201.208,241.085,1207.122,241.4Z" transform="translate(-1171.018 -225.038)" fill="#dc952d"/>
      </g>
    </g>
  </g>
</svg>
